<svg width="68" height="32" viewBox="0 0 68 32" fill="none" xmlns="http://www.w3.org/2000/svg">
<path d="M12.6638 24.5517C12.6638 22.3117 12.6738 20.0717 12.6538 17.8317C12.6538 17.3417 12.7838 17.1817 13.2638 17.2217C13.8138 17.2617 14.3738 17.2717 14.9238 17.2217C15.4138 17.1817 15.4838 17.3817 15.4838 17.8117C15.4738 21.2317 15.4838 24.6517 15.4838 28.0717C15.4838 28.8617 15.4838 28.8617 16.2338 28.6217C18.8438 27.7917 20.6538 25.3917 20.6938 22.6617C20.7138 21.0417 20.7138 19.4317 20.6938 17.8117C20.6938 17.3817 20.7738 17.1917 21.2538 17.2217C21.8938 17.2617 22.5438 17.2417 23.1938 17.2217C23.4238 17.2217 23.5938 17.2317 23.5838 17.5417C23.4738 19.9817 23.8538 22.4417 23.1838 24.8517C21.9738 29.2017 17.5238 32.3117 13.0538 31.9617C12.6038 31.9217 12.6738 31.6817 12.6738 31.4117C12.6738 29.1217 12.6738 26.8417 12.6738 24.5517H12.6638Z" fill="#131715"/>
<path d="M11.1539 11.0615C11.1539 12.5215 11.1439 13.9715 11.1539 15.4315C11.1539 15.8215 11.0538 15.9715 10.6438 15.9515C10.1838 15.9215 9.71383 15.9115 9.25383 15.9515C8.59383 16.0115 8.17385 15.9015 8.33385 15.0915C8.39385 14.8115 8.22386 14.7515 7.97386 14.7515C6.49386 14.7515 5.01386 14.7715 3.53386 14.7515C3.05386 14.7515 3.09386 15.0315 3.09386 15.3315C3.09386 17.1615 3.07386 18.9815 3.10386 20.8115C3.10386 21.3015 2.96381 21.4615 2.48381 21.4115C1.75381 21.3415 0.773814 21.7115 0.363814 21.2615C0.00381353 20.8715 0.233828 19.9015 0.253828 19.1915C0.303828 17.3315 0.0638062 15.4515 0.543806 13.6015C1.71381 9.07147 6.14383 5.87147 10.7538 6.22147C11.1338 6.25147 11.1438 6.42146 11.1438 6.70146C11.1438 8.16146 11.1438 9.61147 11.1438 11.0715L11.1539 11.0615ZM3.64384 12.8015C5.15384 12.8015 6.53381 12.8015 7.92381 12.8015C8.16381 12.8015 8.37381 12.8315 8.36381 12.4615C8.34381 11.4215 8.36381 10.3915 8.36381 9.35147C8.36381 9.12147 8.29381 9.00147 8.04381 9.07147C6.06381 9.63147 4.58384 10.7915 3.64384 12.8015Z" fill="#0F1311"/>
<path d="M11.1535 26.4913C11.1535 28.1313 11.1535 29.7713 11.1535 31.4213C11.1535 31.7613 11.1335 31.9513 10.6935 31.9613C5.49349 32.1513 1.16352 28.6413 0.343516 23.5613C0.253516 23.0313 0.393484 22.9213 0.873484 22.9513C1.54348 22.9813 2.28347 22.7813 2.86347 23.0113C3.50347 23.2613 3.22351 24.1413 3.46351 24.7113C4.29351 26.6913 5.66351 28.0213 7.71351 28.6813C8.19351 28.8313 8.35352 28.7713 8.34352 28.2313C8.32352 26.0113 8.3435 23.7913 8.3235 21.5713C8.3235 21.0713 8.47349 20.9313 8.94349 20.9713C9.49349 21.0113 10.0535 21.0113 10.6035 20.9713C11.0335 20.9413 11.1535 21.0813 11.1435 21.5113C11.1235 23.1713 11.1335 24.8413 11.1335 26.5013L11.1535 26.4913Z" fill="#0F1311"/>
<path d="M50.904 11.0411C50.904 12.1011 50.494 13.1611 51.144 14.1411H48.104C48.674 13.5111 48.534 12.7711 48.534 12.0611C48.534 10.6711 48.534 9.29107 48.534 7.90107C48.534 7.32107 48.584 6.74107 48.124 6.19107C49.524 6.19107 50.804 6.16107 52.084 6.19107C53.234 6.23107 53.944 6.78108 54.204 7.73108C54.474 8.71108 54.184 9.42107 53.144 10.1011C52.884 10.2711 52.904 10.3711 53.034 10.5711C53.784 11.7211 54.314 13.0211 55.474 14.1811C54.594 14.1811 53.894 14.2011 53.204 14.1811C52.684 14.1611 52.384 13.8111 52.154 13.3911C51.734 12.6111 51.314 11.8311 50.904 11.0411ZM52.0439 8.79107C52.0439 8.21107 51.9639 7.75108 51.4839 7.51108C50.9939 7.26108 50.794 7.39107 50.784 7.94107C50.784 8.38107 50.764 8.82108 50.784 9.26108C50.804 9.53108 50.594 9.96107 50.934 10.0511C51.264 10.1411 51.544 9.80106 51.774 9.53106C51.974 9.28106 52.0539 9.01107 52.0439 8.80107V8.79107Z" fill="#131715"/>
<path d="M21.3435 14.1216C20.0335 14.1216 18.9335 14.1216 17.8235 14.1216C18.1435 13.5216 18.0135 12.0716 17.6135 11.7616C17.5035 11.6716 15.3935 11.6716 15.2935 11.7616C14.9035 12.0816 14.7735 13.5616 15.0835 14.1316C14.3435 14.1316 13.6135 14.1316 12.7935 14.1316C13.6735 12.9216 13.9835 11.5216 14.4035 10.1816C14.8035 8.90164 15.7335 7.70164 15.3235 6.18164C16.0535 6.18164 16.8735 6.19164 17.7035 6.18164C18.0635 6.18164 18.0935 6.42164 18.1835 6.65164C18.8635 8.51164 19.5435 10.3716 20.2135 12.2316C20.4435 12.8816 20.6635 13.5416 21.3435 14.1216ZM16.4335 8.27164C16.1335 9.09164 15.8835 9.79163 15.6135 10.5616C16.0935 10.5616 16.4835 10.5516 16.8635 10.5616C17.2035 10.5816 17.2535 10.4616 17.1435 10.1616C16.9135 9.57164 16.7035 8.98164 16.4435 8.27164H16.4335Z" fill="#131715"/>
<path d="M46.0237 10.8811C45.8137 10.7711 45.6637 10.6511 45.4937 10.6011C44.6637 10.3511 44.3937 10.5511 44.3937 11.4011C44.3937 11.5411 44.3937 11.6811 44.3937 11.8211C44.3937 12.9511 44.4937 13.0411 45.6537 13.0211C46.1737 13.0111 46.6636 12.8711 47.2936 12.5411C47.4136 13.0511 47.1237 13.4811 47.0337 13.9511C46.9837 14.2011 46.7437 14.1411 46.5737 14.1411C44.9837 14.1411 43.3837 14.1411 41.7837 14.1411C42.3337 13.0711 42.3237 7.28113 41.7837 6.17113C43.2037 6.17113 44.6137 6.19113 46.0237 6.16113C46.4237 6.16113 46.4837 6.31114 46.4637 6.65114C46.4437 7.00114 46.4637 7.34113 46.4637 7.77113C45.9537 7.44113 45.4337 7.36114 44.8937 7.40114C44.8037 7.40114 44.6637 7.36114 44.6237 7.40114C44.1637 7.88114 44.5336 8.47113 44.4236 9.00113C44.3636 9.28113 44.5337 9.33114 44.7837 9.34114C45.1937 9.35114 45.7837 9.14113 45.9637 9.44113C46.1737 9.78113 46.0336 10.3311 46.0436 10.8711L46.0237 10.8811Z" fill="#131715"/>
<path d="M28.8936 6.18139C29.6236 6.18139 30.3035 6.19139 30.9935 6.18139C31.3335 6.17139 31.4836 6.26139 31.5236 6.63139C31.5536 6.97139 31.6835 7.30139 31.7935 7.63139C32.2635 9.02139 32.7536 10.4114 33.2236 11.7814C33.4736 11.8114 33.4635 11.6214 33.4935 11.5114C33.9435 10.1814 34.3735 8.84139 34.8235 7.51139C34.9835 7.03139 34.8635 6.61139 34.4835 6.19139C35.1035 6.19139 35.6236 6.20139 36.1536 6.19139C36.4936 6.19139 36.5335 6.29139 36.4235 6.60139C35.5735 9.06139 34.7336 11.5214 33.9036 13.9814C33.7836 14.3314 33.6635 14.3714 33.3135 14.2614C32.1835 13.9014 31.4135 13.2614 31.0635 12.0614C30.5835 10.4514 29.9736 8.88139 29.4036 7.30139C29.2836 6.96139 29.1036 6.63139 28.9136 6.19139L28.8936 6.18139Z" fill="#131715"/>
<path d="M62.2336 7.89148C61.5836 7.59148 60.9236 7.33149 60.1836 7.38149C59.2436 7.44149 58.6436 7.90149 58.3936 8.82149C58.1936 9.57149 58.1836 10.3415 58.3336 11.0915C58.6436 12.6415 59.9636 13.4015 61.6036 12.9915C62.1536 12.8515 62.6736 12.6215 63.2936 12.4015C63.1336 12.9015 62.9836 13.3515 62.8336 13.8015C62.7836 13.9615 62.7036 14.0815 62.5136 14.1215C61.1436 14.3715 59.7636 14.5615 58.4136 14.0215C56.5736 13.2915 55.6436 11.5715 55.9236 9.48149C56.1436 7.80149 57.6836 6.51148 59.7036 6.28148C60.4236 6.20148 61.1336 6.25148 61.8536 6.28148C62.1736 6.29148 62.2436 6.43148 62.2436 6.70148C62.2436 7.09148 62.2436 7.48149 62.2436 7.90149L62.2336 7.89148Z" fill="#131715"/>
<path d="M23.6938 16.6717C24.4638 15.6017 24.6139 14.4617 24.5839 13.2517C24.5439 11.3617 24.5739 9.46169 24.5739 7.57169C24.5739 7.11169 24.6238 6.64168 24.0438 6.22168H27.1838C26.6038 6.82168 26.7338 7.55168 26.7338 8.25168C26.7338 9.98168 26.7338 11.7117 26.7338 13.4517C26.7338 15.4417 25.8639 16.4017 23.7039 16.6717H23.6938Z" fill="#131715"/>
<path d="M40.6437 14.1314H37.6337C38.0737 13.6414 38.0438 13.1014 38.0338 12.5514C38.0338 10.8914 38.0338 9.23144 38.0338 7.57144C38.0338 7.11144 38.0437 6.65145 37.5938 6.23145H40.6337C40.0237 7.49145 40.3237 8.85143 40.3237 10.1714C40.3237 11.4814 40.0337 12.8314 40.6337 14.1414L40.6437 14.1314Z" fill="#131715"/>
<path d="M64.4238 6.20117H67.3839C66.8939 7.27117 66.8939 13.1712 67.3839 14.1112H64.4338C64.9338 13.0512 64.9338 7.21117 64.4238 6.20117Z" fill="#131715"/>
<path d="M20.8039 4.41196C19.1139 4.41196 18.0439 3.41197 18.1639 2.01197C18.1839 1.81197 18.2239 1.60196 18.3139 1.42196C18.7839 0.471958 19.6139 0.0919686 20.6139 0.0419686C21.6739 -0.0080314 22.6539 0.201968 23.2539 1.18197C23.8739 2.19197 23.3939 3.54197 22.2639 4.09197C21.7739 4.33197 21.2539 4.39196 20.8039 4.41196ZM22.0639 2.34197C22.0639 1.32197 21.5139 0.661968 20.7139 0.681968C19.9739 0.691968 19.5439 1.22197 19.5539 2.09197C19.5639 3.07197 20.1539 3.79196 20.9139 3.77196C21.6539 3.74196 22.0739 3.22197 22.0639 2.34197Z" fill="#131715"/>
<path d="M12.1637 0.0820312H13.7237C13.5237 1.48203 13.6237 2.88204 13.6537 4.29204C13.2637 4.15204 12.6437 4.63203 12.2037 4.02203C12.1937 4.00203 11.9836 4.12204 11.8636 4.18204C10.6636 4.73204 9.71365 4.12203 9.68365 2.80203C9.66365 1.91203 9.84367 1.00204 9.51367 0.102036H11.0937C10.8737 1.01204 11.0036 1.96203 10.9836 2.91203C10.9836 3.28203 11.0936 3.61203 11.5436 3.64203C12.0036 3.67203 12.2537 3.37203 12.2737 2.97203C12.3137 2.02203 12.4236 1.06204 12.1736 0.092041L12.1637 0.0820312Z" fill="#131715"/>
<path d="M9.01367 4.33197C8.34367 4.25197 7.73365 4.55196 7.30365 4.14196C6.91365 3.77196 6.67365 3.25196 6.30365 2.70196C6.23365 3.31196 6.17365 3.81196 6.43365 4.31196H4.78369C4.98369 2.91196 4.87369 1.53197 4.84369 0.111966C5.59369 0.111966 6.41364 0.0819661 7.23364 0.111966C7.75364 0.131966 8.16366 0.401973 8.31366 0.931973C8.45366 1.44197 8.26365 1.85197 7.80365 2.10197C7.46365 2.28197 7.62366 2.43197 7.75366 2.63197C8.11366 3.18197 8.46367 3.74198 9.01367 4.34198V4.33197ZM6.24365 2.16197C7.00365 1.83197 7.20368 1.22197 6.77368 0.861966C6.66368 0.771966 6.53368 0.721971 6.39368 0.741971C6.19368 0.771971 6.25366 0.941973 6.25366 1.07197C6.25366 1.41197 6.25366 1.76197 6.25366 2.16197H6.24365Z" fill="#131715"/>
<path d="M3.75371 0.981574C3.50371 0.881574 3.31371 0.791568 3.12371 0.741568C2.33371 0.541568 1.6337 0.891566 1.4337 1.55157C1.1737 2.41157 1.59369 3.44157 2.29369 3.66157C2.73369 3.80157 3.08373 3.80156 3.02373 3.17156C2.99373 2.83156 3.07371 2.47156 2.81371 2.17156C2.89371 2.15156 2.95373 2.11156 3.02373 2.11156C3.43373 2.14156 4.0937 1.92157 4.1837 2.21157C4.3737 2.77157 4.26372 3.43157 4.26372 4.05157C4.26372 4.20157 4.10371 4.20156 4.00371 4.22156C2.96371 4.40156 1.93369 4.51157 0.983691 3.90157C-0.256309 3.11157 -0.336292 1.55157 0.813708 0.631568C1.59371 0.0115677 2.49371 -0.0884396 3.44371 0.0615604C3.84371 0.12156 3.84373 0.151564 3.77373 0.971564L3.75371 0.981574Z" fill="#131715"/>
<path d="M16.0337 2.55179C16.4937 2.10179 16.7337 1.70179 16.5237 1.17179C16.4237 0.931787 16.2337 0.761798 16.0037 0.791798C15.7537 0.831798 15.8637 1.1018 15.8737 1.2618C15.9337 2.2618 15.6837 3.2818 16.0737 4.2918H14.4937C14.6837 2.9018 14.6036 1.5118 14.5436 0.0918006C15.2036 0.0918006 15.9237 0.0417951 16.6537 0.101795C17.4537 0.161795 17.8937 0.60179 17.9337 1.22179C17.9637 1.81179 17.5237 2.30179 16.7637 2.47179C16.5837 2.51179 16.4036 2.51179 16.0536 2.55179H16.0337Z" fill="#131715"/>
<path d="M9.76398 19.592C8.82398 19.592 8.354 19.132 8.354 18.212C8.354 17.5987 8.65731 17.292 9.26398 17.292C9.58398 17.292 9.91395 17.292 10.2339 17.292C10.8473 17.292 11.154 17.5953 11.154 18.202C11.154 19.1286 10.6906 19.592 9.76398 19.592Z" fill="#131715"/>
<path d="M22.694 14.1416C22.134 14.1416 21.694 13.7216 21.664 13.1416C21.634 12.5616 22.094 12.1016 22.714 12.1016C23.304 12.1016 23.7139 12.4916 23.7339 13.0916C23.7539 13.7116 23.334 14.1416 22.704 14.1516L22.694 14.1416Z" fill="#131715"/>
<path d="M29.5638 13.1217C29.5638 13.7317 29.1138 14.1617 28.5038 14.1517C27.9438 14.1417 27.5238 13.6917 27.5138 13.1117C27.5038 12.5217 27.9638 12.0917 28.5838 12.1017C29.1738 12.1017 29.5638 12.5117 29.5638 13.1217Z" fill="#131715"/>
</svg>
