<svg width="46" height="16" viewBox="0 0 46 16" fill="none" xmlns="http://www.w3.org/2000/svg">
<path d="M20.5652 0.240533C21.3552 0.150533 22.1351 0.0105428 22.9251 0.000542789C23.8551 -0.00945721 24.7651 0.120533 25.6751 0.240533C25.7751 0.280533 25.8651 0.320534 25.9651 0.350534C26.6151 0.530534 27.2551 0.760545 27.8551 1.08054C29.0351 1.71054 30.0551 2.53054 30.8351 3.62054C30.9351 3.76054 31.0751 3.89054 30.7751 4.01054C29.1751 4.66054 27.5851 5.32054 25.9851 5.98054C25.8051 6.06054 25.7051 6.04054 25.5851 5.86054C24.7751 4.65054 23.1851 4.33054 21.9851 5.15054C20.7751 5.97054 20.3151 7.14053 20.5251 8.57053C20.7551 10.1705 21.8152 11.5805 23.8452 11.3605C24.4352 11.3005 24.9251 11.0605 25.1951 10.5005C25.3651 10.1605 25.3251 10.1005 24.9551 10.1005C24.3751 10.1005 23.7851 10.0905 23.2051 10.1005C22.9751 10.1005 22.9051 10.0305 22.9051 9.80055C22.9151 8.80055 22.9251 7.79054 22.9051 6.79054C22.9051 6.51054 22.9852 6.44055 23.2552 6.44055C25.8552 6.44055 28.4552 6.44055 31.0652 6.44055C31.1852 6.44055 31.2951 6.46054 31.4151 6.47054C31.5151 7.53054 31.4951 8.59054 31.4251 9.65054C31.4151 9.68054 31.3851 9.71053 31.3851 9.74053C31.0251 12.3605 29.5552 14.0905 27.0952 14.9905C26.6052 15.1705 26.0952 15.2905 25.5952 15.4405C24.5052 15.5905 23.4051 15.6605 22.3051 15.5905C21.8151 15.5605 21.3151 15.5905 20.8351 15.4305C20.7151 15.3905 20.5951 15.3405 20.4751 15.3105C18.1751 14.6405 16.5451 13.2005 15.5551 11.0305C15.4751 10.8505 15.4551 10.6205 15.2651 10.4905C15.2651 10.4905 15.2351 10.4405 15.2151 10.4105C15.1651 10.2605 15.1051 10.1205 15.0551 9.97054C15.0751 9.79054 15.0552 9.63054 15.0052 9.45054C14.7952 8.66054 14.7252 7.85054 14.7552 7.03054C14.8752 4.03054 16.7851 1.48053 19.6351 0.520532C19.9451 0.420532 20.2451 0.310534 20.5551 0.210534L20.5652 0.240533Z" fill="#FEB82D"/>
<path d="M15.0651 10.0002C15.1151 10.1502 15.1751 10.2902 15.2251 10.4402C15.2451 10.4702 15.2551 10.5002 15.2751 10.5202C15.5351 11.4402 15.8951 12.3402 16.2151 13.2502C16.4751 13.9902 16.7451 14.7302 17.0351 15.5102C16.8451 15.5102 16.7051 15.5102 16.5751 15.5102C14.8851 15.5102 13.1951 15.5202 11.5051 15.5302C11.0851 15.5902 10.9551 15.3502 10.9051 14.9802C10.8551 14.6602 10.7451 14.3502 10.6851 14.0302C10.6451 13.8302 10.5651 13.7602 10.3651 13.7602C9.12512 13.7602 7.89513 13.7602 6.65513 13.7602C6.46513 13.7602 6.38514 13.8202 6.34514 14.0002C6.26514 14.4102 6.14514 14.8202 6.06514 15.2302C6.02514 15.4202 5.95513 15.5002 5.74513 15.5002C3.92513 15.5002 2.10514 15.4902 0.285138 15.5002C0.0351384 15.5002 -0.0348811 15.4002 0.0151189 15.1902C0.0751189 14.9302 0.16514 14.6802 0.25514 14.4202C1.86514 9.8002 3.47513 5.1702 5.08513 0.550201C5.17513 0.290201 5.28512 0.200195 5.57512 0.200195C7.45512 0.220195 9.33513 0.200195 11.2151 0.200195C11.3351 0.200195 11.4451 0.2102 11.5651 0.2202C12.3651 2.4502 13.1651 4.6802 13.9651 6.9102C14.3351 7.9402 14.7151 8.96019 15.0851 9.98019L15.0651 10.0002ZM8.41511 5.3302C8.41511 5.3302 8.37511 5.3302 8.35511 5.3302C7.99511 6.8402 7.64513 8.34019 7.27513 9.85019C7.22513 10.0402 7.27513 10.1002 7.46513 10.0902C7.94513 10.0802 8.42512 10.0902 8.89512 10.0902C9.60512 10.0902 9.60513 10.0902 9.43513 9.3902C9.09513 8.0402 8.74513 6.6902 8.40513 5.3302H8.41511Z" fill="#013798"/>
<path d="M17.2554 15.5608C17.2554 15.5608 17.2654 15.5608 17.2754 15.5608C17.2754 15.5608 17.2754 15.5608 17.2754 15.5508C17.2754 15.5508 17.2654 15.5508 17.2554 15.5608Z" fill="#E5E0DD"/>
<path d="M43.545 8.1801C43.205 7.9501 42.835 7.78009 42.415 7.60009C43.205 7.01009 43.765 6.32011 44.095 5.44011C44.705 3.80011 44.345 2.1501 43.125 1.0901C42.545 0.5901 41.845 0.340098 41.115 0.150098C41.075 0.0800979 41.035 0.0500937 40.975 0.130094C40.985 0.130094 40.995 0.150098 41.005 0.150098C40.995 0.150098 40.985 0.140094 40.975 0.130094C40.885 0.120094 40.785 0.1001 40.695 0.0901004C40.605 -0.0298996 40.485 0.020093 40.375 0.020093C37.505 0.020093 34.625 0.020093 31.755 0.020093C31.645 0.020093 31.515 -0.0298954 31.435 0.110105L31.375 0.2301C31.415 2.3201 31.435 4.4101 31.405 6.5101C31.505 7.5701 31.485 8.63011 31.415 9.69011C31.435 11.4701 31.445 13.2501 31.465 15.0301C31.465 15.2201 31.465 15.4001 31.465 15.5901C31.535 15.5901 31.605 15.6201 31.675 15.6201C34.605 15.6201 37.525 15.6001 40.455 15.6001C41.765 15.6001 42.855 15.0801 43.805 14.2301C45.485 12.7101 45.695 9.6601 43.525 8.2001L43.545 8.1801ZM36.645 5.0001C36.645 4.7001 36.645 4.3901 36.645 4.0901C36.645 3.9101 36.705 3.84009 36.885 3.85009C37.315 3.86009 37.745 3.8501 38.175 3.8701C38.815 3.9201 39.225 4.4601 39.205 5.1801C39.185 5.7901 38.795 6.1601 38.135 6.1801C37.725 6.1901 37.315 6.1801 36.915 6.1801C36.695 6.1801 36.635 6.1101 36.645 5.9001C36.655 5.6001 36.645 5.29009 36.645 4.99009V5.0001ZM38.445 11.8101C37.935 11.8401 37.415 11.8101 36.905 11.8101C36.715 11.8101 36.635 11.7501 36.645 11.5501C36.655 11.2501 36.645 10.9401 36.645 10.6401C36.645 10.3501 36.655 10.0601 36.645 9.77009C36.635 9.55009 36.685 9.4501 36.925 9.4601C37.375 9.4801 37.835 9.4601 38.285 9.4801C39.025 9.5101 39.495 9.92011 39.535 10.5501C39.585 11.2901 39.175 11.7701 38.445 11.8001V11.8101Z" fill="#013798"/>
<path d="M15.2751 10.5204C15.2751 10.5204 15.2451 10.4604 15.2251 10.4404C15.2451 10.4704 15.2551 10.5004 15.2751 10.5204Z" fill="#E5E0DD"/>
</svg>
