<svg width="72" height="25" viewBox="0 0 72 25" fill="none" xmlns="http://www.w3.org/2000/svg">
<path d="M10.9 24.2998C7.40002 24.2998 3.90002 24.2998 0.400024 24.2998C0.100024 24.2998 0 24.1998 0 23.8998C0 21.0998 0 18.2998 0 15.4998C0 15.2998 0.100049 15.1999 0.300049 15.0999C5.30005 13.5999 10.3 12.0999 15.3 10.5999C15.6 10.4999 15.7 10.4998 15.9 10.7998C17.7 13.0998 19.6 15.3999 21.5 17.6999C21.7 17.8999 21.8 18.0998 21.8 18.3998C21.8 20.2998 21.8 22.0998 21.8 23.9998C21.8 24.2998 21.7 24.3998 21.4 24.3998C17.9 24.2998 14.4 24.2998 10.9 24.2998Z" fill="#F05B29"/>
<path d="M21.7001 12.5C21.0001 12.1 20.3001 11.7 19.6001 11.3C15.9001 9.19999 12.2 7.1 8.5 5C8.3 4.9 8.2 4.90001 8 5.10001C5.4 7.80001 2.80005 10.5 0.300049 13.2C0.200049 13.3 0.100098 13.4 0.100098 13.4C9.76548e-05 13.3 0 13.2 0 13.2C0 8.90001 0 4.59999 0 0.299988C0 0.0999878 0.100049 0 0.300049 0C7.30005 0 14.4 0 21.4 0C21.6 0 21.7001 -1.2219e-05 21.7001 0.299988C21.7001 4.29999 21.7001 8.30001 21.7001 12.2C21.7001 12.4 21.7001 12.4 21.7001 12.5Z" fill="#F9AC42"/>
<path d="M63.4 13.4C64.1 12 66.6001 12.1 67.2001 13.3C67.8001 12.3 68.7001 12.2 69.7001 12.4C70.6001 12.6 71.1001 13.1 71.1001 14.1C71.1001 15 71.1001 15.9 71.1001 16.8C71.1001 17.9 71.1001 18.9 71.1001 20C71.1001 20.2 71 20.3 70.8 20.3C70.6 20.3 70.4001 20.3 70.1001 20.3C69.9001 20.3 69.8 20.2 69.8 20C69.8 18.7 69.8 17.5 69.8 16.2C69.8 15.7 69.8 15.2 69.8 14.7C69.8 13.6 69 13.3 68 13.5C67.6 13.6 67.4 13.9 67.3 14.2C67.2 14.5 67.2001 14.9 67.2001 15.2C67.2001 16.8 67.2001 18.3 67.2001 19.9C67.2001 20.2 67.1 20.3 66.9 20.2C66.7 20.2 66.5 20.2 66.3 20.2C66 20.2 66 20.1 66 19.9C66 18.3 66 16.7 66 15.1C66 14.9 66 14.6 66 14.4C65.9 13.8 65.6 13.4 65 13.3C64.4 13.2 63.8001 13.5 63.6001 14C63.5001 14.3 63.4 14.7 63.4 15.1C63.4 16.7 63.4 18.3 63.4 19.8C63.4 20 63.3001 20.1 63.1001 20.1C62.9001 20.1 62.7 20.1 62.5 20.1C62.2 20.1 62.1001 20 62.1001 19.7C62.1001 18.6 62.1001 17.5 62.1001 16.3C62.1001 15 62.2 13.8 62 12.5C62 12.3 62.0001 12.2 62.2001 12.3C62.5001 12.3 62.8001 12.3 63.1001 12.3C63.3001 12.3 63.3 12.4 63.3 12.5C63.4 13 63.4 13.2 63.4 13.4Z" fill="#79797F"/>
<path d="M35.4 16.8002C34.8 16.8002 34.1 16.8002 33.5 16.8002C33.3 16.8002 33.2001 16.8003 33.2001 17.0003C33.2001 17.5003 33.3 17.9002 33.4 18.3002C33.6 19.0002 34.0001 19.3002 34.8001 19.3002C35.4001 19.3002 36.0001 18.9002 36.1001 18.3002C36.2001 17.9002 36.3001 17.8002 36.7001 17.9002C36.9001 17.9002 37.1001 17.9002 37.3001 17.9002C37.6001 17.9002 37.6001 18.0002 37.6001 18.3002C37.4001 19.6002 36.7 20.2002 35.4 20.4002C34.9 20.5002 34.4 20.4002 33.9 20.3002C32.9 20.1002 32.4001 19.4003 32.2001 18.5003C31.9001 17.1003 31.9001 15.7002 32.2001 14.4002C32.5001 13.2002 33.1001 12.6003 34.3001 12.5003C34.8001 12.4003 35.4 12.4003 35.9 12.6003C36.9 12.8003 37.4 13.6003 37.5 14.5003C37.6 15.2003 37.6001 15.9003 37.6001 16.7003C37.6001 16.9003 37.5001 16.9002 37.3001 16.9002C36.7001 16.8002 36.1 16.8002 35.4 16.8002ZM34.7001 15.9002C35.1001 15.9002 35.6 15.9002 36 15.9002C36.2 15.9002 36.2001 15.9003 36.2001 15.7003C36.2001 15.2003 36.2 14.8002 36 14.3002C35.8 13.7002 35.4001 13.4002 34.8001 13.4002C34.0001 13.4002 33.6 13.6003 33.4 14.2003C33.2 14.7003 33.2001 15.2003 33.1001 15.7003C33.1001 15.9003 33.2001 15.9002 33.3001 15.9002C33.9001 15.9002 34.3001 15.9002 34.7001 15.9002Z" fill="#79797F"/>
<path d="M45.4004 13.4996C45.5004 13.2996 45.6004 13.1996 45.7004 13.0996C45.9004 12.7996 46.2004 12.5996 46.5004 12.4996C47.1004 12.2996 47.7004 12.2996 48.3004 12.4996C49.0004 12.6996 49.3004 13.1996 49.4004 13.8996C49.5004 14.1996 49.5004 14.4996 49.5004 14.7996C49.5004 16.4996 49.5004 18.1996 49.5004 19.8996C49.5004 20.1996 49.4004 20.2996 49.2004 20.1996C48.9004 20.1996 48.5004 20.2996 48.3004 20.0996C48.1004 19.8996 48.3004 19.4996 48.2004 19.1996C48.2004 17.7996 48.2004 16.3996 48.2004 14.9996C48.2004 14.8996 48.2004 14.7996 48.2004 14.6996C48.2004 13.7996 47.8005 13.3996 47.1005 13.2996C46.3005 13.1996 45.6004 13.5996 45.4004 14.3996C45.3004 14.7996 45.3004 15.2996 45.3004 15.7996C45.3004 17.1996 45.3004 18.4996 45.3004 19.8996C45.3004 20.0996 45.2004 20.1996 45.0004 20.1996C44.7004 20.1996 44.3005 20.2996 44.1005 20.0996C43.9005 19.8996 44.0004 19.4996 44.0004 19.1996C44.0004 16.9996 44.1004 14.7996 43.9004 12.6996C43.9004 12.4996 43.9004 12.3996 44.2004 12.3996C44.5004 12.3996 44.9004 12.2996 45.2004 12.4996C45.5004 12.6996 45.3004 13.1996 45.4004 13.4996Z" fill="#79797F"/>
<path d="M28.7001 15.3998C28.7001 13.8998 28.7001 12.3998 28.7001 10.8998C28.7001 10.3998 28.8 10.4998 28.3 10.4998C27.6 10.4998 27 10.4998 26.3 10.4998C26.1 10.4998 26 10.4998 26 10.2998C26 10.0998 26 9.79982 26 9.59982C26 9.39982 26.1 9.2998 26.3 9.2998C28.4 9.2998 30.4 9.2998 32.5 9.2998C32.7 9.2998 32.8 9.39982 32.8 9.59982C32.8 9.79982 32.8 9.9998 32.8 10.2998C32.8 10.4998 32.7 10.5998 32.5 10.5998C31.8 10.5998 31.1 10.5998 30.4 10.5998C30.2 10.5998 30.1001 10.6998 30.1001 10.8998C30.1001 13.9998 30.1001 16.9998 30.1001 20.0998C30.1001 20.3998 30.0001 20.4998 29.7001 20.4998C29.5001 20.4998 29.2 20.4998 29 20.4998C28.8 20.4998 28.7001 20.3998 28.7001 20.1998C28.7001 18.4998 28.7001 16.8998 28.7001 15.3998Z" fill="#79797F"/>
<path d="M58.9004 19.4C58.8004 19.4 58.8004 19.4 58.8004 19.5C58.1004 20.4 57.1005 20.7 56.1005 20.3C55.3005 20.1 54.9004 19.5 54.9004 18.6C54.9004 17.2 54.9004 15.9 54.9004 14.5C54.9004 13.9 54.9004 13.3 54.9004 12.8C54.9004 12.6 55.0004 12.5 55.2004 12.5C55.4004 12.5 55.6004 12.5 55.8004 12.5C56.1004 12.5 56.1005 12.6 56.1005 12.8C56.1005 14.4 56.1005 16.1 56.1005 17.7C56.1005 17.9 56.1004 18.2 56.2004 18.4C56.3004 18.9 56.6005 19.3 57.1005 19.4C57.7005 19.5 58.2005 19.4 58.6005 18.9C58.9005 18.6 59.0004 18.2 59.0004 17.7C59.0004 16.1 59.0004 14.5 59.0004 12.9C59.0004 12.6 59.1004 12.5 59.4004 12.5C59.6004 12.5 59.8004 12.5 60.0004 12.5C60.3004 12.5 60.3004 12.6 60.3004 12.8C60.3004 14.5 60.3004 16.3 60.3004 18C60.3004 18.7 60.3004 19.3 60.4004 20C60.4004 20.2 60.3005 20.3 60.1005 20.3C59.8005 20.3 59.6004 20.3 59.3004 20.3C59.1004 20.3 59.0005 20.2 59.1005 20C58.9005 19.8 58.9004 19.6 58.9004 19.4Z" fill="#79797F"/>
<path d="M40.6005 13.5998C40.7005 13.4998 40.8004 13.2998 40.9004 13.1998C41.3004 12.5998 42.2004 12.2998 42.9004 12.3998C43.0004 12.3998 43.0004 12.4998 43.0004 12.5998C43.0004 12.8998 43.0004 13.1998 43.0004 13.4998C43.0004 13.6998 42.9004 13.6998 42.8004 13.6998C42.7004 13.6998 42.7005 13.6998 42.6005 13.6998C41.5005 13.4998 40.7005 14.0998 40.6005 15.1998C40.5005 15.5998 40.6005 16.0998 40.6005 16.4998C40.6005 17.6998 40.6005 18.8998 40.6005 19.9998C40.6005 20.1998 40.5004 20.2998 40.3004 20.2998C40.0004 20.2998 39.6004 20.3998 39.4004 20.1998C39.2004 19.9998 39.3004 19.5998 39.3004 19.2998C39.3004 17.0998 39.3004 14.9998 39.3004 12.7998C39.3004 12.4998 39.4004 12.3998 39.7004 12.4998C39.9004 12.4998 40.1004 12.4998 40.4004 12.4998C40.6004 12.4998 40.7004 12.5998 40.7004 12.6998C40.5004 13.0998 40.5005 13.2998 40.6005 13.5998Z" fill="#79797F"/>
<path d="M52.8001 16.4C52.8001 17.6 52.8001 18.8 52.8001 20C52.8001 20.2 52.7 20.3 52.5 20.3C52.3 20.3 52.1001 20.3 51.8001 20.3C51.5001 20.3 51.5 20.2 51.5 20C51.5 17.9 51.5 15.8 51.5 13.7C51.5 13.6 51.5 13.5 51.5 13.4C51.5 13.1 51.4001 12.7 51.6001 12.6C51.9001 12.4 52.3001 12.6 52.6001 12.5C52.8001 12.5 52.7001 12.7 52.7001 12.8C52.8001 14 52.8001 15.2 52.8001 16.4Z" fill="#79797F"/>
<path d="M52.1005 10.6002C51.4005 10.6002 51.4004 10.6002 51.4004 9.90018C51.4004 9.20018 51.4005 9.2002 52.1005 9.2002C52.8005 9.2002 52.8004 9.20017 52.8004 9.80017C52.9004 10.6002 52.9005 10.6002 52.1005 10.6002Z" fill="#79797F"/>
</svg>
