<svg width="114" height="20" viewBox="0 0 114 20" fill="none" xmlns="http://www.w3.org/2000/svg">
<path d="M3.12 0C1.39 0 0 1.43 0 3.15V19.34H16.2C17.93 19.34 19.32 17.88 19.32 16.15V13.17V0H3.10001H3.12ZM6.32999 4.44C6.42999 3.44 6.87 3.25 7.47 3.23H12.65L6.32001 6.78V4.45L6.32999 4.44ZM2.92999 8.42L5.45001 3.9L5.47 11.15L3.42999 10.01C2.59999 9.44 2.65999 8.96 2.92999 8.42ZM5.14999 14.87L2.54999 10.39L8.79001 14.08L6.76999 15.25C5.85999 15.67 5.46999 15.38 5.14999 14.87ZM12.98 14.97C12.89 15.97 12.44 16.16 11.83 16.18H6.64999L12.97 12.64V14.97H12.98ZM16.38 10.98L13.84 15.5V8.25L15.89 9.39C16.72 9.96 16.66 10.44 16.39 10.98H16.38ZM10.49 5.31001L12.5 4.12C13.41 3.69 13.79 3.98 14.12 4.49L16.75 8.95L10.48 5.31001H10.49Z" fill="#0F62AC"/>
<path d="M7.47009 3.22973C6.87009 3.25973 6.42008 3.43973 6.33008 4.43973V6.76973L12.6601 3.21973H7.4801L7.47009 3.22973Z" fill="white"/>
<path d="M3.42989 10.0104L5.4699 11.1504L5.44991 3.90039L2.92989 8.42039C2.65989 8.96039 2.60989 9.44039 3.42989 10.0104Z" fill="white"/>
<path d="M11.8301 16.1904C12.4401 16.1604 12.8802 15.9804 12.9802 14.9804V12.6504L6.66016 16.1904H11.8401H11.8301Z" fill="white"/>
<path d="M8.80005 14.0699L2.56006 10.3799L5.16006 14.8599C5.49006 15.3699 5.87006 15.6599 6.78006 15.2399L8.80005 14.0699Z" fill="white"/>
<path d="M15.8899 9.39L13.8599 8.25V15.5L16.3899 10.98C16.6599 10.44 16.7199 9.96 15.8899 9.39Z" fill="white"/>
<path d="M12.4998 4.11969L10.4897 5.3097L16.7598 8.9497L14.1298 4.48969C13.7998 3.97969 13.4098 3.68969 12.5098 4.11969H12.4998Z" fill="white"/>
<path fill-rule="evenodd" clip-rule="evenodd" d="M31.8102 5.21973H23.7202C22.8502 5.21973 22.1602 5.92973 22.1602 6.79973V12.5497C22.1602 13.4097 22.8602 14.1097 23.7202 14.1097H30.2401C31.1101 14.1097 31.8001 13.4097 31.8001 12.5497V11.9897H24.6602V7.35973H31.8001V5.21973H31.8102Z" fill="#0F62AC"/>
<path fill-rule="evenodd" clip-rule="evenodd" d="M66.7101 5.21973H58.6201C57.7601 5.21973 57.0601 5.92973 57.0601 6.79973V12.5497C57.0601 13.4097 57.7601 14.1097 58.6201 14.1097H65.1401C66.0101 14.1097 66.7001 13.4097 66.7001 12.5497V11.9897H59.5601V7.35973H66.7001V5.21973H66.7101Z" fill="#0F62AC"/>
<path fill-rule="evenodd" clip-rule="evenodd" d="M76.7102 10.5097C76.7102 11.9797 76.6902 11.9797 75.5902 11.9797H71.9802C70.7302 11.9797 70.7202 11.9497 70.7202 10.5397V7.34972H76.7102V10.4997V10.5097ZM77.6602 5.21973H69.7602C68.9102 5.21973 68.2202 5.92972 68.2202 6.77972V12.5597C68.2202 13.4097 68.9202 14.1097 69.7602 14.1097H77.6602C78.5102 14.1097 79.2102 13.4097 79.2102 12.5597V6.77972C79.2102 5.92972 78.5102 5.21973 77.6602 5.21973Z" fill="#0F62AC"/>
<path fill-rule="evenodd" clip-rule="evenodd" d="M94.04 7.44047V14.1105H101.13C103.38 14.1105 103.11 12.6705 103.11 12.1905V11.9905H96.54V10.6405H101.02V8.52047H96.54V7.37047H103.11V5.23047H101.24H96.2401C94.6501 5.23047 94.04 6.27047 94.04 7.45047V7.44047Z" fill="#0F62AC"/>
<path fill-rule="evenodd" clip-rule="evenodd" d="M50.1101 10.25H48.9601L50.1101 8.24996L51.2601 10.25H50.1101ZM50.7701 5.21996C49.3201 5.21996 48.8901 5.38996 47.7501 7.32996C46.7601 9.01996 43.8301 14.11 43.8301 14.11H46.7201L47.5701 12.65L47.6201 12.56H52.6001C52.6001 12.56 52.6301 12.62 52.6401 12.63C53.5201 14.09 54.0301 14.1 55.6401 14.1H56.3701C56.3701 14.1 55.4401 12.47 55.1201 11.93C54.1601 10.25 51.2601 5.20996 51.2601 5.20996H50.7701V5.21996Z" fill="#0F62AC"/>
<path fill-rule="evenodd" clip-rule="evenodd" d="M40.8802 8.50973H35.4702V5.21973H35.0802C33.6102 5.21973 32.9502 6.18972 32.9502 6.98972V14.1097H35.4702V10.8297H40.8802V14.1097H41.5002C43.2802 14.1097 43.3802 12.5397 43.3802 12.0197V5.21973H40.8802V8.50973Z" fill="#0F62AC"/>
<path fill-rule="evenodd" clip-rule="evenodd" d="M111.37 8.88972H106.97V7.15973H111.37V8.88972ZM113.87 9.41972V6.62973C113.87 5.85973 113.25 5.21973 112.48 5.21973H104.42V14.1097H105.11C106.87 14.1097 106.92 13.1497 106.92 12.1097V10.8297H110.79C111.11 10.8297 111.37 11.0897 111.37 11.4097V14.1097H113.87V12.1797C113.87 11.5697 113.64 11.0097 113.25 10.5897C113.63 10.3497 113.87 9.90972 113.87 9.41972Z" fill="#0F62AC"/>
<path fill-rule="evenodd" clip-rule="evenodd" d="M86.5701 11.3297L82.72 5.21973H82.1401C81.4201 5.21973 80.5801 5.53973 80.5801 6.78973V14.1097H83.1V12.0597V9.79973L85.8301 14.1097H87.3301L90.04 9.81973V14.1097H90.6401C92.7701 14.1097 92.55 12.7197 92.55 12.2497V5.21973H90.4301L86.5601 11.3297H86.5701Z" fill="#0F62AC"/>
</svg>
