<svg width="78" height="21" viewBox="0 0 78 21" fill="none" xmlns="http://www.w3.org/2000/svg">
<path fill-rule="evenodd" clip-rule="evenodd" d="M34.1002 0.306458C35.9002 0.306458 37.8002 0.306458 39.6002 0.306458L39.7002 0.406464C39.7002 1.00646 39.7002 1.70646 39.7002 2.30646C39.7002 2.60646 39.5002 2.60645 39.3002 2.60645C39.1002 2.60645 38.8002 2.50645 38.7002 2.70645C38.6002 3.00645 38.7002 3.40645 38.7002 3.70645C38.7002 3.80645 38.8002 3.80646 38.9002 3.80646C39.6002 3.80646 40.2002 3.80646 40.9002 3.80646C41.1002 3.80646 41.2002 3.70647 41.2002 3.50647C41.2002 3.40647 41.2002 3.30645 41.2002 3.20645C41.2002 2.50645 41.2002 2.50647 40.5002 2.50647C40.3002 2.50647 40.2002 2.50646 40.2002 2.30646C40.2002 1.60646 40.1002 1.00646 40.2002 0.306458C42.1002 0.306458 44.1002 0.306458 46.0002 0.306458C46.0002 0.906458 46.0002 1.60645 46.0002 2.20645C46.0002 2.40645 45.9002 2.50647 45.7002 2.50647C45.4002 2.50647 45.0002 2.30645 44.8002 2.60645C44.6002 2.80645 44.7002 3.20647 44.7002 3.50647C44.7002 4.50647 44.7002 5.60645 44.7002 6.60645C44.7002 6.90645 44.8002 7.00647 45.1002 7.00647C46.0002 7.00647 46.0002 7.00646 46.0002 7.90646C46.0002 8.20646 46.0002 8.50646 46.0002 8.90646C46.0002 9.20646 45.9002 9.30646 45.6002 9.30646C43.9002 9.30646 42.2002 9.30646 40.4002 9.30646C40.1002 9.30646 40.0002 9.20646 40.0002 8.90646C40.0002 8.40646 40.0002 7.90646 40.0002 7.40646C40.0002 7.10646 40.1002 6.90647 40.4002 7.00647C40.9002 7.10647 41.0002 6.90646 41.0002 6.40646C41.0002 5.30646 41.0002 5.30646 39.9002 5.30646C39.5002 5.30646 39.1002 5.30646 38.8002 5.30646C38.6002 5.30646 38.5002 5.40645 38.5002 5.60645C38.5002 5.80645 38.5002 5.90645 38.5002 6.10645C38.5002 6.90645 38.5002 6.90646 39.3002 6.90646C39.5002 6.90646 39.6002 7.00645 39.6002 7.20645C39.6002 7.80645 39.6002 8.40646 39.6002 8.90646C39.6002 9.10646 39.5002 9.20645 39.3002 9.20645C37.5002 9.20645 35.7002 9.20645 34.0002 9.20645C33.8002 9.20645 33.7002 9.10646 33.7002 8.90646C33.7002 8.30646 33.7002 7.70645 33.7002 7.20645C33.7002 7.00645 33.8002 6.90646 34.0002 6.90646C35.0002 6.90646 35.0002 6.90646 35.0002 5.90646C35.0002 4.90646 35.0002 3.80646 35.0002 2.80646C35.0002 2.50646 34.9002 2.40646 34.6002 2.40646C33.7002 2.40646 33.6002 2.40646 33.7002 1.40646C33.7002 1.00646 33.6002 0.506445 33.8002 0.106445C34.0002 0.406445 34.0002 0.406458 34.1002 0.306458Z" fill="#737277"/>
<path fill-rule="evenodd" clip-rule="evenodd" d="M22.4003 0.406503C22.5003 0.506503 22.5003 0.606491 22.5003 0.706491C22.5003 1.80649 22.5003 2.90649 22.5003 4.10649C22.5003 4.40649 22.4003 4.50651 22.1003 4.50651C21.4003 4.50651 20.8003 4.50651 20.1003 4.50651C19.8003 4.50651 19.7003 4.40649 19.7003 4.10649C19.7003 3.80649 19.7003 3.50649 19.7003 3.20649C19.7003 2.80649 19.6003 2.70649 19.2003 2.70649C18.5003 2.70649 17.8003 2.70649 17.1003 2.70649C16.9003 2.70649 16.8003 2.80651 16.8003 3.00651C16.8003 4.00651 16.8003 4.00651 17.7003 4.00651C18.8003 4.00651 18.8003 4.00649 18.8003 5.10649C18.8003 5.50649 18.7003 5.60649 18.3003 5.60649C18.2003 5.60649 18.1003 5.60649 17.9003 5.60649C17.5003 5.60649 17.0003 5.40649 16.8003 5.70649C16.6003 6.10649 16.7003 6.60649 16.7003 7.10649C16.7003 7.30649 16.8003 7.3065 16.9003 7.3065C17.7003 7.3065 18.5003 7.3065 19.2003 7.3065C19.4003 7.3065 19.5003 7.20651 19.4003 7.00651C19.4003 6.60651 19.4003 6.10649 19.4003 5.70649C19.4003 5.50649 19.5003 5.4065 19.7003 5.4065C20.4003 5.4065 21.1003 5.4065 21.8003 5.4065C22.0003 5.4065 22.1003 5.50649 22.1003 5.70649C22.1003 6.90649 22.1003 8.1065 22.1003 9.3065C22.1003 9.5065 22.0003 9.60649 21.8003 9.60649C18.5003 9.60649 15.3003 9.60649 12.0003 9.60649C11.7003 9.60649 11.7003 9.5065 11.7003 9.3065C11.7003 8.8065 11.7003 8.20649 11.7003 7.70649C11.7003 7.40649 11.8003 7.3065 12.0003 7.3065C12.3003 7.3065 12.7003 7.50649 12.9003 7.20649C13.1003 7.00649 13.0003 6.6065 13.0003 6.3065C13.0003 5.3065 13.0003 4.20649 13.0003 3.20649C13.0003 2.90649 12.9003 2.8065 12.6003 2.8065C11.7003 2.8065 11.7003 2.8065 11.7003 1.9065C11.7003 1.4065 11.6003 1.00651 11.8003 0.50651C11.8003 0.60651 11.9003 0.60651 11.9003 0.50651C12.9003 0.50651 14.0003 0.50651 15.0003 0.50651C17.7003 0.30651 20.0003 0.306503 22.4003 0.406503C22.3003 0.406503 22.3003 0.406503 22.4003 0.406503Z" fill="#747378"/>
<path fill-rule="evenodd" clip-rule="evenodd" d="M60.4003 0.306458C62.1003 0.306458 63.9003 0.306458 65.6003 0.306458C65.6003 0.406458 65.7003 0.406458 65.7003 0.306458C65.9003 1.00646 65.7003 1.70646 65.8003 2.40646C65.8003 2.60646 65.7003 2.60645 65.5003 2.60645C65.2003 2.60645 64.9003 2.60645 64.6003 2.60645C64.2003 2.60645 64.1003 2.70645 64.1003 3.10645C64.1003 5.00645 64.1003 7.00646 64.1003 8.90646C64.1003 9.30646 64.0003 9.30646 63.6003 9.40646C62.3003 9.60646 61.4003 9.10647 60.7003 8.00647C60.1003 7.10647 59.3003 6.30647 58.6003 5.50647C58.5003 5.40647 58.5003 5.30645 58.3003 5.20645C58.3003 5.80645 58.3003 6.30646 58.3003 6.80646C58.3003 7.00646 58.4003 7.00647 58.6003 7.00647C58.9003 7.00647 59.4003 6.80645 59.5003 7.10645C59.7003 7.30645 59.6003 7.80645 59.6003 8.10645C59.6003 8.30645 59.6003 8.50645 59.6003 8.70645C59.6003 9.10645 59.5003 9.30645 59.1003 9.20645C57.6003 9.20645 56.2003 9.20645 54.7003 9.20645C54.4003 9.20645 54.3003 9.10646 54.3003 8.80646C54.3003 8.30646 54.3003 7.80646 54.3003 7.30646C54.3003 7.00646 54.4003 6.90646 54.7003 6.90646C55.1003 6.90646 55.6003 7.10646 55.8003 6.80646C56.0003 6.60646 55.9003 6.10645 55.9003 5.70645C55.9003 4.70645 55.9003 3.70646 55.9003 2.80646C55.9003 2.50646 55.8003 2.40646 55.5003 2.40646H55.4003C54.3003 2.40646 54.3003 2.40646 54.3003 1.30646C54.3003 0.906458 54.3003 0.606451 54.3003 0.206451L54.4003 0.106445C55.6003 0.106445 56.8003 0.106445 58.1003 0.106445C58.1003 0.206445 58.2003 0.206445 58.2003 0.106445C58.6003 0.506445 59.0003 1.00647 59.3003 1.50647C60.0003 2.40647 60.7003 3.30645 61.4003 4.20645C61.5003 4.30645 61.5003 4.40647 61.7003 4.50647C61.7003 3.90647 61.7003 3.30645 61.7003 2.70645C61.7003 2.50645 61.6003 2.40647 61.5003 2.50647C61.4003 2.50647 61.4003 2.50647 61.3003 2.50647C60.3003 2.50647 60.3003 2.50647 60.3003 1.50647C60.3003 1.10647 60.3003 0.706458 60.3003 0.306458C60.3003 0.406458 60.4003 0.406458 60.4003 0.306458Z" fill="#737276"/>
<path fill-rule="evenodd" clip-rule="evenodd" d="M33.0003 2.50688C33.0003 3.10688 33.0003 3.70687 33.0003 4.30687C33.0003 4.50687 33.0002 4.70686 32.7002 4.60686C32.1002 4.60686 31.4002 4.60686 30.8002 4.60686C30.5002 4.60686 30.4002 4.50687 30.4002 4.20687C30.3002 3.10687 29.7002 2.40688 28.6002 2.40688C27.9002 2.40688 27.5002 2.70687 27.2002 3.30687C26.8002 4.20687 26.8003 5.10688 27.0003 6.00688C27.2003 6.80688 27.8002 7.30687 28.6002 7.30687C29.3002 7.30687 29.9002 6.80688 30.2002 6.00688C30.4002 5.30688 30.4002 5.30687 31.2002 5.30687C31.6002 5.30687 32.1003 5.30687 32.5003 5.30687C32.8003 5.30687 32.9002 5.40687 32.9002 5.70687C32.9002 7.40687 32.0003 8.50687 30.5003 9.30687C28.1003 10.4069 24.8002 9.40686 23.7002 7.10686C22.2002 4.00686 24.1002 -0.193116 28.1002 0.0068842C28.7002 0.0068842 29.3002 0.206884 29.8002 0.506884C30.0002 0.606884 30.2002 0.606878 30.3002 0.406878C30.4002 0.306878 30.4002 0.206866 30.6002 0.206866C31.3002 0.206866 32.0002 0.206866 32.7002 0.206866C32.9002 0.206866 32.9002 0.406884 32.9002 0.506884C33.0002 1.20688 33.0003 1.90688 33.0003 2.50688Z" fill="#737277"/>
<path fill-rule="evenodd" clip-rule="evenodd" d="M66.6999 0.306641C67.4999 0.306641 68.3999 0.306641 69.1999 0.306641C71.6999 0.306641 74.2999 0.306641 76.7999 0.306641C76.9999 0.306641 77.0999 0.306641 77.2999 0.306641C77.3999 0.406641 77.3999 0.406641 77.4999 0.306641C77.5999 0.406641 77.5999 0.506628 77.5999 0.606628C77.5999 1.80663 77.5999 3.10664 77.5999 4.30664C77.5999 4.60664 77.4999 4.70663 77.1999 4.70663C76.4999 4.70663 75.6999 4.70663 74.9999 4.70663C74.6999 4.70663 74.5999 4.60664 74.5999 4.30664C74.5999 3.90664 74.5999 3.40665 74.5999 3.00665C74.5999 2.70665 74.4999 2.70663 74.2999 2.70663C73.3999 2.70663 73.3999 2.70663 73.3999 3.60663C73.3999 4.70663 73.3999 5.80665 73.3999 6.90665C73.3999 7.20665 73.4999 7.30664 73.7999 7.30664C74.0999 7.30664 74.3999 7.30664 74.7999 7.30664C74.9999 7.30664 75.0999 7.40663 75.0999 7.60663C75.0999 8.20663 75.0999 8.70664 75.0999 9.30664C75.0999 9.50664 74.9999 9.60663 74.7999 9.60663C72.9999 9.60663 71.1999 9.60663 69.2999 9.60663C69.0999 9.60663 68.9999 9.50664 68.9999 9.30664C68.9999 8.70664 68.9999 8.20663 68.9999 7.60663C68.9999 7.40663 69.0999 7.30664 69.2999 7.30664C69.5999 7.30664 69.9999 7.30664 70.2999 7.30664C70.4999 7.30664 70.5999 7.30665 70.5999 7.00665C70.5999 5.70665 70.5999 4.40663 70.5999 3.10663C70.5999 2.80663 70.4999 2.80664 70.1999 2.80664C69.2999 2.80664 69.2999 2.80663 69.2999 3.70663C69.2999 4.90663 69.2999 4.90665 68.0999 4.90665C67.5999 4.90665 67.0999 4.90665 66.6999 4.90665C66.4999 4.90665 66.3999 4.90663 66.3999 4.60663C66.3999 3.30663 66.3999 2.00663 66.3999 0.606628L66.4999 0.506653C66.6999 0.406653 66.6999 0.406641 66.6999 0.306641Z" fill="#747378"/>
<path fill-rule="evenodd" clip-rule="evenodd" d="M11 0.307037C11.2 0.407037 11.1 0.507031 11.1 0.707031C11.1 1.90703 11.1 3.10704 11.1 4.30704C11.1 4.60704 11 4.70703 10.7 4.70703C9.99995 4.70703 9.29998 4.70703 8.59998 4.70703C8.29998 4.70703 8.19995 4.60704 8.19995 4.30704C8.19995 3.80704 8.19995 3.40704 8.19995 2.90704C8.19995 2.70704 8.09996 2.60703 7.89996 2.60703H7.79999C6.89999 2.60703 6.89996 2.60705 6.89996 3.50705C6.89996 4.70705 6.89996 5.90705 6.89996 7.00705C6.79996 7.10705 6.79996 7.10703 6.89996 7.10703C7.29996 7.10703 7.79995 7.10703 8.19995 7.10703C8.49995 7.10703 8.59998 7.10704 8.59998 7.40704C8.59998 7.90704 8.59998 8.50705 8.59998 9.00705C8.59998 9.20705 8.49999 9.30704 8.29999 9.30704C6.49999 9.30704 4.59999 9.30704 2.79999 9.30704C2.59999 9.30704 2.5 9.20705 2.5 9.00705C2.5 8.40705 2.5 7.90704 2.5 7.30704C2.5 7.10704 2.59999 7.00705 2.79999 7.00705H2.89996C3.29996 7.00705 3.8 7.20704 4 6.90704C4.2 6.60704 4.09998 6.10703 4.09998 5.70703C4.09998 4.70703 4.09998 3.70704 4.09998 2.80704C4.09998 2.50704 3.99999 2.50705 3.79999 2.50705C2.89999 2.50705 2.89996 2.50704 2.89996 3.40704C2.89996 4.60704 2.89995 4.60703 1.69995 4.60703C1.19995 4.60703 0.799988 4.60703 0.299988 4.60703C0.0999878 4.60703 0 4.50704 0 4.30704C0 3.00704 0 1.70704 0 0.307037L0.0999756 0.207031C0.599976 0.207031 1 0.207031 1.5 0.207031C4.5 0.207031 7.39996 0.207031 10.4 0.207031C10.6 0.207031 10.7 0.207031 10.9 0.207031C10.9 0.407031 10.9 0.407037 11 0.307037Z" fill="#737277"/>
<path fill-rule="evenodd" clip-rule="evenodd" d="M47.4 0.306641C49.2 0.306641 51.1 0.306641 52.9 0.306641C52.9 0.406641 53 0.406647 53.1 0.406647C53.2 1.10665 53.1 1.70665 53.1 2.40665C53.1 2.60665 53 2.60663 52.8 2.60663C52.5 2.60663 52 2.40663 51.8 2.70663C51.6 2.90663 51.7 3.40663 51.7 3.70663C51.7 4.70663 51.7 5.70663 51.7 6.70663C51.7 7.00663 51.8 7.20663 52.1 7.20663C53 7.20663 53 7.20663 53 8.10663C53 8.50663 53.2 9.10665 52.9 9.40665C52.6 9.60665 52.1 9.50665 51.7 9.50665C50.3 9.50665 49 9.50665 47.6 9.50665C47.2 9.50665 47.1 9.40665 47.1 9.00665C47.1 8.50665 47.1 8.00665 47.1 7.50665C47.1 7.20665 47.2 7.20663 47.4 7.10663C47.7 7.10663 48.2 7.30665 48.3 7.00665C48.4 6.80665 48.3 6.40663 48.3 6.10663C48.3 5.10663 48.3 4.10663 48.3 3.20663C48.3 2.70663 48.2 2.60663 47.7 2.70663C47.5 2.70663 47.2 2.80663 47 2.60663C47.1 2.60663 47.1 2.50665 47 2.50665C47 1.80665 47 1.20665 47 0.506653C47.3 0.406653 47.4 0.406641 47.4 0.306641Z" fill="#737277"/>
<path fill-rule="evenodd" clip-rule="evenodd" d="M8.29999 18.3066C7.19999 19.0066 6.29995 18.6066 6.19995 17.3066C6.09995 16.7066 6.09999 16.0066 6.29999 15.4066C6.59999 14.4066 7.49999 14.2066 8.29999 14.9066C8.29999 14.5066 8.59999 14.5066 8.79999 14.6066C9.09999 14.6066 9 14.9066 9 15.0066C9 16.3066 9 17.6066 9 19.0066C9 19.7066 8.7 20.1066 8 20.1066C7.7 20.1066 7.3 20.2066 7 20.0066C6.8 19.9066 6.49996 19.8066 6.39996 19.6066C6.29996 19.4066 6.09996 19.2066 6.39996 19.1066C6.59996 19.0066 6.89997 18.9066 7.09997 19.3066C7.19997 19.6066 7.49999 19.7066 7.79999 19.6066C8.09999 19.5066 8.29999 19.3066 8.29999 19.0066C8.29999 18.8066 8.29999 18.6066 8.29999 18.3066ZM8.29999 16.6066C8.29999 16.3066 8.29995 15.9066 8.19995 15.6066C8.09995 15.3066 7.9 15.1066 7.5 15.1066C7.2 15.1066 6.89996 15.3066 6.89996 15.6066C6.69996 16.2066 6.79996 16.9066 6.89996 17.6066C6.99996 17.9066 7.2 18.1066 7.5 18.1066C7.8 18.1066 7.99997 17.9066 8.09997 17.6066C8.29997 17.3066 8.29999 17.0066 8.29999 16.6066Z" fill="#009900"/>
<path fill-rule="evenodd" clip-rule="evenodd" d="M38.3 15.7072C38.3 16.2072 38.3 16.7072 38.3 17.2072C38.4 17.8072 38.7 18.1072 39.2 18.1072C39.7 18.1072 40.1 17.9072 40.1 17.3072C40.2 16.8072 40.4 16.9072 40.7 16.9072C41.1 16.9072 40.9 17.2072 40.9 17.4072C40.8 18.2072 40.4 18.6072 39.7 18.7072C38.7 18.8072 38 18.5072 37.7 17.8072C37.6 17.5072 37.5 17.2072 37.5 16.9072C37.5 16.1072 37.5 15.3072 37.5 14.5072C37.6 13.1072 38.7 12.4072 40 12.9072C40.5 13.1072 40.9 13.7072 40.8 14.3072C40.8 14.6072 40.5 14.5072 40.3 14.5072C40.1 14.5072 40 14.5072 40 14.2072C39.9 13.5072 39.5 13.3072 38.8 13.5072C38.4 13.6072 38.3 13.9072 38.2 14.3072C38.2 14.4072 38.2 14.5072 38.2 14.5072C38.3 14.9072 38.3 15.3072 38.3 15.7072Z" fill="#009900"/>
<path fill-rule="evenodd" clip-rule="evenodd" d="M11.7002 16.9071C11.4002 16.9071 11.2002 16.9071 10.9002 16.9071C10.6002 16.9071 10.5003 17.0071 10.6003 17.3071C10.6003 17.4071 10.6003 17.5071 10.6003 17.6071C10.7003 18.0071 10.9003 18.2071 11.3003 18.2071C11.6003 18.2071 11.9003 18.1071 12.0003 17.7071C12.1003 17.3071 12.4003 17.4071 12.6003 17.5071C12.9003 17.6071 12.7002 17.8071 12.7002 18.0071C12.5002 18.6071 12.1003 18.8071 11.5003 18.8071C10.9003 18.8071 10.3003 18.8071 10.1003 18.1071C9.70025 17.2071 9.80025 16.2071 10.1003 15.3071C10.3003 14.8071 10.9003 14.5071 11.6003 14.6071C12.3003 14.7071 12.6003 14.9071 12.8003 15.5071C13.1003 16.8071 13.0002 16.9071 11.7002 16.9071ZM11.3003 16.4071C11.4003 16.4071 11.5002 16.4071 11.7002 16.4071C12.1002 16.5071 12.2003 16.3071 12.1003 15.9071C12.1003 15.8071 12.1003 15.7071 12.1003 15.7071C12.0003 15.3071 11.7002 15.1071 11.2002 15.1071C10.8002 15.2071 10.5003 15.7071 10.6003 16.2071C10.7003 16.6071 11.1003 16.3071 11.3003 16.4071Z" fill="#009900"/>
<path fill-rule="evenodd" clip-rule="evenodd" d="M21.0003 16.9072C20.8003 16.9072 20.5003 16.9072 20.3003 16.9072C19.9003 16.9072 19.8003 17.0072 19.9003 17.4072C20.0003 17.8072 20.0003 18.1072 20.5003 18.2072C20.9003 18.3072 21.2003 18.1072 21.3003 17.6072C21.4003 17.2072 21.7003 17.4072 21.9003 17.4072C22.1003 17.4072 22.0003 17.6072 22.0003 17.8072C22.0003 18.1072 21.8003 18.3072 21.6003 18.5072C20.8003 19.2072 19.4003 18.7072 19.2003 17.7072C19.0003 17.0072 19.0003 16.3072 19.2003 15.6072C19.4003 14.9072 19.9003 14.6072 20.6003 14.7072C21.4003 14.7072 21.8003 15.0072 21.9003 15.7072C22.4003 16.8072 22.3003 16.9072 21.0003 16.9072ZM20.7003 16.4072C20.8003 16.4072 20.9003 16.4072 21.1003 16.4072C21.5003 16.5072 21.6003 16.3072 21.5003 15.9072C21.5003 15.8072 21.5003 15.7072 21.4003 15.6072C21.3003 15.2072 21.0003 15.0072 20.6003 15.0072C20.2003 15.1072 19.9003 15.5072 20.0003 16.1072C20.0003 16.6072 20.4003 16.3072 20.7003 16.4072C20.6003 16.4072 20.6003 16.4072 20.7003 16.4072Z" fill="#009900"/>
<path fill-rule="evenodd" clip-rule="evenodd" d="M29.2004 18.207C29.0004 18.407 28.8004 18.607 28.6004 18.607C28.0004 18.807 27.5004 18.507 27.3004 18.007C27.0004 17.307 27.2004 16.607 27.8004 16.307C28.1004 16.107 28.5004 16.107 28.8004 16.107C29.0004 16.107 29.2004 16.207 29.3004 15.907C29.3004 15.607 29.3004 15.307 29.0004 15.107C28.7004 14.907 28.2004 15.007 28.1004 15.407C28.0004 15.507 28.1004 15.707 27.9004 15.707C27.4004 15.807 27.3004 15.607 27.5004 15.207C27.6004 14.807 28.0004 14.607 28.4004 14.507C29.5004 14.307 30.1004 14.807 30.1004 15.907C30.1004 16.607 30.1004 17.407 30.1004 18.107C30.1004 18.307 30.3004 18.507 30.0004 18.607C29.5004 18.707 29.2004 18.807 29.2004 18.207ZM29.2004 17.007C29.2004 16.907 29.3004 16.707 29.0004 16.707C28.7004 16.707 28.4004 16.707 28.1004 16.907C27.8004 17.107 27.7004 17.407 27.8004 17.707C27.8004 18.007 28.0004 18.207 28.3004 18.207C28.6004 18.207 28.9004 18.107 29.0004 17.807C29.2004 17.507 29.2004 17.307 29.2004 17.007Z" fill="#009900"/>
<path fill-rule="evenodd" clip-rule="evenodd" d="M70.2002 16.6068C70.2002 16.3068 70.2002 16.0068 70.3002 15.8068C70.4002 14.9068 70.9002 14.5068 71.8002 14.5068C72.7002 14.5068 73.1002 14.9068 73.3002 15.7068C73.4002 16.3068 73.4002 17.0068 73.3002 17.6068C73.1002 18.3068 72.7002 18.6068 71.9002 18.6068C71.1002 18.6068 70.6002 18.3068 70.4002 17.6068C70.2002 17.4068 70.2002 17.0068 70.2002 16.6068ZM72.6002 16.6068C72.6002 16.3068 72.6002 15.9068 72.5002 15.6068C72.4002 15.2068 72.1002 15.1068 71.8002 15.1068C71.4002 15.1068 71.2002 15.3068 71.1002 15.6068C70.9002 16.3068 71.0002 17.0068 71.1002 17.6068C71.2002 17.9068 71.5002 18.1068 71.8002 18.1068C72.1002 18.1068 72.4002 17.9068 72.5002 17.6068C72.5002 17.3068 72.5002 17.0068 72.6002 16.6068Z" fill="#009900"/>
<path fill-rule="evenodd" clip-rule="evenodd" d="M44.7 16.7065C44.7 16.9065 44.7 17.1065 44.7 17.3065C44.6 18.5065 44 18.9065 42.9 18.8065C42.3 18.7065 42 18.4065 41.9 17.9065C41.7 17.1065 41.7 16.4064 41.9 15.6064C42.1 15.0064 42.5 14.7064 43.3 14.6064C44 14.6064 44.5 14.9065 44.7 15.5065C44.7 15.9065 44.7 16.3065 44.7 16.7065ZM42.3 16.6064C42.3 17.0064 42.3 17.3064 42.4 17.6064C42.5 17.9064 42.7 18.1064 43.1 18.1064C43.5 18.1064 43.7 18.0064 43.8 17.6064C44 16.9064 44 16.2064 43.8 15.6064C43.7 15.2064 43.4 15.1064 43.1 15.1064C42.7 15.1064 42.5 15.3064 42.4 15.6064C42.3 16.0064 42.3 16.3064 42.3 16.6064Z" fill="#009900"/>
<path fill-rule="evenodd" clip-rule="evenodd" d="M3.09998 15.0072C3.39998 14.7072 3.69998 14.5072 4.09998 14.5072C4.69998 14.5072 5.09995 14.8072 5.19995 15.4072C5.19995 16.4072 5.19995 17.4072 5.19995 18.3072C5.19995 18.6072 4.99999 18.5072 4.79999 18.5072C4.59999 18.5072 4.5 18.4072 4.5 18.2072C4.5 17.4072 4.5 16.6072 4.5 15.8072C4.5 15.2072 4.29996 15.0072 3.89996 14.9072C3.39996 14.9072 3.09998 15.1072 3.09998 15.7072C2.99998 16.5072 3.09998 17.3072 3.09998 18.1072C3.09998 18.3072 3.09999 18.5072 2.79999 18.5072C2.49999 18.5072 2.5 18.4072 2.5 18.1072C2.5 17.0072 2.5 15.9072 2.5 14.7072C2.5 14.5072 2.49995 14.4072 2.69995 14.4072C2.79995 14.6072 3.09998 14.5072 3.09998 15.0072Z" fill="#009900"/>
<path fill-rule="evenodd" clip-rule="evenodd" d="M59.6 18.3065C59.4 18.4065 59.2 18.5064 59.1 18.6064C58.3 19.0064 57.5 18.5064 57.5 17.6064C57.5 16.7064 57.5 15.8065 57.5 14.9065C57.5 14.6065 57.6 14.6064 57.9 14.6064C58.2 14.6064 58.3 14.7065 58.2 14.9065C58.2 15.7065 58.2 16.5065 58.2 17.3065C58.2 17.9065 58.4 18.2065 58.9 18.2065C59.3 18.2065 59.6 17.8065 59.6 17.3065C59.6 16.5065 59.6 15.7065 59.6 15.0065C59.6 14.8065 59.6 14.6064 59.9 14.6064C60.2 14.6064 60.3 14.6065 60.3 14.9065C60.3 16.0065 60.3 17.2065 60.3 18.3065C60.3 18.5065 60.3 18.6064 60.1 18.6064C59.9 18.6064 59.6 18.8065 59.6 18.3065Z" fill="#009900"/>
<path fill-rule="evenodd" clip-rule="evenodd" d="M74.8001 15.1064C75.1001 14.8064 75.3001 14.6064 75.6001 14.6064C76.4001 14.5064 76.9001 14.8064 76.9001 15.6064C76.9001 16.5064 76.9001 17.5065 76.9001 18.4065C76.9001 18.7065 76.8001 18.7065 76.6001 18.7065C76.4001 18.7065 76.3001 18.7065 76.3001 18.4065C76.3001 17.6065 76.3001 16.8064 76.3001 16.1064C76.3001 15.5064 76.1001 15.2065 75.6001 15.2065C75.1001 15.2065 74.8001 15.5064 74.8001 16.1064C74.8001 16.9064 74.8001 17.6065 74.8001 18.4065C74.8001 18.7065 74.7001 18.7065 74.5001 18.7065C74.2001 18.7065 74.1001 18.6065 74.1001 18.3065C74.1001 17.2065 74.1001 16.0065 74.1001 14.9065C74.1001 14.7065 74.1001 14.6064 74.4001 14.6064C74.6001 14.6064 74.9001 14.6064 74.8001 15.1064Z" fill="#009900"/>
<path fill-rule="evenodd" clip-rule="evenodd" d="M46.3003 15.107C46.6003 14.707 46.8002 14.607 47.2002 14.607C48.0002 14.507 48.4003 14.907 48.5003 15.607C48.5003 16.507 48.5003 17.507 48.5003 18.407C48.5003 18.707 48.3002 18.707 48.1002 18.707C47.9002 18.707 47.8003 18.607 47.8003 18.407C47.8003 17.607 47.8003 16.807 47.8003 16.107C47.8003 15.507 47.6002 15.207 47.2002 15.207C46.7002 15.207 46.4002 15.407 46.4002 16.007C46.4002 16.707 46.4002 17.507 46.4002 18.207C46.4002 18.407 46.5002 18.707 46.1002 18.707C45.6002 18.707 45.8003 18.407 45.8003 18.207C45.8003 17.207 45.8003 16.107 45.8003 15.107C45.8003 15.007 45.7003 14.707 46.0003 14.707C46.0003 14.607 46.3003 14.507 46.3003 15.107Z" fill="#009900"/>
<path fill-rule="evenodd" clip-rule="evenodd" d="M33.8 17.907C34.1 16.907 34.4 15.907 34.6 15.007C34.7 14.707 34.8 14.707 35.1 14.707C35.4 14.707 35.4 14.807 35.3 15.107C34.8 16.507 34.4 17.807 33.9 19.207C33.8 19.407 33.8 19.507 33.7 19.707C33.6 20.207 33.3 20.307 32.9 20.207C33.4 19.207 33.2 18.207 32.8 17.207C32.5 16.407 32.3 15.607 32 14.907C32.7 14.807 32.7 14.807 32.9 15.407C33.2 16.007 33.5 16.907 33.8 17.907Z" fill="#009900"/>
<path fill-rule="evenodd" clip-rule="evenodd" d="M50.6001 18.7071C49.8001 18.7071 49.3001 18.4071 49.2001 17.7071C49.2001 17.6071 49.1001 17.3071 49.4001 17.4071C49.6001 17.4071 49.9001 17.2071 50.0001 17.6071C50.1001 18.1071 50.5001 18.3071 50.9001 18.1071C51.3001 17.9071 51.4001 17.5071 51.0001 17.2071C50.7001 17.0071 50.4001 16.9071 50.0001 16.7071C49.7001 16.5071 49.4001 16.4071 49.3001 16.1071C49.1001 15.7071 49.3001 15.1071 49.6001 14.9071C50.1001 14.6071 50.9001 14.5071 51.4001 14.8071C51.6001 14.9071 51.7001 15.0071 51.8001 15.2071C51.8001 15.4071 52.0001 15.6071 51.7001 15.7071C51.5001 15.7071 51.1001 15.9071 51.0001 15.5071C50.9001 15.2071 50.6001 15.1071 50.4001 15.1071C50.1001 15.1071 50.0001 15.2071 49.9001 15.5071C49.8001 15.8071 50.1001 15.9071 50.3001 16.1071C50.6001 16.2071 50.8001 16.4071 51.1001 16.5071C51.8001 16.9071 52.0001 17.3071 51.9001 17.9071C51.8001 18.4071 51.4001 18.7071 50.6001 18.7071Z" fill="#009900"/>
<path fill-rule="evenodd" clip-rule="evenodd" d="M14.4001 15.1071C14.7001 14.8071 14.9001 14.6071 15.2001 14.6071C16.0001 14.4071 16.6001 14.8071 16.6001 15.7071C16.6001 16.6071 16.6001 17.5071 16.6001 18.4071C16.6001 18.7071 16.4001 18.7071 16.2001 18.7071C16.0001 18.7071 15.9001 18.6071 15.9001 18.4071C15.9001 17.6071 15.9001 16.8071 15.9001 16.0071C15.9001 15.5071 15.7001 15.3071 15.3001 15.2071C14.9001 15.2071 14.5001 15.4071 14.5001 15.9071C14.4001 16.7071 14.5001 17.5071 14.4001 18.3071C14.4001 18.5071 14.5001 18.8071 14.1001 18.8071C13.7001 18.8071 13.7001 18.6071 13.7001 18.3071C13.7001 17.2071 13.7001 16.2071 13.7001 15.1071C13.7001 14.9071 13.6001 14.7071 13.9001 14.7071C14.2001 14.6071 14.6001 14.5071 14.4001 15.1071Z" fill="#009900"/>
<path fill-rule="evenodd" clip-rule="evenodd" d="M64.9003 16.6065C64.9003 16.3065 64.9003 16.0065 65.0003 15.6065C65.2003 14.6065 66.4003 14.2065 67.2003 14.7065C67.4003 14.9065 67.6003 15.1065 67.6003 15.4065C67.6003 15.6065 67.8003 15.9065 67.4003 15.9065C67.2003 15.9065 66.9003 16.0065 66.9003 15.6065C66.9003 15.3065 66.7003 15.1065 66.4003 15.1065C66.1003 15.1065 65.8003 15.2065 65.7003 15.5065C65.4003 16.3065 65.5003 17.1065 65.7003 17.8065C65.8003 18.1065 66.1003 18.2065 66.3003 18.1065C66.6003 18.1065 66.7003 17.9065 66.8003 17.6065C66.8003 17.5065 66.8003 17.3065 67.0003 17.2065C67.4003 17.1065 67.6003 17.3065 67.5003 17.7065C67.4003 18.2065 66.9003 18.6065 66.3003 18.6065C65.6003 18.6065 65.1003 18.4065 64.9003 17.8065C64.8003 17.6065 64.8003 17.5065 64.8003 17.3065C64.9003 17.2065 64.9003 16.9065 64.9003 16.6065Z" fill="#009900"/>
<path fill-rule="evenodd" clip-rule="evenodd" d="M62.0002 16.6068C62.0002 16.9068 62.0002 17.3068 62.1002 17.6068C62.2002 17.9068 62.4002 18.2068 62.7002 18.2068C63.1002 18.2068 63.2002 18.0068 63.3002 17.6068C63.3002 17.5068 63.3002 17.3069 63.5002 17.3069C63.9002 17.3069 64.0002 17.4069 63.9002 17.8069C63.8002 18.3069 63.3002 18.7068 62.7002 18.7068C62.0002 18.8068 61.5002 18.5069 61.3002 18.0069C61.0002 17.1069 61.0002 16.2069 61.3002 15.4069C61.5002 14.8069 62.1002 14.5068 62.8002 14.6068C63.4002 14.7068 63.8002 15.0068 63.8002 15.6068C63.8002 15.7068 63.9002 16.0069 63.6002 15.9069C63.4002 15.9069 63.1002 16.1068 63.1002 15.7068C63.1002 15.4068 62.9002 15.1068 62.5002 15.1068C62.1002 15.1068 61.9002 15.3068 61.8002 15.7068C62.0002 16.0068 62.0002 16.3068 62.0002 16.6068Z" fill="#009900"/>
<path fill-rule="evenodd" clip-rule="evenodd" d="M53.5 13.6064C53.5 13.7064 53.5 13.8065 53.5 13.9065C53.4 14.4065 53.5 14.7064 54.1 14.6064C54.3 14.6064 54.3 14.7065 54.3 14.8065C54.3 15.0065 54.3 15.1064 54.1 15.1064C54 15.1064 53.9 15.1064 53.8 15.1064C53.5 15.1064 53.5 15.2065 53.5 15.4065C53.5 16.1065 53.5 16.8065 53.5 17.5065C53.5 17.9065 53.7 18.1065 54.1 18.0065C54.3 18.0065 54.3999 18.0065 54.3999 18.2065C54.3999 18.5065 54.3 18.5065 54.1 18.5065C53.9 18.5065 53.8 18.5065 53.6 18.5065C53 18.5065 52.8 18.3065 52.8 17.7065C52.8 16.9065 52.8 16.1065 52.8 15.3065C52.8 15.1065 52.7 14.9065 52.5 15.0065C52.3 15.0065 52.0999 15.0065 52.1999 14.7065C52.1999 14.4065 52.4 14.4065 52.6 14.5065C52.8 14.5065 52.8999 14.4065 52.8999 14.2065C52.7999 13.8065 53.1 13.7064 53.5 13.6064Z" fill="#009900"/>
<path fill-rule="evenodd" clip-rule="evenodd" d="M1.19989 15.8072C1.19989 16.6072 1.19989 17.5072 1.19989 18.3072C1.19989 18.6072 1.09993 18.7072 0.799927 18.7072C0.499927 18.7072 0.399902 18.6072 0.399902 18.3072C0.399902 16.6072 0.399902 15.0072 0.399902 13.3072C0.399902 13.0072 0.599927 12.9072 0.799927 12.9072C1.09993 12.9072 1.19989 13.0072 1.19989 13.3072C1.19989 14.1072 1.19989 15.0072 1.19989 15.8072Z" fill="#009900"/>
<path fill-rule="evenodd" clip-rule="evenodd" d="M55.8 15.1066C56.1 14.8066 56.3 14.6066 56.6 14.6066C56.8 14.6066 57.1 14.4066 57.1 14.8066C57.1 15.1066 57.1 15.3066 56.7 15.3066C56.1 15.3066 55.8 15.6066 55.8 16.2066C55.8 16.9066 55.8 17.6066 55.8 18.3066C55.8 18.6066 55.8 18.7066 55.4 18.7066C55 18.7066 55.1 18.5066 55.1 18.3066C55.1 17.2066 55.1 16.2066 55.1 15.1066C55.1 14.9066 55 14.7066 55.4 14.7066C55.6 14.6066 55.9 14.6066 55.8 15.1066Z" fill="#009900"/>
<path fill-rule="evenodd" clip-rule="evenodd" d="M23.1001 15.0065C23.1001 14.9065 23.1001 14.9065 23.1001 14.8065C23.2001 14.8065 23.2001 14.7065 23.1001 14.7065C23.6001 14.5065 23.7001 14.6064 23.8001 15.1064C24.0001 14.8064 24.3001 14.6064 24.7001 14.6064C24.9001 14.6064 25.0001 14.6065 25.0001 14.8065C25.0001 15.0065 25.2001 15.2065 24.8001 15.2065C24.0001 15.3065 23.8001 15.5065 23.8001 16.3065C23.8001 16.9065 23.8001 17.5064 23.8001 18.1064C23.8001 18.6064 23.7001 18.7064 23.3001 18.6064C23.3001 17.5064 23.3001 16.5065 23.3001 15.4065C23.2001 15.3065 23.3001 15.1065 23.1001 15.0065Z" fill="#009900"/>
<path fill-rule="evenodd" clip-rule="evenodd" d="M18.3001 16.7065C18.3001 17.2065 18.3001 17.8065 18.3001 18.3065C18.3001 18.6065 18.2001 18.6064 17.9001 18.6064C17.6001 18.6064 17.6001 18.5065 17.6001 18.3065C17.6001 17.2065 17.6001 16.0065 17.6001 14.9065C17.6001 14.6065 17.7001 14.6064 18.0001 14.6064C18.3001 14.6064 18.4001 14.7065 18.3001 14.9065C18.3001 15.5065 18.3001 16.1065 18.3001 16.7065Z" fill="#009900"/>
<path fill-rule="evenodd" clip-rule="evenodd" d="M25.5 16.707C25.5 16.107 25.5 15.607 25.5 15.007C25.5 14.707 25.6 14.707 25.9 14.707C26.2 14.707 26.2 14.807 26.2 15.007C26.2 16.107 26.2 17.207 26.2 18.407C26.2 18.607 26.1 18.807 25.9 18.807C25.6 18.807 25.5 18.707 25.5 18.407C25.5 17.807 25.5 17.207 25.5 16.707Z" fill="#009900"/>
<path fill-rule="evenodd" clip-rule="evenodd" d="M69.3 16.6064C69.3 17.2064 69.3 17.8065 69.3 18.3065C69.3 18.6065 69.2 18.6064 68.9 18.6064C68.7 18.6064 68.5 18.6065 68.5 18.3065C68.5 17.2065 68.5 16.0065 68.5 14.9065C68.5 14.6065 68.6 14.6064 68.9 14.6064C69.1 14.6064 69.3 14.6065 69.3 14.9065C69.3 15.5065 69.3 16.1064 69.3 16.6064Z" fill="#009900"/>
<path fill-rule="evenodd" clip-rule="evenodd" d="M46.1003 0.506644C44.2003 0.506644 42.2003 0.506644 40.3003 0.506644C40.3003 0.306644 40.5003 0.406638 40.6003 0.406638C42.3003 0.406638 44.0003 0.406638 45.8003 0.406638C45.9003 0.306638 46.1003 0.206644 46.1003 0.506644Z" fill="#66646A"/>
<path fill-rule="evenodd" clip-rule="evenodd" d="M72.6002 13.0071C72.0002 13.9071 71.7002 14.1071 71.2002 14.1071C71.5002 13.0071 71.8002 12.8071 72.6002 13.0071Z" fill="#009900"/>
<path fill-rule="evenodd" clip-rule="evenodd" d="M25.3003 14.0072C25.6003 13.1072 25.9003 12.9072 26.7003 12.9072C26.3003 13.7072 25.8003 14.1072 25.3003 14.0072Z" fill="#009900"/>
<path fill-rule="evenodd" clip-rule="evenodd" d="M68.9 13.6072C68.6 13.7072 68.5 13.5072 68.5 13.2072C68.5 12.9072 68.7 12.9072 68.9 12.9072C69.2 12.9072 69.3 13.0072 69.3 13.3072C69.3 13.6072 69.2 13.7072 68.9 13.6072Z" fill="#009900"/>
<path fill-rule="evenodd" clip-rule="evenodd" d="M18.3001 13.3072C18.4001 13.6072 18.3001 13.7072 18.0001 13.7072C17.7001 13.7072 17.6001 13.7072 17.6001 13.3072C17.6001 13.0072 17.7001 12.9072 18.0001 12.9072C18.2001 13.0072 18.4001 12.9072 18.3001 13.3072Z" fill="#009900"/>
<path fill-rule="evenodd" clip-rule="evenodd" d="M23.1001 15.0068C23.3001 15.1068 23.2001 15.3068 23.2001 15.5068C23.2001 16.6068 23.2001 17.6068 23.2001 18.7068C23.1001 18.7068 23.1001 18.6068 23.1001 18.4068C23.1001 17.2068 23.1001 16.1068 23.1001 15.0068Z" fill="#009900"/>
<path fill-rule="evenodd" clip-rule="evenodd" d="M77.5999 0.306641C77.4999 0.406641 77.4999 0.406641 77.3999 0.306641C77.4999 0.306641 77.4999 0.306641 77.5999 0.306641Z" fill="#66646A"/>
<path fill-rule="evenodd" clip-rule="evenodd" d="M53.0999 0.406647C52.9999 0.406647 52.8999 0.406641 52.8999 0.306641C52.9999 0.306641 53.0999 0.306647 53.0999 0.406647Z" fill="#66646A"/>
<path fill-rule="evenodd" clip-rule="evenodd" d="M6.9002 7.20684C6.8002 7.20684 6.8002 7.10684 6.9002 7.20684C6.9002 7.10684 6.9002 7.10684 6.9002 7.20684Z" fill="#66646A"/>
<path fill-rule="evenodd" clip-rule="evenodd" d="M66.7001 0.306641C66.7001 0.406641 66.6001 0.406641 66.6001 0.306641C66.7001 0.306641 66.7001 0.306641 66.7001 0.306641Z" fill="#66646A"/>
<path fill-rule="evenodd" clip-rule="evenodd" d="M60.4003 0.306641L60.3003 0.406647C60.3003 0.406647 60.3003 0.306641 60.4003 0.306641Z" fill="#66646A"/>
<path fill-rule="evenodd" clip-rule="evenodd" d="M58.2 0.406749C58.1 0.406749 58.1 0.406749 58.2 0.406749C58.1 0.406749 58.1 0.306749 58.2 0.406749Z" fill="#66646A"/>
<path fill-rule="evenodd" clip-rule="evenodd" d="M54.4003 0.306641L54.3003 0.406647C54.3003 0.406647 54.3003 0.306641 54.4003 0.306641Z" fill="#66646A"/>
<path fill-rule="evenodd" clip-rule="evenodd" d="M23.1001 14.707C23.2001 14.807 23.2001 14.807 23.1001 14.707C23.1001 14.807 23.1001 14.807 23.1001 14.707Z" fill="#009900"/>
<path fill-rule="evenodd" clip-rule="evenodd" d="M47.4003 0.306641L47.3003 0.406647C47.3003 0.406647 47.3003 0.306641 47.4003 0.306641Z" fill="#66646A"/>
<path fill-rule="evenodd" clip-rule="evenodd" d="M39.7001 0.406647L39.6001 0.306641C39.7001 0.306641 39.7001 0.406647 39.7001 0.406647Z" fill="#66646A"/>
<path fill-rule="evenodd" clip-rule="evenodd" d="M34.1 0.306641C34.1 0.406641 34 0.406641 34 0.306641C34 0.306641 34 0.306641 34.1 0.306641Z" fill="#66646A"/>
<path fill-rule="evenodd" clip-rule="evenodd" d="M22.4002 0.406749C22.3002 0.406749 22.3002 0.406749 22.4002 0.406749C22.3002 0.406749 22.3002 0.306749 22.4002 0.406749Z" fill="#66646A"/>
<path fill-rule="evenodd" clip-rule="evenodd" d="M12.3002 0.306641C12.3002 0.406641 12.2002 0.406641 12.2002 0.306641C12.2002 0.306641 12.2002 0.306641 12.3002 0.306641Z" fill="#66646A"/>
<path fill-rule="evenodd" clip-rule="evenodd" d="M10.9999 0.306641C10.9999 0.406641 10.8999 0.406641 10.8999 0.306641C10.8999 0.306641 10.8999 0.306641 10.9999 0.306641Z" fill="#66646A"/>
</svg>
