<svg width="107" height="20" viewBox="0 0 107 20" fill="none" xmlns="http://www.w3.org/2000/svg">
<path d="M16.9 0C16.9 0.1 17 0.100006 17 0.100006C19.4 0.700006 20.7 3 20.1 5.5C19.5 8.2 17.2 10.4 14.4 10.7C11.4 11 9.5 8.90002 9.5 6.40002C9.5 3.60002 11.6 0.900012 14.4 0.200012C14.5 0.200012 14.6999 0.2 14.7999 0C15.4999 0 16.2 0 16.9 0ZM18.9 5C18.9 2.9 17.3999 1.4 15.2999 1.5C13.1999 1.6 11.2 3.20002 10.5 5.30002C10.2 6.40002 10.1999 7.5 10.7999 8.5C11.6999 9.8 12.9 10.3 14.5 10.1C16.8 9.70001 18.9 7.4 18.9 5Z" fill="#104183"/>
<path d="M23.4004 14.0005C23.9004 13.9005 24.4004 13.7005 24.9004 13.6005C25.1004 13.5005 25.2003 13.6005 25.3003 13.8005C25.7003 14.4005 26.2004 14.8005 27.0004 15.0005C28.1004 15.3005 29.3004 15.3005 30.4004 15.0005C30.9004 14.8005 31.4004 14.6005 31.4004 14.0005C31.4004 13.4005 30.8003 13.2005 30.3003 13.0005C29.2003 12.7005 28.0004 12.6005 26.9004 12.5005C26.1004 12.4005 25.3003 12.2005 24.7003 11.7005C23.4003 10.8005 23.4003 8.8005 24.6003 7.9005C25.3003 7.4005 26.0003 7.20048 26.8003 7.10048C28.2003 6.90048 29.7003 7.00048 31.1003 7.50048C31.9003 7.80048 32.6004 8.40049 33.0004 9.20049C33.1004 9.50049 33.1003 9.70049 32.8003 9.70049C32.7003 9.70049 32.5004 9.80049 32.4004 9.80049C32.1004 9.90049 31.8004 10.1005 31.5004 10.1005C31.2004 10.1005 31.2004 9.70048 31.0004 9.50048C30.6004 9.10048 30.1004 8.90049 29.5004 8.80049C28.7004 8.60049 27.8004 8.60049 26.9004 8.80049C26.6004 8.90049 26.3003 8.90048 26.1003 9.10048C25.8003 9.30048 25.5003 9.5005 25.6003 9.9005C25.6003 10.3005 25.9003 10.4005 26.2003 10.6005C27.1003 10.9005 28.0004 11.0005 28.9004 11.1005C29.7004 11.2005 30.6004 11.3005 31.4004 11.6005C32.4004 12.0005 33.2003 12.6005 33.3003 13.8005C33.4003 15.1005 32.9003 16.1005 31.6003 16.5005C29.1003 17.4005 26.6003 17.4005 24.3003 15.8005C24.0003 15.6005 23.8003 15.3005 23.6003 15.0005C23.5003 14.9005 23.5003 14.7005 23.3003 14.8005C23.4003 14.3005 23.4004 14.2005 23.4004 14.0005Z" fill="#104183"/>
<path d="M106.8 15.6004C106.4 15.6004 106.1 15.6004 105.7 15.6004C105.3 15.6004 105.1 15.5004 105.2 15.1004C105.2 15.0004 105.2 15.0004 105.2 14.9004C105 14.9004 105 15.0004 104.9 15.1004C103.4 16.2004 101.3 16.1004 99.9999 14.8004C98.7999 13.5004 98.6998 11.3004 99.7998 9.80038C100.8 8.50038 103 8.20037 104.6 9.10037C104.7 9.20037 104.8 9.20038 104.9 9.30038C105.2 9.50038 105.3 9.40037 105.2 9.10037C105.2 8.40037 105.2 7.60039 105.2 6.90039C105.2 6.60039 105.3 6.40039 105.6 6.40039C106 6.40039 106.4 6.40039 106.7 6.40039C106.8 9.50039 106.8 12.5004 106.8 15.6004ZM105.3 12.1004C105.3 10.7004 105.2 10.4004 104.1 10.1004C104 10.1004 103.9 10.0004 103.8 10.0004C102.7 9.70037 101.5 10.1004 101 11.0004C100.5 11.8004 100.5 12.7004 101.1 13.5004C101.7 14.4004 102.6 14.5004 103.6 14.4004C104.2 14.3004 104.8 14.0004 105.2 13.5004C105.5 13.2004 105.3 12.7004 105.3 12.3004C105.3 12.2004 105.3 12.2004 105.3 12.1004Z" fill="#104183"/>
<path d="M0 14.9997C0.1 13.1997 1.2 11.4997 3 10.2997C4.6 9.2997 6.29998 8.89968 8.09998 9.49968C9.69998 9.99968 10.8 11.4997 10.9 13.1997C11 15.2997 10.1 16.9997 8.5 18.3997C7.3 19.3997 5.89993 19.8997 4.29993 19.8997C1.79993 19.7997 0 17.9997 0 14.9997ZM6.40002 10.0997C5.60002 10.0997 4.59995 10.4997 3.69995 11.0997C2.29995 12.1997 1.49998 13.4997 1.59998 15.3997C1.69998 17.0997 3.09993 18.5997 5.29993 18.5997C6.79993 18.5997 8 17.8997 9 16.7997C10 15.6997 10.5 14.4997 10.2 12.9997C9.99995 11.1997 8.50002 10.0997 6.40002 10.0997Z" fill="#104183"/>
<path d="M76.8002 16.7998C75.6002 16.7998 74.6002 16.6998 73.6002 16.1998C72.8002 15.7998 72.1002 15.2998 71.7002 14.4998C71.5002 14.1998 71.5003 13.9998 71.9003 13.8998C72.3003 13.7998 72.6002 13.6998 73.0002 13.5998C73.2002 13.4998 73.4002 13.4998 73.5002 13.7998C73.9002 14.4998 74.5002 14.7998 75.2002 14.9998C76.3002 15.2998 77.5002 15.2998 78.6002 14.9998C79.1002 14.7998 79.6002 14.5998 79.6002 13.9998C79.6002 13.5998 79.2002 13.1998 78.5002 12.9998C77.4002 12.6998 76.2002 12.6998 75.1002 12.4998C74.4002 12.3998 73.7002 12.1998 73.1002 11.7998C71.5002 10.7998 71.5002 8.59978 73.1002 7.59978C73.7002 7.19978 74.4002 7.09977 75.1002 6.99977C76.6002 6.89977 78.1002 6.89977 79.6002 7.49977C80.4002 7.79977 80.9002 8.39978 81.3002 9.09978C81.4002 9.39978 81.4002 9.49978 81.1002 9.59978C80.9002 9.59978 80.8002 9.69979 80.6002 9.79979C80.3002 9.89979 80.1002 9.99977 79.8002 9.99977C79.5002 9.99977 79.5002 9.5998 79.3002 9.3998C78.9002 8.9998 78.4002 8.69978 77.8002 8.59978C76.9002 8.39978 76.1002 8.39978 75.2002 8.59978C74.9002 8.69978 74.6003 8.6998 74.4003 8.8998C74.1003 9.0998 73.9003 9.29978 73.9003 9.69978C73.9003 10.0998 74.2002 10.1998 74.5002 10.3998C75.4002 10.6998 76.3002 10.7998 77.2002 10.8998C78.1002 10.9998 78.9002 11.0998 79.8002 11.3998C81.0002 11.8998 81.6002 12.5998 81.6002 13.5998C81.6002 14.8998 81.1003 15.7998 79.9003 16.2998C78.7003 16.6998 77.7002 16.7998 76.8002 16.7998Z" fill="#104183"/>
<path d="M54.0004 16.8003C53.4004 16.8003 52.7004 16.8003 52.1004 16.6003C49.4004 15.9003 48.4004 13.7003 48.6004 11.3003C48.8004 8.60032 50.5004 7.10033 53.3004 6.90033C54.4004 6.80033 55.5004 6.90032 56.5004 7.30032C57.4004 7.70032 58.2004 8.20031 58.7004 9.10031C58.8004 9.30031 58.8004 9.50031 58.5004 9.60031C58.4004 9.60031 58.3004 9.60031 58.2004 9.70031C57.6004 10.0003 57.1004 10.1003 56.5004 9.40033C55.9004 8.70033 54.9004 8.60031 54.0004 8.60031C53.3004 8.60031 52.6005 8.70031 51.9005 9.10031C50.7005 9.80031 50.1005 11.2003 50.4005 12.8003C50.7005 14.2003 51.7004 15.1003 53.1004 15.3003C54.5004 15.5003 55.8004 15.3003 56.8004 14.1003C56.9004 14.0003 57.0004 13.9003 57.2004 14.0003C57.6004 14.1003 58.0005 14.3003 58.4005 14.4003C58.7005 14.5003 58.7004 14.6003 58.5004 14.9003C57.8004 16.1003 56.6004 16.7003 55.3004 16.9003C55.0004 16.8003 54.5004 16.8003 54.0004 16.8003Z" fill="#104183"/>
<path d="M5.29978 8.50033C3.09978 8.50033 0.999876 6.60036 0.899876 4.40036C0.799876 2.80036 1.3998 1.60034 2.6998 1.10034C3.5998 0.70034 4.59985 0.800347 5.49985 1.20035C7.29985 2.00035 8.29988 3.30035 8.39988 5.30035C8.49988 7.20035 7.09978 8.50033 5.29978 8.50033ZM5.39988 8.10034C6.79988 8.10034 7.89988 7.00034 7.89988 5.60034C7.79988 3.90034 6.59988 2.50034 4.89988 2.10034C3.39988 1.80034 1.99978 2.70035 1.79978 4.20035C1.59978 6.10035 3.39988 8.10034 5.39988 8.10034Z" fill="#104183"/>
<path d="M15.9999 18.8996C13.5999 18.8996 11.3999 16.7996 11.4999 14.3996C11.4999 12.7996 12.6998 11.5996 14.2998 11.4996C16.5998 11.2996 18.8998 13.0996 19.1998 15.3996C19.3998 17.2996 18.0999 18.8996 15.9999 18.8996ZM14.3999 11.9996C12.6999 11.9996 11.5999 13.3996 11.8999 14.9996C12.1999 16.4996 13.5998 17.7996 15.1998 17.8996C16.7998 18.0996 18.0999 16.8996 17.9999 15.3996C17.9999 13.5996 16.2999 11.9996 14.3999 11.9996Z" fill="#104183"/>
<path d="M40.9002 13.0001C40.9002 13.7001 40.9002 14.4001 40.9002 15.1001C40.9002 15.4001 40.8001 15.6001 40.5001 15.6001C40.3001 15.6001 40.0001 15.6001 39.8001 15.6001C39.5001 15.6001 39.3001 15.6001 39.3001 15.2001C39.3001 14.9001 39.1001 15.1001 39.0001 15.1001C38.4001 15.4001 37.7001 15.7001 37.1001 15.8001C36.4001 15.9001 35.7001 15.8001 35.0001 15.5001C33.5001 14.9001 33.5001 13.0001 34.6001 12.2001C35.4001 11.6001 36.3001 11.4001 37.2001 11.2001C37.8001 11.1001 38.4001 11.1001 39.0001 11.0001C39.4001 11.0001 39.6001 10.7001 39.3001 10.3001C39.2001 10.1001 39.0001 10.0001 38.7001 9.90009C38.0001 9.70009 37.3001 9.70009 36.6001 9.90009C36.4001 10.0001 36.2001 10.0001 36.1001 10.2001C35.8001 10.8001 35.3001 10.7001 34.8001 10.7001C34.1001 10.7001 34.1002 10.6001 34.4002 10.0001C34.8002 9.30007 35.4001 8.90008 36.1001 8.70008C37.1001 8.40008 38.2001 8.50008 39.2001 8.70008C40.4001 9.00008 40.9002 9.70009 40.9002 10.9001C40.9002 11.6001 40.9002 12.3001 40.9002 13.0001ZM39.2001 13.0001C39.2001 12.8001 39.2001 12.6001 39.2001 12.4001C39.2001 12.2001 39.1002 12.1001 38.9002 12.1001C37.9002 12.2001 36.9001 12.3001 36.0001 12.7001C35.5001 12.9001 35.3002 13.3001 35.4002 13.8001C35.5002 14.2001 35.8001 14.4001 36.3001 14.5001C37.1001 14.5001 37.8001 14.3001 38.5001 14.0001C39.1001 13.8001 39.4001 13.6001 39.2001 13.0001Z" fill="#104183"/>
<path d="M87.4001 14.9003C86.6001 15.3003 85.9001 15.6003 85.1001 15.7003C84.3001 15.8003 83.6001 15.7003 82.9001 15.4003C81.7001 14.8003 81.5001 13.3003 82.4001 12.4003C83.2001 11.6003 84.2001 11.4003 85.2001 11.2003C85.8001 11.1003 86.4001 11.1003 87.0001 11.0003C87.4001 11.0003 87.5 10.8003 87.3 10.4003C87.2 10.2003 87 10.0003 86.8 10.0003C86 9.80032 85.3001 9.80032 84.5001 10.0003C84.3001 10.1003 84.1001 10.2003 84.0001 10.3003C83.8001 10.7003 83.5001 10.7003 83.1001 10.7003C83.0001 10.7003 82.9001 10.7003 82.9001 10.7003C82.7001 10.7003 82.3001 10.8003 82.2001 10.6003C82.1001 10.4003 82.3001 10.1003 82.4001 9.90034C82.8001 9.20034 83.5 8.80032 84.3 8.60032C85.2 8.40032 86.2001 8.40033 87.1001 8.70033C88.3001 9.00033 88.8 9.70034 88.8 10.9003C88.8 12.3003 88.8 13.7003 88.8 15.1003C88.8 15.5003 88.6 15.6003 88.3 15.6003C88.2 15.6003 88.0001 15.6003 87.9001 15.6003C87.6001 15.6003 87.2001 15.7003 87.4001 14.9003ZM87.4001 13.1003C87.4001 12.8003 87.4001 12.7003 87.4001 12.5003C87.4001 12.3003 87.3001 12.2003 87.2001 12.2003C86.1001 12.3003 85.1001 12.4003 84.1001 12.9003C83.7001 13.1003 83.5001 13.5003 83.6001 13.9003C83.7001 14.4003 84.0001 14.5003 84.5001 14.6003C85.3001 14.7003 86.1 14.4003 86.8 14.1003C87.2 13.8003 87.5001 13.6003 87.4001 13.1003Z" fill="#104183"/>
<path d="M66.4002 12.2003C66.4002 14.7003 64.5001 16.2003 61.8001 15.7003C60.5001 15.5003 59.4001 14.8003 59.0001 13.5003C58.6001 12.1003 58.7001 10.6003 59.8001 9.5003C61.0001 8.4003 62.5001 8.30031 64.0001 8.70031C65.3001 9.10031 66.0001 10.0003 66.3001 11.3003C66.3001 11.6003 66.3002 11.9003 66.4002 12.2003ZM62.6001 14.4003C64.0001 14.4003 64.8001 13.5003 64.8001 12.1003C64.8001 10.7003 64.0001 9.90032 62.6001 9.90032C61.2001 9.90032 60.4002 10.8003 60.4002 12.1003C60.4002 13.6003 61.2001 14.4003 62.6001 14.4003Z" fill="#104183"/>
<path d="M41.4001 12.1996C41.4001 11.1996 41.4001 10.1996 41.4001 9.29962C41.4001 8.99962 41.5 8.79962 41.8 8.79962C42 8.79962 42.2001 8.79962 42.4001 8.79962C42.7001 8.79962 43.0001 8.79962 43.0001 9.29962C43.0001 9.59962 43.2 9.39962 43.3 9.29962C43.9 8.79962 44.7001 8.59961 45.5001 8.59961C47.1001 8.59961 48.1001 9.49962 48.1001 11.1996C48.1001 12.4996 48.1001 13.8996 48.1001 15.1996C48.1001 15.5996 48.0001 15.5996 47.6001 15.5996C46.4001 15.5996 46.4001 15.5996 46.4001 14.3996C46.4001 13.4996 46.4001 12.5996 46.4001 11.6996C46.4001 11.4996 46.4 11.1996 46.3 10.9996C46.2 10.1996 45.7001 9.89963 45.0001 9.89963C44.6001 9.89963 44.2 9.99961 43.8 10.0996C43.1 10.3996 42.8 10.7996 42.8 11.5996C42.8 12.7996 42.8 13.9996 42.8 15.0996C42.8 15.3996 42.7 15.5996 42.3 15.5996C41.1 15.5996 41.1001 15.5996 41.1001 14.3996C41.4001 13.6996 41.4001 12.8996 41.4001 12.1996Z" fill="#104183"/>
<path d="M96.9999 14.7998C96.0999 15.6998 94.9998 15.8998 93.7998 15.6998C92.5998 15.4998 91.8999 14.6998 91.8999 13.5998C91.8999 12.0998 91.8999 10.5998 91.8999 9.1998C91.8999 9.0998 91.8999 9.09979 91.8999 8.99979C92.2999 8.69979 92.7998 8.8998 93.1998 8.7998C93.4998 8.7998 93.4999 8.9998 93.4999 9.1998C93.4999 10.2998 93.4999 11.4998 93.4999 12.5998C93.4999 14.2998 94.2999 14.6998 95.8999 14.2998C96.6999 14.0998 96.9999 13.5998 96.9999 12.6998C96.9999 11.5998 96.9999 10.3998 96.9999 9.2998C96.9999 8.8998 97.0999 8.7998 97.4999 8.7998C98.5999 8.7998 98.5999 8.79981 98.5999 9.89981C98.5999 11.5998 98.5999 13.2998 98.5999 14.9998C98.5999 15.5998 98.5999 15.5998 97.9999 15.5998C97.8999 15.5998 97.8998 15.5998 97.7998 15.5998C97.0998 15.5998 97.0999 15.5998 96.9999 14.7998Z" fill="#104183"/>
<path d="M68.4001 9.60001C69.0001 8.80001 69.8001 8.5 70.6001 8.5C70.9001 8.5 71.1001 8.6 71.1001 9C71.1001 9.4 71.2001 9.90001 71.0001 10.1C70.8001 10.4 70.3001 10.1 70.0001 10.2C68.9001 10.3 68.3 10.8 68.3 12C68.3 13 68.3 14.1 68.3 15.1C68.3 15.4 68.2 15.6 67.8 15.6C66.6 15.6 66.6001 15.6 66.6001 14.4C66.6001 12.7 66.6001 11 66.6001 9.30002C66.6001 8.90002 66.7001 8.80002 67.1001 8.80002C67.2001 8.80002 67.3001 8.80002 67.4001 8.80002C68.2001 8.80002 68.2001 8.80001 68.4001 9.60001Z" fill="#104183"/>
<path d="M89.6001 11.3002C89.6001 9.9002 89.6001 8.6002 89.6001 7.2002C89.6001 6.9002 89.7001 6.7002 90.1001 6.7002C91.3001 6.7002 91.3 6.70021 91.3 7.90021C91.3 10.4002 91.3 12.9002 91.3 15.3002C91.3 15.7002 91.2001 15.9002 90.7001 15.9002C89.7001 15.9002 89.7001 15.9002 89.7001 14.9002C89.6001 13.7002 89.6001 12.5002 89.6001 11.3002Z" fill="#104183"/>
<path d="M13.7999 9.79989C11.8999 9.79989 10.4 8.39989 10.6 6.29989C10.7 4.29989 12.5 2.39987 14.4 1.99987C15.5 1.79987 16.6 1.99989 17.4 2.79989C18.4 3.69989 18.4999 4.89987 18.1999 6.09987C17.7999 8.19987 15.8999 9.69989 13.7999 9.79989ZM13.6999 9.29989C15.4999 9.29989 17.2 7.69989 17.4 5.89989C17.6 4.29989 16.3 2.89987 14.6 3.09987C13 3.29987 11.5999 4.49987 11.1999 5.99987C10.7999 7.79987 11.9999 9.29989 13.6999 9.29989Z" fill="#58BDDB"/>
<path d="M9.90028 13.6004C9.90028 15.5004 8.40028 17.4004 6.40028 18.0004C5.20028 18.3004 4.00026 18.2004 3.00026 17.4004C1.90026 16.4004 1.70023 15.2004 2.10023 13.8004C2.70023 11.8004 4.70021 10.4004 6.70021 10.4004C8.60021 10.4004 10.0003 11.7004 9.90028 13.6004ZM6.90028 11.0004C5.20028 11.0004 3.50021 12.4004 3.20021 14.0004C2.90021 15.8004 4.10028 17.2004 5.90028 17.1004C7.50028 17.0004 9.00028 15.8004 9.40028 14.2004C9.80028 12.5004 8.70028 11.0004 6.90028 11.0004Z" fill="#58BDDB"/>
<path d="M5.4 7.80043C3.5 7.80043 1.89993 5.90042 2.19993 4.10042C2.39993 3.00042 3.29998 2.20043 4.49998 2.30043C6.19998 2.40043 7.69993 3.90042 7.69993 5.60042C7.69993 6.90042 6.7 7.80043 5.4 7.80043ZM7.19993 5.70043C7.19993 4.50043 6.2 3.30042 4.9 3.10042C3.7 2.90042 2.7999 3.70044 2.7999 4.90044C2.7999 6.10044 3.79995 7.20044 5.09995 7.40044C6.29995 7.70044 7.19993 6.90043 7.19993 5.70043Z" fill="#58BDDB"/>
<path d="M15.5002 17.5997C13.7002 17.5997 12.2002 15.9998 12.2002 14.2998C12.2002 13.1998 13.1002 12.2997 14.2002 12.1997C16.0002 11.9997 17.6002 13.3997 17.8002 15.0997C17.9002 16.4997 16.9002 17.5997 15.5002 17.5997ZM15.1002 16.8998C16.3002 16.8998 17.1003 15.9998 16.9003 14.8998C16.8003 13.5998 15.5002 12.5997 14.2002 12.5997C13.1002 12.5997 12.3003 13.4997 12.4003 14.5997C12.6003 15.8997 13.8002 16.8998 15.1002 16.8998Z" fill="#58BDDB"/>
</svg>
