<svg width="57" height="32" viewBox="0 0 57 32" fill="none" xmlns="http://www.w3.org/2000/svg">
<path d="M2.99976 29.0396C2.94976 29.0396 2.88977 29.0395 2.89977 28.9695C2.89977 28.9195 2.89977 28.8795 2.89977 28.8295C2.89977 26.2795 2.89977 23.7195 2.89977 21.1695C2.89977 21.0195 2.86976 20.9695 2.70976 20.9695C1.80976 20.9695 0.909766 20.9695 0.00976562 20.9695V19.5795C0.0797656 19.5195 0.159761 19.5195 0.239761 19.5195C2.62976 19.5195 5.00976 19.5195 7.39977 19.5195C7.63977 19.5195 7.67976 19.5595 7.67976 19.7995C7.67976 20.1095 7.67976 20.4196 7.67976 20.7296C7.67976 20.9396 7.65976 20.9495 7.45976 20.9495C6.63976 20.9495 5.81976 20.9495 4.99976 20.9495C4.93976 20.9695 4.94976 21.0195 4.94976 21.0695C4.94976 23.5795 4.94976 26.0995 4.94976 28.6095C4.94976 28.6295 4.94976 28.6395 4.94976 28.6595C4.95976 28.7995 4.88977 28.8595 4.75977 28.8595C4.55977 28.8595 4.35976 28.8595 4.16976 28.8595C3.88976 28.8595 3.60976 28.8595 3.33976 28.8595C3.18976 28.8595 3.07976 28.8896 3.01976 29.0396H2.99976Z" fill="#716F75"/>
<path d="M30.4199 9.83002C30.4199 9.83002 30.4199 9.89999 30.4199 9.92999C30.3899 9.96999 30.4199 10.02 30.3999 10.07C30.3799 10.15 30.3999 10.22 30.3799 10.3C30.3799 10.31 30.3799 10.33 30.3599 10.34C30.3199 10.4 30.3499 10.47 30.3599 10.53C30.3599 10.55 30.3599 10.56 30.3399 10.57C30.3399 10.65 30.3399 10.73 30.2499 10.79C30.2299 10.67 30.1799 10.58 30.1999 10.46C30.1999 10.44 30.1599 10.47 30.1799 10.46C30.1799 10.46 30.1799 10.46 30.1799 10.47C30.2099 10.71 30.2899 10.95 30.2199 11.2C30.2399 11.2 30.2099 11.2 30.2199 11.18C30.2299 11.17 30.2499 11.16 30.2599 11.17C30.2199 11.59 30.0999 12 29.9799 12.4C29.5299 13.82 28.7899 15.08 27.7499 16.15C26.3499 17.6 24.6599 18.53 22.6699 18.92C22.5899 18.94 22.5099 18.96 22.4199 18.95C22.3499 18.98 22.2699 18.94 22.2099 18.98C21.8499 19.05 21.4799 19.08 21.1199 19.08C20.8099 19.08 20.8099 19.16 20.8099 18.78C20.8099 18.47 20.8099 18.48 21.1199 18.47C22.9499 18.41 24.6099 17.85 26.0899 16.77C27.5399 15.72 28.5799 14.36 29.2199 12.68C29.2199 12.68 29.2299 12.66 29.2399 12.66C29.2999 12.61 29.2899 12.54 29.3099 12.48C29.3099 12.41 29.3399 12.34 29.3799 12.27C29.4399 12.25 29.3899 12.2 29.4099 12.17C29.5099 11.75 29.6199 11.34 29.6899 10.91C29.7699 10.38 29.7999 9.86002 29.7899 9.33002C29.7899 9.30002 29.7899 9.26004 29.7899 9.23004C29.8099 9.14004 29.8099 9.05002 29.7899 8.96002C29.7299 8.58002 29.6999 8.19 29.6199 7.81C29.3699 6.56 28.8799 5.43001 28.1499 4.39001C27.5499 3.54001 26.8099 2.82002 25.9599 2.21002C25.9399 2.20002 25.9299 2.17998 25.9099 2.16998C25.8599 2.08998 25.7799 2.06003 25.6999 2.03003C25.1199 1.68003 24.5299 1.37001 23.8899 1.14001C23.0799 0.850015 22.2599 0.670005 21.3999 0.630005C21.2499 0.630005 21.0999 0.609985 20.9399 0.609985C20.8299 0.609985 20.7999 0.560032 20.8099 0.470032C20.8099 0.310032 20.8099 0.15 20.8099 0H21.1799C21.2999 0.06 21.4199 0.110005 21.5599 0.130005C21.5399 0.130005 21.5099 0.130005 21.4799 0.130005C21.4399 0.110005 21.4299 0.0899878 21.4299 0.0499878C21.4299 0.0299878 21.4399 0.0200098 21.4499 0.0100098H21.5199C21.6099 0.10001 21.7299 0.0300073 21.8399 0.0700073C22.4799 0.120007 23.0999 0.250012 23.6999 0.450012C23.7499 0.490012 23.7999 0.50999 23.8699 0.48999C25.0099 0.86999 26.0499 1.44003 26.9699 2.22003C28.3299 3.36003 29.3199 4.77002 29.8999 6.46002C30.0199 6.81002 30.1299 7.15001 30.1899 7.51001C30.1899 7.73001 30.2199 7.94003 30.2099 8.16003C30.2499 8.52003 30.2599 8.87004 30.2099 9.23004C30.2199 9.41004 30.1899 9.60003 30.2299 9.78003C30.2999 9.93003 30.2499 10.09 30.2399 10.27C30.2699 10.1 30.2399 9.94003 30.2799 9.78003C30.2799 9.62003 30.2799 9.45999 30.2799 9.29999C30.2599 9.45999 30.2799 9.62003 30.2699 9.78003C30.2499 9.80003 30.2399 9.80003 30.2199 9.78003C30.1899 9.61003 30.2199 9.44002 30.2099 9.27002C30.2099 9.21002 30.2099 9.15003 30.2099 9.09003C30.2099 9.07003 30.2299 9.06 30.2499 9.06C30.3099 9.08 30.3399 9.13 30.3499 9.19C30.3599 9.36 30.3499 9.53001 30.3499 9.70001C30.3499 9.74001 30.3299 9.79001 30.3799 9.82001L30.4199 9.83002Z" fill="#0968A9"/>
<path d="M4.97 20.9395C5.79 20.9395 6.61 20.9395 7.43 20.9395C7.57 20.9395 7.63 20.9095 7.62 20.7495C7.61 20.4195 7.61 20.0896 7.62 19.7696C7.62 19.6096 7.57 19.5695 7.42 19.5695C5.16 19.5695 2.89 19.5695 0.629997 19.5695H0C0 19.5095 0 19.4596 0 19.3996C0.06 19.3996 0.109998 19.3996 0.169998 19.3996C2.65 19.3996 5.13 19.3996 7.61 19.3996C7.86 19.3996 7.83 19.3695 7.83 19.6195C7.83 20.0195 7.83 20.4195 7.83 20.8195C7.83 20.9495 7.79 20.9796 7.67 20.9796C6.77 20.9796 5.87 20.9796 4.97 20.9796C4.95 20.9696 4.95 20.9495 4.97 20.9295V20.9395Z" fill="#717173"/>
<path d="M21.4897 0.0494995C21.5097 0.1595 21.5997 0.0995166 21.6497 0.129517C21.5197 0.209517 21.3397 0.169531 21.2197 0.0195312H21.2897C21.3497 0.0595312 21.4297 0.0194995 21.4897 0.0494995Z" fill="#096AA4"/>
<path d="M21.8698 0.0795288C21.7698 0.0595288 21.6398 0.149531 21.5498 0.0195312H21.6198C21.6898 0.0995312 21.7998 0.0195288 21.8698 0.0795288Z" fill="#096AA4"/>
<path d="M21.49 0.0494995C21.42 0.0394995 21.35 0.0795312 21.29 0.0195312H21.49C21.49 0.0195312 21.49 0.0394995 21.49 0.0494995Z" fill="#3F8BC6"/>
<path d="M17.95 24.6702C17.85 24.6902 17.86 24.6102 17.86 24.5502C17.83 24.3102 17.78 24.0703 17.66 23.8503C17.4 23.3603 16.78 23.2903 16.41 23.7003C16.19 23.9503 16.09 24.2603 16.04 24.5803C15.9 25.4703 15.9 26.3503 16.18 27.2103C16.21 27.3003 16.25 27.3903 16.29 27.4703C16.44 27.7303 16.64 27.9003 16.97 27.9003C17.3 27.9003 17.53 27.7403 17.68 27.4703C17.81 27.2503 17.87 27.0002 17.88 26.7402C17.88 26.6202 17.93 26.5903 18.04 26.5903C18.58 26.5903 19.12 26.5903 19.65 26.5903C19.79 26.5903 19.82 26.6303 19.81 26.7703C19.77 28.0303 18.82 29.0402 17.56 29.1802C17.02 29.2402 16.5 29.2203 15.98 29.0903C15.11 28.8603 14.56 28.2703 14.21 27.4703C14.11 27.2503 14.03 27.0203 14 26.7703C14.14 26.2303 14.04 25.6702 14.08 25.1302C14.09 24.9402 14.01 24.7803 14 24.6003C14.16 23.7803 14.56 23.1002 15.28 22.6702C16.31 22.0602 17.39 21.9903 18.47 22.5103C19.14 22.8303 19.56 23.3802 19.71 24.1102C19.68 24.1602 19.65 24.2203 19.63 24.2803C19.54 24.5103 19.54 24.5103 19.3 24.5103C18.94 24.5103 18.58 24.5103 18.22 24.5103C18.09 24.5103 17.99 24.5403 17.93 24.6603L17.95 24.6702Z" fill="#717075"/>
<path d="M36.9802 20.9596C37.5502 20.7496 38.1202 20.5296 38.7102 20.3096V22.3296C38.6502 22.4696 38.6602 22.4996 38.8002 22.5096C39.2502 22.5296 39.6902 22.5096 40.1402 22.5096C40.2002 22.5096 40.2502 22.4996 40.3102 22.5196C40.3102 22.8496 40.3102 23.1896 40.3102 23.5196C40.3102 23.6396 40.2502 23.6396 40.1602 23.6396C39.7202 23.6396 39.2902 23.6396 38.8502 23.6396C38.7402 23.6396 38.7002 23.6496 38.7002 23.7696C38.7002 24.7896 38.7002 25.8196 38.7002 26.8396C38.7002 26.9396 38.7002 27.0396 38.7202 27.1396C38.7702 27.4796 39.0002 27.6696 39.3802 27.6896C39.6302 27.6996 39.8802 27.6896 40.1202 27.6696C40.2202 27.6696 40.2602 27.6696 40.2502 27.7896C40.2502 28.1396 40.2502 28.4796 40.2502 28.8296C40.2502 28.8896 40.2502 28.9496 40.1702 28.9696C39.4202 29.1396 38.6602 29.2496 37.9002 29.0596C37.3602 28.9296 36.9602 28.6296 36.8202 28.0596C36.8202 27.9196 36.7802 27.7696 36.8802 27.6296C36.9102 27.5996 36.9002 27.5396 36.9002 27.4996C36.9002 26.3096 36.9002 25.1096 36.9002 23.9196C36.9002 23.7896 36.8602 23.6996 36.7502 23.6496C36.3802 23.6496 36.0002 23.6496 35.6302 23.6496C35.4802 23.6496 35.4502 23.5996 35.4502 23.4696C35.4502 23.1396 35.4502 22.8096 35.4502 22.4896C35.4502 22.3796 35.4802 22.3296 35.5902 22.3596C35.6502 22.4896 35.7402 22.5196 35.8802 22.5096C36.1602 22.5096 36.4402 22.5096 36.7302 22.5096C36.8502 22.5096 36.9002 22.4596 36.9002 22.3396C36.9002 21.9596 36.9002 21.5796 36.9002 21.2096C36.9002 21.1296 36.9002 21.0396 36.9502 20.9696L36.9802 20.9596Z" fill="#717075"/>
<path d="M54.1099 28.8204C54.1099 28.7504 54.1099 28.6804 54.1099 28.6204C54.1099 25.6104 54.1099 22.6004 54.1099 19.5904C54.1099 19.4404 54.1499 19.4004 54.2999 19.4004C54.8399 19.4004 55.3899 19.4004 55.9299 19.4004C56.0599 19.4004 56.0899 19.4304 56.0899 19.5604C56.0899 22.6704 56.0899 25.7704 56.0899 28.8804C56.0899 28.9304 56.1099 28.9804 56.0599 29.0204C55.9999 28.8904 55.8899 28.8704 55.7499 28.8704C55.2899 28.8704 54.8199 28.8704 54.3599 28.8704C54.2799 28.8704 54.1899 28.8704 54.1199 28.8204H54.1099Z" fill="#717075"/>
<path d="M41.6403 23.3805C41.6203 23.0505 41.5903 22.7305 41.5703 22.4005C41.5703 22.3105 41.5903 22.2805 41.6803 22.2805C42.2103 22.2805 42.7403 22.2805 43.2803 22.2805C43.3803 22.2805 43.4103 22.3205 43.4103 22.4105C43.4103 22.7205 43.4303 23.0305 43.4403 23.3405C43.4403 23.3905 43.4203 23.4505 43.4703 23.5205C43.5503 23.3805 43.6203 23.2404 43.7003 23.1104C44.0303 22.6104 44.5203 22.3705 45.1003 22.2905C45.2703 22.2705 45.4503 22.2505 45.6203 22.2605C45.7003 22.2605 45.7403 22.2805 45.7403 22.3705C45.7403 22.8805 45.7403 23.3905 45.7403 23.9005C45.7403 24.0005 45.7103 24.0205 45.6103 24.0205C45.4003 24.0205 45.1903 24.0105 44.9803 24.0205C44.0603 24.0905 43.6103 24.5705 43.6003 25.4905C43.6003 26.5205 43.6003 27.5505 43.6003 28.5805C43.6003 28.7005 43.6003 28.8205 43.6003 28.9405C43.6003 29.0105 43.6003 29.0704 43.5003 29.0504C43.4403 28.8904 43.3203 28.8705 43.1603 28.8705C42.8303 28.8705 42.4903 28.8705 42.1603 28.8705C41.8403 28.8705 41.8103 28.8505 41.8103 28.5305C41.8103 27.0205 41.8103 25.5005 41.8103 23.9905C41.8103 23.9005 41.8103 23.8105 41.8103 23.7205C41.8203 23.5705 41.7903 23.4405 41.6303 23.3905L41.6403 23.3805Z" fill="#717075"/>
<path d="M21.9599 17.5396C21.8599 17.5896 21.7399 17.5696 21.6399 17.5796C21.5099 17.6196 21.3799 17.5696 21.2499 17.6096C21.2399 17.6096 21.2299 17.6096 21.2199 17.6096C20.8299 17.6296 20.8399 17.6296 20.8399 17.2496C20.8399 17.1296 20.8799 17.0896 20.9999 17.0996C21.3799 17.1296 21.7699 17.0796 22.1399 17.0096C22.6599 16.9196 23.1699 16.7696 23.6599 16.5696C24.7499 16.1196 25.6899 15.4796 26.4799 14.5996C27.3699 13.6096 27.9599 12.4696 28.2499 11.1696C28.2499 11.1296 28.2699 11.0796 28.2899 11.0396C28.3899 10.9596 28.3099 10.8496 28.3499 10.7596C28.4099 10.2396 28.4499 9.70957 28.4199 9.17957C28.4199 9.06957 28.4099 8.96956 28.3999 8.85956C28.3999 8.79956 28.4099 8.74958 28.3899 8.68958C28.3699 8.57958 28.3399 8.46962 28.3499 8.34962C28.3099 8.28962 28.3699 8.2096 28.3099 8.1496C28.1799 7.6196 28.0499 7.0796 27.8199 6.5796C26.7099 4.1696 24.8699 2.66958 22.2599 2.12958C21.8299 2.03958 21.3899 2.00957 20.9499 1.98957C20.8999 1.98957 20.8599 1.94959 20.8499 1.88959C20.8299 1.47959 20.8299 1.46962 21.2399 1.47962C21.9699 1.49962 22.6899 1.62956 23.3799 1.85956C24.3299 2.16956 25.1999 2.6396 25.9699 3.2696C26.9199 4.0496 27.6599 4.9796 28.1899 6.0796C28.2099 6.1196 28.2199 6.14958 28.2299 6.18958C28.2599 6.25958 28.2299 6.3596 28.3299 6.3996C28.5299 6.8796 28.6799 7.37959 28.7899 7.88959C28.9099 8.44959 28.9699 8.99958 28.9599 9.55958C28.9399 11.6596 28.2099 13.4796 26.7899 15.0296C26.0999 15.7796 25.2799 16.3696 24.3599 16.8096C23.7099 17.1196 23.0399 17.3296 22.3399 17.4696C22.2999 17.4696 22.2599 17.4696 22.2199 17.4696C22.1399 17.5096 22.0499 17.4596 21.9799 17.4996L21.9599 17.5396Z" fill="#0868AA"/>
<path d="M27.6398 9.52024C27.6598 12.5002 25.7198 15.1503 22.8298 16.0303C22.2298 16.2103 21.6198 16.3002 20.9998 16.3202C20.8798 16.3202 20.8398 16.3003 20.8398 16.1603C20.8398 15.8703 20.8399 15.8802 21.1199 15.8702C22.4899 15.8102 23.7199 15.3602 24.7999 14.5102C25.9099 13.6302 26.6598 12.5102 26.9998 11.1402C27.5498 8.87024 27.0199 6.86026 25.4099 5.16026C24.4399 4.13026 23.2298 3.54022 21.8398 3.31022C21.5498 3.26022 21.2598 3.25021 20.9598 3.24021C20.8698 3.24021 20.8498 3.21022 20.8498 3.12022C20.8598 2.73022 20.7999 2.79021 21.1199 2.80021C21.8999 2.83021 22.6599 2.97024 23.3699 3.27024C25.5599 4.19024 26.9398 5.81022 27.4998 8.12022C27.6098 8.59022 27.6598 9.06023 27.6498 9.51023L27.6398 9.52024Z" fill="#018653"/>
<path d="M26.3801 9.54999C26.4101 11.75 25.0801 13.77 23.0601 14.62C22.4101 14.9 21.7301 15.05 21.0201 15.06C20.8801 15.06 20.8501 15.01 20.8501 14.89C20.8501 14.76 20.8701 14.72 21.0201 14.71C23.4801 14.67 25.6201 12.82 25.9901 10.39C26.3201 8.27001 25.3701 6.22 23.5601 5.13C22.7801 4.66 21.9301 4.42001 21.0101 4.39001C20.8401 4.39001 20.8601 4.3 20.8501 4.19C20.8401 4.05 20.9101 4.04004 21.0201 4.04004C22.3501 4.09004 23.5201 4.54003 24.5101 5.41003C25.6001 6.36003 26.2001 7.58001 26.3701 9.01001C26.3901 9.18001 26.3701 9.36004 26.3701 9.54004L26.3801 9.54999Z" fill="#6EB33E"/>
<path d="M24.8901 9.5498C24.8901 7.5498 23.3801 5.83984 21.4001 5.58984C21.2701 5.56984 21.1301 5.56982 20.9901 5.56982C20.8801 5.56982 20.8501 5.5198 20.8501 5.4198C20.8501 5.2998 20.9201 5.2998 21.0101 5.2998C21.9001 5.3198 22.7001 5.58981 23.4101 6.11981C24.4301 6.87981 25.0101 7.8898 25.1401 9.1698C25.3601 11.4498 23.7101 13.5099 21.4301 13.7899C21.2801 13.8099 21.1401 13.8198 20.9901 13.8298C20.9101 13.8298 20.8501 13.8298 20.8601 13.7098C20.8601 13.6098 20.8701 13.5598 21.0001 13.5498C22.0101 13.5198 22.8801 13.1698 23.6301 12.4898C24.4501 11.7498 24.9101 10.6798 24.9101 9.5498H24.8901Z" fill="#6DB33E"/>
<path d="M41.6398 23.3801C41.7998 23.3801 41.8798 23.4601 41.8798 23.6201C41.8798 25.2801 41.8798 26.9501 41.8798 28.6101C41.8798 28.7701 41.9198 28.8301 42.0798 28.8201C42.4798 28.8101 42.8798 28.8201 43.2898 28.8201C43.4364 28.8201 43.5098 28.8968 43.5098 29.0501C42.9298 29.0501 42.3598 29.0501 41.7798 29.0501C41.6298 29.0501 41.6398 28.9701 41.6398 28.8701C41.6398 27.6401 41.6398 26.4101 41.6398 25.1701C41.6398 24.5701 41.6398 23.9701 41.6398 23.3701V23.3801Z" fill="#717173"/>
<path d="M4.97 20.9404C4.97 20.9404 4.97 20.9704 4.97 20.9904C4.93 21.0604 4.97 21.1404 4.97 21.2104C4.97 23.7004 4.97 26.2004 4.97 28.6904C4.97 29.0604 4.97 29.0604 4.59 29.0604C4.06 29.0604 3.53 29.0604 3 29.0604C3 28.9071 3.07667 28.8304 3.23 28.8304C3.71 28.8304 4.19 28.8304 4.67 28.8304C4.82333 28.8304 4.9 28.7538 4.9 28.6005C4.9 26.1705 4.9 23.7404 4.9 21.3004C4.9 21.1804 4.85 21.0404 4.97 20.9404Z" fill="#717173"/>
<path d="M36.77 23.6604C36.96 23.6204 36.97 23.7104 36.97 23.8804C36.99 25.0804 36.97 26.2904 36.97 27.4904C36.97 27.5804 36.99 27.6804 36.89 27.7604C36.81 27.8204 36.91 27.9704 36.84 28.0604C36.78 27.9504 36.77 27.8404 36.77 27.7204C36.77 26.3604 36.77 25.0004 36.77 23.6504V23.6604Z" fill="#717173"/>
<path d="M36.9798 20.9602C36.9798 21.4602 36.9798 21.9602 36.9798 22.4602C36.9798 22.5302 36.9698 22.5602 36.8898 22.5602C36.5398 22.5602 36.1798 22.5602 35.8298 22.5602C35.6698 22.5602 35.5998 22.5102 35.6298 22.3502C35.9598 22.3502 36.2998 22.3402 36.6298 22.3502C36.7498 22.3502 36.7798 22.3102 36.7798 22.2002C36.7798 21.8102 36.7598 21.4202 36.7898 21.0302C36.8398 21.0102 36.8998 21.0102 36.9498 20.9702C36.9598 20.9702 36.9698 20.9602 36.9798 20.9502V20.9602Z" fill="#717173"/>
<path d="M54.1099 28.8203C54.6899 28.8203 55.2699 28.8203 55.8499 28.8203C56.0199 28.8203 56.0799 28.8703 56.0499 29.0303C55.9999 29.0903 55.9299 29.0603 55.8699 29.0603C55.3599 29.0603 54.8399 29.0603 54.3299 29.0603C54.1699 29.0603 54.0966 28.9803 54.1099 28.8203Z" fill="#717173"/>
<path d="M14.0198 24.6104C14.1998 24.8204 14.1398 25.0804 14.1498 25.3204C14.1498 25.5904 14.1498 25.8504 14.1498 26.1204C14.1498 26.3504 14.1898 26.5804 14.0198 26.7804C13.9498 26.6104 13.9498 26.4204 13.9298 26.2404C13.8798 25.7004 13.8798 25.1504 14.0198 24.6204V24.6104Z" fill="#717173"/>
<path d="M17.9501 24.6703C17.9201 24.5103 17.9901 24.4604 18.1501 24.4604C18.5701 24.4704 19.0001 24.4604 19.4201 24.4604C19.5301 24.4604 19.6001 24.4304 19.5801 24.3104C19.5601 24.1904 19.6801 24.1804 19.7301 24.1104C19.7501 24.2604 19.7701 24.4004 19.7901 24.5504C19.8001 24.6304 19.7801 24.6703 19.6801 24.6703C19.1001 24.6703 18.5301 24.6703 17.9501 24.6703Z" fill="#717173"/>
<path d="M40.3199 22.5296C40.3199 22.5296 40.2299 22.5596 40.1899 22.5596C39.6999 22.5596 39.2099 22.5695 38.7199 22.5495C38.5699 22.5495 38.6399 22.4496 38.6299 22.3896C38.6199 22.3096 38.6598 22.2896 38.7298 22.3296C38.7798 22.3796 38.8499 22.3595 38.9099 22.3595C39.3299 22.3595 39.7498 22.3595 40.1698 22.3595C40.3098 22.3595 40.3699 22.3996 40.3299 22.5396L40.3199 22.5296Z" fill="#717173"/>
<path d="M30.1902 8.17023C30.2102 7.96023 30.1602 7.74027 30.2202 7.53027C30.2302 7.58027 30.2402 7.62023 30.2502 7.67023C30.2302 7.80023 30.2802 7.92023 30.2502 8.05023C30.2502 8.08023 30.2502 8.08023 30.2502 8.05023C30.2902 7.95023 30.3002 8.02025 30.3102 8.07025C30.3102 8.11025 30.3002 8.15024 30.3302 8.18024C30.3802 8.36024 30.4102 8.54028 30.4002 8.72028C30.3702 8.89028 30.4402 9.06029 30.4302 9.23029C30.4302 9.24029 30.4302 9.25025 30.4302 9.26025C30.4002 9.44025 30.4002 9.62023 30.4302 9.80023V9.83026C30.4302 9.83026 30.3602 9.89023 30.3602 9.80023C30.3602 9.59023 30.3602 9.39024 30.3602 9.18024C30.3302 9.15024 30.3602 9.08026 30.2902 9.08026C30.2802 9.08026 30.2702 9.08026 30.2602 9.08026C30.2202 8.93026 30.2502 8.78025 30.2502 8.63025C30.2502 8.47025 30.2302 8.32023 30.2002 8.17023H30.1902Z" fill="#0C69AC"/>
<path d="M30.2899 11.1901C30.2899 11.1901 30.26 11.2302 30.22 11.2902C30.23 10.9802 30.22 10.6902 30.21 10.4102C30.23 10.5202 30.2499 10.6401 30.2599 10.7501C30.3899 10.7201 30.23 10.5701 30.35 10.5501C30.38 10.5801 30.3599 10.6201 30.3699 10.6501C30.3399 10.8301 30.35 11.0201 30.28 11.2001L30.2899 11.1901Z" fill="#0C69AC"/>
<path d="M30.3298 8.1701C30.2698 8.1401 30.3098 8.07015 30.2798 8.03015C30.2698 8.06015 30.2598 8.08016 30.2498 8.10016C30.2498 7.95016 30.1998 7.81016 30.2498 7.66016C30.2798 7.83016 30.3398 7.9901 30.3298 8.1701Z" fill="#0968A9"/>
<path d="M30.4201 9.21997C30.3601 9.09997 30.4001 8.94995 30.3201 8.81995C30.3001 8.77995 30.3101 8.71996 30.3801 8.70996C30.4301 8.87996 30.4201 9.04997 30.4101 9.21997H30.4201Z" fill="#046BA4"/>
<path d="M30.4198 9.79974C30.3698 9.61974 30.3698 9.43977 30.4198 9.25977C30.4198 9.43977 30.4198 9.61974 30.4198 9.79974Z" fill="#046BA4"/>
<path d="M28.3498 10.7695C28.3598 10.8195 28.3798 10.8795 28.3898 10.9295C28.3998 10.9995 28.3898 11.0595 28.2998 11.0495C28.3098 10.9495 28.3198 10.8595 28.3598 10.7695H28.3498Z" fill="#0C6CA5"/>
<path d="M21.25 17.6101C21.38 17.5501 21.51 17.5901 21.64 17.5801C21.51 17.6401 21.38 17.6001 21.25 17.6101Z" fill="#14679E"/>
<path d="M28.3202 6.44043C28.1502 6.43043 28.2402 6.30047 28.2202 6.23047C28.2702 6.29047 28.2902 6.37043 28.3202 6.44043Z" fill="#1B6DA5"/>
<path d="M30.3601 10.3403C30.3701 10.2503 30.3301 10.1503 30.3901 10.0703C30.4301 10.1303 30.3901 10.2103 30.4101 10.2703C30.4101 10.3003 30.4101 10.3203 30.3901 10.3403C30.3801 10.3503 30.3601 10.3503 30.3501 10.3403H30.3601Z" fill="#0C69AC"/>
<path d="M30.4102 10.2697C30.3702 10.2097 30.4002 10.1397 30.3902 10.0697C30.3902 10.0197 30.3802 9.96969 30.4202 9.92969C30.4202 10.0397 30.4202 10.1497 30.4202 10.2697H30.4102Z" fill="#0868A0"/>
<path d="M25.73 2.0498C25.83 2.0498 25.92 2.05982 25.94 2.18982C25.86 2.15982 25.79 2.1098 25.73 2.0498Z" fill="#18679D"/>
<path d="M30.3599 10.3398C30.3599 10.3398 30.3899 10.3398 30.3999 10.3398C30.3999 10.4398 30.3899 10.5398 30.3799 10.6398C30.3799 10.6098 30.3699 10.5699 30.3599 10.5399C30.3599 10.5299 30.3599 10.5198 30.3599 10.5098C30.3299 10.4498 30.3199 10.3998 30.3599 10.3398Z" fill="#17659D"/>
<path d="M22.2402 18.9998C22.2402 18.9998 22.1702 18.9798 22.2202 18.9698C22.2902 18.9498 22.3702 18.9698 22.4502 18.9698C22.3902 19.0198 22.3102 18.9998 22.2402 18.9998Z" fill="#15669C"/>
<path d="M29.8203 8.98047C29.8703 9.07047 29.8703 9.16043 29.8203 9.25043C29.8203 9.16043 29.8203 9.07047 29.8203 8.98047Z" fill="#0E689D"/>
<path d="M21.96 17.54C22.03 17.47 22.12 17.52 22.2 17.51C22.12 17.56 22.04 17.54 21.96 17.54Z" fill="#116A9C"/>
<path d="M29.3298 12.5098C29.3298 12.5798 29.3498 12.6498 29.2598 12.6898C29.2598 12.6198 29.2898 12.5698 29.3298 12.5098Z" fill="#1A6C9B"/>
<path d="M36.95 20.9805C36.91 21.0505 36.85 21.0405 36.79 21.0405C36.84 21.0005 36.89 20.9805 36.95 20.9805Z" fill="#717075"/>
<path d="M28.3101 8.16992C28.3801 8.22992 28.3401 8.30993 28.3501 8.36993C28.3001 8.30993 28.3201 8.22992 28.3101 8.16992Z" fill="#1D6B9A"/>
<path d="M23.9 0.499939C23.83 0.539939 23.77 0.529961 23.73 0.459961C23.79 0.469961 23.84 0.489939 23.9 0.499939Z" fill="#1C6699"/>
<path d="M29.4402 12.2002C29.4402 12.2002 29.5002 12.3002 29.4102 12.3002C29.4102 12.2602 29.4102 12.2202 29.4402 12.2002Z" fill="#21689C"/>
<path d="M28.3899 8.70996C28.4399 8.75996 28.4199 8.81994 28.3999 8.87994C28.3799 8.82994 28.3799 8.76996 28.3899 8.70996Z" fill="#126595"/>
<path d="M20.8498 1.91992C20.8498 1.91992 20.9098 1.97996 20.9498 2.01996C20.8698 2.03996 20.8298 2.00992 20.8498 1.91992Z" fill="#226899"/>
<path d="M30.1899 8.16992C30.2899 8.34992 30.2499 8.53998 30.2599 8.72998C30.2599 8.84998 30.2599 8.96997 30.2599 9.08997C30.2599 9.14997 30.2599 9.19995 30.2599 9.25995C30.2499 9.27995 30.2399 9.27995 30.2299 9.25995C30.2299 8.89995 30.2399 8.52992 30.1999 8.16992H30.1899Z" fill="#0469A3"/>
<path d="M30.26 9.80016C30.26 9.80016 30.28 9.80016 30.29 9.80016C30.3 9.78016 30.31 9.78016 30.32 9.80016C30.32 9.97016 30.34 10.1402 30.25 10.3402V9.80016H30.26Z" fill="#0C69AC"/>
<path d="M30.3201 9.7998C30.3201 9.7998 30.3 9.7998 30.29 9.7998C30.29 9.6298 30.29 9.4698 30.29 9.2998C30.3 9.2998 30.3101 9.2998 30.3201 9.2998V9.7998Z" fill="#046BA4"/>
<path d="M30.22 9.25C30.22 9.25 30.24 9.25 30.25 9.25C30.25 9.43 30.25 9.61004 30.25 9.79004C30.18 9.61004 30.23 9.43 30.22 9.25Z" fill="#0C69AC"/>
<path d="M23.9202 18.1996C23.8102 18.2396 23.7502 18.1996 23.6802 18.1396C23.7502 18.1596 23.8202 18.1796 23.9202 18.1996Z" fill="#076AA1"/>
<path d="M30.2898 9.08002C30.2898 9.08002 30.2798 9 30.3198 9C30.3598 9 30.3498 9.04 30.3498 9.06C30.3498 9.1 30.3498 9.13999 30.3498 9.17999C30.3298 9.14999 30.3098 9.11002 30.2798 9.08002H30.2898Z" fill="#046BA4"/>
<path d="M30.36 10.3398C30.36 10.3998 30.36 10.4498 30.36 10.5098C30.31 10.4498 30.26 10.3998 30.36 10.3398Z" fill="#0C69AC"/>
<path d="M27.5899 24.2604C27.4499 23.6904 27.1699 23.1904 26.7199 22.8004C26.0599 22.2404 25.2899 22.1104 24.4599 22.2304C23.9099 22.3104 23.4499 22.5604 23.0899 23.0004C23.0299 23.0704 22.9999 23.1704 22.8899 23.2304C22.8699 22.9704 22.8499 22.7304 22.8499 22.4904C22.8499 22.3404 22.7899 22.3204 22.6599 22.3204C22.2199 22.3204 21.7899 22.3204 21.3499 22.3204C20.9099 22.3204 20.9199 22.3204 20.9199 22.7504C20.9199 25.6504 20.9199 28.5504 20.9199 31.4404C20.9199 31.5804 20.9399 31.6404 21.0999 31.6304C21.6499 31.6204 22.2099 31.6304 22.7599 31.6304C22.8999 31.6304 22.9199 31.5904 22.9199 31.4604C22.9199 30.4604 22.9199 29.4704 22.9199 28.4704C22.9199 28.4204 22.8999 28.3604 22.9399 28.3104C22.9899 28.3004 22.9999 28.3304 23.0199 28.3604C23.4899 28.9304 24.1199 29.1404 24.8299 29.1304C26.0099 29.1104 26.8499 28.5404 27.3399 27.4804C27.8199 26.4404 27.8599 25.3504 27.5799 24.2504L27.5899 24.2604ZM25.5299 26.9704C25.0999 28.0904 23.9199 28.0304 23.3899 27.5204C23.0699 27.2104 22.9499 26.8204 22.8799 26.4004C22.8399 26.1804 22.8399 25.9604 22.8399 25.8304C22.8399 25.1504 22.9099 24.5704 23.2499 24.0604C23.6399 23.4704 24.4199 23.2704 24.9899 23.6004C25.2699 23.7604 25.4499 24.0204 25.5499 24.3204C25.8499 25.2004 25.8599 26.1004 25.5299 26.9704Z" fill="#717075"/>
<path d="M34.8701 24.4397C34.7101 23.8197 34.4201 23.2597 33.9301 22.8197C33.3001 22.2597 32.5501 22.0497 31.7301 22.0897C30.4401 22.1597 29.4501 22.7397 28.9301 23.9597C28.4601 25.0897 28.4501 26.2697 28.8301 27.4297C29.0801 28.1897 29.5802 28.7597 30.3502 29.0397C31.4002 29.4197 32.4501 29.4097 33.4801 28.9797C34.2601 28.6497 34.6901 28.0297 34.8101 27.1897C34.8201 27.0997 34.8101 27.0497 34.7001 27.0497C34.1901 27.0497 33.6801 27.0497 33.1701 27.0497C33.0801 27.0497 33.0401 27.0697 33.0101 27.1597C32.9601 27.3297 32.8902 27.4897 32.7702 27.6197C32.4202 28.0097 31.9702 28.0397 31.4902 27.9597C31.1002 27.8897 30.8302 27.6597 30.6602 27.2997C30.5102 26.9897 30.4901 26.6597 30.4701 26.3297C30.4701 26.1997 30.5002 26.1697 30.6302 26.1697C31.3302 26.1697 32.0302 26.1697 32.7402 26.1697C33.4502 26.1697 34.1601 26.1697 34.8601 26.1697C34.9501 26.1697 35.0102 26.1697 35.0202 26.0497C35.0402 25.5097 35.0201 24.9597 34.8701 24.4397ZM32.8601 24.9497C32.4901 24.9497 32.1201 24.9497 31.7601 24.9497C31.4301 24.9497 31.0901 24.9497 30.7601 24.9497C30.6001 24.9497 30.5402 24.9297 30.5702 24.7497C30.6202 24.4097 30.7101 24.0797 30.9301 23.8197C31.2601 23.4397 31.6902 23.3497 32.1602 23.4697C32.6302 23.5897 32.8501 23.9497 32.9501 24.3897C32.9801 24.5197 32.9801 24.6597 33.0001 24.7897C33.0201 24.9097 33.0001 24.9497 32.8701 24.9397L32.8601 24.9497Z" fill="#717075"/>
<path d="M12.8399 24.4699C12.6399 23.6899 12.2599 23.0198 11.5699 22.5698C10.9999 22.1998 10.3699 22.0599 9.68992 22.0899C8.36992 22.1499 7.24992 22.8699 6.80992 24.1999C6.47992 25.1999 6.45992 26.2198 6.73992 27.2398C6.94992 28.0098 7.38992 28.6299 8.13992 28.9599C9.24992 29.4399 10.3899 29.4399 11.4999 28.9599C12.2399 28.6399 12.6499 28.0298 12.7799 27.2398C12.7999 27.1098 12.7799 27.0498 12.6299 27.0498C12.1399 27.0498 11.6599 27.0498 11.1699 27.0498C11.0599 27.0498 11.0099 27.0798 10.9799 27.1898C10.8199 27.6998 10.4599 27.9598 9.92992 27.9998C9.23992 28.0498 8.70992 27.6899 8.53992 27.0199C8.47992 26.7899 8.45992 26.5498 8.44992 26.3198C8.44992 26.1998 8.48992 26.1698 8.59992 26.1698C9.30992 26.1698 10.0199 26.1698 10.7199 26.1698C11.4299 26.1698 12.1399 26.1698 12.8399 26.1698C12.9499 26.1698 12.9799 26.1499 12.9899 26.0299C13.0099 25.4999 12.9799 24.9799 12.8499 24.4599L12.8399 24.4699ZM10.8499 24.9398C10.4799 24.9398 10.0999 24.9398 9.72992 24.9398C9.39992 24.9398 9.05992 24.9398 8.72992 24.9398C8.58992 24.9398 8.52659 24.8699 8.53992 24.7299C8.57992 24.3699 8.68992 24.0499 8.92992 23.7799C9.36992 23.2699 10.4799 23.2498 10.8199 24.0698C10.9299 24.3198 10.9599 24.5898 10.9799 24.8598C10.9799 24.9598 10.9199 24.9499 10.8599 24.9499L10.8499 24.9398Z" fill="#717075"/>
<path d="M52.8899 24.3904C52.6499 23.5904 52.1799 22.9704 51.4399 22.5704C50.8599 22.2604 50.2399 22.1504 49.5899 22.1504C49.4799 22.1504 49.3599 22.1503 49.2499 22.1703C49.1399 22.1703 49.0199 22.1904 48.9099 22.2004C47.7699 22.3704 46.92 22.9504 46.46 24.0204C46.06 24.9304 46.0099 25.8804 46.2499 26.8404C46.4899 27.8304 47.0699 28.5604 48.0099 28.9804C48.6699 29.2704 49.3699 29.3404 50.0899 29.2504C51.2999 29.1004 52.2299 28.5304 52.7399 27.4004C53.1799 26.4204 53.2099 25.4104 52.8999 24.3904H52.8899ZM50.8799 27.0404C50.6399 27.6704 50.22 27.9604 49.57 27.9404C48.9 27.9204 48.4499 27.6004 48.2699 26.9504C48.0399 26.1104 48.0299 25.2604 48.2899 24.4304C48.6099 23.4104 49.9 23.1104 50.6 23.8804C50.85 24.1504 50.9499 24.4904 51.0099 24.8504C51.0499 25.1104 51.07 25.3704 51.07 25.6504C51.05 26.1004 51.0399 26.5804 50.8699 27.0404H50.8799Z" fill="#717075"/>
</svg>
