<svg width="90" height="26" viewBox="0 0 90 26" fill="none" xmlns="http://www.w3.org/2000/svg">
<path d="M22.2 22.4C22.1 23.5 21.1 24.7 20 25C19.7 25.1 19.4 25.1 19.2 25.1C13.8 25.1 8.40004 25.1 3.10004 25.1C1.50004 25.1 0.2 24 0 22.5C0 22.4 0 22.3 0 22.2C0 15.8 0 9.50001 0 3.10001C0 1.70001 1.10002 0.399982 2.40002 0.199982C2.60002 0.199982 2.8 0.100006 3 0.100006C5 0.100006 7.00004 0.100006 9.10004 0.100006C9.20004 0.100006 9.30005 0.100006 9.30005 0.100006C9.80005 0.200006 10 0.600006 10 1.10001C10 1.20001 10 1.29999 10 1.39999C10 6.29999 10 11.3 10 16.2C10 16.3 10 16.4 10 16.5C10 16.7 9.80004 16.9 9.60004 16.9C9.50004 16.9 9.30001 16.9 9.20001 16.9C6.80001 16.9 4.4 16.9 2 16.9C1.6 16.9 1.50001 17 1.70001 17.4C3.20001 21.9 7.8 24.8 12.5 24.1C16.5 23.5 19.2 21.2 20.6 17.4C20.8 17 20.7 16.9 20.3 16.9C17.9 16.9 15.5 16.9 13.1 16.9C13 16.9 12.8 16.9 12.7 16.9C12.5 16.9 12.3 16.7 12.3 16.5C12.3 16.4 12.3 16.2 12.3 16.1C12.3 11.2 12.3 6.29999 12.3 1.39999C12.3 1.29999 12.3 1.1 12.3 1C12.3 0.5 12.5 0.2 13 0C15 0 17 0 19 0C19.3 0 19.6 0 19.8 0C21 0.2 22.2 1.40001 22.2 2.60001V2.69998C22.2 8.99998 22.2 15.3 22.2 21.6C22.2 22 22.2 22.2 22.2 22.4Z" fill="#FE0132"/>
<path d="M12.9 0.0996094C12.4 0.199609 12.2 0.599609 12.2 1.09961C12.2 1.19961 12.2 1.3996 12.2 1.4996C12.2 6.3996 12.2 11.2996 12.2 16.1996C12.2 16.2996 12.2 16.4996 12.2 16.5996C12.2 16.7996 12.4 16.9996 12.6 16.9996C12.7 16.9996 12.9 16.9996 13 16.9996C15.4 16.9996 17.8 16.9996 20.2 16.9996C20.6 16.9996 20.7 17.0996 20.5 17.4996C19.1 21.2996 16.4 23.5996 12.4 24.1996C7.69998 24.8996 3.09999 21.9996 1.59999 17.4996C1.49999 17.0996 1.49998 16.9996 1.89998 16.9996C4.29998 16.9996 6.69999 16.9996 9.09999 16.9996C9.19999 16.9996 9.39996 16.9996 9.49996 16.9996C9.69996 16.9996 9.89998 16.7996 9.89998 16.5996C9.89998 16.4996 9.89998 16.3996 9.89998 16.2996C9.89998 11.3996 9.89998 6.3996 9.89998 1.4996C9.89998 1.3996 9.89998 1.29958 9.89998 1.19958C9.89998 0.699585 9.69997 0.299585 9.19997 0.199585C10.4 0.099585 11.7 0.0996094 12.9 0.0996094Z" fill="#FEFDFD"/>
<path d="M75.9997 11.1999C76.3997 10.7999 76.7997 10.4999 77.1997 10.2999C78.5997 9.69992 79.8997 9.69993 81.1997 10.3999C81.5997 10.5999 81.7997 10.8999 82.0997 11.1999C82.1997 11.2999 82.2997 11.3999 82.3997 11.1999C83.6997 9.69992 86.0997 9.49992 87.6997 10.1999C88.6997 10.5999 89.1997 11.3999 89.4997 12.2999C89.6997 12.7999 89.6997 13.2999 89.6997 13.8999C89.6997 15.6999 89.6997 17.3999 89.6997 19.1999C89.6997 19.3999 89.6997 19.4999 89.3997 19.4999C88.8997 19.4999 88.2997 19.4999 87.7997 19.4999C87.5997 19.4999 87.4997 19.3999 87.4997 19.1999C87.4997 17.5999 87.4997 16.0999 87.4997 14.4999C87.4997 14.0999 87.4997 13.7999 87.3997 13.3999C87.1997 12.4999 86.4997 11.8999 85.4997 11.8999C83.8997 11.7999 82.9997 12.7999 82.8997 14.1999C82.8997 14.3999 82.8997 14.6999 82.8997 14.8999C82.8997 16.2999 82.8997 17.7999 82.8997 19.1999C82.8997 19.3999 82.8997 19.4999 82.5997 19.4999C81.9997 19.4999 81.4997 19.4999 80.8997 19.4999C80.6997 19.4999 80.5997 19.3999 80.5997 19.1999C80.5997 17.5999 80.5997 15.9999 80.5997 14.3999C80.5997 13.8999 80.5997 13.4999 80.3997 13.0999C80.0997 12.2999 79.4997 11.8999 78.6997 11.8999C78.0997 11.8999 77.4997 11.8999 76.9997 12.2999C76.3997 12.6999 76.0997 13.3999 75.9997 14.0999C75.9997 14.3999 75.8997 14.7999 75.8997 15.0999C75.8997 16.4999 75.8997 17.8999 75.8997 19.2999C75.8997 19.4999 75.7997 19.5999 75.5997 19.5999C74.9997 19.5999 74.4997 19.5999 73.8997 19.5999C73.6997 19.5999 73.6997 19.4999 73.6997 19.3999C73.6997 16.3999 73.6997 13.3999 73.6997 10.3999C73.6997 10.1999 73.7997 10.1999 73.8997 10.1999C74.4997 10.1999 74.9997 10.1999 75.5997 10.1999C75.7997 10.1999 75.7997 10.2999 75.7997 10.3999C75.9997 10.5999 75.9997 10.8999 75.9997 11.1999Z" fill="#3B4A5B"/>
<path d="M51.4997 11.2004C51.4997 11.1004 51.4997 11.0004 51.4997 10.9004C51.4997 9.50039 51.4997 8.10038 51.4997 6.70038C51.4997 6.50038 51.4997 6.40039 51.7997 6.40039C52.3997 6.40039 52.8997 6.40039 53.4997 6.40039C53.6997 6.40039 53.7997 6.4004 53.7997 6.6004C53.7997 10.8004 53.7997 15.1004 53.7997 19.3004C53.7997 19.5004 53.7997 19.5004 53.5997 19.5004C52.9997 19.5004 52.4997 19.5004 51.8997 19.5004C51.6997 19.5004 51.6997 19.4004 51.6997 19.3004C51.6997 19.0004 51.6997 18.8004 51.6997 18.5004C51.5997 18.5004 51.5997 18.5004 51.5997 18.5004C50.5997 19.5004 49.3997 19.7004 48.0997 19.6004C47.0997 19.5004 46.1997 19.2004 45.4997 18.5004C44.5997 17.8004 44.1997 16.8004 43.9997 15.7004C43.7997 14.4004 43.8997 13.1004 44.5997 12.0004C45.3997 10.6004 46.7997 9.90038 48.3997 9.80038C49.3997 9.70038 50.3997 9.9004 51.1997 10.5004C51.0997 10.8004 51.2997 11.0004 51.4997 11.2004ZM51.4997 14.8004C51.4997 14.5004 51.4997 14.3004 51.3997 14.0004C51.1997 12.8004 50.2997 12.0004 49.0997 11.8004C47.8997 11.6004 46.7997 12.2004 46.1997 13.2004C45.8997 13.8004 45.7997 14.5004 45.7997 15.1004C45.9997 17.5004 48.3997 18.2004 49.9997 17.3004C51.0997 16.9004 51.4997 15.9004 51.4997 14.8004Z" fill="#3A495B"/>
<path d="M41.8999 19.5C41.5999 19.5 41.2999 19.5 40.9999 19.5C40.7999 19.5 40.6999 19.4 40.5999 19.2C40.2999 18.4 39.8999 17.6 39.5999 16.8C39.4999 16.6 39.3999 16.6 39.1999 16.6C37.2999 16.6 35.3999 16.6 33.4999 16.6C33.2999 16.6 33.1999 16.6 33.0999 16.8C32.7999 17.6 32.3999 18.4 32.0999 19.2C31.9999 19.4 31.9999 19.4 31.7999 19.4C31.1999 19.4 30.4999 19.4 29.8999 19.4C29.6999 19.4 29.5999 19.4 29.6999 19.2C31.4999 15.2 33.2999 11.2 35.0999 7.29999C35.1999 7.09999 35.2999 7 35.4999 7C36.0999 7 36.5999 7 37.1999 7C37.3999 7 37.4999 7.09999 37.5999 7.29999C38.8999 10.2 40.1999 13.1 41.4999 16C41.9999 17.1 42.4999 18.1 42.8999 19.2C42.9999 19.5 42.9999 19.5 42.6999 19.5C42.4999 19.5 42.1999 19.5 41.8999 19.5ZM36.3999 14.9C37.0999 14.9 37.7999 14.9 38.4999 14.9C38.6999 14.9 38.7999 14.9 38.6999 14.7C37.9999 13.1 37.2999 11.4 36.5999 9.79999C36.5999 9.69999 36.5999 9.60001 36.4999 9.60001C36.3999 9.60001 36.3999 9.69999 36.3999 9.79999C35.6999 11.4 34.9999 13.1 34.2999 14.7C34.1999 14.9 34.2999 14.9 34.4999 14.9C34.9999 14.8 35.6999 14.9 36.3999 14.9Z" fill="#3A495B"/>
<path d="M68.7997 18.4004C68.6997 18.4004 68.6997 18.5004 68.6997 18.5004C67.5997 19.6004 66.2997 19.9004 64.7997 19.6004C62.9997 19.3004 61.8997 18.1004 61.6997 16.3004C61.6997 16.0004 61.6997 15.8004 61.6997 15.5004C61.6997 13.8004 61.6997 12.0004 61.6997 10.3004C61.6997 10.0004 61.7997 10.0004 61.9997 10.0004C62.4997 10.0004 63.0997 10.0004 63.5997 10.0004C63.7997 10.0004 63.8997 10.1004 63.8997 10.3004C63.8997 11.9004 63.8997 13.5004 63.8997 15.0004C63.8997 15.4004 63.8997 15.7004 63.9997 16.0004C64.1997 16.9004 64.6997 17.4004 65.6997 17.6004C66.3997 17.7004 67.0997 17.6004 67.6997 17.2004C68.2997 16.8004 68.5997 16.1004 68.6997 15.4004C68.7997 14.8004 68.6997 14.1004 68.6997 13.5004C68.6997 12.4004 68.6997 11.3004 68.6997 10.2004C68.6997 10.0004 68.7997 9.90039 68.9997 9.90039C69.4997 9.90039 70.0997 9.90039 70.5997 9.90039C70.8997 9.90039 70.8997 10.0004 70.8997 10.2004C70.8997 12.9004 70.8997 15.7004 70.8997 18.4004C70.8997 18.6004 70.8997 18.9004 70.8997 19.1004C70.8997 19.3004 70.8997 19.3004 70.6997 19.3004C70.0997 19.3004 69.5997 19.3004 68.9997 19.3004C68.7997 19.3004 68.7997 19.2004 68.7997 19.1004C68.7997 19.0004 68.7997 18.8004 68.7997 18.4004Z" fill="#3B4A5B"/>
<path d="M56.6997 14.7996C56.6997 13.2996 56.6997 11.7996 56.6997 10.3996C56.6997 10.1996 56.7997 10.0996 56.9997 10.0996C57.5997 10.0996 58.0997 10.0996 58.6997 10.0996C58.8997 10.0996 58.9997 10.0996 58.9997 10.3996C58.9997 13.3996 58.9997 16.3996 58.9997 19.3996C58.9997 19.5996 58.9997 19.6996 58.7997 19.6996C58.1997 19.6996 57.5997 19.6996 57.0997 19.6996C56.8997 19.6996 56.7997 19.5996 56.7997 19.3996C56.6997 17.7996 56.6997 16.2996 56.6997 14.7996Z" fill="#3B4A5B"/>
<path d="M57.7999 8.5004C56.9999 8.5004 56.3999 7.90038 56.3999 7.20038C56.3999 6.40038 56.9999 5.90039 57.7999 5.90039C58.5999 5.90039 59.1999 6.50038 59.1999 7.20038C59.1999 7.90038 58.5999 8.5004 57.7999 8.5004Z" fill="#3A495B"/>
<path d="M22.1997 22.4002C22.1997 22.2002 22.1997 22.0002 22.1997 21.7002C22.1997 15.4002 22.1997 9.1002 22.1997 2.8002V2.7002C22.2997 2.8002 22.1997 3.00022 22.1997 3.10022C22.1997 9.40022 22.1997 15.8002 22.1997 22.1002C22.1997 22.2002 22.2997 22.3002 22.1997 22.4002Z" fill="#C83F59"/>
</svg>
