<svg width="53" height="38" viewBox="0 0 53 38" fill="none" xmlns="http://www.w3.org/2000/svg">
<path d="M52.6798 16.9317C52.5398 16.9817 52.6098 17.1117 52.5998 17.2017C52.4898 18.6617 52.1299 20.0517 51.3699 21.3217C50.2599 23.1717 48.6499 24.3217 46.5199 24.7317C44.9099 25.0417 43.3298 24.9817 41.7998 24.3617C39.9898 23.6317 38.7398 22.3217 37.9298 20.5517C36.6698 17.8017 36.9798 13.9017 38.6698 11.3917C39.8098 9.70166 41.3998 8.70166 43.3998 8.34166C45.0098 8.05166 46.5898 8.13166 48.1098 8.78166C49.9398 9.56166 51.1598 10.9317 51.9298 12.7217C52.3298 13.6417 52.5498 14.6017 52.5898 15.6017C52.5898 15.7117 52.5898 15.7117 52.6698 15.7817V16.9317H52.6798ZM41.2898 16.2917C41.2898 17.0417 41.3298 17.7117 41.4898 18.3617C41.6798 19.1717 41.9899 19.9317 42.6299 20.5017C43.5699 21.3417 44.6999 21.4917 45.8899 21.2617C46.8999 21.0617 47.6098 20.4217 47.9898 19.4917C48.7898 17.5217 48.7099 15.5317 47.8699 13.5917C47.4899 12.7117 46.7699 12.1317 45.8299 11.8917C45.1699 11.7117 44.4899 11.7017 43.8299 11.8617C42.8599 12.1017 42.2299 12.7417 41.8099 13.6117C41.3899 14.4817 41.2898 15.4217 41.2998 16.2917H41.2898Z" fill="#396AB3"/>
<path d="M34.4401 37.7719C34.4401 37.6619 34.35 37.6919 34.29 37.6919C31.74 37.3519 29.47 36.3919 27.53 34.7019C26.76 34.0319 26.07 33.2919 25.59 32.3819C25.04 31.3319 24.8801 30.2019 24.8901 29.0319C24.8901 28.6019 24.8901 28.1719 24.8901 27.7119C25.0401 27.7519 25.0701 27.8319 25.1101 27.8919C26.0501 29.0619 27.0501 30.1519 28.2601 31.0419C30.0601 32.3719 32.0801 33.1519 34.3101 33.3219C37.4601 33.5619 40.3901 32.8919 43.0501 31.1419C44.3001 30.3219 45.3301 29.2819 46.2001 28.0719C46.2801 27.9619 46.3701 27.8519 46.4501 27.7519C46.4701 27.7519 46.5001 27.7619 46.5201 27.7719C46.5201 28.2519 46.5201 28.7319 46.5201 29.2119C46.5801 31.7119 45.4301 33.5919 43.4901 35.0619C41.7801 36.3619 39.8801 37.2419 37.7601 37.6219C37.6101 37.6519 37.4501 37.6619 37.3001 37.6919C37.2601 37.6919 37.1701 37.6719 37.2001 37.7719H34.4201H34.4401Z" fill="#396AB3"/>
<path d="M35.4201 20.0617C35.4501 20.7217 35.4401 21.4617 35.3101 22.1917C35.0801 23.4217 34.3401 24.2517 33.2201 24.7717C32.6001 25.0617 31.9301 25.2017 31.2501 25.3017C30.3601 25.4417 29.4601 25.4617 28.5801 25.3817C27.0401 25.2417 25.6001 24.7917 24.2901 23.9417C23.6901 23.5517 23.1501 23.1017 22.6801 22.5817C21.8201 21.6217 21.2301 20.5117 20.9301 19.2417C20.7201 18.3517 20.6101 17.4517 20.6701 16.5517C20.8701 13.8317 22.0001 11.6017 24.2801 10.0217C25.5001 9.17169 26.8601 8.70168 28.3201 8.47168C28.9601 8.37168 29.6101 8.29168 30.2601 8.31168C31.3401 8.34168 32.4101 8.47168 33.3701 9.01168C34.2001 9.48168 34.8201 10.1117 35.0501 11.0717C35.1401 11.4517 35.1101 11.8317 35.1301 12.2117C35.1301 12.4617 35.1301 12.7117 35.1401 12.9517C35.1501 13.1017 35.0901 13.1217 34.9501 13.1417C34.5601 13.2017 34.3401 12.9017 34.0501 12.7517C33.3701 12.3817 32.6601 12.1417 31.9101 11.9817C31.4001 11.8817 30.8801 11.8217 30.3501 11.7917C29.0101 11.7017 27.7401 11.9617 26.6501 12.7717C25.6101 13.5417 24.9701 14.5917 24.8101 15.8817C24.6601 17.1117 24.7801 18.3417 25.3101 19.4817C25.8701 20.6817 26.8401 21.4017 28.1101 21.7317C28.8801 21.9317 29.6601 21.9617 30.4401 21.9017C30.6601 21.8817 30.8701 21.8217 31.0701 21.7317C31.3901 21.5817 31.5601 21.3317 31.5701 20.9717C31.5901 20.3217 31.6101 19.6817 31.5701 19.0317C31.5301 18.3417 31.4701 17.6417 31.3001 16.9617C31.2701 16.8417 31.2901 16.7917 31.4101 16.7917C32.1801 16.8117 32.9501 16.7217 33.7201 16.8417C34.6501 16.9917 35.4901 17.7817 35.4201 18.8317C35.4001 19.2117 35.4201 19.5917 35.4201 20.0617Z" fill="#396AB3"/>
<path d="M0 14.0314C0 12.4514 0 10.8714 0 9.29136C0 8.89136 0.00996582 8.48136 0.0899658 8.08136C0.349966 6.75136 1.15002 5.81135 2.27002 5.13135C2.76002 4.83135 3.31999 4.91135 3.85999 4.92135C3.99999 4.92135 3.96002 5.05136 3.96002 5.12136C3.96002 5.94136 3.96002 6.76136 3.96002 7.59136C3.96002 7.84136 3.97002 8.09136 3.96002 8.34136C3.96002 8.51136 4.00999 8.55136 4.17999 8.55136C5.82999 8.55136 7.48001 8.55136 9.14001 8.55136C9.38001 8.55136 9.5 8.67136 9.5 8.91136C9.5 9.34136 9.49999 9.76136 9.48999 10.1914C9.44999 11.0114 8.99999 11.5114 8.29999 11.8514C7.96999 12.0114 7.62 12.0714 7.25 12.0714C6.24 12.0714 5.23998 12.0714 4.22998 12.0714C4.03998 12.0714 3.96002 12.1014 3.96002 12.3214C3.96002 14.3814 3.96002 16.4314 3.96002 18.4914C3.96002 18.8114 3.97999 19.1214 4.04999 19.4314C4.29999 20.5514 5.02001 21.1614 6.20001 21.2114C7.26001 21.2614 8.30999 21.1714 9.29999 20.7014C9.35999 20.6714 9.47998 20.5614 9.47998 20.7514C9.46998 21.3514 9.54001 21.9514 9.45001 22.5514C9.32001 23.3614 8.88997 23.9414 8.15997 24.3014C7.59997 24.5814 6.99 24.6914 6.37 24.7214C5.26 24.7814 4.17 24.6614 3.13 24.2414C1.65 23.6514 0.729988 22.5514 0.299988 21.0314C0.0799878 20.2814 0.0100098 19.5014 0.0100098 18.7214C0.0100098 17.1614 0.0100098 15.5914 0.0100098 14.0314H0Z" fill="#396AB3"/>
<path d="M12.3701 14.5916C12.3701 12.7716 12.3701 10.9516 12.3701 9.1316C12.3701 8.9516 12.4001 8.8916 12.6001 8.8916C13.1801 8.9116 13.7601 8.86161 14.3301 8.98161C15.4301 9.21161 16.1401 9.9916 16.2901 11.1116C16.3201 11.3216 16.3301 11.5316 16.3301 11.7516C16.3301 14.1616 16.3301 16.5816 16.3301 18.9916C16.3301 19.2816 16.3501 19.5616 16.3801 19.8516C16.4801 20.7616 16.9501 21.2416 17.8801 21.3916C18.2901 21.4516 18.7001 21.4516 19.1101 21.4516C19.5101 21.4516 19.5201 21.4516 19.5101 21.8616C19.5101 22.2516 19.5101 22.6416 19.4601 23.0216C19.3101 24.0016 18.8101 24.5316 17.8201 24.6616C16.7101 24.8016 15.6201 24.6816 14.6101 24.1716C13.4501 23.5816 12.8401 22.5916 12.5501 21.3616C12.4201 20.8116 12.3701 20.2616 12.3701 19.7016C12.3701 18.0016 12.3701 16.3116 12.3701 14.6116V14.5916Z" fill="#396AB3"/>
<path d="M37.96 6.50172C37.96 5.77172 37.88 5.11172 37.98 4.44172C38.13 3.39172 38.7 2.58171 39.51 1.95171C41.41 0.461714 43.57 -0.198279 45.99 0.0517206C47.81 0.241721 49.45 0.891716 50.84 2.10172C51.54 2.71172 52.09 3.42171 52.22 4.38171C52.32 5.07171 52.28 5.77172 52.27 6.49172C52.14 6.44172 52.09 6.35172 52.02 6.28172C51.29 5.49172 50.51 4.76172 49.57 4.22172C48.13 3.39172 46.57 3.05172 44.92 3.11172C43.52 3.16172 42.17 3.45172 40.91 4.08172C39.83 4.62172 38.9 5.34172 38.14 6.28172C38.09 6.34172 38.05 6.39172 37.96 6.49172V6.50172Z" fill="#396AB3"/>
<path d="M14.3201 7.41203C13.1001 7.41203 12.0301 6.36202 12.0201 5.13202C12.0101 3.84202 13.0301 2.77202 14.2901 2.75202C15.5701 2.74202 16.6801 3.80203 16.6801 5.05203C16.6801 6.32203 15.6101 7.40203 14.3201 7.41203Z" fill="#396AB3"/>
</svg>
