<svg width="51" height="37" viewBox="0 0 51 37" fill="none" xmlns="http://www.w3.org/2000/svg">
<path d="M45.7597 8.70602C45.6597 13.506 43.8597 17.706 40.5597 21.206C38.3597 23.506 36.1597 23.806 33.2597 22.506C32.3597 22.106 31.5597 21.606 30.6597 21.106C29.9597 20.706 29.2597 20.406 28.5597 20.306C27.1597 20.006 25.8597 20.306 24.6597 21.006C23.7597 21.506 22.9597 22.106 22.1597 22.806C21.7597 23.106 21.3597 23.406 20.8597 23.706C18.2597 25.606 15.6597 25.506 12.8597 23.706C11.3597 22.806 10.2597 21.506 9.2597 20.106C6.7597 16.506 5.15967 12.506 5.15967 8.00601C5.15967 6.00601 5.75967 4.10601 7.15967 2.50601C9.45967 -0.193989 13.3597 -0.793983 16.5597 1.10602C17.7597 1.80602 18.7597 2.70602 19.6597 3.70602C20.4597 4.60602 21.2597 5.40603 22.1597 6.30603C22.3597 6.50603 22.4597 6.606 22.7597 6.406C26.1597 4.30601 29.4597 4.60603 32.6597 6.80603C33.0597 7.10603 33.2597 7.00602 33.6597 6.70602C35.1597 5.10602 36.7597 3.80602 38.9597 3.20602C41.7597 2.40602 44.2597 3.506 45.3597 5.906C45.6597 6.606 45.7597 7.30602 45.7597 8.70602ZM44.4597 12.806C44.3597 12.806 44.2597 12.806 44.1597 12.806C41.9597 12.906 39.8597 12.506 37.8597 11.706C37.6597 11.606 37.4597 11.606 37.2597 11.606C35.0597 11.806 32.7597 11.706 30.5597 11.306C30.1597 11.206 29.8597 11.306 29.5597 11.606C23.0597 16.406 16.0597 17.306 8.55969 14.206C7.95969 14.006 7.45968 13.606 6.85968 13.306C6.85968 13.406 6.85968 13.506 6.85968 13.506C7.05968 14.106 7.25969 14.706 7.55969 15.306C8.85969 18.206 10.4597 20.906 13.0597 22.806C16.2597 25.106 18.5597 24.506 20.6597 22.906C21.6597 22.106 22.6597 21.306 23.7597 20.606C26.2597 19.006 28.7597 19.006 31.2597 20.506C32.0597 21.006 32.9597 21.406 33.8597 21.906C36.0597 23.006 37.9597 22.506 39.7597 21.006C41.2597 19.706 42.2597 18.006 43.1597 16.306C43.6597 15.206 44.1597 14.006 44.4597 12.806ZM8.55969 12.106C9.05969 12.006 9.65967 12.006 10.1597 12.006C10.3597 12.006 10.4597 12.006 10.6597 11.906C14.7597 11.406 18.2597 9.50601 21.5597 7.00601C21.7597 6.80601 21.8597 6.70601 21.5597 6.50601C20.4597 5.50601 19.5597 4.40601 18.5597 3.40601C17.9597 2.70601 17.1597 2.10602 16.3597 1.60602C12.2597 -0.893983 7.35967 1.10603 6.15967 5.80603C5.65967 7.70603 5.8597 9.70602 6.2597 11.606C6.3597 11.906 6.4597 11.906 6.7597 12.006C7.3597 12.006 7.95969 12.106 8.55969 12.106ZM7.85968 12.906C11.6597 14.906 15.6597 15.606 19.8597 15.006C23.2597 14.506 26.2597 13.106 29.0597 11.006C26.5597 10.306 24.3597 9.30602 22.5597 7.60602C22.3597 7.40602 22.2597 7.50602 22.0597 7.60602C21.5597 8.00602 20.9597 8.40603 20.3597 8.80603C17.6597 10.606 14.8597 12.006 11.6597 12.606C10.4597 12.806 9.15968 12.806 7.85968 12.906ZM40.3597 3.50601C37.7597 3.60601 35.6597 5.20603 33.8597 7.30603C33.7597 7.40603 33.7597 7.60602 33.8597 7.70602C34.9597 8.70602 36.0597 9.90602 37.4597 10.606C37.6597 10.706 37.7597 10.806 38.0597 10.706C40.4597 10.406 42.6597 9.60601 44.7597 8.50601C44.9597 8.40601 45.0597 8.206 45.0597 7.906C45.0597 5.506 43.1597 3.50601 40.3597 3.50601ZM26.9597 5.60602C25.9597 5.60602 24.6597 6.00602 23.4597 6.70602C23.0597 6.90602 23.1597 7.10603 23.4597 7.30603C25.2597 8.80603 27.2597 9.80603 29.5597 10.306C29.8597 10.406 30.0597 10.306 30.2597 10.106C31.0597 9.40602 31.7597 8.60603 32.4597 7.80603C32.6597 7.50603 32.5597 7.40603 32.3597 7.30603C30.8597 6.20603 29.2597 5.60602 26.9597 5.60602ZM44.9597 9.20602C43.1597 10.206 41.1597 10.806 39.0597 11.306C40.6597 11.906 42.8597 12.206 44.2597 12.006C44.4597 12.006 44.6597 11.906 44.6597 11.706C44.8597 10.906 44.9597 10.106 44.9597 9.20602ZM36.3597 10.806C35.3597 10.006 34.3597 9.10602 33.4597 8.20602C33.2597 8.00602 33.1597 8.00602 33.0597 8.20602C32.3597 9.00602 31.6597 9.80602 30.8597 10.606C32.6597 10.906 34.4597 11.006 36.3597 10.806Z" fill="#11235B"/>
<path d="M3.95977 35.3065C4.15977 34.7065 4.3598 34.1065 4.5598 33.4065C4.6598 33.1065 4.85978 32.9065 5.15978 33.0065C5.45978 33.1065 5.35979 33.4065 5.35979 33.6065C5.05979 34.5065 4.75979 35.3065 4.35979 36.2065C4.25979 36.4065 4.15979 36.6065 3.85979 36.6065C3.55979 36.6065 3.45979 36.4065 3.35979 36.2065C3.15979 35.6065 2.95978 35.1065 2.65978 34.4065C2.35978 35.1065 2.15977 35.7065 1.95977 36.2065C1.85977 36.4065 1.75977 36.7065 1.45977 36.7065C1.15977 36.7065 1.05977 36.5065 0.959767 36.3065C0.659767 35.4065 0.359804 34.6065 0.0598039 33.7065C-0.0401961 33.5065 -0.0401839 33.2065 0.259816 33.1065C0.559816 33.0065 0.759792 33.2065 0.859792 33.5065C1.05979 34.1065 1.2598 34.8065 1.5598 35.6065C1.8598 34.9065 2.05982 34.3065 2.25982 33.7065C2.35982 33.5065 2.35978 33.2065 2.65978 33.2065C3.05978 33.2065 3.05978 33.5065 3.15978 33.7065C3.35978 34.3065 3.55982 34.8065 3.75982 35.4065C3.85982 35.3065 3.95977 35.3065 3.95977 35.3065Z" fill="#11235B"/>
<path d="M41.5596 33.4059C41.5596 32.9059 41.5596 32.4059 41.5596 32.0059C41.5596 31.7059 41.5595 31.5059 41.9595 31.5059C42.2595 31.5059 42.3596 31.8059 42.3596 32.0059C42.3596 33.4059 42.3596 34.8059 42.3596 36.2059C42.3596 36.4059 42.3595 36.6059 42.1595 36.6059C41.9595 36.7059 41.7595 36.7059 41.6595 36.5059C41.5595 36.2059 41.4596 36.4059 41.2596 36.4059C40.4596 36.8059 39.5596 36.6059 39.0596 36.0059C38.5596 35.4059 38.5596 34.2059 39.0596 33.6059C39.5596 33.0059 40.4596 32.8059 41.2596 33.2059C41.3596 33.3059 41.4596 33.3059 41.5596 33.4059ZM40.5596 33.7059C39.9596 33.7059 39.5596 34.2059 39.5596 34.9059C39.5596 35.5059 39.9596 36.0059 40.5596 36.0059C41.1596 36.0059 41.6595 35.5059 41.6595 34.9059C41.5595 34.2059 41.1596 33.7059 40.5596 33.7059Z" fill="#11235B"/>
<path d="M25.5598 33.4059C25.8598 33.3059 25.9597 33.2059 26.1597 33.1059C27.1597 32.8059 28.0598 33.3059 28.0598 34.4059C28.0598 35.0059 28.0598 35.6059 28.0598 36.2059C28.0598 36.5059 27.9597 36.7059 27.6597 36.7059C27.3597 36.7059 27.2598 36.5059 27.2598 36.2059C27.2598 35.7059 27.2598 35.2059 27.2598 34.7059C27.2598 34.1059 26.9597 33.8059 26.4597 33.8059C25.9597 33.8059 25.5598 34.1059 25.5598 34.7059C25.5598 35.2059 25.5598 35.7059 25.5598 36.3059C25.5598 36.5059 25.4597 36.7059 25.1597 36.8059C24.8597 36.8059 24.7598 36.6059 24.7598 36.3059C24.7598 34.9059 24.7598 33.4059 24.7598 32.0059C24.7598 31.7059 24.8597 31.5059 25.1597 31.5059C25.4597 31.5059 25.5598 31.7059 25.5598 32.0059C25.5598 32.4059 25.5598 32.8059 25.5598 33.4059Z" fill="#11235B"/>
<path d="M32.4597 34.8061C32.4597 35.3061 32.4597 35.7061 32.4597 36.2061C32.4597 36.4061 32.4597 36.5061 32.2597 36.6061C32.0597 36.7061 31.8597 36.7061 31.7597 36.5061C31.6597 36.3061 31.5597 36.3061 31.3597 36.4061C30.5597 36.8061 29.7597 36.7061 29.1597 36.0061C28.6597 35.3061 28.6597 34.3061 29.1597 33.6061C29.6597 33.0061 30.4597 32.8061 31.3597 33.2061C31.5597 33.3061 31.6597 33.3061 31.8597 33.1061C31.9597 32.9061 32.1597 32.9061 32.2597 33.0061C32.4597 33.1061 32.4597 33.2061 32.4597 33.4061C32.4597 33.9061 32.4597 34.4061 32.4597 34.8061ZM30.6597 33.7061C30.0597 33.7061 29.6597 34.2061 29.6597 34.8061C29.6597 35.5061 30.0597 35.9061 30.6597 35.9061C31.2597 35.9061 31.7597 35.4061 31.7597 34.8061C31.7597 34.2061 31.2597 33.7061 30.6597 33.7061Z" fill="#11235B"/>
<path d="M50.86 34.8058C50.86 35.3058 50.86 35.8058 50.86 36.2058C50.86 36.4058 50.86 36.5058 50.66 36.6058C50.46 36.6058 50.26 36.7058 50.26 36.5058C50.16 36.1058 49.96 36.4058 49.76 36.4058C49.06 36.8058 48.16 36.6058 47.66 36.0058C47.06 35.3058 47.06 34.2058 47.66 33.5058C48.16 32.9058 49.06 32.7058 49.76 33.1058C49.96 33.2058 50.16 33.3058 50.36 33.0058C50.56 32.7058 50.9599 32.9058 50.9599 33.3058C50.8599 33.9058 50.86 34.4058 50.86 34.8058ZM47.9599 34.9058C47.9599 35.6058 48.46 36.0058 49.06 36.0058C49.66 36.0058 50.06 35.5058 50.06 34.9058C50.06 34.2058 49.6599 33.8058 48.9599 33.8058C48.3599 33.7058 47.9599 34.2058 47.9599 34.9058Z" fill="#11235B"/>
<path d="M16.7598 35.106C16.4598 35.106 16.1597 35.106 15.9597 35.106C15.8597 35.106 15.6598 35.006 15.5598 35.206C15.4598 35.406 15.5598 35.506 15.7598 35.606C16.1598 36.006 16.7598 36.006 17.2598 35.906C17.5598 35.806 17.8598 35.506 18.0598 35.906C18.1598 36.306 17.7597 36.406 17.4597 36.506C16.0597 37.006 14.7598 36.206 14.7598 34.806C14.7598 33.806 15.4597 33.106 16.3597 33.006C17.3597 32.906 18.0598 33.506 18.2598 34.406C18.3598 34.906 18.1597 35.106 17.6597 35.106C17.3597 35.106 17.0598 35.106 16.7598 35.106ZM16.4597 34.506C16.5597 34.506 16.6598 34.506 16.7598 34.506C16.9598 34.406 17.3597 34.706 17.4597 34.306C17.4597 34.006 17.1597 33.706 16.8597 33.606C16.4597 33.506 16.1597 33.506 15.8597 33.806C15.6597 33.906 15.4598 34.106 15.5598 34.406C15.6598 34.606 15.8598 34.506 16.0598 34.506C16.1598 34.506 16.2597 34.506 16.4597 34.506Z" fill="#11235B"/>
<path d="M45.2597 35.1058C44.9597 35.1058 44.6597 35.1058 44.3597 35.1058C44.2597 35.1058 44.0597 35.0059 43.9597 35.2059C43.8597 35.3059 44.0597 35.5058 44.0597 35.6058C44.3597 36.0058 44.9597 36.1058 45.6597 35.9058C45.8597 35.8058 46.1597 35.6058 46.3597 35.9058C46.4597 36.2058 46.1597 36.4058 45.8597 36.5058C45.1597 36.8058 44.3597 36.8059 43.7597 36.3059C43.1597 35.9059 42.9597 35.2058 43.0597 34.5058C43.1597 33.6058 43.8597 33.0058 44.7597 33.0058C45.6597 32.9058 46.3597 33.4059 46.5597 34.2059C46.7597 34.9059 46.5597 35.0058 45.9597 35.1058C45.6597 35.1058 45.4597 35.1058 45.2597 35.1058ZM44.8597 34.5058C44.9597 34.5058 45.0597 34.5058 45.1597 34.5058C45.3597 34.5058 45.7597 34.6058 45.7597 34.4058C45.8597 34.1058 45.5597 33.8059 45.2597 33.7059C44.9597 33.6059 44.6597 33.6059 44.3597 33.8059C44.1597 33.9059 43.8597 34.2058 43.9597 34.4058C44.0597 34.7058 44.3597 34.5058 44.5597 34.5058C44.6597 34.6058 44.7597 34.5058 44.8597 34.5058Z" fill="#11235B"/>
<path d="M7.7597 34.9059C7.7597 34.4059 7.7597 34.0059 7.7597 33.5059C7.7597 33.3059 7.75966 33.1059 7.95966 33.1059C8.15966 33.0059 8.35968 33.1059 8.35968 33.2059C8.45968 33.5059 8.5597 33.3059 8.7597 33.3059C9.9597 32.7059 10.9597 33.3059 10.9597 34.7059C10.9597 35.2059 10.9597 35.8059 10.9597 36.3059C10.9597 36.6059 10.8597 36.7059 10.5597 36.7059C10.2597 36.7059 10.1597 36.5059 10.1597 36.3059C10.1597 35.8059 10.1597 35.3059 10.1597 34.7059C10.1597 34.1059 9.85968 33.8059 9.35968 33.8059C8.85968 33.8059 8.45966 34.1059 8.45966 34.7059C8.45966 35.2059 8.45966 35.7059 8.45966 36.3059C8.45966 36.5059 8.35969 36.7059 8.05969 36.8059C7.75969 36.8059 7.65967 36.6059 7.65967 36.3059C7.75967 35.7059 7.7597 35.3059 7.7597 34.9059Z" fill="#11235B"/>
<path d="M22.7598 36.7065C22.3598 36.7065 21.9597 36.7065 21.6597 36.5065C21.4597 36.4065 21.2597 36.2065 21.3597 36.0065C21.4597 35.8065 21.6597 35.8065 21.8597 35.9065C22.1597 36.0065 22.4598 36.1065 22.7598 36.1065C22.9598 36.1065 23.1597 36.0065 23.1597 35.7065C23.1597 35.4065 22.9598 35.4065 22.7598 35.3065C22.4598 35.2065 22.1597 35.2065 21.9597 35.1065C21.5597 35.0065 21.3598 34.7065 21.2598 34.3065C21.2598 33.8065 21.4597 33.5065 21.8597 33.3065C22.4597 33.0065 22.9598 33.1065 23.5598 33.3065C23.7598 33.4065 23.9597 33.5065 23.8597 33.8065C23.7597 34.1065 23.5597 34.0065 23.3597 33.9065C23.0597 33.8065 22.8598 33.7065 22.5598 33.8065C22.3598 33.8065 22.1597 33.9065 22.1597 34.2065C22.1597 34.4065 22.2597 34.5065 22.4597 34.6065C22.6597 34.7065 22.8598 34.7065 23.0598 34.8065C23.5598 34.9065 23.9597 35.2065 23.9597 35.8065C23.9597 36.4065 23.5597 36.7065 22.8597 36.8065C22.9597 36.7065 22.8598 36.7065 22.7598 36.7065Z" fill="#11235B"/>
<path d="M13.3601 36.6063C12.6601 36.6063 12.1601 36.2063 12.1601 35.5063C12.1601 35.1063 12.1601 34.8063 12.1601 34.4062C12.1601 34.1062 12.2602 33.7063 11.7602 33.6063C11.4602 33.5063 11.4602 33.1063 11.7602 33.1063C12.1602 33.0063 12.1601 32.8063 12.1601 32.5063C12.1601 32.2063 12.1601 31.9062 12.5601 31.9062C12.9601 31.9062 13.0601 32.2063 12.9601 32.5063C12.8601 33.0063 13.1601 33.1063 13.5601 33.1063C13.8601 33.1063 14.1601 33.0063 14.1601 33.5063C14.1601 33.9063 13.7601 33.8063 13.5601 33.8063C13.0601 33.7063 12.8601 33.9062 12.9601 34.4062C12.9601 34.7063 12.9601 35.0063 12.9601 35.3063C12.9601 35.7063 13.1601 36.0063 13.6601 36.0063C13.9601 36.0063 14.2602 35.9063 14.2602 36.3063C14.2602 36.6063 13.9601 36.7063 13.6601 36.7063C13.4601 36.6063 13.4601 36.6063 13.3601 36.6063Z" fill="#11235B"/>
<path d="M36.1595 33.7063C36.1595 34.1063 36.1595 34.6063 36.1595 35.0063C36.1595 35.4063 36.0595 35.9063 36.7595 36.0063C36.8595 36.0063 36.9595 36.2063 36.9595 36.3063C36.9595 36.5063 36.7595 36.6063 36.6595 36.6063C36.0595 36.7063 35.4595 36.3063 35.4595 35.7063C35.3595 34.4063 35.4595 33.1063 35.4595 31.8063C35.4595 31.6063 35.5595 31.4062 35.8595 31.4062C36.1595 31.4062 36.2595 31.6063 36.2595 31.8063C36.1595 32.5063 36.1595 33.1063 36.1595 33.7063Z" fill="#11235B"/>
<path d="M33.2598 33.7063C33.2598 33.1063 33.2598 32.5063 33.2598 32.0063C33.2598 31.7063 33.2597 31.5063 33.6597 31.4062C34.0597 31.4062 34.0598 31.7062 34.0598 31.9062C34.0598 33.0063 34.0598 34.0063 34.0598 35.1063C34.0598 35.5063 34.0598 35.9062 34.5598 35.9062C34.7598 35.9062 34.8598 36.1063 34.7598 36.3063C34.7598 36.5063 34.5597 36.5063 34.4597 36.6063C33.8597 36.7063 33.2598 36.3063 33.2598 35.6063C33.2598 35.0063 33.2598 34.4063 33.2598 33.7063Z" fill="#11235B"/>
<path d="M18.8597 34.8064C18.8597 34.3064 18.8597 33.9063 18.8597 33.4063C18.8597 33.0063 19.2597 32.8064 19.4597 33.1064C19.6597 33.3064 19.7597 33.3064 19.9597 33.2064C20.0597 33.1064 20.2597 33.1064 20.4597 33.0064C20.7597 33.0064 20.9597 33.0064 20.9597 33.3064C20.9597 33.6064 20.8598 33.7064 20.5598 33.7064C19.7598 33.9064 19.5598 34.1064 19.5598 35.0064C19.5598 35.3064 19.5598 35.7064 19.5598 36.0064C19.5598 36.3064 19.5597 36.6064 19.1597 36.6064C18.7597 36.6064 18.7598 36.3064 18.7598 36.0064C18.7598 35.6064 18.7597 35.2064 18.8597 34.8064Z" fill="#11235B"/>
<path d="M6.95966 34.8059C6.95966 35.2059 6.95966 35.7059 6.95966 36.1059C6.95966 36.4059 6.95969 36.6059 6.55969 36.6059C6.25969 36.6059 6.15967 36.4059 6.15967 36.1059C6.15967 35.2059 6.15967 34.3059 6.15967 33.5059C6.15967 33.2059 6.25969 33.0059 6.55969 33.0059C6.95969 33.0059 6.95966 33.2059 6.95966 33.5059C6.95966 34.0059 6.95966 34.4059 6.95966 34.8059Z" fill="#11235B"/>
<path d="M7.05969 32.1064C7.05969 32.4064 6.85969 32.5064 6.55969 32.5064C6.25969 32.5064 6.15967 32.4064 6.15967 32.1064C6.15967 31.8064 6.35969 31.6064 6.55969 31.6064C6.85969 31.7064 6.95969 31.9064 7.05969 32.1064Z" fill="#11235B"/>
</svg>
