<svg width="76" height="20" viewBox="0 0 76 20" fill="none" xmlns="http://www.w3.org/2000/svg">
<mask id="mask0_1007_4017" style="mask-type:luminance" maskUnits="userSpaceOnUse" x="0" y="0" width="76" height="20">
<path d="M0 19.39H75.83V0H0V19.39Z" fill="white"/>
</mask>
<g mask="url(#mask0_1007_4017)">
<path d="M13.96 19.3598C17.8 17.5198 20.2 14.6198 20.71 10.3798C21.21 6.13982 19.59 2.7398 16.28 0.0498047H16.46C18.78 0.0498047 21.09 0.0498047 23.41 0.0498047H64.2C68.01 0.0498047 71.82 0.0498047 75.64 0.0498047C75.78 0.0498047 75.8199 0.0897974 75.8199 0.229797C75.8199 6.5598 75.8199 12.8798 75.8199 19.2098C75.8199 19.3698 75.78 19.4099 75.62 19.4099C70.67 19.4099 65.7099 19.4099 60.7599 19.4099C55.8799 19.4099 51.0099 19.4098 46.1299 19.3898C35.4699 19.3898 24.8 19.3898 14.14 19.3798H13.96V19.3598ZM35.79 12.3198C35.79 11.4998 35.79 10.6798 35.79 9.8598C35.79 9.7398 35.76 9.70984 35.64 9.70984C34.48 9.70984 33.32 9.70984 32.17 9.70984C32.05 9.70984 32.0099 9.7298 32.0099 9.8598C32.0099 10.2798 32.0099 10.7098 32.0099 11.1398C32.0099 11.2598 32.04 11.2898 32.16 11.2898C32.69 11.2898 33.22 11.3098 33.75 11.3198C33.87 11.3198 33.91 11.3498 33.91 11.4798C33.9 12.1798 33.9 12.8798 33.89 13.5798C33.89 13.8098 33.89 13.8098 33.66 13.8698C33.28 13.9598 32.8999 13.9398 32.5099 13.9298C32.0799 13.9198 31.67 13.8399 31.28 13.6599C30.4 13.2499 29.79 12.5798 29.46 11.6698C29.3 11.2198 29.23 10.7398 29.22 10.2498C29.19 9.04982 29.54 8.01985 30.48 7.21985C31.17 6.62985 31.94 6.2998 32.86 6.2998C33.51 6.2998 34.14 6.3798 34.78 6.4798C35.01 6.5198 35.01 6.5198 35.09 6.2998C35.22 5.9298 35.34 5.54982 35.48 5.18982C35.53 5.06982 35.4799 5.02983 35.3799 5.00983C34.5299 4.78983 33.67 4.62981 32.79 4.61981C32.12 4.61981 31.45 4.65983 30.81 4.88983C29.25 5.43983 28.11 6.43981 27.49 7.98981C27.3 8.45981 27.22 8.96985 27.17 9.46985C27.09 10.3398 27.1099 11.2198 27.3799 12.0598C27.9799 13.9098 29.19 15.1398 31.15 15.5398C31.77 15.6698 32.4 15.6998 33.02 15.6298C33.93 15.5198 34.82 15.2898 35.68 14.9698C35.78 14.9298 35.81 14.8898 35.81 14.7798C35.81 13.9698 35.81 13.1498 35.81 12.3398L35.79 12.3198ZM69.56 12.8198C69.56 12.0498 69.56 11.2798 69.56 10.5198C69.56 10.1898 69.52 9.85979 69.44 9.53979C69.28 8.85979 68.88 8.33983 68.29 8.00983C67.72 7.68983 67.07 7.6698 66.44 7.7298C65.6 7.8098 64.81 8.10983 64.04 8.44983C63.94 8.48983 63.92 8.54983 63.95 8.63983C64.02 8.91983 64.14 9.17981 64.27 9.42981C64.37 9.62981 64.3699 9.6298 64.5699 9.5498C65.2299 9.3098 65.91 9.11982 66.62 9.12982C67.11 9.12982 67.48 9.3798 67.65 9.8598C67.73 10.0898 67.74 10.3298 67.77 10.5598C67.79 10.7598 67.79 10.7598 67.59 10.7698C66.95 10.7998 66.31 10.8398 65.69 10.9598C65.08 11.0798 64.51 11.2898 64.04 11.6998C63.16 12.4698 63.21 13.7498 63.72 14.5798C64.14 15.2598 64.77 15.6198 65.56 15.6398C66.02 15.6498 66.46 15.4898 66.86 15.2598C67.16 15.0798 67.44 14.8698 67.69 14.6298C67.72 14.5998 67.75 14.5598 67.79 14.5698C67.84 14.5798 67.82 14.6398 67.83 14.6798C67.87 14.8998 67.9 15.1198 67.93 15.3398C67.94 15.4398 67.99 15.4798 68.09 15.4698C68.53 15.4698 68.97 15.4598 69.41 15.4698C69.55 15.4698 69.58 15.4198 69.58 15.2898C69.58 14.4698 69.58 13.6398 69.58 12.8198H69.56ZM43.4 12.6698H43.3799C43.3799 11.8798 43.3799 11.0798 43.3799 10.2898C43.3799 9.92979 43.32 9.57981 43.19 9.23981C42.98 8.67981 42.6299 8.21985 42.0699 7.96985C41.3999 7.67985 40.69 7.63983 39.98 7.75983C39.24 7.87983 38.55 8.15981 37.85 8.42981C37.77 8.45981 37.77 8.49982 37.79 8.56982C37.91 8.87982 38.03 9.18982 38.14 9.49982C38.17 9.57982 38.2 9.59982 38.28 9.56982C38.41 9.51982 38.55 9.47982 38.68 9.43982C39.24 9.25982 39.81 9.09981 40.41 9.11981C41.13 9.13981 41.46 9.58985 41.54 10.0999C41.57 10.2699 41.57 10.4498 41.59 10.6298C41.59 10.7198 41.57 10.7498 41.48 10.7498C41.1 10.7698 40.72 10.7998 40.35 10.8298C39.69 10.8898 39.04 11.0298 38.43 11.3198C37.96 11.5498 37.54 11.8799 37.35 12.3499C37.05 13.0999 37.07 13.8698 37.53 14.5798C37.85 15.0798 38.2999 15.4298 38.8799 15.5698C39.4499 15.6998 40 15.5998 40.53 15.3298C40.88 15.1498 41.19 14.9099 41.48 14.6599C41.51 14.6299 41.54 14.5798 41.59 14.5898C41.65 14.6098 41.64 14.6798 41.64 14.7198C41.67 14.9098 41.71 15.1098 41.74 15.2998C41.75 15.3998 41.79 15.4398 41.9 15.4398C42.35 15.4398 42.7999 15.4398 43.2599 15.4598C43.3799 15.4598 43.42 15.4298 43.42 15.3098C43.42 14.4298 43.42 13.5498 43.42 12.6698H43.4ZM52.59 11.9898C52.62 12.5898 52.67 13.2098 52.96 13.7898C53.33 14.5198 53.86 15.0598 54.61 15.3898C55.04 15.5798 55.49 15.7198 55.95 15.6798C56.9 15.6098 57.7899 15.2998 58.6299 14.8298C58.7299 14.7698 58.74 14.7198 58.7 14.6198C58.62 14.4098 58.51 14.2298 58.4 14.0398C58.3 13.8665 58.1566 13.8098 57.97 13.8698C57.36 14.0598 56.73 14.0998 56.09 14.0498C55.82 14.0298 55.56 13.9298 55.35 13.7598C54.82 13.3498 54.53 12.7998 54.48 12.1298C54.43 11.3798 54.64 10.6798 55.08 10.0798C55.46 9.56983 56.01 9.31983 56.65 9.25983C57.08 9.21983 57.51 9.25981 57.93 9.36981C57.99 9.37981 58.06 9.40981 58.1 9.30981C58.23 8.95981 58.36 8.59982 58.5 8.24982C58.53 8.17982 58.52 8.12985 58.43 8.09985C57.81 7.89985 57.17 7.71984 56.52 7.70984C55.47 7.68984 54.57 8.08982 53.84 8.81982C52.97 9.67982 52.63 10.7598 52.6 11.9898H52.59ZM45.29 9.6698C45.29 11.5498 45.29 13.4198 45.29 15.2998C45.29 15.4398 45.33 15.4698 45.46 15.4698C45.99 15.4698 46.52 15.4698 47.05 15.4698C47.16 15.4698 47.2 15.4498 47.2 15.3298C47.2 11.5698 47.2 7.8098 47.2 4.0498C47.2 3.9398 47.17 3.90985 47.06 3.90985C46.53 3.90985 45.99 3.90985 45.46 3.90985C45.32 3.90985 45.29 3.94983 45.29 4.07983C45.29 5.93983 45.29 7.79985 45.29 9.65985V9.6698ZM51.09 11.6798H51.0699C51.0699 10.4698 51.0699 9.24979 51.0699 8.03979C51.0699 7.91979 51.04 7.87982 50.92 7.87982C50.4 7.87982 49.88 7.87982 49.36 7.87982C49.22 7.87982 49.19 7.9098 49.19 8.0498C49.19 9.3598 49.19 10.6698 49.19 11.9898C49.19 13.0998 49.19 14.2198 49.19 15.3298C49.19 15.4398 49.21 15.4798 49.33 15.4798C49.86 15.4798 50.39 15.4798 50.92 15.4798C51.04 15.4798 51.09 15.4598 51.09 15.3198C51.09 14.1098 51.09 12.8898 51.09 11.6798ZM60.18 11.6599C60.18 12.8799 60.18 14.0998 60.18 15.3098C60.18 15.4298 60.21 15.4698 60.33 15.4698C60.86 15.4698 61.39 15.4698 61.92 15.4698C62.05 15.4698 62.0699 15.4298 62.0699 15.3098C62.0699 14.7198 62.0699 14.1398 62.0699 13.5498C62.0699 11.7098 62.0699 9.87979 62.0699 8.03979C62.0699 7.89979 62.03 7.86981 61.9 7.86981C61.39 7.87981 60.87 7.87981 60.36 7.86981C60.23 7.86981 60.2 7.89985 60.2 8.02985C60.2 9.22985 60.2 10.4298 60.2 11.6398L60.18 11.6599ZM51.12 5.23981C51.12 4.62981 50.73 4.17981 50.18 4.17981C49.52 4.17981 49.18 4.53983 49.16 5.19983C49.13 5.71983 49.54 6.16983 50.06 6.19983C50.07 6.19983 50.08 6.19983 50.09 6.19983C50.6 6.20983 51.15 5.79981 51.12 5.23981ZM61.14 4.1698C60.61 4.1798 60.13 4.5098 60.12 5.1698C60.12 5.6998 60.59 6.19983 61.09 6.19983C61.63 6.19983 62.1 5.73983 62.09 5.19983C62.09 4.53983 61.6999 4.1898 61.1299 4.1698H61.14Z" fill="#FE6601"/>
<path d="M0.0498047 9.69982C0.0498047 6.53982 0.0498047 3.37984 0.0498047 0.219838C0.0498047 0.0698375 0.0898071 0.0298351 0.239807 0.0298351C3.49981 0.0298351 6.74977 0.0198351 10.0098 0.0298351C11.8698 0.0398351 13.5498 0.63982 15.1198 1.63982C16.4398 2.47982 17.4298 3.61981 18.2298 4.93981C18.7198 5.74981 19.0098 6.64981 19.2298 7.56981C19.4398 8.45981 19.5098 9.35982 19.4698 10.2698C19.4298 11.3698 19.1498 12.4198 18.7098 13.4198C18.3898 14.1598 18.0098 14.8798 17.5198 15.5298C16.8298 16.4398 15.9598 17.1498 15.0298 17.7898C13.7898 18.6498 12.3998 19.1098 10.9098 19.2898C10.4998 19.3398 10.0798 19.3598 9.6698 19.3598C6.5298 19.3598 3.38981 19.3598 0.239807 19.3598C0.0898071 19.3598 0.0498047 19.3198 0.0498047 19.1698C0.0498047 16.0098 0.0498047 12.8398 0.0498047 9.6798V9.69982ZM9.71979 17.3098C9.73979 17.2598 9.74977 17.1998 9.75977 17.1498C9.90977 16.1198 10.0598 15.0898 10.1998 14.0598C10.3598 12.9498 10.4998 11.8398 10.6598 10.7398C10.7498 10.1198 10.8298 9.49981 10.9098 8.87981C10.9098 8.82981 10.9398 8.77981 10.8598 8.74981C10.5598 8.62981 10.4298 8.37984 10.3198 8.09984C10.0798 7.46984 10.0398 6.80983 9.9798 6.14983C9.9798 6.06983 10.0098 6.0498 10.0798 6.0598C10.2798 6.0698 10.4898 6.07983 10.6898 6.08983C11.3198 6.13983 11.9498 6.22981 12.5298 6.49981C12.6198 6.53981 12.6998 6.52982 12.7898 6.50982C13.1098 6.43982 13.3398 6.1898 13.3498 5.8698C13.3698 5.5198 13.1798 5.2398 12.8598 5.1198C12.7498 5.0798 12.6398 5.0598 12.5098 5.1198C11.7298 5.4398 10.9098 5.5098 10.0898 5.5598C9.99978 5.5598 9.9698 5.53982 9.9798 5.44982C9.9998 5.28982 9.99978 5.11982 10.0198 4.94982C10.0798 4.28982 10.1698 3.63984 10.4198 3.02983C10.4298 2.98983 10.4498 2.94984 10.4498 2.90984C10.3998 2.62984 10.2898 2.38983 10.0198 2.26983C9.72978 2.14983 9.4598 2.21983 9.2298 2.39983C9.0498 2.53983 8.93979 2.76981 9.02979 2.99981C9.31979 3.77981 9.4298 4.58979 9.4798 5.41979C9.4798 5.54979 9.45977 5.57981 9.32977 5.56981C8.51977 5.52981 7.71977 5.40981 6.94977 5.12981C6.88977 5.09981 6.82978 5.08983 6.76978 5.08983C6.40978 5.11983 6.12978 5.38981 6.08978 5.74981C6.04978 6.09981 6.27981 6.42982 6.61981 6.50982C6.71981 6.53982 6.80979 6.54982 6.90979 6.50982C7.67979 6.16982 8.50978 6.0798 9.33978 6.0598C9.42978 6.0598 9.45977 6.0898 9.44977 6.1798C9.43977 6.3398 9.4498 6.48983 9.4198 6.64983C9.3498 7.18983 9.26979 7.72979 9.03979 8.22979C8.94979 8.41979 8.83979 8.59983 8.65979 8.70983C8.55979 8.76983 8.5398 8.82981 8.5498 8.93981C8.6398 9.66981 8.72976 10.3998 8.81976 11.1298C9.08976 13.1998 9.40978 15.2498 9.70978 17.3398L9.71979 17.3098Z" fill="#AC2931"/>
<path d="M35.7901 12.3196C35.7901 13.1296 35.7901 13.9496 35.7901 14.7596C35.7901 14.8596 35.7601 14.9096 35.6601 14.9496C34.8001 15.2696 33.9101 15.4996 33.0001 15.6096C32.3701 15.6796 31.74 15.6496 31.13 15.5196C29.17 15.1296 27.9601 13.8996 27.3601 12.0396C27.0901 11.1996 27.07 10.3296 27.15 9.44958C27.2 8.93958 27.2801 8.4396 27.4701 7.9696C28.0901 6.4196 29.2201 5.41957 30.7901 4.86957C31.4301 4.63957 32.1 4.59961 32.77 4.59961C33.65 4.59961 34.5101 4.75956 35.3601 4.98956C35.4701 5.01956 35.51 5.04956 35.46 5.16956C35.32 5.53956 35.2 5.9096 35.07 6.2796C34.99 6.5096 34.99 6.49959 34.76 6.45959C34.13 6.34959 33.4901 6.2696 32.8401 6.2796C31.9201 6.2796 31.15 6.61958 30.46 7.19958C29.53 7.99958 29.17 9.02955 29.2 10.2296C29.21 10.7196 29.2801 11.1896 29.4401 11.6496C29.7701 12.5596 30.38 13.2196 31.26 13.6396C31.65 13.8196 32.0701 13.8996 32.4901 13.9096C32.8701 13.9196 33.26 13.9396 33.64 13.8496C33.7934 13.8163 33.8701 13.7196 33.8701 13.5596C33.8701 12.8596 33.87 12.1596 33.89 11.4596C33.89 11.3396 33.8501 11.2996 33.7301 11.2996C33.2001 11.2996 32.67 11.2796 32.14 11.2696C32.02 11.2696 31.9901 11.2396 31.9901 11.1196C31.9901 10.6896 32.0001 10.2696 31.9901 9.8396C31.9901 9.7096 32.03 9.68958 32.15 9.68958C33.31 9.68958 34.4701 9.68958 35.6201 9.68958C35.7401 9.68958 35.77 9.7196 35.77 9.8396C35.77 10.6596 35.77 11.4796 35.77 12.2996L35.7901 12.3196Z" fill="#FEFDFD"/>
<path d="M69.5598 12.8199C69.5598 13.6399 69.5598 14.4699 69.5598 15.2899C69.5598 15.4199 69.5397 15.4699 69.3897 15.4699C68.9497 15.4699 68.5097 15.4699 68.0697 15.4699C67.9597 15.4699 67.9197 15.4399 67.9097 15.3399C67.8797 15.1199 67.8398 14.8999 67.8098 14.6799C67.8098 14.6399 67.8097 14.5899 67.7697 14.5699C67.7197 14.5499 67.6997 14.5999 67.6697 14.6299C67.4197 14.8699 67.1397 15.0899 66.8397 15.2599C66.4397 15.4899 65.9997 15.6499 65.5397 15.6399C64.7397 15.6199 64.1097 15.2599 63.6997 14.5799C63.1897 13.7499 63.1397 12.4799 64.0197 11.6999C64.4997 11.2799 65.0597 11.0799 65.6697 10.9599C66.2997 10.8399 66.9397 10.7999 67.5697 10.7699C67.7697 10.7599 67.7798 10.7699 67.7498 10.5599C67.7198 10.3199 67.7097 10.0799 67.6297 9.8599C67.4697 9.3799 67.0997 9.13992 66.5997 9.12992C65.8897 9.12992 65.2198 9.3099 64.5498 9.5499C64.3498 9.6199 64.3498 9.61991 64.2498 9.42991C64.1198 9.17991 63.9998 8.91993 63.9298 8.63993C63.9098 8.53993 63.9297 8.48993 64.0197 8.44993C64.7897 8.09993 65.5797 7.7999 66.4197 7.7299C67.0497 7.6699 67.6997 7.68993 68.2697 8.00993C68.8697 8.34993 69.2697 8.85989 69.4197 9.53989C69.4997 9.85989 69.5397 10.1899 69.5397 10.5199C69.5397 11.2899 69.5397 12.0599 69.5397 12.8199H69.5598ZM67.7597 12.6799C67.7597 12.4799 67.7597 12.2799 67.7597 12.0699C67.7597 11.9699 67.7398 11.9199 67.6198 11.9299C67.3298 11.9599 67.0298 11.9699 66.7398 12.0199C66.3498 12.0899 65.9698 12.1699 65.6198 12.3699C65.3798 12.4999 65.1797 12.6699 65.1097 12.9499C64.9297 13.6699 65.4497 14.3399 66.2897 14.1799C66.8197 14.0799 67.2497 13.7899 67.6597 13.4799C67.7297 13.4399 67.7697 13.3599 67.7597 13.2699C67.7597 13.0699 67.7597 12.8799 67.7597 12.6799Z" fill="#FEFDFD"/>
<path d="M43.3999 12.6694C43.3999 13.5494 43.3999 14.4294 43.3999 15.3194C43.3999 15.4394 43.3699 15.4795 43.2399 15.4695C42.7899 15.4595 42.3398 15.4494 41.8798 15.4494C41.7698 15.4494 41.7399 15.4194 41.7199 15.3094C41.6999 15.1094 41.6599 14.9194 41.6199 14.7294C41.6199 14.6794 41.6198 14.6195 41.5698 14.5995C41.5198 14.5795 41.4899 14.6394 41.4599 14.6694C41.1699 14.9294 40.8598 15.1594 40.5098 15.3394C39.9898 15.6094 39.4299 15.7094 38.8599 15.5794C38.2799 15.4394 37.8398 15.0894 37.5098 14.5894C37.0498 13.8794 37.0299 13.1094 37.3299 12.3594C37.5199 11.8794 37.9399 11.5594 38.4099 11.3294C39.0199 11.0394 39.6599 10.8994 40.3299 10.8394C40.7099 10.7994 41.0899 10.7794 41.4599 10.7594C41.5499 10.7594 41.5798 10.7294 41.5698 10.6394C41.5498 10.4594 41.5499 10.2894 41.5199 10.1094C41.4399 9.58941 41.1099 9.14943 40.3899 9.12943C39.7799 9.10943 39.2199 9.26944 38.6599 9.44944C38.5299 9.48944 38.3898 9.52944 38.2598 9.57944C38.1798 9.60944 38.1499 9.57943 38.1199 9.50943C38.0099 9.19943 37.8899 8.88944 37.7699 8.57944C37.7399 8.50944 37.7499 8.46943 37.8299 8.43943C38.5299 8.16943 39.2199 7.88944 39.9599 7.76944C40.6799 7.64944 41.3799 7.6894 42.0499 7.9794C42.6199 8.2194 42.9599 8.67942 43.1699 9.24942C43.2999 9.57942 43.3599 9.93941 43.3599 10.2994C43.3499 11.0894 43.3599 11.8894 43.3599 12.6794H43.3798L43.3999 12.6694ZM41.6099 12.6694H41.5899C41.5899 12.4694 41.5899 12.2694 41.5899 12.0594C41.5899 11.9694 41.5699 11.9494 41.4799 11.9494C41.0799 11.9494 40.6799 11.9794 40.2899 12.0594C39.9199 12.1294 39.5498 12.2394 39.2598 12.5094C38.6998 13.0294 38.8598 13.8694 39.5698 14.1394C39.7398 14.2094 39.9299 14.2194 40.1199 14.1794C40.6199 14.0694 41.0899 13.9194 41.4599 13.5394C41.5699 13.4294 41.6299 13.3195 41.6199 13.1595C41.5999 12.9995 41.6199 12.8394 41.6199 12.6794L41.6099 12.6694Z" fill="#FEFDFD"/>
<path d="M52.5896 11.9897C52.6196 10.7597 52.9596 9.67969 53.8296 8.81969C54.5696 8.08969 55.4596 7.6897 56.5096 7.7097C57.1696 7.7197 57.7996 7.89971 58.4196 8.09971C58.5096 8.12971 58.5196 8.17968 58.4896 8.24968C58.3596 8.59968 58.2196 8.95968 58.0896 9.30968C58.0596 9.40968 57.9796 9.37967 57.9196 9.36967C57.4996 9.25967 57.0696 9.22969 56.6396 9.25969C56.0096 9.31969 55.4496 9.5597 55.0696 10.0797C54.6296 10.6797 54.4196 11.3697 54.4696 12.1297C54.5196 12.7997 54.8096 13.3597 55.3396 13.7597C55.5496 13.9297 55.8096 14.0297 56.0796 14.0497C56.7196 14.0997 57.3396 14.0497 57.9596 13.8697C58.1463 13.8163 58.2896 13.873 58.3896 14.0397C58.4996 14.2297 58.6096 14.4097 58.6896 14.6197C58.7296 14.7197 58.7096 14.7697 58.6196 14.8297C57.7896 15.2997 56.8896 15.5997 55.9396 15.6797C55.4796 15.7197 55.0196 15.5797 54.5996 15.3897C53.8496 15.0597 53.3196 14.5197 52.9496 13.7897C52.6596 13.2097 52.6096 12.5897 52.5796 11.9897H52.5896Z" fill="#FEFDFD"/>
<path d="M45.2896 9.67018C45.2896 7.81018 45.2896 5.95023 45.2896 4.09023C45.2896 3.96023 45.3095 3.91018 45.4595 3.92018C45.9895 3.92018 46.5296 3.92018 47.0596 3.92018C47.1696 3.92018 47.1995 3.9502 47.1995 4.0602C47.1995 7.8202 47.1995 11.5802 47.1995 15.3402C47.1995 15.4602 47.1596 15.4802 47.0496 15.4802C46.5196 15.4802 45.9895 15.4802 45.4595 15.4802C45.3195 15.4802 45.2896 15.4502 45.2896 15.3102C45.2896 13.4302 45.2896 11.5602 45.2896 9.68019V9.67018Z" fill="#FEFDFD"/>
<path d="M51.0899 11.6799C51.0899 12.8899 51.0899 14.1099 51.0899 15.3199C51.0899 15.4599 51.0399 15.4799 50.9199 15.4799C50.3899 15.4799 49.8599 15.4799 49.3299 15.4799C49.2099 15.4799 49.1899 15.4399 49.1899 15.3299C49.1899 14.2199 49.1899 13.0999 49.1899 11.9899C49.1899 10.6799 49.1899 9.36987 49.1899 8.04987C49.1899 7.90987 49.2299 7.87988 49.3599 7.87988C49.8799 7.87988 50.3999 7.87988 50.9199 7.87988C51.0499 7.87988 51.0699 7.91986 51.0699 8.03986C51.0699 9.24986 51.0699 10.4699 51.0699 11.6799H51.0799H51.0899Z" fill="#FDFCFC"/>
<path d="M60.1797 11.6597C60.1797 10.4597 60.1797 9.24962 60.1797 8.04962C60.1797 7.91962 60.2197 7.88965 60.3397 7.88965C60.8497 7.88965 61.3696 7.88965 61.8796 7.88965C62.0096 7.88965 62.0497 7.91963 62.0497 8.05963C62.0497 9.89963 62.0497 11.7296 62.0497 13.5696C62.0497 14.1596 62.0497 14.7397 62.0497 15.3297C62.0497 15.4497 62.0297 15.4896 61.8997 15.4896C61.3697 15.4896 60.8397 15.4896 60.3097 15.4896C60.1897 15.4896 60.1597 15.4497 60.1597 15.3297C60.1597 14.1097 60.1597 12.8896 60.1597 11.6796L60.1797 11.6597Z" fill="#FEFDFD"/>
<path d="M51.1199 5.23969C51.1599 5.80969 50.5998 6.20971 50.0998 6.19971C49.5698 6.19971 49.1498 5.75968 49.1598 5.22968C49.1598 5.21968 49.1598 5.20971 49.1598 5.19971C49.1798 4.53971 49.5199 4.18969 50.1799 4.17969C50.7299 4.17969 51.1199 4.62969 51.1199 5.23969Z" fill="#FDFCFC"/>
<path d="M61.1399 4.16992C61.7099 4.19992 62.0999 4.54995 62.0999 5.19995C62.0999 5.73995 61.6399 6.19995 61.0999 6.19995C60.5999 6.19995 60.1299 5.69992 60.1299 5.16992C60.1299 4.50992 60.6199 4.17992 61.1499 4.16992H61.1399Z" fill="#FDFCFC"/>
<path d="M9.71972 17.3101C9.41972 15.2201 9.09971 13.1601 8.82971 11.1001C8.73971 10.3701 8.64975 9.64011 8.55975 8.91011C8.54975 8.81011 8.55973 8.74007 8.66973 8.68007C8.84973 8.57007 8.96974 8.39009 9.04974 8.20009C9.27974 7.70009 9.34974 7.16008 9.42974 6.62008C9.44974 6.47008 9.44971 6.31012 9.45971 6.16012C9.45971 6.08012 9.43973 6.04006 9.34973 6.04006C8.51973 6.07006 7.68973 6.15007 6.91973 6.49007C6.81973 6.53007 6.7297 6.51007 6.6297 6.49007C6.2897 6.40007 6.05973 6.08006 6.09973 5.73006C6.13973 5.38006 6.42972 5.10009 6.77972 5.07009C6.83972 5.07009 6.89971 5.08007 6.95971 5.11007C7.72971 5.39007 8.52972 5.51007 9.33972 5.55007C9.45972 5.55007 9.49974 5.53011 9.48974 5.40011C9.42974 4.58011 9.32973 3.76006 9.03973 2.98006C8.95973 2.75006 9.05974 2.52009 9.23974 2.38009C9.46974 2.20009 9.73972 2.13008 10.0297 2.25008C10.3097 2.37008 10.4097 2.6201 10.4597 2.8901C10.4597 2.9301 10.4497 2.97009 10.4297 3.01009C10.1797 3.63009 10.0897 4.28007 10.0297 4.93007C10.0197 5.10007 10.0097 5.26007 9.98974 5.43007C9.98974 5.52007 10.0097 5.55006 10.0997 5.54006C10.9297 5.49006 11.7497 5.42012 12.5197 5.10012C12.6397 5.05012 12.7497 5.07012 12.8697 5.10012C13.1897 5.21012 13.3797 5.50012 13.3597 5.85012C13.3397 6.16012 13.1197 6.42007 12.7997 6.49007C12.7097 6.51007 12.6297 6.52006 12.5397 6.48006C11.9597 6.21006 11.3297 6.12009 10.6997 6.07009C10.4997 6.06009 10.2897 6.05006 10.0897 6.04006C10.0197 6.04006 9.98974 6.05009 9.98974 6.13009C10.0497 6.79009 10.0897 7.4501 10.3297 8.0801C10.4397 8.3601 10.5697 8.61006 10.8697 8.73006C10.9397 8.76006 10.9197 8.81007 10.9197 8.86007C10.8397 9.48007 10.7497 10.1001 10.6697 10.7201C10.5197 11.8301 10.3697 12.9401 10.2097 14.0401C10.0697 15.0701 9.90971 16.1001 9.76971 17.1301C9.75971 17.1801 9.74973 17.2401 9.72973 17.2901L9.71972 17.3101Z" fill="#FDFCFC"/>
<path d="M67.7597 12.6802C67.7597 12.8802 67.7597 13.0702 67.7597 13.2702C67.7597 13.3502 67.7298 13.4302 67.6598 13.4802C67.2398 13.8002 66.8098 14.0802 66.2898 14.1802C65.4498 14.3402 64.9298 13.6602 65.1098 12.9502C65.1798 12.6802 65.3798 12.5002 65.6198 12.3702C65.9698 12.1702 66.3498 12.0902 66.7398 12.0202C67.0298 11.9702 67.3298 11.9602 67.6198 11.9302C67.7398 11.9202 67.7597 11.9602 67.7597 12.0702C67.7597 12.2702 67.7597 12.4702 67.7597 12.6802Z" fill="#FE6601"/>
<path d="M41.6097 12.6694C41.6097 12.8294 41.5997 12.9895 41.6097 13.1495C41.6297 13.3095 41.5597 13.4295 41.4497 13.5295C41.0797 13.8995 40.6097 14.0594 40.1097 14.1694C39.9297 14.2094 39.7397 14.1995 39.5697 14.1295C38.8597 13.8595 38.6897 13.0195 39.2597 12.4995C39.5497 12.2295 39.9097 12.1294 40.2897 12.0494C40.6797 11.9694 41.0797 11.9495 41.4797 11.9395C41.5697 11.9395 41.5997 11.9594 41.5897 12.0494C41.5897 12.2494 41.5897 12.4495 41.5897 12.6595H41.6097V12.6694Z" fill="#FE6601"/>
</g>
</svg>
