<svg width="47" height="41" viewBox="0 0 47 41" fill="none" xmlns="http://www.w3.org/2000/svg">
<path d="M0 40.2226L0.349976 38.1826H0.929993C1.08999 38.1826 1.19998 38.1826 1.25998 38.2126C1.35998 38.2426 1.44 38.2926 1.5 38.3826C1.56 38.4626 1.57999 38.5626 1.57999 38.6826C1.57999 38.8026 1.55 38.9026 1.5 38.9826C1.45 39.0626 1.36998 39.1226 1.25998 39.1626C1.33998 39.1926 1.40999 39.2426 1.45999 39.3126C1.50999 39.3826 1.53998 39.4726 1.53998 39.5626C1.53998 39.6926 1.50998 39.8126 1.44998 39.9226C1.38998 40.0326 1.30999 40.1026 1.20999 40.1526C1.10999 40.2026 0.979988 40.2226 0.799988 40.2226H0ZM0.409973 39.9026H0.75C0.88 39.9026 0.969989 39.9026 1.01999 39.8726C1.06999 39.8526 1.10998 39.8226 1.13998 39.7726C1.16998 39.7226 1.19 39.6626 1.19 39.6026C1.19 39.5326 1.17 39.4726 1.12 39.4326C1.08 39.3926 1.00997 39.3726 0.909973 39.3726H0.48999L0.399994 39.9126L0.409973 39.9026ZM0.559998 39.0126H0.829987C0.949987 39.0126 1.02999 39.0126 1.07999 38.9826C1.12999 38.9626 1.16998 38.9326 1.19998 38.8826C1.22998 38.8326 1.23999 38.7826 1.23999 38.7226C1.23999 38.6726 1.22999 38.6326 1.20999 38.6026C1.18999 38.5726 1.15997 38.5526 1.12997 38.5326C1.09997 38.5226 1.02997 38.5126 0.909973 38.5126H0.639984L0.559998 38.9926V39.0126Z" fill="#213A8E"/>
<path d="M2.00983 38.5227H2.19983L2.01984 39.5627C2.00984 39.6527 1.99985 39.7127 1.99985 39.7527C1.99985 39.8427 2.02984 39.9127 2.08984 39.9727C2.14984 40.0327 2.21982 40.0627 2.31982 40.0627C2.43982 40.0627 2.53984 40.0127 2.61984 39.9127C2.67984 39.8327 2.72984 39.6827 2.76984 39.4527L2.92984 38.5127H3.11984L2.94983 39.5127C2.91983 39.7027 2.86982 39.8527 2.81982 39.9527C2.75982 40.0527 2.68983 40.1227 2.60983 40.1727C2.52983 40.2227 2.43983 40.2427 2.32983 40.2427C2.16983 40.2427 2.04984 40.2027 1.95984 40.1127C1.86984 40.0227 1.81982 39.9027 1.81982 39.7527C1.81982 39.6927 1.82983 39.5927 1.85983 39.4427L2.01984 38.5127L2.00983 38.5227Z" fill="#213A8E"/>
<path d="M3.18994 39.6722L3.37991 39.6522V39.7122C3.37991 39.7922 3.38993 39.8522 3.42993 39.9122C3.44993 39.9522 3.48993 39.9922 3.54993 40.0222C3.60993 40.0522 3.66994 40.0621 3.74994 40.0621C3.85994 40.0621 3.93994 40.0322 3.99994 39.9822C4.05994 39.9222 4.08994 39.8522 4.08994 39.7722C4.08994 39.7122 4.06992 39.6622 4.03992 39.6222C3.99992 39.5822 3.91994 39.5221 3.77994 39.4521C3.66994 39.4021 3.59992 39.3522 3.56992 39.3322C3.49992 39.2822 3.44992 39.2222 3.41992 39.1622C3.38992 39.1022 3.36993 39.0321 3.36993 38.9521C3.36993 38.8121 3.40994 38.7022 3.49994 38.6222C3.58994 38.5422 3.70992 38.4922 3.85992 38.4922C3.96992 38.4922 4.05991 38.5122 4.12991 38.5522C4.20991 38.5922 4.25994 38.6522 4.30994 38.7222C4.34994 38.8022 4.37991 38.8822 4.37991 38.9622V39.0021L4.19992 39.0222V38.9822C4.19992 38.9222 4.18991 38.8722 4.15991 38.8322C4.12991 38.7822 4.08992 38.7522 4.03992 38.7222C3.98992 38.6922 3.92992 38.6822 3.85992 38.6822C3.75992 38.6822 3.68992 38.7021 3.63992 38.7521C3.58992 38.8021 3.55994 38.8622 3.55994 38.9322C3.55994 39.0022 3.57993 39.0522 3.61993 39.0922C3.65993 39.1322 3.75992 39.1922 3.91992 39.2722C4.03992 39.3322 4.11991 39.3822 4.15991 39.4222C4.19991 39.4622 4.22992 39.5121 4.25992 39.5621C4.27992 39.6121 4.28992 39.6822 4.28992 39.7422C4.28992 39.8822 4.23992 40.0022 4.13992 40.1022C4.03992 40.1922 3.90993 40.2422 3.73993 40.2422C3.55993 40.2422 3.42994 40.1922 3.33994 40.1022C3.24994 40.0122 3.19992 39.8622 3.19992 39.6622L3.18994 39.6722Z" fill="#213A8E"/>
<path d="M4.45996 40.2225L4.74997 38.5225H4.93997L4.64996 40.2225H4.45996Z" fill="#213A8E"/>
<path d="M5.00998 40.2225L5.29999 38.5225H5.48999L5.72 39.1625C5.79 39.3525 5.83997 39.5024 5.87997 39.6324C5.90997 39.7224 5.94 39.8325 5.97 39.9625C5.99 39.8125 6.01 39.6725 6.03 39.5225L6.19998 38.5225H6.38998L6.09 40.2225H5.89999L5.54999 39.2425C5.48999 39.0625 5.43997 38.9125 5.40997 38.7825C5.40997 38.8925 5.37999 39.0324 5.35999 39.1924L5.17999 40.2225H5H5.00998Z" fill="#213A8E"/>
<path d="M6.43018 40.2225L6.72018 38.5225H7.73016L7.70016 38.7125H6.87018L6.78018 39.2425H7.58017L7.55017 39.4325H6.75018L6.65018 40.0225H7.53018L7.50018 40.2125H6.43018V40.2225Z" fill="#213A8E"/>
<path d="M7.79004 39.6722L7.98004 39.6522V39.7122C7.98004 39.7922 7.99006 39.8522 8.03006 39.9122C8.05006 39.9522 8.09005 39.9922 8.15005 40.0222C8.21005 40.0522 8.27004 40.0621 8.35004 40.0621C8.46004 40.0621 8.54004 40.0322 8.60004 39.9822C8.66004 39.9222 8.69006 39.8522 8.69006 39.7722C8.69006 39.7122 8.67005 39.6622 8.64005 39.6222C8.60005 39.5822 8.52004 39.5221 8.38004 39.4521C8.28004 39.4021 8.20004 39.3522 8.17004 39.3322C8.10004 39.2822 8.05005 39.2222 8.02005 39.1622C7.99005 39.1022 7.97006 39.0321 7.97006 38.9521C7.97006 38.8121 8.01004 38.7022 8.10004 38.6222C8.19004 38.5422 8.31005 38.4922 8.46005 38.4922C8.57005 38.4922 8.66004 38.5122 8.73004 38.5522C8.80004 38.5922 8.86003 38.6522 8.91003 38.7222C8.95003 38.8022 8.98004 38.8822 8.98004 38.9622V39.0021L8.80005 39.0222V38.9822C8.80005 38.9222 8.79004 38.8722 8.76004 38.8322C8.73004 38.7822 8.69005 38.7522 8.64005 38.7222C8.59005 38.6922 8.53005 38.6822 8.46005 38.6822C8.36005 38.6822 8.29005 38.7021 8.24005 38.7521C8.19005 38.8021 8.16003 38.8622 8.16003 38.9322C8.16003 39.0022 8.18006 39.0522 8.22006 39.0922C8.26006 39.1322 8.36005 39.1922 8.52005 39.2722C8.64005 39.3322 8.72004 39.3822 8.76004 39.4222C8.80004 39.4622 8.83005 39.5121 8.86005 39.5621C8.88005 39.6121 8.89005 39.6822 8.89005 39.7422C8.89005 39.8822 8.84005 40.0022 8.74005 40.1022C8.64005 40.1922 8.51006 40.2422 8.34006 40.2422C8.16006 40.2422 8.03006 40.1922 7.94006 40.1022C7.85006 40.0122 7.80005 39.8622 7.80005 39.6622L7.79004 39.6722Z" fill="#213A8E"/>
<path d="M9.10986 39.6722L9.29987 39.6522V39.7122C9.29987 39.7922 9.30985 39.8522 9.34985 39.9122C9.36985 39.9522 9.40988 39.9922 9.46988 40.0222C9.52988 40.0522 9.58986 40.0621 9.66986 40.0621C9.77986 40.0621 9.85987 40.0322 9.92987 39.9822C9.98987 39.9222 10.0199 39.8522 10.0199 39.7722C10.0199 39.7122 9.99988 39.6622 9.96988 39.6222C9.92988 39.5822 9.84987 39.5221 9.70987 39.4521C9.59987 39.4021 9.52988 39.3522 9.49988 39.3322C9.42988 39.2822 9.37985 39.2222 9.34985 39.1622C9.31985 39.1022 9.29987 39.0321 9.29987 38.9521C9.29987 38.8121 9.33987 38.7022 9.42987 38.6222C9.51987 38.5422 9.63986 38.4922 9.78986 38.4922C9.89986 38.4922 9.98988 38.5122 10.0599 38.5522C10.1299 38.5922 10.1899 38.6522 10.2399 38.7222C10.2799 38.8022 10.3099 38.8822 10.3099 38.9622V39.0021L10.1299 39.0222V38.9822C10.1299 38.9222 10.1199 38.8722 10.0899 38.8322C10.0599 38.7822 10.0199 38.7522 9.96988 38.7222C9.91988 38.6922 9.85986 38.6822 9.78986 38.6822C9.68986 38.6822 9.61985 38.7021 9.56985 38.7521C9.51985 38.8021 9.48987 38.8622 9.48987 38.9322C9.48987 39.0022 9.50987 39.0522 9.54987 39.0922C9.58987 39.1322 9.68985 39.1922 9.84985 39.2722C9.96985 39.3322 10.0499 39.3822 10.0899 39.4222C10.1299 39.4622 10.1599 39.5121 10.1899 39.5621C10.2099 39.6121 10.2199 39.6822 10.2199 39.7422C10.2199 39.8822 10.1699 40.0022 10.0699 40.1022C9.96985 40.1922 9.83986 40.2422 9.66986 40.2422C9.48986 40.2422 9.35987 40.1922 9.26987 40.1022C9.17987 40.0122 9.12985 39.8622 9.12985 39.6622L9.10986 39.6722Z" fill="#213A8E"/>
<path d="M12.04 39.7726H11.3701L11.16 40.2226H10.79L11.7501 38.1826H12.14L12.41 40.2226H12.08L12.0301 39.7726H12.04ZM11.9901 39.4326L11.89 38.6126L11.5201 39.4326H11.9901Z" fill="#213A8E"/>
<path d="M12.6001 40.2225L12.8901 38.5225H13.0801L12.8201 40.0325H13.5701L13.5401 40.2225H12.6001Z" fill="#213A8E"/>
<path d="M13.7002 40.2225L13.9902 38.5225H14.1802L13.9202 40.0325H14.6702L14.6402 40.2225H13.7002Z" fill="#213A8E"/>
<path d="M14.8301 40.2225L15.1201 38.5225H15.3101L15.0201 40.2225H14.8301Z" fill="#213A8E"/>
<path d="M15.25 40.2225L16.05 38.5225H16.27L16.5 40.2225H16.32L16.25 39.7325H15.68L15.45 40.2225H15.25ZM15.76 39.5624H16.23L16.17 39.1324C16.15 38.9624 16.14 38.8225 16.13 38.7125C16.1 38.8125 16.05 38.9224 15.99 39.0624L15.76 39.5624Z" fill="#213A8E"/>
<path d="M16.6902 40.2225L16.9802 38.5225H17.1702L17.4002 39.1625C17.4702 39.3525 17.5202 39.5024 17.5602 39.6324C17.5902 39.7224 17.6202 39.8325 17.6502 39.9625C17.6702 39.8125 17.6902 39.6725 17.7102 39.5225L17.8902 38.5225H18.0802L17.7802 40.2225H17.5902L17.2402 39.2425C17.1802 39.0625 17.1302 38.9125 17.1002 38.7825C17.1002 38.8925 17.0702 39.0324 17.0402 39.1924L16.8602 40.2225H16.6802H16.6902Z" fill="#213A8E"/>
<path d="M19.21 39.623L19.4 39.653C19.34 39.853 19.25 40.003 19.14 40.103C19.03 40.203 18.8999 40.2529 18.7599 40.2529C18.5899 40.2529 18.46 40.1929 18.36 40.0729C18.26 39.9529 18.21 39.773 18.21 39.533C18.21 39.253 18.27 39.0129 18.4 38.8229C18.54 38.6129 18.72 38.5029 18.94 38.5029C19.08 38.5029 19.2 38.5529 19.3 38.6429C19.4 38.7329 19.45 38.873 19.47 39.033L19.3 39.053C19.26 38.813 19.15 38.6929 18.96 38.6929C18.79 38.6929 18.66 38.7729 18.56 38.9429C18.46 39.1129 18.4099 39.303 18.4099 39.533C18.4099 39.713 18.45 39.843 18.52 39.933C18.59 40.023 18.68 40.0629 18.8 40.0629C18.9 40.0629 18.98 40.033 19.05 39.963C19.14 39.883 19.1999 39.763 19.2299 39.623H19.21Z" fill="#213A8E"/>
<path d="M19.54 40.2225L19.83 38.5225H20.8401L20.8101 38.7125H19.98L19.89 39.2425H20.6901L20.66 39.4325H19.86L19.76 40.0225H20.64L20.61 40.2125H19.54V40.2225Z" fill="#213A8E"/>
<path d="M21.3899 40.2223L21.6299 38.8623H22.3499L22.3199 39.0123H21.7499L21.6699 39.4523H22.2599L22.2299 39.6023H21.6399L21.5299 40.2223H21.3799H21.3899Z" fill="#213A8E"/>
<path d="M22.4202 39.653C22.4202 39.403 22.4802 39.203 22.6102 39.043C22.7202 38.903 22.8602 38.833 23.0202 38.833C23.1602 38.833 23.2702 38.883 23.3602 38.993C23.4502 39.103 23.5002 39.253 23.5002 39.443C23.5002 39.593 23.4702 39.733 23.4102 39.863C23.3502 39.993 23.2802 40.083 23.1802 40.143C23.0902 40.203 22.9902 40.233 22.8902 40.233C22.8002 40.233 22.7202 40.213 22.6502 40.163C22.5802 40.113 22.5202 40.053 22.4802 39.953C22.4402 39.863 22.4102 39.753 22.4102 39.633L22.4202 39.653ZM22.5702 39.663C22.5702 39.793 22.6002 39.903 22.6702 39.983C22.7402 40.063 22.8102 40.103 22.9102 40.103C22.9802 40.103 23.0502 40.073 23.1102 40.023C23.1802 39.973 23.2302 39.893 23.2802 39.783C23.3302 39.673 23.3502 39.563 23.3502 39.433C23.3502 39.293 23.3202 39.183 23.2502 39.113C23.1902 39.033 23.1102 38.993 23.0202 38.993C22.9102 38.993 22.8202 39.043 22.7302 39.153C22.6302 39.283 22.5702 39.453 22.5702 39.673V39.663Z" fill="#213A8E"/>
<path d="M23.5798 40.2223L23.8198 38.8623H24.2898C24.3898 38.8623 24.4598 38.8723 24.5098 38.8923C24.5598 38.9123 24.5898 38.9423 24.6098 38.9923C24.6398 39.0523 24.6498 39.1123 24.6498 39.1923C24.6498 39.3123 24.6198 39.4023 24.5498 39.4723C24.4898 39.5423 24.3898 39.5923 24.2698 39.6123C24.3098 39.6523 24.3498 39.6923 24.3698 39.7323C24.4198 39.8123 24.4498 39.8923 24.4798 39.9723L24.5598 40.2323H24.3898L24.3098 39.9823C24.2798 39.8823 24.2498 39.8023 24.2098 39.7423C24.1898 39.7023 24.1598 39.6723 24.1298 39.6623C24.0998 39.6523 24.0598 39.6423 23.9998 39.6423H23.8298L23.7198 40.2423H23.5698L23.5798 40.2223ZM23.8598 39.4723H24.0598C24.1698 39.4723 24.2498 39.4723 24.2898 39.4623C24.3298 39.4623 24.3698 39.4323 24.3998 39.4123C24.4298 39.3923 24.4498 39.3523 24.4698 39.3223C24.4898 39.2823 24.4998 39.2423 24.4998 39.1923C24.4998 39.1523 24.4998 39.1123 24.4798 39.0923C24.4598 39.0623 24.4498 39.0423 24.4198 39.0323C24.3998 39.0223 24.3598 39.0123 24.2998 39.0123H23.9398L23.8598 39.4723Z" fill="#213A8E"/>
<path d="M25.3402 39.5626H25.6702C25.6702 39.6626 25.6902 39.7326 25.7102 39.7726C25.7302 39.8126 25.7602 39.8526 25.8102 39.8726C25.8602 39.8926 25.9202 39.9126 26.0102 39.9126C26.1202 39.9126 26.2002 39.8926 26.2502 39.8426C26.3002 39.7926 26.3302 39.7326 26.3302 39.6626C26.3302 39.6126 26.3102 39.5626 26.2802 39.5226C26.2502 39.4826 26.1702 39.4326 26.0402 39.3626C25.8702 39.2726 25.7602 39.2126 25.7102 39.1626C25.6602 39.1126 25.6102 39.0526 25.5902 38.9826C25.5602 38.9126 25.5502 38.8326 25.5502 38.7426C25.5502 38.5626 25.6002 38.4126 25.7102 38.3026C25.8202 38.1926 25.9702 38.1426 26.1502 38.1426C26.3302 38.1426 26.4902 38.1926 26.6002 38.3026C26.7102 38.4126 26.7702 38.5626 26.7902 38.7626H26.4602C26.4402 38.5726 26.3402 38.4726 26.1502 38.4726C26.0602 38.4726 25.9902 38.4926 25.9402 38.5326C25.9002 38.5726 25.8702 38.6226 25.8702 38.6926C25.8702 38.7526 25.8902 38.8026 25.9302 38.8426C25.9702 38.8826 26.0502 38.9326 26.1802 39.0026C26.3402 39.0826 26.4502 39.1526 26.5002 39.2026C26.5502 39.2526 26.5902 39.3026 26.6202 39.3726C26.6502 39.4426 26.6602 39.5226 26.6602 39.6026C26.6602 39.7926 26.6002 39.9526 26.4802 40.0726C26.3602 40.1926 26.2002 40.2526 25.9902 40.2526C25.8402 40.2526 25.7102 40.2226 25.6002 40.1526C25.4902 40.0926 25.4202 40.0026 25.3802 39.8926C25.3402 39.7826 25.3202 39.6726 25.3302 39.5426L25.3402 39.5626Z" fill="#213A8E"/>
<path d="M26.8599 40.2225L27.1499 38.5225H28.1599L28.1299 38.7125H27.2999L27.2099 39.2425H28.0099L27.9799 39.4325H27.1799L27.0799 40.0225H27.9599L27.9299 40.2125H26.8599V40.2225Z" fill="#213A8E"/>
<path d="M29.27 39.623L29.46 39.653C29.4 39.853 29.31 40.003 29.2 40.103C29.09 40.203 28.96 40.2529 28.82 40.2529C28.65 40.2529 28.52 40.1929 28.42 40.0729C28.32 39.9529 28.27 39.773 28.27 39.533C28.27 39.253 28.33 39.0129 28.46 38.8229C28.6 38.6129 28.78 38.5029 29 38.5029C29.14 38.5029 29.26 38.5529 29.36 38.6429C29.46 38.7329 29.51 38.873 29.53 39.033L29.36 39.053C29.32 38.813 29.21 38.6929 29.02 38.6929C28.85 38.6929 28.72 38.7729 28.62 38.9429C28.52 39.1129 28.47 39.303 28.47 39.533C28.47 39.713 28.51 39.843 28.58 39.933C28.65 40.023 28.74 40.0629 28.86 40.0629C28.96 40.0629 29.04 40.033 29.11 39.963C29.2 39.883 29.26 39.763 29.29 39.623H29.27Z" fill="#213A8E"/>
<path d="M29.9 38.5227H30.09L29.9099 39.5627C29.8999 39.6527 29.89 39.7127 29.89 39.7527C29.89 39.8427 29.9199 39.9127 29.9799 39.9727C30.0399 40.0327 30.11 40.0627 30.21 40.0627C30.33 40.0627 30.4299 40.0127 30.5099 39.9127C30.5699 39.8327 30.6199 39.6827 30.6599 39.4527L30.8199 38.5127H31.0099L30.84 39.5127C30.81 39.7027 30.76 39.8527 30.71 39.9527C30.65 40.0527 30.58 40.1227 30.5 40.1727C30.42 40.2227 30.33 40.2427 30.22 40.2427C30.06 40.2427 29.9399 40.2027 29.8499 40.1127C29.7599 40.0227 29.71 39.9027 29.71 39.7527C29.71 39.6927 29.72 39.5927 29.75 39.4427L29.9099 38.5127L29.9 38.5227Z" fill="#213A8E"/>
<path d="M31.0298 40.2225L31.3198 38.5225H31.9098C32.0398 38.5225 32.1298 38.5324 32.1798 38.5624C32.2398 38.5924 32.2798 38.6325 32.3098 38.6825C32.3498 38.7525 32.3698 38.8425 32.3698 38.9325C32.3698 39.0825 32.3298 39.2025 32.2498 39.2825C32.1698 39.3725 32.0498 39.4225 31.8898 39.4525C31.9398 39.5025 31.9798 39.5425 32.0098 39.5925C32.0698 39.6925 32.1098 39.7925 32.1498 39.8925L32.2598 40.2125H32.0498L31.9498 39.8925C31.9098 39.7725 31.8698 39.6725 31.8198 39.5825C31.7898 39.5325 31.7598 39.4925 31.7298 39.4725C31.6998 39.4525 31.6398 39.4424 31.5698 39.4424H31.3498L31.2198 40.2025H31.0298V40.2225ZM31.3798 39.2825H31.6398C31.7798 39.2825 31.8798 39.2825 31.9298 39.2625C31.9798 39.2525 32.0298 39.2325 32.0598 39.2025C32.0998 39.1725 32.1298 39.1325 32.1498 39.0825C32.1698 39.0325 32.1798 38.9825 32.1798 38.9225C32.1798 38.8725 32.1798 38.8225 32.1498 38.7925C32.1298 38.7525 32.1098 38.7325 32.0798 38.7225C32.0498 38.7125 31.9998 38.7025 31.9298 38.7025H31.4798L31.3798 39.2725V39.2825Z" fill="#213A8E"/>
<path d="M32.4502 40.2225L32.7402 38.5225H33.7502L33.7202 38.7125H32.8902L32.8002 39.2425H33.6002L33.5702 39.4325H32.7702L32.6702 40.0225H33.5502L33.5202 40.2125H32.4502V40.2225Z" fill="#213A8E"/>
<path d="M35.5502 39.4924L35.9002 39.5524C35.8302 39.7924 35.7302 39.9623 35.5902 40.0823C35.4502 40.2023 35.2902 40.2623 35.1102 40.2623C34.9102 40.2623 34.7502 40.1924 34.6302 40.0424C34.5102 39.8924 34.4502 39.6723 34.4502 39.3823C34.4502 39.1323 34.4902 38.9124 34.5802 38.7224C34.6702 38.5324 34.7802 38.3924 34.9102 38.2924C35.0402 38.2024 35.1902 38.1523 35.3402 38.1523C35.5202 38.1523 35.6602 38.2123 35.7802 38.3223C35.9002 38.4323 35.9702 38.6023 35.9902 38.8123L35.6602 38.8524C35.6402 38.7324 35.6002 38.6423 35.5502 38.5923C35.5002 38.5423 35.4302 38.5123 35.3402 38.5123C35.2502 38.5123 35.1702 38.5424 35.0902 38.6024C35.0102 38.6624 34.9402 38.7724 34.8802 38.9124C34.8202 39.0624 34.7902 39.2223 34.7902 39.3923C34.7902 39.5523 34.8202 39.6823 34.8902 39.7723C34.9602 39.8623 35.0402 39.9023 35.1302 39.9023C35.2202 39.9023 35.3002 39.8724 35.3802 39.8024C35.4602 39.7324 35.5102 39.6224 35.5502 39.4824V39.4924Z" fill="#213A8E"/>
<path d="M36.1099 39.5121C36.1099 39.2021 36.1899 38.9521 36.3499 38.7521C36.4899 38.5821 36.6599 38.4922 36.8599 38.4922C37.0299 38.4922 37.1699 38.5621 37.2799 38.6921C37.3899 38.8221 37.4499 39.0121 37.4499 39.2521C37.4499 39.4421 37.4099 39.6222 37.3399 39.7722C37.2699 39.9322 37.1699 40.0422 37.0599 40.1222C36.9499 40.2022 36.8299 40.2422 36.6999 40.2422C36.5899 40.2422 36.4899 40.2122 36.4099 40.1522C36.3199 40.0922 36.2499 40.0122 36.1999 39.8922C36.1399 39.7722 36.1199 39.6421 36.1199 39.5021L36.1099 39.5121ZM36.2899 39.5222C36.2899 39.6822 36.3299 39.8222 36.4099 39.9122C36.4899 40.0122 36.5899 40.0621 36.6999 40.0621C36.7899 40.0621 36.8699 40.0322 36.9499 39.9722C37.0299 39.9122 37.0999 39.8122 37.1599 39.6822C37.2199 39.5522 37.2499 39.4022 37.2499 39.2422C37.2499 39.0722 37.2099 38.9322 37.1299 38.8422C37.0499 38.7422 36.9499 38.6921 36.8399 38.6921C36.7099 38.6921 36.5899 38.7521 36.4799 38.8821C36.3499 39.0421 36.2899 39.2522 36.2899 39.5222Z" fill="#213A8E"/>
<path d="M37.5601 40.2225L37.8401 38.5225H38.07L38.2201 39.6225C38.2401 39.7725 38.25 39.9125 38.26 40.0425C38.3 39.9225 38.3601 39.7724 38.4601 39.5724L38.95 38.5225H39.1801L38.9001 40.2225H38.7201L38.86 39.3925C38.89 39.2025 38.9401 38.9824 39.0001 38.7524C38.9601 38.8624 38.91 38.9825 38.85 39.1125L38.33 40.2225H38.1501L38.0001 39.1324C37.9901 39.0324 37.9801 38.9225 37.9701 38.7825C37.9601 38.9325 37.9401 39.0425 37.9301 39.1425L37.7501 40.2225H37.57H37.5601Z" fill="#213A8E"/>
<path d="M39.2002 40.2225L39.4802 38.5225H39.7102L39.8602 39.6225C39.8802 39.7725 39.8902 39.9125 39.9002 40.0425C39.9402 39.9225 40.0002 39.7724 40.1002 39.5724L40.5902 38.5225H40.8202L40.5402 40.2225H40.3502L40.4902 39.3925C40.5202 39.2025 40.5702 38.9824 40.6302 38.7524C40.5902 38.8624 40.5402 38.9825 40.4802 39.1125L39.9602 40.2225H39.7802L39.6302 39.1324C39.6202 39.0324 39.6102 38.9225 39.6002 38.7825C39.5902 38.9325 39.5702 39.0425 39.5602 39.1425L39.3802 40.2225H39.2002Z" fill="#213A8E"/>
<path d="M40.8398 40.2225L41.1298 38.5225H42.1398L42.1098 38.7125H41.2798L41.1898 39.2425H41.9898L41.9598 39.4325H41.1598L41.0598 40.0225H41.9398L41.9098 40.2125H40.8398V40.2225Z" fill="#213A8E"/>
<path d="M42.1599 40.2225L42.4499 38.5225H43.0399C43.1699 38.5225 43.2599 38.5324 43.3099 38.5624C43.3699 38.5924 43.4099 38.6325 43.4299 38.6825C43.4699 38.7525 43.4899 38.8425 43.4899 38.9325C43.4899 39.0825 43.4499 39.2025 43.3699 39.2825C43.2899 39.3725 43.1699 39.4225 43.0099 39.4525C43.0599 39.5025 43.0999 39.5425 43.1299 39.5925C43.1899 39.6925 43.2299 39.7925 43.2699 39.8925L43.3799 40.2125H43.1699L43.0699 39.8925C43.0299 39.7725 42.9899 39.6725 42.9399 39.5825C42.9099 39.5325 42.8799 39.4925 42.8499 39.4725C42.8199 39.4525 42.7599 39.4424 42.6899 39.4424H42.4699L42.3399 40.2025H42.1499L42.1599 40.2225ZM42.5099 39.2825H42.7699C42.9099 39.2825 43.0099 39.2825 43.0599 39.2625C43.1099 39.2525 43.1599 39.2325 43.1899 39.2025C43.2299 39.1725 43.2599 39.1325 43.2799 39.0825C43.2999 39.0325 43.3099 38.9825 43.3099 38.9225C43.3099 38.8725 43.3099 38.8225 43.2799 38.7925C43.2599 38.7525 43.2399 38.7325 43.2099 38.7225C43.1799 38.7125 43.1299 38.7025 43.0599 38.7025H42.6099L42.5099 39.2725V39.2825Z" fill="#213A8E"/>
<path d="M44.6699 39.623L44.8599 39.653C44.7999 39.853 44.7099 40.003 44.5999 40.103C44.4899 40.203 44.3599 40.2529 44.2199 40.2529C44.0499 40.2529 43.9199 40.1929 43.8199 40.0729C43.7199 39.9529 43.6699 39.773 43.6699 39.533C43.6699 39.253 43.7299 39.0129 43.8599 38.8229C43.9999 38.6129 44.1799 38.5029 44.3999 38.5029C44.5399 38.5029 44.6599 38.5529 44.7599 38.6429C44.8599 38.7329 44.9099 38.873 44.9299 39.033L44.7499 39.053C44.7099 38.813 44.5999 38.6929 44.4099 38.6929C44.2399 38.6929 44.1099 38.7729 44.0099 38.9429C43.9099 39.1129 43.8599 39.303 43.8599 39.533C43.8599 39.713 43.8999 39.843 43.9699 39.933C44.0399 40.023 44.1299 40.0629 44.2499 40.0629C44.3499 40.0629 44.4299 40.033 44.4999 39.963C44.5899 39.883 44.6499 39.763 44.6799 39.623H44.6699Z" fill="#213A8E"/>
<path d="M45.0098 40.2225L45.2998 38.5225H46.3098L46.2798 38.7125H45.4498L45.3598 39.2425H46.1598L46.1298 39.4325H45.3298L45.2298 40.0225H46.1098L46.0798 40.2125H45.0098V40.2225Z" fill="#213A8E"/>
<path d="M23.2602 34.7422C13.7002 34.5922 5.86019 26.6822 5.75019 17.0922C5.64019 7.5022 13.3002 -0.147831 22.8602 0.00216869C32.4202 0.152169 40.2602 8.06219 40.3702 17.6522C40.4802 27.2422 32.8202 34.8922 23.2602 34.7422Z" fill="url(#paint0_linear_1007_5324)"/>
<path d="M19.06 34.1623C3.83996 18.2123 15.0499 1.82227 15.0499 1.82227C15.0499 1.82227 3.44994 16.0823 20.0699 34.4023C19.4099 34.2623 19.43 34.2723 19.06 34.1623Z" fill="url(#paint1_linear_1007_5324)"/>
<path d="M30.1601 33.4127C43.3001 14.2827 26.0801 0.722656 26.0801 0.722656C26.0801 0.722656 42.5401 12.5127 28.9301 33.8727C29.5401 33.6427 30.1501 33.4127 30.1501 33.4127H30.1601Z" fill="url(#paint2_linear_1007_5324)"/>
<path d="M8.34018 26.1024C30.2702 32.8524 40.0202 14.4824 40.0202 14.4824C40.0202 14.4824 29.2902 32.8424 7.66016 24.8824C7.90016 25.4824 8.33018 26.0924 8.34018 26.1024Z" fill="url(#paint3_linear_1007_5324)"/>
<path d="M36.7501 7.15191C16.1301 -1.35809 5.6001 15.7319 5.6001 15.7319C5.6001 15.7319 17.3201 -1.31808 37.7401 8.60192C37.4601 7.96192 36.8401 7.19191 36.7501 7.15191Z" fill="url(#paint4_linear_1007_5324)"/>
<path d="M13.4103 31.5227C29.2403 35.9427 39.3303 23.7627 39.3303 23.7627C39.3303 23.7627 27.9703 36.2927 11.7703 30.2127C11.6803 30.2127 13.2703 31.4827 13.4103 31.5227Z" fill="url(#paint5_linear_1007_5324)"/>
<path d="M28.2702 0.952314C15.2802 -0.337686 7.41016 9.52232 7.41016 9.52232C7.41016 9.52232 17.0502 -1.07764 30.5402 1.93236C30.5402 1.93236 28.4702 0.942314 28.2702 0.952314Z" fill="url(#paint6_linear_1007_5324)"/>
<path d="M20.5103 0.211914C35.1503 14.5119 27.0803 34.3519 27.0803 34.3519" stroke="#00ACE6" stroke-width="0.06" stroke-linecap="round"/>
<path d="M25.57 34.5622C12.1 23.6622 18.6 0.532227 18.6 0.532227" stroke="#00ACE6" stroke-width="0.06" stroke-linecap="round"/>
<path d="M35.2599 8.55252C35.1299 8.91252 34.9699 9.39251 34.7899 9.97251C34.6099 10.5525 34.4599 11.0425 34.3599 11.4525C34.2299 11.5225 34.1299 11.4625 34.0399 11.2825C34.1399 11.0625 34.1899 10.7925 34.1999 10.4625C34.2199 9.8025 33.9599 9.17248 33.4399 8.57248C32.9099 7.97248 32.0699 7.66248 30.8999 7.63248C29.6699 7.60248 28.6499 8.01251 27.8599 8.85251C27.0699 9.69251 26.6599 10.8325 26.6199 12.2625C26.5899 13.3625 26.7799 14.3925 27.1899 15.3625C27.5999 16.3225 28.0599 17.2125 28.5599 18.0325C28.9499 18.6625 29.2699 19.1925 29.5199 19.6225C29.7699 20.0525 29.9699 20.4425 30.1199 20.7925C30.2699 21.1425 30.3699 21.4725 30.4199 21.7925C30.4699 22.1025 30.4999 22.4825 30.4899 22.9225C30.4699 23.6925 30.3099 24.4425 29.9999 25.1625C29.6899 25.8925 29.2899 26.5625 28.7999 27.1725C28.3099 27.7825 27.7699 28.3325 27.1899 28.8125C26.6099 29.2925 26.0399 29.6725 25.4699 29.9525C24.0699 30.6525 22.5199 30.9825 20.8199 30.9425C20.1099 30.9225 19.4099 30.8325 18.7199 30.6725C18.0299 30.5125 17.3999 30.2525 16.8199 29.9125C16.6699 29.8025 16.5299 29.6925 16.4099 29.6025C16.2899 29.5125 16.2099 29.4025 16.1899 29.2925C16.3299 28.6725 16.4899 27.9725 16.6799 27.1825C16.8699 26.4025 17.0299 25.7525 17.1699 25.2425C17.1699 25.1725 17.2199 25.1325 17.3099 25.1325C17.3999 25.1325 17.4499 25.2225 17.4399 25.4125C17.3399 25.7425 17.2899 26.0725 17.2799 26.4025C17.2599 27.4325 17.5899 28.3425 18.2799 29.1525C18.9699 29.9525 20.0499 30.3725 21.5299 30.4125C22.0799 30.4225 22.6499 30.3725 23.2199 30.2625C23.7899 30.1425 24.3099 29.9625 24.7799 29.7225C25.7499 29.2325 26.5699 28.5225 27.2599 27.6025C27.9399 26.6825 28.2999 25.5825 28.3299 24.3025C28.3399 23.6825 28.2399 23.0425 28.0099 22.3925C27.7799 21.7425 27.3199 20.8825 26.6399 19.8025C26.0499 18.8325 25.5999 17.9825 25.2899 17.2425C24.9799 16.5025 24.8399 15.6525 24.8699 14.7025C24.8899 13.7525 25.0899 12.8025 25.4699 11.8525C25.8499 10.9025 26.3099 10.0725 26.8499 9.35251C27.0399 9.10251 27.2999 8.8025 27.6299 8.4625C27.9599 8.1225 28.3599 7.81249 28.8099 7.52249C29.2599 7.24249 29.7899 6.99251 30.3999 6.79251C31.0099 6.58251 31.6799 6.49248 32.4199 6.51248C32.9099 6.52248 33.3899 6.62251 33.8499 6.79251C34.3099 6.97251 34.7199 7.3025 35.0799 7.7825C35.2299 8.0425 35.2999 8.30247 35.2899 8.56247L35.2599 8.55252Z" fill="#213A8E"/>
<path d="M35.5299 7.90175C35.3899 8.28175 35.2299 8.78174 35.0399 9.39174C34.8499 10.0017 34.6999 10.5117 34.5999 10.9417C34.4699 11.0117 34.3599 10.9517 34.2699 10.7617C34.3699 10.5317 34.4199 10.2517 34.4299 9.90175C34.4499 9.21175 34.1799 8.55177 33.6499 7.92177C33.1099 7.29177 32.2399 6.97172 31.0399 6.94172C29.7699 6.91172 28.7399 7.34175 27.9199 8.22175C27.1099 9.10175 26.6799 10.2918 26.6499 11.7918C26.6199 12.9418 26.8199 14.0218 27.2399 15.0318C27.6599 16.0418 28.1299 16.9717 28.6499 17.8317C29.0499 18.4917 29.3699 19.0518 29.6299 19.4918C29.8899 19.9418 30.0899 20.3517 30.2399 20.7117C30.3899 21.0817 30.4899 21.4317 30.5499 21.7517C30.6099 22.0817 30.6299 22.4718 30.6199 22.9318C30.5999 23.7418 30.4299 24.5218 30.1099 25.2818C29.7899 26.0418 29.3799 26.7417 28.8699 27.3817C28.3599 28.0217 27.8099 28.5918 27.2199 29.1018C26.6199 29.6018 26.0399 30.0018 25.4599 30.3018C24.0199 31.0318 22.4299 31.3817 20.6899 31.3417C19.9599 31.3217 19.2399 31.2317 18.5399 31.0617C17.8299 30.8917 17.1799 30.6217 16.5899 30.2717C16.4299 30.1517 16.2899 30.0417 16.1699 29.9417C16.0499 29.8417 15.9699 29.7318 15.9399 29.6218C16.0799 28.9718 16.2499 28.2318 16.4399 27.4118C16.6299 26.5918 16.7999 25.9117 16.9399 25.3817C16.9399 25.3017 16.9899 25.2717 17.0899 25.2717C17.1799 25.2717 17.2299 25.3717 17.2299 25.5617C17.1299 25.9017 17.0699 26.2517 17.0599 26.5917C17.0299 27.6617 17.3799 28.6218 18.0799 29.4718C18.7899 30.3118 19.8999 30.7518 21.4199 30.7918C21.9899 30.8018 22.5699 30.7517 23.1599 30.6317C23.7499 30.5117 24.2799 30.3217 24.7599 30.0617C25.7499 29.5517 26.5999 28.8117 27.2999 27.8417C27.9999 26.8817 28.3699 25.7217 28.3999 24.3817C28.4199 23.7317 28.2999 23.0617 28.0699 22.3817C27.8299 21.7017 27.3599 20.8018 26.6599 19.6718C26.0499 18.6618 25.5899 17.7618 25.2799 16.9918C24.9699 16.2118 24.8199 15.3317 24.8399 14.3317C24.8599 13.3317 25.0699 12.3418 25.4599 11.3518C25.8499 10.3618 26.3199 9.49176 26.8699 8.73176C27.0699 8.47176 27.3299 8.16177 27.6799 7.80177C28.0199 7.44177 28.4199 7.12173 28.8899 6.82173C29.3599 6.52173 29.8999 6.27177 30.5199 6.05177C31.1399 5.83177 31.8299 5.74172 32.5899 5.75172C33.0999 5.76172 33.5799 5.86176 34.0499 6.04176C34.5199 6.22176 34.9399 6.57174 35.3099 7.08174C35.4599 7.35174 35.5299 7.62174 35.5299 7.89174V7.90175Z" fill="white" stroke="#213A8E" stroke-width="0.02"/>
<path d="M5.69019 10.5018C6.67019 10.3018 7.95017 10.1719 9.30017 10.1719C10.7502 10.1719 11.7902 10.3518 12.7102 10.8818C13.6302 11.3518 14.3002 12.2519 14.3002 13.4119C14.3002 15.1419 13.0402 16.2219 11.5302 16.6519V16.7119C12.8602 17.1219 13.6902 18.2019 13.6902 19.7119C13.6902 21.2219 12.8902 22.2619 11.8102 22.9719C10.6502 23.7719 8.91016 24.0919 6.63016 24.0919C5.08016 24.0919 3.84016 23.9919 3.16016 23.8519L5.69019 10.4919V10.5018ZM6.42017 21.7618C6.77017 21.8018 7.11016 21.8019 7.54016 21.8019C9.13016 21.8019 10.5802 21.1718 10.5802 19.6418C10.5802 18.2718 9.44016 17.8719 8.07016 17.8719H7.15018L6.42017 21.7719V21.7618ZM7.60016 15.7219H8.58017C10.1902 15.7219 11.2902 15.0519 11.2902 13.8619C11.2902 12.8819 10.4902 12.4518 9.37018 12.4518C8.86018 12.4518 8.43017 12.4919 8.21017 12.5319L7.60016 15.7119V15.7219Z" fill="#213A8E"/>
<path d="M17.8999 20.4427L16.2899 24.0127H13.1499L19.8599 10.2627H23.6299L25.2199 24.0127H22.1399L21.8499 20.4427H17.8899H17.8999ZM21.7299 18.1927L21.4699 15.2327C21.4099 14.4827 21.3499 13.3727 21.2899 12.5427H21.2299C20.8799 13.3827 20.4999 14.4427 20.1299 15.2327L18.7799 18.1927H21.7399H21.7299Z" fill="#213A8E"/>
<path d="M41.5499 23.5326C40.8199 23.8626 39.5899 24.1226 37.9399 24.1226C34.2899 24.1226 31.8599 21.9226 31.8599 18.2926C31.8599 15.1726 33.2499 12.7626 35.3299 11.3826C36.7599 10.4026 38.4299 9.93262 40.3699 9.93262C41.8599 9.93262 42.9799 10.2826 43.3899 10.5026L42.5699 12.8926C42.1799 12.6926 41.2599 12.4426 40.0799 12.4426C38.8999 12.4426 37.7699 12.8126 36.9399 13.5026C35.7999 14.4626 35.0399 16.0326 35.0399 17.9526C35.0399 20.1526 36.2799 21.6226 38.6899 21.6226C39.6699 21.6226 40.6299 21.4626 41.2999 21.1726L41.5399 23.5426L41.5499 23.5326Z" fill="#213A8E"/>
<defs>
<linearGradient id="paint0_linear_1007_5324" x1="-2.67902" y1="86.6384" x2="-17.5154" y2="117.563" gradientUnits="userSpaceOnUse">
<stop stop-color="#EDF3F8"/>
<stop offset="0.81" stop-color="#0092D5"/>
<stop offset="1" stop-color="#213A8E"/>
</linearGradient>
<linearGradient id="paint1_linear_1007_5324" x1="-27.7339" y1="18.3146" x2="-18.8779" y2="18.8191" gradientUnits="userSpaceOnUse">
<stop stop-color="#ECF3F8"/>
<stop offset="0.5" stop-color="#0092D5"/>
<stop offset="1" stop-color="#283C8F"/>
</linearGradient>
<linearGradient id="paint2_linear_1007_5324" x1="36.5273" y1="13.0632" x2="26.5782" y2="15.6103" gradientUnits="userSpaceOnUse">
<stop stop-color="#ECF3F8"/>
<stop offset="0.5" stop-color="#0092D5"/>
<stop offset="1" stop-color="#283C8F"/>
</linearGradient>
<linearGradient id="paint3_linear_1007_5324" x1="28.2746" y1="24.1278" x2="26.2327" y2="16.8488" gradientUnits="userSpaceOnUse">
<stop stop-color="#ECF3F8"/>
<stop offset="0.5" stop-color="#0092D5"/>
<stop offset="1" stop-color="#283C8F"/>
</linearGradient>
<linearGradient id="paint4_linear_1007_5324" x1="35.7029" y1="50.8348" x2="37.2166" y2="58.2417" gradientUnits="userSpaceOnUse">
<stop stop-color="#ECF3F8"/>
<stop offset="0.5" stop-color="#0092D5"/>
<stop offset="1" stop-color="#283C8F"/>
</linearGradient>
<linearGradient id="paint5_linear_1007_5324" x1="33.2275" y1="18.744" x2="32.6949" y2="11.2027" gradientUnits="userSpaceOnUse">
<stop stop-color="#ECF3F8"/>
<stop offset="0.5" stop-color="#0092D5"/>
<stop offset="1" stop-color="#283C8F"/>
</linearGradient>
<linearGradient id="paint6_linear_1007_5324" x1="21.9825" y1="1.45503" x2="22.5974" y2="8.68655" gradientUnits="userSpaceOnUse">
<stop stop-color="#ECF3F8"/>
<stop offset="0.5" stop-color="#0092D5"/>
<stop offset="1" stop-color="#283C8F"/>
</linearGradient>
</defs>
</svg>
