<svg width="110" height="29" viewBox="0 0 110 29" fill="none" xmlns="http://www.w3.org/2000/svg">
<path d="M7.70162 14.4831C7.2082 14.4831 6.71225 14.4831 6.21883 14.4831C6.04929 14.4831 5.85446 14.511 5.75578 14.3364C5.63179 14.1188 5.82916 13.9897 5.94556 13.8556C7.59283 11.9907 9.25021 10.1334 10.895 8.266C11.6946 7.35759 12.5422 6.49221 13.2558 5.51042C14.483 3.82519 14.2047 2.07923 12.5271 0.829224C12.4031 0.738131 12.274 0.65716 12.145 0.573658C11.978 0.464852 11.8211 0.340863 11.9425 0.120721C12.0564 -0.0817094 12.2411 0.0220356 12.4005 0.065052C14.4375 0.634386 15.9152 2.49674 16.1404 4.65515C16.3429 6.60101 15.5964 8.2002 14.4172 9.63493C13.2685 11.0292 12.0463 12.3601 10.8545 13.7215C10.3585 14.2883 9.72341 14.5084 8.98201 14.4831C8.5569 14.4679 8.12926 14.4806 7.70415 14.4806L7.70162 14.4831Z" fill="#1D2D4F"/>
<path d="M0.00193398 14.6706C-0.0360216 13.3802 0.48777 12.1251 1.30255 11.0067C2.55509 9.27842 4.07078 7.77032 5.47767 6.17112C5.84457 5.75614 6.35065 5.58407 6.90227 5.57901C7.94226 5.57142 8.98223 5.57395 10.0222 5.57901C10.169 5.57901 10.3486 5.53852 10.4347 5.70553C10.5409 5.91049 10.3588 6.01677 10.2525 6.13822C8.00551 8.67872 5.756 11.2192 3.51156 13.7622C3.29901 14.0052 3.10165 14.2633 2.91693 14.5289C1.69223 16.28 2.02118 18.0816 3.77473 19.3139C3.97463 19.4556 4.40479 19.5214 4.24284 19.868C4.06319 20.2527 3.72412 19.9364 3.48373 19.8655C1.67957 19.324 0.249908 17.4718 0.0626605 15.4778C0.0424175 15.2577 0.0297681 15.035 0.00193398 14.6757V14.6706Z" fill="#1D2D4F"/>
<path d="M24.944 13.324C25.1186 13.2025 25.1388 13.0051 25.2046 12.8356C25.9992 10.7835 26.8038 8.7364 27.5705 6.67414C27.735 6.23133 27.945 6.07444 28.4207 6.09215C29.4228 6.13011 29.4253 6.10228 29.4253 7.09418C29.4253 9.29561 29.4253 11.4945 29.4253 13.6959C29.4253 14.2239 29.2111 14.4879 28.7826 14.4879C28.1627 14.4879 28.1601 14.4879 28.1627 13.7187C28.1677 12.0309 28.1778 10.3407 28.1829 8.6529C28.1829 8.55674 28.2183 8.45046 28.1019 8.34672C27.9425 8.46312 27.9172 8.65543 27.8539 8.8199C27.1986 10.5406 26.5356 12.2587 25.9056 13.992C25.7639 14.3817 25.5741 14.5132 25.1641 14.4955C23.8914 14.4399 24.2102 14.7081 23.7851 13.4809C23.2588 11.9677 22.7578 10.4419 22.2416 8.92618C22.1859 8.75917 22.1859 8.55421 21.9329 8.40239C21.9481 8.76676 21.9733 9.078 21.9759 9.39176C21.9809 10.9277 21.9607 12.4611 21.9911 13.997C22.0012 14.4905 21.7558 14.5082 21.3939 14.4905C21.0574 14.4753 20.7284 14.5689 20.7335 14.0046C20.7588 11.5325 20.7512 9.05776 20.7385 6.58558C20.7385 6.20855 20.8499 6.08962 21.2345 6.09215C22.4061 6.09721 22.4061 6.08203 22.778 7.17262C23.4207 9.06281 24.0609 10.9505 24.7087 12.8381C24.7669 13.0051 24.7719 13.2076 24.9516 13.324H24.944Z" fill="#1D2D4F"/>
<path d="M108.613 12.8155C108.788 12.565 108.727 12.3727 108.727 12.193C108.73 10.3509 108.75 8.50878 108.714 6.6692C108.704 6.11252 108.955 6.09481 109.385 6.08974C109.838 6.08215 110.005 6.19602 110 6.68438C109.974 9.10595 109.98 11.5275 109.997 13.9491C110 14.3742 109.871 14.5032 109.446 14.4982C108.251 14.483 108.251 14.5007 107.672 13.443C106.756 11.7679 105.842 10.0903 104.921 8.41769C104.835 8.26081 104.787 8.0685 104.613 7.96222C104.471 8.04067 104.524 8.17224 104.524 8.28105C104.524 10.1738 104.514 12.0665 104.549 13.9592C104.559 14.4577 104.342 14.5058 103.94 14.5007C103.54 14.4957 103.282 14.4931 103.289 13.9491C103.32 11.5098 103.312 9.07306 103.294 6.63378C103.292 6.20867 103.433 6.1277 103.843 6.08468C104.651 5.99865 105.086 6.29723 105.453 7.02598C106.341 8.79218 107.333 10.5052 108.282 12.2411C108.378 12.4182 108.484 12.5903 108.616 12.818L108.613 12.8155Z" fill="#1D2D4F"/>
<path d="M57.6514 26.2057C57.6514 25.0949 57.6514 24.0903 57.6514 23.0857C57.6514 22.0964 57.6767 21.107 57.6413 20.1176C57.6236 19.6343 57.7475 19.48 58.2561 19.4749C58.7825 19.4698 58.9065 19.6267 58.9014 20.1379C58.8736 22.524 58.8786 24.9127 58.9014 27.3013C58.9065 27.7492 58.7673 27.8454 58.3295 27.8935C57.4566 27.9921 56.996 27.6607 56.6063 26.8788C55.7334 25.1227 54.7516 23.4223 53.8128 21.7016C53.7319 21.5549 53.6433 21.4106 53.5395 21.2335C53.3675 21.4005 53.4383 21.5776 53.4358 21.7295C53.4358 23.5893 53.4181 25.4466 53.451 27.3064C53.4586 27.81 53.2333 27.853 52.8411 27.8479C52.4616 27.8428 52.1908 27.8302 52.1934 27.3165C52.2136 24.8772 52.2086 22.438 52.1959 20.0012C52.1959 19.6267 52.325 19.523 52.6969 19.485C53.5168 19.3965 54.0051 19.6394 54.3973 20.439C55.2652 22.2128 56.2698 23.9233 57.2238 25.6566C57.3174 25.8287 57.3832 26.0235 57.6564 26.2082L57.6514 26.2057Z" fill="#1D2D4F"/>
<path d="M61.0925 10.3329C61.0368 12.0713 60.465 13.4857 58.7975 14.2525C57.2388 14.9685 55.1158 14.675 54.0176 13.5591C53.1598 12.6836 52.8587 11.5804 52.846 10.381C52.8081 6.94979 56.1557 4.89006 59.1644 6.49179C60.3663 7.13198 60.8471 8.22004 61.0343 9.48776C61.0773 9.77369 61.0748 10.0647 61.0925 10.3329ZM59.8476 10.3051C59.8349 9.89515 59.797 9.48776 59.6882 9.09049C59.3592 7.87844 58.5293 7.19524 57.2261 7.05607C56.0495 6.93208 54.9766 7.45839 54.4882 8.45283C53.9822 9.48016 53.9644 10.5632 54.2959 11.6411C54.7666 13.1745 56.1785 13.9134 57.7322 13.4756C59.1239 13.0859 59.8425 12.0055 59.8476 10.3025V10.3051Z" fill="#1D2D4F"/>
<path d="M29.9261 23.6171C29.8806 25.3858 29.329 26.818 27.6792 27.61C26.2799 28.2831 23.6736 28.2502 22.4185 26.4182C21.5177 25.1024 21.2722 22.2532 22.6766 20.7147C23.8887 19.3863 26.2444 18.9334 27.955 19.8342C29.1771 20.4769 29.7085 21.5903 29.8831 22.9061C29.916 23.1591 29.9135 23.4172 29.9261 23.6171ZM28.6609 23.6753C28.7065 23.0908 28.5724 22.4784 28.289 21.9015C27.7956 20.8944 26.9504 20.4263 25.8548 20.4162C24.7768 20.406 23.8659 20.7704 23.3421 21.775C22.7652 22.8807 22.7525 24.0422 23.1928 25.1935C23.6356 26.355 24.6275 27.0027 25.8016 26.9597C27.1427 26.9091 28.0764 26.2461 28.4813 25.0467C28.6255 24.6216 28.6711 24.1814 28.6609 23.6753Z" fill="#1D2D4F"/>
<path d="M77.7227 10.2575C77.6847 11.6568 77.3735 12.8815 76.2677 13.7343C74.9089 14.7819 73.3603 14.8881 71.8117 14.3163C70.3821 13.7874 69.709 12.588 69.5293 11.1204C69.3623 9.76159 69.5167 8.46604 70.458 7.37292C71.4878 6.17858 73.5602 5.66492 75.1619 6.21401C76.6574 6.72767 77.5961 8.046 77.6999 9.77171C77.71 9.95896 77.7176 10.1462 77.7227 10.2601V10.2575ZM76.4626 10.3765C76.4626 9.94884 76.4195 9.52627 76.3107 9.11129C75.9792 7.8461 75.0683 7.12241 73.712 7.04397C72.4342 6.97059 71.3917 7.62849 70.9489 8.81523C70.6351 9.65532 70.6401 10.5182 70.8375 11.3836C71.2196 13.0561 72.7429 13.9519 74.3927 13.4737C75.7389 13.084 76.4626 12.001 76.4626 10.3765Z" fill="#1D2D4F"/>
<path d="M40.5234 23.643C40.5234 22.4132 40.5335 21.186 40.5158 19.9563C40.5108 19.6071 40.6069 19.4755 40.9738 19.4881C41.8443 19.5134 42.7147 19.4856 43.5852 19.5058C44.8099 19.5362 45.6601 20.1384 45.9637 21.1632C46.3205 22.3626 45.9637 23.4153 44.9592 24.1288C44.82 24.2275 44.6251 24.2933 44.7871 24.5135C45.2957 25.1941 45.7183 25.9482 46.3888 26.4973C46.5457 26.6263 46.7304 26.7225 46.9151 26.8085C47.3959 27.0312 47.4845 27.35 47.2061 27.8181C47.0973 28.0003 46.9607 27.9598 46.8089 27.9371C45.9637 27.8004 45.3488 27.2994 44.8427 26.6542C44.4429 26.1455 44.0659 25.6142 43.7243 25.0651C43.5042 24.7134 43.2461 24.6121 42.8387 24.645C41.7861 24.726 41.7835 24.7058 41.7835 25.7736C41.7835 26.3379 41.7709 26.8996 41.7886 27.4639C41.7987 27.7802 41.6646 27.8713 41.366 27.8789C40.5234 27.9067 40.5234 27.9168 40.5234 27.0742C40.5234 25.9305 40.5234 24.7867 40.5234 23.6455V23.643ZM41.7835 22.0691C41.7835 23.8353 41.8417 23.891 43.4207 23.6253C44.4101 23.4583 44.8731 22.8788 44.8124 21.8819C44.7592 20.9962 44.2962 20.5813 43.2866 20.5155C43.1499 20.5079 43.0133 20.5028 42.8766 20.5028C42.1479 20.4944 41.7835 20.8461 41.7835 21.558C41.7835 21.7275 41.7835 21.8996 41.7835 22.0691Z" fill="#1D2D4F"/>
<path d="M45.4172 10.2593C45.4172 9.04727 45.4273 7.83522 45.4096 6.6257C45.4045 6.24614 45.488 6.06902 45.9156 6.09179C46.9202 6.14746 47.9298 6.02347 48.9293 6.18542C50.0073 6.36001 50.6551 6.942 50.8904 7.93643C51.1637 9.09282 50.8372 10.0898 49.9187 10.6819C49.5721 10.9071 49.5847 11.0564 49.8175 11.3398C50.1844 11.7877 50.5184 12.2634 50.8651 12.729C51.1282 13.0832 51.4749 13.3616 51.8848 13.4678C52.3833 13.5969 52.2542 13.8626 52.1783 14.1941C52.0898 14.5964 51.8671 14.6065 51.5407 14.523C50.8549 14.3459 50.2806 13.9967 49.8504 13.44C49.4228 12.8858 49.0078 12.3216 48.6333 11.732C48.4005 11.3676 48.1373 11.2563 47.7072 11.2917C46.6545 11.3777 46.652 11.355 46.652 12.4C46.652 12.9643 46.6419 13.526 46.6545 14.0878C46.6621 14.394 46.5558 14.5357 46.2395 14.5028C46.1383 14.4926 46.0321 14.4901 45.9334 14.5028C45.5336 14.5584 45.3994 14.399 45.407 13.9942C45.4298 12.7492 45.4146 11.5043 45.4146 10.2568L45.4172 10.2593ZM46.6773 8.69049C46.6773 9.09788 46.6773 9.5078 46.6773 9.91519C46.6773 10.0847 46.6647 10.2872 46.9101 10.2872C47.5376 10.2897 48.1702 10.3656 48.775 10.1176C49.4936 9.82409 49.772 9.275 49.6631 8.37166C49.5771 7.65556 49.195 7.27854 48.4283 7.17226C48.2436 7.14696 48.0564 7.13684 47.8691 7.13431C47.0712 7.11744 46.6722 7.50037 46.6722 8.28309C46.6722 8.41973 46.6722 8.55638 46.6722 8.69049H46.6773Z" fill="#1D2D4F"/>
<path d="M67.4136 25.6726C67.4136 26.1838 67.4035 26.6949 67.4161 27.206C67.4237 27.4641 67.3402 27.6311 67.0771 27.6919C65.6271 28.0158 64.1823 28.1904 62.7729 27.5249C61.576 26.9606 60.9409 25.9611 60.746 24.6959C60.5386 23.3346 60.6423 22.0036 61.5052 20.8396C62.3377 19.7187 63.5371 19.4201 64.8427 19.3796C65.5285 19.3594 66.2015 19.4555 66.8594 19.6605C67.1251 19.744 67.2972 19.8553 67.1403 20.1665C67.0087 20.4246 67.0644 20.8751 66.5406 20.7005C65.8321 20.4651 65.1034 20.4297 64.367 20.5208C63.1196 20.6751 62.282 21.3837 62.029 22.6134C61.7835 23.8002 61.8366 24.9692 62.7096 25.9358C63.5674 26.8847 64.6884 26.9758 65.865 26.829C66.1434 26.7936 66.151 26.5886 66.151 26.371C66.151 25.622 66.1611 24.8705 66.1484 24.1215C66.1434 23.8128 66.2572 23.7116 66.5659 23.704C67.4161 23.6838 67.4161 23.6711 67.4161 24.496C67.4161 24.8882 67.4161 25.2804 67.4161 25.6726H67.4136Z" fill="#1D2D4F"/>
<path d="M38.3775 22.4335C38.3775 23.1319 38.3902 23.8328 38.3775 24.5312C38.3244 26.9578 36.8289 28.2508 34.4074 27.9725C32.6614 27.7726 31.6872 26.7705 31.6391 25.0094C31.5911 23.3216 31.629 21.6339 31.6138 19.9461C31.6088 19.3211 32.0566 19.5387 32.3729 19.4982C32.7171 19.4552 32.8967 19.5413 32.8891 19.9588C32.8638 21.3733 32.879 22.7877 32.8815 24.2047C32.8815 24.4274 32.8815 24.6476 32.8967 24.8702C33.0106 26.4087 33.9165 27.1299 35.4473 26.9072C36.29 26.7832 36.8719 26.2468 37.0617 25.4092C37.1832 24.8728 37.1731 24.3262 37.1731 23.7796C37.1731 22.5018 37.1958 21.2214 37.1629 19.9436C37.1503 19.4426 37.4337 19.4831 37.7475 19.5008C38.041 19.516 38.418 19.3641 38.3952 19.9284C38.3598 20.7634 38.3851 21.5985 38.3851 22.4335H38.3826H38.3775Z" fill="#1D2D4F"/>
<path d="M101.245 14.485C100.787 14.6293 100.61 14.3206 100.481 13.8676C100.299 13.23 100.058 12.6075 99.8608 11.9749C99.7748 11.694 99.6432 11.5473 99.3244 11.5549C98.5577 11.5726 97.791 11.5701 97.0243 11.5549C96.7333 11.5498 96.5992 11.6763 96.5055 11.9344C96.2525 12.6404 95.9818 13.3388 95.7135 14.0397C95.5718 14.4117 94.8153 14.6773 94.4888 14.4673C94.3294 14.3661 94.4104 14.2244 94.456 14.103C94.6584 13.5615 94.8659 13.02 95.0708 12.4785C95.8198 10.5022 96.5789 8.53107 97.3102 6.54979C97.4392 6.20059 97.6164 6.09179 97.9782 6.09685C99.1295 6.1095 99.127 6.09685 99.5015 7.1925C100.263 9.4167 101.025 11.6409 101.786 13.8651C101.93 14.2818 101.748 14.4901 101.242 14.4901L101.245 14.485ZM98.3325 7.21021C98.2844 7.20515 98.2363 7.20009 98.1883 7.19503C97.8213 8.23248 97.4544 9.26994 97.0875 10.3074C97.0141 10.5174 97.1255 10.5857 97.3153 10.5857C97.8947 10.5857 98.4716 10.5857 99.0511 10.5857C99.2814 10.5857 99.3547 10.4896 99.2864 10.2669C98.9676 9.24716 98.6513 8.22742 98.335 7.20768L98.3325 7.21021Z" fill="#1D2D4F"/>
<path d="M31.667 10.2775C31.667 9.05023 31.6771 7.823 31.6594 6.59577C31.6543 6.22634 31.758 6.08463 32.1502 6.09222C33.4104 6.115 34.673 6.11753 35.9357 6.09222C36.3659 6.0821 36.4367 6.25164 36.4468 6.6312C36.4595 7.0563 36.2925 7.14992 35.9079 7.1398C35.0551 7.11703 34.2024 7.14486 33.3497 7.12715C33.0207 7.12209 32.8891 7.23089 32.8992 7.56743C32.917 8.1646 32.917 8.76177 32.8992 9.35641C32.8891 9.69801 33.0308 9.79923 33.3547 9.79163C34.1568 9.77645 34.959 9.80935 35.7585 9.77898C36.1735 9.7638 36.1786 9.98394 36.1862 10.2851C36.1938 10.6039 36.1457 10.7962 35.7484 10.781C34.9488 10.7557 34.1467 10.7861 33.3446 10.7684C33.0131 10.7608 32.8917 10.8822 32.8992 11.2137C32.917 11.8109 32.9195 12.408 32.8992 13.0027C32.8866 13.3721 33.0485 13.4632 33.3876 13.4581C34.3415 13.443 35.298 13.4708 36.252 13.4455C36.6923 13.4328 36.6973 13.6707 36.6973 13.9921C36.6973 14.3084 36.6594 14.4981 36.2596 14.4905C34.878 14.4703 33.4964 14.4703 32.1174 14.4905C31.7429 14.4956 31.6568 14.3488 31.6594 14.0098C31.672 12.7648 31.6644 11.5199 31.6644 10.2775H31.667Z" fill="#1D2D4F"/>
<path d="M62.874 10.2624C62.874 9.05039 62.8841 7.84087 62.8664 6.62882C62.8614 6.24926 62.9449 6.07213 63.375 6.09238C64.2252 6.13033 65.083 6.06708 65.9307 6.1354C68.0309 6.29987 69.1089 8.39502 68.0664 10.2346C67.5375 11.1708 65.9256 11.8768 64.8604 11.6516C64.4479 11.5656 64.6529 11.2493 64.6225 11.0317C64.5922 10.8318 64.5922 10.604 64.9085 10.6091C65.2829 10.6116 65.6574 10.599 66.0218 10.4876C66.8189 10.2447 67.2238 9.55646 67.1301 8.58986C67.0466 7.71941 66.6013 7.24623 65.7435 7.1602C65.3715 7.12224 64.992 7.1602 64.62 7.1273C64.2075 7.08935 64.0987 7.25635 64.1012 7.65109C64.1164 9.68045 64.1088 11.7098 64.1088 13.7392C64.1088 14.435 63.709 14.7108 63.0587 14.473C62.8057 14.3819 62.8791 14.1693 62.8791 13.9973C62.8715 12.7523 62.8766 11.5074 62.8766 10.2624H62.874Z" fill="#1D2D4F"/>
<path d="M17.2541 24.1842C17.2541 23.129 17.2439 22.0713 17.2591 21.0161C17.2642 20.6695 17.1579 20.5252 16.7935 20.5404C16.1812 20.5632 15.5663 20.5278 14.9539 20.5505C14.5137 20.5683 14.5668 20.2849 14.5618 20.0116C14.5567 19.7282 14.5289 19.4853 14.9641 19.4903C16.9074 19.5106 18.8482 19.5106 20.7915 19.4903C21.2116 19.4853 21.204 19.7079 21.2065 20.004C21.2065 20.3178 21.209 20.5758 20.7637 20.5531C20.169 20.5227 19.5694 20.5683 18.9747 20.5379C18.585 20.5202 18.4813 20.6644 18.4838 21.0389C18.499 23.1163 18.4939 25.1963 18.4863 27.2738C18.4863 27.4661 18.5901 27.7495 18.3598 27.8279C18.041 27.9367 17.6792 27.9291 17.3553 27.8254C17.1984 27.7748 17.2566 27.5546 17.2566 27.4053C17.2541 26.3325 17.2566 25.2596 17.2566 24.1867L17.2541 24.1842Z" fill="#1D2D4F"/>
<path d="M90.9891 10.8013C90.9891 9.74363 90.979 8.68593 90.9942 7.62824C90.9992 7.27905 90.8828 7.13987 90.5235 7.15253C89.9263 7.17277 89.3292 7.14241 88.732 7.16265C88.3322 7.17783 88.2462 6.99311 88.2639 6.63633C88.2791 6.3175 88.2765 6.08977 88.7143 6.09483C90.6247 6.11507 92.5352 6.11507 94.4456 6.09483C94.8606 6.08977 94.9137 6.26942 94.9188 6.61862C94.9238 6.99058 94.8505 7.19048 94.4203 7.16771C93.8585 7.13734 93.2943 7.18542 92.7325 7.15253C92.315 7.12975 92.2163 7.29929 92.2188 7.68643C92.234 9.75122 92.229 11.8135 92.2188 13.8783C92.2188 14.0807 92.3428 14.3843 92.0594 14.4577C91.7533 14.5387 91.4066 14.5513 91.103 14.4425C90.9284 14.3793 90.9916 14.1414 90.9891 13.9769C90.9866 12.9193 90.9891 11.8616 90.9891 10.8039V10.8013Z" fill="#1D2D4F"/>
<path d="M40.2149 10.8222C40.2149 9.76699 40.2022 8.7093 40.2199 7.65413C40.2275 7.27458 40.0909 7.14046 39.7164 7.15312C39.1369 7.17336 38.5574 7.14047 37.978 7.16324C37.5529 7.17842 37.5251 6.9431 37.5225 6.61162C37.52 6.26749 37.5757 6.08783 37.9932 6.09289C39.8859 6.11313 41.7761 6.11313 43.6688 6.09289C44.0737 6.08783 44.1496 6.24978 44.1496 6.60656C44.1496 6.97346 44.0889 7.18095 43.6562 7.16071C43.0944 7.13287 42.5301 7.17589 41.9684 7.14806C41.5661 7.12782 41.4396 7.27204 41.4421 7.67184C41.4573 9.7341 41.4522 11.7964 41.4421 13.8561C41.4421 14.0585 41.5635 14.3571 41.2953 14.4431C40.9917 14.5393 40.6476 14.5317 40.3388 14.4406C40.1415 14.3824 40.2174 14.1445 40.2149 13.9851C40.2073 12.93 40.2123 11.8723 40.2098 10.8171L40.2149 10.8222Z" fill="#1D2D4F"/>
<path d="M79.4912 10.2494C79.4912 9.02216 79.5165 7.79493 79.4785 6.5677C79.4634 6.02873 79.7847 6.10717 80.1061 6.09958C80.4426 6.09199 80.7412 6.06415 80.7361 6.57782C80.7159 8.62236 80.726 10.6694 80.7286 12.714C80.7286 13.1863 80.958 13.4233 81.4168 13.425C82.1835 13.425 82.9527 13.4503 83.7169 13.4174C84.18 13.3972 84.2356 13.6072 84.2483 13.9969C84.2635 14.4397 84.0636 14.4954 83.6967 14.4903C82.4872 14.4751 81.2751 14.4574 80.0656 14.4954C79.5646 14.5105 79.471 14.3208 79.4811 13.8779C79.5064 12.6684 79.4887 11.4564 79.4887 10.2469L79.4912 10.2494Z" fill="#1D2D4F"/>
<path d="M48.7624 23.6586C48.7624 22.4162 48.7801 21.1712 48.7523 19.9288C48.7421 19.4809 48.98 19.4683 49.2937 19.4961C49.5974 19.5239 50.0073 19.3417 50.0048 19.9313C49.9921 22.4339 49.9921 24.9389 50.0048 27.4415C50.0073 27.9501 49.6784 27.8615 49.3849 27.859C49.0913 27.8565 48.7522 27.945 48.7573 27.4389C48.775 26.1788 48.7624 24.9187 48.7624 23.6586Z" fill="#1D2D4F"/>
<path d="M87.039 10.2604C87.039 11.5028 87.0137 12.7452 87.0516 13.9877C87.0668 14.5241 86.7733 14.4887 86.414 14.4963C86.0268 14.5064 85.789 14.4786 85.794 13.9674C85.8193 11.5155 85.8193 9.06608 85.794 6.61415C85.789 6.08024 86.0724 6.11313 86.4317 6.10554C86.8163 6.09795 87.0694 6.11819 87.0542 6.63439C87.0162 7.84138 87.0415 9.0509 87.0415 10.2604H87.039Z" fill="#1D2D4F"/>
</svg>
