<svg width="114" height="32" viewBox="0 0 114 32" fill="none" xmlns="http://www.w3.org/2000/svg">
<path d="M5.51153 6.69683C4.93491 11.7775 4.36469 16.7333 3.8265 21.6922C3.77205 22.1888 3.61191 22.3169 3.1442 22.3009C2.24083 22.2689 1.33746 22.2817 0.434087 22.2945C0.0817061 22.3009 -0.0400474 22.2208 0.011208 21.8236C0.853719 15.359 1.68983 8.8944 2.5003 2.42981C2.55797 1.9589 2.69247 1.78592 3.17619 1.79874C4.32944 1.83077 5.48591 1.82437 6.63915 1.79874C7.03318 1.78913 7.23498 1.92367 7.34069 2.29206C8.58364 6.6744 10.0605 10.9895 11.2137 15.3974C11.281 15.6537 11.2073 15.9452 11.4796 16.2656C11.7519 14.5197 12.3125 12.9372 12.7834 11.329C13.6675 8.32739 14.5838 5.33856 15.4615 2.33371C15.5832 1.91085 15.7851 1.78592 16.2015 1.79553C17.3548 1.82116 18.5112 1.82436 19.6645 1.79553C20.129 1.78272 20.2603 1.97172 20.3147 2.39458C21.1124 8.76306 21.9165 15.1315 22.743 21.4936C22.8231 22.0991 22.7462 22.3554 22.0607 22.3009C21.263 22.2368 20.4557 22.2657 19.6517 22.2945C19.216 22.3105 19.0366 22.1824 18.9853 21.7243C18.4535 16.8134 17.8961 11.9057 17.3483 6.99474C17.3387 6.99795 17.2394 7.01717 17.2266 7.05561C16.1599 11.2265 14.7984 15.3109 13.5651 19.4338C13.344 20.177 13.1294 20.9234 12.9084 21.6698C12.8667 21.814 12.8571 22.0286 12.761 22.0863C12.0242 22.5123 11.2137 22.1984 10.4385 22.2881C10.0349 22.3329 10.0284 21.9838 9.95477 21.7435C9.20196 19.3025 8.45555 16.8614 7.71235 14.4172C7.13252 12.5015 6.55265 10.5826 5.99205 8.66376C5.81265 8.04549 5.68131 7.4144 5.50832 6.69683H5.51153Z" fill="#009CE3"/>
<path d="M110.002 7.17154C110.002 5.03804 110.034 2.93335 109.983 0.831877C109.967 0.155946 110.156 -0.0362474 110.816 0.00539758C111.69 0.0630599 112.571 0.0374189 113.449 0.0117912C113.882 -0.00102264 114 0.165567 114 0.582017C113.991 7.40539 113.994 14.2256 113.994 21.0489C113.994 21.2956 114.039 21.5327 113.705 21.6512C110.672 22.7436 107.612 23.16 104.531 21.9107C102.698 21.1675 101.548 19.7387 100.991 17.8679C100.248 15.3788 100.363 12.9089 101.423 10.5224C102.545 8.00123 105.658 6.502 108.756 6.95369C109.15 7.01135 109.541 7.08825 110.002 7.16513V7.17154ZM110.002 14.7862C110.002 13.4087 110.002 12.0312 110.002 10.6537C110.002 10.3974 110.073 10.1412 109.691 9.99379C107.978 9.33068 105.931 10.0739 105.123 11.7108C104.233 13.5176 104.258 15.382 104.88 17.256C105.034 17.7237 105.274 18.1626 105.623 18.5438C106.655 19.6715 107.958 19.6426 109.313 19.4953C109.823 19.4408 110.041 19.255 110.018 18.6944C109.97 17.3938 110.002 16.09 110.002 14.7862Z" fill="#009CE3"/>
<path d="M73.2645 14.757C73.1972 17.2237 72.6046 19.5942 70.4743 21.2696C67.4086 23.6818 61.6103 23.1725 59.8356 18.2552C58.9707 15.8622 59.0155 13.4436 59.8356 11.0346C61.0914 7.34419 65.6915 5.56626 69.3723 7.37942C71.9095 8.63197 72.8769 10.8872 73.2069 13.5237C73.2549 13.8953 73.2453 14.2733 73.2645 14.757ZM69.3338 14.616C69.3403 13.4019 69.209 12.2134 68.5971 11.1307C68.0365 10.1376 67.1907 9.69873 66.0471 9.74999C64.9387 9.79804 64.1603 10.3843 63.7663 11.3261C62.8597 13.498 62.8597 15.734 63.7599 17.9092C64.1667 18.8927 64.9996 19.4565 66.124 19.4885C67.2644 19.5205 68.1037 19.0336 68.6419 18.0373C69.2153 16.9706 69.3467 15.8045 69.3338 14.616Z" fill="#009CE3"/>
<path d="M33.2249 14.7409C31.7705 14.7409 30.313 14.7538 28.8586 14.7313C28.3877 14.7249 28.1986 14.8114 28.2435 15.3528C28.4581 17.9957 29.9414 19.3827 32.6131 19.3699C33.9073 19.3635 35.1598 19.1169 36.3451 18.5979C36.7231 18.4313 36.8608 18.489 36.989 18.867C37.2132 19.5301 37.4631 20.1868 37.7482 20.8243C37.918 21.2087 37.7899 21.3849 37.4439 21.4938C34.4647 22.4324 31.463 22.8745 28.4774 21.5803C26.9141 20.9044 25.8121 19.6807 25.2066 18.1078C24.2808 15.6988 24.2776 13.2353 25.2002 10.8295C26.3374 7.87271 29.3519 6.23895 32.597 6.6522C36.973 7.21281 38.4466 10.6085 38.2287 14.3341C38.1999 14.8018 37.8956 14.7473 37.5945 14.7473C36.1401 14.7473 34.6825 14.7473 33.2281 14.7473C33.2281 14.7473 33.2281 14.7409 33.2281 14.7377L33.2249 14.7409ZM31.3349 12.7932C32.2383 12.7932 33.1384 12.7932 34.0418 12.7932C34.2596 12.7932 34.4678 12.8317 34.487 12.4665C34.5543 11.294 33.715 9.96777 32.6066 9.57695C30.6141 8.87539 28.3684 10.3234 28.1762 12.4152C28.1378 12.8317 28.3685 12.7964 28.6248 12.7964C29.5281 12.7964 30.4283 12.7964 31.3317 12.7964L31.3349 12.7932Z" fill="#009CE3"/>
<path d="M93.5907 14.7418C92.1363 14.7418 90.6788 14.7578 89.2244 14.7322C88.7311 14.7226 88.5805 14.8539 88.6286 15.3697C88.8688 18.0382 90.32 19.3868 93.0109 19.3708C94.2795 19.3612 95.5128 19.1369 96.6693 18.6116C97.1242 18.4034 97.278 18.5315 97.4157 18.9511C97.6303 19.5918 97.8706 20.2229 98.1429 20.838C98.2903 21.1679 98.2486 21.3441 97.9026 21.4563C95.2117 22.35 92.4824 22.7825 89.7082 21.9015C86.9532 21.027 85.4988 18.9896 85.0696 16.241C84.6915 13.8128 84.8997 11.423 86.3958 9.33436C88.8176 5.95151 94.241 5.60553 97.0344 8.67445C98.2453 10.0039 98.5881 11.6633 98.5785 13.422C98.5689 14.7482 98.5817 14.7482 97.2811 14.7482C96.051 14.7482 94.8208 14.7482 93.5907 14.7482C93.5907 14.7482 93.5907 14.7418 93.5907 14.7386V14.7418ZM91.6206 12.7941C92.5208 12.7941 93.4241 12.7941 94.3243 12.7941C94.5678 12.7941 94.8017 12.839 94.8209 12.4353C94.8914 11.1091 94.0616 9.87574 92.8059 9.52336C90.8358 8.96916 88.8016 10.3531 88.5869 12.3712C88.5485 12.7268 88.6766 12.8005 88.9906 12.7973C89.8683 12.7877 90.7429 12.7941 91.6206 12.7941Z" fill="#009CE3"/>
<path d="M48.2332 18.9506C48.2332 19.9469 48.2268 20.847 48.2364 21.7472C48.2396 22.0547 48.1018 22.1893 47.8167 22.2662C46.4744 22.6282 45.1354 22.6858 43.8252 22.1637C42.4125 21.6031 41.8006 20.4338 41.5892 19.0211C41.4931 18.3804 41.4802 17.7205 41.4738 17.0701C41.461 15.0872 41.4674 13.1075 41.4674 11.1245C41.4674 9.92002 41.4674 9.88479 40.2982 9.92963C39.6799 9.95206 39.414 9.78227 39.5166 9.14799C39.5454 8.97821 39.5198 8.79881 39.5198 8.62262C39.5198 7.13621 39.5197 7.11698 40.9901 7.05612C41.4226 7.0369 41.477 6.85751 41.4706 6.50513C41.4546 5.72669 41.4898 4.94824 41.4546 4.173C41.4354 3.76616 41.5828 3.6028 41.964 3.50349C42.909 3.26003 43.8476 2.98132 44.783 2.69942C45.1931 2.57448 45.3629 2.64176 45.35 3.12228C45.3212 4.2499 45.3596 5.38072 45.3308 6.50834C45.318 6.94721 45.4686 7.07536 45.8882 7.05293C46.4648 7.0241 47.0447 7.06893 47.6181 7.0369C48.0506 7.01447 48.2684 7.10418 48.2332 7.60392C48.1915 8.20297 48.2043 8.80842 48.23 9.40747C48.246 9.79509 48.1242 9.94245 47.7206 9.92643C47.0959 9.8976 46.4649 9.93925 45.8402 9.91362C45.4398 9.8976 45.3308 10.0418 45.3308 10.4326C45.3468 12.7903 45.3308 15.1481 45.3436 17.5058C45.35 18.4733 45.9139 19.0339 46.8717 19.1075C47.301 19.1396 47.7174 19.0627 48.2203 18.9538L48.2332 18.9506Z" fill="#009CE3"/>
<path d="M50.5585 14.9723C50.5585 12.7907 50.5713 10.6092 50.5489 8.42762C50.5457 7.95671 50.6642 7.74208 51.1543 7.58831C53.4608 6.86753 55.8057 6.59844 58.2115 6.74259C58.785 6.77783 58.9419 6.9476 58.7689 7.51462C58.5415 8.25462 58.6024 9.18043 58.1667 9.73143C57.7183 10.2984 56.8117 9.73142 56.1005 9.79869C54.4732 9.95886 54.4699 9.93004 54.4699 11.5318C54.4699 14.8922 54.4603 18.2526 54.4795 21.6131C54.4795 22.1192 54.3642 22.3274 53.8196 22.3018C52.9419 22.2602 52.0609 22.2634 51.1864 22.3018C50.6898 22.321 50.5489 22.1577 50.5553 21.6675C50.5809 19.4347 50.5649 17.2019 50.5649 14.9723H50.5585Z" fill="#009CE3"/>
<path d="M75.805 15.0198C75.805 12.8126 75.8114 10.6054 75.7986 8.39822C75.7986 8.0074 75.8434 7.75753 76.2855 7.61978C78.6112 6.8926 80.9786 6.58507 83.4132 6.73883C83.9546 6.77407 84.1916 6.89901 84.0122 7.50446C83.8136 8.17399 83.6919 8.86913 83.5541 9.55788C83.4837 9.91026 83.3651 10.0416 82.9487 9.94229C82.1125 9.74368 81.2572 9.78213 80.4051 9.92628C79.9214 10.0064 79.7036 10.1986 79.7068 10.7592C79.7388 14.3471 79.7067 17.9349 79.7388 21.5196C79.7452 22.1411 79.5882 22.3493 78.9539 22.3077C78.1307 22.2532 77.2978 22.266 76.4713 22.3045C75.9555 22.3269 75.7858 22.1827 75.7922 21.6413C75.8242 19.4342 75.805 17.227 75.805 15.0198Z" fill="#009CE3"/>
<path d="M65.1215 26.2705C64.5449 27.7569 63.9747 29.2433 63.3885 30.7265C63.2956 30.9636 63.2699 31.2903 62.8695 31.2647C62.5203 31.2423 62.5075 30.9476 62.421 30.7361C61.8188 29.2401 61.2293 27.7409 60.5245 26.2673C60.5245 27.7153 60.5309 29.1632 60.5181 30.6112C60.5181 30.8482 60.6879 31.2263 60.2363 31.2519C59.7141 31.2839 59.8871 30.8611 59.8838 30.6048C59.871 28.9486 59.871 27.2924 59.8838 25.6362C59.8838 25.3959 59.7333 25.0532 60.1818 24.9923C60.5887 24.9379 60.8097 25.066 60.9667 25.4824C61.5657 27.0714 62.2064 28.6443 62.8984 30.3901C63.1867 29.6758 63.4269 29.0992 63.6511 28.5161C64.0484 27.491 64.4552 26.4659 64.8236 25.4312C64.9646 25.034 65.2112 24.9539 65.5732 24.9955C66.0281 25.0468 65.8648 25.3991 65.8648 25.6362C65.8776 27.318 65.8776 28.9998 65.8648 30.6817C65.8648 30.8931 66.0121 31.2455 65.5989 31.2551C65.1376 31.2679 65.2785 30.8899 65.2785 30.6464C65.2689 29.192 65.2721 27.7377 65.2721 26.2865C65.224 26.2833 65.1728 26.2801 65.1247 26.2769L65.1215 26.2705Z" fill="#009CE3"/>
<path d="M22.6468 31.3676C21.4166 31.3676 20.478 30.7365 20.0263 29.6025C19.5715 28.462 19.6291 27.3312 20.2058 26.2677C20.6927 25.3675 21.4936 24.9126 22.5411 24.887C23.5566 24.8613 24.351 25.2361 24.886 26.0947C25.0301 26.3253 25.296 26.6713 24.9757 26.8731C24.6233 27.0974 24.508 26.7225 24.3638 26.4438C23.6687 25.108 21.7498 25.0439 20.8593 26.3125C20.1769 27.2832 20.1545 28.8785 20.824 29.8716C21.3173 30.6052 22.0285 30.9223 22.8934 30.8198C23.6911 30.7237 24.1941 30.2303 24.4664 29.4903C24.5176 29.3494 24.5464 29.202 24.5945 29.0611C24.6682 28.8432 24.8508 28.8368 25.027 28.8785C25.2416 28.9265 25.1647 29.1027 25.1551 29.2437C25.075 30.4001 23.9345 31.3676 22.65 31.3676H22.6468Z" fill="#009CE3"/>
<path d="M76.9038 27.3278C76.9038 26.6551 76.9038 26.04 76.9038 25.4281C76.9038 25.2199 76.9006 25.0085 77.1889 25.0021C77.5124 24.9957 77.4484 25.2487 77.4484 25.4313C77.4548 27.1612 77.458 28.8911 77.4452 30.6209C77.4452 30.8356 77.6086 31.1976 77.2434 31.2424C76.7693 31.3001 77.0608 30.8324 76.9134 30.6402C76.6603 30.6594 76.5802 30.9157 76.4008 31.0374C75.805 31.4442 74.9305 31.4923 74.341 31.1175C73.2615 30.432 72.9667 28.5419 73.7612 27.4079C74.4595 26.4116 75.6705 26.3571 76.9038 27.331V27.3278ZM76.8974 28.984C76.8589 28.6828 76.8685 28.3593 76.7276 28.0518C76.4553 27.4591 76.0484 27.0683 75.3597 27.0683C74.6549 27.0683 74.2641 27.4976 74.0559 28.1094C73.822 28.7982 73.8349 29.4933 74.1744 30.1436C74.6197 31.0022 75.6993 31.1335 76.388 30.448C76.7948 30.0443 76.8653 29.5318 76.9006 28.984H76.8974Z" fill="#009CE3"/>
<path d="M29.0569 29.1633C28.7301 29.1633 28.4066 29.1633 28.0798 29.1633C27.3398 29.1665 27.2181 29.3683 27.5705 30.0443C27.814 30.5088 28.1663 30.8419 28.7333 30.8708C29.3131 30.8996 29.7745 30.7042 30.0339 30.1692C30.1621 29.9033 30.3127 29.6022 30.6202 29.7816C30.9309 29.961 30.6298 30.2301 30.5273 30.4223C30.1044 31.2007 29.4028 31.4922 28.413 31.3385C27.6922 31.2263 27.1348 30.6882 26.9458 29.9161C26.6063 28.5515 26.9266 27.411 27.8043 26.8921C28.4899 26.4852 29.185 26.4788 29.8609 26.9113C30.5689 27.363 30.7451 28.087 30.8092 28.8558C30.8348 29.1505 30.6202 29.1633 30.4087 29.1633C29.957 29.1633 29.5054 29.1633 29.0537 29.1633H29.0569ZM28.8038 28.67C29.153 28.67 29.4989 28.6732 29.8481 28.6636C30.0563 28.6572 30.2614 28.6315 30.1781 28.324C30.0307 27.7698 29.7745 27.2925 29.1851 27.1227C28.6277 26.9593 28.1503 27.1227 27.8043 27.6C27.6025 27.8787 27.311 28.1991 27.4616 28.529C27.5961 28.8205 27.9998 28.6283 28.2817 28.6636C28.4546 28.6828 28.6276 28.6668 28.8038 28.6668V28.67Z" fill="#009CE3"/>
<path d="M70.0327 29.1631C69.6803 29.1631 69.3279 29.192 68.9819 29.1567C68.3604 29.0927 68.338 29.3713 68.495 29.8583C68.6776 30.4189 69.0396 30.7488 69.6002 30.8514C70.2024 30.9635 70.6829 30.7392 71.0161 30.2235C71.0962 30.0985 71.1379 29.9448 71.2372 29.8391C71.3461 29.7173 71.5126 29.7109 71.6471 29.7974C71.7849 29.8903 71.6952 30.0217 71.6504 30.1306C71.4197 30.72 71.0577 31.1941 70.401 31.3094C69.6642 31.4408 68.9499 31.4152 68.3989 30.7809C67.598 29.8615 67.5852 28.1508 68.3764 27.2314C68.8954 26.6292 69.8308 26.4274 70.5772 26.7573C71.3012 27.0777 71.8554 28.0675 71.7817 28.8428C71.7561 29.1215 71.6184 29.1663 71.3909 29.1631C70.9392 29.1567 70.4876 29.1631 70.0359 29.1631H70.0327ZM69.8052 28.6666C70.1543 28.6666 70.5067 28.6698 70.8559 28.6666C71.0641 28.6634 71.2852 28.6602 71.1955 28.3398C71.0321 27.7568 70.7342 27.2667 70.1128 27.1097C69.5105 26.9559 69.0331 27.209 68.6968 27.7152C68.5302 27.965 68.3348 28.2758 68.4565 28.5384C68.5879 28.8236 68.9499 28.6346 69.2094 28.6666C69.408 28.6922 69.6097 28.673 69.8084 28.6698L69.8052 28.6666Z" fill="#009CE3"/>
<path d="M91.6525 28.9552C91.6621 30.3712 90.7972 31.361 89.5478 31.3674C88.2824 31.3739 87.4143 30.4032 87.4111 28.9809C87.4111 27.6322 88.2857 26.6263 89.4838 26.6039C90.7523 26.5815 91.6429 27.5489 91.6525 28.9552ZM87.9782 29.0161C87.991 30.0893 88.6508 30.8773 89.5286 30.8741C90.4512 30.8709 91.1015 30.054 91.0727 28.936C91.047 27.8533 90.3967 27.0652 89.5254 27.0652C88.6508 27.0652 87.9621 27.9301 87.9782 29.0161Z" fill="#009CE3"/>
<path d="M45.1706 28.9482C45.1802 27.5323 45.9938 26.6161 47.2496 26.6065C48.5246 26.5969 49.3832 27.5579 49.3767 28.9899C49.3703 30.4154 48.5118 31.3701 47.2432 31.3637C45.9842 31.3572 45.1577 30.3962 45.1706 28.945V28.9482ZM48.8129 29.0059C48.8225 27.9103 48.1402 27.0582 47.256 27.0646C46.4103 27.071 45.7279 27.9007 45.7087 28.945C45.6895 30.031 46.3751 30.8735 47.272 30.8703C48.1498 30.8703 48.8033 30.0759 48.8097 29.0027L48.8129 29.0059Z" fill="#009CE3"/>
<path d="M52.7496 31.3674C51.8366 31.3577 51.2472 30.9862 51.0678 30.2782C51.0294 30.1212 50.8147 29.8842 51.1479 29.7848C51.3849 29.7144 51.4618 29.8521 51.5676 30.07C51.9328 30.8164 52.6343 31.0758 53.3871 30.7875C53.7299 30.6562 54.0183 30.448 54.015 30.0347C54.015 29.6503 53.7491 29.4485 53.4224 29.3492C52.9451 29.205 52.4453 29.1249 51.9712 28.968C51.4651 28.7982 51.0999 28.4842 51.0967 27.882C51.0967 27.2477 51.4747 26.9402 52.0097 26.7448C52.9611 26.3956 53.9605 26.7095 54.2841 27.4655C54.3706 27.6674 54.5243 27.9268 54.2681 28.0614C54.0086 28.1991 53.9061 27.9557 53.7907 27.7378C53.4576 27.1003 52.7496 26.8793 52.141 27.1868C51.8815 27.3182 51.6893 27.5008 51.6765 27.8179C51.6669 28.1158 51.8591 28.292 52.0898 28.3913C52.4101 28.5259 52.7496 28.6252 53.0892 28.7085C54.236 28.9872 54.6493 29.3876 54.566 30.1661C54.4827 30.9221 53.7875 31.3834 52.7496 31.3706V31.3674Z" fill="#009CE3"/>
<path d="M95.0451 31.367C94.2891 31.367 93.6612 31.146 93.3601 30.374C93.2832 30.1786 93.1103 29.9255 93.3826 29.7941C93.6452 29.666 93.7413 29.9063 93.8535 30.1241C94.2219 30.8417 95.058 31.0948 95.7723 30.7328C96.0478 30.5918 96.2785 30.4028 96.2817 30.0536C96.2849 29.6948 96.0606 29.4866 95.7691 29.3873C95.3206 29.2367 94.8529 29.1502 94.3948 29.0221C93.783 28.8523 93.3601 28.5096 93.3922 27.808C93.421 27.1032 93.9079 26.8213 94.5006 26.6676C95.4264 26.4273 96.3682 26.8181 96.5764 27.5325C96.6245 27.6959 96.8199 27.9297 96.5444 28.0579C96.2689 28.186 96.176 27.9906 96.0703 27.7535C95.7756 27.084 95.2149 26.9655 94.5646 27.1321C94.2283 27.2186 93.9656 27.43 93.94 27.7984C93.9175 28.1508 94.177 28.3366 94.4717 28.4455C94.776 28.5576 95.09 28.6409 95.4072 28.7178C96.4579 28.9676 96.9352 29.4322 96.8487 30.1369C96.7558 30.9058 96.0735 31.3702 95.0451 31.367Z" fill="#009CE3"/>
<path d="M32.5392 29.0061C32.5392 28.3782 32.5392 27.7535 32.5392 27.1256C32.5392 26.9879 32.4944 26.7957 32.7058 26.7701C32.818 26.754 33.0357 26.7957 33.0453 26.8405C33.1671 27.5165 33.4458 26.9943 33.5996 26.895C34.2115 26.5042 34.8393 26.5074 35.4608 26.8117C36.031 27.0904 36.1496 27.6382 36.156 28.2148C36.1656 29.0669 36.1656 29.9191 36.156 30.7744C36.156 30.973 36.2584 31.2773 35.8772 31.2549C35.528 31.2357 35.6113 30.9538 35.6081 30.7423C35.6017 29.9639 35.621 29.1855 35.6018 28.4102C35.5793 27.5133 35.2205 27.0904 34.519 27.068C33.8078 27.0456 33.1895 27.5869 33.1318 28.375C33.0774 29.1502 33.1159 29.9287 33.0999 30.7071C33.0966 30.9346 33.2088 31.2645 32.7955 31.2549C32.4271 31.2453 32.5521 30.941 32.5457 30.7423C32.5328 30.1657 32.5425 29.5891 32.5425 29.0125L32.5392 29.0061Z" fill="#009CE3"/>
<path d="M81.9336 29.1347C81.9336 28.0808 82.1835 27.2703 83.0868 26.825C83.7884 26.4791 84.4899 26.5175 85.1595 26.9436C85.4254 27.1133 85.6336 27.3344 85.7073 27.6291C85.7457 27.7733 86.0115 28.0007 85.6688 28.116C85.4605 28.1865 85.278 28.1353 85.1787 27.9014C85.0602 27.6259 84.9352 27.3472 84.6373 27.2095C84.0478 26.9372 83.5 27.0205 83.0452 27.4721C82.3116 28.1993 82.2795 29.5768 82.949 30.3681C83.5993 31.1337 84.6501 31.028 85.1306 30.147C85.1883 30.0381 85.2331 29.9196 85.2683 29.801C85.3388 29.5608 85.531 29.5864 85.6944 29.6217C85.9827 29.6825 85.8354 29.8844 85.7905 30.0349C85.5695 30.8198 84.8935 31.3419 84.0767 31.3611C83.1829 31.3836 82.366 30.8518 82.0905 30.0477C81.9784 29.7146 81.9111 29.3686 81.9272 29.1315L81.9336 29.1347Z" fill="#009CE3"/>
<path d="M38.5487 29.0956C38.5487 28.7432 38.5519 28.3941 38.5487 28.0417C38.5423 27.622 38.7088 27.0774 37.9432 27.1864C37.8278 27.2024 37.7638 27.1031 37.7478 27.0006C37.7254 26.8468 37.8247 26.7443 37.9592 26.7635C38.6672 26.8628 38.5327 26.3727 38.5551 25.9626C38.5679 25.7576 38.3852 25.3956 38.8241 25.4116C39.1829 25.4277 39.0612 25.7384 39.0612 25.9338C39.0612 26.4015 38.9907 26.882 39.7211 26.7603C39.8589 26.7379 39.9678 26.8244 39.9582 26.9749C39.9485 27.1703 39.8012 27.2216 39.641 27.1992C39.0772 27.1127 39.0484 27.4458 39.0612 27.8719C39.0836 28.6247 39.0644 29.3743 39.0676 30.1271C39.0676 30.5148 39.1605 30.8351 39.6506 30.8159C39.8076 30.8095 39.9646 30.8223 39.9614 31.0369C39.9614 31.29 39.7692 31.2804 39.593 31.2964C38.9139 31.3637 38.5679 31.0658 38.5487 30.3706C38.5391 29.9445 38.5487 29.5185 38.5487 29.0924V29.0956Z" fill="#009CE3"/>
<path d="M42.4025 27.4593C42.7356 27.0524 43.1136 26.7866 43.6006 26.7033C43.7832 26.6712 43.9593 26.6424 43.9978 26.8955C44.0266 27.1037 43.9337 27.171 43.7255 27.2415C42.5818 27.6355 42.3608 27.9558 42.3576 29.1443C42.3576 29.6441 42.3768 30.1438 42.348 30.6403C42.3351 30.8678 42.5242 31.2714 42.0501 31.2426C41.608 31.2202 41.7777 30.8358 41.7745 30.5987C41.7585 29.5255 41.7585 28.4524 41.7745 27.3792C41.7777 27.1485 41.6048 26.7513 42.0661 26.7577C42.5338 26.7641 42.2167 27.1998 42.4057 27.4529L42.4025 27.4593Z" fill="#009CE3"/>
<path d="M80.1073 29.0096C80.1073 29.6119 80.1041 30.2109 80.1073 30.8132C80.1073 31.0631 80.0848 31.2777 79.7581 31.2553C79.4441 31.2328 79.521 30.9798 79.521 30.7972C79.5146 29.5959 79.5146 28.3946 79.521 27.1933C79.521 27.0107 79.4537 26.7672 79.7741 26.7544C80.1137 26.7416 80.1073 26.9754 80.1073 27.2093C80.1073 27.8115 80.1073 28.4106 80.1073 29.0128V29.0096Z" fill="#009CE3"/>
<path d="M70.8366 24.8803C70.2824 25.4216 70.0229 25.9887 69.3726 26.0816C69.6897 25.5818 69.8115 24.861 70.8366 24.8803Z" fill="#009CE3"/>
<path d="M79.5181 25.4411C79.5245 25.2168 79.4924 24.9605 79.8448 24.999C80.1876 25.0374 80.0883 25.3097 80.1075 25.5179C80.1268 25.7422 80.0915 25.9152 79.8096 25.9184C79.4412 25.9216 79.5405 25.6461 79.5181 25.4411Z" fill="#009CE3"/>
</svg>
