<svg width="95" height="20" viewBox="0 0 95 20" fill="none" xmlns="http://www.w3.org/2000/svg">
<path d="M13.4334 2.56023C14.6834 2.56023 15.9234 2.75023 17.1134 3.12023C16.2634 2.14023 15.2234 1.34024 14.0534 0.760239C13.4234 0.460239 12.9834 0.240234 12.2634 0.240234C8.97343 0.240234 5.84338 2.98023 5.46338 6.20023C6.84338 4.05023 9.88341 2.56023 13.4334 2.56023Z" fill="#007DB8"/>
<path d="M5.51344 2.93C6.13344 1.85 6.92339 0.86 7.83339 0C6.55339 0.26 5.34339 0.769998 4.27339 1.49C3.69339 1.89 3.28341 2.17 2.92341 2.79C1.27341 5.66 2.07338 9.76 4.64338 11.7C3.49338 9.42 3.74344 6.02 5.51344 2.93Z" fill="#007DB8"/>
<path d="M1.87345 10.03C1.25345 8.94004 0.793417 7.76004 0.523417 6.54004C0.103417 7.78004 -0.0665825 9.09004 0.0234175 10.39C0.0834175 11.1 0.11342 11.59 0.46342 12.2C2.11342 15.08 6.02344 16.43 8.98344 15.16C6.45344 15.03 3.64345 13.11 1.87345 10.02V10.03Z" fill="#1C9D4B"/>
<path d="M6.15363 16.7504C4.90363 16.7504 3.66363 16.5604 2.47363 16.1904C3.32363 17.1704 4.36363 17.9703 5.53363 18.5503C6.16363 18.8503 6.61367 19.0704 7.32367 19.0704C10.6137 19.0704 13.7437 16.3304 14.1237 13.1104C12.7437 15.2604 9.69363 16.7504 6.15363 16.7504Z" fill="#1C9D4B"/>
<path d="M14.0734 16.3801C13.4534 17.4701 12.6734 18.4501 11.7534 19.3201C13.0334 19.0601 14.2434 18.5501 15.3134 17.8301C15.8934 17.4301 16.3034 17.1501 16.6634 16.5301C18.3134 13.6501 17.5134 9.56012 14.9434 7.62012C16.0934 9.89012 15.8434 13.3001 14.0734 16.3901V16.3801Z" fill="#1C9D4B"/>
<path d="M17.7135 9.28041C18.3335 10.3704 18.7935 11.5504 19.0635 12.7704C19.4835 11.5304 19.6535 10.2204 19.5635 8.92041C19.5035 8.21041 19.4735 7.72041 19.1235 7.11041C17.4735 4.23041 13.5635 2.88041 10.6035 4.15041C13.1335 4.28041 15.9335 6.20041 17.7135 9.29041V9.28041Z" fill="#007DB8"/>
<path fill-rule="evenodd" clip-rule="evenodd" d="M14.0336 6.24047H7.47363C6.75363 6.26047 6.16367 6.80047 6.07367 7.50047L5.60363 12.1005C5.52363 12.7105 5.96367 13.2605 6.57367 13.3405C6.63367 13.3405 6.68365 13.3405 6.74365 13.3405H12.0336C12.7536 13.3305 13.3437 12.7905 13.4337 12.0905L13.4836 11.6405H7.68365L8.06366 7.94048H13.8436L14.0336 6.23047V6.24047Z" fill="#0A2970"/>
<path fill-rule="evenodd" clip-rule="evenodd" d="M24.4834 5.59031C23.6834 5.61031 23.0134 6.21031 22.9234 7.00031L22.3634 12.4603C22.2734 13.1303 22.7534 13.7403 23.4334 13.8203C23.4934 13.8203 23.5534 13.8303 23.6134 13.8203H29.9034C30.7034 13.8003 31.3634 13.2103 31.4534 12.4303L31.5034 12.0203H24.6134L25.0834 7.40031H31.9634L32.1534 5.57031H24.4834V5.59031Z" fill="#0A2970"/>
<path fill-rule="evenodd" clip-rule="evenodd" d="M84.4836 5.92964C84.2736 5.69964 83.9736 5.56964 83.6636 5.57964H75.7336L74.8936 13.8196H75.4436C77.0936 13.8196 77.1836 12.9396 77.2836 12.0096L77.4136 10.7096H81.4936C81.6636 10.7096 81.8336 10.7796 81.9436 10.8996C82.0636 11.0296 82.1136 11.1996 82.0936 11.3696L81.8336 13.8196H84.0336L84.2136 12.0796C84.2736 11.5596 84.1236 11.0496 83.7936 10.6396L83.7136 10.5496L83.8236 10.4896C84.1936 10.2596 84.4436 9.87963 84.4836 9.44963L84.7436 6.79963C84.7836 6.47963 84.6936 6.15964 84.4836 5.91964V5.92964ZM82.3236 9.06964H77.6136L77.8036 7.21964H82.5136L82.3236 9.06964Z" fill="#0A2970"/>
<path fill-rule="evenodd" clip-rule="evenodd" d="M67.0233 5.58957C66.2233 5.60957 65.5633 6.19957 65.4733 6.97957L64.9133 12.4596C64.8733 12.8096 64.9833 13.1696 65.2233 13.4296C65.4633 13.6896 65.8033 13.8296 66.1633 13.8296H72.4733C73.2633 13.8196 73.9234 13.2296 74.0134 12.4496L74.3133 9.53957C74.3233 9.41957 74.2934 9.28957 74.2034 9.19957C74.1234 9.10957 74.0033 9.05957 73.8733 9.05957H70.5233L70.3533 10.6996H71.9733V10.8096C71.8433 11.8896 71.7333 11.9996 70.8033 12.0096H67.1533L67.6233 7.38957H73.2634C73.9634 7.36957 74.5534 6.84957 74.6334 6.15957L74.6934 5.55957H67.0134L67.0233 5.58957Z" fill="#0A2970"/>
<path fill-rule="evenodd" clip-rule="evenodd" d="M42.2537 6.95031C42.3037 6.60031 42.1938 6.24031 41.9538 5.97031C41.7138 5.71031 41.3837 5.57031 41.0337 5.57031H34.5837C33.7937 5.60031 33.1437 6.19031 33.0437 6.96031L32.4937 12.4503C32.4137 13.1103 32.8837 13.7203 33.5537 13.8003C33.6137 13.8003 33.6637 13.8103 33.7237 13.8003H40.1637C40.9537 13.7903 41.6138 13.2003 41.7038 12.4203L42.2537 6.93031V6.95031ZM39.6937 10.5103C39.5537 11.9503 39.5037 12.0003 38.3837 12.0003H36.0737C35.4537 12.0003 35.1437 12.0003 34.9737 11.8003C34.8037 11.6003 34.8137 11.2603 34.8937 10.5003L35.2137 7.39031H40.0137L39.6937 10.5003V10.5103Z" fill="#0A2970"/>
<path fill-rule="evenodd" clip-rule="evenodd" d="M94.9936 6.95031C95.0336 6.59031 94.9236 6.24031 94.6736 5.97031C94.4336 5.71031 94.1037 5.57031 93.7537 5.57031H87.3137C86.5237 5.60031 85.8736 6.19031 85.7736 6.96031L85.2136 12.4503C85.1736 12.8003 85.2836 13.1503 85.5236 13.4103C85.7636 13.6703 86.1037 13.8103 86.4537 13.8103H92.8936C93.6836 13.8003 94.3436 13.2103 94.4336 12.4303L94.9936 6.94032V6.95031ZM92.4236 10.5103C92.2736 11.9503 92.2236 12.0003 91.1136 12.0003H88.8036C88.1836 12.0003 87.8737 12.0003 87.7037 11.8003C87.5337 11.6003 87.5436 11.2603 87.6236 10.5003L87.9437 7.39031H92.7537L92.4236 10.5003V10.5103Z" fill="#0A2970"/>
<path fill-rule="evenodd" clip-rule="evenodd" d="M51.9737 5.59007L48.1137 10.7701L45.3237 5.59007H44.8237C44.2937 5.59007 43.4037 5.77007 43.2737 6.99007L42.5737 13.8301H44.7937L45.2337 9.47008L47.5837 13.8101H47.9937L49.1137 12.3001L51.2137 9.47008L50.7737 13.8101H51.2437C53.0437 13.8101 53.1137 12.7601 53.1537 12.2601C53.1537 12.2201 53.1537 12.1801 53.1537 12.1401L53.8437 5.58008H51.9637L51.9737 5.59007Z" fill="#0A2970"/>
<path fill-rule="evenodd" clip-rule="evenodd" d="M60.2635 5.58984H59.7335C59.2535 5.58984 58.8034 5.81985 58.5334 6.21985C57.2634 8.04985 53.6134 13.3198 53.2734 13.8298H55.8035L56.8235 12.3598H60.9634L60.9935 12.4198L61.0234 12.4898C61.7134 13.8298 62.1635 13.8298 63.6835 13.8298H64.2134L60.2635 5.58984ZM59.9435 10.3698H58.1935L59.2435 8.81985L59.9835 10.3698H59.9335H59.9435Z" fill="#0A2970"/>
</svg>
