<svg width="98" height="15" viewBox="0 0 98 15" fill="none" xmlns="http://www.w3.org/2000/svg">
<path d="M95.8702 5.89H97.3502V7.33H95.8702V5.89ZM91.5402 1.79L90.5901 4.66H92.4802L91.5302 1.79H91.5402ZM88.1702 7.33L90.6901 0.199997H92.4202L94.9501 7.33H93.3702L92.8902 5.88H90.1801L89.7101 7.33H88.1702ZM85.7602 5.89H87.2402V7.33H85.7602V5.89ZM83.0402 2.34C83.0102 2 82.8702 1.73 82.6002 1.53C82.3302 1.33 81.9702 1.23 81.5402 1.23C81.1602 1.23 80.8702 1.31 80.6502 1.48C80.4402 1.65 80.3301 1.88 80.3301 2.17C80.3301 2.38 80.4402 2.55 80.6602 2.66C80.8802 2.78 81.3501 2.91 82.0601 3.07C83.1001 3.3 83.7902 3.57 84.1402 3.88C84.4902 4.18 84.6602 4.66 84.6602 5.33C84.6602 6 84.4002 6.53 83.8702 6.92C83.3402 7.31 82.6302 7.51 81.7302 7.51C80.8302 7.51 80.1202 7.3 79.6202 6.88C79.1102 6.46 78.8402 5.87 78.8102 5.1H80.2402C80.2502 5.48 80.3902 5.77 80.6502 5.97C80.9102 6.17 81.2702 6.28 81.7302 6.28C82.1902 6.28 82.5801 6.2 82.8401 6.05C83.1101 5.9 83.2402 5.68 83.2402 5.41C83.2402 5.14 83.1401 4.95 82.9501 4.82C82.7601 4.69 82.3602 4.56 81.7502 4.43C80.6202 4.18 79.8602 3.9 79.4802 3.61C79.1002 3.32 78.9102 2.86 78.9102 2.25C78.9102 1.56 79.1602 1.01 79.6602 0.610001C80.1602 0.200001 80.8401 0 81.6901 0C82.4901 0 83.1402 0.209997 83.6402 0.629997C84.1402 1.05 84.4202 1.62 84.4702 2.33H83.0202L83.0402 2.34ZM69.9702 7.33V0.199997H71.4601V6.06H75.0002V7.33H69.9702ZM67.1002 7.33V0.199997H68.5901V7.33H67.1002ZM61.4502 6.11H62.7101C63.3101 6.11 63.7702 5.9 64.0702 5.5C64.3702 5.09 64.5202 4.48 64.5202 3.66C64.5202 2.92 64.3802 2.36 64.1002 2C63.8202 1.63 63.4002 1.44 62.8302 1.44H61.4502V6.11ZM59.9702 7.33V0.199997H63.0202C64.0002 0.199997 64.7402 0.489998 65.2502 1.06C65.7602 1.63 66.0102 2.48 66.0102 3.58C66.0102 4.8 65.7502 5.73 65.2202 6.36C64.6902 7 63.9201 7.31 62.9001 7.31H59.9702V7.33ZM53.4601 7.33V0.199997H58.7002V1.47H54.9402V2.98H58.4302V4.21H54.9402V6.07H58.8602V7.34H53.4502L53.4601 7.33ZM48.7502 6.26C49.3602 6.26 49.8302 6.04 50.1702 5.61C50.5102 5.17 50.6802 4.57 50.6802 3.8C50.6802 3.03 50.5102 2.4 50.1702 1.95C49.8302 1.5 49.3502 1.28 48.7502 1.28C48.1502 1.28 47.6702 1.5 47.3302 1.95C46.9902 2.4 46.8202 3.01 46.8202 3.8C46.8202 4.59 46.9902 5.17 47.3302 5.61C47.6702 6.05 48.1502 6.26 48.7502 6.26ZM48.7502 7.52C47.7002 7.52 46.8702 7.19 46.2502 6.52C45.6302 5.85 45.3202 4.95 45.3202 3.81C45.3202 2.67 45.6302 1.72 46.2502 1.04C46.8702 0.360001 47.7002 0.0100021 48.7502 0.0100021C49.8002 0.0100021 50.6402 0.350001 51.2502 1.04C51.8702 1.72 52.1702 2.65 52.1702 3.81C52.1702 4.97 51.8602 5.85 51.2502 6.52C50.6302 7.19 49.8002 7.52 48.7502 7.52ZM39.7101 7.33H38.3202V0.199997H39.8802L42.7402 5.2V0.199997H44.1302V7.33H42.6501L39.7101 2.19V7.33ZM37.1702 4.83C37.0802 5.65 36.7602 6.31 36.2002 6.79C35.6502 7.27 34.9402 7.52 34.0802 7.52C33.0802 7.52 32.2802 7.19 31.6902 6.52C31.1002 5.85 30.8002 4.95 30.8002 3.81C30.8002 2.67 31.0902 1.72 31.6902 1.04C32.2802 0.360001 33.0702 0.0100021 34.0802 0.0100021C34.9302 0.0100021 35.6302 0.239997 36.1802 0.699997C36.7402 1.16 37.0602 1.78 37.1602 2.56H35.6702C35.6202 2.18 35.4602 1.87 35.1702 1.64C34.8902 1.41 34.5301 1.3 34.0901 1.3C33.5401 1.3 33.1002 1.52 32.7902 1.96C32.4802 2.4 32.3202 3.01 32.3202 3.79C32.3202 4.57 32.4802 5.15 32.7902 5.58C33.1002 6.01 33.5401 6.23 34.0901 6.23C34.5301 6.23 34.8902 6.1 35.1702 5.85C35.4502 5.6 35.6202 5.26 35.6702 4.83H37.1602H37.1702ZM24.6202 7.33V0.199997H29.8602V1.47H26.1002V2.98H29.5901V4.21H26.1002V6.07H30.0202V7.34H24.6102L24.6202 7.33ZM19.8102 7.33V1.47H17.6602V0.199997H23.4502V1.47H21.3002V7.33H19.8102Z" fill="#2A7DE1"/>
<path d="M95.8702 11.8104L95.3002 13.3904H96.4202L95.8702 11.8104ZM94.2702 14.8504L95.6202 11.2804H96.1702L97.4501 14.8504H96.9301L96.5701 13.8204H95.1502L94.7702 14.8504H94.2702ZM88.0701 12.9004H89.2602C89.4802 12.9004 89.6502 12.8504 89.7502 12.7504C89.8502 12.6504 89.9002 12.5004 89.9002 12.2904C89.9002 12.0804 89.8502 11.9304 89.7402 11.8404C89.6302 11.7404 89.4602 11.7004 89.2202 11.7004H88.0601V12.9104L88.0701 12.9004ZM87.5801 14.8504V11.2804H89.2402C89.6202 11.2804 89.9102 11.3604 90.1002 11.5304C90.3002 11.6904 90.4002 11.9304 90.4002 12.2504C90.4002 12.5704 90.3001 12.8104 90.0901 12.9804C90.0401 13.0204 89.9802 13.0604 89.9202 13.1004L90.0002 13.1404C90.2202 13.2604 90.3301 13.4704 90.3401 13.7704L90.3602 14.4204C90.3602 14.5304 90.3802 14.6004 90.4002 14.6504C90.4202 14.7004 90.4702 14.7404 90.5402 14.7704V14.8504H89.9501C89.9501 14.8504 89.9202 14.7404 89.9102 14.6204C89.9002 14.5004 89.8902 14.3604 89.8802 14.2104V13.9304C89.8602 13.7104 89.8101 13.5504 89.7101 13.4604C89.6101 13.3704 89.4401 13.3204 89.2101 13.3204H88.0701V14.8604H87.5901L87.5801 14.8504ZM81.7502 14.5204C82.1202 14.5204 82.4202 14.3904 82.6502 14.1204C82.8802 13.8504 82.9902 13.5004 82.9902 13.0704C82.9902 12.6404 82.8802 12.2804 82.6502 12.0204C82.4202 11.7504 82.1202 11.6204 81.7502 11.6204C81.3802 11.6204 81.0802 11.7504 80.8502 12.0204C80.6202 12.2904 80.5102 12.6404 80.5102 13.0704C80.5102 13.5004 80.6202 13.8504 80.8502 14.1204C81.0802 14.3904 81.3802 14.5204 81.7502 14.5204ZM81.7502 14.9504C81.2302 14.9504 80.8102 14.7804 80.4902 14.4304C80.1702 14.0804 80.0102 13.6304 80.0102 13.0704C80.0102 12.5104 80.1702 12.0504 80.4902 11.7104C80.8102 11.3604 81.2302 11.1904 81.7502 11.1904C82.2702 11.1904 82.6902 11.3604 83.0102 11.7104C83.3302 12.0604 83.4902 12.5104 83.4902 13.0704C83.4902 13.6304 83.3302 14.0804 83.0102 14.4304C82.6902 14.7804 82.2702 14.9504 81.7502 14.9504ZM74.5901 14.8504V11.7104H73.3802V11.2804H76.2702V11.7104H75.0602V14.8504H74.5802H74.5901ZM69.6501 13.5404C69.5901 13.9804 69.4202 14.3204 69.1402 14.5704C68.8602 14.8204 68.5201 14.9504 68.0901 14.9504C67.6001 14.9504 67.2102 14.7804 66.9202 14.4404C66.6302 14.1004 66.4802 13.6504 66.4802 13.0704C66.4802 12.4904 66.6302 12.0404 66.9302 11.7004C67.2302 11.3604 67.6401 11.1904 68.1501 11.1904C68.5501 11.1904 68.8802 11.2904 69.1402 11.5004C69.4002 11.7104 69.5502 11.9904 69.6102 12.3604H69.1402C69.0902 12.1204 68.9902 11.9404 68.8102 11.8104C68.6402 11.6804 68.4102 11.6204 68.1402 11.6204C67.7802 11.6204 67.5002 11.7504 67.2902 12.0104C67.0802 12.2704 66.9702 12.6304 66.9702 13.0704C66.9702 13.5404 67.0702 13.9004 67.2602 14.1504C67.4602 14.4004 67.7402 14.5204 68.1102 14.5204C68.3902 14.5204 68.6202 14.4304 68.8002 14.2604C68.9802 14.0904 69.1002 13.8504 69.1602 13.5304H69.6302L69.6501 13.5404ZM62.4102 13.5504C62.4102 13.9904 62.2902 14.3304 62.0402 14.5804C61.7902 14.8304 61.4502 14.9504 61.0102 14.9504C60.5702 14.9504 60.2002 14.8304 59.9702 14.5904C59.7302 14.3504 59.6102 14.0004 59.6102 13.5404V11.2804H60.0901V13.5004C60.0901 13.8304 60.1702 14.0804 60.3302 14.2604C60.4902 14.4304 60.7202 14.5204 61.0202 14.5204C61.3202 14.5204 61.5501 14.4304 61.7101 14.2604C61.8701 14.0904 61.9402 13.8404 61.9402 13.5004V11.2804H62.4202V13.5404L62.4102 13.5504ZM53.0802 12.9004H54.2702C54.4902 12.9004 54.6602 12.8504 54.7602 12.7504C54.8602 12.6504 54.9102 12.5004 54.9102 12.2904C54.9102 12.0804 54.8602 11.9304 54.7502 11.8404C54.6402 11.7404 54.4702 11.7004 54.2302 11.7004H53.0702V12.9104L53.0802 12.9004ZM52.6002 14.8504V11.2804H54.2602C54.6402 11.2804 54.9302 11.3604 55.1202 11.5304C55.3202 11.6904 55.4202 11.9304 55.4202 12.2504C55.4202 12.5704 55.3202 12.8104 55.1102 12.9804C55.0602 13.0204 55.0002 13.0604 54.9402 13.1004L55.0202 13.1404C55.2402 13.2604 55.3502 13.4704 55.3602 13.7704L55.3802 14.4204C55.3802 14.5304 55.4002 14.6004 55.4202 14.6504C55.4402 14.7004 55.4902 14.7404 55.5602 14.7704V14.8504H54.9702C54.9702 14.8504 54.9402 14.7404 54.9302 14.6204C54.9202 14.5004 54.9101 14.3604 54.9001 14.2104V13.9304C54.8801 13.7104 54.8302 13.5504 54.7302 13.4604C54.6302 13.3704 54.4602 13.3204 54.2302 13.3204H53.0901V14.8604H52.6102L52.6002 14.8504ZM46.9402 14.8504V11.7104H45.7302V11.2804H48.6202V11.7104H47.4102V14.8504H46.9302H46.9402ZM41.4302 12.3204C41.4102 12.1004 41.3202 11.9204 41.1702 11.8004C41.0102 11.6804 40.8002 11.6204 40.5402 11.6204C40.2802 11.6204 40.0602 11.6704 39.9202 11.7804C39.7802 11.8904 39.7101 12.0404 39.7101 12.2404C39.7101 12.3804 39.7602 12.4804 39.8502 12.5504C39.9402 12.6204 40.1302 12.6804 40.4102 12.7504L41.0302 12.9004C41.3602 12.9804 41.6002 13.1004 41.7402 13.2504C41.8802 13.4004 41.9502 13.6204 41.9502 13.9004C41.9502 14.2204 41.8302 14.4804 41.5802 14.6704C41.3302 14.8604 41.0002 14.9504 40.5802 14.9504C40.1102 14.9504 39.7502 14.8404 39.4902 14.6204C39.2302 14.4004 39.1102 14.1104 39.1102 13.7404V13.7104H39.5502C39.5502 13.9704 39.6502 14.1704 39.8302 14.3104C40.0102 14.4504 40.2602 14.5204 40.5802 14.5204C40.8802 14.5204 41.1002 14.4704 41.2502 14.3704C41.4002 14.2704 41.4802 14.1204 41.4802 13.9204C41.4802 13.7504 41.4302 13.6204 41.3302 13.5404C41.2302 13.4604 41.0302 13.3804 40.7202 13.3104L40.1002 13.1604C39.7902 13.0904 39.5602 12.9804 39.4302 12.8504C39.3002 12.7204 39.2302 12.5304 39.2302 12.3004C39.2302 11.9604 39.3502 11.6904 39.5802 11.4904C39.8102 11.2904 40.1302 11.1904 40.5202 11.1904C40.9102 11.1904 41.2402 11.2904 41.4802 11.4904C41.7202 11.6904 41.8402 11.9704 41.8602 12.3204H41.4202H41.4302ZM32.6702 14.8504H32.2002V11.2804H32.7802L34.5602 14.1804V11.2804H35.0302V14.8504H34.5002L32.6602 11.9404V14.8504H32.6702ZM26.4302 14.5204C26.8002 14.5204 27.1002 14.3904 27.3302 14.1204C27.5602 13.8504 27.6702 13.5004 27.6702 13.0704C27.6702 12.6404 27.5602 12.2804 27.3302 12.0204C27.1002 11.7504 26.8002 11.6204 26.4302 11.6204C26.0602 11.6204 25.7602 11.7504 25.5302 12.0204C25.3002 12.2904 25.1902 12.6404 25.1902 13.0704C25.1902 13.5004 25.3002 13.8504 25.5302 14.1204C25.7602 14.3904 26.0602 14.5204 26.4302 14.5204ZM26.4302 14.9504C25.9102 14.9504 25.4902 14.7804 25.1702 14.4304C24.8502 14.0804 24.6902 13.6304 24.6902 13.0704C24.6902 12.5104 24.8502 12.0504 25.1702 11.7104C25.4902 11.3604 25.9102 11.1904 26.4302 11.1904C26.9502 11.1904 27.3702 11.3604 27.6902 11.7104C28.0102 12.0604 28.1702 12.5104 28.1702 13.0704C28.1702 13.6304 28.0102 14.0804 27.6902 14.4304C27.3702 14.7804 26.9502 14.9504 26.4302 14.9504ZM20.8302 13.5404C20.7702 13.9804 20.6002 14.3204 20.3202 14.5704C20.0402 14.8204 19.7002 14.9504 19.2702 14.9504C18.7802 14.9504 18.3902 14.7804 18.1002 14.4404C17.8102 14.1004 17.6602 13.6504 17.6602 13.0704C17.6602 12.4904 17.8102 12.0404 18.1102 11.7004C18.4102 11.3604 18.8202 11.1904 19.3302 11.1904C19.7302 11.1904 20.0602 11.2904 20.3202 11.5004C20.5802 11.7104 20.7302 11.9904 20.7902 12.3604H20.3202C20.2702 12.1204 20.1702 11.9404 19.9902 11.8104C19.8202 11.6804 19.5902 11.6204 19.3202 11.6204C18.9602 11.6204 18.6802 11.7504 18.4702 12.0104C18.2602 12.2704 18.1501 12.6304 18.1501 13.0704C18.1501 13.5404 18.2502 13.9004 18.4402 14.1504C18.6402 14.4004 18.9202 14.5204 19.2902 14.5204C19.5702 14.5204 19.8002 14.4304 19.9802 14.2604C20.1602 14.0904 20.2801 13.8504 20.3401 13.5304H20.8102L20.8302 13.5404Z" fill="#A7A8A9"/>
<path fill-rule="evenodd" clip-rule="evenodd" d="M8.80017 10.5596V11.4396H6.16016V10.5596H8.80017Z" fill="#2A7DE1"/>
<path fill-rule="evenodd" clip-rule="evenodd" d="M0.0100098 14.9503V3.53027H6.15997V6.17027H2.64001V7.93027H14.94V10.5703H2.64001V12.3303H14.94V14.9703H0" fill="#A7A8A9"/>
<path fill-rule="evenodd" clip-rule="evenodd" d="M14.9498 0.00976562V2.64977H8.79974V7.91976H6.15973V2.64977H0.00976562V0.00976562H14.9498Z" fill="#2A7DE1"/>
<path fill-rule="evenodd" clip-rule="evenodd" d="M14.9498 3.53027V6.17027H8.7998V3.53027H14.9498Z" fill="#A7A8A9"/>
</svg>
