<svg width="95" height="21" viewBox="0 0 95 21" fill="none" xmlns="http://www.w3.org/2000/svg">
<path d="M83.9702 7.26008C84.0802 6.81008 84.2002 6.36008 84.3102 5.91008C84.4502 5.37008 84.6002 4.83008 84.7402 4.29008C84.7802 4.15008 84.8402 4.08008 84.9902 4.08008C88.0602 4.08008 91.1402 4.08008 94.2102 4.08008V4.26008C94.2102 4.26008 94.1702 4.32008 94.2102 4.35008V4.49008C94.0602 4.56008 94.0703 4.72008 94.0403 4.84008C93.8903 5.36008 93.7502 5.88008 93.6302 6.41008C93.5802 6.62008 93.4602 6.76008 93.3002 6.88008C92.4502 7.55008 91.5902 8.22008 90.7402 8.89008C90.6202 8.98008 90.4702 9.04008 90.3802 9.17008C90.3302 9.17008 90.2903 9.18008 90.2603 9.23008C90.1403 9.21008 90.0203 9.20008 89.9003 9.17008C88.9503 8.92008 87.9903 8.77008 87.0203 8.61008C86.8203 8.58008 86.5802 8.65008 86.4302 8.44008C86.8602 8.09008 87.3002 7.74008 87.7402 7.38008C87.6402 7.32008 87.5502 7.34008 87.4702 7.34008C86.3802 7.34008 85.3002 7.34008 84.2102 7.34008C84.1202 7.34008 84.0202 7.37008 83.9502 7.29008C85.1902 7.29008 86.4303 7.29008 87.6703 7.29008C87.6703 7.27008 87.6703 7.26008 87.6703 7.24008C86.4303 7.24008 85.2002 7.24008 83.9602 7.24008L83.9702 7.26008Z" fill="#251A64"/>
<path d="M11.1 11.49C11.23 11.02 11.35 10.5499 11.49 10.0799C11.53 9.92995 11.47 9.90995 11.35 9.88995C10.27 9.72995 9.19999 9.59995 8.10999 9.50995C6.89999 9.40995 5.68998 9.35996 4.47998 9.42996C3.30998 9.49996 2.13994 9.59996 1.05994 10.11C0.689937 10.29 0.370005 10.52 0.130005 10.86C0.0900049 10.91 0.07 10.96 0 10.98V9.22995C0.08 9.20995 0.100015 9.14995 0.140015 9.08995C0.250015 8.93995 0.36002 8.77995 0.52002 8.65995C1.15002 8.17995 1.88 7.96995 2.63 7.80995C3.43 7.62995 4.24995 7.57996 5.06995 7.53996C6.03995 7.48996 7.01998 7.50995 7.97998 7.58995C9.15998 7.67995 10.34 7.77995 11.51 7.93995C12.61 8.08995 13.6999 8.24996 14.7999 8.42996C15.0399 8.46996 15.2899 8.55996 15.5499 8.49996C15.6299 8.63996 15.48 8.64995 15.42 8.68995C14.73 9.18995 14.03 9.68996 13.33 10.18C12.57 10.71 11.8099 11.24 11.0499 11.77C10.9999 11.67 11.1 11.59 11.08 11.5L11.1 11.49Z" fill="#ECB30F"/>
<path d="M15.5699 8.49957C15.3099 8.55957 15.0699 8.46957 14.8199 8.42957C13.7299 8.24957 12.63 8.08957 11.53 7.93957C10.36 7.77957 9.18 7.68957 8 7.58957C7.03 7.50957 6.05997 7.49957 5.08997 7.53957C4.26997 7.57957 3.46002 7.62957 2.65002 7.80957C1.90002 7.97957 1.16004 8.17957 0.540039 8.65957C0.380039 8.77957 0.270034 8.92957 0.160034 9.08957C0.120034 9.14957 0.0900195 9.20957 0.0200195 9.22957C0.0200195 9.16957 0.0200195 9.10957 0.0200195 9.04957C0.0300195 9.03957 0.0599365 9.01957 0.0599365 9.00957C0.0599365 8.98957 0.0400195 8.97957 0.0200195 9.00957V8.77957C0.10002 8.83957 0.0999854 8.75957 0.109985 8.71957C0.169985 7.95957 0.68002 7.51957 1.27002 7.14957C2.02002 6.67957 2.85997 6.41957 3.71997 6.20957C3.80997 6.18957 3.89999 6.16957 3.98999 6.14957C4.80999 5.98957 5.63997 5.85957 6.46997 5.77957C7.10997 5.73957 7.75001 5.69957 8.39001 5.64957C9.52001 5.63957 10.65 5.64957 11.78 5.72957C11.98 5.73957 11.92 5.61957 11.91 5.51957C11.86 5.08957 11.81 4.65957 11.76 4.21957C11.76 4.17957 11.76 4.14957 11.76 4.05957C12.02 4.29957 12.26 4.51957 12.49 4.72957C13.09 5.37957 13.69 6.02957 14.28 6.67957C14.33 6.74957 14.3799 6.82957 14.4399 6.89957C14.8499 7.40957 15.24 7.92957 15.58 8.48957L15.5699 8.49957Z" fill="#D8A50E"/>
<path d="M50.1898 0C50.2398 0.14 50.3698 0.129996 50.4698 0.159996C51.3298 0.389996 52.1998 0.609994 53.0698 0.829994C53.2498 0.879994 53.4298 0.920001 53.5998 0.970001C53.6498 0.980001 53.7198 0.970001 53.7298 1.04C53.7498 1.12 53.6698 1.14 53.6298 1.17C52.9198 1.65 52.1998 2.12 51.4898 2.59C51.0798 2.87 50.6598 3.14 50.2498 3.42C50.1398 3.5 50.0199 3.54 49.8899 3.54C49.0599 3.54 48.2199 3.54 47.3899 3.54C47.3199 3.54 47.2398 3.57 47.1998 3.5C47.1498 3.41 47.2399 3.36 47.2799 3.31C48.0599 2.29 48.8398 1.27 49.6298 0.25C49.6898 0.18 49.7598 0.109995 49.7398 0.00999451H49.9698C49.9698 0.00999451 50.0298 0.0499945 50.0598 0.00999451H50.1998L50.1898 0Z" fill="#0F034D"/>
<path d="M34.92 20.5099C34.87 20.3199 34.65 20.3399 34.54 20.2099C34.48 20.1299 34.31 20.0999 34.42 19.9399C34.56 19.7399 34.6599 19.6999 34.8199 19.8199C34.9999 19.9599 35.2 20.0099 35.42 20.0099C35.89 20.0099 36.11 19.7499 36.04 19.2199C35.77 19.5299 35.4399 19.5799 35.0899 19.5099C34.8599 19.4699 34.6899 19.3199 34.5499 19.1399C34.1999 18.6899 34.23 17.9799 34.62 17.5499C35 17.1299 35.4799 17.1199 36.0799 17.4999C36.1499 17.2699 36.3299 17.1699 36.5699 17.2499C36.6599 17.2799 36.66 17.3399 36.66 17.4099C36.66 18.1199 36.66 18.8299 36.65 19.5399C36.64 19.9099 36.4199 20.1599 36.0999 20.3299C36.0199 20.3699 35.89 20.3699 35.88 20.4999H35.14C35.14 20.4999 35.1099 20.4599 35.0899 20.4999H34.91L34.92 20.5099ZM36.0799 18.4299C36.0799 18.0199 35.85 17.7499 35.5 17.7499C35.2 17.7499 34.9299 18.0699 34.9299 18.4199C34.9299 18.7399 35.21 19.0399 35.52 19.0399C35.9 19.0399 36.0799 18.8399 36.0799 18.4299Z" fill="#251A64"/>
<path d="M0.0200195 10.9901C0.0800195 10.9701 0.110024 10.9201 0.150024 10.8701C0.380024 10.5301 0.709956 10.3001 1.07996 10.1201C1.05996 10.2601 1.18001 10.3001 1.26001 10.3601C1.67001 10.6901 2.11998 10.9701 2.59998 11.1901C2.51998 11.7201 2.35995 12.2301 2.19995 12.7301C1.73995 12.5401 1.28 12.3401 0.869995 12.0601C0.579995 11.8701 0.320015 11.6501 0.140015 11.3401C0.120015 11.3001 0.110029 11.2301 0.0300293 11.2601V11.1201C0.0300293 11.1201 0.0700293 11.0601 0.0300293 11.0301V10.9801L0.0200195 10.9901Z" fill="#796E01"/>
<path d="M94.2101 4.37027C94.2101 4.37027 94.1801 4.31027 94.2101 4.28027V4.37027Z" fill="black"/>
<path d="M50.0499 0C50.0499 0 49.99 0.03 49.96 0H50.0499Z" fill="black"/>
<path d="M0.0200195 11.04C0.0200195 11.04 0.0700195 11.1 0.0200195 11.13V11.04Z" fill="black"/>
<path d="M0.0200195 9.00999C0.0200195 9.00999 0.0599365 8.99999 0.0599365 9.00999C0.0599365 9.01999 0.0300195 9.03 0.0200195 9.05C0.0200195 9.03 0.0200195 9.02 0.0200195 9V9.00999Z" fill="black"/>
<path d="M32.7601 10.8105C32.9101 10.2305 33.0601 9.66046 33.2201 9.08046C33.3001 8.78046 33.3401 8.48046 33.3101 8.17046C33.2601 7.64046 32.7901 7.37046 32.1901 7.51046C31.7901 7.60046 31.51 7.82046 31.3 8.18046C30.99 8.72046 30.8901 9.33046 30.7201 9.92046C30.6301 10.2205 30.5701 10.5305 30.4601 10.8205C30.3601 10.7505 30.2501 10.8205 30.1401 10.8205C29.6101 10.8105 29.0901 10.7605 28.5601 10.7305C27.8401 10.6805 27.1101 10.6405 26.3901 10.5405C26.5201 10.0405 26.6401 9.55046 26.7701 9.05046C27.0001 8.17046 27.2401 7.29046 27.4701 6.42046C27.6501 5.73046 27.8401 5.05046 28.0201 4.36046C28.0701 4.17046 28.1701 4.10046 28.3801 4.10046C29.5801 4.10046 30.7701 4.10046 31.9701 4.10046C32.2601 4.10046 32.2701 4.12046 32.1901 4.41046C32.1201 4.66046 32.0401 4.91046 32.0101 5.17046C32.0101 5.17046 32.0101 5.18046 32.0101 5.19046C32.0101 5.19046 32.0101 5.19046 32.0201 5.18046C32.3201 4.92046 32.6101 4.65046 32.9501 4.44046C33.7401 3.95046 34.5901 3.79046 35.5001 3.93046C36.4101 4.07046 37.0601 4.56046 37.4501 5.39046C37.7401 6.01046 37.7601 6.67046 37.7201 7.34046C37.6801 8.21046 37.3702 9.02046 37.1702 9.86046C37.0902 10.1705 37.0102 10.4805 36.9202 10.7905C36.8502 10.8005 36.7701 10.8305 36.7001 10.8305C36.1701 10.8505 35.6301 10.8705 35.1001 10.8805C34.6001 10.8805 34.0901 10.8705 33.5901 10.8905C33.3101 10.9005 33.0301 10.9505 32.7601 10.8405V10.8105Z" fill="#251A64"/>
<path d="M61.5401 8.17969C61.2001 9.42969 60.8401 10.6797 60.5201 11.9397C60.2301 13.0797 59.91 14.2097 59.61 15.3497C59.49 15.8097 59.37 16.2697 59.26 16.7297C59.23 16.8697 59.1601 16.9197 59.0201 16.9197C57.7601 16.9197 56.49 16.9197 55.23 16.9197C55.09 16.9197 55.05 16.8697 55.09 16.7397C55.26 16.1197 55.43 15.4997 55.59 14.8797C55.61 14.7897 55.6901 14.7597 55.7701 14.7597C56.2601 14.7897 56.74 14.6897 57.23 14.6997C57.6 14.6997 57.97 14.5797 58.34 14.5697C58.02 14.5697 57.71 14.5697 57.39 14.5697C56.89 14.5697 56.3901 14.5697 55.9001 14.5697C55.7301 14.5697 55.69 14.5197 55.72 14.3597C55.79 14.0297 55.82 13.9997 56.14 13.9697C56.72 13.9097 57.31 13.8397 57.89 13.7897H56.36C56.36 13.7897 56.27 13.7897 56.22 13.7897C55.88 13.7897 55.86 13.7597 55.97 13.4397C55.97 13.4097 55.99 13.3797 56 13.3497C56.02 13.2897 56.06 13.2297 56 13.1897C55.94 13.1597 55.91 13.2197 55.87 13.2597C55.28 13.7597 54.61 14.1197 53.84 14.2297C52.83 14.3797 51.9201 14.1597 51.1601 13.4197C50.2701 12.5497 49.9901 11.4697 50.0301 10.2897C50.0301 10.0397 49.99 9.76968 50.07 9.51968C50.13 9.44968 50.21 9.43968 50.3 9.43968C50.5 9.41968 50.7101 9.39968 50.9101 9.37968C51.9401 9.24968 52.96 9.11969 53.99 8.98969C54.07 8.97969 54.14 8.98968 54.18 9.07968C54.14 9.27968 54.1301 9.48968 54.1601 9.69968C54.2301 10.1997 54.45 10.5797 54.94 10.7997C55.57 11.0897 56.48 10.7097 56.87 10.1997C57.16 9.81968 57.3 9.38968 57.39 8.93968C57.44 8.86968 57.43 8.78969 57.43 8.71969C57.43 8.62969 57.48 8.58968 57.57 8.57968C57.87 8.54968 58.16 8.51969 58.46 8.48969C59.17 8.41969 59.89 8.33968 60.6 8.26968C60.92 8.23968 61.23 8.16969 61.55 8.20969L61.5401 8.17969ZM57.21 13.0397H56.13C56.13 13.0397 56.13 13.0797 56.13 13.0997C56.56 13.1397 56.99 13.0197 57.21 13.0397Z" fill="#0F034D"/>
<path d="M66.3801 7.86039C66.2701 8.29039 66.17 8.72039 66.05 9.15039C65.99 9.36039 65.97 9.57039 65.96 9.78039C65.92 10.4904 66.6101 10.7704 67.1201 10.6204C67.7001 10.4604 67.98 10.0504 68.18 9.54039C68.41 8.96039 68.5 8.35038 68.7 7.76038C69.55 7.76038 70.4001 7.70039 71.2501 7.72039C71.7901 7.73039 72.3301 7.73039 72.8701 7.65039C72.6901 8.46039 72.4501 9.26039 72.2301 10.0604C71.9501 11.1104 71.6701 12.1504 71.4001 13.2004C71.3401 13.4104 71.2601 13.6204 71.2301 13.8404C71.2201 13.9704 71.1401 14.0204 71.0101 14.0104C69.7501 14.0104 68.49 14.0104 67.22 14.0104C67.06 14.0104 67.04 13.9504 67.06 13.8004C67.11 13.5104 67.2601 13.2504 67.2501 12.9504C67.2501 12.9504 67.2501 12.9504 67.2601 12.9404C67.2601 12.9404 67.2601 12.9404 67.2501 12.9504C66.9401 13.2404 66.6301 13.5404 66.2501 13.7504C65.2101 14.3304 64.1301 14.4804 63.0201 13.9704C62.2501 13.6104 61.8301 12.9604 61.6501 12.1504C61.4201 11.1204 61.6001 10.1304 61.8901 9.14039C62.0001 8.77039 62.08 8.40039 62.18 8.03039C62.61 8.16039 63.0501 8.03039 63.4801 8.02039C64.4501 7.99039 65.4101 7.91039 66.3801 7.85039V7.86039Z" fill="#0F034D"/>
<path d="M72.77 9.40984C72.8 8.77984 72.9499 8.16984 73.1899 7.58984C73.2599 7.66984 73.3399 7.67985 73.4399 7.67985C74.2599 7.67985 75.07 7.74984 75.89 7.72984C76.25 7.72984 76.61 7.72984 76.97 7.72984C76.91 7.87984 76.85 8.02985 76.78 8.17985C76.84 8.21985 76.91 8.21985 76.98 8.21985C77.77 8.21985 78.55 8.21985 79.34 8.21985C79.41 8.21985 79.48 8.21985 79.54 8.17985C79.56 8.08985 79.58 7.98985 79.6 7.89985C79.94 7.85985 80.28 7.91984 80.62 7.93984C81.29 7.97984 81.96 8.02984 82.62 8.11984C82.78 8.13984 82.99 8.04984 83.09 8.19984C83.18 8.33984 83.12 8.53985 83.12 8.71985C83.14 9.16985 83.02 9.59984 82.87 10.0198C80.85 10.0198 78.8399 10.0198 76.8199 10.0198C76.7099 10.0198 76.61 9.99984 76.5 10.0498C76.55 10.3698 76.62 10.6898 76.86 10.9198C77.31 11.3398 77.84 11.3898 78.42 11.2798C78.94 11.1798 79.4 10.9298 79.83 10.6298C79.94 10.5498 80.01 10.5498 80.1 10.6498C80.65 11.2598 81.2 11.8798 81.76 12.4798C81.88 12.6098 81.85 12.6798 81.74 12.7798C80.76 13.5898 79.64 14.0998 78.38 14.2298C77.29 14.3398 76.2099 14.2498 75.1899 13.7798C73.9399 13.2098 73.14 12.2698 72.86 10.9098C72.82 10.7198 72.76 10.5398 72.78 10.3498C72.78 10.0398 72.78 9.71984 72.78 9.40984H72.77Z" fill="#0F034D"/>
<path d="M61.5402 8.18015C61.2202 8.14015 60.9001 8.22015 60.5901 8.24015C59.8801 8.30015 59.1601 8.38015 58.4501 8.46015C58.1501 8.49015 57.8601 8.52015 57.5601 8.55015C57.4701 8.55015 57.4202 8.60015 57.4202 8.69015C57.4202 8.77015 57.4201 8.84015 57.3801 8.91015C57.3801 8.80015 57.3801 8.68015 57.3801 8.57015C57.3401 8.17015 57.2301 7.81015 56.9001 7.54015C56.1901 6.97015 55.1601 7.35015 54.7101 7.92015C54.4401 8.25015 54.2701 8.63015 54.1901 9.06015C54.1501 8.98015 54.0801 8.96016 54.0001 8.97016C52.9701 9.10016 51.9502 9.23015 50.9202 9.36015C50.7202 9.39015 50.5101 9.41015 50.3101 9.42015C50.2201 9.42015 50.1401 9.43015 50.0801 9.50015C50.1001 8.86015 50.2701 8.25016 50.4801 7.65016C50.7501 6.88016 51.1601 6.18015 51.7001 5.56015C52.3901 4.78015 53.2101 4.17015 54.2401 3.96015C55.6401 3.67015 56.9202 3.86015 57.9202 5.02015C58.2302 5.38015 58.3501 5.82015 58.4701 6.27015C58.5401 6.53015 58.6301 6.80015 58.6401 7.07015C58.6801 6.72015 58.6701 6.37015 58.6001 6.03015C58.5301 5.71015 58.4501 5.39015 58.2701 5.11015C58.2301 5.05015 58.2201 4.99015 58.2501 4.91015C58.3101 4.69015 58.3801 4.47015 58.4301 4.25015C58.4601 4.13015 58.5301 4.09015 58.6401 4.09015C59.9001 4.09015 61.1701 4.09015 62.4301 4.09015C62.5801 4.09015 62.6301 4.14015 62.5801 4.30015C62.2601 5.48015 61.9401 6.66015 61.6301 7.84015C61.6001 7.95015 61.58 8.06015 61.55 8.17015L61.5402 8.18015Z" fill="#251A64"/>
<path d="M16.3799 8.23017C16.6099 7.31017 17.0698 6.51017 17.6898 5.80017C18.3798 5.01017 19.2399 4.47018 20.2299 4.14018C21.0999 3.85018 21.9999 3.82018 22.8999 3.89018C23.6799 3.96018 24.3899 4.20018 25.0199 4.67018C25.6299 5.13018 26.0398 5.73017 26.2998 6.45017C26.4898 6.99017 26.5798 7.55018 26.5798 8.11018C26.5798 8.71018 26.5198 9.31018 26.3098 9.89018C26.2098 9.97018 26.0898 9.98017 25.9598 9.98017C24.9298 9.98017 23.8899 9.98017 22.8599 9.98017C22.7499 9.98017 22.6299 9.98017 22.5199 9.95017C21.9199 9.85017 21.3399 9.72017 20.7499 9.58017C19.3799 9.27017 18.0398 8.87017 16.7198 8.41017C16.5998 8.37017 16.4699 8.33017 16.3799 8.23017ZM21.5798 8.18018C21.8698 8.18018 22.1598 8.18018 22.4498 8.18018C23.0298 8.18018 22.9698 8.28018 22.9698 7.65018C22.9698 7.26018 22.6499 6.87018 22.2799 6.79018C21.3399 6.59018 20.5799 7.19018 20.2499 7.99018C20.1899 8.13018 20.2299 8.18018 20.3799 8.18018C20.7799 8.18018 21.1798 8.18018 21.5798 8.18018ZM20.2998 8.24018C20.2998 8.24018 20.2998 8.25017 20.2998 8.26017H22.8298C22.8298 8.26017 22.8298 8.25018 22.8298 8.24018H20.2998Z" fill="#251A64"/>
<path d="M37.46 10.7603C37.46 10.4303 37.6099 10.1203 37.6899 9.80031C38.0699 8.34031 38.48 6.89031 38.86 5.44031C38.97 5.03031 39.0699 4.63032 39.1899 4.22032C39.2299 4.09032 39.29 4.06031 39.42 4.06031C40.65 4.06031 41.87 4.08031 43.1 4.06031C43.34 4.06031 43.3899 4.08031 43.3199 4.37031C43.2099 4.82031 43.09 5.26031 42.97 5.70031C42.96 5.74031 42.92 5.78031 42.97 5.85031C43.23 5.50031 43.53 5.18031 43.85 4.89031C44.53 4.27031 45.34 3.94031 46.26 3.89031C46.46 3.88031 46.54 3.91031 46.48 4.14031C46.27 4.88031 46.08 5.63031 45.88 6.38031C45.75 6.86031 45.63 7.34031 45.5 7.82031C45.5 7.85031 45.5 7.88031 45.48 7.91031C45.37 8.34031 45.33 8.37031 44.89 8.34031C44.28 8.30031 43.7 8.45031 43.17 8.73031C42.5 9.09031 42.09 9.68032 41.78 10.3603C41.76 10.4103 41.74 10.4603 41.72 10.5103C41.29 10.4703 40.87 10.5403 40.45 10.5703C39.45 10.6303 38.46 10.7003 37.46 10.7403V10.7603Z" fill="#251A64"/>
<path d="M86.4298 8.4602C86.5798 8.6702 86.8199 8.6002 87.0199 8.6302C87.9799 8.7902 88.9499 8.94019 89.8999 9.19019C90.0199 9.22019 90.1399 9.2302 90.2599 9.2502C89.8999 9.6002 89.4899 9.8802 89.0999 10.2002C88.8699 10.3902 88.6399 10.5702 88.4099 10.7602C88.4999 10.8202 88.5999 10.8002 88.6999 10.8002C89.8499 10.8002 90.9899 10.8002 92.1399 10.8002C92.2299 10.8002 92.3399 10.7602 92.4099 10.8702C92.3399 11.3302 92.1698 11.7702 92.0598 12.2202C91.9398 12.7302 91.7799 13.2402 91.6599 13.7502C91.6099 13.9502 91.5098 14.0102 91.3098 14.0102C88.2898 14.0102 85.2699 14.0102 82.2499 14.0102C82.0499 14.0102 81.9798 13.9902 82.0498 13.7602C82.2598 13.0602 82.4399 12.3402 82.6199 11.6302C82.6599 11.4602 82.7599 11.3502 82.8899 11.2502C84.0699 10.3202 85.2598 9.3802 86.4398 8.4502L86.4298 8.4602Z" fill="#0F034D"/>
<path d="M16.3799 8.23047C16.4799 8.32047 16.5999 8.37047 16.7199 8.41047C18.0399 8.87047 19.3799 9.27047 20.7499 9.58047C21.3399 9.71047 21.93 9.85047 22.52 9.95047C22.63 9.97047 22.7499 9.98047 22.8599 9.98047C23.8899 9.98047 24.9299 9.98047 25.9599 9.98047C26.0899 9.98047 26.1999 9.97047 26.3099 9.89047C26.3099 9.94047 26.31 9.99047 26.27 10.0205C24.22 10.0205 22.1699 10.0205 20.1099 10.0205C20.0399 10.0205 19.97 10.0005 19.91 10.0505C19.97 11.0005 20.6999 11.4105 21.5699 11.3205C22.1799 11.2605 22.7199 11.0105 23.1999 10.6405C23.3199 10.5505 23.3899 10.5505 23.4799 10.6605C24.0399 11.2805 24.61 11.8905 25.17 12.5005C25.26 12.5905 25.27 12.6605 25.15 12.7605C24.18 13.5905 23.0599 14.0805 21.7999 14.2405C20.6499 14.3805 19.5199 14.2405 18.4599 13.7505C17.2299 13.1605 16.4699 12.1905 16.2099 10.8405C16.0399 9.96047 16.1099 9.10047 16.3499 8.24047L16.3799 8.23047Z" fill="#0F034D"/>
<path d="M83.1198 8.71988C83.1198 8.54988 83.1797 8.34988 83.0897 8.19988C82.9897 8.04988 82.7798 8.13988 82.6198 8.11988C81.9598 8.02988 81.2898 7.97988 80.6198 7.93988C80.2798 7.91988 79.9397 7.85989 79.5997 7.89989C79.5997 7.51989 79.5297 7.16988 79.1897 6.92988C78.7997 6.65988 78.3797 6.69988 77.9597 6.83988C77.5097 6.98988 77.2297 7.33988 76.9597 7.71988C76.5997 7.71988 76.2398 7.69988 75.8798 7.71988C75.0598 7.73988 74.2497 7.66988 73.4297 7.66988C73.3297 7.66988 73.2497 7.65988 73.1797 7.57988C73.3897 6.96988 73.7398 6.44988 74.1398 5.94988C74.7398 5.19988 75.4998 4.65988 76.3798 4.28988C76.9998 4.02988 77.6497 3.86988 78.3197 3.85988C79.0097 3.83988 79.6898 3.83988 80.3698 4.04988C81.5098 4.39988 82.3297 5.09988 82.7997 6.20988C83.1297 6.97988 83.1898 7.77988 83.1498 8.58988C83.1498 8.62988 83.1297 8.67988 83.1097 8.71988H83.1198ZM83.0897 7.81988C83.0897 7.81988 83.0997 7.81988 83.1097 7.81988V7.62988C83.1097 7.62988 83.0997 7.62988 83.0897 7.62988V7.81988Z" fill="#251A64"/>
<path d="M45.23 9.98008C45.37 9.44008 45.5 8.90008 45.65 8.36008C45.89 7.45008 46.14 6.55008 46.38 5.64008C46.5 5.20008 46.62 4.76008 46.73 4.31008C46.77 4.14008 46.87 4.08008 47.04 4.08008C48.27 4.08008 49.49 4.08008 50.72 4.08008C50.98 4.08008 50.98 4.08008 50.91 4.34008C50.67 5.24008 50.4299 6.14008 50.1899 7.04008C49.9699 7.86008 49.74 8.67008 49.52 9.49008C49.44 9.47008 49.3899 9.55008 49.3199 9.57008C48.0399 9.77008 46.76 9.97008 45.47 10.1301C45.32 10.1501 45.27 10.1101 45.24 9.98008H45.23Z" fill="#251A64"/>
<path d="M15.5702 8.49981C15.2302 7.93981 14.8402 7.41981 14.4302 6.90981C14.3702 6.83981 14.3202 6.7598 14.2702 6.6898C14.3302 6.5198 14.4002 6.33981 14.4402 6.16981C14.8202 4.73981 15.2002 3.30981 15.5902 1.87981C15.6402 1.68981 15.7102 1.4998 15.7002 1.2998C16.2702 1.2998 16.8302 1.2998 17.4002 1.2998C17.6702 1.2998 17.6902 1.31981 17.6302 1.56981C17.4502 2.26981 17.2602 2.97981 17.0702 3.67981C16.8402 4.52981 16.6102 5.3798 16.3802 6.2298C16.1402 7.1298 15.9002 8.02981 15.6502 8.92981C15.3702 9.98981 15.0801 11.0398 14.8001 12.0998C14.6401 12.6898 14.4802 13.2798 14.3302 13.8698C14.2902 14.0198 14.2002 14.0298 14.0702 14.0298C13.4902 14.0298 12.9102 14.0298 12.3202 14.0298C11.5802 14.0298 10.8302 14.0298 10.0902 14.0298C9.96019 13.9898 10.0102 13.8998 10.0302 13.8298C10.1902 13.2198 10.3502 12.6198 10.5102 12.0198C10.5302 11.9398 10.5703 11.8798 10.6603 11.8698C10.5003 12.4998 10.3403 13.1298 10.1703 13.7598C10.1103 13.9598 10.1702 13.9998 10.3602 13.9998C10.9202 13.9998 11.4803 13.9898 12.0403 13.9998C12.2603 13.9998 12.3503 13.9298 12.4103 13.7198C12.7203 12.5398 13.0302 11.3698 13.3502 10.1998C14.0502 9.69981 14.7502 9.20981 15.4402 8.70981C15.5002 8.66981 15.6402 8.65981 15.5702 8.51981V8.49981Z" fill="#0F034D"/>
<path d="M45.2302 9.98019C45.2502 10.1102 45.3002 10.1502 45.4602 10.1302C46.7502 9.97019 48.0301 9.7602 49.3101 9.5702C49.3901 9.5602 49.4302 9.47019 49.5102 9.49019C49.3002 10.3002 49.0802 11.1102 48.8702 11.9302C48.7102 12.5502 48.5302 13.1702 48.3802 13.7902C48.3402 13.9602 48.2602 14.0302 48.0802 14.0302C46.8602 14.0302 45.6302 14.0302 44.4102 14.0302C44.2202 14.0302 44.1602 13.9702 44.2102 13.7802C44.5502 12.5302 44.8802 11.2902 45.2102 10.0402C45.2102 10.0202 45.2302 10.0002 45.2402 9.98019H45.2302Z" fill="#0F034D"/>
<path d="M66.3798 7.86008C65.4098 7.92008 64.4497 8.00008 63.4797 8.03008C63.0497 8.04008 62.6197 8.17008 62.1797 8.04008C62.5097 6.79008 62.8498 5.55008 63.1698 4.30008C63.2098 4.14008 63.2897 4.08008 63.4597 4.08008C64.6897 4.08008 65.9298 4.08008 67.1598 4.08008C67.3398 4.08008 67.3897 4.13008 67.3397 4.31008C67.1597 4.97008 66.9897 5.64008 66.8097 6.30008C66.6697 6.81008 66.5398 7.32008 66.3998 7.83008C66.3998 7.83008 66.3798 7.85008 66.3798 7.86008Z" fill="#251A64"/>
<path d="M72.8702 7.65009C72.3302 7.73009 71.7902 7.73009 71.2502 7.72009C70.4002 7.70009 69.5502 7.76008 68.7002 7.76008C68.7602 7.31008 68.9203 6.89008 69.0303 6.45008C69.2103 5.72008 69.4202 4.99008 69.6102 4.26008C69.6502 4.09008 69.7603 4.08008 69.9003 4.08008C71.0003 4.08008 72.1102 4.08008 73.2102 4.08008C73.2602 4.08008 73.3202 4.08008 73.3702 4.08008C73.8402 4.08008 73.8502 4.08008 73.7302 4.54008C73.4702 5.53008 73.2002 6.52008 72.9302 7.51008C72.9202 7.56008 72.8902 7.61008 72.8702 7.66008V7.65009Z" fill="#251A64"/>
<path d="M37.4603 10.7596C38.4603 10.7196 39.4502 10.6496 40.4502 10.5896C40.8702 10.5596 41.3003 10.4896 41.7203 10.5296C41.4003 11.3596 41.2103 12.2296 40.9903 13.0796C40.9303 13.3296 40.8503 13.5796 40.7903 13.8296C40.7603 13.9596 40.6902 14.0196 40.5502 14.0196C39.3002 14.0196 38.0502 14.0196 36.8002 14.0196C36.6802 14.0196 36.5603 14.0096 36.6103 13.8296C36.8803 12.8496 37.1403 11.8696 37.4003 10.8896C37.4103 10.8496 37.4302 10.8096 37.4502 10.7596H37.4603Z" fill="#0F034D"/>
<path d="M26.3999 10.5295C27.1199 10.6295 27.8398 10.6695 28.5698 10.7195C29.0998 10.7495 29.6199 10.7995 30.1499 10.8095C30.2599 10.8095 30.3598 10.7495 30.4698 10.8095C30.2998 11.6095 30.0598 12.3895 29.8498 13.1795C29.7898 13.3895 29.7299 13.6095 29.6699 13.8195C29.6299 13.9595 29.5599 14.0195 29.4099 14.0195C28.1599 14.0195 26.9199 14.0195 25.6699 14.0195C25.5199 14.0195 25.4599 13.9595 25.4999 13.8095C25.6699 13.1795 25.8399 12.5595 26.0099 11.9295C26.1399 11.4595 26.2699 10.9895 26.3999 10.5195V10.5295Z" fill="#0F034D"/>
<path d="M32.7603 10.8098C33.0303 10.9198 33.3102 10.8698 33.5902 10.8598C34.0902 10.8398 34.6002 10.8598 35.1002 10.8498C35.6302 10.8498 36.1702 10.8198 36.7002 10.7998C36.7802 10.7998 36.8503 10.7698 36.9203 10.7598C36.6803 11.6398 36.4402 12.5298 36.2002 13.4098C36.2002 13.4398 36.1803 13.4698 36.1703 13.4998C36.0503 14.1398 36.0703 14.0198 35.5103 14.0198C34.3903 14.0198 33.2603 14.0198 32.1403 14.0198C31.8703 14.0198 31.8802 14.0198 31.9502 13.7698C32.2102 12.8198 32.4502 11.8698 32.7102 10.9198C32.7102 10.8798 32.7403 10.8498 32.7503 10.8098H32.7603Z" fill="#0F034D"/>
<path d="M6.45996 5.78004C5.62996 5.87004 4.79998 5.99004 3.97998 6.15004C4.14998 5.50004 4.32 4.85004 4.5 4.21004C4.73 3.34004 4.95994 2.47004 5.18994 1.60004C5.21994 1.49004 5.21995 1.37004 5.31995 1.29004C5.32995 1.29004 5.34999 1.29004 5.35999 1.29004C6.10999 1.29004 6.87 1.29004 7.62 1.29004C7.62 1.37004 7.61997 1.44003 7.58997 1.52003C7.36997 2.33003 7.14994 3.14004 6.93994 3.95004C6.77994 4.56004 6.57998 5.15003 6.47998 5.77003L6.45996 5.78004Z" fill="#251A64"/>
<path d="M15.7 1.29004C15.7 1.49004 15.64 1.68003 15.59 1.87003C15.21 3.30003 14.8299 4.73003 14.4399 6.16003C14.3899 6.34003 14.32 6.51004 14.27 6.68004C13.67 6.03004 13.07 5.38003 12.48 4.73003C12.65 4.08003 12.82 3.43004 12.99 2.79004C13.12 2.30004 13.24 1.82003 13.37 1.33003C13.41 1.35003 13.44 1.34004 13.45 1.29004C14.2 1.29004 14.95 1.29004 15.71 1.29004H15.7Z" fill="#251A64"/>
<path d="M3.1498 9.75997C3.8898 9.69997 4.61978 9.62997 5.36978 9.66997C5.35978 9.73997 5.35975 9.80997 5.33975 9.86997C4.98975 11.18 4.63982 12.49 4.28982 13.79C4.25982 13.91 4.19973 13.97 4.06973 13.97C3.45973 13.97 2.83976 13.97 2.22976 13.97C2.08976 13.97 2.03974 13.91 2.07974 13.77C2.39974 12.55 2.7098 11.33 3.0198 10.1C3.0698 9.91997 3.12975 9.78997 3.33975 9.80997C3.27975 9.78997 3.2098 9.76997 3.1498 9.74997V9.75997Z" fill="#251A64"/>
<path d="M3.15017 9.76046C3.21017 9.78046 3.28012 9.80046 3.34012 9.82046C3.13012 9.80046 3.06017 9.93046 3.02017 10.1105C2.71017 11.3305 2.39011 12.5605 2.08011 13.7805C2.04011 13.9305 2.09013 13.9805 2.23013 13.9805C2.84013 13.9805 3.4601 13.9805 4.0701 13.9805C4.2001 13.9805 4.26019 13.9205 4.29019 13.8005C4.64019 12.4905 4.99012 11.1805 5.34012 9.88046C5.36012 9.81046 5.36015 9.74046 5.37015 9.68046C5.61015 9.66046 5.84011 9.66046 6.08011 9.71046C6.41011 9.79046 6.75012 9.76046 7.09012 9.76046C7.26012 9.76046 7.29015 9.82046 7.25015 9.98046C6.90015 11.2605 6.56013 12.5305 6.23013 13.8105C6.18013 13.9805 6.10019 14.0405 5.92019 14.0405C5.36019 14.0405 4.80014 14.0405 4.24014 14.0405C3.50014 14.0405 2.75016 14.0405 2.01016 14.0405C1.87016 14.0405 1.88018 13.9605 1.91018 13.8505C2.01018 13.4805 2.1001 13.1205 2.2001 12.7505C2.3701 12.2405 2.53013 11.7405 2.60013 11.2105C2.73013 10.8705 2.79017 10.5105 2.90017 10.1605C2.95017 10.0105 2.93018 9.81046 3.16018 9.77046L3.15017 9.76046Z" fill="#0F034D"/>
<path d="M6.46021 5.77981C6.57021 5.15981 6.77029 4.56981 6.92029 3.95981C7.13029 3.14981 7.36019 2.33981 7.57019 1.52981C7.59019 1.45981 7.59022 1.3798 7.60022 1.2998C8.17022 1.2998 8.73017 1.2998 9.30017 1.2998C9.46017 1.2998 9.55023 1.32981 9.49023 1.51981C9.37023 1.94981 9.27027 2.37981 9.15027 2.80981C8.89027 3.75981 8.63024 4.70981 8.37024 5.65981C7.73024 5.69981 7.0902 5.73981 6.4502 5.78981L6.46021 5.77981Z" fill="#0F034D"/>
<path d="M13.35 10.1799C13.04 11.3499 12.72 12.5299 12.41 13.6999C12.36 13.8999 12.26 13.9799 12.04 13.9799C11.48 13.9599 10.92 13.9799 10.36 13.9799C10.17 13.9799 10.12 13.9399 10.17 13.7399C10.35 13.1099 10.5 12.4799 10.66 11.8499C10.68 11.8199 10.6899 11.7899 10.7099 11.7699C10.8299 11.6799 10.9599 11.5799 11.0799 11.4899C11.1099 11.5799 11.0099 11.6599 11.0499 11.7599C11.8099 11.2299 12.5699 10.6999 13.3299 10.1699L13.35 10.1799Z" fill="#251A64"/>
<path d="M2.92007 16.4702C3.21007 16.4402 3.49004 16.5702 3.76004 16.7002C3.91004 16.7702 3.95001 16.8602 3.86001 17.0102C3.82001 17.0702 3.78003 17.1402 3.75003 17.2102C3.70003 17.3302 3.64006 17.3202 3.54006 17.2602C3.29006 17.0902 3.00999 17.0302 2.70999 17.0602C2.54999 17.0702 2.44006 17.1302 2.41006 17.2902C2.38006 17.4502 2.44001 17.5702 2.61001 17.6302C2.89001 17.7202 3.17999 17.8002 3.45999 17.9002C3.89999 18.0602 4.06995 18.3102 4.04995 18.7702C4.02995 19.1102 3.74001 19.4502 3.36001 19.5402C2.80001 19.6602 2.27004 19.5702 1.77004 19.2802C1.65004 19.2102 1.62997 19.1502 1.68997 19.0302C1.86997 18.7102 1.85999 18.7002 2.20999 18.8502C2.46999 18.9602 2.74005 19.0502 3.03005 19.0202C3.19005 19.0002 3.34001 18.9602 3.36001 18.7702C3.38001 18.5902 3.28002 18.5002 3.12002 18.4502C2.87002 18.3702 2.61001 18.2802 2.36001 18.2002C1.91001 18.0502 1.72001 17.8202 1.73001 17.4402C1.74001 17.0102 1.99996 16.6702 2.42996 16.5502C2.57996 16.5102 2.73005 16.4902 2.90005 16.5002L2.92007 16.4702Z" fill="#251A64"/>
<path d="M23.4899 18.5802C23.2699 18.5802 23.0499 18.5802 22.8199 18.5802C22.6399 18.5802 22.6299 18.6502 22.6999 18.7902C22.8599 19.1302 23.35 19.2202 23.64 18.9502C23.76 18.8302 24.0699 18.8302 24.1899 18.9502C24.2799 19.0402 24.18 19.0902 24.14 19.1402C23.83 19.5602 23.1599 19.7102 22.6899 19.4902C22.1799 19.2402 21.94 18.8202 22.01 18.2402C22.06 17.7802 22.42 17.3802 22.88 17.2802C23.46 17.1602 23.9499 17.3502 24.2399 17.8202C24.2599 17.8602 24.2799 17.9002 24.2999 17.9402C24.5099 18.4802 24.4299 18.6002 23.8699 18.6002C23.7499 18.6002 23.62 18.6002 23.5 18.6002L23.4899 18.5802ZM23.1999 18.1902C23.3399 18.1902 23.4699 18.1902 23.6099 18.1902C23.7199 18.1902 23.7599 18.1402 23.7299 18.0302C23.6699 17.8402 23.4199 17.6602 23.1999 17.6602C22.9699 17.6602 22.73 17.8402 22.67 18.0302C22.64 18.1302 22.67 18.1802 22.77 18.1802C22.91 18.1802 23.0599 18.1802 23.1999 18.1802V18.1902Z" fill="#251A64"/>
<path d="M33.8098 18.4C33.8498 19.02 33.3099 19.57 32.6299 19.57C31.9699 19.57 31.4198 19.05 31.4298 18.4C31.4398 17.74 31.9499 17.21 32.6099 17.23C33.3199 17.25 33.7998 17.71 33.7998 18.4H33.8098ZM32.0698 18.39C32.0698 18.76 32.2799 19.02 32.6099 19.03C32.9399 19.04 33.1898 18.78 33.1998 18.4C33.2098 18.05 32.9599 17.75 32.6399 17.74C32.3199 17.74 32.0798 18 32.0698 18.38V18.39Z" fill="#251A64"/>
<path d="M6.96022 18.4004C6.96022 19.0804 6.4703 19.5704 5.7903 19.5804C5.1203 19.5804 4.57021 19.0504 4.58021 18.4004C4.59021 17.7704 5.0703 17.2104 5.7903 17.2404C6.4903 17.2604 6.96022 17.7104 6.96022 18.4004ZM5.77028 19.0404C6.11028 19.0404 6.33022 18.8004 6.34022 18.4104C6.34022 18.0404 6.11029 17.7604 5.78029 17.7504C5.45029 17.7504 5.21022 18.0104 5.21022 18.3904C5.21022 18.7704 5.43028 19.0304 5.77028 19.0404Z" fill="#251A64"/>
<path d="M17.4003 17.2402C18.0903 17.2402 18.5802 17.7202 18.5802 18.4002C18.5802 19.0702 18.0703 19.5802 17.4003 19.5802C16.7203 19.5802 16.2002 19.0702 16.2002 18.4002C16.2002 17.7302 16.7003 17.2502 17.3903 17.2502L17.4003 17.2402ZM16.8402 18.4002C16.8402 18.7802 17.0502 19.0402 17.3702 19.0402C17.7102 19.0402 17.9502 18.7802 17.9602 18.4102C17.9602 18.0402 17.7203 17.7602 17.4003 17.7502C17.0803 17.7502 16.8402 18.0202 16.8402 18.4002Z" fill="#251A64"/>
<path d="M19.8099 17.5502C20.0599 17.3202 20.3299 17.2202 20.6499 17.2302C20.9999 17.2502 21.22 17.3902 21.29 17.7302C21.41 18.2802 21.3299 18.8402 21.3399 19.4002C21.3399 19.4802 21.2899 19.5202 21.2099 19.5302C20.7899 19.6002 20.7199 19.5402 20.7199 19.1202C20.7199 18.8302 20.7199 18.5402 20.7199 18.2502C20.7199 17.9002 20.6099 17.7402 20.3799 17.7402C20.0999 17.7402 19.8399 18.0002 19.8299 18.2802C19.8299 18.6102 19.8099 18.9402 19.8299 19.2702C19.8399 19.5302 19.6999 19.5302 19.5099 19.5302C19.3199 19.5302 19.1899 19.5302 19.1899 19.2702C19.2099 18.7002 19.1899 18.1202 19.1899 17.5502C19.1899 17.4202 19.1399 17.2502 19.3799 17.2402C19.7199 17.2302 19.7398 17.2402 19.7998 17.5402L19.8099 17.5502Z" fill="#251A64"/>
<path d="M48.7901 19.2399C48.6301 19.3599 48.4801 19.4799 48.2901 19.5299C47.7801 19.6599 47.32 19.4099 47.25 18.9799C47.18 18.5299 47.51 18.1599 48.05 18.1199C48.22 18.1099 48.4 18.0999 48.57 18.1599C48.69 18.1999 48.72 18.1499 48.71 18.0399C48.7 17.8599 48.61 17.7399 48.43 17.6899C48.17 17.6099 47.93 17.6899 47.71 17.8199C47.58 17.8899 47.51 17.8899 47.44 17.7399C47.39 17.6099 47.3201 17.5199 47.5101 17.4299C47.9801 17.2099 48.4501 17.1499 48.9201 17.3899C49.1901 17.5299 49.31 17.7699 49.31 18.0699C49.31 18.2799 49.31 18.4999 49.31 18.7099C49.31 18.8099 49.3101 18.9099 49.4001 18.9799C49.5601 19.1199 49.49 19.2999 49.47 19.4499C49.45 19.5799 49.3 19.5599 49.2 19.5699C49.04 19.5699 48.9 19.5199 48.83 19.3499C48.82 19.3199 48.8001 19.2799 48.7801 19.2399H48.7901ZM48.72 18.7399C48.72 18.6299 48.7201 18.5599 48.6401 18.5099C48.4501 18.4099 48.11 18.4299 47.94 18.5599C47.8 18.6699 47.78 18.8099 47.87 18.9399C47.99 19.0999 48.16 19.1499 48.36 19.0799C48.54 19.0099 48.72 18.9399 48.73 18.7299L48.72 18.7399Z" fill="#251A64"/>
<path d="M10.83 19.2003C10.62 19.3803 10.41 19.5303 10.13 19.5603C9.65 19.6303 9.28002 19.3303 9.27002 18.8403C9.27002 18.3803 9.27002 17.9203 9.27002 17.4603C9.27002 17.1903 9.43997 17.2503 9.58997 17.2403C9.74997 17.2403 9.88 17.2403 9.87 17.4603C9.85 17.8203 9.87 18.1803 9.87 18.5403C9.87 18.8703 9.98998 19.0203 10.23 19.0203C10.53 19.0203 10.78 18.7903 10.79 18.5003C10.79 18.1603 10.79 17.8103 10.79 17.4703C10.79 17.3003 10.84 17.2203 11.01 17.2403C11.07 17.2403 11.1299 17.2403 11.1899 17.2403C11.3399 17.2303 11.39 17.3003 11.39 17.4403C11.39 17.8503 11.39 18.2703 11.39 18.6803C11.39 18.8003 11.38 18.9103 11.51 19.0003C11.61 19.0703 11.59 19.4203 11.51 19.4903C11.36 19.6103 11.06 19.5603 10.95 19.3903C10.91 19.3303 10.89 19.2603 10.85 19.1803L10.83 19.2003Z" fill="#251A64"/>
<path d="M28.87 18.02C28.87 17.58 28.88 17.15 28.87 16.71C28.86 16.42 29.05 16.47 29.22 16.46C29.4 16.46 29.51 16.47 29.5 16.7C29.49 17.37 29.5 18.03 29.5 18.7C29.5 18.89 29.56 18.96 29.75 18.95C30.1 18.94 30.4499 18.96 30.8099 18.95C31.0699 18.94 31.07 19.08 31.07 19.26C31.07 19.46 31.0199 19.55 30.7999 19.54C30.2399 19.53 29.68 19.53 29.12 19.54C28.94 19.54 28.88 19.49 28.88 19.31C28.88 18.88 28.88 18.45 28.88 18.02H28.87Z" fill="#251A64"/>
<path d="M25.8598 17.2402C26.1098 17.2402 26.3498 17.2902 26.5698 17.4002C26.6598 17.4502 26.7698 17.4802 26.6798 17.6202C26.6098 17.7302 26.5599 17.9002 26.3699 17.8102C26.2299 17.7402 26.0898 17.6902 25.9398 17.6602C25.8498 17.6402 25.7599 17.6402 25.6699 17.6702C25.5699 17.7002 25.4799 17.7502 25.4899 17.8702C25.4899 17.9902 25.5698 18.0402 25.6798 18.0702C25.8898 18.1302 26.0898 18.1802 26.2998 18.2502C26.6998 18.3902 26.8398 18.5602 26.8298 18.8802C26.8198 19.2002 26.6098 19.3902 26.3398 19.4802C25.8498 19.6602 25.3699 19.5402 24.9199 19.3202C24.7699 19.2502 24.8399 19.1402 24.8999 19.0502C24.9599 18.9702 24.9799 18.7902 25.1599 18.8902C25.3999 19.0202 25.6498 19.1002 25.9298 19.0802C26.0598 19.0802 26.1898 19.0402 26.2198 18.9002C26.2598 18.7302 26.1099 18.7002 25.9999 18.6602C25.7999 18.5902 25.5899 18.5502 25.3799 18.4802C25.0499 18.3702 24.8999 18.1902 24.8999 17.9402C24.8999 17.6602 25.1099 17.3802 25.3899 17.2802C25.5399 17.2202 25.6999 17.2102 25.8699 17.2202L25.8598 17.2402Z" fill="#251A64"/>
<path d="M39.7298 17.2399C39.9798 17.2399 40.2198 17.2799 40.4398 17.3999C40.5198 17.4499 40.6698 17.4599 40.5798 17.5999C40.5098 17.7199 40.4499 17.9099 40.2399 17.7899C40.1099 17.7199 39.9698 17.6799 39.8298 17.6499C39.7298 17.6299 39.6299 17.6399 39.5399 17.6699C39.4499 17.6999 39.3899 17.7499 39.3899 17.8499C39.3899 17.9499 39.4399 18.0299 39.5399 18.0599C39.7599 18.1299 39.9798 18.1799 40.1998 18.2599C40.5998 18.3999 40.7398 18.5799 40.7198 18.8899C40.6998 19.2099 40.4998 19.3999 40.2298 19.4899C39.7398 19.6599 39.2598 19.5399 38.8098 19.3199C38.6698 19.2499 38.7299 19.1499 38.7899 19.0699C38.8599 18.9899 38.8698 18.7799 39.0698 18.8999C39.2898 19.0299 39.5299 19.0999 39.7899 19.0899C39.8599 19.0899 39.9299 19.0799 39.9899 19.0499C40.0599 19.0199 40.1199 18.9699 40.1299 18.8799C40.1299 18.7899 40.0699 18.7499 39.9999 18.7099C39.7799 18.5899 39.5298 18.5899 39.2998 18.5099C38.9598 18.3799 38.8098 18.2199 38.8098 17.9499C38.8098 17.6599 39.0398 17.3699 39.3498 17.2799C39.4798 17.2399 39.6199 17.2299 39.7599 17.2399H39.7298Z" fill="#251A64"/>
<path d="M51.0202 17.2402C51.2902 17.2402 51.5402 17.2902 51.7702 17.4202C51.8502 17.4702 51.9602 17.5002 51.8602 17.6102C51.7802 17.7002 51.7701 17.9302 51.5501 17.8102C51.4101 17.7302 51.2702 17.6802 51.1202 17.6602C51.0502 17.6502 50.9702 17.6402 50.8902 17.6602C50.7702 17.6802 50.6602 17.7302 50.6502 17.8702C50.6502 18.0002 50.7502 18.0402 50.8602 18.0802C51.1202 18.1702 51.4002 18.2102 51.6402 18.3402C51.8302 18.4402 51.9602 18.5702 51.9802 18.7902C51.9902 19.0402 51.9201 19.2602 51.6901 19.4002C51.2901 19.6502 50.8702 19.5902 50.4502 19.4802C50.3802 19.4602 50.3202 19.4302 50.2602 19.4102C49.9402 19.2902 49.9402 19.2602 50.1102 18.9802C50.1802 18.8702 50.2502 18.8502 50.3702 18.9202C50.5902 19.0502 50.8402 19.1202 51.1002 19.0902C51.2202 19.0802 51.3602 19.0702 51.3802 18.9102C51.4002 18.7602 51.2802 18.7102 51.1702 18.6802C50.9702 18.6202 50.7702 18.5802 50.5802 18.5102C50.2202 18.3902 50.0802 18.2302 50.0802 17.9602C50.0802 17.6702 50.2902 17.4002 50.5902 17.2902C50.7302 17.2402 50.8802 17.2402 51.0202 17.2402Z" fill="#251A64"/>
<path d="M45.7802 17.2398C46.1402 17.2098 46.4302 17.3798 46.6702 17.6598C46.7702 17.7698 46.7601 17.8398 46.6101 17.8898C46.4001 17.9498 46.2302 18.0398 46.0102 17.8498C45.7302 17.6098 45.3201 17.7998 45.2101 18.1498C45.0701 18.6398 45.3402 19.0598 45.7702 19.0298C45.8602 19.0298 45.9702 19.0098 46.0302 18.9498C46.2002 18.7498 46.3801 18.8298 46.5701 18.8898C46.7601 18.9498 46.7802 19.0198 46.6502 19.1798C46.2002 19.7198 45.2401 19.6998 44.8101 19.1298C44.5001 18.7298 44.4401 18.2898 44.6801 17.8398C44.9001 17.4198 45.2702 17.2098 45.7802 17.2298V17.2398Z" fill="#251A64"/>
<path d="M13.3002 19.5703C12.6402 19.5703 12.0702 19.0403 12.0802 18.3903C12.0902 17.7503 12.5803 17.2003 13.2903 17.2203C13.6903 17.2303 14.0002 17.3603 14.2402 17.6803C14.2702 17.7203 14.3003 17.7502 14.2803 17.8002C14.2303 17.9002 13.7603 17.9903 13.6703 17.9103C13.4103 17.6803 13.1103 17.6703 12.8903 17.8803C12.6603 18.1103 12.6502 18.5802 12.8702 18.8302C13.0702 19.0602 13.3803 19.0702 13.6503 18.8702C13.7703 18.7802 14.1803 18.8202 14.2603 18.9402C14.3203 19.0302 14.2402 19.0803 14.2002 19.1403C13.9702 19.4203 13.6503 19.5502 13.2903 19.5502L13.3002 19.5703Z" fill="#251A64"/>
<path d="M41.7798 16.5198C42.0898 16.5198 42.0997 16.5198 42.0997 16.8398C42.0997 16.9098 42.0997 16.9798 42.0997 17.0498C42.0897 17.1898 42.1397 17.2698 42.2997 17.2498C42.4997 17.2198 42.5697 17.3198 42.5597 17.5098C42.5597 17.6598 42.4897 17.7198 42.3497 17.6998C42.1397 17.6698 42.0897 17.7698 42.0997 17.9598C42.1097 18.2098 42.0997 18.4598 42.0997 18.7198C42.0997 18.9598 42.1798 19.0398 42.3998 18.9698C42.5698 18.9198 42.6298 18.9598 42.6698 19.1198C42.7098 19.2798 42.7598 19.4198 42.5398 19.4698C42.4098 19.4998 42.2698 19.5498 42.1398 19.5598C41.7498 19.5998 41.4897 19.3698 41.4797 18.9798C41.4697 18.6198 41.4797 18.2598 41.4797 17.8998C41.4797 17.7898 41.4697 17.6998 41.3297 17.6998C41.1797 17.6998 41.1997 17.5698 41.1997 17.4798C41.1997 17.3898 41.1697 17.2598 41.3197 17.2498C41.4697 17.2398 41.4898 17.1498 41.4898 17.0298C41.4898 16.9598 41.4898 16.8898 41.4898 16.8198C41.4898 16.5198 41.5097 16.5098 41.7997 16.5098L41.7798 16.5198Z" fill="#251A64"/>
<path d="M7.60014 17.7703C7.60014 17.3803 7.60014 16.9903 7.60014 16.6003C7.60014 16.4203 7.65012 16.3604 7.83012 16.3604C8.20012 16.3604 8.20011 16.3604 8.20011 16.7204C8.20011 17.3404 8.20011 17.9603 8.20011 18.5803C8.20011 18.9403 8.23011 18.9703 8.57011 18.9803C8.66011 18.9803 8.71011 19.0303 8.70011 19.1003C8.68011 19.2303 8.84017 19.4103 8.64017 19.4903C8.13017 19.6903 7.56014 19.5903 7.60014 18.8803C7.62014 18.5103 7.60014 18.1503 7.60014 17.7803V17.7703Z" fill="#251A64"/>
<path d="M37.46 18.37C37.46 18.07 37.46 17.77 37.46 17.48C37.46 17.31 37.5199 17.24 37.6899 17.25C37.7599 17.25 37.83 17.25 37.9 17.25C38.05 17.25 38.1 17.31 38.1 17.45C38.1 18.07 38.1 18.69 38.1 19.31C38.1 19.47 38.04 19.55 37.87 19.54C37.8 19.54 37.73 19.54 37.66 19.54C37.51 19.55 37.46 19.48 37.46 19.34C37.46 19.02 37.46 18.7 37.46 18.38V18.37Z" fill="#251A64"/>
<path d="M43.3402 17.2901C43.3402 17.2901 43.4002 17.2601 43.4302 17.2601C43.9202 17.2101 43.9302 17.2201 43.9302 17.7101C43.9302 18.2401 43.9302 18.7601 43.9302 19.2901C43.9302 19.5001 43.8603 19.5701 43.6603 19.5501C43.5903 19.5501 43.5202 19.5501 43.4502 19.5501C43.3402 19.5501 43.2803 19.5101 43.2803 19.3901C43.2803 18.7301 43.2803 18.0601 43.2803 17.4001C43.2803 17.3701 43.3102 17.3301 43.3202 17.3001C43.3202 18.0101 43.3202 18.7101 43.3202 19.4201C43.3602 18.7601 43.3702 18.0901 43.3602 17.4301C43.3602 17.3901 43.3302 17.3401 43.3202 17.3001L43.3402 17.2901Z" fill="#251A64"/>
<path d="M15.5599 18.4C15.5599 18.71 15.5599 19.01 15.5599 19.32C15.5599 19.49 15.5 19.56 15.33 19.54C15.25 19.54 15.18 19.54 15.1 19.54C15.01 19.54 14.96 19.5 14.96 19.4C14.96 18.73 14.96 18.07 14.96 17.4C14.96 17.29 15.01 17.25 15.11 17.25C15.16 17.25 15.2 17.25 15.25 17.25C15.4567 17.25 15.5599 17.35 15.5599 17.55C15.5599 17.83 15.5599 18.12 15.5599 18.4Z" fill="#251A64"/>
<path d="M43.61 16.9701C43.3967 16.9701 43.29 16.8701 43.29 16.6701C43.29 16.4701 43.3967 16.3701 43.61 16.3701C43.8233 16.3701 43.9299 16.4768 43.9299 16.6901C43.9299 16.9035 43.8233 17.0001 43.61 16.9801V16.9701Z" fill="#251A64"/>
<path d="M15.2502 16.4303C15.4802 16.3803 15.5602 16.4603 15.5702 16.6903C15.5702 16.9403 15.4803 16.9803 15.2603 16.9803C15.0503 16.9803 14.9502 16.9503 14.9502 16.7003C14.9502 16.4603 15.0402 16.3803 15.2502 16.4403V16.4303Z" fill="#251A64"/>
<path d="M38.0299 16.4205C38.0999 16.4205 38.1899 16.3905 38.2399 16.4605C38.2999 16.5505 38.1899 16.6105 38.1599 16.6805C38.1299 16.7605 38.0799 16.8205 38.0299 16.9005C37.9399 17.0505 37.7098 17.0704 37.5898 16.9404C37.5698 16.9104 37.5698 16.8905 37.5698 16.8605C37.5898 16.6105 37.7699 16.4404 38.0299 16.4404V16.4205Z" fill="#251A64"/>
<path d="M76.5 10.0603C76.6 10.0103 76.7099 10.0303 76.8199 10.0303C78.8399 10.0303 80.85 10.0303 82.87 10.0303C82.82 10.0703 82.7599 10.0703 82.6899 10.0703C80.6299 10.0703 78.56 10.0703 76.5 10.0703V10.0603Z" fill="#251A64"/>
<path d="M19.9199 10.0496C19.9799 9.99957 20.0499 10.0196 20.1199 10.0196C22.1699 10.0196 24.2199 10.0196 26.2799 10.0196C26.2199 10.0696 26.1498 10.0596 26.0798 10.0596C24.0498 10.0596 22.0199 10.0596 19.9899 10.0596C19.9699 10.0596 19.9399 10.0596 19.9199 10.0596V10.0496Z" fill="#251A64"/>
<path d="M92.4102 10.8796C92.3502 10.7596 92.2301 10.8096 92.1401 10.8096C90.9901 10.8096 89.8501 10.8096 88.7001 10.8096C88.6001 10.8096 88.5002 10.8296 88.4102 10.7696C89.6902 10.7696 90.9701 10.7696 92.2501 10.7696C92.3201 10.7696 92.4501 10.7196 92.4001 10.8896L92.4102 10.8796Z" fill="#251A64"/>
<path d="M83.97 7.25977H87.6799C87.6799 7.25977 87.6799 7.28977 87.6799 7.30977C86.4399 7.30977 85.2 7.30977 83.96 7.30977C83.96 7.28977 83.96 7.27977 83.96 7.25977H83.97Z" fill="#0F034D"/>
<path d="M2 14.0195C2.74 14.0195 3.48998 14.0195 4.22998 14.0195C4.18998 14.0595 4.12996 14.0595 4.07996 14.0595C3.43996 14.0595 2.79002 14.0595 2.15002 14.0595C2.10002 14.0595 2.04 14.0595 2 14.0195Z" fill="#251A64"/>
<path d="M10.1001 14.0195C10.8401 14.0195 11.5901 14.0195 12.3301 14.0195C11.5901 14.0895 10.8401 14.0895 10.1001 14.0195Z" fill="#251A64"/>
<path d="M72.7703 9.41016C72.7703 9.72016 72.7703 10.0402 72.7703 10.3502C72.7003 10.0302 72.7003 9.72016 72.7703 9.41016Z" fill="#251A64"/>
<path d="M13.4501 1.29004C13.4501 1.34004 13.4101 1.35003 13.3701 1.33003C13.3901 1.30003 13.4201 1.29004 13.4501 1.29004Z" fill="#0F034D"/>
<path d="M90.2598 9.25043C90.2598 9.25043 90.3298 9.20043 90.3798 9.19043C90.3498 9.23043 90.3098 9.24043 90.2598 9.25043Z" fill="#0F034D"/>
<path d="M10.7297 11.7803C10.7297 11.7803 10.6997 11.8403 10.6797 11.8603C10.6997 11.8303 10.7097 11.8003 10.7297 11.7803Z" fill="#0F034D"/>
<path d="M66.3799 7.86008C66.3799 7.86008 66.3899 7.84008 66.3999 7.83008C66.3999 7.84008 66.3999 7.85008 66.3799 7.86008Z" fill="#0F034D"/>
<path d="M32.03 5.14965C32.03 5.14965 32.03 5.14965 32.02 5.15965C32.02 5.15965 32.02 5.14965 32.02 5.13965L32.03 5.14965Z" fill="black"/>
<path d="M57.2098 13.0404C56.9898 13.0204 56.5599 13.1404 56.1299 13.1004C56.1299 13.0804 56.1299 13.0604 56.1299 13.0404H57.2098Z" fill="black"/>
<path d="M67.2502 12.9602C67.2502 12.9602 67.2503 12.9602 67.2603 12.9502C67.2603 12.9502 67.2602 12.9502 67.2502 12.9602Z" fill="black"/>
<path d="M76.7803 8.19043C77.7003 8.19043 78.6203 8.19043 79.5403 8.19043C79.4803 8.23043 79.4102 8.23043 79.3402 8.23043C78.5502 8.23043 77.7702 8.23043 76.9802 8.23043C76.9102 8.23043 76.8403 8.23043 76.7803 8.19043Z" fill="#251A64"/>
<path d="M20.2998 8.24023H22.8298C22.8298 8.24023 22.8298 8.25023 22.8298 8.26023H20.2998C20.2998 8.26023 20.2998 8.25023 20.2998 8.24023Z" fill="#0F034D"/>
<path d="M83.0898 7.81989V7.62988C83.0898 7.62988 83.0999 7.62988 83.1099 7.62988V7.81989C83.1099 7.81989 83.0998 7.81989 83.0898 7.81989Z" fill="#0F034D"/>
<path d="M43.3398 17.29C43.3398 17.29 43.3799 17.38 43.3799 17.42C43.3799 18.08 43.3798 18.75 43.3398 19.41C43.3398 18.7 43.3398 18 43.3398 17.29Z" fill="#0F034D"/>
</svg>
