<svg width="438" height="220" viewBox="0 0 438 220" fill="none" xmlns="http://www.w3.org/2000/svg">
<path d="M10.7617 206.323L10.9893 205.826C12.2448 205.84 13.2589 206.033 14.0315 206.406C14.8042 206.765 15.3699 207.254 15.7286 207.875C16.0873 208.482 16.2667 209.158 16.2667 209.903C16.2667 210.718 16.0666 211.442 15.6665 212.077C15.2802 212.697 14.7076 213.187 13.9488 213.546C13.1899 213.905 12.2517 214.084 11.1342 214.084H1.34521L2.56624 206.116L1.34521 198.562H10.7824C12.2172 198.562 13.3141 198.9 14.0729 199.576C14.8456 200.239 15.2319 201.149 15.2319 202.308C15.2319 202.915 15.0801 203.515 14.7766 204.109C14.4869 204.688 14.0178 205.185 13.3693 205.599C12.7208 205.999 11.8516 206.24 10.7617 206.323ZM3.33198 213.442L2.58694 212.47H11.0307C12.0517 212.47 12.845 212.242 13.4107 211.787C13.9902 211.318 14.2799 210.649 14.2799 209.779C14.2799 208.855 13.9419 208.144 13.2658 207.648C12.5898 207.151 11.5895 206.903 10.265 206.903H3.55963V205.33H10.1615C11.0445 205.33 11.7757 205.088 12.3552 204.605C12.9485 204.123 13.2451 203.419 13.2451 202.495C13.2451 201.818 13.0037 201.267 12.5208 200.839C12.0517 200.397 11.3549 200.177 10.4305 200.177H2.58694L3.33198 199.204L4.44953 206.116L3.33198 213.442ZM26.9058 214.353C25.1811 214.353 23.6566 214.015 22.3321 213.339C21.0213 212.663 20.0004 211.725 19.2691 210.524C18.5379 209.31 18.1723 207.91 18.1723 206.323C18.1723 204.723 18.5379 203.322 19.2691 202.122C20.0004 200.922 21.0213 199.983 22.3321 199.307C23.6566 198.631 25.1811 198.293 26.9058 198.293C28.6304 198.293 30.1481 198.631 31.4588 199.307C32.7695 199.983 33.7905 200.922 34.5217 202.122C35.253 203.322 35.6186 204.723 35.6186 206.323C35.6186 207.91 35.253 209.31 34.5217 210.524C33.7905 211.725 32.7695 212.663 31.4588 213.339C30.1481 214.015 28.6304 214.353 26.9058 214.353ZM26.9058 212.594C28.2717 212.594 29.4582 212.339 30.4654 211.828C31.4726 211.304 32.2521 210.573 32.804 209.634C33.3559 208.696 33.6318 207.592 33.6318 206.323C33.6318 205.04 33.3559 203.929 32.804 202.991C32.2521 202.053 31.4726 201.329 30.4654 200.818C29.4582 200.308 28.2717 200.052 26.9058 200.052C25.5399 200.052 24.3533 200.308 23.3461 200.818C22.339 201.329 21.5525 202.053 20.9869 202.991C20.435 203.929 20.159 205.04 20.159 206.323C20.159 207.592 20.435 208.696 20.9869 209.634C21.5525 210.573 22.339 211.304 23.3461 211.828C24.3533 212.339 25.5399 212.594 26.9058 212.594ZM39.8498 205.889H46.5138C47.5348 205.889 48.3488 205.633 48.9558 205.123C49.5767 204.612 49.8871 203.929 49.8871 203.074C49.8871 202.205 49.5767 201.522 48.9558 201.025C48.3488 200.515 47.5348 200.259 46.5138 200.259H39.5808L40.45 199.225V214.084H38.5046V198.562H46.5759C47.6244 198.562 48.5419 198.756 49.3284 199.142C50.1148 199.514 50.7288 200.039 51.1703 200.715C51.6256 201.391 51.8532 202.177 51.8532 203.074C51.8532 203.957 51.6256 204.737 51.1703 205.413C50.7288 206.089 50.1148 206.62 49.3284 207.006C48.5419 207.379 47.6244 207.565 46.5759 207.565H39.8498V205.889ZM43.2853 206.82H45.686L52.1637 214.084H49.7423L43.2853 206.82ZM69.1357 213.111L68.1837 213.173V198.562H70.067V214.084H67.5629L55.7458 199.473L56.6977 199.411V214.084H54.8145V198.562H57.3393L69.1357 213.111ZM83.8549 199.494H85.8003V214.084H83.8549V199.494ZM77.191 198.562H92.4643V200.28H77.191V198.562ZM101.442 214.353C99.7173 214.353 98.1927 214.015 96.8682 213.339C95.5575 212.663 94.5365 211.725 93.8053 210.524C93.074 209.31 92.7084 207.91 92.7084 206.323C92.7084 204.723 93.074 203.322 93.8053 202.122C94.5365 200.922 95.5575 199.983 96.8682 199.307C98.1927 198.631 99.7173 198.293 101.442 198.293C103.167 198.293 104.684 198.631 105.995 199.307C107.306 199.983 108.327 200.922 109.058 202.122C109.789 203.322 110.155 204.723 110.155 206.323C110.155 207.91 109.789 209.31 109.058 210.524C108.327 211.725 107.306 212.663 105.995 213.339C104.684 214.015 103.167 214.353 101.442 214.353ZM101.442 212.594C102.808 212.594 103.994 212.339 105.002 211.828C106.009 211.304 106.788 210.573 107.34 209.634C107.892 208.696 108.168 207.592 108.168 206.323C108.168 205.04 107.892 203.929 107.34 202.991C106.788 202.053 106.009 201.329 105.002 200.818C103.994 200.308 102.808 200.052 101.442 200.052C100.076 200.052 98.8895 200.308 97.8823 200.818C96.8751 201.329 96.0887 202.053 95.523 202.991C94.9711 203.929 94.6952 205.04 94.6952 206.323C94.6952 207.592 94.9711 208.696 95.523 209.634C96.0887 210.573 96.8751 211.304 97.8823 211.828C98.8895 212.339 100.076 212.594 101.442 212.594ZM123.083 199.494H125.029V214.084H123.083V199.494ZM116.419 198.562H131.693V200.28H116.419V198.562ZM135.203 205.889H141.867C142.888 205.889 143.702 205.633 144.309 205.123C144.93 204.612 145.24 203.929 145.24 203.074C145.24 202.205 144.93 201.522 144.309 201.025C143.702 200.515 142.888 200.259 141.867 200.259H134.934L135.803 199.225V214.084H133.858V198.562H141.929C142.977 198.562 143.895 198.756 144.681 199.142C145.468 199.514 146.082 200.039 146.523 200.715C146.978 201.391 147.206 202.177 147.206 203.074C147.206 203.957 146.978 204.737 146.523 205.413C146.082 206.089 145.468 206.62 144.681 207.006C143.895 207.379 142.977 207.565 141.929 207.565H135.203V205.889ZM138.638 206.82H141.039L147.517 214.084H145.095L138.638 206.82ZM151.438 210.235V208.579H162.365V210.235H151.438ZM158.122 198.562L165.759 214.084H163.648L156.467 199.225H157.501L150.299 214.084H148.188L155.825 198.562H158.122ZM182.193 213.111L181.241 213.173V198.562H183.124V214.084H180.62L168.803 199.473L169.755 199.411V214.084H167.872V198.562H170.397L182.193 213.111ZM185.835 209.055H187.801C187.897 209.786 188.187 210.428 188.67 210.98C189.153 211.532 189.788 211.959 190.574 212.263C191.374 212.553 192.292 212.697 193.327 212.697C194.886 212.697 196.12 212.435 197.031 211.911C197.955 211.373 198.418 210.649 198.418 209.738C198.418 209.034 198.128 208.496 197.548 208.124C196.983 207.751 195.989 207.482 194.568 207.317L191.567 206.944C189.677 206.723 188.318 206.275 187.49 205.599C186.663 204.909 186.249 203.985 186.249 202.826C186.249 201.901 186.525 201.101 187.076 200.425C187.628 199.735 188.401 199.211 189.394 198.852C190.402 198.48 191.574 198.293 192.913 198.293C194.251 198.293 195.437 198.5 196.472 198.914C197.521 199.314 198.349 199.88 198.956 200.611C199.577 201.329 199.915 202.177 199.97 203.157H198.004C197.921 202.495 197.659 201.929 197.217 201.46C196.776 200.977 196.183 200.604 195.437 200.342C194.706 200.066 193.851 199.928 192.871 199.928C191.45 199.928 190.312 200.184 189.456 200.694C188.615 201.191 188.194 201.887 188.194 202.784C188.194 203.474 188.47 204.005 189.022 204.378C189.588 204.737 190.54 204.999 191.878 205.164L194.817 205.557C196.183 205.723 197.266 205.964 198.066 206.282C198.88 206.599 199.466 207.027 199.825 207.565C200.184 208.089 200.363 208.758 200.363 209.572C200.363 210.552 200.066 211.4 199.473 212.118C198.894 212.835 198.073 213.387 197.01 213.774C195.948 214.16 194.713 214.353 193.306 214.353C191.885 214.353 190.622 214.132 189.519 213.691C188.415 213.235 187.539 212.615 186.89 211.828C186.242 211.028 185.89 210.104 185.835 209.055ZM204.07 205.578H215.163V207.296H204.07V205.578ZM215.473 198.562V200.28H203.863L205.084 199.038V214.084H203.139V198.562H215.473ZM225.736 214.353C224.012 214.353 222.487 214.015 221.162 213.339C219.852 212.663 218.831 211.725 218.1 210.524C217.368 209.31 217.003 207.91 217.003 206.323C217.003 204.723 217.368 203.322 218.1 202.122C218.831 200.922 219.852 199.983 221.162 199.307C222.487 198.631 224.012 198.293 225.736 198.293C227.461 198.293 228.978 198.631 230.289 199.307C231.6 199.983 232.621 200.922 233.352 202.122C234.083 203.322 234.449 204.723 234.449 206.323C234.449 207.91 234.083 209.31 233.352 210.524C232.621 211.725 231.6 212.663 230.289 213.339C228.978 214.015 227.461 214.353 225.736 214.353ZM225.736 212.594C227.102 212.594 228.289 212.339 229.296 211.828C230.303 211.304 231.083 210.573 231.634 209.634C232.186 208.696 232.462 207.592 232.462 206.323C232.462 205.04 232.186 203.929 231.634 202.991C231.083 202.053 230.303 201.329 229.296 200.818C228.289 200.308 227.102 200.052 225.736 200.052C224.37 200.052 223.184 200.308 222.177 200.818C221.169 201.329 220.383 202.053 219.817 202.991C219.265 203.929 218.989 205.04 218.989 206.323C218.989 207.592 219.265 208.696 219.817 209.634C220.383 210.573 221.169 211.304 222.177 211.828C223.184 212.339 224.37 212.594 225.736 212.594ZM238.68 205.889H245.344C246.365 205.889 247.179 205.633 247.786 205.123C248.407 204.612 248.718 203.929 248.718 203.074C248.718 202.205 248.407 201.522 247.786 201.025C247.179 200.515 246.365 200.259 245.344 200.259H238.411L239.28 199.225V214.084H237.335V198.562H245.406C246.455 198.562 247.372 198.756 248.159 199.142C248.945 199.514 249.559 200.039 250.001 200.715C250.456 201.391 250.684 202.177 250.684 203.074C250.684 203.957 250.456 204.737 250.001 205.413C249.559 206.089 248.945 206.62 248.159 207.006C247.372 207.379 246.455 207.565 245.406 207.565H238.68V205.889ZM242.116 206.82H244.516L250.994 214.084H248.573L242.116 206.82ZM273.595 198.562V214.084H271.733V199.018L272.498 199.038L264.655 214.084H262.585L254.742 199.059L255.507 199.038V214.084H253.645V198.562H256.584L264.241 213.422H263.02L270.657 198.562H273.595Z" fill="white"/>
<path d="M36.4717 149.7H57.6552C57.1556 152.1 56.2562 154.2 54.9573 156.2C52.9588 159.3 50.0611 161.8 46.4639 163.5C42.8667 165.3 38.5701 166.2 33.6739 166.2C28.6778 166.2 24.2812 165.3 20.5841 163.4C16.887 161.5 13.9893 158.8 11.9908 155.3C9.99239 151.8 8.89324 147.6 8.89324 142.9C8.89324 138.1 9.89246 134 11.8909 130.5C13.8893 127 16.6872 124.4 20.3843 122.5C23.9815 120.6 28.2781 119.7 33.2742 119.7C37.4709 119.7 41.168 120.3 44.3655 121.6C47.563 122.9 50.161 124.7 52.1595 127C54.1579 129.3 55.4569 132 56.0564 135.1H63.3507C62.8511 130.9 61.2524 127.1 58.6544 123.8C55.9565 120.5 52.5591 117.9 48.2625 116C43.9658 114.1 38.9697 113.2 33.3741 113.2C28.6778 113.2 24.3811 113.9 20.4842 115.3C16.5872 116.7 13.2898 118.7 10.3921 121.3C7.49433 123.9 5.29605 127 3.79722 130.7C2.19846 134.3 1.49902 138.4 1.49902 142.9C1.49902 147.4 2.29839 151.5 3.79722 155.1C5.29605 158.7 7.49433 161.9 10.2921 164.5C13.09 167.1 16.4873 169.1 20.2843 170.5C24.1813 171.9 28.378 172.6 32.9744 172.6C37.2711 172.6 41.268 171.9 44.6653 170.6C48.1626 169.3 51.1602 167.4 53.6583 165.1C55.4569 163.4 56.9557 161.4 58.1548 159.3L58.4545 171.7H64.0502V144.1H36.3718V149.7H36.4717Z" fill="white"/>
<path d="M83.335 114.2H76.1406V171.6H123.404V165.2H83.335V114.2Z" fill="white"/>
<path d="M173.065 117.001C168.269 114.501 162.573 113.301 156.278 113.301C149.883 113.301 144.287 114.601 139.391 117.001C134.495 119.501 130.698 123.001 128 127.401C125.302 131.801 123.903 137.001 123.903 142.901C123.903 148.801 125.302 153.901 128 158.401C130.698 162.901 134.495 166.301 139.391 168.801C144.287 171.301 149.883 172.501 156.278 172.501C162.673 172.501 168.269 171.301 173.065 168.801C177.861 166.301 181.658 162.801 184.356 158.401C187.054 153.901 188.453 148.801 188.453 142.901C188.453 137.001 187.054 131.801 184.356 127.401C181.658 122.901 177.861 119.501 173.065 117.001ZM178.061 155.101C176.063 158.601 173.165 161.301 169.468 163.201C165.771 165.101 161.374 166.101 156.278 166.101C151.182 166.101 146.885 165.101 143.088 163.201C139.391 161.301 136.493 158.601 134.395 155.101C132.297 151.601 131.298 147.601 131.298 142.901C131.298 138.201 132.297 134.101 134.395 130.601C136.493 127.101 139.391 124.501 143.088 122.601C146.785 120.701 151.182 119.801 156.278 119.801C161.374 119.801 165.671 120.701 169.468 122.601C173.165 124.501 176.063 127.201 178.061 130.601C180.059 134.101 181.159 138.201 181.159 142.901C181.059 147.601 180.059 151.701 178.061 155.101Z" fill="white"/>
<path d="M243.51 143.201C242.011 142.501 240.212 141.901 238.214 141.601C239.313 141.201 240.212 140.801 241.112 140.201C243.51 138.701 245.209 136.901 246.308 134.701C247.407 132.501 247.906 130.301 247.906 128.101C247.906 123.801 246.508 120.401 243.71 118.001C240.912 115.501 236.815 114.301 231.519 114.301H196.646L201.143 142.201L196.646 171.701H232.818C236.915 171.701 240.412 171.001 243.21 169.701C246.008 168.401 248.106 166.601 249.605 164.201C251.104 161.901 251.803 159.201 251.803 156.201C251.803 153.401 251.104 150.901 249.805 148.701C248.406 146.301 246.308 144.501 243.51 143.201ZM237.914 122.601C239.713 124.201 240.512 126.301 240.512 128.801C240.512 132.201 239.413 134.801 237.215 136.601C235.017 138.401 232.319 139.301 229.121 139.301H207.538L204.44 120.201H230.12C233.618 120.201 236.216 121.001 237.914 122.601ZM241.212 163.101C239.113 164.801 236.116 165.701 232.419 165.701H204.54L207.638 145.101H229.521C234.417 145.101 238.114 146.001 240.612 147.901C243.11 149.701 244.309 152.401 244.309 155.801C244.409 158.901 243.31 161.401 241.212 163.101Z" fill="white"/>
<path d="M281.58 114.2L253.402 171.6H261.196L268.091 157.4H303.663L310.558 171.6H318.352L290.174 114.2H281.58ZM270.989 151.2L285.777 120.6L300.566 151.2H270.989Z" fill="white"/>
<path d="M333.24 165.2V114.2H326.045V171.6H373.408V165.2H333.24Z" fill="white"/>
<path d="M45.3649 77.9006L27.0792 34.1006H1.59912V94.0007H17.2868V48.8008L36.8716 94.0007H53.6585L73.2431 48.6006V94.0007H88.9309V34.1006H63.4508L45.3649 77.9006Z" fill="white"/>
<path d="M151.682 36.8005C146.386 34.2005 140.191 32.9004 132.996 32.9004C125.902 32.9004 119.707 34.2005 114.411 36.8005C109.115 39.4005 104.918 43.1004 102.021 47.7004C99.0229 52.4004 97.624 57.8003 97.624 64.1003C97.624 70.3003 99.1228 75.8005 102.021 80.5005C105.018 85.2005 109.115 88.8004 114.411 91.4004C119.707 94.0004 126.002 95.3005 132.996 95.3005C140.091 95.3005 146.386 94.0004 151.682 91.4004C156.978 88.8004 161.174 85.1005 164.072 80.5005C167.07 75.8005 168.569 70.4003 168.569 64.1003C168.569 57.9003 167.07 52.4004 164.072 47.7004C161.074 43.0004 156.978 39.4005 151.682 36.8005ZM149.483 72.8005C147.985 75.2005 145.786 77.1005 142.989 78.5005C140.191 79.8005 136.793 80.5005 132.896 80.5005C129.099 80.5005 125.702 79.8005 122.904 78.5005C120.106 77.2005 117.908 75.3005 116.409 72.8005C114.911 70.4005 114.111 67.4005 114.111 64.0005C114.111 60.6005 114.911 57.7004 116.409 55.2004C117.908 52.8004 120.106 50.9005 122.904 49.5005C125.702 48.2005 128.999 47.5005 132.896 47.5005C136.793 47.5005 140.091 48.2005 142.989 49.5005C145.786 50.8005 147.985 52.7004 149.483 55.2004C150.982 57.6004 151.782 60.6005 151.782 64.0005C151.782 67.5005 151.082 70.4005 149.483 72.8005Z" fill="white"/>
<path d="M224.525 70.0007C227.922 68.4007 230.62 66.2008 232.519 63.3008C234.417 60.4008 235.416 57.1008 235.416 53.3008C235.416 49.4008 234.417 46.1007 232.519 43.2007C230.62 40.4007 227.922 38.1007 224.525 36.5007C221.128 34.9007 217.131 34.1006 212.534 34.1006H177.062V94.0007H193.549V72.5007H202.242L218.33 94.0007H237.515L220.328 71.6006C221.727 71.2006 223.226 70.7007 224.525 70.0007ZM193.549 46.4006H210.236C212.934 46.4006 214.932 47.0007 216.431 48.2007C217.93 49.4007 218.63 51.1008 218.63 53.3008C218.63 55.5008 217.93 57.2006 216.431 58.4006C214.932 59.6006 212.834 60.2007 210.236 60.2007H193.549V46.4006Z" fill="white"/>
<path d="M291.373 36.7007C287.775 35.0007 283.379 34.1006 278.383 34.1006H244.809V94.0007H261.296V75.4006H278.383C283.379 75.4006 287.676 74.5008 291.373 72.8008C294.97 71.1008 297.768 68.7006 299.666 65.6006C301.565 62.5006 302.564 58.9008 302.564 54.8008C302.564 50.7008 301.565 47.0006 299.666 43.9006C297.768 40.8006 295.07 38.4007 291.373 36.7007ZM283.579 60.2007C282.08 61.5007 279.982 62.2007 277.384 62.2007H261.396V47.4006H277.384C280.082 47.4006 282.08 48.1006 283.579 49.4006C285.078 50.7006 285.777 52.5006 285.777 54.9006C285.877 57.1006 285.078 58.9007 283.579 60.2007Z" fill="white"/>
<path d="M356.822 34.1006V56.2007H326.245V34.1006H309.758V94.0007H326.245V70.9006H356.822V94.0007H373.409V34.1006H356.822Z" fill="white"/>
<path d="M412.378 21.9004H407.682V36.9004H392.693V41.5005H407.682V56.5005H412.378V41.5005H427.266V36.9004H412.378V21.9004Z" fill="#CFB2FF"/>
<path d="M437.558 11.7004H429.265V3.40039H425.668V11.7004H417.374V15.3005H425.668V23.6003H429.265V15.3005H437.558V11.7004Z" fill="white"/>
<path d="M397.49 8.8999V6.19995H391.195V0H388.497V6.19995H382.202V8.8999H388.497V15.2H391.195V8.8999H397.49Z" fill="#BA99E2"/>
</svg>
