<svg width="102" height="22" viewBox="0 0 102 22" fill="none" xmlns="http://www.w3.org/2000/svg">
<path d="M12.3161 10.1718C12.4761 10.0118 12.4761 9.76183 12.3161 9.60183C12.1561 9.44183 11.8961 9.44183 11.7361 9.60183L7.64609 13.6518V10.3118L10.0561 7.92183C10.2161 7.77183 10.2161 7.51183 10.0561 7.36183C9.8961 7.20183 9.6461 7.20183 9.4861 7.36183L7.6361 9.19183V5.53183C7.6361 5.31183 7.45609 5.13184 7.22609 5.13184C6.99609 5.13184 6.8161 5.31183 6.8161 5.53183V9.19183L4.96609 7.36183C4.80609 7.20183 4.5461 7.20183 4.3861 7.36183C4.2261 7.52183 4.2261 7.77183 4.3861 7.93183L6.79609 10.3218V13.6618L2.6961 9.61183C2.5361 9.45183 2.27609 9.45183 2.11609 9.61183C1.95609 9.77183 1.95609 10.0218 2.11609 10.1818L6.8061 14.8018V21.4018C6.8061 21.6218 6.98609 21.8118 7.21609 21.8118C7.44609 21.8118 7.6261 21.6318 7.6261 21.4018V14.8018L12.3261 10.1818L12.3161 10.1718Z" fill="#00561F"/>
<path d="M7.52634 0.101854C7.43634 0.0318545 7.32633 -0.00814402 7.21633 0.00185598C7.10633 -0.00814402 6.99633 0.0218545 6.90633 0.101854C6.59633 0.371854 -0.643666 6.71186 0.0463336 12.4819C0.326334 14.7819 1.82633 16.6619 4.51634 18.0519C4.57634 18.0819 4.64634 18.1019 4.70634 18.1019C4.85634 18.1019 5.00633 18.0219 5.07633 17.8819C5.17633 17.6819 5.10633 17.4419 4.90633 17.3319C2.47633 16.0719 1.11633 14.4119 0.866333 12.3819C0.286333 7.58186 5.99633 2.04186 7.21633 0.91186C8.43633 2.04186 14.1363 7.57186 13.5563 12.3819C13.3163 14.4019 11.9563 16.0719 9.51633 17.3319C9.31633 17.4319 9.23634 17.6819 9.34634 17.8819C9.41634 18.0119 9.56633 18.1019 9.71633 18.1019C9.78633 18.1019 9.84633 18.0819 9.90633 18.0519C12.5963 16.6619 14.1063 14.7819 14.3763 12.4819C15.0663 6.70186 7.81634 0.36186 7.51634 0.0918599L7.52634 0.101854Z" fill="#00561F"/>
<path d="M28.1662 14.1821C28.7462 14.6921 29.0563 15.4421 29.0163 16.2121C29.0663 17.0021 28.7562 17.7721 28.1662 18.3221C27.4862 18.8521 26.6263 19.1121 25.7563 19.0521H23.4863V21.7321H22.6562V13.4721H25.7462C26.6062 13.4221 27.4663 13.6721 28.1562 14.1921L28.1662 14.1821ZM27.5663 17.7921C28.0163 17.4021 28.2563 16.8321 28.2263 16.2421C28.2663 15.6621 28.0262 15.1021 27.5762 14.7221C27.0362 14.3421 26.3863 14.1621 25.7263 14.2021H23.5062V18.3321H25.7263C26.3863 18.3721 27.0363 18.1821 27.5663 17.7921Z" fill="#1D1D1B"/>
<path d="M40.6765 21.7417L39.6865 19.5517H35.0365L34.0565 21.7417H33.1665L36.9465 13.4717H37.8065L41.5765 21.7417H40.6765ZM35.3465 18.8117H39.3465L37.3365 14.3417L35.3465 18.8117Z" fill="#1D1D1B"/>
<path d="M52.6765 21.7419L50.8665 19.0419C50.6065 19.0419 50.4165 19.0619 50.2765 19.0619H47.9765V21.7419H47.1465V13.4719H50.2765C51.1465 13.4219 52.0065 13.6819 52.7065 14.2019C53.2865 14.7119 53.6065 15.4619 53.5665 16.2319C53.5865 16.8419 53.4165 17.4419 53.0665 17.9419C52.7065 18.4119 52.2065 18.7519 51.6265 18.9019L53.6365 21.7519H52.6765V21.7419ZM50.2765 18.3219C50.9365 18.3619 51.5965 18.1719 52.1265 17.7819C52.5765 17.3919 52.8165 16.8219 52.7765 16.2319C52.8165 15.6519 52.5765 15.0919 52.1265 14.7119C51.5865 14.3319 50.9365 14.1519 50.2765 14.1919H47.9765V18.3219H50.2765Z" fill="#1D1D1B"/>
<path d="M66.2661 21.7417L65.2661 19.5517H60.6061L59.6161 21.7417H58.7461L62.5161 13.4717H63.3761L67.1561 21.7417H66.2461H66.2661ZM60.9461 18.8117H64.9461L62.9361 14.3417L60.9461 18.8117Z" fill="#1D1D1B"/>
<path d="M77.4664 14.3915C77.0364 14.2115 76.5664 14.1215 76.0964 14.1215C75.4664 14.1215 74.8564 14.2815 74.3164 14.5915C73.7864 14.8915 73.3464 15.3315 73.0364 15.8515C72.7264 16.3815 72.5564 16.9815 72.5664 17.6015C72.5664 18.2115 72.7264 18.8115 73.0364 19.3415C73.3464 19.8615 73.7864 20.3015 74.3164 20.6015C74.8564 20.9115 75.4764 21.0715 76.0964 21.0715C76.5664 21.0715 77.0264 20.9815 77.4564 20.8015C77.8864 20.6315 78.2864 20.3815 78.6264 20.0715L79.1264 20.6015C78.7064 20.9815 78.2264 21.2915 77.6964 21.5015C77.1764 21.7215 76.6164 21.8315 76.0564 21.8315C75.2864 21.8315 74.5364 21.6415 73.8764 21.2615C73.2264 20.8915 72.6864 20.3615 72.3064 19.7215C71.9164 19.0815 71.7164 18.3515 71.7264 17.6015C71.7264 16.8615 71.9164 16.1315 72.3164 15.4915C72.7064 14.8615 73.2564 14.3315 73.9064 13.9715C74.5764 13.5915 75.3264 13.4015 76.0964 13.4115C76.6564 13.4115 77.2164 13.5115 77.7364 13.7215C78.2564 13.9215 78.7264 14.2115 79.1364 14.5815L78.6464 15.1515C78.3064 14.8215 77.9064 14.5615 77.4664 14.3915Z" fill="#1D1D1B"/>
<path d="M85.1362 13.4619H90.7462V14.1919H85.9562V17.1419H90.2462V17.8719H85.9562V20.9819H90.9062V21.7119H85.1362V13.4619Z" fill="#1D1D1B"/>
<path d="M97.1162 13.4619H97.9462V21.0019H101.656V21.7319H97.1362L97.1162 13.4619Z" fill="#1D1D1B"/>
</svg>
