<svg width="75" height="27" viewBox="0 0 75 27" fill="none" xmlns="http://www.w3.org/2000/svg">
<path d="M13.4501 26.83C6.07006 26.84 0.0301109 20.82 0.00011091 13.44C-0.0298891 6.09004 6.03002 0.0300496 13.41 4.9608e-05C20.78 -0.0199504 26.8301 6.01004 26.8401 13.4C26.8401 20.8 20.8401 26.82 13.4501 26.83ZM4.50011 4.79004C1.80011 7.74004 0.690106 11.11 1.12011 15.05C3.67011 13.29 5.48011 7.57004 4.50011 4.79004ZM20.9 23.33C17.89 22.27 12.94 23.22 10.55 25.5C14.33 26.29 17.76 25.61 20.9 23.33ZM24.9401 10.97C21.1001 10.15 17.69 10.87 14.52 13.15C17.52 14.22 22.7001 13.15 24.9401 10.97ZM12.7001 12.64C11.5101 8.86005 8.04005 5.04005 5.56005 4.73005C6.77005 8.39005 9.08006 11.01 12.7001 12.64ZM16.4701 1.35004C12.5201 0.53004 9.1001 1.21004 5.8601 3.57004C9.7601 4.42004 13.1801 3.68004 16.4701 1.35004ZM1.79003 15.84C5.73003 16.65 9.17 15.98 12.39 13.62C8.49 12.77 5.07003 13.49 1.79003 15.84ZM22.3501 22.05C25.0601 19.07 26.1301 15.76 25.7501 11.8C23.0701 14.75 21.9801 18.06 22.3501 22.05ZM9.76012 24.58C12.3301 21.97 13.78 17.48 13.03 14.6C10.74 16.43 9.05012 21.55 9.76012 24.58ZM13.8201 12.22C16.4401 9.42004 17.54 6.14004 17.14 2.18004C14.48 5.14004 13.3801 8.43004 13.8201 12.22ZM18.16 1.92005C19.41 5.74005 21.7401 8.34004 25.3801 10.01C24.1301 6.18004 21.79 3.59005 18.16 1.92005ZM1.60009 16.94C2.12009 19.96 5.86008 24.12 8.59008 24.75C7.87008 21.58 4.74009 18.06 1.60009 16.94ZM14.1301 14.2C15.3801 18.01 17.6801 20.63 21.3301 22.27C20.1001 18.47 17.7601 15.88 14.1301 14.2ZM5.43004 7.21004C5.23004 9.56004 4.48003 11.69 3.17003 13.79C5.35003 12.7 7.49006 12.22 9.95006 12.27C7.94006 10.86 6.52004 9.19004 5.43004 7.21004ZM16.1101 11.02C18.2501 10 20.32 9.60005 22.64 9.64005C20.73 8.32005 19.3401 6.74005 18.2201 4.70005C18.0001 7.02005 17.3501 9.03004 16.1101 11.02ZM17.05 14.62C18.78 15.92 20.17 17.49 21.3 19.52C21.48 17.17 22.1901 15.2 23.3401 13.22C21.2501 14.18 19.22 14.64 17.05 14.62ZM14.81 3.55004C12.68 4.54004 10.62 4.97004 8.28002 4.91004C10.21 6.26004 11.5801 7.83004 12.6901 9.83004C12.9401 7.54004 13.55 5.54004 14.81 3.55004ZM10.7201 15.82C8.61008 16.85 6.56012 17.2 4.26012 17.22C6.16012 18.56 7.53 20.13 8.64 22.12C8.85 19.8 9.51008 17.81 10.7201 15.82ZM14.16 16.94C13.95 19.29 13.2901 21.28 12.0701 23.28C14.1701 22.26 16.23 21.87 18.55 21.89C16.64 20.55 15.28 18.99 14.16 16.94Z" fill="#0C306E"/>
<path d="M44.0199 13.9303C43.2499 14.6903 42.5699 15.3503 41.8999 16.0303C41.0699 16.8703 40.2399 17.7203 39.4099 18.5603C38.7999 19.1803 38.27 19.1703 37.63 18.5603C36.1 17.1003 34.57 15.6403 33.08 14.2303C33.08 14.2303 33.0599 14.4203 33.0599 14.6103C33.0599 17.8903 33.0599 21.1703 33.0599 24.4503C33.0599 25.1903 32.8 25.4203 32.1 25.4003C31.53 25.3803 31.31 25.0703 31.32 24.5403C31.32 23.6303 31.32 22.7103 31.32 21.8003C31.32 18.5903 31.31 15.3703 31.34 12.1603C31.34 11.8103 31.5199 11.3003 31.7699 11.1603C32.1899 10.9303 32.68 11.0403 33.1 11.4503C34.95 13.2303 36.82 14.9903 38.6 16.6703C39.78 15.5503 41.15 14.2503 42.51 12.9403C43.01 12.4603 43.5 11.9703 43.96 11.4603C44.35 11.0203 44.8599 10.9403 45.2899 11.1703C45.5499 11.3103 45.73 11.8203 45.73 12.1603C45.76 16.2403 45.75 20.3303 45.75 24.4103C45.75 25.1803 45.5599 25.4003 44.9199 25.4203C44.2599 25.4303 44.0299 25.2003 44.0299 24.4803C44.0299 21.3103 44.0299 18.1403 44.0299 14.9703C44.0299 14.6803 44.0299 14.3903 44.0299 13.9603L44.0199 13.9303Z" fill="#0C306E"/>
<path d="M66.9704 25.5499C62.8904 25.5499 59.6004 22.2799 59.6104 18.2199C59.6104 14.1699 62.8703 10.9199 66.9203 10.9199C71.0203 10.9199 74.2703 14.1499 74.2703 18.2399C74.2703 22.2899 71.0204 25.5399 66.9704 25.5499ZM66.9604 23.8199C70.0303 23.8199 72.5403 21.3099 72.5503 18.2499C72.5503 15.1399 70.0503 12.6299 66.9303 12.6399C63.8203 12.6399 61.3203 15.1699 61.3303 18.2799C61.3503 21.3399 63.8803 23.8399 66.9503 23.8299L66.9604 23.8199Z" fill="#0C306E"/>
<path d="M58.9501 25.3798C58.8301 25.2598 58.4801 25.0498 58.3301 24.7498C57.8001 23.6698 57.3801 22.5498 56.8501 21.4698C56.6901 21.1398 56.3801 20.8098 56.0601 20.6398C54.7401 19.9398 53.3401 19.8698 51.9101 20.2598C50.9901 20.5098 50.2901 20.9698 49.9501 21.9598C49.6201 22.9298 49.1201 23.8298 48.7401 24.7798C48.4901 25.3898 48.0301 25.4698 47.4901 25.3698C46.9601 25.2698 46.8201 24.8398 47.0901 24.2098C48.3301 21.3798 49.5801 18.5498 50.8301 15.7198C51.4101 14.3998 52.0101 13.0798 52.5801 11.7498C52.7601 11.3198 52.9902 11.0498 53.5102 11.0498C54.0202 11.0498 54.2801 11.2698 54.4701 11.7098C56.3101 15.8798 58.1501 20.0498 59.9901 24.2298C60.3201 24.9798 60.0401 25.4098 58.9701 25.3998L58.9501 25.3798ZM51.5601 18.3998H55.5102C54.8802 16.9698 54.2201 15.4898 53.5201 13.8998C52.8801 15.3598 52.2801 16.6898 51.7001 18.0298C51.6401 18.1698 51.5901 18.3098 51.5601 18.3998Z" fill="#0C306E"/>
<path d="M62.6699 5.46957C62.6699 3.00957 64.6599 1.02957 67.1399 1.01957C69.6499 1.00957 71.6599 2.99958 71.6599 5.49958C71.6599 7.97958 69.62 9.96957 67.11 9.95957C64.64 9.94957 62.6699 7.95957 62.6699 5.46957ZM63.98 5.41958C63.96 7.25958 65.35 8.70958 67.12 8.72958C68.91 8.74958 70.33 7.32957 70.35 5.50957C70.37 3.66957 68.9799 2.24957 67.1799 2.23957C65.3999 2.23957 64.01 3.61958 63.99 5.41958H63.98Z" fill="#0C306E"/>
<path d="M38.6602 6.51017H36.5803V5.34017H40.0803C40.1803 6.97017 39.7503 8.34017 38.3703 9.26017C36.9903 10.1802 35.5002 10.2302 34.0602 9.45018C32.3002 8.49018 31.5403 6.94017 31.7103 4.94017C31.8603 3.30017 33.1503 1.73016 34.7603 1.22016C36.5403 0.660164 38.3803 1.20018 39.5903 2.64018C39.6203 2.67018 39.6203 2.72017 39.6203 2.71017C39.3403 3.02017 39.0802 3.30017 38.7902 3.62017C37.8602 2.50017 36.7302 1.97017 35.2902 2.37017C33.6402 2.82017 32.6603 4.58017 33.0803 6.34017C33.4403 7.85017 35.0903 8.96017 36.5803 8.69017C37.6603 8.50017 38.4702 7.68017 38.6602 6.52017V6.51017Z" fill="#0C306E"/>
<path d="M47.28 9.73036C46.34 9.92036 45.6201 9.87035 45.1101 8.94035C44.5901 7.99035 43.8801 7.15036 43.1101 6.29036V9.74036H41.8101V1.11035C42.8101 1.19035 43.7901 1.18036 44.7401 1.35036C45.8201 1.55036 46.4801 2.40036 46.5701 3.46036C46.6601 4.57036 46.13 5.51036 45.15 5.96036C45.03 6.02036 44.9001 6.06037 44.7001 6.14037C45.5701 7.34037 46.41 8.51035 47.29 9.72035L47.28 9.73036ZM43.0901 2.39037V5.14037C43.8701 5.12037 44.6801 5.20035 45.0701 4.44035C45.2601 4.07035 45.2801 3.44036 45.0901 3.07036C44.7101 2.29036 43.8801 2.40036 43.0801 2.38036L43.0901 2.39037Z" fill="#0C306E"/>
<path d="M53.5502 1.2002H54.8702C54.8702 2.3102 54.8702 3.40019 54.8702 4.48019C54.8702 5.42019 54.9302 6.36019 54.8002 7.29019C54.5702 8.93019 53.1802 10.0202 51.5502 9.96019C49.9402 9.90019 48.6003 8.7502 48.5103 7.1402C48.4103 5.1902 48.4902 3.22018 48.4902 1.22018H49.7802C49.7802 1.53018 49.7802 1.8302 49.7802 2.1402C49.7802 3.6402 49.7602 5.13019 49.7802 6.63019C49.8002 7.76019 50.2502 8.43019 51.0802 8.66019C52.3902 9.03019 53.4803 8.22019 53.5103 6.79019C53.5503 5.18019 53.5202 3.58018 53.5302 1.97018C53.5302 1.73018 53.5302 1.49018 53.5302 1.22018L53.5502 1.2002Z" fill="#0C306E"/>
<path d="M58.2699 9.75961H56.9399V1.09961C57.9999 1.17961 59.0499 1.15961 60.0599 1.34961C61.1899 1.56961 61.84 2.74962 61.73 4.05962C61.63 5.18962 60.7599 6.06961 59.5399 6.22961C59.1499 6.27961 58.7399 6.27961 58.2699 6.29961V9.74962V9.75961ZM58.2699 5.03961C59.0399 5.08961 59.7899 5.14962 60.2899 4.44962C60.6099 3.99962 60.6199 3.45962 60.2899 2.99962C59.7899 2.31962 59.0499 2.34961 58.2699 2.39961V5.03961Z" fill="#0C306E"/>
</svg>
