<svg width="70" height="17" viewBox="0 0 70 17" fill="none" xmlns="http://www.w3.org/2000/svg">
<path d="M60.299 0.231936C62.029 0.231936 63.729 0.14194 65.429 0.25194C65.839 0.28194 66.239 0.361935 66.619 0.511935C67.759 0.931935 68.3289 1.85195 68.2689 3.07195C68.2089 4.31195 67.539 5.10194 66.439 5.56194C66.199 5.66194 66.209 5.74195 66.319 5.93195C67.019 7.12195 67.7089 8.32194 68.3989 9.52194C68.5089 9.72194 68.649 9.90194 68.839 10.0319C68.819 10.1119 68.769 10.1019 68.719 10.1019C67.979 10.1019 67.2489 10.1019 66.5089 10.1019C66.3689 10.1019 66.3389 10.0319 66.2789 9.93195C65.8589 9.20195 65.479 8.44195 65.059 7.71195C64.809 7.29195 64.599 6.84193 64.369 6.40193C64.269 6.21193 64.1489 6.10193 63.9089 6.12193C63.5589 6.14193 63.209 6.13193 62.859 6.12193C62.709 6.12193 62.6489 6.16195 62.6489 6.32195C62.6489 7.39195 62.6589 8.45194 62.6489 9.52194C62.6489 9.77194 62.819 9.91194 62.999 10.0819H60.229C60.809 9.63194 60.619 9.00194 60.619 8.44194C60.639 5.99194 60.619 3.54194 60.619 1.09194C60.619 0.771936 60.6189 0.441936 60.2789 0.231936H60.299ZM62.6589 3.17194C62.6589 3.61194 62.6589 4.05194 62.6589 4.48194C62.6589 4.60194 62.659 4.69194 62.829 4.69194C63.489 4.68194 64.149 4.71193 64.799 4.65193C65.659 4.58193 66.149 4.12193 66.239 3.40193C66.349 2.48193 65.809 1.81194 64.839 1.67194C64.189 1.57194 63.529 1.63194 62.869 1.61194C62.699 1.61194 62.6689 1.68195 62.6689 1.82195C62.6689 2.27195 62.6689 2.72194 62.6689 3.16194L62.6589 3.17194Z" fill="#221F1F"/>
<path d="M36.3589 10.0824H33.349C33.709 9.84238 33.619 9.51239 33.519 9.21239C33.299 8.57239 33.049 7.93237 32.819 7.29237C32.769 7.16237 32.699 7.13239 32.569 7.13239C31.439 7.13239 30.319 7.13239 29.189 7.13239C29.059 7.13239 28.989 7.18238 28.949 7.30238C28.699 8.00238 28.439 8.70237 28.189 9.40237C28.109 9.63237 28.089 9.87239 28.369 10.0724H25.959C26.509 9.82239 26.589 9.33238 26.759 8.91238C27.789 6.31238 28.789 3.71239 29.799 1.10239C29.919 0.802386 29.999 0.492383 29.679 0.192383C30.499 0.192383 31.2689 0.192383 32.0389 0.192383C32.1889 0.192383 32.219 0.29238 32.249 0.39238C33.029 2.42238 33.809 4.46239 34.589 6.49239C34.939 7.41239 35.299 8.33239 35.659 9.24239C35.789 9.56239 35.929 9.87239 36.339 10.0724L36.3589 10.0824ZM30.889 2.16238C30.429 3.38238 30.009 4.52237 29.569 5.65237C29.499 5.82237 29.549 5.86238 29.709 5.86238C30.489 5.86238 31.2589 5.86238 32.0389 5.86238C32.2489 5.86238 32.239 5.77238 32.179 5.62238C32.049 5.29238 31.929 4.95238 31.799 4.62238C31.509 3.83238 31.209 3.04238 30.879 2.16238H30.889Z" fill="#221F1F"/>
<path d="M35.9087 0.22168H38.6587C38.2987 0.40168 38.2487 0.671675 38.2487 0.951675C38.2487 2.89168 38.2487 4.84168 38.2587 6.78168C38.2587 7.16168 38.3287 7.53168 38.4687 7.89168C38.6387 8.31168 38.9387 8.58168 39.3787 8.69168C40.0087 8.85168 40.6386 8.86168 41.2686 8.67168C41.7786 8.51168 42.0986 8.16168 42.2786 7.66168C42.4586 7.15168 42.4587 6.62167 42.4587 6.09167C42.4587 4.41167 42.4587 2.72167 42.4587 1.04167C42.4587 0.721672 42.4587 0.411674 42.1087 0.231674H44.2886C43.8986 0.451674 43.9086 0.781674 43.9086 1.12167C43.9086 2.89167 43.9086 4.67168 43.9086 6.44168C43.9086 7.02168 43.8286 7.58168 43.6586 8.14168C43.3486 9.19168 42.6686 9.83168 41.6386 10.1017C40.4786 10.4117 39.2986 10.4117 38.1686 10.0017C37.2186 9.66168 36.5487 9.01168 36.3287 7.97168C36.1987 7.37168 36.2386 6.77168 36.2286 6.17168C36.2186 4.46168 36.2286 2.74168 36.2286 1.03168C36.2286 0.721677 36.2087 0.43168 35.9087 0.22168Z" fill="#221F1F"/>
<path d="M51.4087 0.332161V3.11216C51.0987 2.64216 50.7788 2.28215 50.3688 2.01215C49.5988 1.51215 48.7687 1.37217 47.8887 1.57217C47.5987 1.64217 47.3587 1.79215 47.1587 2.01215C46.7087 2.50215 46.7487 3.11216 47.2587 3.53216C47.6987 3.89216 48.2288 4.07215 48.7488 4.26215C49.4588 4.51215 50.1788 4.75215 50.8288 5.15215C52.4988 6.16215 52.2288 8.24215 51.2288 9.23215C50.5588 9.89215 49.7488 10.2022 48.8388 10.2922C47.8288 10.3922 46.8587 10.1922 45.9287 9.78216C45.7587 9.71216 45.5687 9.68215 45.3987 9.62215C45.2187 9.56215 45.1687 9.72217 45.0387 9.82217V7.28216C45.3087 7.62216 45.5787 7.92216 45.8987 8.17216C46.8087 8.87216 48.5087 9.05217 49.4087 8.57217C50.0787 8.21217 50.1988 7.28216 49.6288 6.84216C49.2888 6.57216 48.9087 6.38216 48.5187 6.24216C47.6987 5.93216 46.8788 5.63216 46.0988 5.20216C44.4588 4.27216 44.5088 1.73216 46.0888 0.692162C47.1788 -0.0278382 48.3488 -0.137838 49.5788 0.192162C49.9688 0.292162 50.3488 0.442167 50.7388 0.572167C50.9688 0.652167 51.2087 0.71216 51.3987 0.36216L51.4087 0.332161Z" fill="#221F1F"/>
<path d="M52.719 10.032C53.129 9.79198 53.069 9.40198 53.069 9.04198C53.069 6.39197 53.069 3.74198 53.069 1.09198C53.069 0.761978 53.0889 0.411976 52.6489 0.261976C52.8189 0.171976 52.969 0.211989 53.109 0.211989C55.039 0.211989 56.9789 0.211989 58.9089 0.211989C59.1789 0.211989 59.2689 0.28198 59.2589 0.56198C59.2389 1.03198 59.2589 1.50198 59.2589 2.08198C59.0489 1.65198 58.7189 1.63198 58.3889 1.64198C57.3689 1.64198 56.359 1.64198 55.339 1.64198C55.149 1.64198 55.079 1.69198 55.089 1.89198C55.099 2.62198 55.089 3.34199 55.089 4.07199C55.089 4.25199 55.129 4.32199 55.319 4.32199C56.259 4.32199 57.189 4.32199 58.129 4.32199C58.409 4.32199 58.659 4.25199 58.829 3.91199V6.19198C58.639 5.78198 58.3289 5.77199 58.0189 5.77199C57.1289 5.77199 56.249 5.77199 55.359 5.77199C55.159 5.77199 55.079 5.81198 55.089 6.03198C55.099 6.85198 55.099 7.66198 55.089 8.48198C55.089 8.68198 55.159 8.73198 55.349 8.73198C56.479 8.73198 57.599 8.73198 58.729 8.73198C59.019 8.73198 59.299 8.70198 59.499 8.36198C59.569 8.95198 59.5289 9.48199 59.5389 10.022C59.5389 10.172 59.439 10.162 59.329 10.162C59.069 10.162 58.809 10.162 58.549 10.162C56.739 10.162 54.919 10.162 53.109 10.162C52.999 10.162 52.8989 10.162 52.7889 10.162C52.7689 10.142 52.749 10.112 52.729 10.092L52.719 10.032Z" fill="#221F1F"/>
<path d="M20.1788 7.58243C20.3588 7.88243 20.5789 8.14243 20.8489 8.36243C21.3689 8.76243 21.9589 8.89242 22.5989 8.78242C23.2889 8.67242 23.7088 8.11242 23.7888 7.23242C23.8188 6.94242 23.8289 6.65242 23.8289 6.37242C23.8289 4.60242 23.8289 2.82243 23.8289 1.05243C23.8289 0.742429 23.8089 0.422422 23.3989 0.232422H26.2488C25.8288 0.512422 25.8889 0.922429 25.8889 1.30243C25.8889 3.01243 25.8889 4.73243 25.8889 6.44243C25.8889 6.96243 25.8489 7.47242 25.7189 7.98242C25.3489 9.40242 24.3689 10.2124 22.9089 10.2924C22.4489 10.3124 21.9889 10.2724 21.5189 10.2124C20.9989 10.1424 20.6189 9.85242 20.2089 9.59242C20.1389 9.54242 20.0889 9.49242 20.0889 9.40242C20.0889 8.80242 20.0889 8.21243 20.0889 7.61243L20.1589 7.58243H20.1788Z" fill="#221F1F"/>
<path d="M53.8291 15.8917C53.2491 16.2517 52.6892 16.2917 52.1292 15.9417C51.6792 15.6617 51.6191 15.1917 51.6891 14.7217C51.7391 14.3617 51.9691 14.0817 52.3291 13.9317C52.8891 13.6917 53.5891 13.8117 53.9291 14.2117C53.9891 14.2817 54.1291 14.3717 53.9891 14.4817C53.8691 14.5817 53.8091 14.4817 53.7291 14.3817C53.4391 14.0417 52.8991 13.9317 52.4691 14.1217C52.0991 14.2817 51.8991 14.7017 51.9691 15.1717C52.0191 15.5317 52.2691 15.8017 52.6491 15.8817C53.1191 15.9817 53.559 15.8517 53.759 15.5517C53.809 15.4717 53.8691 15.3917 53.8291 15.3017C53.7891 15.2017 53.6892 15.2617 53.6192 15.2517C53.4392 15.2517 53.2591 15.2517 53.0791 15.2517C52.9991 15.2517 52.9391 15.2317 52.9491 15.1317C52.9491 15.0417 53.0091 15.0117 53.0891 15.0117C53.3791 15.0117 53.6691 15.0117 53.9591 15.0117C54.0991 15.0117 54.1192 15.0917 54.1192 15.2017C54.1192 15.4117 54.1192 15.6217 54.1192 15.8317C54.1192 15.9317 54.1791 16.0717 54.0291 16.1117C53.8391 16.1617 53.8891 15.9617 53.8591 15.8717L53.8291 15.8917Z" fill="#221F1F"/>
<path d="M43.8189 16.1825C43.4189 16.1825 43.0489 16.0825 42.7589 15.7925C42.7089 15.7425 42.5489 15.7225 42.6889 15.6025C42.7589 15.5425 42.8389 15.4625 42.9389 15.5725C43.2589 15.9425 43.679 15.9525 44.119 15.9225C44.259 15.9225 44.3889 15.8625 44.5089 15.7925C44.6289 15.7225 44.6889 15.6125 44.6789 15.4725C44.6789 15.3325 44.579 15.2625 44.459 15.2125C44.189 15.1025 43.889 15.1225 43.609 15.0725C43.379 15.0425 43.1589 15.0225 42.9489 14.8925C42.7789 14.7825 42.719 14.6225 42.739 14.4325C42.759 14.2225 42.8389 14.0325 43.0389 13.9625C43.5389 13.7725 44.0489 13.7525 44.5389 14.0025C44.6189 14.0425 44.6989 14.0925 44.7589 14.1525C44.8189 14.2025 44.9189 14.2625 44.8089 14.3625C44.7189 14.4425 44.679 14.4125 44.589 14.3425C44.219 14.0325 43.7789 14.0025 43.3289 14.1125C43.1489 14.1525 43.0189 14.2525 43.0289 14.4625C43.0289 14.6625 43.179 14.7425 43.349 14.7625C43.609 14.8125 43.8789 14.8225 44.1389 14.8625C44.4589 14.9125 44.7689 14.9725 44.9489 15.2825C45.0389 15.4325 45.0389 15.5525 44.9489 15.7025C44.6789 16.1325 44.2589 16.1525 43.8289 16.1725L43.8189 16.1825Z" fill="#221F1F"/>
<path d="M20.9991 13.8225C21.4691 13.8125 21.8291 13.8725 22.1491 14.1225C22.2091 14.1725 22.3491 14.2225 22.2391 14.3525C22.1491 14.4525 22.0891 14.4125 21.9991 14.3325C21.6191 14.0025 21.1891 14.0025 20.7291 14.1225C20.5691 14.1625 20.4391 14.2625 20.4391 14.4525C20.4391 14.6525 20.5891 14.7325 20.7491 14.7525C21.0791 14.8125 21.4191 14.8425 21.7491 14.8925C22.1391 14.9525 22.3491 15.1425 22.3691 15.4325C22.3891 15.7525 22.1891 16.0325 21.8091 16.1025C21.2591 16.2125 20.6891 16.2925 20.2291 15.8325C20.1691 15.7725 20.0091 15.7225 20.1491 15.5825C20.2791 15.4425 20.3191 15.5625 20.3991 15.6325C20.7191 15.9425 21.4991 16.0325 21.8891 15.8125C22.0191 15.7325 22.0991 15.6325 22.0891 15.4725C22.0891 15.3225 21.9791 15.2425 21.8491 15.2025C21.6091 15.1225 21.3591 15.1025 21.1091 15.0825C20.8991 15.0625 20.6891 15.0425 20.4991 14.9625C20.3191 14.8925 20.1691 14.7725 20.1491 14.5625C20.1291 14.3425 20.2091 14.1625 20.3891 14.0125C20.5991 13.8525 20.8191 13.8025 20.9991 13.8225Z" fill="#221F1F"/>
<path d="M50.0288 16.172C49.3588 16.202 48.5489 15.672 48.7989 14.692C48.8389 14.552 48.8889 14.422 48.9689 14.322C49.3689 13.832 49.8989 13.742 50.4789 13.872C51.0089 13.992 51.3489 14.372 51.4189 14.932C51.4689 15.302 51.1989 15.902 50.6089 16.092C50.4289 16.152 50.2388 16.172 50.0288 16.172ZM50.0689 15.932C50.6989 15.932 51.0989 15.572 51.1189 14.992C51.1289 14.452 50.6789 14.052 50.0689 14.052C49.4689 14.052 49.0289 14.452 49.0389 14.982C49.0389 15.572 49.4389 15.932 50.0689 15.932Z" fill="#221F1F"/>
<path d="M39.579 15.712C39.579 15.132 39.579 14.632 39.579 14.142C39.579 14.042 39.519 13.882 39.719 13.882C39.899 13.882 39.849 14.022 39.849 14.122C39.849 14.702 39.849 15.272 39.849 15.852C39.849 15.942 39.8989 16.072 39.7789 16.112C39.6489 16.162 39.5389 16.092 39.4489 15.982C39.0089 15.472 38.5589 14.982 38.1089 14.472C38.0289 14.382 37.9389 14.282 37.7889 14.132C37.7889 14.722 37.7889 15.232 37.7889 15.742C37.7889 15.862 37.8989 16.102 37.6789 16.102C37.4089 16.112 37.5489 15.862 37.5389 15.732C37.5089 15.162 37.5689 14.582 37.4989 14.012C37.4989 13.952 37.4889 13.872 37.5689 13.882C37.7089 13.892 37.8689 13.812 37.9889 13.952C38.4189 14.432 38.8489 14.912 39.2789 15.392C39.3589 15.482 39.439 15.562 39.579 15.712Z" fill="#221F1F"/>
<path d="M35.8789 16.1719C35.0289 16.1719 34.5089 15.7619 34.4189 15.0519C34.3889 14.8019 34.5189 14.5319 34.6789 14.3119C35.1889 13.6119 36.4289 13.6919 36.8789 14.3119C37.1589 14.6919 37.1889 15.1319 36.9689 15.5519C36.7189 16.0319 36.2789 16.1719 35.8789 16.1819V16.1719ZM35.7689 15.9319C36.4089 15.9319 36.8089 15.5719 36.8189 15.0019C36.8189 14.4519 36.3889 14.0619 35.7789 14.0619C35.1789 14.0619 34.7489 14.4519 34.7489 14.9819C34.7489 15.5619 35.1589 15.9319 35.7789 15.9319H35.7689Z" fill="#221F1F"/>
<path d="M56.4891 16.1823C56.0391 16.1823 55.6591 16.1023 55.3691 15.8023C55.3091 15.7423 55.2091 15.6923 55.3091 15.5923C55.3991 15.5123 55.4591 15.4923 55.5491 15.6023C55.8491 16.0023 56.6791 15.9923 57.0291 15.8323C57.1691 15.7623 57.2891 15.6623 57.2791 15.4923C57.2791 15.3223 57.1391 15.2323 56.9891 15.1923C56.7891 15.1423 56.5791 15.1223 56.3691 15.0923C56.1691 15.0623 55.9791 15.0423 55.7791 15.0023C55.5291 14.9423 55.3291 14.8223 55.3191 14.5323C55.3191 14.2523 55.4191 14.0323 55.7091 13.9323C56.2591 13.7523 56.7991 13.7723 57.2991 14.1023C57.3691 14.1523 57.519 14.2023 57.399 14.3423C57.289 14.4823 57.219 14.3623 57.139 14.3023C56.749 13.9923 56.3091 14.0023 55.8691 14.1323C55.7191 14.1723 55.6091 14.2823 55.6091 14.4623C55.6091 14.6523 55.749 14.7323 55.899 14.7523C56.239 14.8123 56.5891 14.8423 56.9291 14.9023C57.1591 14.9423 57.3791 15.0123 57.4991 15.2423C57.6291 15.5023 57.519 15.8223 57.269 15.9923C57.019 16.1623 56.7291 16.1823 56.4891 16.1823Z" fill="#221F1F"/>
<path d="M67.909 16.1716C67.499 16.1716 67.119 16.0916 66.819 15.7816C66.749 15.7116 66.699 15.6516 66.799 15.5616C66.889 15.4816 66.949 15.5016 67.019 15.5916C67.309 15.9816 68.1191 15.9816 68.4991 15.8216C68.6491 15.7516 68.739 15.6416 68.729 15.4716C68.729 15.2916 68.599 15.2116 68.449 15.1716C68.139 15.0816 67.819 15.0916 67.509 15.0416C66.989 14.9616 66.809 14.8016 66.799 14.4716C66.799 14.1416 67.039 13.9116 67.509 13.8416C67.969 13.7716 68.429 13.7716 68.799 14.1116C68.859 14.1616 68.9991 14.2116 68.8791 14.3416C68.7791 14.4416 68.719 14.3916 68.639 14.3216C68.279 14.0116 67.859 14.0016 67.429 14.1016C67.249 14.1416 67.079 14.2216 67.089 14.4516C67.089 14.6716 67.269 14.7316 67.439 14.7616C67.759 14.8216 68.089 14.8316 68.419 14.8916C68.899 14.9816 69.059 15.1916 69.029 15.6116C68.999 15.9016 68.769 15.9716 68.579 16.0616C68.379 16.1616 68.159 16.1616 67.939 16.1616L67.909 16.1716Z" fill="#221F1F"/>
<path d="M23.9587 16.1824C23.0087 16.1824 22.4387 15.4524 22.7287 14.6024C22.9387 13.9824 23.5487 13.7324 24.2587 13.8524C24.9487 13.9724 25.3586 14.4924 25.2886 15.1224C25.2186 15.7724 24.6987 16.1824 23.9587 16.1824ZM23.9787 14.0624C23.3487 14.0624 22.9387 14.4224 22.9387 14.9924C22.9387 15.5624 23.3187 15.9224 23.9387 15.9324C24.5887 15.9424 24.9887 15.5824 24.9987 14.9924C24.9987 14.4424 24.5987 14.0624 23.9887 14.0624H23.9787Z" fill="#221F1F"/>
<path d="M40.4389 15.0023C40.4389 14.7023 40.4389 14.4023 40.4389 14.1023C40.4389 13.9323 40.4789 13.8723 40.6489 13.8723C41.1789 13.8723 41.7089 13.8723 42.2289 13.8723C42.3189 13.8723 42.4489 13.8323 42.4389 14.0023C42.4389 14.1623 42.2989 14.1123 42.2089 14.1123C41.7989 14.1123 41.3889 14.1323 40.9889 14.1123C40.7589 14.1023 40.6889 14.1823 40.7089 14.3923C40.7089 14.4623 40.7189 14.5323 40.7089 14.6023C40.6789 14.7923 40.7789 14.8423 40.9489 14.8323C41.2889 14.8223 41.6289 14.8323 41.9689 14.8323C42.0589 14.8323 42.1589 14.8123 42.1589 14.9523C42.1589 15.0923 42.0489 15.0723 41.9689 15.0723C41.6289 15.0723 41.2889 15.0723 40.9489 15.0723C40.7689 15.0723 40.7089 15.1223 40.7089 15.3123C40.7089 15.8823 40.6989 15.8823 41.2689 15.8823C41.6089 15.8823 41.9489 15.8823 42.2889 15.8823C42.3689 15.8823 42.4789 15.8723 42.4789 16.0123C42.4789 16.1523 42.3789 16.1323 42.2889 16.1323C41.7489 16.1323 41.2089 16.1323 40.6789 16.1323C40.4689 16.1323 40.4289 16.0523 40.4389 15.8723C40.4489 15.5823 40.4389 15.2923 40.4389 15.0023Z" fill="#221F1F"/>
<path d="M62.5287 16.1725C61.4887 16.1525 61.2088 15.5625 61.2488 14.7025C61.2588 14.4825 61.4487 14.2625 61.6387 14.0925C62.1387 13.6525 63.2187 13.7525 63.5987 14.2925C63.6487 14.3625 63.7388 14.4225 63.6088 14.5025C63.5188 14.5625 63.4587 14.5325 63.3887 14.4425C63.0687 14.0625 62.5287 13.9325 62.0787 14.1225C61.7087 14.2725 61.5087 14.6225 61.5387 15.0925C61.5587 15.4725 61.7887 15.7725 62.1587 15.8725C62.6387 15.9925 63.0787 15.9325 63.4187 15.5125C63.4887 15.4225 63.5587 15.4125 63.6487 15.4725C63.7787 15.5525 63.6787 15.6225 63.6387 15.6925C63.3687 16.0625 62.9687 16.1725 62.5387 16.1625L62.5287 16.1725Z" fill="#221F1F"/>
<path d="M65.3888 15.5421C65.1788 15.5421 65.0489 15.5421 64.9189 15.5421C64.6489 15.5421 64.4389 15.6321 64.3289 15.8921C64.2989 15.9521 64.2689 16.0221 64.2289 16.0721C64.1589 16.1621 64.0589 16.1521 63.9889 16.1121C63.8689 16.0521 63.9788 15.9721 64.0088 15.9121C64.3488 15.3321 64.5989 14.7221 64.9089 14.1321C64.9789 14.0021 65.0489 13.8821 65.2289 13.8721C65.4189 13.8721 65.4588 13.9921 65.5188 14.1121C65.8188 14.7021 66.1289 15.2921 66.4289 15.8921C66.4589 15.9521 66.5889 16.0521 66.4489 16.1121C66.3489 16.1621 66.2189 16.1421 66.1789 16.0021C66.0589 15.5321 65.7088 15.4821 65.3888 15.5421ZM65.2189 14.1121C65.0289 14.4821 64.8689 14.8021 64.6989 15.1321C64.6489 15.2321 64.6489 15.3021 64.7889 15.3021C65.0689 15.3021 65.3489 15.3021 65.6189 15.3021C65.7289 15.3021 65.7989 15.2721 65.7389 15.1421C65.5689 14.8121 65.3989 14.4821 65.2089 14.1121H65.2189Z" fill="#221F1F"/>
<path d="M30.429 14.7418C30.409 14.9518 30.459 15.2218 30.399 15.4918C30.309 15.8918 30.049 16.1118 29.629 16.1518C29.389 16.1718 29.149 16.1918 28.919 16.1518C28.439 16.0718 28.169 15.8018 28.129 15.3218C28.099 14.8918 28.129 14.4718 28.119 14.0418C28.119 13.9518 28.139 13.8918 28.249 13.8818C28.379 13.8818 28.399 13.9418 28.399 14.0418C28.399 14.4218 28.399 14.8018 28.399 15.1718C28.399 15.6518 28.649 15.9118 29.119 15.9318C29.219 15.9318 29.319 15.9318 29.409 15.9318C29.859 15.9218 30.129 15.6618 30.139 15.2118C30.149 14.8618 30.139 14.5118 30.139 14.1718C30.139 14.0618 30.059 13.8818 30.279 13.8818C30.499 13.8818 30.399 14.0718 30.409 14.1818C30.429 14.3518 30.409 14.5218 30.409 14.7418H30.429Z" fill="#221F1F"/>
<path d="M32.149 16.1716C31.649 16.1716 31.199 16.0416 30.989 15.5516C30.779 15.0716 30.819 14.6016 31.169 14.1816C31.609 13.6516 32.849 13.7216 33.229 14.3116C33.259 14.3616 33.369 14.4316 33.249 14.5016C33.159 14.5516 33.089 14.5716 33.019 14.4716C32.709 14.0216 32.259 14.0016 31.789 14.1116C31.369 14.2116 31.149 14.5616 31.149 15.0316C31.149 15.4716 31.379 15.7916 31.789 15.8816C32.259 15.9916 32.709 15.9516 33.029 15.5216C33.099 15.4316 33.149 15.4116 33.249 15.4716C33.379 15.5516 33.299 15.6216 33.249 15.6916C32.979 16.0716 32.589 16.1716 32.149 16.1716Z" fill="#221F1F"/>
<path d="M25.7087 15.0022C25.7087 14.7222 25.7087 14.4422 25.7087 14.1622C25.7087 14.0522 25.6188 13.8722 25.8488 13.8822C26.0788 13.8822 25.9687 14.0722 25.9787 14.1822C25.9887 14.6622 25.9887 15.1422 25.9787 15.6122C25.9787 15.8122 26.0187 15.8922 26.2387 15.8822C26.6787 15.8622 27.1187 15.8822 27.5487 15.8822C27.6287 15.8822 27.7387 15.8422 27.7387 15.9922C27.7387 16.1322 27.6287 16.1222 27.5487 16.1222C26.9787 16.1222 26.4088 16.1222 25.8488 16.1222C25.6988 16.1222 25.6987 16.0322 25.6987 15.9222C25.6987 15.6122 25.6987 15.3022 25.6987 14.9922L25.7087 15.0022Z" fill="#221F1F"/>
<path d="M58.9988 13.8818C59.3388 13.8818 59.6787 13.8818 60.0087 13.8818C60.1287 13.8818 60.2287 13.9218 60.2188 14.0318C60.2188 14.1418 60.0887 14.1318 60.0087 14.1318C59.7887 14.1318 59.5688 14.1418 59.3488 14.1318C59.1688 14.1218 59.1088 14.1818 59.1088 14.3618C59.1188 14.8318 59.1088 15.2918 59.1088 15.7618C59.1088 15.8118 59.1088 15.8618 59.1088 15.9118C59.0988 16.0118 59.1287 16.1518 58.9587 16.1418C58.7987 16.1418 58.8387 16.0218 58.8287 15.9218C58.8287 15.4118 58.8187 14.9118 58.8287 14.4018C58.8287 14.1918 58.7787 14.1118 58.5587 14.1318C58.3387 14.1518 58.1187 14.1318 57.8987 14.1318C57.8187 14.1318 57.7388 14.1318 57.7388 14.0118C57.7388 13.8918 57.8187 13.8918 57.8987 13.8918C58.2587 13.8918 58.6188 13.8918 58.9688 13.8918L58.9988 13.8818Z" fill="#221F1F"/>
<path d="M46.5188 15.0025C46.5188 14.6925 46.5188 14.3825 46.5188 14.0825C46.5188 13.9825 46.5188 13.8725 46.6688 13.8825C46.8288 13.8825 46.7888 14.0025 46.7888 14.1025C46.7888 14.6225 46.7988 15.1525 46.7888 15.6725C46.7888 15.8525 46.8688 15.8825 47.0188 15.8825C47.4588 15.8825 47.8888 15.8825 48.3288 15.8825C48.4188 15.8825 48.5488 15.8325 48.5488 15.9925C48.5488 16.1425 48.4288 16.1225 48.3288 16.1225C47.7788 16.1225 47.2388 16.1225 46.6888 16.1225C46.5388 16.1225 46.4988 16.0625 46.5088 15.9325C46.5088 15.6225 46.5088 15.3125 46.5088 15.0125L46.5188 15.0025Z" fill="#221F1F"/>
<path d="M54.5591 14.9916C54.5591 14.6816 54.5591 14.3716 54.5591 14.0716C54.5591 13.9716 54.5591 13.8916 54.6891 13.8916C54.8091 13.8916 54.8391 13.9516 54.8391 14.0616C54.8391 14.7016 54.8391 15.3316 54.8391 15.9716C54.8391 16.0716 54.8191 16.1516 54.6891 16.1416C54.5691 16.1416 54.5591 16.0516 54.5591 15.9516C54.5591 15.6316 54.5591 15.3116 54.5591 15.0016V14.9916Z" fill="#221F1F"/>
<path d="M34.0388 15.0024C34.0388 15.3224 34.0388 15.6425 34.0388 15.9625C34.0388 16.0625 34.0288 16.1425 33.8988 16.1325C33.7888 16.1325 33.7788 16.0524 33.7788 15.9724C33.7788 15.3324 33.7788 14.7024 33.7788 14.0624C33.7788 13.9624 33.7988 13.8824 33.9288 13.8924C34.0688 13.8924 34.0488 14.0024 34.0488 14.0824C34.0488 14.3924 34.0488 14.7024 34.0488 15.0124L34.0388 15.0024Z" fill="#221F1F"/>
<path d="M60.8188 15.0116C60.8188 15.3216 60.8188 15.6316 60.8188 15.9416C60.8188 16.0316 60.8188 16.1316 60.6888 16.1316C60.5688 16.1316 60.5488 16.0516 60.5488 15.9516C60.5488 15.3216 60.5488 14.7016 60.5488 14.0716C60.5488 13.9816 60.5488 13.8916 60.6788 13.8916C60.8188 13.8916 60.8188 13.9816 60.8188 14.0716C60.8188 14.3916 60.8188 14.7116 60.8188 15.0316V15.0116Z" fill="#221F1F"/>
<path d="M55.1188 13.3219C54.9288 13.4919 54.8288 13.7419 54.4888 13.7419C54.6588 13.5019 54.7188 13.2119 55.1188 13.3219Z" fill="#221F1F"/>
<path d="M15.9489 5.79172C15.9489 3.96172 15.9489 2.12172 15.9489 0.291718C15.9489 0.101718 15.9089 0.0117188 15.6889 0.0117188C13.3289 0.0117188 10.9689 0.0117188 8.59894 0.0117188C8.41894 0.0117188 8.35889 0.0617297 8.35889 0.24173C8.35889 1.73173 8.35889 3.23173 8.35889 4.72173C8.35889 4.94173 8.43892 4.98173 8.63892 4.97173C9.36892 4.96173 10.0889 4.97173 10.8189 4.97173C10.9989 4.97173 11.0589 5.02172 11.0589 5.20172C11.0589 6.53172 11.0789 7.85173 11.0489 9.18173C11.0289 9.96173 10.6789 10.6017 9.95892 10.9917C9.54892 11.2117 9.09893 11.2317 8.64893 11.2017C8.42893 11.1917 8.35889 11.2517 8.35889 11.4817C8.36889 12.9517 8.36889 14.4317 8.35889 15.9017C8.35889 16.1017 8.40891 16.1717 8.62891 16.1717C9.38891 16.1617 10.1389 16.1717 10.8989 16.1717C11.3089 16.1717 11.7089 16.1117 12.1089 15.9917C14.4689 15.2717 15.9489 13.2817 15.9489 10.8117C15.9489 9.14172 15.9489 7.46172 15.9489 5.79172Z" fill="#8D243B"/>
<path d="M7.56889 11.812C7.56889 11.172 7.56886 11.172 6.91886 11.252C6.86886 11.202 6.8189 11.212 6.7689 11.242C6.2389 11.242 5.71888 11.192 5.18888 11.242C4.87888 11.262 4.87888 11.142 4.87888 10.912C4.87888 9.70205 4.89888 8.49205 4.87888 7.27205C4.85888 6.24205 5.2789 5.52204 6.2089 5.09204C6.2389 5.08204 6.25886 5.07204 6.28886 5.06204C6.37886 5.04204 6.46888 5.01205 6.55888 4.99205C6.65888 4.98205 6.76887 4.97205 6.86887 4.96205C7.01887 4.96205 7.16889 4.96204 7.31889 4.97204C7.51889 4.99204 7.5789 4.92204 7.5789 4.72204C7.5789 3.24204 7.5689 1.76205 7.5789 0.272046C7.5789 0.032046 7.49886 -0.00795831 7.28886 0.00204169C6.81886 0.0120417 6.35889 0.00204169 5.88889 0.00204169C5.27889 0.00204169 4.6789 -0.0279589 4.0789 0.142041C3.8789 0.0720411 3.74891 0.23204 3.58891 0.28204C1.49891 0.98204 0.0188889 2.96205 0.00888889 5.16205C-0.0111111 8.74205 0.00888889 12.312 0.00888889 15.892C0.00888889 16.122 0.0888669 16.172 0.298867 16.172C2.62887 16.172 4.95886 16.172 7.28886 16.172C7.52886 16.172 7.58891 16.102 7.58891 15.872C7.58891 14.522 7.58891 13.162 7.58891 11.812H7.56889Z" fill="#8D243B"/>
</svg>
