<svg width="78" height="29" viewBox="0 0 78 29" fill="none" xmlns="http://www.w3.org/2000/svg">
<path d="M4.60999 19.8399C5.74999 19.8399 6.71001 20.2199 7.45001 21.0199C8.19001 21.8199 8.57002 22.8299 8.58002 24.0499C8.58002 25.2699 8.23 26.2899 7.5 27.0999C6.77 27.9099 5.84001 28.2999 4.70001 28.3099C3.56001 28.3099 2.69003 27.9099 2.09003 27.1199V28.1299L0.0700073 28.1399L0 15.8799H2.21002L2.23999 20.8199C2.80999 20.1799 3.61001 19.8499 4.64001 19.8399H4.62H4.60999ZM4.22003 26.2999C4.83003 26.2999 5.33003 26.0799 5.72003 25.6699C6.11003 25.2599 6.29999 24.7199 6.29999 24.0499C6.29999 23.3799 6.1 22.8399 5.69 22.4299C5.28 22.0199 4.79001 21.8099 4.20001 21.8199C3.63001 21.8199 3.16002 22.0199 2.77002 22.4199C2.38002 22.8099 2.19 23.3699 2.19 24.0899C2.19 24.8299 2.38999 25.3799 2.79999 25.7499C3.20999 26.1199 3.68999 26.2999 4.23999 26.2999H4.22003Z" fill="#76777A"/>
<path d="M12.8701 19.8203C13.9301 19.8203 14.78 20.1003 15.41 20.6903C16.04 21.2803 16.35 22.1203 16.36 23.2503L16.3901 28.0503H14.36V27.2803C13.74 27.9403 12.9301 28.2703 11.9001 28.2703C11.0301 28.2703 10.3501 28.0503 9.84009 27.6003C9.33009 27.1403 9.08008 26.5603 9.08008 25.8603C9.08008 25.1203 9.35009 24.5503 9.90009 24.1203C10.4501 23.6903 11.2001 23.4803 12.1301 23.4703H14.16V23.1003C14.16 22.6603 14.0201 22.3203 13.7601 22.0703C13.5001 21.8303 13.1201 21.7003 12.6301 21.7003C11.9101 21.7003 11.1901 22.0803 10.4901 22.8203L9.34009 21.4703C10.2701 20.3503 11.44 19.7903 12.86 19.7803L12.8801 19.8103L12.8701 19.8203ZM12.4701 26.6603C12.9401 26.6603 13.3501 26.5103 13.6801 26.2103C14.0101 25.9203 14.17 25.5203 14.16 25.0503V24.9503H12.4301C11.6801 24.9703 11.3001 25.2503 11.3101 25.7903C11.3101 26.0703 11.4301 26.2803 11.6401 26.4403C11.8501 26.6003 12.1301 26.6803 12.4701 26.6803V26.6603Z" fill="#76777A"/>
<path d="M22.1199 19.7502C23.0499 19.7502 23.79 20.0402 24.33 20.6202C24.87 21.2102 25.1599 21.9902 25.1599 22.9702L25.1899 27.9902H22.9999L22.97 23.2802C22.97 22.8002 22.8299 22.4302 22.5499 22.1402C22.2699 21.8502 21.91 21.7002 21.47 21.7002C21.03 21.7002 20.6699 21.8502 20.3799 22.1502C20.0899 22.4502 19.9399 22.8202 19.9399 23.3002L19.97 28.0202H17.7599L17.71 19.9402H19.7399V20.6702C20.3399 20.0602 21.12 19.7502 22.09 19.7402H22.1099L22.1199 19.7502Z" fill="#76777A"/>
<path d="M30.3698 19.6699C31.1698 19.6699 31.8698 19.8399 32.4798 20.1999C33.0898 20.5599 33.5698 21.0499 33.9098 21.6599L32.3798 22.8599C31.8498 22.0799 31.1998 21.6899 30.4298 21.6999C29.8098 21.6999 29.2998 21.9199 28.9098 22.3499C28.5198 22.7799 28.3298 23.2999 28.3298 23.9399C28.3298 24.5799 28.5298 25.0999 28.9298 25.5199C29.3298 25.9399 29.8298 26.1499 30.4498 26.1499C31.1998 26.1499 31.8498 25.7499 32.3898 24.9799L33.9298 26.1499C33.5898 26.7799 33.1198 27.2699 32.5198 27.6299C31.9198 27.9899 31.2298 28.1799 30.4498 28.1799C29.2398 28.1799 28.2098 27.7799 27.3698 26.9699C26.5298 26.1599 26.0998 25.1499 26.0898 23.9599C26.0898 22.7699 26.4998 21.7699 27.3298 20.9399C28.1598 20.1199 29.1898 19.6999 30.3998 19.6899L30.3698 19.6699Z" fill="#76777A"/>
<path d="M38.5102 19.6496C39.7002 19.6496 40.7402 20.0396 41.5902 20.8596C42.4402 21.6696 42.8702 22.6696 42.8802 23.8596C42.8802 25.0496 42.4702 26.0497 41.6202 26.8797C40.7702 27.6997 39.7502 28.1196 38.5402 28.1196C37.3302 28.1196 36.3102 27.7197 35.4802 26.9097C34.6402 26.0997 34.2302 25.0896 34.2202 23.8896C34.2202 22.6996 34.6302 21.6997 35.4602 20.8797C36.2902 20.0597 37.3202 19.6396 38.5302 19.6396L38.5102 19.6597V19.6496ZM38.5102 21.6796C37.9002 21.6796 37.4002 21.8997 37.0102 22.3297C36.6202 22.7597 36.4302 23.2796 36.4302 23.9196C36.4302 24.5596 36.6302 25.0797 37.0302 25.4897C37.4202 25.8997 37.9302 26.0897 38.5402 26.0797C39.1502 26.0797 39.6502 25.8596 40.0402 25.4496C40.4302 25.0396 40.6202 24.5197 40.6202 23.8797C40.6202 23.2397 40.4202 22.7197 40.0202 22.2997C39.6302 21.8797 39.1402 21.6696 38.5302 21.6696L38.5102 21.6897V21.6796Z" fill="#76777A"/>
<path d="M49.7501 19.4503C50.8901 19.4503 51.8401 19.8503 52.5801 20.6403C53.3201 21.4303 53.7001 22.4603 53.7101 23.7203C53.7101 24.9803 53.3601 26.0103 52.6401 26.8103C51.9101 27.6103 50.9801 28.0103 49.8401 28.0203C48.7901 28.0203 48.0101 27.6903 47.5001 26.9903V27.8403L44.9401 27.8503L44.8701 15.5903L47.6801 15.5703L47.7101 20.2103C48.2401 19.7003 48.9501 19.4503 49.8101 19.4503L49.7601 19.4303L49.7501 19.4503ZM49.2101 25.4703C49.6501 25.4703 50.0301 25.3203 50.3301 25.0103C50.6401 24.7003 50.8001 24.2703 50.8001 23.7303C50.8001 23.1903 50.6301 22.7703 50.3201 22.4603C50.0101 22.1503 49.6301 22.0103 49.1901 22.0103C48.7501 22.0103 48.3701 22.1603 48.0701 22.4803C47.7601 22.7903 47.6201 23.2203 47.6201 23.7703C47.6201 24.3303 47.7901 24.7503 48.1001 25.0403C48.4101 25.3303 48.7901 25.4803 49.2301 25.4803H49.2101V25.4703Z" fill="#2B5597"/>
<path d="M58.2801 19.4499C59.4201 19.4499 60.3201 19.7499 61.0001 20.3699C61.6801 20.9899 62.0101 21.8799 62.0101 23.0599L62.04 27.7999H59.48V27.1399C58.88 27.7199 58.1001 28.0099 57.1301 28.0199C56.2501 28.0199 55.5601 27.7899 55.0701 27.2999C54.5801 26.8099 54.3301 26.2099 54.3301 25.4899C54.3301 24.7199 54.6101 24.1199 55.1801 23.6899C55.7501 23.2599 56.5301 23.0399 57.5301 23.0399H59.2501V22.8999C59.2501 22.5899 59.1501 22.3299 58.9501 22.1299C58.7501 21.9399 58.4401 21.8399 58.0201 21.8399C57.6501 21.8399 57.3201 21.9299 57.0201 22.0899C56.7301 22.2599 56.3901 22.4999 55.9901 22.8499L54.67 21.0799C55.73 19.9799 56.9501 19.4299 58.3401 19.4199L58.29 19.4499H58.2801ZM57.9901 26.0399C58.3501 26.0399 58.6401 25.9199 58.8701 25.7099C59.1001 25.4999 59.2101 25.1999 59.2101 24.8299V24.7599H57.8901C57.3801 24.7599 57.1401 24.9799 57.1401 25.3899C57.1401 25.8099 57.42 26.0299 57.98 26.0199L58.0001 26.0399H57.9901Z" fill="#2B5597"/>
<path d="M69.4302 20.5496L68.1202 22.2796C67.5602 21.8096 66.9902 21.5796 66.3802 21.5896C66.0002 21.5896 65.8102 21.6896 65.8102 21.8996C65.8102 21.9696 65.8302 22.0296 65.8802 22.0796C65.9302 22.1296 65.9902 22.1796 66.0602 22.2096C66.1302 22.2396 66.2402 22.2796 66.3902 22.3396L67.2102 22.6596C68.0302 22.9796 68.6402 23.3196 69.0302 23.6996C69.4302 24.0696 69.6202 24.5796 69.6302 25.2096C69.6302 26.0396 69.3302 26.6996 68.6902 27.1896C68.0602 27.6796 67.2402 27.9296 66.2402 27.9396C64.6902 27.9396 63.5102 27.4296 62.7002 26.3896L64.0002 24.7196C64.7102 25.3896 65.4602 25.7196 66.2602 25.7196C66.7302 25.7196 66.9802 25.5996 66.9802 25.3496C66.9802 25.1996 66.8202 25.0796 66.5002 24.9396L65.5802 24.5696C64.7802 24.2496 64.1902 23.8896 63.7902 23.4996C63.4002 23.1096 63.2002 22.5896 63.1902 21.9496C63.1902 21.1496 63.4802 20.5096 64.0402 20.0496C64.6102 19.5896 65.3802 19.3596 66.3402 19.3496C67.6102 19.3496 68.6502 19.7496 69.4202 20.5396" fill="#2B5597"/>
<path d="M73.9797 19.3598C75.1197 19.3598 76.0198 19.6598 76.6998 20.2798C77.3698 20.8998 77.7098 21.7898 77.7098 22.9698L77.7397 27.7098L75.1697 27.7298V27.0598C74.5597 27.6398 73.7798 27.9398 72.8198 27.9398C71.9398 27.9398 71.2498 27.6998 70.7598 27.2198C70.2698 26.7298 70.0198 26.1299 70.0098 25.4099C70.0098 24.6399 70.2998 24.0398 70.8698 23.6098C71.4398 23.1798 72.2198 22.9598 73.2198 22.9598H74.9398V22.8198C74.9398 22.5098 74.8398 22.2499 74.6398 22.0499C74.4398 21.8599 74.1298 21.7598 73.7098 21.7598C73.3298 21.7598 73.0098 21.8398 72.7098 22.0098C72.4198 22.1798 72.0697 22.4199 71.6797 22.7699L70.3597 20.9998C71.4197 19.8998 72.6398 19.3498 74.0298 19.3398L73.9797 19.3698V19.3598ZM73.6898 25.9498C74.0498 25.9498 74.3398 25.8298 74.5698 25.6198C74.7998 25.4098 74.9097 25.1099 74.9097 24.7399V24.6698H73.5898C73.0798 24.6698 72.8398 24.8899 72.8398 25.2999C72.8398 25.7199 73.1197 25.9298 73.6797 25.9298L73.6998 25.9498H73.6898Z" fill="#2B5597"/>
<path d="M45.47 12.1698C45.95 11.6598 46.17 10.9898 46.17 10.1098C46.17 9.2298 45.95 8.5898 45.47 8.0798C44.99 7.5698 44.35 7.2998 43.54 7.2998H39.23V12.9198H43.54C44.35 12.9198 45 12.6798 45.47 12.1798" fill="#2B5597"/>
<path d="M37.2 12.1698C37.68 11.6598 37.9 10.9898 37.9 10.1098C37.9 9.2298 37.68 8.5898 37.2 8.0798C36.72 7.5698 36.08 7.2998 35.27 7.2998H30.96V12.9198H35.27C36.08 12.9198 36.73 12.6798 37.2 12.1798" fill="#76777A"/>
<path d="M45.47 4.87C45.95 4.36 46.17 3.68 46.17 2.81C46.17 1.94 45.95 1.29 45.47 0.779999C44.99 0.269999 44.35 0 43.54 0H39.23V5.62H43.54C44.35 5.62 45 5.38 45.47 4.88" fill="#2B5597"/>
<path d="M37.2 4.87C37.68 4.36 37.9 3.68 37.9 2.81C37.9 1.94 37.68 1.29 37.2 0.779999C36.72 0.269999 36.08 0 35.27 0H30.96V5.62H35.27C36.08 5.62 36.73 5.38 37.2 4.88" fill="#76777A"/>
</svg>
