<svg width="79" height="15" viewBox="0 0 79 15" fill="none" xmlns="http://www.w3.org/2000/svg">
<path d="M17.23 8.29462C17.13 8.51462 16.94 8.7146 16.67 8.8746C16.39 9.0346 16.09 9.1246 15.76 9.1246C15.51 9.1246 15.26 9.07461 15.04 8.96461C14.81 8.86461 14.62 8.71461 14.45 8.52461C14.28 8.33461 14.14 8.09462 14.04 7.82462C13.94 7.55462 13.89 7.25461 13.89 6.91461C13.89 6.57461 13.94 6.27461 14.04 6.00461C14.14 5.73461 14.27 5.50461 14.44 5.31461C14.61 5.12461 14.81 4.9846 15.04 4.8746C15.27 4.7746 15.51 4.71461 15.78 4.71461C16.09 4.71461 16.37 4.78461 16.62 4.92461C16.87 5.06461 17.07 5.26461 17.23 5.52461L17.32 5.68462L19.79 4.93462L19.67 4.68462C19.34 4.02462 18.8401 3.49461 18.1801 3.08461C17.5201 2.68461 16.72 2.47461 15.79 2.47461C15.1 2.47461 14.47 2.59461 13.92 2.83461C13.37 3.07461 12.89 3.39462 12.5 3.79462C12.11 4.19462 11.8 4.67461 11.6 5.20461C11.39 5.73461 11.29 6.30461 11.29 6.89461C11.29 7.48461 11.4 8.04461 11.61 8.58461C11.82 9.12461 12.13 9.59461 12.52 10.0046C12.91 10.4146 13.39 10.7446 13.94 10.9746C14.49 11.2146 15.12 11.3346 15.81 11.3346C16.75 11.3346 17.5601 11.1246 18.2401 10.7146C18.9201 10.3046 19.41 9.7546 19.71 9.0946L19.82 8.85461L17.34 8.0946L17.25 8.28461L17.23 8.29462Z" fill="#002169"/>
<path d="M27.78 3.81413C27.39 3.41413 26.92 3.08414 26.38 2.85414C25.83 2.61414 25.21 2.49414 24.52 2.49414C23.83 2.49414 23.2 2.61414 22.64 2.85414C22.08 3.09414 21.6 3.42414 21.21 3.82414C20.82 4.23414 20.52 4.71414 20.31 5.24414C20.1 5.77414 20 6.35413 20 6.95413C20 7.55413 20.11 8.10414 20.32 8.63414C20.53 9.16414 20.84 9.64414 21.23 10.0441C21.62 10.4441 22.1 10.7641 22.65 11.0041C23.2 11.2341 23.83 11.3541 24.5 11.3541C25.45 11.3541 26.28 11.1441 26.96 10.7241C27.65 10.3041 28.16 9.76414 28.48 9.10414L28.6 8.85414L26.35 8.22414L26.27 8.41414C26.16 8.69414 25.94 8.91413 25.63 9.09413C25.3 9.27413 24.95 9.36414 24.58 9.36414C24.34 9.36414 24.11 9.32414 23.89 9.24414C23.67 9.16414 23.47 9.04414 23.3 8.88414C23.13 8.73414 22.98 8.54414 22.88 8.32414C22.8 8.17414 22.75 8.00413 22.71 7.81413H28.88L28.92 7.63414C28.94 7.53414 28.96 7.42414 28.97 7.27414C28.97 7.14414 28.97 7.01413 28.97 6.87413C28.97 6.30413 28.87 5.74414 28.67 5.21414C28.47 4.68414 28.17 4.20414 27.79 3.80414M23.79 4.58414C24 4.49414 24.24 4.45413 24.48 4.45413C24.99 4.45413 25.41 4.61414 25.77 4.94414C26.07 5.21414 26.25 5.56414 26.33 5.99414H22.66C22.69 5.82414 22.74 5.66413 22.81 5.51413C22.92 5.29413 23.05 5.10413 23.22 4.95413C23.38 4.80413 23.57 4.67413 23.79 4.59413" fill="#002169"/>
<path d="M34.9698 2.51465H34.7098C34.4698 2.51465 34.2098 2.56466 33.9498 2.66466C33.6998 2.75466 33.4498 2.89466 33.2098 3.07466C32.9698 3.24466 32.7499 3.45466 32.5399 3.68466C32.5099 3.72466 32.4698 3.76466 32.4398 3.80466V2.62465H30.0698V11.1947H32.6099V6.11465C32.7999 5.72465 33.1099 5.43465 33.5399 5.23465C33.9999 5.01465 34.5398 4.90465 35.1298 4.89465H35.3599V2.57466L35.1699 2.53465C35.0999 2.52465 35.0298 2.51465 34.9598 2.51465" fill="#002169"/>
<path d="M40.29 8.50403L38.41 2.62402H35.77L38.92 11.194H41.4901L44.65 2.62402H42.19L40.29 8.50403Z" fill="#002169"/>
<path d="M53.3502 5.22414C53.1502 4.69414 52.8501 4.21413 52.4601 3.81413C52.0801 3.41413 51.6001 3.08414 51.0601 2.85414C50.5101 2.61414 49.8901 2.49414 49.2001 2.49414C48.5101 2.49414 47.8801 2.61414 47.3201 2.85414C46.7601 3.09414 46.2801 3.42414 45.8901 3.82414C45.5001 4.23414 45.2002 4.71414 44.9902 5.24414C44.7802 5.77414 44.6802 6.35413 44.6802 6.95413C44.6802 7.55413 44.7901 8.10414 45.0001 8.63414C45.2101 9.16414 45.5202 9.64414 45.9102 10.0441C46.3002 10.4441 46.7801 10.7641 47.3301 11.0041C47.8801 11.2341 48.5102 11.3541 49.1802 11.3541C50.1302 11.3541 50.9601 11.1441 51.6401 10.7241C52.3301 10.3041 52.8402 9.76414 53.1602 9.10414L53.2802 8.85414L51.0302 8.22414L50.9501 8.41414C50.8401 8.69414 50.6201 8.91413 50.3101 9.09413C49.9801 9.27413 49.6301 9.36414 49.2601 9.36414C49.0201 9.36414 48.7901 9.32414 48.5701 9.24414C48.3501 9.16414 48.1502 9.04414 47.9802 8.88414C47.8102 8.73414 47.6602 8.54414 47.5502 8.32414C47.4702 8.17414 47.4201 8.00413 47.3801 7.81413H53.5502C53.5502 7.81413 53.6301 7.42414 53.6401 7.27414C53.6401 7.14414 53.6401 7.01413 53.6401 6.87413C53.6401 6.30413 53.5401 5.74414 53.3401 5.21414M48.4702 4.58414C48.6802 4.49414 48.9202 4.45413 49.1602 4.45413C49.6702 4.45413 50.0901 4.61414 50.4501 4.94414C50.7501 5.21414 50.9301 5.56414 51.0101 5.99414H47.3401C47.3701 5.82414 47.4202 5.66413 47.4902 5.51413C47.6002 5.29413 47.7301 5.10413 47.8901 4.95413C48.0501 4.80413 48.2401 4.67413 48.4601 4.59413" fill="#002169"/>
<path d="M78.65 2.53465C78.58 2.52465 78.51 2.51465 78.44 2.51465H78.1801C77.9401 2.51465 77.68 2.56466 77.42 2.66466C77.17 2.75466 76.9201 2.89466 76.6801 3.07466C76.4401 3.24466 76.21 3.45466 76.01 3.68466C75.98 3.72466 75.94 3.76466 75.91 3.80466V2.62465H73.54V11.1947H76.08V6.11465C76.28 5.72465 76.58 5.43465 77.01 5.23465C77.47 5.01465 78.01 4.90465 78.6 4.89465H78.83V2.57466L78.64 2.53465H78.65Z" fill="#002169"/>
<path d="M71.2301 3.40439C70.5501 2.79439 69.5801 2.48438 68.3601 2.48438C67.1401 2.48438 65.9301 2.84438 64.8601 3.56438L64.6901 3.67438L65.5301 5.42438L65.7601 5.26437C66.1801 4.97437 66.5901 4.75438 66.9801 4.61438C67.3601 4.46438 67.7601 4.39438 68.1601 4.39438C68.6901 4.39438 69.0901 4.51437 69.3501 4.76437C69.6101 5.01437 69.7301 5.35438 69.7301 5.83438V5.95438C69.5301 5.89438 69.3201 5.83439 69.0901 5.79439C68.7301 5.73439 68.3601 5.69438 67.9901 5.69438C67.4601 5.69438 66.9701 5.76438 66.5301 5.89438C66.0801 6.03438 65.6901 6.22439 65.3701 6.46439C65.0401 6.71439 64.7801 7.01437 64.5901 7.37437C64.4001 7.73437 64.3101 8.12439 64.3101 8.54439C64.3101 8.96439 64.3901 9.32438 64.5401 9.66438C64.6901 10.0044 64.9101 10.2944 65.1701 10.5544C65.4401 10.8044 65.7601 11.0044 66.1301 11.1444C66.5001 11.2844 66.8901 11.3544 67.3101 11.3544C67.9301 11.3544 68.5201 11.2244 69.0701 10.9644C69.4601 10.7744 69.8001 10.5344 70.1101 10.2244C70.1801 10.5344 70.3301 10.7944 70.5701 10.9944C70.8201 11.2044 71.1801 11.3144 71.6201 11.3144C71.7601 11.3144 71.9101 11.3044 72.0701 11.2844L72.2801 11.2544V6.06438C72.2801 4.91438 71.9301 4.02439 71.2301 3.40439ZM69.7301 8.33438C69.7301 8.47438 69.0801 9.08438 68.8001 9.19438C68.5201 9.30438 68.2101 9.36438 67.8901 9.36438C67.5501 9.36438 67.2801 9.26439 67.0501 9.07439C66.8401 8.88439 66.7301 8.66437 66.7301 8.37437C66.7301 8.08437 66.8601 7.84438 67.1401 7.64438C67.4401 7.43438 67.8301 7.32439 68.3201 7.32439C68.5701 7.32439 68.8401 7.35439 69.1101 7.40439C69.3301 7.44439 69.5301 7.50438 69.7201 7.56438V8.32439L69.7301 8.33438Z" fill="#002169"/>
<path d="M8.48004 3.80445C8.37004 3.50445 8.14004 3.26444 7.85004 3.14444L0.170044 0.00444444C0.170044 0.00444444 0.100007 -0.00555556 0.0700073 0.00444444C0.0400073 0.0244444 0.0200195 0.0544408 0.0200195 0.0944408V1.11445C0.0200195 1.11445 0.0500269 1.19445 0.0900269 1.21445L7.93005 4.41445C8.03005 4.45445 8.12004 4.52444 8.17004 4.62444L8.32001 4.86445C8.32001 4.86445 8.38003 4.91445 8.41003 4.91445C8.41003 4.91445 8.43 4.91445 8.44 4.91445C8.48 4.90445 8.51001 4.86444 8.51001 4.81444V3.92444C8.51001 3.92444 8.50004 3.85445 8.48004 3.79445" fill="#E43D30"/>
<path d="M8.5 6.18404C8.39 5.88404 8.16 5.64403 7.87 5.52403L0.170044 2.37402C0.170044 2.37402 0.100007 2.37403 0.0700073 2.38403C0.0400073 2.40403 0.0200195 2.43403 0.0200195 2.47403V3.49403C0.0200195 3.49403 0.0500269 3.57402 0.0900269 3.59402L7.95001 6.80403C8.05001 6.84403 8.14 6.91403 8.19 7.00403L8.34003 7.24403C8.34003 7.24403 8.39004 7.29404 8.42004 7.29404C8.42004 7.29404 8.43 7.29404 8.44 7.29404C8.48 7.28404 8.5 7.24403 8.5 7.19403V6.25403C8.5 6.25403 8.50005 6.19403 8.49005 6.16403" fill="#E43D30"/>
<path d="M8.51001 8.89413C8.51001 8.75413 8.51005 8.61414 8.49005 8.55414C8.42005 8.27414 8.16002 8.00413 7.83002 7.87413L0.170044 4.74414C0.170044 4.74414 0.100007 4.74414 0.0700073 4.75414C0.0400073 4.77414 0.0200195 4.80413 0.0200195 4.84413V5.86414C0.0200195 5.86414 0.0500269 5.94414 0.0900269 5.96414L2.84003 7.08414L2.86005 7.11414C2.86005 7.11414 2.86003 7.13413 2.84003 7.14413L0.0900269 8.29414C0.0900269 8.29414 0.0200195 8.35413 0.0200195 8.39413V9.42413C0.0200195 9.42413 0.0400073 9.49413 0.0700073 9.51413C0.100007 9.53413 0.140044 9.53414 0.170044 9.52414L4.42004 7.74414H4.44L5.67004 8.24414C5.67004 8.24414 5.69 8.26414 5.69 8.27414C5.69 8.28414 5.69004 8.29414 5.67004 8.30414L0.0800171 10.6441C0.0800171 10.6441 0.0100098 10.7041 0.0100098 10.7441V11.7741C0.0100098 11.7741 0.0299976 11.8441 0.0599976 11.8641C0.0899976 11.8841 0.130034 11.8841 0.160034 11.8641L7.11005 8.86414L7.15002 8.85414L8.24005 9.30414C8.24005 9.30414 8.3 9.34414 8.31 9.38414C8.31 9.41414 8.31004 9.45413 8.29004 9.48413C8.21004 9.60413 8.06005 9.71413 7.93005 9.76413L0.0700073 13.0641C0.0700073 13.0641 0 13.1241 0 13.1641V14.1941C0 14.1941 0.0200488 14.2641 0.0500488 14.2841C0.0700488 14.2941 0.0900464 14.3041 0.110046 14.3041C0.120046 14.3041 0.140024 14.3041 0.150024 14.3041L7.84003 11.0741C8.14003 10.9541 8.36003 10.7041 8.47003 10.4041C8.48003 10.3741 8.49005 10.2941 8.49005 10.1841V9.76413V8.92413V8.89413H8.51001Z" fill="#E43D30"/>
<path d="M63.6201 6.94461C63.6201 9.43461 62.0902 11.1846 59.9102 11.1846C58.8302 11.1846 57.9101 10.7346 57.2701 9.96461V14.6346H56.2701C55.6401 14.6346 55.0502 14.2846 54.7902 13.7146C54.6802 13.4746 54.6201 13.2046 54.6201 12.9246V2.7646H57.2802V3.94461C57.9202 3.17461 58.8402 2.72461 59.9202 2.72461C62.0902 2.72461 63.6301 4.47461 63.6301 6.94461M61.0701 6.94461C61.0701 5.77461 60.2602 4.92461 59.1102 4.92461C57.9602 4.92461 57.2601 5.76461 57.2601 6.94461C57.2601 8.12461 58.0102 8.97461 59.1102 8.97461C60.2102 8.97461 61.0701 8.12461 61.0701 6.94461Z" fill="#002169"/>
</svg>
