<svg width="57" height="24" viewBox="0 0 57 24" fill="none" xmlns="http://www.w3.org/2000/svg">
<path d="M27.6198 23.2595C27.6198 23.1995 27.5698 23.2195 27.5398 23.2095C25.3898 22.9495 23.4798 21.3495 23.0698 19.0895C22.7998 17.6495 23.0697 16.3195 23.9597 15.1395C24.6397 14.2395 25.5597 13.6795 26.6397 13.3795C27.0197 13.2795 27.3998 13.2095 27.7898 13.1795C27.8198 13.1795 27.8598 13.1895 27.8798 13.1595C27.8898 13.1295 27.8497 13.0995 27.8297 13.0795C27.0997 12.2395 26.3797 11.3895 25.6497 10.5495C25.5797 10.4695 25.5798 10.4295 25.6598 10.3595C26.7398 9.41954 27.8197 8.47954 28.8997 7.53954C28.9497 7.48954 29.0097 7.45954 29.0497 7.38954C29.0097 7.35954 28.9598 7.36954 28.9098 7.36954C27.1898 7.36954 25.4697 7.36954 23.7597 7.36954C23.6531 7.36954 23.5998 7.3162 23.5998 7.20953C23.5998 6.43953 23.5998 5.67953 23.5998 4.90953C23.5998 4.79953 23.6297 4.76953 23.7397 4.76953C26.8297 4.76953 29.9198 4.76953 32.9998 4.76953C33.0998 4.76953 33.1397 4.79954 33.1397 4.89954C33.1397 5.62954 33.1397 6.34953 33.1397 7.07953C33.1397 7.14953 33.1198 7.19954 33.0698 7.24954C32.7098 7.55954 32.3497 7.87954 31.9897 8.19954C31.6997 8.45954 31.4198 8.71954 31.1298 8.97954C30.8298 9.23954 30.5397 9.49954 30.2397 9.75954C30.0197 9.95954 29.7898 10.1595 29.5698 10.3595C29.4598 10.4495 29.3598 10.5495 29.2498 10.6395C29.1898 10.6895 29.1797 10.7295 29.2397 10.7895C29.4797 11.0695 29.7197 11.3495 29.9597 11.6295C30.1797 11.8895 30.4098 12.1495 30.6298 12.4095C30.8598 12.6795 31.0798 12.9495 31.3098 13.2195C31.4898 13.4295 31.6697 13.6495 31.8597 13.8595C32.4097 14.4895 32.9397 15.1495 33.2397 15.9495C33.3997 16.3795 33.5098 16.8295 33.5598 17.2895C33.5998 17.6695 33.6298 18.0495 33.5998 18.4295C33.5298 19.4395 33.1998 20.3495 32.5898 21.1495C32.0498 21.8695 31.3698 22.3995 30.5598 22.7695C30.0598 22.9995 29.5297 23.1495 28.9897 23.2095C28.9597 23.2095 28.9197 23.2095 28.9197 23.2495H27.6898L27.6198 23.2595ZM28.1898 20.6495C28.9398 20.6495 29.5998 20.4095 30.0998 19.8395C30.5198 19.3695 30.7098 18.8095 30.7198 18.1795C30.7298 17.6395 30.6298 17.1395 30.3398 16.6795C30.0998 16.2795 29.7698 15.9795 29.3498 15.7795C28.8898 15.5695 28.4098 15.4895 27.9098 15.5495C27.2198 15.6295 26.6298 15.9095 26.2198 16.4895C25.6398 17.2895 25.5698 18.1795 25.8798 19.0895C26.0498 19.5895 26.3698 19.9795 26.8098 20.2595C27.2298 20.5295 27.6897 20.6495 28.1797 20.6495H28.1898Z" fill="#6E016E"/>
<path d="M56.41 15.9703C56.41 15.9703 56.33 15.9703 56.29 15.9703C55.45 15.9703 54.5999 15.9703 53.7599 15.9703C53.6199 15.9703 53.62 15.9703 53.62 15.8203C53.62 13.8903 53.62 11.9703 53.62 10.0403C53.62 9.55032 53.58 9.07032 53.43 8.61032C53.15 7.74032 52.53 7.26032 51.62 7.20032C51.17 7.17032 50.73 7.20032 50.31 7.36032C49.54 7.64032 49.11 8.21032 48.91 8.98032C48.81 9.35032 48.78 9.73032 48.78 10.1103C48.78 11.9603 48.78 13.8203 48.78 15.6703C48.78 15.7103 48.78 15.7503 48.78 15.7903C48.78 15.9103 48.7233 15.9703 48.61 15.9703C47.84 15.9703 47.07 15.9703 46.3 15.9703C46.23 15.9703 46.17 15.9703 46.1 15.9703C45.99 15.9803 45.96 15.9403 45.96 15.8303C45.96 15.1103 45.96 14.3903 45.96 13.6703C45.96 10.7603 45.96 7.86032 45.96 4.95032C45.96 4.73032 45.96 4.77031 46.14 4.77031C46.95 4.77031 47.76 4.77031 48.57 4.77031C48.68 4.77031 48.71 4.80031 48.7 4.91031C48.7 5.16031 48.7 5.41031 48.7 5.66031C48.7 5.71031 48.68 5.77032 48.72 5.79032C48.76 5.81032 48.79 5.75033 48.82 5.72033C49.31 5.28033 49.86 4.93033 50.49 4.72033C50.98 4.56033 51.4899 4.50031 52.0099 4.52031C52.6499 4.54031 53.28 4.65032 53.88 4.90032C55.02 5.39032 55.75 6.25031 56.14 7.41031C56.25 7.74031 56.32 8.08032 56.37 8.43032C56.37 8.46032 56.36 8.51031 56.41 8.52031V15.9703Z" fill="#6E016E"/>
<path d="M0.00997925 4.7804C0.879979 4.7804 1.76 4.7804 2.63 4.7804C2.73 4.7804 2.75998 4.80039 2.75998 4.91039C2.75998 5.19039 2.75998 5.4704 2.75998 5.7504C2.75998 5.7804 2.74 5.83039 2.78 5.85039C2.81 5.86039 2.82999 5.82038 2.85999 5.80038C3.33999 5.36038 3.87 5.01039 4.5 4.82039C4.92 4.70039 5.35 4.65039 5.78 4.65039C5.96 4.65039 6.14001 4.65039 6.32001 4.65039C6.39001 4.65039 6.41998 4.67039 6.41998 4.74039C6.41998 5.57039 6.41998 6.40039 6.41998 7.23039C6.41998 7.31039 6.38 7.32039 6.31 7.32039C5.91 7.32039 5.52 7.30039 5.12 7.34039C4.6 7.39039 4.09999 7.5304 3.67999 7.8604C3.17999 8.2604 2.96 8.80039 2.87 9.41039C2.83 9.66039 2.82001 9.91039 2.82001 10.1604C2.82001 12.0504 2.82001 13.9404 2.82001 15.8304C2.82001 15.9904 2.82 15.9904 2.66 15.9904C1.82 15.9904 0.970005 15.9904 0.130005 15.9904C0.0900049 15.9904 0.04 15.9904 0 15.9904C0 12.2604 0 8.53038 0 4.80038L0.00997925 4.7804Z" fill="#6E016E"/>
<path d="M23.3001 0C23.3001 0.12 23.3001 0.240001 23.3001 0.360001C23.3001 1.04 23.3001 1.71999 23.3001 2.39999C23.3001 2.49999 23.2701 2.54999 23.1701 2.57999C21.9501 2.95999 20.7301 3.34 19.5101 3.72C19.3701 3.76 19.3701 3.76 19.3701 3.61C19.3701 3.05 19.3701 2.48999 19.3701 1.92999C19.3701 1.82999 19.4001 1.77999 19.4901 1.73999C20.7001 1.18999 21.9101 0.639996 23.1201 0.0899963C23.1601 0.0699963 23.2201 0.0799945 23.2201 0.00999451C23.2501 0.00999451 23.2801 0.00999451 23.3101 0.00999451L23.3001 0Z" fill="#6E016E"/>
<path d="M15.2398 14.7597C15.0298 14.9697 14.8198 15.1498 14.5798 15.3098C13.6998 15.9098 12.7298 16.1698 11.6598 16.1098C10.8198 16.0598 10.0098 15.8597 9.27981 15.4397C8.08981 14.7697 7.29982 13.7598 6.87982 12.4698C6.36982 10.8698 6.36982 9.26974 7.12982 7.73974C8.01982 5.93974 9.48981 4.86974 11.4898 4.57974C13.1898 4.33974 14.7498 4.73974 16.0798 5.84974C17.1398 6.73974 17.7498 7.88975 17.9398 9.25975C17.9798 9.53975 17.9998 9.81975 17.9998 10.1098C17.9998 12.0098 17.9998 13.9097 17.9998 15.8197C17.9998 15.9797 17.9998 15.9797 17.8398 15.9797C17.0298 15.9797 16.2198 15.9797 15.4198 15.9797C15.2598 15.9797 15.2598 15.9797 15.2598 15.8197C15.2598 15.5097 15.2598 15.1998 15.2598 14.8898C15.2598 14.8498 15.2698 14.8097 15.2398 14.7597ZM15.1898 10.2897C15.1898 10.1297 15.1798 9.94975 15.1498 9.75975C15.0298 8.97975 14.7098 8.29975 14.0698 7.80975C13.4898 7.34975 12.8098 7.17975 12.0898 7.22975C11.0298 7.29975 10.1998 7.77974 9.7298 8.73974C9.2398 9.72974 9.2398 10.7497 9.6698 11.7697C9.9298 12.3897 10.3798 12.8397 10.9898 13.1297C11.4498 13.3497 11.9398 13.4297 12.4498 13.3997C13.5298 13.3297 14.3598 12.8497 14.8598 11.8697C15.1098 11.3897 15.1898 10.8698 15.1998 10.3098L15.1898 10.2897Z" fill="#6E016E"/>
<path d="M40.4601 11.2602C39.1301 11.2602 37.8101 11.2602 36.4801 11.2602C36.3201 11.2602 36.3201 11.2602 36.3601 11.4202C36.5301 12.1302 36.8801 12.7302 37.5201 13.1202C37.9001 13.3502 38.3301 13.4702 38.7701 13.5202C39.2601 13.5702 39.7501 13.5602 40.2201 13.4102C40.6801 13.2702 41.0501 12.9902 41.3101 12.5802C41.3501 12.5102 41.4001 12.4802 41.4901 12.4802C42.3801 12.4802 43.2701 12.4802 44.1601 12.4802C44.2901 12.4802 44.3001 12.4802 44.2501 12.6102C43.5401 14.5402 42.1701 15.6902 40.1501 16.0302C39.0501 16.2202 37.9701 16.1302 36.9401 15.7102C35.5401 15.1402 34.5501 14.1502 33.9701 12.7702C33.2601 11.0502 33.2701 9.32022 34.0701 7.63022C34.9201 5.84022 36.3701 4.82023 38.3301 4.56023C39.4701 4.41023 40.5901 4.56022 41.6401 5.07022C43.0901 5.77022 43.9701 6.94022 44.3901 8.46022C44.6401 9.34022 44.7001 10.2402 44.6101 11.1502C44.6101 11.2202 44.5801 11.2502 44.5101 11.2402C44.4701 11.2402 44.4401 11.2402 44.4001 11.2402C43.0901 11.2402 41.7801 11.2402 40.4701 11.2402L40.4601 11.2602ZM39.0601 9.03023C39.8901 9.03023 40.7101 9.03023 41.5401 9.03023C41.7801 9.03023 41.7801 9.03022 41.7101 8.80022C41.4401 7.95022 40.9201 7.35023 40.0301 7.11023C39.6201 7.00023 39.2001 6.97023 38.7801 7.01023C37.6201 7.11023 36.7501 7.79023 36.3901 8.90023C36.3501 9.03023 36.3501 9.04023 36.4901 9.04023C37.3501 9.04023 38.2101 9.04023 39.0701 9.04023L39.0601 9.03023Z" fill="#6E016E"/>
<path d="M22.2799 10.1795C22.2799 12.0595 22.2799 13.9395 22.2799 15.8195C22.2799 15.9795 22.2799 15.9795 22.1199 15.9795C21.2799 15.9795 20.4299 15.9795 19.5899 15.9795C19.4399 15.9795 19.4399 15.9795 19.4399 15.8395C19.4399 12.2995 19.4399 8.75954 19.4399 5.20954C19.4399 5.10954 19.4799 5.06954 19.5699 5.04954C20.4299 4.83954 21.2899 4.62954 22.1599 4.40954C22.2899 4.37954 22.2899 4.37954 22.2899 4.51954C22.2899 6.40954 22.2899 8.28954 22.2899 10.1795H22.2799Z" fill="#6E016E"/>
</svg>
