<svg width="137" height="16" viewBox="0 0 137 16" fill="none" xmlns="http://www.w3.org/2000/svg">
<path d="M114.77 3.14355C111.84 3.14355 109.46 5.30355 109.46 7.96355C109.46 10.6235 111.84 12.7836 114.77 12.7836C117.7 12.7836 120.08 10.6235 120.08 7.96355C120.08 5.30355 117.7 3.14355 114.77 3.14355ZM117.98 7.96355C118 9.57355 116.58 10.8936 114.81 10.9136C113.04 10.9336 111.58 9.64355 111.55 8.04355C111.52 6.44355 112.95 5.11355 114.72 5.09355H114.76C116.53 5.09355 117.97 6.40356 117.97 8.00356" fill="#35BAA4"/>
<path d="M99.78 0.523088C99.34 0.913088 99.1 1.46309 99.14 2.02309V3.55309H97.96V5.20308H99.14V12.5031H101.28V5.20308H103.42V3.55309H101.28V2.02309C101.28 1.75309 101.41 1.61308 101.64 1.61308H104.06V0.00308416H101.55C100.94 -0.0269158 100.34 0.163088 99.88 0.523088" fill="#35BAA4"/>
<path d="M107.23 10.6434C107.19 10.5534 107.19 10.4434 107.23 10.3534V0.0234375H105.09V10.4534C105.05 10.9934 105.21 11.5334 105.54 11.9834C105.87 12.3334 106.36 12.5134 106.87 12.4934H109.01V10.7234H107.38" fill="#35BAA4"/>
<path d="M134 3.36328L131.82 10.8433H131.78L129.33 3.42328V3.36328H127.11L124.79 10.8433H124.77L122.46 3.36328H120.15L123.1 12.4333L123.12 12.4933H126.14L128.2 6.06328L130.15 12.4933H133.19L136.12 3.36328H134Z" fill="#35BAA4"/>
<path d="M116.16 7.77353L114.02 6.60352H113.83C113.77 6.63352 113.73 6.69352 113.72 6.76352V9.07352C113.72 9.13352 113.77 9.19352 113.83 9.23352C113.89 9.26352 113.96 9.26352 114.02 9.23352L116.16 8.06352V7.92352C116.18 7.87352 116.18 7.81352 116.16 7.76352" fill="#35BAA4"/>
<path d="M16.0198 3.14355C14.6798 3.14355 13.3898 3.64356 12.4598 4.52356C11.5198 5.47356 11.0098 6.70355 11.0298 7.98355C10.9798 9.25355 11.4798 10.4836 12.4198 11.4236C13.4298 12.3436 14.8198 12.8336 16.2498 12.7836C17.0598 12.7836 17.8698 12.6236 18.6098 12.3136C19.3798 12.0136 20.0398 11.5236 20.5398 10.9136L19.2798 9.76355C18.5898 10.5035 17.5798 10.9236 16.5198 10.9136C14.6798 10.9136 13.6498 10.1936 13.4098 8.73355H20.7298V7.55356C20.7498 6.42356 20.3098 5.33355 19.4898 4.48355C18.6198 3.61355 17.3598 3.12356 16.0598 3.16356M18.5198 7.28355H13.3398C13.3698 6.05355 14.4898 5.07355 15.8498 5.09355C15.9298 5.09355 15.9998 5.09355 16.0798 5.10355C17.2498 4.94355 18.3398 5.67355 18.5198 6.73355C18.5498 6.91355 18.5498 7.09356 18.5198 7.27356" fill="#00A2D5"/>
<path d="M43.35 3.14261C40.41 3.13261 38.01 5.2926 38 7.9626C37.99 10.6326 40.37 12.8026 43.31 12.8226C46.25 12.8226 48.65 10.6726 48.66 8.00261V7.98261C48.65 5.32261 46.28 3.16261 43.35 3.14261ZM46.56 7.98261C46.56 9.59261 45.12 10.8926 43.35 10.8926C41.58 10.8926 40.14 9.58261 40.14 7.98261C40.14 6.38261 41.58 5.07261 43.35 5.07261C45.12 5.07261 46.56 6.38261 46.56 7.98261Z" fill="#00A2D5"/>
<path d="M5.14 3.14292C3.68 3.09292 2.34 3.86292 1.78 5.08292V3.35291H0V15.8029H2.14V10.9129C2.39 11.4229 2.76 11.8729 3.23 12.2329C3.85 12.6529 4.6 12.8729 5.37 12.8529C6.59 12.8529 7.73999 12.3429 8.51999 11.4929C9.39999 10.5029 9.85 9.26293 9.81 7.99293C9.86 6.73293 9.39999 5.49292 8.51999 4.51292C7.69999 3.65292 6.49999 3.16292 5.23999 3.17292M7.56 8.04292C7.56 9.81292 6.49 11.0129 4.86 11.0129C4.08 11.0229 3.34 10.7029 2.87 10.1429C2.39 9.53292 2.13999 8.79292 2.15999 8.04292C2.14999 7.28292 2.4 6.53292 2.89 5.90292C3.4 5.30292 4.2 4.97292 5.03 5.03292C5.78 5.03292 6.48 5.33292 6.94 5.87292C7.44 6.51292 7.7 7.28292 7.67 8.06292" fill="#00A2D5"/>
<path d="M24.4099 5.0932L24.2799 3.44321H22.4399V12.5932H24.5799V7.2932C24.5799 6.0932 25.1199 5.58321 26.3799 5.58321H27.7899V3.3532H26.9499C25.7399 3.2332 24.6199 3.93321 24.3199 5.00321" fill="#00A2D5"/>
<path d="M32.66 4.62333C33.79 4.58333 34.82 5.22334 35.19 6.19334L36.88 5.61334C36.57 4.84334 36.01 4.16334 35.27 3.67334C34.5 3.21334 33.6 2.97334 32.68 2.99334C31.78 2.99334 30.91 3.26334 30.2 3.75334C29.48 4.24334 29.06 5.01334 29.06 5.83334C29.02 6.57334 29.36 7.29334 29.98 7.77334C30.63 8.26334 31.4 8.59334 32.23 8.74334H32.44C32.99 8.82334 33.53 8.96333 34.05 9.15333C34.43 9.27333 34.69 9.60334 34.69 9.97334C34.69 10.6933 33.75 11.0033 32.83 11.0033C31.61 11.0033 30.48 10.4233 29.85 9.47334L28.29 10.2533C28.66 10.9933 29.28 11.6133 30.07 12.0233C30.91 12.4533 31.87 12.6633 32.83 12.6433C33.83 12.6733 34.81 12.4333 35.66 11.9633C36.41 11.5533 36.88 10.8233 36.9 10.0233C36.94 9.24334 36.52 8.51334 35.81 8.08334C35.08 7.67334 34.29 7.37333 33.45 7.21333C32.31 6.94333 31.05 6.61334 31.05 5.69334C31.05 4.77334 31.65 4.52334 32.66 4.52334" fill="#00A2D5"/>
<path d="M55.5302 3.14309C54.7602 3.14309 54.0102 3.34309 53.3902 3.74309C52.8402 4.09309 52.4002 4.58309 52.1302 5.14309V3.41309H49.9902V12.5631H52.1302V7.45308C52.1602 6.89308 52.3602 6.34309 52.7102 5.88309C53.1302 5.27309 53.8702 4.90309 54.6602 4.89309C55.6502 4.89309 55.8402 5.08308 56.1402 5.45308C56.4902 5.92308 56.6502 6.49308 56.5902 7.06308V12.5631H58.7302V6.73308C58.7902 5.77308 58.4902 4.83309 57.8702 4.05309C57.2402 3.38309 56.3002 3.01308 55.3202 3.06308" fill="#00A2D5"/>
<path d="M69.24 10.7028V6.58276C69.29 5.65276 68.91 4.75275 68.21 4.07275C67.42 3.40275 66.36 3.05275 65.28 3.10275C63.24 3.01275 61.37 4.12276 60.65 5.86276L62.56 6.68275C62.98 5.72275 63.96 5.06276 65.09 4.97276C66.1 4.94276 66.96 5.63275 67.04 6.54275V7.20276H64.73C62.16 7.20276 60.55 8.33276 60.55 10.1328C60.51 10.8828 60.86 11.5928 61.49 12.0728C62.13 12.5428 62.94 12.7928 63.76 12.7728C65.31 12.7728 66.72 11.9528 67.36 10.6728V11.1628C67.36 12.0728 67.85 12.5628 68.77 12.5628H70.18V10.9128H69.32C69.17 10.9128 69.15 10.7728 69.15 10.6828M67.01 8.74276C66.89 9.35276 66.52 9.89275 65.96 10.2628C65.5 10.6228 64.92 10.8428 64.31 10.8828C63.92 10.8828 63.54 10.8028 63.2 10.6328C62.92 10.4828 62.75 10.2028 62.75 9.91276C62.77 9.50276 63.08 9.14275 63.52 9.04275C64.12 8.83275 64.76 8.73276 65.4 8.75276H67.01V8.74276Z" fill="#00A2D5"/>
<path d="M74.21 10.7235H74C73.96 10.6335 73.96 10.5235 74 10.4335V0.0634766H71.86V10.5335C71.82 11.0735 71.98 11.6135 72.31 12.0635C72.65 12.4135 73.15 12.6035 73.66 12.5735H75.8V10.7835L74.22 10.7235H74.21Z" fill="#00A2D5"/>
<path d="M86.29 0.00292969H87.4V12.5129H86.29V0.00292969Z" fill="#929497"/>
</svg>
