<svg width="36" height="36" viewBox="0 0 36 36" fill="none" xmlns="http://www.w3.org/2000/svg">
<path d="M18.3104 0C19.4804 0 20.6404 0.0199921 21.8104 0.0699921C22.7604 0.109992 23.7004 0.17 24.6504 0.25C25.4104 0.31 26.1704 0.379996 26.9304 0.479996C28.3004 0.649996 29.6604 0.859993 31.0104 1.17999C31.5304 1.29999 32.0504 1.43 32.5404 1.67C33.2404 2.01 33.7904 2.51999 34.1904 3.18999C34.4704 3.65999 34.6304 4.17999 34.7504 4.70999C35.0104 5.87999 35.2204 7.05999 35.3804 8.23999C35.5304 9.35999 35.6504 10.49 35.7504 11.62C36.0004 14.62 36.0204 17.63 35.9604 20.64C35.9404 21.62 35.8804 22.59 35.8104 23.57C35.7604 24.34 35.6904 25.12 35.6104 25.89C35.5004 26.93 35.3704 27.98 35.2004 29.01C35.0504 29.9 34.8904 30.79 34.6604 31.66C34.5204 32.21 34.3004 32.72 33.9604 33.18C33.7104 33.51 33.4204 33.8 33.0704 34.03C32.4804 34.43 31.8104 34.64 31.1304 34.8C30.4204 34.96 29.7104 35.11 28.9904 35.23C28.2104 35.36 27.4204 35.47 26.6304 35.56C25.7304 35.66 24.8304 35.75 23.9304 35.81C22.4504 35.91 20.9704 35.98 19.4804 35.99C17.9304 36 16.3804 36 14.8304 35.96C13.8804 35.93 12.9404 35.88 11.9904 35.81C11.2104 35.75 10.4304 35.68 9.6504 35.6C8.8504 35.52 8.0504 35.41 7.2504 35.28C6.2504 35.12 5.2604 34.93 4.2904 34.67C3.8404 34.55 3.41041 34.36 3.01041 34.1C2.12041 33.53 1.6004 32.69 1.3304 31.68C1.0604 30.66 0.880404 29.62 0.720404 28.57C0.580404 27.68 0.470404 26.78 0.380404 25.88C0.270404 24.83 0.190404 23.79 0.130404 22.74C0.070404 21.66 0.0304051 20.59 0.0104051 19.51C-0.00959495 18.17 0.000405511 16.83 0.0304055 15.49C0.0504055 14.67 0.100404 13.84 0.150404 13.02C0.180404 12.46 0.220403 11.9 0.270403 11.35C0.330403 10.71 0.390402 10.08 0.460402 9.45C0.550402 8.66 0.660406 7.87999 0.780406 7.09999C0.930406 6.13999 1.1004 5.17999 1.3604 4.23999C1.7604 2.80999 2.7004 1.87 4.1104 1.42C4.8204 1.2 5.5604 1.06 6.2904 0.919998C7.1004 0.769998 7.9104 0.639993 8.7204 0.539993C9.4304 0.449993 10.1504 0.379998 10.8604 0.309998C12.2104 0.189998 13.5704 0.109998 14.9304 0.0599976C16.0604 0.0199976 17.1804 0.00998901 18.3104 0.019989V0ZM20.1304 27.32C20.1604 27.61 20.1604 27.89 20.1604 28.16C20.1604 28.24 20.1804 28.26 20.2604 28.25C21.0104 28.25 21.7704 28.25 22.5204 28.25C22.6104 28.25 22.6304 28.22 22.6304 28.14C22.6304 26.34 22.6104 24.55 22.6104 22.75C22.6104 22.51 22.6104 22.27 22.5804 22.04C22.5004 21.58 22.3604 21.13 22.1304 20.72C21.8304 20.2 21.4304 19.79 20.9004 19.51C20.3704 19.23 19.8104 19.09 19.2104 19.04C18.2304 18.97 17.2604 19.04 16.3004 19.26C15.9604 19.33 15.6404 19.45 15.3104 19.56C15.1604 19.61 15.1604 19.6 15.1504 19.76C15.1504 19.81 15.1504 19.85 15.1504 19.9C15.1504 20.42 15.1504 20.93 15.1504 21.45C15.1504 21.52 15.1504 21.59 15.1504 21.66C15.1504 21.73 15.1704 21.73 15.2304 21.71C15.5104 21.6 15.7904 21.51 16.0804 21.42C16.6704 21.25 17.2704 21.1 17.9004 21.11C18.3204 21.11 18.7404 21.06 19.1504 21.22C19.3204 21.29 19.4904 21.36 19.6304 21.48C19.9304 21.73 20.0804 22.06 20.1304 22.44C20.1504 22.62 20.1504 22.62 19.9704 22.6C19.2104 22.55 18.4504 22.58 17.7004 22.72C17.2104 22.81 16.7504 22.95 16.3104 23.18C15.9604 23.36 15.6504 23.58 15.3804 23.88C15.0704 24.22 14.8504 24.62 14.7804 25.07C14.7304 25.35 14.6804 25.63 14.7204 25.92C14.7604 26.18 14.7804 26.44 14.8704 26.69C14.9504 26.92 15.0504 27.15 15.2004 27.33C15.4304 27.6 15.6704 27.86 16.0004 28.04C16.3504 28.23 16.7104 28.36 17.1004 28.41C17.4304 28.46 17.7604 28.45 18.0904 28.43C18.2804 28.43 18.4604 28.4 18.6404 28.35C19.1104 28.23 19.5004 27.98 19.8404 27.65C19.9504 27.55 20.0504 27.44 20.1504 27.3L20.1304 27.32ZM29.4204 27.31C29.4204 27.31 29.4404 27.37 29.4404 27.41C29.4504 27.65 29.4604 27.89 29.4704 28.12C29.4704 28.21 29.5104 28.23 29.5904 28.23C30.3604 28.26 31.1404 28.23 31.9104 28.24C31.9904 28.24 32.0104 28.22 32.0104 28.14C32.0104 25.2 32.0104 22.27 32.0104 19.33C32.0104 19.24 31.9804 19.23 31.9104 19.23C31.1004 19.23 30.2904 19.23 29.4804 19.23C29.3504 19.23 29.3604 19.21 29.3604 19.35C29.3604 21.06 29.3604 22.78 29.3504 24.49C29.3504 24.76 29.3504 25.04 29.2604 25.3C29.1704 25.55 29.0604 25.78 28.8704 25.96C28.5804 26.23 28.2404 26.32 27.8504 26.32C27.1404 26.31 26.7104 25.72 26.6404 25.14C26.5804 24.62 26.6004 24.1 26.6004 23.58C26.6004 22.16 26.6004 20.74 26.6004 19.32C26.6004 19.25 26.5904 19.23 26.5104 19.23C25.6904 19.23 24.8604 19.23 24.0304 19.23C23.9604 19.23 23.9404 19.25 23.9404 19.32C23.9404 21.19 23.9504 23.07 23.9604 24.94C23.9604 25.4 23.9804 25.85 24.1204 26.3C24.2304 26.67 24.3704 27.02 24.6104 27.33C24.8804 27.67 25.1904 27.97 25.5904 28.16C25.8404 28.28 26.0904 28.37 26.3604 28.41C26.7404 28.46 27.1204 28.45 27.4904 28.43C27.7204 28.42 27.9404 28.36 28.1404 28.27C28.5104 28.12 28.8504 27.91 29.1204 27.61C29.1904 27.53 29.2604 27.46 29.3304 27.38C29.3504 27.35 29.3704 27.32 29.4104 27.31H29.4204ZM11.6004 23.33H11.5804C11.5804 22.67 11.5804 22.01 11.5804 21.35C11.5804 21.27 11.6004 21.25 11.6804 21.26C12.3704 21.26 13.0604 21.26 13.7504 21.26C13.8304 21.26 13.8504 21.24 13.8504 21.16C13.8504 20.55 13.8504 19.94 13.8504 19.34C13.8504 19.27 13.8304 19.24 13.7604 19.24C13.0804 19.24 12.3904 19.24 11.7104 19.24C11.6204 19.24 11.5904 19.22 11.5904 19.13C11.5904 18.29 11.5904 17.45 11.5904 16.61C11.5904 16.53 11.5704 16.51 11.4904 16.52C11.0804 16.58 10.6704 16.65 10.2604 16.73C10.0804 16.77 9.8904 16.78 9.7104 16.83C9.4904 16.88 9.2704 16.92 9.0504 16.94C8.9704 16.95 8.9404 16.97 8.9404 17.05C8.9404 17.75 8.9404 18.44 8.9404 19.14C8.9404 19.21 8.9204 19.23 8.8504 19.23C8.4704 19.23 8.0904 19.23 7.7004 19.23C7.6404 19.23 7.6204 19.24 7.6204 19.3C7.6204 19.92 7.6204 20.54 7.6204 21.16C7.6204 21.23 7.6404 21.24 7.7004 21.24C8.0704 21.24 8.4504 21.24 8.8204 21.24C8.9104 21.24 8.9304 21.26 8.9304 21.35C8.9404 22.73 8.9304 24.11 8.9504 25.49C8.9504 25.97 9.0604 26.43 9.2604 26.86C9.4304 27.22 9.6604 27.53 9.9704 27.77C10.4904 28.18 11.0904 28.33 11.7204 28.38C12.1304 28.42 12.5404 28.38 12.9504 28.35C13.1804 28.33 13.4104 28.3 13.6304 28.25C13.6804 28.24 13.7204 28.22 13.7204 28.15C13.7204 27.53 13.7204 26.92 13.7204 26.3C13.7204 26.24 13.7004 26.23 13.6504 26.24C13.4404 26.27 13.2304 26.33 13.0204 26.32C12.7704 26.31 12.5104 26.34 12.2704 26.25C12.0204 26.15 11.8204 25.99 11.7004 25.75C11.6104 25.57 11.6004 25.39 11.6004 25.2C11.6004 24.57 11.6004 23.95 11.6004 23.32V23.33ZM3.9504 23.74C3.9504 25.21 3.9504 26.68 3.9504 28.15C3.9504 28.23 3.9604 28.25 4.0504 28.25C4.8704 28.25 5.6804 28.25 6.5004 28.25C6.5904 28.25 6.60041 28.22 6.60041 28.14C6.60041 25.21 6.60041 22.27 6.60041 19.34C6.60041 19.26 6.5804 19.24 6.5004 19.24C5.6804 19.24 4.8704 19.24 4.0504 19.24C3.9604 19.24 3.9504 19.27 3.9504 19.35C3.9504 20.81 3.9504 22.28 3.9504 23.74ZM28.1104 18.02C28.8004 18.02 29.4904 18.02 30.1804 18.02C30.3204 18.02 30.3004 18.04 30.3004 17.9C30.3004 17.22 30.3004 16.54 30.3004 15.86C30.3004 15.73 30.3004 15.73 30.1704 15.75C29.8304 15.81 29.5004 15.86 29.1604 15.93C28.5904 16.04 28.0204 16.13 27.4504 16.24C26.9604 16.33 26.4804 16.42 25.9904 16.48C25.9204 16.48 25.9104 16.52 25.9104 16.58C25.9104 17.03 25.9104 17.48 25.9104 17.93C25.9104 18.01 25.9304 18.03 26.0004 18.03C26.7004 18.03 27.4004 18.03 28.1004 18.03L28.1104 18.02ZM5.3804 15.28C4.9504 15.26 4.6104 15.35 4.3204 15.57C3.9404 15.85 3.7304 16.22 3.7404 16.7C3.7404 16.78 3.7404 16.85 3.7404 16.93C3.7404 17.11 3.7804 17.28 3.8604 17.45C4.1404 18 4.6104 18.24 5.2004 18.29C5.3604 18.3 5.5104 18.27 5.6604 18.24C6.2404 18.12 6.64041 17.73 6.78041 17.19C6.87041 16.85 6.8604 16.49 6.7104 16.15C6.6004 15.89 6.42041 15.68 6.19041 15.53C5.93041 15.36 5.6304 15.27 5.3704 15.28H5.3804Z" fill="#FE6200"/>
<path d="M20.1305 24.8003C20.1305 25.0003 20.1105 25.1603 20.1105 25.3303C20.1105 25.4203 20.0705 25.5003 20.0405 25.5803C19.9005 25.9503 19.6605 26.2403 19.3005 26.4203C19.0105 26.5703 18.7105 26.5603 18.4005 26.5603C18.1305 26.5603 17.8905 26.4803 17.6705 26.3403C17.4905 26.2303 17.3905 26.0503 17.3205 25.8503C17.2305 25.5803 17.2405 25.3203 17.3505 25.0503C17.4605 24.7603 17.6805 24.6003 17.9505 24.4803C18.3105 24.3103 18.6905 24.2203 19.0905 24.2203C19.4005 24.2203 19.7105 24.2103 20.0105 24.2203C20.1505 24.2203 20.1505 24.2203 20.1505 24.3603C20.1505 24.5103 20.1505 24.6603 20.1505 24.7803L20.1305 24.8003Z" fill="#FE6200"/>
</svg>
