<svg width="120" height="22" viewBox="0 0 120 22" fill="none" xmlns="http://www.w3.org/2000/svg">
<path d="M119.392 11.5295C114.782 11.6195 108.712 12.2595 108.712 12.2595C115.972 12.2095 118.542 12.4695 119.232 12.5695C119.302 12.5895 119.372 12.6095 119.452 12.5995C119.742 12.5895 119.972 12.3395 119.962 12.0395C119.952 11.7495 119.702 11.5095 119.402 11.5295" fill="#C10505"/>
<path d="M108.612 12.26C94.8918 12.64 79.9418 15.71 79.9418 15.71C79.4718 15.8 79.1118 16.21 79.1218 16.7C79.1218 17.23 79.5218 17.65 80.0318 17.7C80.0318 17.7 80.0418 17.7 80.0718 17.7C80.0918 17.7 80.1118 17.7 80.1318 17.7C80.2218 17.7 80.3018 17.7 80.3718 17.67C80.4318 17.65 80.4918 17.63 80.5418 17.62C81.8118 17.43 85.3418 17 90.1118 17.24C90.1118 17.24 87.2018 16.66 84.2518 16.59C93.7818 14.23 108.612 12.25 108.612 12.25" fill="#C10505"/>
<path d="M93.7919 18.3892V19.8892C93.7919 19.9792 93.7719 20.0592 93.7119 20.1192C93.6619 20.1792 93.5919 20.1992 93.5019 20.1992C93.4119 20.1992 93.3419 20.1692 93.2919 20.1092C93.2319 20.0592 93.2119 19.9792 93.2119 19.8892V15.7292C93.2019 15.6292 93.2219 15.5592 93.2819 15.4992C93.3319 15.4392 93.4019 15.4092 93.5119 15.4092H94.6619C94.9619 15.4092 95.2319 15.4692 95.4719 15.6092C95.7019 15.7392 95.8819 15.9192 96.0119 16.1492C96.1319 16.3792 96.1919 16.6292 96.1919 16.8992C96.1919 17.1692 96.1219 17.4192 95.9919 17.6392C95.8619 17.8692 95.6819 18.0492 95.4619 18.1792C95.2319 18.3092 94.9719 18.3792 94.6919 18.3792H93.7919V18.3892ZM93.7919 15.9292V17.8892H94.6519C94.7919 17.8892 94.9219 17.8592 95.0419 17.8092C95.1619 17.7592 95.2619 17.6892 95.3519 17.5992C95.4319 17.5092 95.5019 17.4092 95.5419 17.2892C95.5919 17.1692 95.6119 17.0392 95.6119 16.8992C95.6119 16.7292 95.5919 16.5792 95.5219 16.4192C95.4519 16.2692 95.3419 16.1492 95.1919 16.0592C95.0419 15.9692 94.8519 15.9192 94.6219 15.9192H93.7919V15.9292Z" fill="#C6C6C6"/>
<path d="M99.5422 16.8596V19.9096C99.5422 19.9996 99.5122 20.0696 99.4722 20.1196C99.4122 20.1696 99.3522 20.1896 99.2822 20.1896C99.2222 20.1896 99.1522 20.1696 99.0922 20.1196C99.0322 20.0696 99.0122 19.9996 99.0122 19.9096V19.6596H99.0022C98.7522 20.0196 98.4322 20.1996 98.0422 20.1996C97.7222 20.1996 97.4522 20.1196 97.2122 19.9496C96.9822 19.7796 96.8022 19.5596 96.6822 19.2796C96.5522 18.9996 96.5022 18.7096 96.4922 18.3796C96.4922 18.0596 96.5522 17.7696 96.6722 17.4896C96.8022 17.2096 96.9822 16.9896 97.2122 16.8196C97.4422 16.6596 97.7222 16.5696 98.0322 16.5596C98.3822 16.5596 98.7022 16.7196 98.9922 17.0296H99.0122V16.8396C99.0122 16.7496 99.0322 16.6796 99.0922 16.6296C99.1522 16.5796 99.2122 16.5596 99.2722 16.5596C99.3422 16.5596 99.4122 16.5796 99.4622 16.6296C99.5122 16.6796 99.5522 16.7496 99.5522 16.8496M97.0722 18.3796C97.0722 18.7196 97.1622 19.0296 97.3122 19.2896C97.4722 19.5496 97.7122 19.6896 98.0422 19.6896C98.2622 19.6896 98.4522 19.6296 98.5922 19.4896C98.7422 19.3596 98.8422 19.1996 98.9022 18.9996C98.9622 18.7996 99.0022 18.5896 99.0022 18.3796C99.0022 18.1696 98.9622 17.9596 98.8922 17.7596C98.8222 17.5596 98.7322 17.3896 98.5822 17.2696C98.4422 17.1396 98.2522 17.0796 98.0322 17.0796C97.8122 17.0796 97.6222 17.1496 97.4822 17.2796C97.3422 17.3996 97.2322 17.5696 97.1722 17.7696C97.1022 17.9796 97.0722 18.1796 97.0722 18.3896" fill="#C6C6C6"/>
<path d="M100.322 19.8796V16.8796C100.322 16.7896 100.342 16.7096 100.382 16.6596C100.452 16.5996 100.512 16.5696 100.612 16.5696C100.692 16.5696 100.772 16.5996 100.822 16.6596C100.872 16.7096 100.902 16.7896 100.902 16.8796V17.1796H100.912C100.962 17.0896 101.032 16.9896 101.102 16.8896C101.182 16.7896 101.282 16.7096 101.382 16.6496C101.492 16.5896 101.592 16.5596 101.702 16.5596C101.802 16.5596 101.882 16.5896 101.942 16.6496C101.992 16.6996 102.032 16.7796 102.022 16.8596C102.022 17.0196 101.902 17.1296 101.662 17.1896C101.532 17.1996 101.412 17.2596 101.292 17.3296C101.182 17.3996 101.082 17.5096 101.002 17.6496C100.922 17.7896 100.892 17.9696 100.892 18.1896V19.8796C100.892 19.9696 100.882 20.0496 100.822 20.0996C100.782 20.1596 100.702 20.1796 100.612 20.1796C100.522 20.1796 100.452 20.1596 100.392 20.0996C100.352 20.0396 100.322 19.9696 100.322 19.8796Z" fill="#C6C6C6"/>
<path d="M105.302 16.8396V19.8996C105.302 19.9896 105.282 20.0596 105.222 20.1096C105.162 20.1596 105.102 20.1796 105.032 20.1796C104.962 20.1796 104.902 20.1596 104.842 20.1096C104.792 20.0596 104.752 19.9896 104.762 19.8996V19.6496H104.742C104.492 20.0096 104.182 20.1896 103.782 20.1896C103.472 20.1896 103.202 20.1096 102.962 19.9396C102.722 19.7696 102.542 19.5496 102.422 19.2796C102.302 18.9996 102.232 18.6996 102.232 18.3796C102.232 18.0596 102.302 17.7696 102.412 17.4896C102.532 17.2096 102.712 16.9896 102.952 16.8196C103.192 16.6496 103.462 16.5696 103.772 16.5596C104.132 16.5596 104.452 16.7196 104.732 17.0296H104.742V16.8396C104.742 16.7496 104.782 16.6796 104.832 16.6296C104.882 16.5796 104.952 16.5596 105.012 16.5596C105.082 16.5596 105.142 16.5796 105.202 16.6296C105.252 16.6796 105.282 16.7496 105.282 16.8396M102.822 18.3696C102.822 18.7096 102.902 19.0196 103.062 19.2796C103.222 19.5396 103.472 19.6696 103.792 19.6796C104.012 19.6796 104.202 19.6196 104.342 19.4796C104.482 19.3496 104.592 19.1896 104.662 18.9896C104.732 18.7896 104.762 18.5796 104.752 18.3696C104.752 18.1596 104.722 17.9496 104.652 17.7496C104.582 17.5496 104.472 17.3796 104.332 17.2596C104.182 17.1396 104.002 17.0696 103.772 17.0696C103.552 17.0696 103.372 17.1396 103.222 17.2596C103.082 17.3896 102.972 17.5496 102.912 17.7496C102.842 17.9496 102.812 18.1596 102.812 18.3696" fill="#C6C6C6"/>
<path d="M108.942 16.84V19.89C108.942 20.23 108.882 20.53 108.742 20.79C108.612 21.05 108.432 21.24 108.192 21.38C107.952 21.51 107.672 21.58 107.362 21.58C107.162 21.58 106.962 21.55 106.752 21.48C106.542 21.42 106.362 21.33 106.222 21.24C106.082 21.14 106.012 21.04 106.012 20.94C106.012 20.87 106.022 20.8 106.072 20.75C106.122 20.69 106.172 20.67 106.252 20.67C106.322 20.67 106.422 20.71 106.572 20.8C106.712 20.88 106.842 20.96 106.962 21C107.072 21.05 107.222 21.07 107.402 21.07C107.632 21.07 107.822 21.01 107.962 20.91C108.112 20.8 108.212 20.67 108.262 20.51C108.332 20.35 108.352 20.17 108.352 19.98V19.67H108.342C108.252 19.83 108.132 19.95 107.972 20.04C107.822 20.14 107.652 20.18 107.452 20.18C107.142 20.18 106.862 20.11 106.622 19.93C106.382 19.76 106.202 19.54 106.082 19.26C105.962 18.98 105.902 18.69 105.902 18.36C105.902 18.04 105.962 17.75 106.082 17.47C106.202 17.19 106.382 16.97 106.622 16.8C106.852 16.64 107.132 16.55 107.452 16.55C107.572 16.55 107.682 16.57 107.802 16.61C107.912 16.65 108.022 16.7 108.122 16.77C108.212 16.84 108.282 16.91 108.342 16.98H108.352V16.83C108.352 16.73 108.392 16.66 108.442 16.61C108.502 16.56 108.582 16.54 108.662 16.54C108.732 16.54 108.792 16.56 108.852 16.61C108.912 16.66 108.942 16.73 108.942 16.82M106.502 18.37C106.502 18.71 106.582 19.02 106.732 19.28C106.892 19.55 107.132 19.68 107.462 19.68C107.692 19.68 107.862 19.62 108.012 19.49C108.162 19.37 108.262 19.2 108.332 19C108.402 18.8 108.432 18.59 108.422 18.38C108.422 18.16 108.392 17.96 108.322 17.76C108.252 17.56 108.152 17.4 108.002 17.27C107.852 17.14 107.672 17.08 107.452 17.07C107.232 17.07 107.042 17.14 106.902 17.27C106.752 17.4 106.652 17.56 106.592 17.76C106.532 17.96 106.492 18.17 106.502 18.38" fill="#C6C6C6"/>
<path d="M109.742 18.7593V16.8593C109.742 16.7593 109.762 16.6893 109.812 16.6293C109.862 16.5693 109.932 16.5393 110.022 16.5393C110.112 16.5393 110.182 16.5693 110.232 16.6293C110.282 16.6793 110.302 16.7593 110.302 16.8493V18.7293C110.302 19.0293 110.382 19.2593 110.512 19.4193C110.652 19.5693 110.862 19.6493 111.132 19.6493C111.302 19.6493 111.452 19.6093 111.582 19.5393C111.702 19.4693 111.792 19.3693 111.852 19.2293C111.912 19.0893 111.942 18.9193 111.942 18.7193V16.8493C111.942 16.7593 111.962 16.6793 112.012 16.6193C112.062 16.5593 112.132 16.5293 112.222 16.5293C112.312 16.5293 112.382 16.5593 112.432 16.6193C112.482 16.6793 112.512 16.7493 112.512 16.8493V18.7493C112.512 19.2293 112.382 19.5893 112.122 19.8193C111.852 20.0493 111.522 20.1693 111.122 20.1693C110.942 20.1693 110.762 20.1393 110.602 20.0893C110.442 20.0393 110.292 19.9593 110.152 19.8493C110.022 19.7393 109.912 19.5893 109.842 19.4093C109.772 19.2293 109.732 19.0193 109.732 18.7593" fill="#C6C6C6"/>
<path d="M116.192 16.82V19.87C116.192 19.96 116.172 20.03 116.112 20.08C116.062 20.13 115.992 20.15 115.922 20.15C115.852 20.15 115.782 20.12 115.732 20.08C115.682 20.03 115.652 19.96 115.652 19.87V19.62H115.642C115.392 19.98 115.072 20.15 114.682 20.16C114.372 20.16 114.092 20.08 113.862 19.91C113.622 19.74 113.452 19.52 113.322 19.24C113.202 18.96 113.142 18.66 113.142 18.35C113.142 18.03 113.202 17.73 113.322 17.46C113.452 17.18 113.622 16.96 113.862 16.79C114.092 16.63 114.372 16.54 114.692 16.54C115.042 16.54 115.362 16.7 115.652 17.01H115.662V16.82C115.662 16.73 115.682 16.66 115.742 16.61C115.802 16.56 115.862 16.54 115.932 16.54C116.002 16.54 116.062 16.56 116.122 16.61C116.172 16.66 116.202 16.73 116.202 16.83M113.712 18.35C113.712 18.69 113.792 18.99 113.962 19.26C114.122 19.52 114.362 19.66 114.692 19.66C114.912 19.66 115.092 19.59 115.232 19.46C115.382 19.33 115.492 19.17 115.552 18.97C115.612 18.77 115.652 18.56 115.652 18.35C115.652 18.13 115.622 17.93 115.552 17.72C115.482 17.52 115.382 17.36 115.232 17.23C115.092 17.11 114.912 17.04 114.692 17.04C114.462 17.04 114.282 17.1 114.142 17.23C113.992 17.36 113.892 17.52 113.832 17.72C113.762 17.93 113.732 18.13 113.732 18.35" fill="#C6C6C6"/>
<path d="M117.762 19.9895L116.772 17.0995C116.712 16.9395 116.692 16.8295 116.692 16.7695C116.692 16.6995 116.712 16.6395 116.772 16.5895C116.822 16.5495 116.892 16.5195 116.952 16.5195C117.022 16.5195 117.092 16.5395 117.132 16.5795C117.182 16.6195 117.222 16.6695 117.242 16.7395L118.062 19.1695H118.072L118.862 16.7395C118.902 16.5895 119.002 16.5195 119.142 16.5195C119.212 16.5195 119.262 16.5395 119.322 16.5895C119.372 16.6395 119.402 16.6995 119.402 16.7695C119.402 16.8295 119.372 16.9295 119.322 17.0995L117.862 21.3395C117.812 21.4795 117.722 21.5595 117.582 21.5595C117.512 21.5595 117.452 21.5395 117.392 21.4895C117.342 21.4495 117.312 21.3895 117.312 21.3095C117.312 21.2495 117.342 21.1395 117.402 20.9895L117.772 19.9995L117.762 19.9895Z" fill="#C6C6C6"/>
<path d="M68.0119 3.33965C68.0119 2.56965 68.5819 2.13965 69.2119 2.13965H72.162C74.012 2.13965 75.7719 3.32965 75.7719 5.70965C75.7719 7.75965 74.5219 9.26965 72.2419 9.27965H70.4219V11.4896C70.4219 12.3296 69.922 12.7696 69.222 12.7696C68.532 12.7696 68.0219 12.3396 68.0219 11.4996L68.002 3.33965H68.0119ZM70.4219 7.14964H71.7119C72.7319 7.14964 73.292 6.44965 73.292 5.70965C73.292 4.75965 72.6519 4.25964 71.7119 4.25964H70.4219V7.14964Z" fill="#C6C6C6"/>
<path d="M78.0418 4.05988C78.4718 2.88988 78.8418 1.87988 80.0418 1.87988C81.2618 1.87988 81.6318 2.87988 82.0618 4.04988L84.3818 10.2799C84.6918 11.1199 84.7418 11.4099 84.7418 11.7599C84.7418 12.3499 84.2718 12.7399 83.5918 12.7399C82.8118 12.7399 82.5518 12.2399 82.3318 11.5699L82.0318 10.6199H78.0918L77.8018 11.5799C77.5818 12.2399 77.3318 12.7499 76.5418 12.7499C75.8618 12.7499 75.3918 12.3599 75.3818 11.7699C75.3818 11.4199 75.4218 11.1299 75.7418 10.2899L78.0318 4.04988L78.0418 4.05988ZM80.1218 4.53988H80.0918L78.8118 8.40988H81.3218L80.1218 4.53988Z" fill="#C6C6C6"/>
<path d="M85.8521 3.29961C85.8521 2.52961 86.422 2.09961 87.052 2.09961H89.942C92.072 2.09961 93.462 3.3896 93.462 5.3596C93.462 6.9096 92.522 8.02961 91.012 8.31961L93.1021 10.5696C93.4321 10.9196 93.612 11.2096 93.612 11.6096C93.612 11.9496 93.302 12.7196 92.392 12.7196C91.762 12.7196 91.542 12.4996 91.242 12.1296L88.2921 8.41961H88.262V11.4596C88.262 12.2996 87.7621 12.7396 87.0721 12.7396C86.3721 12.7396 85.872 12.3096 85.872 11.4696L85.8521 3.30961V3.29961ZM88.252 6.63961H89.842C90.622 6.63961 91.0721 6.11961 91.0721 5.44961C91.0721 4.73961 90.512 4.30961 89.842 4.30961H88.262V6.63961H88.252Z" fill="#C6C6C6"/>
<path d="M112.712 11.2996L112.942 10.5596H116.872L117.052 11.1196C117.882 11.0896 118.722 11.0596 119.492 11.0396C119.442 10.8296 119.352 10.5796 119.222 10.1996L116.902 3.97964C116.472 2.80964 116.102 1.79964 114.872 1.80964C113.662 1.80964 113.302 2.81964 112.882 3.98964L110.582 10.2296C110.352 10.8596 110.272 11.1796 110.242 11.4496C111.122 11.3896 111.992 11.3496 112.702 11.3096M114.922 4.46964H114.952L116.162 8.32964H113.652L114.932 4.46964H114.922Z" fill="#C6C6C6"/>
<path d="M105.532 10.4396C104.302 10.4396 103.522 9.83961 102.942 9.83961C102.212 9.83961 101.822 10.4596 101.822 11.1196C101.822 11.4496 102.002 11.7396 102.282 11.9796C104.112 11.8196 105.672 11.6996 106.382 11.6796C106.922 11.6496 107.742 11.6096 108.642 11.5596C109.102 10.9996 109.372 10.2596 109.372 9.31961C109.372 7.32961 108.112 6.65961 106.802 6.23961C105.152 5.68961 104.552 5.61961 104.552 5.01961C104.552 4.49961 104.992 4.1596 105.642 4.1496C106.662 4.1496 106.912 4.54961 107.682 4.54961C108.322 4.54961 108.752 4.07961 108.742 3.42961C108.742 2.50961 107.672 1.84961 105.752 1.84961C103.752 1.84961 101.972 2.93961 101.972 5.22961C101.972 7.13961 103.262 7.66961 104.512 8.06961C105.872 8.50961 106.792 8.6696 106.792 9.4696C106.792 9.9896 106.452 10.4596 105.522 10.4696" fill="#C6C6C6"/>
<path d="M95.8421 12.5893C97.4021 12.4293 99.2221 12.2493 100.912 12.0993C101.012 11.9293 101.062 11.7293 101.062 11.4993C101.062 10.8093 100.622 10.3893 99.8721 10.3893H97.3121V8.42934H99.5721C100.332 8.42934 100.772 7.98934 100.772 7.31934C100.772 6.62934 100.322 6.20934 99.5721 6.20934H97.3121V4.29933H99.7721C100.532 4.29933 100.972 3.87934 100.972 3.17934C100.972 2.51934 100.532 2.06934 99.7721 2.06934H96.1021C95.4821 2.06934 94.9121 2.50934 94.9121 3.27934L94.9321 11.4293C94.9321 12.0793 95.3521 12.4893 95.8621 12.5893" fill="#C6C6C6"/>
<path d="M53.2319 18.3204C52.9719 18.3204 52.752 18.1004 52.752 17.8404C52.752 17.5804 52.9719 17.3604 53.2319 17.3604C53.4919 17.3604 53.7119 17.5704 53.7119 17.8304C53.7119 18.1004 53.4919 18.3204 53.2319 18.3204ZM53.2319 17.4304C53.0019 17.4304 52.8319 17.6104 52.8319 17.8404C52.8319 18.0704 53.0119 18.2504 53.2319 18.2504C53.4619 18.2504 53.6419 18.0604 53.6419 17.8404C53.6419 17.6104 53.4519 17.4304 53.2319 17.4304ZM53.352 18.1004L53.2319 17.8804H53.1519V18.1004H53.0819V17.5704H53.2619C53.3519 17.5704 53.4319 17.6304 53.4319 17.7204C53.4319 17.8004 53.392 17.8504 53.322 17.8704L53.4519 18.1004H53.3719H53.352ZM53.252 17.6404H53.1519V17.8204H53.252C53.312 17.8204 53.352 17.7804 53.352 17.7304C53.352 17.6804 53.312 17.6404 53.252 17.6404Z" fill="#DD0A0A"/>
<path d="M22.892 16.6299C20.662 15.2899 17.652 15.0799 12.812 16.3999C7.65199 17.6199 5.94199 18.3799 3.65199 16.9099C2.77199 16.1799 2.45198 14.9999 2.67198 13.2899C3.18198 10.5099 4.62199 7.8199 7.18199 4.8299C8.62199 3.2699 9.952 1.9399 11.722 1.3799C13.072 1.0399 12.952 2.0599 12.792 2.1999C12.622 2.1999 12.322 2.2299 12.102 2.3799C11.922 2.5199 11.422 2.9599 11.402 3.5499C11.372 4.4499 12.352 4.2599 12.772 3.7599C13.222 3.1999 13.872 2.1199 13.342 1.1299C13.112 0.779901 12.732 0.539903 12.252 0.459903C10.632 0.379903 9.12198 1.1399 7.74198 1.9599C4.71198 4.0199 2.302 6.8599 0.941997 9.9499C0.161997 11.8099 -0.527999 14.4899 0.572001 16.6299C1.422 18.1299 3.16197 18.9099 5.23197 18.7199C6.68197 18.5599 8.44198 18.0999 9.61198 17.8099C10.782 17.5299 16.802 15.4899 18.822 18.9299C18.822 18.9299 19.472 17.6899 21.112 17.6499C22.472 17.5199 24.432 17.9999 25.862 18.9799C25.382 18.2999 24.032 17.3099 22.892 16.6199" fill="#DD0A0A"/>
<path d="M13.3218 5.13001C12.1818 4.43001 9.92176 5.81001 8.13176 8.15001C6.49176 10.25 5.79175 12.69 6.59175 13.8C7.76175 15.11 9.91176 13.17 10.8118 12.13L10.9318 12.01C11.5518 11.36 12.0217 10.59 12.4817 9.84001C12.4817 9.84001 12.9018 9.16001 12.9318 9.13001C13.1918 9.08001 13.5118 9.00001 13.8718 8.90001C13.8718 8.91001 12.6817 10.83 12.6717 12.23C12.6717 12.53 12.7017 13.79 13.9517 14.15C15.6117 14.4 16.9217 13.16 18.0817 12.05C18.0817 12.05 18.2817 11.86 18.3917 11.75C18.3617 11.86 18.3317 12 18.3317 12C17.8617 13.62 18.5118 13.96 18.9318 14.08C20.1718 14.41 21.6317 12.68 21.6417 12.68C21.6117 13.22 21.5018 13.67 22.1018 14.02C22.6618 14.21 23.2318 13.91 23.6618 13.64C25.2118 12.57 26.4517 10.9 27.4617 9.49001H26.8118C26.8118 9.49001 25.2417 11.71 24.2117 12.2C24.2117 12.2 24.0218 12.28 23.9118 12.22C23.7818 12.11 23.8318 11.86 23.9118 11.7L27.8418 5.02001L25.9517 5.04001C25.9517 5.04001 25.7517 5.37001 25.7317 5.40001C25.7217 5.39001 25.6817 5.34002 25.6717 5.32002C24.4917 3.79002 21.8718 6.19002 19.9118 8.96002C19.1618 10.03 18.1918 11.23 17.1918 12.1C17.1918 12.1 15.7118 13.43 15.0618 12.49C14.8218 12.1 14.8917 11.52 15.0217 11.14C15.7417 9.10002 17.0117 7.25001 18.4617 6.13001C18.8717 5.81001 19.3218 5.72002 19.5418 5.85002C19.7618 5.97002 19.7918 6.27001 19.6618 6.47001C19.3218 6.45001 19.0517 6.56002 18.8317 6.78002C18.4017 7.22002 18.2517 7.64001 18.3917 8.04001C19.0717 8.95001 20.4018 7.12001 20.3218 6.02001C20.2918 5.62001 20.0717 5.25002 19.7417 5.07002C19.2417 4.79002 18.4917 4.87002 18.0117 5.10002C17.3617 5.35002 16.3418 6.17002 15.7518 6.82002C15.0018 7.63002 13.7118 8.52002 13.3118 8.43002C13.4418 8.08002 14.5117 5.94002 13.3617 5.14002M22.4217 8.21002C22.7817 7.72002 23.8318 6.41001 24.0918 6.19001C24.9618 5.45001 25.3118 5.77001 25.3418 5.99001C24.5418 7.40001 23.6017 9.01001 22.7017 10.45L22.4217 10.86C22.0317 11.45 21.6317 11.95 20.9817 12.31C20.8917 12.33 20.7318 12.35 20.6318 12.28C20.5118 12.21 20.4618 12.08 20.4718 11.94C20.5118 11.49 20.9717 10.11 22.4217 8.20001M12.1918 9.15001C12.1918 9.15001 12.1718 9.19002 12.1618 9.21002L11.3518 10.5C10.8718 11.13 10.2517 11.93 9.48174 12.33C9.26174 12.4 8.94175 12.45 8.77175 12.26C8.42175 11.88 8.59174 11.33 8.73174 10.9L8.79177 10.74C9.19177 9.67001 9.83174 8.73002 10.4517 7.85002H10.4817C10.8917 8.58002 11.6418 8.91001 12.1918 9.06001C12.1918 9.06001 12.1918 9.06001 12.1918 9.08001C12.1918 9.09001 12.1918 9.12001 12.1618 9.16001M12.9517 7.64002L12.5918 8.45001C12.5418 8.49001 12.4617 8.47001 12.3617 8.45001L12.2017 8.43002C11.6917 8.29002 11.3018 7.96001 11.1818 7.58001C11.0118 6.83001 11.6717 6.23001 11.9617 6.02001C12.2517 5.83001 12.6917 5.73001 12.9517 5.92001C13.1117 6.09001 13.1717 6.32002 13.1717 6.57002C13.1717 6.91002 13.0717 7.29001 12.9517 7.65001" fill="#DD0A0A"/>
<path d="M30.9019 4.98047L29.1418 5.00047L28.1519 6.64047L29.9119 6.63047L30.9019 4.98047Z" fill="#DD0A0A"/>
<path d="M52.3019 16.5098C52.1119 16.6298 51.8419 16.5299 51.9419 16.2499C52.1819 15.5199 53.1719 14.0098 53.1719 14.0098L55.9119 9.23985L53.9919 9.25985C53.9119 9.41985 53.7219 9.73985 53.7219 9.73985C53.6319 9.59985 53.3619 9.28985 53.2519 9.22985C52.7819 8.94985 52.1019 9.08985 51.6319 9.35985C49.6019 10.5198 48.1219 12.8098 46.9619 14.5898C46.9619 14.5898 45.7319 16.5698 45.0419 16.7198C44.5119 16.7598 44.5619 16.0698 44.5719 15.9098C44.7719 14.7498 45.2419 13.6298 45.7219 12.6198C46.7119 11.9598 47.8319 11.0799 48.8519 10.1299C50.9419 8.17985 52.7219 5.98985 53.1319 5.31985C53.0419 5.33985 52.7819 5.37985 52.4619 5.38985C50.7519 7.69985 47.3519 10.9799 46.3119 11.4599C46.7719 10.3799 49.7719 5.16985 52.3419 2.66985L52.7419 2.27985C53.3619 1.68985 54.0219 1.07985 54.5219 0.979849C54.5719 0.979849 54.6419 0.979852 54.7019 1.09985C54.7319 1.55985 54.5519 1.88985 54.3519 2.28985L54.0719 2.84985C54.0719 2.84985 54.4719 2.76985 54.7419 2.67985C55.0519 2.11985 55.3819 1.48985 55.2519 0.739851C55.2019 0.509851 55.0219 0.329852 54.7819 0.279852C54.0119 0.149852 53.1719 0.709847 52.5019 1.14985L52.4719 1.16985C49.0119 3.80985 46.1119 7.60985 43.5819 12.7698C43.3919 12.9098 42.6819 13.0699 42.5519 12.9999C42.8019 12.4999 43.1119 11.8198 43.2719 11.0898C43.3019 10.8898 43.3219 10.6699 43.3219 10.4599C43.3219 10.0099 43.2019 9.58985 42.7819 9.29985C42.2819 9.06985 41.6719 9.18985 41.2619 9.36985C39.4319 10.1198 38.0719 11.9299 37.1019 13.4299C36.5819 14.3799 36.0619 15.3898 35.9219 16.5498C35.8219 17.4598 36.0419 18.0398 36.5819 18.3298C37.1319 18.5898 37.8319 18.2999 38.1119 18.1699C39.9719 17.2099 41.2419 15.3098 42.2619 13.5798C42.3019 13.5798 42.8619 13.5599 43.2819 13.4499C43.2819 13.4499 43.2819 13.4499 43.3019 13.4499C43.2819 13.5299 43.0619 14.1598 43.0619 14.1598C42.4319 15.9898 42.1419 17.2298 42.7619 17.9698C43.6519 18.9998 45.0919 17.9098 46.2619 16.4798C46.0219 18.1798 46.9519 18.4499 47.6519 18.3099C48.4619 18.0799 49.3419 17.2598 49.7619 16.8298C49.6319 17.3298 49.6719 18.2098 50.4119 18.2898C50.9119 18.3798 51.2819 18.1298 51.7219 17.8998C53.2719 17.0798 55.1219 14.3198 55.5919 13.5798H54.9519C54.2719 14.5598 53.4119 15.8898 52.3119 16.5198M38.2819 16.4499C38.1919 16.3099 38.1519 16.1499 38.1419 15.9899C38.1119 14.9599 39.2419 13.1398 40.0519 12.1198C40.4019 12.8698 41.1719 13.2798 41.6419 13.4698C41.0719 14.6998 39.1219 17.3699 38.2819 16.4599M41.9619 12.9199C41.9119 12.9499 40.9319 12.6498 40.7319 11.7998C40.5719 11.0598 41.0919 10.4699 41.6019 10.1799C41.8219 10.0099 42.1519 9.94985 42.4019 10.0299C42.6319 10.1799 42.6919 10.4398 42.6919 10.7198C42.6919 10.8898 42.6719 11.0698 42.6519 11.2298V11.2598C42.5019 11.8398 42.2519 12.4199 41.9519 12.9199M49.7819 16.0098L49.6019 16.1699C49.3419 16.3999 49.0719 16.6398 48.7419 16.5198C48.6519 16.4898 48.5919 16.3798 48.5719 16.2898C48.5519 15.6498 48.8519 15.0498 49.1419 14.4698L49.2119 14.3199C50.0419 12.9699 51.0019 11.3698 52.4319 10.2598C52.6719 10.0898 52.9319 9.94985 53.2119 10.0498C53.2819 10.0998 53.3519 10.2099 53.3619 10.3099C53.3619 10.3399 53.3319 10.4199 53.3119 10.4499C52.9219 11.0699 52.5419 11.7299 52.1819 12.3499C51.4619 13.5999 50.7219 14.8798 49.7919 16.0098" fill="#DD0A0A"/>
<path d="M49.842 2.35041L49.802 2.32041C48.932 1.82041 47.952 1.35041 47.042 0.890414C44.992 -0.159586 43.332 0.230413 42.482 0.530413C42.152 0.650413 41.852 0.750415 41.852 0.750415C41.212 0.100415 40.182 0.170408 39.432 0.360408C36.702 1.13041 34.182 2.99041 31.492 6.19041C29.512 8.70041 28.292 10.8604 27.652 12.9904C27.152 14.4204 27.022 16.5304 28.272 17.7604C29.342 18.8104 30.752 18.5604 31.732 18.1804C33.862 17.1404 35.772 14.9504 36.712 12.4304C36.932 11.6904 37.182 10.6304 36.772 9.84041C36.592 9.47041 36.152 9.23041 35.702 9.25041C34.212 9.40041 32.7619 10.5904 32.0119 12.2704C31.6219 13.1404 31.412 13.8504 31.272 14.9904C31.732 14.4804 32.672 13.6304 33.742 13.1604C33.742 13.1604 33.872 12.0704 34.612 11.0904C34.892 10.6904 35.452 10.0404 36.082 10.2004C36.642 10.3804 36.452 11.8504 35.732 13.2704C35.202 14.3204 34.372 15.3704 33.542 16.1004C32.802 16.7104 31.712 17.4504 30.742 16.9004C30.132 16.5604 29.822 15.8504 29.872 14.9204C30.132 12.2804 31.362 10.0304 33.132 7.46041C34.952 5.07041 36.972 2.62041 39.702 1.29041C40.262 1.02041 40.772 0.950408 41.232 1.11041C41.232 1.11041 38.662 2.49041 37.462 5.01041C37.152 5.65041 36.722 6.51041 37.172 7.28041C37.402 7.67041 37.812 7.70041 38.132 7.67041C39.632 7.32041 40.592 5.97041 41.382 4.73041C41.832 3.79041 42.232 2.86041 42.222 1.82041C42.222 1.70041 42.212 1.53041 42.202 1.40041C42.922 1.03041 44.402 1.66041 44.402 1.66041C45.452 1.98041 47.352 3.35041 48.362 3.87041C49.062 3.07041 49.672 2.53041 49.852 2.36041M41.632 1.92041C41.372 5.04041 38.862 6.90041 38.242 7.05041C37.862 7.13041 37.212 6.97041 37.782 5.66041C38.622 3.89041 40.062 2.38041 41.612 1.60041C41.652 1.73041 41.652 1.81041 41.642 1.92041" fill="#DD0A0A"/>
<path d="M56.6619 2.17C55.3819 2.88 54.2419 3.36 52.6619 3.28C52.4719 3.49 51.7919 4.29 51.4019 4.93C53.6919 5.28 55.8519 4.03 57.1919 2.84C58.6719 1.58 59.4319 0 59.4319 0C59.4319 0 58.3218 1.25 56.6718 2.16" fill="#DD0A0A"/>
</svg>
