<svg width="65" height="22" viewBox="0 0 65 22" fill="none" xmlns="http://www.w3.org/2000/svg">
<path d="M61.9001 0.100006V0.200012C59.3001 0.200012 56.7001 0.200012 54.1001 0.200012C54.1001 0.100012 54.1001 0.1 54.1001 0C56.7001 0.1 59.3001 0.100006 61.9001 0.100006Z" fill="#026ED1"/>
<path d="M13.2 0.0996094C12.6 0.399609 12.1 0.399609 11.5 0.0996094C12.1 0.0996094 12.7 0.0996094 13.2 0.0996094Z" fill="#026ED1"/>
<path d="M9.19971 21.5004C9.69971 21.2004 10.1997 21.2004 10.6997 21.5004C10.1997 21.5004 9.69971 21.5004 9.19971 21.5004Z" fill="#026ED1"/>
<path d="M11.2 21.5C11 21.5 10.9 21.5 10.7 21.5C10.2 21.2 9.69995 21.2 9.19995 21.5C8.89995 21.5 8.49995 21.5 8.19995 21.5C7.89995 21.2 7.49998 21.3 7.09998 21.2C2.89998 20.2 0 16.6 0 12.3C0 7.40002 2.49998 3.9 6.59998 1.5C7.89998 0.7 9.40002 0.5 10.9 0C11.1 0 11.3 0 11.6 0C12.2 0.3 12.7 0.3 13.3 0C13.5 0 13.6 0 13.8 0C13.8 0.2 14 0.100012 14.1 0.200012C19.3 1.10001 22.5 5.50001 22 10.6C21.5 15.5 17.7 19.7 12.9 21C12.3 21.2 11.7 21.2 11.2 21.5ZM16.1 10C16 7.5 14.5 5.69999 12.2 5.39999C9.29995 5.09999 6.19995 7.40002 5.69995 10.3C4.99995 14 7.9 16.8 11.5 16C14.2 15.5 16.2 12.8 16.1 10Z" fill="#026ED1"/>
<path d="M36.7002 0.100006C37.2002 0.400006 37.9003 0.400006 38.4003 0.600006C40.6003 1.30001 42.4002 2.70001 43.7002 4.60001C44.1002 5.20001 44.0003 5.50002 43.4003 5.80002C42.3003 6.30002 41.2002 6.89999 40.2002 7.39999C39.5002 7.79999 39.0003 7.70001 38.4003 7.10001C36.5003 5.20001 33.8003 5.00001 31.5003 6.60001C29.2003 8.20001 28.2002 11 29.2002 13.3C30.6002 16.5 34.9003 17.1 37.4003 14.5C38.6003 13.2 38.6002 13.2 40.1002 14C40.9002 14.4 41.7003 14.9 42.5003 15.2C43.1003 15.5 43.0002 15.7 42.7002 16.2C40.7002 18.9 38.0002 20.7 34.6002 21.3C34.4002 21.3 34.3002 21.3 34.2002 21.5C33.2002 21.5 32.3003 21.5 31.3003 21.5C31.0003 21.2 30.6003 21.3 30.3003 21.2C26.5003 20.3 23.7002 17.2 23.2002 13.4C22.6002 8.69999 25.1003 4.10001 29.3003 1.70001C30.8003 0.900012 32.4003 0.5 34.0003 0C34.9003 0.1 35.8002 0.100006 36.7002 0.100006Z" fill="#026ED1"/>
<path d="M54.2 0.200195C56.8 0.200195 59.4 0.200195 62 0.200195C62.5 0.300195 62.4001 0.700183 62.4001 1.00018C63.0001 5.40018 63.6 9.70019 64.1 14.1002C64.4 16.1002 64.6001 18.0002 64.9001 20.0002C65.0001 20.6002 64.9 20.9002 64.2 20.9002C62.8 20.8002 61.5 20.9002 60.1 20.9002C59.5 20.9002 59.2 20.8002 59.2 20.1002C59.2 18.6002 58.5001 17.5002 57.4001 16.6002C56.5001 15.9002 55.8001 15.2002 54.9001 14.4002C54.6001 14.1002 54.3 13.8002 54.5 13.3002C54.7 12.8002 55.1 12.7002 55.6 12.7002C56.3 12.7002 57 12.7002 57.7 12.7002C58.2 12.7002 58.4001 12.5002 58.3001 12.0002C58.0001 9.90018 57.8 7.70019 57.5 5.60019C57.5 5.40019 57.5001 5.10018 57.3001 5.00018C57.0001 4.90018 57.0001 5.30018 56.9001 5.50018C54.4001 10.2002 51.9001 14.9002 49.4001 19.6002C48.9001 20.5002 48.4001 20.9002 47.4001 20.8002C46.2001 20.7002 44.9 20.7002 43.7 20.8002C43 20.8002 42.9 20.7002 43.2 20.0002C46.2 14.4002 49.2001 8.80019 52.3001 3.10019C52.8001 2.20019 53.2 1.40018 53.7 0.500183C53.7 0.500183 53.8 0.200195 54.2 0.200195Z" fill="#026ED1"/>
</svg>
