<svg width="56" height="17" viewBox="0 0 56 17" fill="none" xmlns="http://www.w3.org/2000/svg">
<path d="M10.1 8.90021C10.5 9.20021 11 9.50021 11.4 9.90021C12.2 10.8002 12.4 11.9002 12.3 13.1002C12 15.5002 10.4 16.5002 8.29999 16.7002C6.69999 16.8002 5.19998 16.8002 3.59998 16.8002C2.59998 16.8002 1.5 16.8002 0.5 16.8002C0 16.8002 0 16.7002 0 16.3002C0 11.8002 0 7.2002 0 2.7002C0 2.3002 0.1 2.2002 0.5 2.2002C2.9 2.2002 5.19998 2.2002 7.59998 2.2002C9.19998 2.2002 10.5 2.8002 11.3 4.2002C11.9 5.5002 11.8 7.80021 10.1 8.90021ZM5.19995 14.7002C6.19995 14.7002 7.19995 14.7002 8.19995 14.6002C8.99995 14.5002 9.59999 14.1002 9.79999 13.2002C10.2 11.2002 9.39995 10.4002 7.69995 10.2002C7.59995 10.2002 7.6 10.2002 7.5 10.2002C5.9 10.2002 4.29995 10.2002 2.69995 10.2002C2.39995 10.2002 2.19995 10.3002 2.19995 10.7002C2.19995 11.9002 2.19995 13.0002 2.19995 14.2002C2.19995 14.6002 2.29995 14.7002 2.69995 14.7002C3.59995 14.7002 4.39995 14.7002 5.19995 14.7002ZM4.89996 8.10019C5.79996 8.00019 6.69998 8.10018 7.59998 8.00018C8.59998 7.90018 9.19995 7.2002 9.19995 6.2002C9.19995 5.2002 8.69995 4.5002 7.69995 4.3002C7.49995 4.3002 7.29998 4.2002 7.09998 4.2002C5.59998 4.2002 4.19995 4.2002 2.69995 4.2002C2.39995 4.2002 2.29999 4.30019 2.29999 4.60019C2.29999 5.60019 2.29999 6.60019 2.29999 7.60019C2.29999 7.90019 2.39995 8.00018 2.69995 8.00018C3.39995 8.10018 4.19996 8.10019 4.89996 8.10019Z" fill="#004481"/>
<path d="M24.9001 9.00018C25.8001 9.40018 26.5001 10.1002 26.8001 11.0002C27.7001 13.5002 26.4001 15.9002 23.8001 16.5002C23.3001 16.6002 22.8001 16.7002 22.2001 16.7002C19.8001 16.7002 17.4001 16.7002 15.0001 16.7002C14.6001 16.7002 14.6001 16.5002 14.6001 16.2002C14.6001 13.8002 14.6001 11.5002 14.6001 9.10019C14.6001 7.00019 14.6001 4.8002 14.6001 2.7002C14.6001 2.2002 14.6001 2.2002 15.1001 2.2002C17.4001 2.2002 19.8001 2.2002 22.1001 2.2002C23.1001 2.2002 24.0001 2.40018 24.8001 3.00018C26.3001 4.10018 26.8001 6.2002 25.9001 7.8002C25.6001 8.2002 25.2001 8.50018 24.9001 9.00018ZM19.9001 14.7002C20.9001 14.7002 21.9001 14.7002 22.9001 14.6002C23.6001 14.5002 24.1001 14.2002 24.4001 13.5002C25.1001 11.9002 24.3001 10.6002 22.6001 10.3002C22.5001 10.3002 22.3001 10.3002 22.2001 10.3002C20.6001 10.3002 19.0001 10.3002 17.4001 10.3002C17.0001 10.3002 16.9001 10.5002 16.9001 10.8002C16.9001 12.0002 16.9001 13.1002 16.9001 14.3002C16.9001 14.7002 17.0001 14.8002 17.4001 14.8002C18.3001 14.7002 19.1001 14.7002 19.9001 14.7002ZM19.7001 8.10019C20.6001 8.00019 21.5001 8.10018 22.4001 8.00018C23.4001 7.90018 23.9001 7.2002 24.0001 6.3002C24.0001 5.2002 23.6001 4.6002 22.6001 4.3002C22.4001 4.2002 22.1001 4.2002 21.8001 4.2002C20.4001 4.2002 18.9001 4.2002 17.5001 4.2002C17.2001 4.2002 17.0001 4.3002 17.0001 4.7002C17.0001 5.7002 17.0001 6.60019 17.0001 7.60019C17.0001 8.00019 17.1001 8.10019 17.5001 8.10019C18.2001 8.10019 19.0001 8.10019 19.7001 8.10019Z" fill="#004481"/>
<path d="M28.6002 2.20035H28.7002C29.6002 2.00035 30.1002 2.50036 30.5002 3.30036C31.8002 6.00036 33.3002 8.60036 34.7002 11.3004C34.8002 11.4004 34.9002 11.6003 35.1002 11.6003C35.2002 11.6003 35.4002 11.4004 35.4002 11.3004C36.9002 8.40036 38.4002 5.50034 40.0002 2.60034C40.2002 2.30034 40.3002 2.20035 40.7002 2.20035C41.3002 2.20035 41.9002 2.20035 42.5002 2.20035C42.9002 2.20035 43.0002 2.30035 42.8002 2.70035C41.7002 4.70035 40.6002 6.70036 39.6002 8.80036C38.2002 11.3004 36.9002 13.9004 35.5002 16.4004C35.4002 16.6004 35.3002 16.7004 35.1002 16.8004C35.0002 16.7004 34.8002 16.6004 34.7002 16.4004C32.3002 11.9004 29.8002 7.30036 27.4002 2.80036C27.1002 2.30036 27.2002 2.30036 27.7002 2.30036C28.0002 2.20036 28.3002 2.20035 28.6002 2.20035Z" fill="#004481"/>
<path d="M54.3002 14.6C53.3002 14.9 52.8001 14.3 52.4001 13.5C51.1001 10.8 49.6002 8.20001 48.3002 5.60001C48.2002 5.40001 48.1001 5.20001 47.9001 5.20001C47.8001 5.20001 47.6002 5.40001 47.5002 5.60001C46.0002 8.50001 44.5002 11.3 43.0002 14.2C42.8002 14.5 42.6002 14.7 42.3002 14.6C41.7002 14.6 41.1002 14.6 40.5002 14.6C40.0002 14.6 40.0001 14.5 40.2001 14.1C41.6001 11.5 43.0001 8.80001 44.4001 6.20001C45.4001 4.30001 46.5002 2.30002 47.5002 0.400024C47.6002 0.300024 47.7002 0.1 47.8002 0C47.9002 0.1 48.1001 0.200024 48.2001 0.400024C50.6001 5.00002 53.1002 9.50001 55.5002 14.1C55.7002 14.5 55.7001 14.6 55.2001 14.6C54.9001 14.6 54.6002 14.6 54.3002 14.6Z" fill="#004481"/>
</svg>
