<svg width="63" height="32" viewBox="0 0 63 32" fill="none" xmlns="http://www.w3.org/2000/svg">
<path d="M52.8652 15.8684C50.6652 17.4684 48.1651 16.4684 48.2651 12.1684C47.9651 12.2684 47.8652 12.4684 47.6652 12.7684C47.0652 14.2684 46.2652 15.7684 45.3652 17.0684C44.9652 17.6684 44.3652 18.1684 43.5652 17.8684C42.7652 17.5684 42.8651 16.8684 42.9651 16.1684C43.4651 13.0684 43.9652 9.96838 44.3652 6.86838C44.3652 6.56838 44.5652 6.16839 44.1652 5.96839C43.7652 5.86839 43.6651 6.26839 43.4651 6.56839C42.7651 7.66839 42.6651 8.86839 42.4651 10.0684C42.0651 12.6684 41.6652 15.1684 41.3652 17.7684C41.2652 18.2684 41.0652 18.4684 40.6652 18.4684C39.9652 18.5684 39.1652 18.7684 38.3652 18.8684C38.6652 16.9684 38.9652 15.1684 39.1652 13.3684C39.4652 11.4684 39.6651 9.46839 39.9651 7.56839C39.9651 7.26839 40.1651 6.96837 39.7651 6.76837C39.4651 6.66837 39.2652 6.96837 39.0652 7.16837C38.5652 7.86837 38.3652 8.66839 38.1652 9.46839C37.7652 12.3684 37.3651 15.1684 36.9651 18.0684C36.8651 18.9684 35.0651 19.9684 34.2651 19.5684C33.7651 19.2684 33.9652 18.7684 34.0652 18.3684C34.1652 17.2684 34.5651 16.1684 34.4651 14.7684C33.5651 16.1684 33.1651 17.6684 32.2651 18.8684C31.7651 19.4684 31.5652 20.2684 30.6652 20.5684C29.7652 20.9684 29.2651 20.7684 29.2651 19.7684C29.2651 18.2684 29.5651 16.8684 29.7651 15.4684C30.1651 14.9684 29.5652 14.8684 29.3652 14.5684H29.4651C29.4651 14.4684 29.4651 14.4684 29.4651 14.3684C30.6651 10.4684 30.9652 6.36838 31.6652 2.36838C31.7652 1.56838 33.4651 0.768392 34.2651 1.06839C34.5651 1.16839 34.5651 1.36839 34.4651 1.56839C34.0651 4.26839 33.7651 6.96837 33.2651 9.66837C32.9651 11.4684 32.9651 13.3684 32.4651 15.1684C32.3651 15.3684 32.2652 15.7684 32.6652 15.8684C33.0652 15.9684 33.1651 15.6684 33.2651 15.3684C34.1651 13.4684 35.0651 11.4684 35.2651 9.36838C35.3651 8.56838 35.5652 7.76839 35.5652 6.96839C35.5652 5.46839 36.2652 4.76838 37.6652 4.86838C37.9652 4.86838 38.2652 4.76837 38.5652 4.66837C38.6652 5.36837 38.2651 5.96837 38.4651 6.66837C39.0651 5.96837 39.5652 5.36837 40.0652 4.66837C40.6652 3.96837 41.3652 3.66839 42.1652 4.06839C42.8652 4.36839 42.5652 5.06837 42.6652 5.66837C42.6652 5.76837 42.6652 5.86837 42.6652 6.16837C43.1652 5.46837 43.6652 4.86837 44.0652 4.16837C44.3652 3.66837 44.8651 3.36839 45.2651 3.06839C46.1651 2.56839 46.9652 3.06839 47.1652 4.06839C47.2652 4.96839 47.0652 5.86837 46.8652 6.76837C46.5652 8.56837 46.4651 10.4684 45.9651 12.2684C45.8651 12.5684 45.7651 12.9684 46.2651 13.0684C46.5651 13.1684 46.7652 12.7684 46.8652 12.5684C47.8652 10.8684 47.8651 8.96837 48.4651 7.16837C49.0651 5.16837 49.7652 3.26839 51.5652 1.96839C52.9652 0.968385 54.6652 0.968392 55.5652 2.06839C56.0652 2.76839 56.1652 3.66839 56.1652 4.46839C56.2652 7.16839 54.9652 9.96837 51.6652 10.6684C50.8652 10.8684 50.5651 11.1684 50.7651 11.9684C50.8651 12.4684 50.7651 13.0684 50.7651 13.6684C50.7651 14.3684 50.9652 14.9684 51.6652 15.3684C52.2652 15.5684 52.5652 15.6684 52.8652 15.8684ZM51.3652 10.4684C52.4652 10.3684 53.0652 9.96838 53.0652 8.86838C53.0652 8.26838 53.2652 7.66837 53.3652 7.16837C53.5652 5.76837 53.7652 4.26838 53.8652 2.86838C53.8652 2.46838 53.7652 2.16837 53.3652 2.16837C52.9652 2.16837 52.6652 2.16839 52.5652 2.56839C52.3652 3.16839 52.2652 3.66837 52.1652 4.26837C51.9652 6.26837 51.6652 8.26839 51.3652 10.4684Z" fill="#020627"/>
<path d="M4.96513 30.168C3.96513 30.368 3.06516 30.668 2.36516 31.468C2.06516 29.768 2.96512 28.168 4.76512 27.168C0.365121 24.968 -0.23483 21.068 0.0651699 16.768C0.36517 13.168 1.36512 9.86801 3.76512 7.06801C4.46512 6.26801 5.16513 5.56801 6.46513 5.06801C5.26513 7.26801 4.16515 9.06799 3.66515 11.168C3.06515 14.268 2.66513 17.368 3.96513 20.368C4.76513 22.168 5.96512 22.568 7.76512 21.768C9.16512 21.168 10.0651 20.068 10.7651 18.868C12.3651 15.668 12.8652 12.368 12.3652 8.868C12.3652 8.768 12.3651 8.76799 12.2651 8.66799C11.9651 7.76799 11.7652 6.66801 10.5652 6.56801C9.66517 6.46801 8.76512 7.36801 8.26512 8.56801C9.66512 8.56801 10.5651 9.06801 10.7651 10.568C11.0651 12.868 10.8651 15.068 9.66515 17.168C9.46515 17.568 9.06512 17.968 8.76512 18.268C7.46512 19.368 6.06513 19.068 5.46513 17.468C4.86513 15.968 4.96515 14.368 5.16515 12.768C5.46515 10.468 6.16515 8.268 7.66515 6.368C9.46515 4.068 12.5651 3.868 14.1651 6.868C14.7651 7.968 15.0651 9.26801 15.2651 10.468C14.9651 11.768 14.9651 13.068 15.2651 14.268C14.9651 16.568 14.5651 18.768 13.6651 20.868C12.4651 23.668 11.4652 24.768 8.06517 26.768C9.26517 27.068 10.3652 26.768 11.3652 26.068C11.4652 28.068 10.2652 29.468 8.36516 29.968C7.26516 29.768 6.06513 29.568 4.96513 30.168ZM9.26512 10.768C9.06512 10.368 9.16513 9.668 8.46513 9.768C7.76513 9.868 7.66515 10.568 7.66515 11.168C7.66515 11.568 7.56515 12.168 8.16515 12.168C9.06515 12.268 9.06512 11.468 9.26512 10.768Z" fill="#040829"/>
<path d="M28.2653 18.1684C28.2653 18.2684 28.2653 18.2684 28.2653 18.2684C28.2653 18.2684 28.1653 18.2684 28.1653 18.3684C28.1653 18.4684 28.1653 18.4684 28.2653 18.5684C27.7653 19.4684 27.2653 20.2684 26.6653 21.1684C26.2653 21.7684 25.6653 22.1684 25.0653 21.8684C24.4653 21.6684 24.3653 20.9684 24.4653 20.2684C24.6653 18.9684 24.8653 17.5684 24.8653 16.1684C24.5653 16.8684 24.2653 17.5684 23.9653 18.2684C23.3653 19.6684 22.6653 21.0684 21.7653 22.2684C21.4653 22.7684 20.9653 23.2684 20.2653 22.9684C19.6653 22.7684 19.5653 22.1684 19.6653 21.5684C19.7653 20.6684 19.8653 19.8684 19.9653 18.6684C19.1653 20.0684 18.4653 21.2684 17.7653 22.4684C17.5653 22.7684 17.4653 22.9684 17.1653 23.2684C16.7653 23.6684 16.2653 24.2684 15.6653 23.9684C15.0653 23.6684 15.0653 22.8684 15.1653 22.1684C15.6653 18.6684 16.1653 15.1684 16.6653 11.5684C16.7653 11.1684 16.8653 10.6684 16.8653 10.2684C16.8653 9.56838 17.2653 9.46839 17.7653 9.36839C18.0653 9.36839 18.4653 9.36839 18.7653 9.36839C19.7653 9.16839 19.7653 9.66839 19.6653 10.4684C19.3653 12.2684 19.1653 14.1684 18.8653 15.9684C18.7653 16.7684 18.6653 17.6684 18.4653 18.4684C18.3653 18.7684 18.1653 19.1684 18.5653 19.3684C18.9653 19.5684 19.1653 19.1684 19.2653 18.8684C20.1653 17.1684 20.5653 15.3684 20.7653 13.4684C20.9653 12.1684 21.0653 10.8684 21.2653 9.5684C21.3653 8.6684 23.1653 7.86839 23.9653 8.36839C24.2653 8.56839 24.0653 8.66839 24.0653 8.86839C23.9653 10.9684 23.5653 12.8684 23.2653 14.9684C23.1653 16.0684 22.7653 17.2684 22.9653 18.5684C23.6653 18.2684 23.8653 17.5684 24.0653 17.0684C25.1653 14.3684 25.9653 11.4684 26.1653 8.46839C26.1653 7.76839 26.4653 7.56839 27.0653 7.46839C27.1653 7.46839 27.2653 7.46839 27.3653 7.46839C27.9653 7.46839 28.7653 6.76838 28.9653 7.16838C29.2653 7.66838 28.9653 8.46838 28.8653 9.16838C28.5653 11.6684 28.1653 14.1684 27.8653 16.6684C27.8653 16.8684 27.6653 17.2684 28.0653 17.3684C28.3653 17.4684 28.4653 17.0684 28.6653 16.9684C28.6653 17.0684 28.7653 17.1684 28.7653 17.2684C28.7653 17.3684 28.7653 17.4684 28.7653 17.5684C28.7653 17.6684 28.7653 17.6684 28.7653 17.7684C28.6653 17.8684 28.6653 17.9684 28.5653 18.0684C28.5653 18.1684 28.5653 18.1684 28.5653 18.1684C28.3653 17.9684 28.3653 18.0684 28.2653 18.1684Z" fill="#020627"/>
<path d="M60.7649 4.26811C60.6649 5.16811 61.2649 5.76813 61.4649 6.56813C61.8649 7.96813 62.4649 9.36812 62.0649 10.9681C61.6649 12.8681 60.5649 14.1681 58.6649 14.7681C58.3649 14.7681 58.0649 14.7681 57.8649 14.4681C60.2649 12.9681 60.5649 9.76812 58.5649 7.96812C58.4649 7.86812 58.3649 7.66813 58.3649 7.56813C58.1649 6.26813 57.5649 5.06811 57.5649 3.76811C57.5649 2.46811 57.7649 1.26812 58.8649 0.46812C59.8649 -0.23188 60.5649 -0.131898 61.5649 0.668102C61.4649 0.768102 61.3649 0.86812 61.1649 0.96812C60.8649 0.56812 60.4649 0.368108 60.0649 0.768108C59.3649 1.26811 59.6649 3.26811 60.5649 3.76811C60.6649 3.96811 60.7649 4.06811 60.7649 4.26811Z" fill="#050828"/>
<path d="M52.8654 15.8681C52.5654 15.7681 52.2653 15.5681 51.9653 15.4681C53.7653 15.1681 54.5653 14.2681 54.4653 12.3681C54.4653 11.2681 54.8653 10.3681 55.9653 10.0681C56.4653 10.5681 56.9653 9.96812 57.4653 10.0681C58.0653 10.8681 58.3654 11.6681 57.8654 12.6681C57.4654 13.5681 56.7653 13.9681 55.7653 13.9681C55.5653 13.9681 55.3654 13.8681 55.3654 14.1681C55.2654 14.1681 55.1654 14.1681 55.0654 14.1681C54.4654 14.2681 54.3654 14.9681 53.8654 15.2681C53.5654 15.4681 53.3654 15.9681 52.8654 15.8681Z" fill="#050828"/>
<path d="M29.8649 3.86814C29.8649 5.06814 28.9649 6.06815 28.0649 6.06815C27.1649 6.06815 26.5649 5.46814 26.5649 4.46814C26.5649 3.36814 27.4649 2.46815 28.6649 2.56815C29.4649 2.56815 29.7649 3.16814 29.8649 3.86814Z" fill="#050828"/>
<path d="M55.0649 14.0684C55.1649 14.0684 55.2649 14.0684 55.3649 14.0684C56.1649 14.6684 57.0649 14.8684 58.0649 14.4684C58.2649 14.7684 58.5649 14.7683 58.8649 14.7683C56.9649 15.5683 55.8649 15.3684 55.0649 14.0684Z" fill="#1C1D2D"/>
<path d="M60.765 4.26855C60.765 4.06855 60.665 3.96855 60.665 3.76855C60.865 2.86855 61.565 2.06857 61.265 1.06857C61.365 0.968573 61.465 0.868555 61.665 0.768555C62.265 1.46855 61.8651 2.16856 61.5651 2.86856C61.3651 3.36856 61.165 3.86855 60.765 4.26855Z" fill="#1C1D2D"/>
<path d="M57.4653 9.96777C56.9653 9.86777 56.4653 10.4678 55.9653 9.96777C56.9653 10.0678 57.3653 9.26778 57.7653 8.56778C57.9653 8.16778 58.2653 7.76777 58.4653 7.46777C58.5653 7.56777 58.6653 7.76777 58.6653 7.86777C58.2653 8.66777 57.8653 9.26777 57.4653 9.96777Z" fill="#1C1D2D"/>
<path d="M29.5651 14.668C29.6651 14.968 30.365 15.068 29.965 15.568C29.265 15.668 29.5651 16.568 29.0651 16.768C28.9651 16.768 28.765 16.768 28.665 16.668C28.865 16.068 29.2651 15.368 29.5651 14.668Z" fill="#1C1D2D"/>
<path d="M4.96533 30.1679C6.06533 29.5679 7.16536 29.868 8.36536 30.068C7.26536 30.068 6.06533 30.0679 4.96533 30.1679Z" fill="#020627"/>
<path d="M15.3651 14.2678C15.0651 12.9678 15.0651 11.6678 15.3651 10.4678C15.4651 11.7678 15.4651 12.9678 15.3651 14.2678Z" fill="#020627"/>
<path d="M29.5654 14.4678C29.5654 14.5678 29.5654 14.5678 29.5654 14.6678H29.4653C29.4653 14.5678 29.5654 14.5678 29.5654 14.4678Z" fill="#1C1D2D"/>
<path d="M28.5649 16.7686C28.6649 16.7686 28.8649 16.7686 28.9649 16.8686C28.9649 16.9686 28.9649 16.9686 28.8649 17.0686C28.7649 17.0686 28.7649 17.0686 28.6649 17.0686C28.6649 16.8686 28.6649 16.7686 28.5649 16.7686Z" fill="#020627"/>
<path d="M28.665 16.9678C28.765 16.9678 28.7651 16.9678 28.8651 16.9678C28.9651 17.1678 28.865 17.2678 28.665 17.2678C28.665 17.1678 28.665 17.0678 28.665 16.9678Z" fill="#1C1D2D"/>
<path d="M28.4653 17.7678C28.5653 17.6678 28.5653 17.5678 28.6653 17.4678C28.7653 17.5678 28.6653 17.6678 28.4653 17.7678Z" fill="#1C1D2D"/>
<path d="M28.2651 18.1682C28.3651 18.0682 28.3651 17.9682 28.4651 17.8682C28.5651 18.0682 28.3651 18.1682 28.2651 18.1682Z" fill="#1C1D2D"/>
<path d="M28.265 18.5686C28.265 18.4686 28.265 18.4686 28.165 18.3686C28.165 18.3686 28.265 18.3686 28.265 18.2686C28.265 18.3686 28.265 18.4686 28.265 18.5686Z" fill="#1C1D2D"/>
</svg>
