<svg width="94" height="20" viewBox="0 0 94 20" fill="none" xmlns="http://www.w3.org/2000/svg">
<path d="M8.59998 0.200012C11.3 0.200012 14 0.200012 16.7 0.200012C17.2 0.200012 17.3 0.400018 17.3 0.800018C17.3 4.10002 17.3 7.40001 17.3 10.7C17.3 14.3 15.1 17.6 11.9 18.8C8.50002 20.1 4.60001 19.3 2.20001 16.5C0.800012 14.9 0 13.1 0 10.9C0 7.39999 0 4 0 0.5C0 0.1 0.2 0 0.5 0C3.2 0.2 5.89998 0.200012 8.59998 0.200012ZM7.5 5.20001C7.5 5.90001 7.5 6.59999 7.5 7.39999C7.5 7.79999 7.4 7.89999 7 7.89999C5.6 7.89999 4.10001 7.89999 2.70001 7.89999C2.30001 7.89999 2.20001 7.99999 2.20001 8.39999C2.20001 8.89999 2.20001 9.39999 2.20001 9.89999C2.20001 10.3 2.30001 10.4 2.70001 10.4C4.10001 10.4 5.6 10.4 7 10.4C7.4 10.4 7.5 10.5 7.5 10.9C7.5 12.3 7.5 13.8 7.5 15.2C7.5 15.6 7.6 15.7 8 15.7C8.5 15.7 9 15.7 9.5 15.7C9.9 15.7 10 15.6 10 15.2C10 13.8 10 12.4 10 11C10 10.5 10.1 10.4 10.6 10.4C12 10.4 13.4 10.4 14.8 10.4C15.2 10.4 15.3 10.3 15.3 9.89999C15.3 9.39999 15.3 8.89999 15.3 8.39999C15.3 7.99999 15.2 7.89999 14.8 7.89999C13.4 7.89999 12 7.89999 10.6 7.89999C10.1 7.89999 10 7.80002 10 7.30002C10 5.90002 10 4.50001 10 3.10001C10 2.70001 9.9 2.60001 9.5 2.70001C9 2.70001 8.40002 2.70001 7.90002 2.70001C7.60002 2.70001 7.5 2.80001 7.5 3.10001C7.5 3.70001 7.5 4.40001 7.5 5.20001Z" fill="#63C452"/>
<path d="M46.5999 6.79989C47.6999 5.49989 49.7999 5.19987 51.0999 6.89987C51.8999 5.89987 52.9999 5.59989 54.1999 5.79989C55.2999 5.99989 55.8999 6.79987 55.8999 7.89987C55.8999 10.2999 55.8999 12.6999 55.8999 15.0999C55.8999 15.3999 55.7999 15.5999 55.4999 15.5999C54.8999 15.5999 54.2999 15.5999 53.7999 15.5999C53.3999 15.5999 53.2999 15.4999 53.2999 15.0999C53.2999 13.1999 53.2999 11.2999 53.2999 9.39987C53.2999 8.99987 53.2999 8.59988 53.1999 8.19988C53.0999 7.69988 52.7999 7.39987 52.2999 7.39987C51.7999 7.39987 51.4999 7.59988 51.3999 8.19988C51.2999 8.49988 51.2999 8.79988 51.2999 9.09988C51.2999 11.0999 51.2999 13.0999 51.2999 15.1999C51.2999 15.5999 51.1999 15.6999 50.8999 15.6999C50.2999 15.6999 49.6999 15.6999 49.0999 15.6999C48.7999 15.6999 48.6999 15.5999 48.6999 15.2999C48.6999 13.2999 48.6999 11.3999 48.6999 9.39987C48.6999 8.99987 48.6999 8.69989 48.5999 8.29989C48.4999 7.79989 48.1999 7.59988 47.6999 7.59988C47.1999 7.59988 46.8999 7.79989 46.6999 8.29989C46.5999 8.59989 46.5999 8.79988 46.5999 9.09988C46.5999 11.1999 46.5999 13.1999 46.5999 15.2999C46.5999 15.6999 46.4999 15.7999 46.0999 15.7999C45.4999 15.7999 44.8999 15.7999 44.2999 15.7999C43.9999 15.7999 43.8999 15.7999 43.8999 15.3999C43.8999 12.3999 43.8999 9.39987 43.8999 6.49987C43.8999 6.19987 43.9999 6.09988 44.2999 6.09988C44.8999 6.09988 45.4999 6.09988 46.0999 6.09988C46.5999 6.09988 46.6999 6.19988 46.6999 6.69988C46.4999 6.59988 46.5999 6.69989 46.5999 6.79989Z" fill="#FE5801"/>
<path d="M33.0999 14.3997C32.2999 15.5997 31.2999 15.8998 29.9999 15.6998C28.9999 15.4998 28.2999 14.7998 28.0999 13.6998C27.9999 12.9998 27.9999 12.2998 28.0999 11.6998C28.2999 10.4998 29.1999 9.69975 30.6999 9.49975C31.2999 9.39975 31.9999 9.39975 32.5999 9.39975C32.8999 9.39975 32.9999 9.29975 32.9999 8.99975C32.9999 8.79975 32.9999 8.59975 32.9999 8.39975C32.9999 7.69975 32.5999 7.29977 31.9999 7.29977C31.3999 7.29977 30.9999 7.59977 30.9999 8.29977C30.9999 8.69977 30.7999 8.79977 30.4999 8.79977C29.8999 8.79977 29.2999 8.79977 28.6999 8.79977C28.3999 8.79977 28.2999 8.69975 28.2999 8.39975C28.3999 7.19975 28.9999 6.29975 30.0999 5.99975C31.3999 5.59975 32.7 5.69976 33.9 6.09976C34.9 6.39976 35.3999 7.09977 35.5999 8.19977C35.7999 9.69977 35.5999 11.2998 35.6999 12.7998C35.6999 13.5998 35.5999 14.4998 35.7999 15.2998C35.8999 15.5998 35.6999 15.6998 35.4999 15.6998C34.8999 15.6998 34.3999 15.6998 33.7999 15.6998C33.3999 15.6998 33.2999 15.5998 33.2999 15.1998C33.1999 14.8998 33.1999 14.6997 33.0999 14.3997ZM32.9999 11.7998C32.9999 10.5998 33.0999 10.8998 31.9999 10.9998C31.0999 11.0998 30.7999 11.4997 30.6999 12.3997C30.6999 12.5997 30.6999 12.7998 30.6999 12.9998C30.7999 13.4998 30.9 13.8998 31.4 13.9998C32 14.0998 32.4999 13.7998 32.6999 13.1998C32.9999 12.8998 32.9999 12.3998 32.9999 11.7998Z" fill="#FE5902"/>
<path d="M62.6997 14.2998C62.0997 15.2998 61.2997 15.7998 60.1997 15.7998C58.7997 15.7998 57.8997 15.0998 57.5997 13.7998C57.3997 13.0998 57.3997 12.3998 57.5997 11.6998C57.7997 10.4998 58.6997 9.69981 60.1997 9.49981C60.7997 9.39981 61.4997 9.3998 62.0997 9.3998C62.3997 9.3998 62.4997 9.29981 62.4997 8.99981C62.4997 8.79981 62.4997 8.49983 62.4997 8.29983C62.4997 7.59983 62.1997 7.29982 61.4997 7.19982C60.8997 7.19982 60.4997 7.49982 60.4997 8.19982C60.4997 8.69982 60.2998 8.69982 59.8998 8.69982C59.2998 8.69982 58.6997 8.69982 58.0997 8.69982C57.8997 8.69982 57.7997 8.5998 57.7997 8.3998C57.7997 7.0998 58.4997 6.1998 59.6997 5.8998C60.8997 5.5998 62.0997 5.5998 63.2997 5.8998C64.5997 6.2998 65.0997 7.09982 65.1997 8.59982C65.1997 10.4998 65.1997 12.3998 65.1997 14.1998C65.1997 14.2998 65.1997 14.4998 65.1997 14.5998C65.2997 15.4998 65.2998 15.4998 64.3998 15.4998C64.0998 15.4998 63.6998 15.4998 63.3998 15.4998C62.8998 15.5998 62.6997 15.3998 62.7997 14.8998C62.6997 14.7998 62.6997 14.6998 62.6997 14.2998ZM62.4997 11.9998C62.4997 10.7998 62.6997 10.8998 61.4997 10.9998H61.3998C60.6998 11.0998 60.2997 11.3998 60.1997 12.1998C60.1997 12.4998 60.1997 12.6998 60.1997 12.9998C60.2997 13.6998 60.4997 13.9998 60.9997 14.0998C61.5997 14.1998 62.0997 13.8998 62.2997 13.1998C62.4997 12.7998 62.4997 12.2998 62.4997 11.9998Z" fill="#FE5902"/>
<path d="M89.8001 12.4004C90.2001 10.4004 90.7001 8.40041 91.1001 6.30042C91.2001 5.90042 91.3001 5.90039 91.6001 5.90039C92.3001 5.90039 93.0001 5.90039 93.7001 5.90039C93.7001 6.30039 93.5001 6.7004 93.4001 7.1004C92.3001 11.0004 91.2001 14.9004 90.1001 18.8004C90.0001 19.2004 89.8001 19.4004 89.4001 19.3004C88.7001 19.3004 88.1001 19.3004 87.4001 19.3004C87.1001 19.3004 87.1001 19.2004 87.2001 19.0004C87.5001 18.1004 87.7001 17.1004 88.0001 16.1004C88.1001 15.8004 88.1001 15.5004 88.0001 15.3004C87.2001 12.4004 86.4001 9.4004 85.6001 6.5004C85.5001 6.1004 85.5001 6.0004 86.0001 6.0004C86.6001 6.0004 87.2001 6.0004 87.8001 6.0004C88.1001 6.0004 88.3001 6.10039 88.3001 6.40039C88.7001 8.30039 89.1001 10.2004 89.5001 12.2004C89.6001 12.2004 89.7001 12.3004 89.8001 12.4004Z" fill="#FE5902"/>
<path d="M69.5002 10.7001C69.6002 11.5001 69.5003 12.3001 69.7003 13.1001C69.8003 13.8001 70.1003 14.1001 70.7003 14.1001C71.3003 14.1001 71.7003 13.8001 71.9003 13.2001C71.9003 13.1001 72.0002 13.0001 72.0002 12.8001C72.1002 12.0001 72.1003 12.0001 72.9003 12.0001C73.4003 12.0001 73.8002 12.0001 74.3002 12.0001C74.7002 12.0001 74.8002 12.1001 74.8002 12.5001C74.7002 14.5001 73.5003 15.7001 71.4003 15.8001C70.9003 15.8001 70.5002 15.8001 70.0002 15.8001C68.2002 15.5001 67.4002 14.8001 67.1002 13.0001C66.8002 11.6001 66.8002 10.2001 67.0002 8.80007C67.3002 6.90007 68.2002 6.10007 70.1002 5.80007C70.9002 5.70007 71.7002 5.70005 72.5002 5.90005C74.0002 6.30005 74.9002 7.50005 74.8002 9.00005C74.8002 9.30005 74.7002 9.40007 74.5002 9.30007C73.8002 9.30007 73.1003 9.30007 72.4003 9.30007C72.1003 9.30007 72.1002 9.20005 72.1002 9.00005C72.1002 8.80005 72.1002 8.60005 72.0002 8.40005C71.9002 7.80005 71.5003 7.50005 70.9003 7.50005C70.3003 7.50005 70.0002 7.80005 69.8002 8.40005C69.5002 9.10005 69.5002 9.90006 69.5002 10.7001Z" fill="#FE5902"/>
<path d="M23.1 11.5998C23.1 10.3998 23.1 9.19979 23.1 7.99979C23.1 7.69979 23 7.5998 22.7 7.5998C21.5 7.5998 21.5 7.59978 21.5 6.39978C21.5 5.99978 21.6 5.89978 22 5.89978C23.1 5.89978 23.1 5.89981 23.1 4.79981C23.1 4.39981 23.1 3.89979 23.2 3.49979C23.4 2.49979 23.9 1.99981 24.9 1.79981C25.7 1.59981 26.5 1.6998 27.3 1.6998C27.5 1.6998 27.6 1.79979 27.6 1.99979C27.6 2.09979 27.6 2.29978 27.6 2.39978C27.6 2.69978 27.7 3.09978 27.6 3.39978C27.5 3.69978 27 3.4998 26.8 3.5998C26.3 3.6998 26 3.99979 26 4.49979C26 4.89979 26 5.2998 26 5.6998C26 5.8998 26.1 5.99979 26.3 5.99979C26.4 5.99979 26.4 5.99979 26.5 5.99979C26.9 5.99979 27.4 5.7998 27.6 6.0998C27.8 6.4998 27.7 6.99979 27.7 7.49979C27.7 7.69979 27.6 7.6998 27.5 7.6998C27.4 7.6998 27.4 7.6998 27.3 7.6998C26.9 7.6998 26.4 7.49981 26.1 7.79981C25.8 8.09981 26 8.59979 26 8.99979C26 11.0998 26 13.0998 26 15.1998C26 15.5998 25.9 15.7998 25.5 15.6998C24.9 15.6998 24.3 15.6998 23.8 15.6998C23.5 15.6998 23.3 15.5998 23.3 15.2998C23.1 13.9998 23.1 12.7998 23.1 11.5998Z" fill="#FE5902"/>
<path d="M83.6999 3.3002C83.6999 4.0002 83.6999 4.80018 83.6999 5.50018C83.6999 5.80018 83.7999 5.90018 84.0999 5.90018C85.0999 5.90018 85.0999 5.90018 85.0999 6.90018C85.0999 7.40018 84.9999 7.60019 84.3999 7.60019C83.4999 7.60019 83.6999 7.5002 83.5999 8.3002C83.5999 9.8002 83.5999 11.3002 83.5999 12.8002C83.5999 13.7002 83.6999 13.8002 84.5999 13.9002C84.6999 13.9002 84.7999 13.9002 84.7999 13.9002C85.0999 14.3002 84.8999 14.8002 84.8999 15.3002C84.8999 15.5002 84.7999 15.6002 84.5999 15.6002C83.8999 15.7002 83.1999 15.7002 82.4999 15.5002C81.4999 15.2002 80.8999 14.5002 80.8999 13.4002C80.8999 11.6002 80.8999 9.80018 80.8999 8.00018C80.8999 7.60018 80.7999 7.40018 80.3999 7.50018C79.8999 7.60018 79.6999 7.40018 79.7999 6.90018C79.7999 6.80018 79.7999 6.70019 79.7999 6.60019C79.7999 5.90019 79.7999 5.90018 80.4999 5.90018C80.7999 5.90018 80.8999 5.80018 80.7999 5.50018C80.5999 4.60018 80.9999 4.1002 81.8999 3.8002C82.3999 3.7002 82.8999 3.4002 83.3999 3.2002C83.5999 3.3002 83.5999 3.3002 83.6999 3.3002Z" fill="#FE5801"/>
<path d="M40.1001 6.90018C40.6001 6.20018 41.3001 5.8002 42.2001 5.7002C42.5001 5.7002 42.7001 5.70019 42.7001 6.10019C42.7001 6.70019 42.7001 7.2002 42.7001 7.8002C42.7001 8.1002 42.6001 8.2002 42.3001 8.2002C42.1001 8.2002 41.9001 8.2002 41.7001 8.2002C40.7001 8.4002 40.3001 9.00019 40.3001 10.1002C40.3001 11.7002 40.3001 13.4002 40.3001 15.0002C40.3001 15.4002 40.2001 15.5002 39.8001 15.5002C39.2001 15.5002 38.6001 15.5002 38.0001 15.5002C37.7001 15.5002 37.6001 15.4002 37.6001 15.1002C37.6001 12.2002 37.6001 9.2002 37.6001 6.3002C37.6001 5.9002 37.7001 5.90018 38.1001 5.90018C38.7001 5.90018 39.2001 5.90018 39.8001 5.90018C40.2001 5.90018 40.3001 6.00018 40.3001 6.40018C40.0001 6.60018 40.1001 6.80018 40.1001 6.90018Z" fill="#FE5902"/>
<path d="M78.5999 10.8C78.5999 12.2 78.5999 13.7 78.5999 15.1C78.5999 15.5 78.4999 15.6 78.0999 15.6C77.4999 15.6 76.7999 15.6 76.1999 15.6C75.8999 15.6 75.8999 15.5 75.8999 15.3C75.8999 12.3 75.8999 9.30002 75.8999 6.30002C75.8999 6.00002 75.9999 6 76.1999 6C76.8999 6 77.4999 6 78.1999 6C78.4999 6 78.5999 6.09999 78.5999 6.39999C78.5999 7.79999 78.5999 9.30002 78.5999 10.8Z" fill="#FE5902"/>
<path d="M77.1998 3.89978C76.7998 3.89978 76.1998 4.09978 75.9998 3.89978C75.6998 3.69978 75.8998 3.0998 75.8998 2.6998C75.8998 1.7998 75.8998 1.7998 76.7998 1.7998C77.2998 1.7998 77.7998 1.7998 78.2998 1.7998C78.5998 1.7998 78.6997 1.89979 78.5997 2.09979C78.5997 2.19979 78.5997 2.39979 78.5997 2.49979C78.5997 2.89979 78.6998 3.4998 78.4998 3.7998C78.2998 4.1998 77.6998 3.89978 77.1998 3.89978Z" fill="#FE5902"/>
<path d="M7.49969 5.19962C7.49969 4.49962 7.49969 3.6996 7.49969 2.9996C7.49969 2.6996 7.59972 2.59961 7.89972 2.59961C8.39972 2.59961 8.99969 2.59961 9.49969 2.59961C9.89969 2.59961 9.99969 2.6996 9.99969 2.9996C9.99969 4.3996 9.99969 5.79962 9.99969 7.19962C9.99969 7.69962 10.0997 7.79962 10.5997 7.79962C11.9997 7.79962 13.3997 7.79962 14.7997 7.79962C15.1997 7.79962 15.3997 7.89962 15.2997 8.29962C15.2997 8.79962 15.2997 9.29962 15.2997 9.79962C15.2997 10.1996 15.1997 10.2996 14.7997 10.2996C13.3997 10.2996 11.9997 10.2996 10.5997 10.2996C10.1997 10.2996 9.99969 10.3996 9.99969 10.8996C9.99969 12.2996 9.99969 13.6996 9.99969 15.0996C9.99969 15.4996 9.89969 15.5996 9.49969 15.5996C8.99969 15.5996 8.49969 15.5996 7.99969 15.5996C7.59969 15.5996 7.49969 15.4996 7.49969 15.0996C7.49969 13.6996 7.49969 12.1996 7.49969 10.7996C7.49969 10.3996 7.39969 10.2996 6.99969 10.2996C5.59969 10.2996 4.09971 10.2996 2.69971 10.2996C2.29971 10.2996 2.19971 10.1996 2.19971 9.79962C2.19971 9.29962 2.19971 8.79962 2.19971 8.29962C2.19971 7.89962 2.29971 7.79962 2.69971 7.79962C4.09971 7.79962 5.59969 7.79962 6.99969 7.79962C7.39969 7.79962 7.59969 7.69962 7.49969 7.29962C7.49969 6.59962 7.49969 5.89962 7.49969 5.19962Z" fill="#FAFDFA"/>
</svg>
