<svg width="85" height="18" viewBox="0 0 85 18" fill="none" xmlns="http://www.w3.org/2000/svg">
<path d="M9 0C14 0 18 4 18 9C18 13.9 14 18 9 17.9C4 17.9 0 13.9 0 8.89999C0 4.09999 4 0 9 0ZM5.09998 6.59998C4.89998 6.59998 4.79998 6.59998 4.59998 6.69998C3.59998 6.89998 2.70001 7.89999 2.70001 8.89999C2.70001 9.19999 2.89998 9.29999 3.09998 9.39999C3.29998 9.39999 3.49998 9.3 3.59998 9C3.59998 8.9 3.59998 8.89999 3.59998 8.79999C3.69998 8.09999 4.3 7.59998 5 7.59998C5.7 7.59998 6.3 7.99998 6.5 8.59998C6.6 8.79998 6.59998 8.99999 6.59998 9.29999C6.69998 10.8 8.19998 11.7 9.59998 11.3C10.6 11 11.2 10.2 11.3 9C11.3 8.3 11.9 7.69998 12.6 7.59998C13.3 7.49998 14 7.89998 14.2 8.59998C14.2 8.69998 14.2 8.9 14.3 9C14.3 9.2 14.5 9.39999 14.8 9.29999C15 9.29999 15.2 9.09999 15.2 8.89999C15.2 8.79999 15.2 8.69998 15.2 8.69998C15 7.59998 14.1 6.69998 13 6.69998C11.7 6.59998 10.6 7.7 10.5 9C10.5 9.6 10.2 10.1 9.70001 10.3C8.70001 10.8 7.5 10.1 7.5 9C7.5 7.7 6.39998 6.69998 5.09998 6.59998Z" fill="#2645C6"/>
<path d="M69.9997 9.39973C71.1997 7.89973 73.5997 7.89972 74.7997 8.69972C76.5997 9.79972 76.5997 12.4997 74.7997 13.6997C73.9997 14.1997 73.0997 14.2997 72.0997 14.1997C70.3997 13.9997 69.1997 12.9997 68.7997 11.2997C68.4997 10.0997 68.4997 8.79971 68.7997 7.59971C69.2997 5.39971 70.9997 4.09972 73.3997 4.19972C74.0997 4.19972 74.7997 4.29972 75.4997 4.69972C75.6997 4.79972 75.6997 4.89973 75.5997 4.99973C75.4997 5.19973 75.3997 5.49972 75.1997 5.69972C75.0997 5.79972 75.0997 5.79972 74.9997 5.79972C73.9997 5.29972 72.9997 5.29972 71.9997 5.69972C70.7997 6.09972 70.2997 7.09972 70.0997 8.29972C69.9997 8.59972 69.8997 8.99973 69.9997 9.39973ZM72.6997 13.0997C72.8997 13.0997 73.2997 13.0997 73.5997 12.8997C74.2997 12.5997 74.6997 12.1997 74.7997 11.4997C74.8997 10.7997 74.6997 10.1997 74.1997 9.79972C73.2997 9.09972 71.7997 9.19973 70.9997 9.89973C70.0997 10.6997 70.1997 11.9997 71.1997 12.6997C71.4997 12.9997 71.9997 13.0997 72.6997 13.0997Z" fill="#2645C6"/>
<path d="M78.6001 9.39981C79.1001 8.79981 79.7001 8.3998 80.4001 8.2998C81.2001 8.0998 82.1001 8.19982 82.9001 8.49982C85.2001 9.39982 85.2001 12.2998 83.7001 13.4998C81.8001 14.9998 78.7001 14.2998 77.7001 12.0998C77.4001 11.4998 77.3001 10.7998 77.2001 10.1998C77.1001 9.3998 77.2001 8.5998 77.3001 7.7998C77.8001 5.5998 79.5001 4.2998 81.9001 4.2998C82.6001 4.2998 83.3001 4.3998 84.0001 4.7998C84.2001 4.8998 84.2001 4.99979 84.1001 5.09979C84.0001 5.29979 83.9001 5.5998 83.8001 5.7998C83.7001 5.8998 83.7001 5.99981 83.5001 5.89981C82.5001 5.39981 81.4001 5.3998 80.3001 5.7998C79.3001 6.1998 78.8001 7.09979 78.6001 8.09979C78.5001 8.49979 78.5001 8.8998 78.5001 9.1998C78.6001 9.1998 78.6001 9.29981 78.6001 9.39981ZM81.3001 13.0998C81.4001 13.0998 81.6001 13.0998 81.8001 12.9998C82.6001 12.7998 83.2001 12.2998 83.3001 11.5998C83.5001 10.7998 83.2001 9.99979 82.5001 9.59979C81.6001 9.09979 80.6001 9.0998 79.7001 9.6998C78.6001 10.3998 78.6001 11.9998 79.8001 12.6998C80.3001 12.9998 80.7001 13.0998 81.3001 13.0998Z" fill="#2645C6"/>
<path d="M48.6999 13.0004C48.6999 13.4004 48.6999 13.7004 48.6999 14.0004C48.6999 14.2004 48.6999 14.2004 48.4999 14.2004C48.1999 14.2004 47.8999 14.2004 47.5999 14.2004C47.3999 14.2004 47.3999 14.1004 47.3999 14.0004C47.3999 13.0004 47.3999 11.9004 47.3999 10.9004C47.3999 8.70039 47.3999 6.40038 47.3999 4.20038C47.3999 4.00038 47.4999 3.90039 47.6999 3.90039C47.9999 3.90039 48.2999 3.90039 48.4999 3.90039C48.6999 3.90039 48.6999 4.00037 48.6999 4.10037C48.6999 5.30037 48.6999 6.40037 48.6999 7.60037C48.6999 7.70037 48.6999 7.80039 48.6999 7.90039H48.7999C49.8999 6.70039 51.2999 6.60037 52.6999 7.10037C54.1999 7.60037 54.8999 8.70038 54.9999 10.3004C55.0999 11.0004 54.9999 11.7004 54.6999 12.3004C54.0999 13.7004 52.6999 14.5004 51.0999 14.4004C50.1999 14.1004 49.3999 13.8004 48.6999 13.0004ZM48.7999 10.4004C48.7999 12.2004 50.1999 13.4004 51.8999 12.9004C52.9999 12.6004 53.6999 11.6004 53.6999 10.4004C53.6999 9.40039 53.3999 8.60037 52.4999 8.10037C51.0999 7.30037 48.7999 8.00039 48.7999 10.4004Z" fill="#2645C6"/>
<path d="M32.2001 11.1003C32.2001 11.7003 32.2001 12.2003 32.2001 12.8003C32.2001 13.0003 32.2001 13.1003 32.0001 13.2003C30.0001 14.5003 27.9 14.7003 25.8 13.6003C24.8 13.1003 24.1001 12.4003 23.7001 11.4003C22.5001 8.60029 23.8 4.90029 27.6 4.40029C28.7 4.20029 29.9001 4.30028 30.9001 4.80028C31.4001 5.00028 31.8 5.30027 32.1 5.70027C32.2 5.80027 32.2 5.90029 32.1 6.00029C31.9 6.20029 31.7001 6.40027 31.5001 6.60027C31.4001 6.70027 31.3001 6.70027 31.2001 6.60027C29.9001 5.50027 28.4001 5.30029 26.9001 5.90029C25.4001 6.50029 24.5001 8.00027 24.7001 9.70027C24.9001 11.4003 26.0001 12.7003 27.7001 13.0003C28.7001 13.2003 29.7001 13.1003 30.7001 12.6003C30.9001 12.5003 30.9001 12.4003 30.9001 12.2003C30.9001 11.3003 30.9001 10.4003 30.9001 9.50029C30.9001 9.30029 30.9 9.30028 31.1 9.30028C31.4 9.30028 31.7001 9.30028 32.0001 9.30028C32.2001 9.30028 32.2001 9.40029 32.2001 9.50029C32.2001 10.0003 32.2001 10.5003 32.2001 11.1003Z" fill="#2645C6"/>
<path d="M61.4997 13.1998C60.4997 14.1998 58.7997 14.4999 57.4997 13.8999C56.5997 13.4999 56.1997 12.6999 56.2997 11.7999C56.3997 10.9999 56.8997 10.2999 57.7997 9.99987C58.2997 9.89987 58.6997 9.79986 59.1997 9.79986C59.7997 9.79986 60.4997 9.79986 61.0997 9.79986C61.2997 9.79986 61.3997 9.69987 61.3997 9.49987C61.3997 8.49987 60.8997 7.89986 59.8997 7.79986C58.8997 7.69986 58.0997 7.89986 57.2997 8.39986C57.0997 8.49986 57.0997 8.49986 56.9997 8.29986C56.8997 8.09986 56.7997 7.89985 56.6997 7.69985C56.5997 7.59985 56.5997 7.49986 56.7997 7.39986C57.4997 6.89986 58.1997 6.69984 59.0997 6.59984C59.7997 6.49984 60.4997 6.49986 61.1997 6.79986C62.2997 7.19986 62.7997 7.99984 62.8997 9.09984C62.9997 10.0998 62.8997 11.0998 62.8997 12.0998C62.8997 12.6998 62.8997 13.1999 62.8997 13.7999C62.8997 13.9999 62.8997 13.9999 62.6997 13.9999C62.3997 13.9999 62.0997 13.9999 61.8997 13.9999C61.6997 13.9999 61.6997 13.9999 61.6997 13.7999C61.4997 13.6999 61.4997 13.4998 61.4997 13.1998ZM60.0997 10.7999C59.5997 10.7999 58.9997 10.6999 58.4997 10.8999C57.9997 10.9999 57.6997 11.3999 57.6997 11.7999C57.6997 12.2999 57.8997 12.6999 58.2997 12.8999C59.0997 13.2999 60.2997 13.0999 60.9997 12.4999C61.4997 11.9999 61.4997 11.4999 61.3997 10.8999C61.3997 10.7999 61.2997 10.7999 61.1997 10.7999C60.8997 10.7999 60.4997 10.7999 60.0997 10.7999Z" fill="#2645C6"/>
<path d="M41.7003 14.2004C39.7003 14.2004 38.1003 12.8004 37.9003 10.9004C37.6003 8.3004 39.4002 6.40038 42.1002 6.60038C43.7002 6.70038 44.8003 7.5004 45.4003 9.0004C45.9003 10.5004 45.7002 11.9004 44.5002 13.1004C43.8002 13.8004 42.8003 14.2004 41.7003 14.2004ZM39.2003 10.2004C39.2003 12.2004 40.7003 13.3004 42.4003 12.9004C43.5003 12.6004 44.2003 11.7004 44.2003 10.5004C44.2003 9.5004 43.9002 8.70038 43.1002 8.20038C42.3002 7.70038 41.4002 7.70038 40.5002 8.10038C39.6002 8.60038 39.2003 9.40038 39.2003 10.2004Z" fill="#2645C6"/>
<path d="M36.0001 8.90021C36.0001 10.5002 36.0001 12.2002 36.0001 13.8002C36.0001 14.0002 35.9001 14.1002 35.7001 14.1002C35.4001 14.1002 35.1001 14.1002 34.8001 14.1002C34.7001 14.1002 34.6001 14.1002 34.6001 13.9002V13.8002C34.6001 10.5002 34.6001 7.30021 34.6001 4.00021C34.6001 3.80021 34.7001 3.7002 34.9001 3.7002C35.2001 3.7002 35.4001 3.7002 35.7001 3.7002C35.9001 3.7002 36.0001 3.80021 35.9001 3.90021C35.9001 5.10021 35.9001 6.20021 35.9001 7.40021C36.0001 7.90021 36.0001 8.40021 36.0001 8.90021Z" fill="#2645C6"/>
<path d="M65.3003 8.90021C65.3003 7.30021 65.3003 5.60021 65.3003 4.00021C65.3003 3.80021 65.3003 3.7002 65.6003 3.7002C65.9003 3.7002 66.1003 3.7002 66.4003 3.7002C66.6003 3.7002 66.7003 3.70021 66.7003 4.00021C66.7003 4.40021 66.7003 4.8002 66.7003 5.2002C66.7003 8.1002 66.7003 10.9002 66.7003 13.8002C66.7003 14.0002 66.7003 14.1002 66.4003 14.1002C66.2003 14.1002 65.9003 14.1002 65.7003 14.1002C65.4003 14.1002 65.4003 14.1002 65.4003 13.8002C65.3003 12.2002 65.3003 10.5002 65.3003 8.90021Z" fill="#2645C6"/>
<path d="M5.09967 6.59961C6.39967 6.59961 7.39969 7.59963 7.49969 8.99963C7.49969 10.0996 8.69971 10.7996 9.69971 10.2996C10.1997 9.99962 10.4997 9.59963 10.4997 8.99963C10.4997 7.69963 11.5997 6.59962 12.9997 6.69962C14.0997 6.69962 15.0997 7.59962 15.1997 8.69962C15.1997 8.79962 15.1997 8.89963 15.1997 8.89963C15.1997 9.09963 14.9997 9.29962 14.7997 9.29962C14.5997 9.29962 14.3997 9.19963 14.2997 8.99963C14.2997 8.89963 14.2997 8.69961 14.1997 8.59961C13.9997 7.89961 13.2997 7.49961 12.5997 7.59961C11.8997 7.69961 11.3997 8.29963 11.2997 8.99963C11.1997 10.1996 10.5997 10.9996 9.59967 11.2996C8.19967 11.6996 6.69967 10.6996 6.59967 9.29962C6.59967 9.09962 6.59969 8.89961 6.49969 8.59961C6.29969 7.89961 5.69969 7.49961 4.99969 7.59961C4.29969 7.59961 3.69967 8.09962 3.59967 8.79962C3.59967 8.89962 3.59967 8.89963 3.59967 8.99963C3.59967 9.19963 3.39967 9.39963 3.09967 9.39963C2.89967 9.39963 2.69971 9.19963 2.69971 8.89963C2.69971 7.89963 3.49967 6.89962 4.59967 6.69962C4.79967 6.69962 4.99967 6.69961 5.09967 6.59961Z" fill="#FAFBFD"/>
</svg>
