<svg width="82" height="22" viewBox="0 0 82 22" fill="none" xmlns="http://www.w3.org/2000/svg">
<path d="M36.0012 8.70043C35.8012 8.80043 35.7012 9.00043 35.5012 9.20043C34.5012 10.6004 33.4012 12.0004 32.4012 13.3004C31.9012 14.0004 31.9012 14.0004 31.3012 13.3004C30.3012 11.9004 29.2012 10.5004 28.2012 9.10043C28.1012 8.90043 28.0012 8.70043 27.7012 8.70043C27.5012 8.90043 27.6012 9.20041 27.6012 9.40041C27.6012 11.7004 27.6012 14.1004 27.6012 16.4004C27.6012 17.0004 27.4012 17.2004 26.8012 17.2004C25.1012 17.2004 25.3012 17.3004 25.3012 15.7004C25.3012 12.4004 25.3012 9.10044 25.3012 5.80044C25.3012 5.00044 25.3012 5.00042 26.2012 5.00042C28.5012 5.00042 27.8012 4.80042 29.1012 6.50042C29.9012 7.60042 30.7012 8.70044 31.4012 9.80044C31.7012 10.2004 31.9012 10.2004 32.2012 9.80044C33.2012 8.40044 34.2012 7.10043 35.1012 5.70043C35.5012 5.20043 35.9012 5.00042 36.5012 5.00042C38.5012 5.00042 38.2012 4.80043 38.2012 6.70043C38.2012 9.90043 38.2012 13.1004 38.2012 16.3004C38.2012 17.1004 38.2012 17.2004 37.3012 17.2004C35.7012 17.2004 35.9012 17.3004 35.9012 15.8004C35.9012 13.6004 35.9012 11.5004 35.9012 9.30044C36.1012 9.10044 36.2012 8.90043 36.0012 8.70043Z" fill="#021E58"/>
<path d="M16.5015 5.30003C16.5015 7.40003 16.4015 9.60001 15.8015 11.6C15.3015 13.3 14.7015 14.8 13.5015 16.1C11.7015 18.2 9.40147 18.2 7.60147 16.2C6.00147 14.4 5.30145 12.2 4.80145 10C4.60145 9.10001 4.50146 8.3 4.50146 7.4C4.50146 6.4 4.90146 5.70003 5.90146 5.30003C6.00146 6.40003 6.10146 7.50001 6.40146 8.60001C6.70146 9.80001 7.20146 10.9 7.90146 11.9C9.10146 13.4 10.8015 13.4 12.0015 11.9C13.1015 10.6 13.6015 9.00003 13.9015 7.30003C14.3015 5.20003 14.2015 3.10001 13.7015 1.00001C13.7015 0.800008 13.6015 0.700014 13.7015 0.600014C13.8015 0.500014 14.0015 0.60002 14.1015 0.70002C14.7015 1.00002 15.4015 1.20001 15.9015 1.60001C16.3015 2.80001 16.4015 4.10003 16.5015 5.30003Z" fill="#009E00"/>
<path d="M79.2015 9.69963C79.4015 9.19963 79.3014 8.69963 80.0014 8.69963C81.2014 8.69963 81.3014 8.69962 81.3014 9.89962C81.3014 12.3996 81.3014 14.9996 81.3014 17.4996C81.3014 18.6996 80.9014 19.6996 80.0014 20.5996C79.7014 20.8996 79.3015 21.0996 78.9015 21.2996C77.3015 21.8996 75.6014 21.8996 74.0014 21.0996C73.1014 20.6996 72.6015 19.8996 72.4015 18.8996C72.3015 18.4996 72.4015 18.1996 72.9015 18.1996C73.2015 18.1996 73.4015 18.1996 73.7015 18.1996C74.2015 18.1996 74.5014 18.2996 74.8014 18.7996C75.3014 19.6996 76.2014 19.6996 77.1014 19.6996C78.0014 19.6996 78.7014 19.2996 79.0014 18.4996C79.3014 17.7996 79.3015 16.9996 79.2015 16.1996C78.7015 16.4996 78.4014 16.7996 78.0014 16.9996C75.6014 18.0996 72.8015 16.7996 72.2015 14.1996C71.8015 12.5996 72.0014 11.0996 73.0014 9.79964C74.3014 8.39964 77.2015 7.59963 79.2015 9.69963ZM74.3014 12.8996C74.3014 14.4996 75.3014 15.4996 76.8014 15.4996C78.3014 15.4996 79.2015 14.4996 79.2015 12.9996C79.2015 11.4996 78.2015 10.3996 76.7015 10.3996C75.3015 10.3996 74.2014 11.3996 74.3014 12.8996Z" fill="#021E58"/>
<path d="M0.00153489 10.6C-0.0984651 4.90001 4.70153 0 10.4015 0C11.0015 0 11.6015 6.10203e-06 12.1015 0.100006C12.6015 0.200006 12.9015 0.399994 13.0015 0.899994C13.1015 1.49999 13.2015 2.00001 13.2015 2.60001C13.3015 3.30001 13.2015 3.30001 12.6015 3.10001C9.70154 2.50001 7.10152 3.1 4.80152 5C1.40152 7.9 0.701535 12.6 3.00153 16.5C3.10153 16.7 3.40155 16.9 3.20155 17.1C3.00155 17.3 2.70153 17.2 2.40153 17C2.20153 16.9 2.10153 16.7 2.00153 16.6C0.601535 14.8 0.00153489 12.8 0.00153489 10.6Z" fill="#021E58"/>
<path d="M48.9015 13.0001C48.9015 14.2001 48.9015 15.4001 48.9015 16.6001C48.9015 17.1001 48.7016 17.3001 48.2016 17.3001C48.0016 17.3001 47.8016 17.3001 47.7016 17.3001C47.2016 17.3001 46.9015 17.2001 46.9015 16.7001C46.9015 16.5001 46.8016 16.3001 46.5016 16.5001C44.9016 17.8001 43.2016 18.0001 41.5016 16.9001C39.8016 15.8001 39.4016 14.0001 39.7016 12.1001C40.1016 9.50014 42.2016 8.10013 44.7016 8.50013C45.3016 8.60013 45.9015 8.90015 46.4015 9.30015C46.7015 9.60015 46.9015 9.60014 46.9015 9.10014C46.9015 8.70014 47.2016 8.60014 47.5016 8.60014C47.6016 8.60014 47.7015 8.60014 47.8015 8.60014C48.9015 8.60014 48.9015 8.60014 48.9015 9.70014C48.9015 10.8001 48.9015 11.9001 48.9015 13.0001ZM44.3015 15.5001C45.8015 15.5001 46.8015 14.5001 46.8015 13.0001C46.8015 11.4001 45.8015 10.4001 44.4015 10.3001C42.9015 10.3001 41.9015 11.3001 41.9015 12.8001C41.8015 14.5001 42.7015 15.5001 44.3015 15.5001Z" fill="#021E58"/>
<path d="M56.7014 12.2005C56.7014 10.8005 56.7014 9.40045 56.7014 8.00045C56.7014 6.80045 57.2013 5.80046 58.3013 5.20046C59.4013 4.60046 60.6014 4.70046 61.7014 5.20046C62.0014 5.40046 62.1013 5.60044 62.0013 5.90044C61.9013 6.10044 61.8013 6.20044 61.8013 6.40044C61.6013 6.90044 61.4013 7.00046 60.9013 6.80046C59.9013 6.40046 59.0013 6.90046 58.9013 7.80046C58.9013 8.20046 59.0013 8.50045 59.5013 8.50045C60.0013 8.50045 60.5013 8.50045 60.9013 8.50045C61.3013 8.50045 61.5013 8.70045 61.5013 9.10045C61.5013 10.5005 61.6014 10.5004 60.2014 10.5004C58.8014 10.5004 58.9013 10.3004 58.9013 11.9004C58.9013 13.4004 58.9013 14.9004 58.9013 16.4004C58.9013 17.0004 58.7014 17.2005 58.1014 17.2005C56.5014 17.2005 56.7014 17.3004 56.7014 15.9004C56.7014 14.7004 56.7014 13.5005 56.7014 12.2005Z" fill="#021E58"/>
<path d="M16.5015 5.30002C16.4015 4.00002 16.2015 2.8 16.0015 1.5C18.2015 2.8 19.7015 4.70001 20.5015 7.10001C21.6015 10.5 21.2015 13.7 19.1015 16.6C19.0015 16.8 18.9015 17 18.6015 17.1C18.4015 17.2 18.1015 17.3 17.9015 17.1C17.7015 16.9 17.9015 16.7 18.0015 16.5C20.0015 13 19.8015 8.9 17.2015 6C17.1015 5.8 16.8015 5.60002 16.5015 5.30002Z" fill="#021E58"/>
<path d="M52.8015 9.69962C53.4015 8.99962 54.0015 8.59961 54.9015 8.59961C55.4015 8.59961 55.6015 8.69962 55.5015 9.19962C55.5015 9.29962 55.5015 9.39961 55.5015 9.59961C55.5015 10.8996 55.5015 10.6996 54.5015 10.6996C53.6015 10.6996 53.0015 11.2996 52.8015 12.1996C52.6015 12.9996 52.7015 13.7996 52.7015 14.5996C52.7015 15.2996 52.7015 15.9996 52.7015 16.6996C52.7015 17.0996 52.6015 17.2996 52.1015 17.2996C50.5015 17.3996 50.5015 17.3996 50.5015 15.7996C50.5015 13.6996 50.5015 11.5996 50.5015 9.4996C50.5015 8.7996 50.6015 8.69962 51.3015 8.69962C52.3015 8.59962 52.3015 8.59962 52.8015 9.69962Z" fill="#021E58"/>
<path d="M64.8015 9.69962C65.4015 8.99962 66.1015 8.59961 67.0015 8.59961C67.4015 8.59961 67.7015 8.69962 67.6015 9.19962C67.6015 9.29962 67.6015 9.3996 67.6015 9.3996C67.6015 10.4996 67.6015 10.4996 66.5015 10.6996C65.7015 10.7996 65.1015 11.2996 64.9015 12.0996C64.8015 12.5996 64.7015 12.9996 64.7015 13.4996C64.7015 14.4996 64.7015 15.5996 64.7015 16.5996C64.7015 17.0996 64.5015 17.2996 64.0015 17.2996C62.5015 17.2996 62.5015 17.2996 62.5015 15.8996C62.5015 13.7996 62.5015 11.5996 62.5015 9.4996C62.5015 8.8996 62.7015 8.69962 63.3015 8.69962C63.3015 8.69962 63.3015 8.69962 63.4015 8.69962C64.5015 8.59962 64.5015 8.59962 64.8015 9.69962Z" fill="#021E58"/>
<path d="M70.8016 12.9998C70.8016 14.1998 70.8016 15.3998 70.8016 16.5998C70.8016 17.0998 70.6016 17.2998 70.1016 17.2998C68.7016 17.2998 68.7017 17.2998 68.7017 15.8998C68.7017 13.7998 68.7017 11.6998 68.7017 9.59979C68.7017 8.79979 68.8016 8.7998 69.5016 8.7998C70.8016 8.7998 70.8016 8.79979 70.8016 10.0998C70.8016 10.9998 70.8016 11.9998 70.8016 12.9998Z" fill="#021E58"/>
<path d="M68.5015 6.29962C68.5015 5.59962 69.0015 5.09961 69.8015 5.09961C70.5015 5.09961 71.0015 5.5996 71.0015 6.3996C71.0015 7.0996 70.4015 7.59961 69.7015 7.59961C69.0015 7.49961 68.5015 6.99962 68.5015 6.29962Z" fill="#021E58"/>
</svg>
