<svg width="85" height="15" viewBox="0 0 85 15" fill="none" xmlns="http://www.w3.org/2000/svg">
<path d="M12.725 14.2C12.625 14.2 12.625 14.2 12.525 14.2C12.525 14 12.3251 14 12.3251 13.7C12.3251 11.7 12.3251 9.59998 12.3251 7.59998C12.3251 7.49998 12.325 7.39999 12.225 7.39999C12.225 7.19999 12.125 7.29999 12.025 7.39999C11.825 7.69999 11.525 7.99999 11.625 8.39999C11.425 8.49999 11.425 8.59999 11.425 8.79999C11.225 8.89999 11.125 9.09999 11.125 9.29999C11.025 9.29999 11.025 9.39999 11.025 9.39999C10.825 9.39999 10.8251 9.49998 10.8251 9.59998C10.7251 9.89998 10.625 10.1 10.425 10.3C10.325 10.4 10.3251 10.6 10.3251 10.7C10.0251 11 9.82506 11.4 9.82506 11.8C9.72506 11.8 9.72496 11.9 9.72496 11.9C9.62496 11.9 9.62499 12 9.62499 12C9.42499 12 9.52501 12.2 9.52501 12.3C9.42501 12.3 9.42504 12.4 9.42504 12.4C9.22504 12.7 9.12504 13.1 8.92504 13.4C8.92504 13.5 8.82496 13.6 8.72496 13.6C8.62496 13.6 8.62501 13.5 8.52501 13.4C8.42501 13.3 8.42506 13.2 8.32506 13.2V13.1C8.32506 12.6 8.02506 12.3 7.82506 11.9C7.72506 11.7 7.72501 11.5 7.52501 11.5C7.52501 11.4 7.52504 11.4 7.42504 11.4C7.42504 11.3 7.42506 11.3 7.32506 11.3C7.22506 10.7 6.92499 10.3 6.62499 9.79999C6.62499 9.79999 6.62501 9.79999 6.52501 9.79999C6.52501 9.69999 6.52504 9.6 6.42504 9.5C6.42504 9.4 6.42506 9.29998 6.32506 9.19998C6.32506 9.09998 6.42496 8.89999 6.22496 8.89999C6.22496 8.79999 6.32499 8.59998 6.12499 8.59998C6.12499 8.39998 6.12506 8.19998 5.82506 8.09998C5.82506 7.99998 5.82496 8 5.72496 8C5.72496 7.7 5.72504 7.39999 5.42504 7.29999C5.42504 7.29999 5.42506 7.29998 5.32506 7.19998C5.22506 7.29998 5.22496 7.49998 5.22496 7.59998C5.22496 9.59998 5.22496 11.5 5.22496 13.5C5.22496 13.8 5.22506 14 4.82506 14C4.72506 14 4.72496 14.1 4.72496 14.1C4.62496 14.1 4.52504 14.1 4.42504 14.1C4.42504 13.9 4.22499 14 4.12499 14C3.02499 14 2.02504 14 0.925037 14C0.825037 14 0.724988 14 0.624988 14.1C0.524988 14.1 0.425061 14.1 0.325061 14.1C0.125061 13.9 0.0250122 13.6 0.0250122 13.3C0.0250122 13 0.0250122 12.7 0.0250122 12.4C0.0250122 8.39999 -0.0750122 4.39999 0.124988 0.399994C0.124988 0.0999939 0.225037 0.0999756 0.425037 0.0999756C1.72504 0.0999756 2.92496 0.0999756 4.22496 0.0999756C4.62496 0.0999756 4.92496 0.0999817 5.22496 0.199982C5.22496 0.399982 5.22506 0.499976 5.32506 0.599976C5.72506 1.39998 6.12501 2.29998 6.52501 3.09998C6.62501 3.29998 6.72504 3.59998 6.92504 3.69998C6.92504 3.79998 6.92501 3.89998 7.02501 4.09998C7.42501 4.89998 7.82496 5.79998 8.22496 6.59998C8.22496 6.69998 8.32504 6.79999 8.42504 6.79999C8.42504 6.89999 8.42501 6.89999 8.52501 6.89999C8.62501 6.89999 8.62499 6.79999 8.62499 6.79999C8.72499 6.79999 8.72506 6.69998 8.82506 6.69998C9.12506 6.09998 9.42499 5.6 9.62499 5C9.72499 4.8 9.92504 4.49998 9.92504 4.19998C10.225 3.89998 10.425 3.49998 10.425 3.09998C10.525 3.09998 10.625 2.99999 10.625 2.89999C10.925 2.39999 11.125 1.79999 11.425 1.29999C11.525 0.999988 11.725 0.8 11.725 0.5C11.825 0.5 11.8251 0.499994 11.8251 0.399994C11.9251 -6.10948e-06 12.225 0 12.625 0C13.925 0 15.225 0 16.525 0C17.125 0 17.125 -2.44379e-05 17.125 0.599976C17.125 4.79998 17.125 9.09999 17.125 13.3C17.125 13.6 17.125 13.8 16.925 14C16.725 14 16.625 14 16.425 14C16.425 13.8 16.225 13.9 16.125 13.9C15.025 13.9 13.825 13.9 12.725 13.9C12.825 14 12.725 14 12.725 14.2Z" fill="#D51F06"/>
<path d="M57.8252 14.1998C57.8252 14.0998 57.8252 13.9998 57.8252 13.7998C57.8252 9.3998 57.8252 4.9998 57.8252 0.699799C57.8252 0.399799 57.9251 0.299805 58.2251 0.299805C58.8251 0.299805 59.3252 0.299805 59.9252 0.299805C60.2252 0.299805 60.3252 0.399799 60.3252 0.699799C60.3252 3.2998 60.3252 5.99979 60.3252 8.59979C60.3252 9.69979 60.3252 10.6998 60.3252 11.7998C60.3252 11.8998 60.3251 12.0998 60.5251 12.0998C61.7251 12.0998 62.9251 12.1998 64.1251 11.9998C66.2251 11.6998 67.7252 9.9998 67.9252 7.7998C68.0252 5.9998 67.5251 4.49981 66.0251 3.39981C65.1251 2.79981 64.1251 2.49982 63.1251 2.49982C62.8251 2.49982 62.8252 2.3998 62.8252 2.1998C62.8252 1.5998 62.8252 1.09982 62.8252 0.499817C62.8252 0.299817 62.8251 0.299805 63.0251 0.299805C65.9251 0.299805 68.3251 1.39982 69.7251 3.99982C71.6251 7.69982 70.0252 12.8998 64.9252 13.9998C64.8252 13.9998 64.6251 13.9998 64.5251 14.0998C62.2251 14.1998 60.0252 14.1998 57.8252 14.1998Z" fill="#D12208"/>
<path d="M39.625 4.09979C39.625 4.49979 39.7251 4.69982 39.8251 4.99982C40.3251 6.49982 40.725 7.89981 41.225 9.39981C41.325 9.69981 41.425 10.0998 41.525 10.3998C41.525 10.4998 41.525 10.5998 41.725 10.5998C41.825 10.5998 41.925 10.4998 41.925 10.3998C42.125 9.79981 42.325 9.09982 42.525 8.49982C42.825 7.49982 43.225 6.39981 43.525 5.39981C43.825 4.39981 44.225 3.39981 44.525 2.39981C44.725 1.79981 44.925 1.2998 45.125 0.699799C45.225 0.499799 45.425 0.299805 45.625 0.299805C46.125 0.299805 46.525 0.299811 47.025 0.399811C47.225 0.399811 47.325 0.499799 47.225 0.699799C47.125 0.899799 47.125 1.19981 47.025 1.39981C46.725 2.39981 46.425 3.2998 46.025 4.2998C45.625 5.3998 45.325 6.49982 44.925 7.49982C44.625 8.39982 44.325 9.2998 44.025 10.1998C43.625 11.5998 43.125 12.8998 42.625 14.1998C42.025 14.1998 41.325 14.1998 40.725 14.1998C40.725 13.8998 40.525 13.5998 40.425 13.3998C40.025 12.1998 39.725 11.0998 39.225 9.89981C38.825 8.69981 38.425 7.4998 37.925 6.2998C37.825 5.9998 37.825 5.69982 37.525 5.49982C37.525 4.99982 37.225 4.49979 37.125 4.09979C36.725 2.99979 36.325 1.7998 35.925 0.699799C35.825 0.399799 36.025 0.399811 36.225 0.399811C36.825 0.399811 37.425 0.399811 38.025 0.399811C38.325 0.399811 38.425 0.499805 38.425 0.799805C38.425 0.899805 38.425 0.899817 38.425 0.999817C38.725 1.59982 38.825 2.29982 39.125 2.99982C39.225 3.29982 39.225 3.69982 39.525 3.99982C39.525 3.99982 39.525 3.99979 39.525 4.09979C39.625 3.99979 39.625 3.99979 39.625 4.09979Z" fill="#D51F06"/>
<path d="M49.1249 14.2002C48.9249 13.4002 48.625 12.6002 48.325 11.9002C47.825 10.5002 47.325 9.00019 46.825 7.60019C46.725 7.40019 46.725 7.20021 46.825 7.00021C47.125 6.00021 47.525 5.00021 47.825 4.00021C47.825 3.90021 47.825 3.8002 48.025 3.7002C48.425 5.0002 48.925 6.4002 49.325 7.7002C49.625 8.5002 49.8249 9.30019 50.1249 10.1002C50.1249 10.2002 50.125 10.4002 50.325 10.4002C50.425 10.4002 50.425 10.2002 50.525 10.1002C51.125 8.10019 51.825 6.2002 52.425 4.2002C52.825 3.0002 53.2249 1.80021 53.6249 0.500214C53.7249 0.300214 53.725 0.200195 53.925 0.200195C54.625 0.200195 55.225 0.200195 55.925 0.200195C56.225 0.200195 56.2249 0.200214 56.1249 0.500214C55.4249 2.40021 54.8249 4.3002 54.1249 6.2002C53.2249 8.8002 52.325 11.4002 51.425 13.9002C51.425 14.0002 51.325 14.1002 51.425 14.2002C50.625 14.2002 49.9249 14.2002 49.1249 14.2002Z" fill="#D12208"/>
<path d="M76.1246 14.1998C76.1246 12.4998 76.1246 10.7998 76.1246 9.09979C76.1246 8.79979 76.0247 8.59981 75.9247 8.39981C74.2247 5.79981 72.5247 3.19979 70.8247 0.599792C70.8247 0.499792 70.7246 0.399811 70.7246 0.399811C70.8246 0.299811 70.9247 0.299805 71.0247 0.299805C71.8247 0.299805 72.5247 0.299805 73.3247 0.299805C73.5247 0.299805 73.6246 0.299817 73.7246 0.499817C75.3246 3.09982 77.1246 5.69982 78.6246 8.49982C78.7246 8.59982 78.7246 8.6998 78.7246 8.7998C78.7246 10.5998 78.7246 12.3998 78.7246 14.1998C77.8246 14.1998 77.0246 14.1998 76.1246 14.1998Z" fill="#D12208"/>
<path d="M31.125 14.2002C30.925 13.5002 30.725 12.8002 30.525 12.1002C30.425 11.9002 30.425 11.9002 30.225 11.9002C28.525 11.9002 26.925 11.9002 25.225 11.9002C25.025 11.9002 24.925 12.0002 24.925 12.2002C24.725 12.9002 24.5251 13.5002 24.3251 14.2002C22.6251 14.2002 20.825 14.2002 19.125 14.2002C19.425 13.1002 19.725 12.1002 20.025 11.0002C20.025 11.0002 20.025 10.9002 20.125 10.9002C20.225 11.1002 20.125 11.3002 20.025 11.5002C19.825 12.3002 19.6251 13.1002 19.3251 13.8002C19.2251 14.0002 19.225 14.1002 19.525 14.1002C21.025 14.1002 22.525 14.1002 24.025 14.1002C24.125 14.1002 24.2251 14.1002 24.3251 14.0002C24.5251 13.5002 24.6251 12.9002 24.8251 12.4002C24.9251 12.0002 25.025 11.8002 25.525 11.8002C26.925 11.8002 28.4251 11.8002 29.8251 11.8002C29.9251 11.8002 30.125 11.8002 30.225 11.8002C30.525 11.7002 30.725 11.9002 30.725 12.1002C30.925 12.7002 31.025 13.3002 31.225 13.9002C31.325 14.1002 31.425 14.2002 31.625 14.2002C33.025 14.2002 34.425 14.2002 35.925 14.2002C36.225 14.2002 36.225 14.1002 36.225 13.8002C36.125 13.5002 36.025 13.1002 35.925 12.8002C35.625 11.7002 35.225 10.6002 35.025 9.50021C34.825 8.60021 34.425 7.7002 34.225 6.8002C33.725 4.8002 33.125 2.8002 32.525 0.800201C32.425 0.500201 32.325 0.400208 32.025 0.400208C29.325 0.400208 26.725 0.400208 24.025 0.400208C23.525 0.400208 23.325 0.600189 23.125 1.10019C22.625 2.80019 22.225 4.40019 21.725 6.10019C21.425 7.10019 21.225 8.00021 20.925 9.00021C20.825 9.20021 20.825 9.50019 20.625 9.60019C20.925 8.60019 21.225 7.60019 21.425 6.60019C22.025 4.50019 22.625 2.50021 23.225 0.400208C23.225 0.300208 23.225 0.300195 23.225 0.200195C26.325 0.200195 29.425 0.200195 32.525 0.200195C32.725 1.1002 33.025 1.9002 33.225 2.7002C34.325 6.5002 35.425 10.4002 36.525 14.2002V14.3002C34.625 14.2002 32.925 14.2002 31.125 14.2002Z" fill="#D12208"/>
<path d="M42.7246 14.2002C43.2246 12.9002 43.7246 11.5002 44.1246 10.2002C44.4246 9.3002 44.7247 8.40021 45.0247 7.50021C45.4247 6.40021 45.7246 5.3002 46.1246 4.3002C46.5246 3.3002 46.8246 2.40021 47.1246 1.40021C47.2246 1.20021 47.3247 0.900195 47.3247 0.700195C47.4247 0.500195 47.3246 0.400208 47.1246 0.400208C46.6246 0.400208 46.2246 0.400201 45.7246 0.300201C45.5246 0.300201 45.3246 0.400195 45.2246 0.700195C45.0246 1.3002 44.8246 1.80021 44.6246 2.40021C44.3246 3.40021 44.0246 4.40021 43.6246 5.40021C43.3246 6.40021 42.9246 7.50021 42.6246 8.50021C42.4246 9.10021 42.2247 9.80021 42.0247 10.4002C42.0247 10.5002 41.9247 10.6002 41.8247 10.6002C41.7247 10.6002 41.7246 10.4002 41.6246 10.4002C41.5246 10.1002 41.4247 9.80021 41.3247 9.40021C40.8247 7.90021 40.4247 6.50021 39.9247 5.00021C39.8247 4.70021 39.7246 4.40019 39.7246 4.10019C39.8246 4.20019 39.9247 4.30021 39.9247 4.50021C40.5247 6.30021 41.1246 8.10021 41.6246 9.90021C41.6246 10.1002 41.7247 10.2002 41.8247 10.4002C42.0247 9.90021 42.2247 9.40021 42.3247 8.90021C43.2247 6.10021 44.2246 3.30021 45.1246 0.500214C45.1246 0.400214 45.2246 0.300195 45.2246 0.200195C46.0246 0.200195 46.8246 0.200195 47.6246 0.200195C46.0246 4.8002 44.5247 9.30021 42.9247 13.9002C42.9247 14.0002 42.8247 14.2002 42.8247 14.3002C42.8247 14.2002 42.7246 14.2002 42.7246 14.2002Z" fill="#D12208"/>
<path d="M11.9248 0.699615C12.0248 0.499615 12.1247 0.299609 12.2247 0.0996094C13.9247 0.0996094 15.7248 0.0996094 17.4248 0.0996094C17.4248 0.899609 17.4248 1.69963 17.4248 2.49963C17.4248 6.29963 17.4248 10.0996 17.4248 13.8996C17.4248 13.9996 17.4248 14.0996 17.4248 14.1996C17.3248 14.1996 17.2248 14.1996 17.1248 14.1996C17.3248 13.9996 17.3248 13.7996 17.3248 13.4996C17.3248 9.29963 17.3248 4.99962 17.3248 0.799622C17.3248 0.199622 17.3247 0.199615 16.7247 0.199615C15.4247 0.199615 14.1248 0.199615 12.8248 0.199615C12.5248 0.199615 12.2248 0.199609 12.0248 0.599609C12.0248 0.699609 12.0248 0.699615 11.9248 0.699615Z" fill="#D12208"/>
<path d="M5.32471 0.0996094C5.32471 0.199609 5.32468 0.299628 5.42468 0.399628C5.12468 0.199628 4.72468 0.299622 4.42468 0.299622C3.12468 0.299622 1.92463 0.299622 0.624634 0.299622C0.324634 0.299622 0.324707 0.399609 0.324707 0.599609C0.224707 4.59961 0.324609 8.59961 0.224609 12.5996C0.224609 12.8996 0.224609 13.1996 0.224609 13.4996C0.224609 13.7996 0.324658 14.0996 0.524658 14.2996C0.424658 14.2996 0.324609 14.2996 0.224609 14.2996C0.224609 9.59962 0.224609 4.89962 0.224609 0.199615C1.92461 0.0996155 3.62471 0.0996094 5.32471 0.0996094Z" fill="#D12208"/>
<path d="M37.625 5.5C37.925 5.7 37.925 5.99999 38.025 6.29999C38.425 7.49999 38.8251 8.69999 39.3251 9.89999C39.7251 11 40.125 12.2 40.525 13.4C40.625 13.7 40.8251 13.9 40.8251 14.2H40.725C40.625 13.6 40.325 13 40.125 12.4C39.325 10.2 38.6251 7.89998 37.8251 5.69998C37.6251 5.59998 37.625 5.5 37.625 5.5Z" fill="#D12208"/>
<path d="M5.3252 7.2998C5.3252 7.8998 5.3252 8.39982 5.3252 8.99982C5.3252 10.5998 5.3252 12.1998 5.3252 13.7998C5.3252 13.8998 5.3252 14.0998 5.3252 14.1998C5.1252 14.1998 4.9252 14.1998 4.8252 14.1998C4.8252 14.0998 4.82517 14.0998 4.92517 14.0998C5.32517 14.0998 5.3252 13.8998 5.3252 13.5998C5.3252 11.5998 5.3252 9.6998 5.3252 7.6998C5.2252 7.4998 5.2252 7.3998 5.3252 7.2998Z" fill="#D12208"/>
<path d="M12.7246 14.2002C12.7246 14.0002 12.9247 14.1002 13.0247 14.1002C14.1247 14.1002 15.3247 14.1002 16.4247 14.1002C16.5247 14.1002 16.6246 14.1002 16.7246 14.2002C15.3246 14.2002 14.0246 14.2002 12.7246 14.2002Z" fill="#D12208"/>
<path d="M0.724609 14.2002C0.724609 14.0002 0.924658 14.1002 1.02466 14.1002C2.12466 14.1002 3.12461 14.1002 4.22461 14.1002C4.32461 14.1002 4.42466 14.1002 4.52466 14.2002C3.22466 14.2002 1.92461 14.2002 0.724609 14.2002Z" fill="#D12208"/>
<path d="M12.2246 14.2004C12.2246 11.9004 12.2246 9.60039 12.2246 7.40039C12.3246 7.50039 12.3247 7.50037 12.3247 7.60037C12.3247 9.60037 12.3247 11.7004 12.3247 13.7004C12.3247 13.9004 12.5247 14.0004 12.5247 14.2004C12.4247 14.2004 12.3246 14.2004 12.2246 14.2004Z" fill="#D12208"/>
<path d="M9.62512 12.4004C9.42512 13.0004 9.0252 13.6004 8.8252 14.1004C8.8252 14.1004 8.8251 14.1004 8.7251 14.1004C8.6251 13.8004 8.5252 13.5004 8.3252 13.2004C8.5252 13.2004 8.52515 13.4004 8.52515 13.4004C8.52515 13.5004 8.6251 13.6004 8.7251 13.6004C8.8251 13.6004 8.92517 13.5004 8.92517 13.4004C9.12517 13.1004 9.22517 12.7004 9.42517 12.4004C9.52517 12.5004 9.52512 12.5004 9.62512 12.4004Z" fill="#D12208"/>
<path d="M82.825 0.299805C83.125 0.299805 83.525 0.299805 83.825 0.299805C83.925 0.299805 84.1249 0.299805 84.1249 0.299805C84.2249 0.399805 84.025 0.499792 84.025 0.599792C83.225 1.79979 82.425 3.0998 81.525 4.2998C81.025 4.9998 80.5249 5.69982 80.1249 6.49982C80.0249 6.69982 79.925 6.69982 79.825 6.49982C79.525 5.89982 79.125 5.2998 78.825 4.7998C78.725 4.6998 78.725 4.59981 78.825 4.39981C79.625 3.09981 80.525 1.79982 81.325 0.499817C81.425 0.399817 81.5249 0.299805 81.7249 0.299805C82.0249 0.299805 82.425 0.299805 82.825 0.299805Z" fill="#D12208"/>
<path d="M5.4248 0.400391C6.0248 1.60039 6.62476 2.8004 7.12476 4.0004C6.82476 3.9004 6.82473 3.60039 6.72473 3.40039C6.32473 2.60039 5.92478 1.70039 5.52478 0.900391C5.52478 0.700391 5.4248 0.500391 5.4248 0.400391Z" fill="#D12208"/>
<path d="M7.22499 3.90039C7.72499 4.90039 8.22499 5.9004 8.72499 7.0004C8.62499 7.0004 8.52504 6.90038 8.52504 6.80038C8.12504 6.00038 7.72509 5.10038 7.32509 4.30038C7.22509 4.20038 7.12499 4.10039 7.22499 3.90039Z" fill="#D12208"/>
<path d="M8.8252 7.0004C9.2252 6.1004 9.62512 5.20039 10.1251 4.40039C10.2251 4.70039 9.9252 4.90038 9.8252 5.20038C9.5252 5.80038 9.22515 6.30039 9.02515 6.90039C9.02515 6.90039 8.9252 7.0004 8.8252 7.0004Z" fill="#D12208"/>
<path d="M10.625 3.3002C11.025 2.4002 11.425 1.5002 11.925 0.700195C11.925 1.0002 11.725 1.20021 11.625 1.50021C11.425 2.00021 11.1251 2.60019 10.8251 3.10019C10.8251 3.20019 10.825 3.3002 10.625 3.3002Z" fill="#D12208"/>
<path d="M8.32495 13.1996C8.02495 12.6996 7.7249 12.0996 7.5249 11.5996C7.7249 11.5996 7.82495 11.8996 7.82495 11.9996C8.02495 12.3996 8.32495 12.6996 8.32495 13.1996Z" fill="#D12208"/>
<path d="M7.32507 11.2998C7.02507 10.7998 6.825 10.2998 6.625 9.7998H6.72498C6.92498 10.2998 7.32507 10.6998 7.32507 11.2998Z" fill="#D12208"/>
<path d="M11.1248 9.40039C10.9248 9.90039 10.7248 10.3004 10.4248 10.8004C10.4248 10.7004 10.4248 10.5004 10.5248 10.4004C10.6248 10.2004 10.7248 9.90038 10.9248 9.70038C10.9248 9.50038 10.9248 9.40039 11.1248 9.40039Z" fill="#D12208"/>
<path d="M12.225 7.39965C12.025 7.59965 11.9251 7.89963 11.8251 8.09963C11.7251 8.19963 11.725 8.29965 11.625 8.39965C11.625 7.99965 11.925 7.69965 12.025 7.39965C12.025 7.29965 12.225 7.19965 12.225 7.39965Z" fill="#D12208"/>
<path d="M10.4248 10.7998C10.3248 11.1998 10.1248 11.4998 9.9248 11.8998C9.9248 11.4998 10.0248 11.0998 10.4248 10.7998Z" fill="#D12208"/>
<path d="M10.125 4.39981C10.225 3.99981 10.425 3.6998 10.625 3.2998C10.625 3.6998 10.425 4.09981 10.125 4.39981Z" fill="#D12208"/>
<path d="M5.72473 7.99982C5.52473 7.79982 5.5248 7.5998 5.4248 7.2998C5.7248 7.4998 5.72473 7.79982 5.72473 7.99982Z" fill="#D12208"/>
<path d="M6.12512 8.7002C6.02512 8.5002 5.9252 8.4002 5.8252 8.2002C6.1252 8.3002 6.12512 8.5002 6.12512 8.7002Z" fill="#D12208"/>
<path d="M11.425 8.7998C11.425 8.9998 11.325 9.1998 11.125 9.2998C11.125 9.0998 11.125 8.8998 11.425 8.7998Z" fill="#D12208"/>
<path d="M11.6248 8.40039C11.6248 8.60039 11.5248 8.70038 11.4248 8.80038C11.4248 8.60038 11.4248 8.40039 11.6248 8.40039Z" fill="#D12208"/>
<path d="M6.52478 9.50021C6.42478 9.40021 6.4248 9.3002 6.4248 9.2002C6.5248 9.3002 6.52478 9.40021 6.52478 9.50021Z" fill="#D12208"/>
<path d="M6.62488 9.79999C6.52488 9.69999 6.5249 9.6 6.5249 9.5C6.6249 9.5 6.62488 9.59999 6.62488 9.79999Z" fill="#D12208"/>
<path d="M6.22498 9.00021C6.12498 8.90021 6.125 8.8002 6.125 8.7002C6.325 8.7002 6.22498 8.80021 6.22498 9.00021Z" fill="#D12208"/>
<path d="M9.7246 12.2002C9.7246 12.3002 9.62462 12.4002 9.62462 12.5002C9.62462 12.3002 9.5246 12.2002 9.7246 12.2002Z" fill="#D12208"/>
<path d="M6.32471 9.20038C6.22471 9.10038 6.22461 9.00039 6.22461 8.90039C6.42461 9.00039 6.32471 9.10038 6.32471 9.20038Z" fill="#D12208"/>
<path d="M8.625 7C8.725 7 8.72507 7.1 8.82507 7C8.82507 7.1 8.82498 7.09998 8.72498 7.09998C8.62498 7.09998 8.625 7.1 8.625 7Z" fill="#D12208"/>
<path d="M11.1249 9.2998C11.1249 9.3998 11.1249 9.39981 11.0249 9.39981L11.1249 9.2998Z" fill="#D12208"/>
<path d="M5.82471 8.20002C5.72471 8.20002 5.72461 8.10001 5.72461 8.10001C5.82461 8.00001 5.82471 8.10002 5.82471 8.20002Z" fill="#D12208"/>
<path d="M7.42517 11.3998C7.32517 11.3998 7.3252 11.2998 7.3252 11.2998C7.4252 11.2998 7.42517 11.3998 7.42517 11.3998Z" fill="#D12208"/>
<path d="M7.52478 11.6C7.42478 11.6 7.4248 11.5 7.4248 11.5C7.5248 11.5 7.52478 11.5 7.52478 11.6Z" fill="#D12208"/>
<path d="M9.82471 12C9.82471 12.1 9.82461 12.1 9.72461 12.1C9.72461 12.1 9.72471 12.1 9.82471 12Z" fill="#D12208"/>
<path d="M9.82471 11.9004C9.82471 12.0004 9.82461 12.0004 9.72461 12.0004C9.82461 12.0004 9.82471 11.9004 9.82471 11.9004Z" fill="#D12208"/>
<path d="M39.6248 3.90021C39.3248 3.60021 39.4248 3.20021 39.2248 2.90021C38.9248 2.30021 38.8248 1.60021 38.5248 0.900208C38.5248 0.800208 38.5248 0.800195 38.5248 0.700195C38.5248 0.400195 38.4248 0.300201 38.1248 0.300201C37.5248 0.300201 36.9249 0.200201 36.3249 0.300201C36.1249 0.300201 35.9248 0.300189 36.0248 0.600189C36.4248 1.70019 36.8248 2.90021 37.2248 4.00021C37.3248 4.50021 37.6248 4.90021 37.6248 5.40021C37.1248 4.30021 36.8249 3.10021 36.4249 2.00021C36.2249 1.50021 36.0249 0.900208 35.8249 0.400208C35.7249 0.200208 35.8248 0.200195 36.0248 0.200195C36.8248 0.200195 37.5249 0.200195 38.3249 0.200195C38.4249 0.200195 38.5248 0.200208 38.5248 0.400208C38.9248 1.50021 39.2248 2.60021 39.6248 3.90021C39.6248 3.80021 39.6248 3.80021 39.6248 3.90021Z" fill="#D12208"/>
<path d="M39.6249 4.10039C39.5249 4.10039 39.5249 4.00041 39.5249 4.00041C39.7249 3.90041 39.7249 4.00039 39.6249 4.10039Z" fill="#D12208"/>
<path d="M20.425 9.49982C20.625 9.29982 20.625 9.09981 20.725 8.89981C21.025 7.89981 21.325 6.99982 21.525 5.99982C22.025 4.29982 22.425 2.69982 22.925 0.999817C23.025 0.499817 23.3251 0.299805 23.8251 0.299805C26.5251 0.299805 29.1251 0.299805 31.8251 0.299805C32.1251 0.299805 32.2251 0.399799 32.3251 0.699799C32.9251 2.6998 33.525 4.6998 34.025 6.6998C34.225 7.5998 34.6251 8.49981 34.8251 9.39981C35.1251 10.4998 35.525 11.5998 35.725 12.6998C35.825 12.9998 35.925 13.3998 36.025 13.6998C36.125 13.8998 36.025 14.0998 35.725 14.0998C34.325 14.0998 32.925 14.0998 31.425 14.0998C31.225 14.0998 31.125 13.9998 31.025 13.7998C30.825 13.1998 30.725 12.5998 30.525 11.9998C30.425 11.6998 30.225 11.5998 30.025 11.6998C29.925 11.6998 29.725 11.6998 29.625 11.6998C28.225 11.6998 26.7251 11.6998 25.3251 11.6998C24.8251 11.6998 24.725 11.7998 24.625 12.2998C24.425 12.8998 24.325 13.3998 24.125 13.8998C24.125 13.9998 24.0251 13.9998 23.8251 13.9998C22.3251 13.9998 20.8251 13.9998 19.3251 13.9998C19.1251 13.9998 19.125 13.8998 19.125 13.6998C19.325 12.8998 19.5251 12.0998 19.8251 11.3998C19.9251 11.1998 19.925 10.9998 19.925 10.7998C20.325 10.3998 20.425 9.99982 20.425 9.49982ZM27.725 2.2998C27.625 2.3998 27.625 2.39982 27.625 2.49982C26.925 4.79982 26.325 7.0998 25.625 9.2998C25.525 9.4998 25.6251 9.49982 25.8251 9.49982C27.0251 9.49982 28.325 9.49982 29.525 9.49982C29.725 9.49982 29.725 9.3998 29.725 9.1998C29.525 8.5998 29.325 7.8998 29.125 7.2998C28.725 5.6998 28.225 4.0998 27.725 2.2998Z" fill="#D51F06"/>
<path d="M20.4249 9.5C20.4249 10 20.3249 10.4 20.0249 10.9C20.1249 10.4 20.3249 9.9 20.4249 9.5Z" fill="#D12208"/>
</svg>
