<svg width="62" height="12" viewBox="0 0 62 12" fill="none" xmlns="http://www.w3.org/2000/svg">
<path d="M3.39996 3.65266C3.39996 6.05266 3.39996 8.45264 3.39996 10.8526C3.39996 11.7526 3.09999 11.9526 2.29999 11.9526C-1.21593e-05 11.9526 0 11.9527 0 9.65266C0 6.85266 0 4.05263 0 1.25263C0 0.552634 0.0999634 0.252634 0.899963 0.252634C2.19996 0.352634 3.49999 0.352634 4.79999 0.252634C5.49999 0.252634 5.79998 0.452653 6.09998 1.05265C7.29998 3.25265 8.49996 5.45264 9.89996 7.85264C10.8 6.15264 11.9 4.65265 12.6 2.95265C13.5 0.752646 14.7 -0.0473413 17.1 0.152659C19.7 0.452659 19.7 0.25264 19.7 2.85264C19.7 5.55264 19.7 8.25265 19.7 10.9526C19.7 11.6526 19.5 11.8526 18.8 11.8526C16.3 11.8526 16.3 11.9526 16.3 9.35264C16.3 7.45264 16.3 5.65263 16.3 3.75263C16.3 3.65263 16.3 3.55263 16.2 3.25263C15.4 4.65263 14.7 5.85265 14 7.05265C13.4 8.05265 12.7 9.05265 12.3 10.0527C11.7 11.5527 10.8 11.8526 9.29999 11.7526C8.69999 11.6526 8.3 11.5526 8 10.9526C6.6 8.45265 5.10001 5.95265 3.70001 3.45265C3.50001 3.65265 3.39996 3.65266 3.39996 3.65266Z" fill="#026C7E"/>
<path d="M38.7 3.35288C37.1 6.05288 35.7 8.55289 34.3 10.9529C33.5 12.3529 31.1 12.2529 30.3 10.8529C28.9 8.35288 27.5 5.95289 25.9 3.55289C25.9 5.95289 25.9 8.35288 25.9 10.7529C25.9 11.5529 25.8 11.8529 24.9 11.8529C22.5 11.8529 22.5 11.8529 22.5 9.45289C22.5 6.65289 22.5 3.85289 22.5 1.05289C22.5 0.352894 22.7 0.0529004 23.4 0.1529C23.9 0.2529 24.4 0.2529 24.8 0.1529C27.5 -0.4471 28.9 0.7529 29.9 3.1529C30.5 4.5529 31.3 5.8529 32.1 7.1529C32.2 7.2529 32.3 7.45288 32.4 7.75288C33.5 5.75288 34.7 3.85288 35.6 1.85288C36.2 0.452882 37.1 -0.147106 38.7 0.0528943C39.6 0.152894 40.6 0.152894 41.5 0.0528943C42.1 0.0528943 42.3 0.252882 42.3 0.852882C42.3 4.25288 42.3 7.65289 42.3 11.0529C42.3 11.5529 42.2 11.8529 41.6 11.7529C41.5 11.7529 41.4 11.7529 41.4 11.7529C38.9 11.8529 38.9 11.8529 38.9 9.35288C38.9 7.45288 38.9 5.65288 38.9 3.75288C38.8 3.85288 38.8 3.75288 38.7 3.35288Z" fill="#026C7E"/>
<path d="M44.2998 11.953C46.3998 8.15301 48.3998 4.453 50.3998 0.853C50.5998 0.453 50.8998 0.253 51.3998 0.353H51.4998C55.4998 0.253 55.4998 0.252994 57.3998 3.75299C58.7998 6.45299 60.2998 9.05299 61.6998 11.753C61.6998 11.753 61.6998 11.853 61.5998 11.953C60.5998 11.953 59.4998 11.953 58.3998 11.953C57.6998 11.953 57.4998 11.453 57.3998 10.953C56.9998 10.053 56.3998 9.75299 55.4998 9.75299C53.7998 9.85299 52.1998 9.85299 50.4998 9.75299C49.5998 9.75299 49.0998 9.95299 48.7998 10.753C48.4998 11.653 47.8998 11.953 46.9998 11.853C46.0998 11.853 45.2998 11.953 44.2998 11.953ZM50.6998 7.25299C52.2998 7.25299 53.7998 7.25299 55.3998 7.25299C54.5998 5.75299 53.8998 4.353 53.0998 2.853C52.1998 4.353 51.4998 5.75299 50.6998 7.25299Z" fill="#026C7E"/>
</svg>
