<svg width="109" height="24" viewBox="0 0 109 24" fill="none" xmlns="http://www.w3.org/2000/svg">
<path d="M68.0001 16.2996C67.1001 16.1996 66.3001 16.2996 65.5001 15.7996C64.7001 15.2996 64.2001 14.4996 64.2001 13.4996C64.2001 13.2996 64.1001 12.9996 64.5001 12.9996C64.8001 12.9996 65.1 12.9996 65.1 13.3996C65.1 14.0996 65.5001 14.6996 66.2001 15.0996C67.3001 15.5996 68.3 15.5996 69.4 15.0996C70.1 14.6996 70.5 14.1996 70.4 13.3996C70.3 12.5996 69.7001 12.2996 69.0001 12.0996C68.1001 11.7996 67.2001 11.5996 66.3001 11.3996C65.4001 11.0996 64.6001 10.6996 64.5001 9.59962C64.4001 8.39962 64.9 7.49961 65.9 6.99961C67.3 6.29961 69.3001 6.6996 70.3001 7.7996C70.6001 8.0996 70.8 8.49961 70.9 8.99961C70.9 9.19961 71.1001 9.49962 70.7001 9.59962C70.4001 9.59962 70.1001 9.69963 70.0001 9.19963C69.6001 7.59963 67.3001 6.89961 66.0001 7.99961C65.5001 8.39961 65.3001 8.99962 65.5001 9.59962C65.6001 10.1996 66.1 10.4996 66.6 10.6996C67.6 10.9996 68.6001 11.0996 69.5001 11.3996C70.9001 11.8996 71.4001 12.5996 71.3001 13.8996C71.2001 14.9996 70.4001 15.8996 69.2001 16.0996C68.8001 16.2996 68.3001 16.2996 68.0001 16.2996Z" fill="#74B232"/>
<path d="M32.2 11.4001C32.3 9.5001 32.9 8.00011 34.7 7.10011C36.4 6.30011 38.5 6.80011 39.5 8.10011C39.8 8.40011 39.9 8.80012 40 9.20012C40 9.40012 40.1999 9.70012 39.8999 9.70012C39.5999 9.70012 39.2999 9.9001 39.0999 9.5001C38.4999 8.0001 37.3999 7.40011 35.8999 7.60011C34.3999 7.80011 33.6 8.80011 33.2 10.1001C32.9 11.4001 32.9 12.8001 33.7 14.0001C34.4 15.2001 35.5999 15.6001 36.8999 15.4001C38.1999 15.2001 38.9 14.3001 39.2 13.1001C39.2 13.0001 39.1999 12.8001 39.2999 12.7001C39.3999 12.3001 39.7 12.4001 40 12.4001C40.3 12.4001 40.2 12.7001 40.2 12.8001C40 14.4001 38.5999 15.9001 37.0999 16.0001C33.7999 16.6001 32.1 14.0001 32.2 11.4001Z" fill="#74B232"/>
<path d="M53.9001 10.5C54.9001 9.20001 56.1001 9.00001 57.4001 9.50001C58.6001 9.90001 59.1002 10.9 59.2002 12.1C59.3002 13.3 59.2001 14.4 58.4001 15.4C57.4001 16.5 55.8002 16.6 54.6002 15.7C54.5002 15.6 54.3002 15.4 54.1002 15.5C53.9002 15.6 54.0002 15.8 54.0002 16C54.0002 16.7 54.0002 17.4 54.0002 18.1C54.0002 18.4 54.0002 18.6 53.6002 18.6C53.3002 18.6 53.2002 18.5 53.2002 18.2C53.2002 15.5 53.2002 12.7 53.2002 10C53.2002 9.70001 53.2002 9.60002 53.6002 9.60002C53.9002 9.60002 54.0002 9.70001 54.0002 10C53.9002 10 53.9001 10.2 53.9001 10.5ZM54.0002 12.8C54.0002 13.2 54.0002 13.6 54.2002 14.1C54.5002 15 55.1002 15.5 56.1002 15.6C57.0002 15.7 57.7002 15.3 58.1002 14.5C58.6002 13.4 58.7002 12.3 58.2002 11.2C57.8002 10.3 57.1002 9.90001 56.0002 10C55.1002 10.1 54.5002 10.6 54.2002 11.6C54.0002 12 54.0002 12.4 54.0002 12.8Z" fill="#74B232"/>
<path d="M106.3 13.0001C105.6 13.0001 105 13.0001 104.3 13.0001C103.9 13.0001 103.8 13.2001 103.8 13.6001C103.9 14.5001 104.6 15.4001 105.6 15.5001C106.6 15.6001 107.4 15.2002 107.8 14.2002C107.9 13.8002 108.2 13.7001 108.5 13.8001C108.9 13.9001 108.7 14.3001 108.6 14.5001C108.2 15.4001 107.6 16.1002 106.5 16.2002C105.3 16.3002 104.1 16.2001 103.4 15.0001C102.5 13.6001 102.6 11.4002 103.7 10.2002C104.3 9.40015 105.3 9.20013 106.3 9.30013C107.3 9.40013 108 10.0001 108.4 10.9001C108.6 11.4001 108.7 11.9001 108.8 12.4001C108.9 12.8001 108.8 13.0001 108.3 13.0001C107.6 13.0001 106.9 13.0001 106.3 13.0001ZM105.7 12.3001C106.3 12.3001 106.8 12.3001 107.4 12.3001C107.7 12.3001 107.9 12.2001 107.8 11.9001C107.6 10.8001 106.8 10.0001 105.8 10.0001C104.9 10.0001 103.9 10.8001 103.7 11.8001C103.6 12.2001 103.7 12.3001 104.1 12.3001C104.7 12.3001 105.2 12.3001 105.7 12.3001Z" fill="#74B232"/>
<path d="M85.3998 13.0002C84.6998 13.0002 84.0998 13.0002 83.3998 13.0002C82.8998 13.0002 82.7998 13.2002 82.8998 13.6002C83.0998 14.6002 83.7998 15.4002 84.5998 15.5002C85.6998 15.7002 86.3998 15.2002 86.8998 14.2002C87.0998 13.8002 87.2998 13.8002 87.5998 13.9002C87.9998 14.0002 87.6999 14.3002 87.6999 14.5002C87.2999 15.7002 86.2998 16.3002 84.8998 16.2002C83.4998 16.2002 82.5999 15.4002 82.1999 14.2002C81.8999 13.1002 81.8998 11.9002 82.3998 10.8002C82.8998 9.70022 83.8998 9.10024 85.0998 9.20024C86.3998 9.30024 87.2999 9.90024 87.6999 11.2002C88.1999 12.8002 88.0999 13.0002 86.4999 13.0002C86.0999 13.0002 85.6998 13.0002 85.3998 13.0002ZM84.7998 12.3002C85.2998 12.3002 85.7998 12.3002 86.2998 12.3002C86.8999 12.3002 86.9998 12.2002 86.8998 11.6002C86.5998 10.5002 85.7999 9.90023 84.6999 10.0002C83.7999 10.1002 82.9998 11.0002 82.8998 12.0002C82.8998 12.3002 82.9999 12.3002 83.1999 12.3002C83.6999 12.3002 84.2998 12.3002 84.7998 12.3002Z" fill="#74B232"/>
<path d="M45.3999 12.7999C45.3999 10.5999 46.7999 9.19995 48.7999 9.29995C49.5999 9.29995 50.2 9.59997 50.7 10.2C52.2 11.8 51.8999 14.8 50.0999 15.9C48.2999 17 45.9999 16 45.4999 14C45.4999 13.6 45.3999 13.1999 45.3999 12.7999ZM48.4999 9.99996C47.7999 9.99996 47.1999 10.3 46.7999 10.9C46.0999 11.8 46.1 13.5 46.7 14.5C47.5 15.8 49.3 15.9999 50.2 14.7999C51 13.6999 50.9999 12.5 50.4999 11.4C50.1999 10.5 49.4999 9.99996 48.4999 9.99996Z" fill="#74B232"/>
<path d="M98.9999 16.3C96.8999 16.3 95.7998 14.5 95.8998 12.5C95.9998 11.5 96.2999 10.7 96.9999 10C98.0999 9 99.8999 9 101 10C101.3 10.3 101.4 10.6 101.6 11C101.7 11.2 101.9 11.5 101.6 11.6C101.3 11.7 101 11.7 100.8 11.3C100.5 10.6 99.9999 10.1 99.1999 10.1C97.8999 10.1 97.2998 10.7 96.8998 12.1C96.5998 13.3 97.0998 14.8 98.0998 15.3C99.0998 15.9 100.6 15.3 100.9 14.2C101 13.7 101.3 13.7 101.6 13.8C102 13.9 101.8 14.2 101.7 14.5C101.1 15.7 100.4 16.3 98.9999 16.3Z" fill="#74B232"/>
<path d="M75.6 16.3004C73.8 16.3004 72.6 15.1005 72.5 13.2005C72.4 11.8005 72.7 10.5005 74.1 9.70047C75.5 8.90047 77.7 9.40046 78.1 11.0005C78.2 11.2005 78.4 11.5005 78 11.6005C77.7 11.7005 77.4 11.7004 77.3 11.3004C77.1 10.7004 76.7 10.2005 75.9 10.1005C74.1 10.0005 72.8 11.8005 73.4 13.6005C73.8 15.0005 74.6 15.6005 75.7 15.5005C76.4 15.5005 77.2 14.9005 77.4 14.1005C77.5 13.6005 77.8 13.6005 78.1 13.7005C78.5 13.8005 78.2 14.1004 78.2 14.3004C77.8 15.7004 77 16.3004 75.6 16.3004Z" fill="#74B232"/>
<path d="M90.0002 10.2996C90.9002 9.3996 91.8001 9.09961 92.9001 9.39961C93.9001 9.69961 94.5002 10.2996 94.5002 11.2996C94.5002 12.7996 94.5002 14.1996 94.5002 15.6996C94.5002 15.9996 94.4002 16.0996 94.1002 16.0996C93.8002 16.0996 93.7002 15.8996 93.7002 15.5996C93.7002 14.5996 93.7002 13.4996 93.7002 12.4996C93.7002 12.1996 93.7002 11.9996 93.7002 11.6996C93.6002 10.5996 93.2001 9.99962 92.4001 9.99962C91.3001 9.89962 90.5002 10.3996 90.2002 11.3996C90.1002 11.7996 90.0002 12.2996 90.0002 12.6996C90.0002 13.6996 90.0002 14.5996 90.0002 15.5996C90.0002 15.8996 90.0002 16.0996 89.6002 16.0996C89.2002 16.0996 89.2002 15.9996 89.2002 15.6996C89.2002 13.7996 89.2002 11.7996 89.2002 9.89961C89.2002 9.59961 89.2002 9.49962 89.6002 9.49962C89.9002 9.49962 90.1002 9.59961 90.0002 9.89961C90.0002 9.99961 90.0002 10.0996 90.0002 10.2996Z" fill="#74B232"/>
<path d="M41.7 15.0998C41.7 13.3998 41.7 11.6998 41.7 9.99982C41.7 9.69982 41.7 9.49981 42.1 9.39981C42.5 9.39981 42.6 9.59982 42.6 9.99982C42.6 10.1998 42.5 10.3998 42.7 10.3998C42.9 10.4998 42.9 10.1998 43 10.0998C43.4 9.59982 43.9 9.2998 44.6 9.2998C44.8 9.2998 45 9.29982 45.1 9.59982C45.1 9.89982 45.1 10.0998 44.7 10.0998C43.9 10.1998 43.3 10.4998 42.9 11.1998C42.7 11.6998 42.6 12.0998 42.6 12.6998C42.6 13.5998 42.6 14.4998 42.6 15.3998C42.6 15.6998 42.7 15.9998 42.2 15.9998C41.7 15.9998 41.7 15.6998 41.7 15.2998C41.6 15.3998 41.6 15.1998 41.7 15.0998Z" fill="#74B232"/>
<path d="M80.6002 12.8004C80.6002 13.7004 80.6002 14.6004 80.6002 15.6004C80.6002 15.9004 80.6002 16.2004 80.1002 16.2004C79.7002 16.2004 79.7002 15.9004 79.7002 15.6004C79.7002 13.7004 79.7002 11.9004 79.7002 10.0004C79.7002 9.7004 79.7002 9.40039 80.2002 9.40039C80.7002 9.40039 80.7002 9.7004 80.7002 10.0004C80.6002 11.0004 80.6002 11.9004 80.6002 12.8004ZM80.4001 12.8004C80.4001 11.9004 80.4001 11.0004 80.4001 10.1004C80.4001 9.9004 80.5002 9.6004 80.2002 9.6004C79.9002 9.6004 79.9001 9.8004 79.9001 10.0004C79.7001 11.8004 79.8002 13.6004 79.8002 15.4004V15.5004C79.9002 15.7004 79.8002 16.0004 80.1002 15.9004C80.4002 15.9004 80.3002 15.6004 80.3002 15.4004C80.4002 14.6004 80.4001 13.7004 80.4001 12.8004Z" fill="#8CCE3E"/>
<path d="M79.7003 7.6004C79.7003 7.3004 79.6003 6.90039 80.2003 6.90039C80.8003 6.90039 80.6002 7.3004 80.6002 7.6004C80.6002 7.9004 80.8003 8.30038 80.2003 8.30038C79.5003 8.30038 79.7003 7.9004 79.7003 7.6004Z" fill="#74B232"/>
<path d="M80.4 12.7995C80.4 13.6995 80.4 14.5995 80.4 15.4995C80.4 15.6995 80.5 15.9995 80.2 15.9995C79.9 15.9995 80 15.6995 79.9 15.5995V15.4995C79.9 13.6995 79.8 11.8995 80 10.0995C80 9.89954 80 9.59955 80.3 9.69955C80.6 9.69955 80.5 9.99955 80.5 10.1996C80.4 10.9996 80.4 11.8995 80.4 12.7995Z" fill="#74B232"/>
<path d="M10.9999 3.40018H12.2999C12.4999 3.40018 12.5999 3.30019 12.5999 3.10019C12.5999 2.90019 12.4999 2.80017 12.2999 2.80017H10.9999V3.40018ZM10.9999 4.7002H12.3999C12.5999 4.7002 12.7 4.60018 12.7 4.40018C12.7 4.20018 12.5999 4.10019 12.3999 4.10019H10.9999V4.7002ZM13.2 3.7002C13.4 3.9002 13.4999 4.10018 13.4999 4.40018C13.4999 4.90018 13.0999 5.40018 12.4999 5.40018H10.2999V2.2002H12.4999C12.9999 2.2002 13.3999 2.60019 13.3999 3.10019C13.3999 3.40019 13.3 3.6002 13.2 3.7002ZM13.7 9.2002H12.8999L12.7 8.7002H10.7999L10.5999 9.2002H9.79993L11.3999 6.00018H12.0999L13.7 9.2002ZM11.7 6.90018L11.2 8.10019H12.2999L11.7 6.90018ZM12.7999 9.90018H13.7L12.0999 12.0002V13.1002H11.2999V12.0002L9.69995 9.90018H10.5999L11.7 11.4002L12.7999 9.90018ZM16.9999 9.90018V10.6002H14.8999V11.1002H16.9999V11.8002H14.8999V12.4002H16.9999V13.1002H14.0999V9.80017H16.9999V9.90018ZM19.3999 11.9002H18.7999V13.1002H17.9999V9.90018H19.8999C20.3999 9.90018 20.8999 10.4002 20.8999 10.9002C20.8999 11.4002 20.6 11.7002 20.2 11.8002L21.0999 13.0002H20.2L19.3999 11.9002ZM19.8999 10.6002H18.7999V11.2002H19.8999C20.0999 11.2002 20.2 11.0002 20.2 10.9002C20.2 10.8002 20.0999 10.6002 19.8999 10.6002ZM10.0999 13.1002H9.29993L9.09991 12.6002H7.29993L7.09991 13.1002H6.29993L7.8999 9.90018H8.59991L10.0999 13.1002ZM8.09991 10.8002L7.59991 12.0002H8.69995L8.09991 10.8002ZM3.19995 11.2002H4.49994C4.69994 11.2002 4.79993 11.1002 4.79993 10.9002C4.79993 10.7002 4.69994 10.6002 4.49994 10.6002H3.19995V11.2002ZM3.19995 12.4002H4.59991C4.79991 12.4002 4.8999 12.3002 4.8999 12.1002C4.8999 11.9002 4.79991 11.8002 4.59991 11.8002H3.19995V12.4002ZM5.3999 11.5002C5.5999 11.7002 5.69995 11.9002 5.69995 12.2002C5.69995 12.7002 5.29995 13.2002 4.69995 13.2002H2.3999V10.0002H4.59991C5.09991 10.0002 5.49994 10.4002 5.49994 10.9002C5.59994 11.1002 5.4999 11.3002 5.3999 11.5002ZM13.2 13.8002V14.5002H11.0999V15.0002H13.2V15.7002H11.0999V16.3002H13.2V17.0002H10.2999V13.7002H13.2V13.8002ZM12.5999 18.8002C12.5999 18.6002 12.4999 18.5002 12.2999 18.5002H10.9999V19.1002H12.2999C12.4999 19.1002 12.5999 18.9002 12.5999 18.8002ZM10.2999 21.0002V17.8002H12.3999C12.8999 17.8002 13.3999 18.3002 13.3999 18.8002C13.3999 19.2002 13.1999 19.6002 12.7999 19.7002L13.7999 21.0002H12.7999L11.8999 19.8002H10.9999V21.0002H10.2999Z" fill="#00354F"/>
<path d="M23.2998 10.8C22.8998 4.79999 17.8998 0 11.7998 0C5.5998 0 0.599805 4.79999 0.299805 10.8C0.299805 11 0.29978 11.3 0.39978 11.5C0.59978 13.5 1.39979 15.4 2.59979 16.9C4.69979 19.8 8.09978 21.6 11.8998 21.6C6.49978 21.6 2.1998 17.4 1.7998 12.2C1.7998 12 1.7998 11.7 1.7998 11.5C1.7998 11.3 1.7998 11 1.7998 10.8C2.1998 5.59999 6.59978 1.39999 11.8998 1.39999C15.6998 1.39999 19.0998 3.30001 21.1998 6.10001C22.3998 7.70001 23.0998 9.5 23.3998 11.5C23.3998 11.7 23.4998 12 23.4998 12.2C23.4998 12 23.4998 11.7 23.4998 11.5C23.2998 11.3 23.2998 11.1 23.2998 10.8Z" fill="#56D300"/>
<path d="M0.200012 12.3C0.600012 18.3 5.60001 23.1 11.7 23.1C17.9 23.1 22.9 18.3 23.2 12.3C23.2 12.1 23.2 11.8 23.1 11.6C22.9 9.60001 22.1 7.70001 20.9 6.20001C18.8 3.30001 15.4 1.5 11.6 1.5C17 1.5 21.3 5.69999 21.7 10.9C21.7 11.1 21.7 11.4 21.7 11.6C21.7 11.8 21.7 12.1 21.7 12.3C21.3 17.6 16.9 21.7 11.6 21.7C7.79998 21.7 4.39999 19.8 2.29999 17C1.09999 15.4 0.399976 13.6 0.0999756 11.6C0.0999756 11.4 0 11.1 0 10.9C0 11.1 0 11.4 0 11.6C0.1 11.8 0.100012 12.1 0.200012 12.3Z" fill="#00BCFF"/>
</svg>
