<svg width="80" height="32" viewBox="0 0 80 32" fill="none" xmlns="http://www.w3.org/2000/svg">
<path d="M58.5 0C58.6 0 58.6 0.100006 58.7 0.100006C59.3 0.700006 59.9 1.20001 60.6 1.70001C61.3 2.30001 62.1 2.9 62.9 3.5C64.1 4.3 65.3 5.09999 66.6 5.79999C66.9 5.99999 67.2 6.09999 67.5 6.29999C67.7 6.39999 67.7 6.40001 67.6 6.60001C67.4 7.20001 67.2 7.79999 67 8.39999C66.4 9.79999 65.7 11.2 64.9 12.5C63.8 14.1 62.6 15.7 61.3 17.1C60.3 18.1 59.3 19 58.1 19.8C58 19.9 57.9 20 57.7 20C57.6 20 57.6 20.1 57.5 20C57.4 19.9 57.5 19.9 57.5 19.8C57.7 19.4 57.9 18.9 58.1 18.5C58.4 17.7 58.7 16.9 58.9 16.1C59.1 15.3 59.3 14.6 59.5 13.8C59.6 13.1 59.7 12.3 59.8 11.6C59.9 10.8 59.9 9.90001 59.9 9.10001C59.9 8.40001 59.9 7.59999 59.8 6.89999C59.7 5.89999 59.5 4.79999 59.3 3.79999C59.1 2.69999 58.7 1.6 58.3 0.5C58.3 0.4 58.2 0.300012 58.2 0.200012C58.2 0.100012 58.3 0 58.5 0Z" fill="#B01216"/>
<path d="M79.2998 10.4004C79.2998 10.5004 79.1998 10.6005 79.1998 10.6005C79.0998 10.6005 78.9998 10.6005 78.9998 10.7005C78.3998 10.8005 77.6999 11.0005 77.0999 11.1005C76.3999 11.3005 75.7998 11.4005 75.1998 11.6005C74.3998 11.8005 73.5998 12.1004 72.8998 12.4004C71.9998 12.7004 71.0998 13.1004 70.2998 13.4004C68.9998 14.0004 67.6998 14.6004 66.3998 15.3004C65.0998 16.0004 63.8998 16.8005 62.6998 17.6005C62.5998 17.6005 62.5998 17.7005 62.4998 17.7005C62.3998 17.7005 62.3998 17.7005 62.2998 17.7005C62.2998 17.6005 62.2998 17.6004 62.2998 17.5004L62.3998 17.4004C63.4998 16.3004 64.4998 15.1004 65.4998 13.9004C66.7998 12.2004 67.8998 10.3004 68.7998 8.30044C68.8998 8.00044 69.0998 7.60044 69.1998 7.30044C69.2998 7.10044 69.2998 7.10046 69.3998 7.20046C70.0998 7.50046 70.7998 7.80045 71.3998 8.10045C72.1998 8.40045 72.8998 8.70044 73.6998 8.90044C74.1998 9.10044 74.6998 9.20044 75.1998 9.30044C75.7998 9.40044 76.2998 9.60046 76.8998 9.70046C77.3998 9.80046 77.9999 9.90045 78.5999 10.0004C78.7999 10.0004 78.8999 10.0005 79.0999 10.1005C79.1999 10.1005 79.2998 10.2004 79.2998 10.4004Z" fill="#68173F"/>
<path d="M32.0004 27.2004C32.0004 25.9004 32.0004 24.7004 32.0004 23.4004C32.0004 23.3004 32.0004 23.3004 32.0004 23.2004C32.0004 22.9004 32.0004 22.9004 32.3004 22.9004C33.1004 22.9004 34.0004 22.9004 34.8004 22.9004C35.4004 22.9004 36.1004 23.0004 36.6004 23.3004C37.3004 23.7004 37.8004 24.3004 37.8004 25.2004C37.9004 25.7004 37.8004 26.2004 37.6004 26.7004C37.4004 27.3004 36.9004 27.6004 36.4004 27.9004C36.2004 28.0004 36.2004 28.0004 36.3004 28.2004C36.9004 29.0004 37.5004 29.9004 38.1004 30.7004C38.2004 30.8004 38.3004 30.9004 38.3004 31.0004C38.4004 31.1004 38.3004 31.2004 38.2004 31.2004C38.1004 31.2004 38.0004 31.3004 37.9004 31.3004C37.6004 31.4004 37.3004 31.4004 37.0004 31.5004C36.7004 31.6004 36.7004 31.6004 36.5004 31.3004C35.8004 30.4004 35.2004 29.4004 34.5004 28.5004C34.4004 28.3004 34.2004 28.2004 34.0004 28.2004C33.5004 28.2004 33.5004 28.2004 33.5004 28.7004C33.5004 29.5004 33.5004 30.2004 33.5004 31.0004C33.5004 31.1004 33.5004 31.1004 33.5004 31.2004C33.5004 31.5004 33.5004 31.5004 33.2004 31.5004C32.9004 31.5004 32.5004 31.5004 32.2004 31.5004C31.9004 31.5004 31.9004 31.5004 31.9004 31.2004C31.9004 30.5004 31.9004 29.8004 31.9004 29.1004C32.0004 28.4004 32.0004 27.8004 32.0004 27.2004ZM34.5004 24.4004C34.3004 24.4004 34.1004 24.4004 33.9004 24.4004C33.7004 24.4004 33.7004 24.4004 33.7004 24.6004V24.7004C33.7004 25.3004 33.7004 26.0004 33.7004 26.6004V26.7004C33.7004 26.8004 33.8004 26.9004 33.8004 26.8004C34.3004 26.8004 34.8004 26.9004 35.3004 26.7004C35.8004 26.6004 36.1004 26.2004 36.2004 25.7004C36.3004 25.1004 36.0004 24.5004 35.3004 24.4004C35.1004 24.4004 34.8004 24.4004 34.5004 24.4004Z" fill="#424142"/>
<path d="M13.1002 25.8004C13.1002 25.0004 13.1002 24.2004 13.1002 23.3004C13.1002 23.2004 13.1002 23.2004 13.1002 23.1004C13.1002 22.9004 13.1002 22.9004 13.3002 22.9004C13.7002 22.9004 14.1002 22.9004 14.6002 22.9004C14.8002 22.9004 14.8002 22.9004 14.8002 23.1004C14.8002 23.2004 14.8002 23.2004 14.8002 23.3004C14.8002 25.0004 14.8002 26.6004 14.8002 28.3004C14.8002 29.2004 14.5002 30.0004 13.9002 30.7004C13.4002 31.2004 12.8002 31.5004 12.1002 31.7004C11.5002 31.8004 10.9002 31.8004 10.3002 31.7004C9.2002 31.5004 8.30021 30.8004 7.90021 29.7004C7.70021 29.2004 7.7002 28.7004 7.7002 28.2004C7.7002 26.6004 7.7002 25.0004 7.7002 23.4004V23.3004C7.7002 23.1004 7.80021 23.1004 7.90021 23.1004C8.30021 23.1004 8.7002 23.1004 9.2002 23.1004C9.4002 23.1004 9.40021 23.1004 9.40021 23.3004C9.40021 23.4004 9.40021 23.5004 9.40021 23.5004C9.40021 25.0004 9.40021 26.5004 9.40021 28.0004C9.40021 28.3004 9.40018 28.7004 9.50018 29.0004C9.70018 29.6004 10.1002 30.0004 10.7002 30.2004C11.1002 30.3004 11.6002 30.3004 12.0002 30.1004C12.4002 29.9004 12.7002 29.6004 12.9002 29.2004C13.0002 28.9004 13.0002 28.7004 13.0002 28.4004C13.1002 27.4004 13.1002 26.6004 13.1002 25.8004Z" fill="#414041"/>
<path d="M73.7002 27.2004C73.7002 25.9004 73.7002 24.7004 73.7002 23.4004C73.7002 23.3004 73.7002 23.3004 73.7002 23.2004C73.7002 22.9004 73.7002 22.9004 74.0002 22.9004C75.6002 22.9004 77.2002 22.9004 78.8002 22.9004H78.9002C79.1002 22.9004 79.1002 22.9004 79.1002 23.1004C79.1002 23.3004 79.1002 23.4004 79.1002 23.6004C79.1002 23.8004 79.1002 23.9004 79.1002 24.1004C79.1002 24.4004 79.1002 24.4004 78.8002 24.4004C78.7002 24.4004 78.6002 24.4004 78.6002 24.4004C77.7002 24.4004 76.7002 24.4004 75.8002 24.4004C75.5002 24.4004 75.4002 24.4004 75.4002 24.7004C75.4002 25.1004 75.4002 25.5004 75.4002 26.0004C75.4002 26.2004 75.4002 26.3004 75.7002 26.3004C76.5002 26.3004 77.2002 26.3004 78.0002 26.3004C78.1002 26.3004 78.2002 26.3004 78.2002 26.3004C78.4002 26.3004 78.4002 26.3004 78.4002 26.5004C78.5002 26.8004 78.5002 27.2004 78.6002 27.5004C78.6002 27.7004 78.6002 27.8004 78.4002 27.8004C77.6002 27.8004 76.8002 27.8004 75.9002 27.8004C75.8002 27.8004 75.7002 27.8004 75.7002 27.8004C75.5002 27.8004 75.5002 27.8004 75.5002 28.0004C75.5002 28.6004 75.5002 29.1004 75.5002 29.7004C75.5002 29.9004 75.5002 29.9004 75.8002 29.9004C76.7002 29.9004 77.5002 29.9004 78.4002 29.9004C78.6002 29.9004 78.9002 29.9004 79.1002 29.9004C79.3002 29.9004 79.4002 29.9004 79.4002 30.1004C79.4002 30.4004 79.4002 30.8004 79.4002 31.1004C79.4002 31.3004 79.4002 31.3004 79.2002 31.3004H79.1002C77.5002 31.3004 75.9002 31.3004 74.3002 31.3004C73.9002 31.3004 73.9002 31.3004 73.9002 30.9004C73.7002 29.8004 73.7002 28.5004 73.7002 27.2004Z" fill="#414041"/>
<path d="M53.0004 27.2004C53.0004 25.9004 53.0004 24.6004 53.0004 23.3004C53.0004 22.9004 53.0004 22.9004 53.4004 22.9004C55.0004 22.9004 56.5004 22.9004 58.1004 22.9004H58.2004C58.4004 22.9004 58.5004 22.9004 58.5004 23.2004C58.5004 23.5004 58.5004 23.9004 58.5004 24.2004C58.5004 24.4004 58.5004 24.5004 58.2004 24.5004C57.2004 24.5004 56.2004 24.5004 55.2004 24.5004C54.7004 24.5004 54.7004 24.5004 54.7004 25.0004C54.7004 25.4004 54.7004 25.7004 54.7004 26.1004C54.7004 26.4004 54.7004 26.4004 55.0004 26.4004C55.7004 26.4004 56.5004 26.4004 57.2004 26.4004C57.3004 26.4004 57.3004 26.4004 57.4004 26.4004C57.5004 26.4004 57.6004 26.5004 57.6004 26.6004C57.7004 27.0004 57.7004 27.3004 57.8004 27.7004C57.8004 27.8004 57.8004 27.9004 57.6004 27.9004C57.5004 27.9004 57.5004 27.9004 57.4004 27.9004C56.6004 27.9004 55.8004 27.9004 55.0004 27.9004C54.9004 27.9004 54.9004 27.9004 54.8004 27.9004C54.6004 27.9004 54.6004 27.9004 54.6004 28.1004C54.6004 28.7004 54.6004 29.3004 54.6004 29.9004C54.6004 30.1004 54.6004 30.1004 54.8004 30.1004C55.1004 30.1004 55.5004 30.1004 55.8004 30.1004C56.5004 30.1004 57.3004 30.1004 58.0004 30.1004C58.1004 30.1004 58.1004 30.1004 58.2004 30.1004C58.4004 30.1004 58.4004 30.1004 58.4004 30.3004C58.4004 30.5004 58.4004 30.7004 58.4004 30.8004C58.4004 31.0004 58.4004 31.2004 58.4004 31.3004C58.4004 31.5004 58.4004 31.5004 58.2004 31.5004H58.1004C56.5004 31.5004 54.9004 31.5004 53.3004 31.5004C52.9004 31.5004 52.9004 31.5004 52.9004 31.1004C53.0004 29.8004 53.0004 28.5004 53.0004 27.2004Z" fill="#414041"/>
<path d="M24.7002 27.2004C24.7002 25.9004 24.7002 24.6004 24.7002 23.3004C24.7002 22.9004 24.7002 22.9004 25.1002 22.9004C26.7002 22.9004 28.2002 22.9004 29.8002 22.9004C29.8002 22.9004 29.8002 22.9004 29.9002 22.9004C30.2002 22.9004 30.2002 22.9004 30.2002 23.2004C30.2002 23.5004 30.2002 23.8004 30.2002 24.0004C30.2002 24.4004 30.2002 24.4004 29.8002 24.4004C28.8002 24.4004 27.8002 24.4004 26.9002 24.4004C26.8002 24.4004 26.8002 24.4004 26.7002 24.4004C26.5002 24.4004 26.5002 24.4004 26.5002 24.6004C26.5002 25.1004 26.5002 25.5004 26.5002 26.0004C26.5002 26.2004 26.5002 26.2004 26.8002 26.2004C27.5002 26.2004 28.3002 26.2004 29.0002 26.2004C29.5002 26.2004 29.5002 26.2004 29.5002 26.6004C29.5002 26.8004 29.6002 27.1004 29.6002 27.3004C29.6002 27.6004 29.6002 27.6004 29.3002 27.6004C28.5002 27.6004 27.7002 27.6004 26.9002 27.6004C26.8002 27.6004 26.8002 27.6004 26.7002 27.6004C26.5002 27.6004 26.4002 27.6004 26.4002 27.8004C26.4002 28.4004 26.4002 28.9004 26.4002 29.5004C26.4002 29.7004 26.4002 29.8004 26.7002 29.8004C27.7002 29.8004 28.8002 29.8004 29.8002 29.8004C30.3002 29.8004 30.3002 29.8004 30.3002 30.3004C30.3002 30.6004 30.3002 30.8004 30.3002 31.1004C30.3002 31.4004 30.3002 31.4004 30.0002 31.4004C29.9002 31.4004 29.9002 31.4004 29.8002 31.4004C28.3002 31.4004 26.8002 31.4004 25.3002 31.4004C25.2002 31.4004 25.2002 31.4004 25.1002 31.4004C24.8002 31.4004 24.8002 31.4004 24.8002 31.1004C24.8002 31.0004 24.8002 30.9004 24.8002 30.9004C24.7002 29.7004 24.7002 28.4004 24.7002 27.2004Z" fill="#424142"/>
<path d="M17.0996 27.2005C17.0996 25.9005 17.0996 24.7005 17.0996 23.4005C17.0996 23.3005 17.0996 23.2005 17.0996 23.2005C17.0996 23.0005 17.0996 23.0005 17.2996 23.0005C18.2996 23.0005 19.3996 22.9005 20.3996 23.0005C20.9996 23.1005 21.5996 23.2005 22.0996 23.6005C22.5996 24.0005 22.8996 24.6005 22.9996 25.3005C23.0996 25.8005 22.9996 26.3005 22.7996 26.7005C22.5996 27.3005 22.1996 27.6005 21.5996 27.9005C21.0996 28.1005 20.5996 28.3005 20.0996 28.3005C19.7996 28.3005 19.3996 28.3005 19.0996 28.3005C18.7996 28.3005 18.7996 28.3005 18.7996 28.6005C18.7996 29.4005 18.7996 30.3005 18.7996 31.1005C18.7996 31.5005 18.7996 31.5005 18.3996 31.5005C18.0996 31.5005 17.6996 31.5005 17.3996 31.5005C17.1996 31.5005 17.0996 31.5005 17.0996 31.2005C17.0996 30.4005 17.0996 29.5005 17.0996 28.7005C17.0996 28.2005 17.0996 27.7005 17.0996 27.2005ZM18.7996 25.6005C18.7996 25.9005 18.7996 26.3005 18.7996 26.6005C18.7996 26.8005 18.7996 26.8005 18.9996 26.8005C19.2996 26.8005 19.5996 26.8005 19.8996 26.8005C20.1996 26.8005 20.4996 26.8005 20.6996 26.6005C20.9996 26.5005 21.1996 26.3005 21.1996 26.0005C21.2996 25.8005 21.2996 25.6005 21.2996 25.4005C21.2996 24.9005 20.9996 24.6005 20.5996 24.5005C20.3996 24.4005 20.0996 24.4005 19.8996 24.4005C19.5996 24.4005 19.2996 24.4005 18.9996 24.4005C18.7996 24.4005 18.7996 24.4005 18.7996 24.7005C18.7996 24.9005 18.7996 25.3005 18.7996 25.6005Z" fill="#424142"/>
<path d="M2.90002 31.6004C2.00002 31.6004 1.10002 31.4004 0.300018 31.1004H0.200012C1.22041e-05 31.0004 0 31.0003 0 30.8003C0 30.6003 0.100006 30.3004 0.100006 30.1004C0.100006 30.0004 0.100012 29.8004 0.200012 29.7004C0.200012 29.5004 0.3 29.5004 0.5 29.5004C0.8 29.7004 1.1 29.8003 1.5 29.9003C2.1 30.1003 2.70002 30.2004 3.40002 30.2004C3.60002 30.2004 3.90001 30.1004 4.10001 30.0004C4.80001 29.7004 4.80001 28.8003 4.20001 28.4003C3.90001 28.2003 3.50001 28.1003 3.20001 27.9003C2.50001 27.7003 1.90002 27.4004 1.30002 27.0004C0.700018 26.6004 0.400024 26.1003 0.400024 25.4003C0.400024 25.0003 0.400006 24.5004 0.600006 24.1004C0.900006 23.5004 1.4 23.1003 2 22.9003C2.7 22.7003 3.3 22.6004 4 22.7004C4.5 22.8004 5.10001 22.9004 5.60001 23.1004C5.80001 23.2004 5.80002 23.2003 5.80002 23.4003C5.80002 23.8003 5.70001 24.1004 5.60001 24.5004C5.60001 24.7004 5.50002 24.8004 5.30002 24.7004C4.80002 24.4004 4.20001 24.2004 3.60001 24.2004C3.20001 24.1004 2.9 24.2003 2.5 24.3003C2 24.5003 1.80002 24.9003 1.90002 25.3003C2.00002 25.5003 2.10001 25.6004 2.20001 25.7004C2.40001 25.9004 2.7 26.0004 3 26.1004C3.5 26.3004 4.10001 26.5004 4.60001 26.7004C5.00001 26.9004 5.30001 27.1003 5.60001 27.4003C6.00001 27.9003 6.10001 28.5004 6.10001 29.1004C6.00001 30.3004 5.10001 31.0003 4.10001 31.3003C3.80001 31.5003 3.30002 31.6004 2.90002 31.6004Z" fill="#414041"/>
<path d="M39.8002 22.9004C40.0002 22.9004 40.2002 22.9004 40.4002 22.9004C40.6002 22.9004 40.6002 22.9004 40.7002 23.1004C40.9002 23.6004 41.1002 24.1004 41.3002 24.6004C41.6002 25.4004 41.9002 26.3004 42.2002 27.1004C42.4002 27.7004 42.6002 28.3004 42.9002 28.9004C42.9002 29.0004 42.9002 29.1004 43.0002 29.1004C43.1002 29.1004 43.1002 29.0004 43.1002 29.0004C43.7002 27.5004 44.2002 26.0004 44.8002 24.5004C45.0002 24.1004 45.1002 23.6004 45.3002 23.2004C45.4002 23.0004 45.4002 23.0004 45.6002 23.0004C46.0002 23.0004 46.4002 23.0004 46.8002 23.0004C47.1002 23.0004 47.1002 23.1004 47.0002 23.3004C46.5002 24.7004 45.9002 26.0004 45.4002 27.4004C44.9002 28.7004 44.3002 30.0004 43.8002 31.4004C43.7002 31.6004 43.6002 31.6004 43.5002 31.6004C43.2002 31.6004 42.8002 31.6004 42.5002 31.6004C42.3002 31.6004 42.2002 31.5004 42.1002 31.3004C41.9002 30.8004 41.7002 30.2004 41.5002 29.7004C41.1002 28.8004 40.8002 27.9004 40.4002 27.0004C40.1002 26.3004 39.8002 25.5004 39.5002 24.7004C39.3002 24.2004 39.1002 23.8004 39.0002 23.3004C38.9002 23.1004 39.0002 23.0004 39.2002 23.0004C39.4002 22.9004 39.6002 22.9004 39.8002 22.9004Z" fill="#414041"/>
<path d="M60.7998 27.2004C60.7998 25.9004 60.7998 24.6004 60.7998 23.3004C60.7998 22.9004 60.7998 22.9004 61.1998 22.9004C61.4998 22.9004 61.8998 22.9004 62.1998 22.9004C62.3998 22.9004 62.4998 22.9004 62.4998 23.2004C62.4998 23.4004 62.4998 23.5004 62.4998 23.7004C62.4998 25.7004 62.4998 27.6004 62.4998 29.6004C62.4998 30.0004 62.4998 30.0004 62.8998 30.0004C63.6998 30.0004 64.4998 30.0004 65.2998 30.0004C65.3998 30.0004 65.3998 30.0004 65.4998 30.0004C65.6998 30.0004 65.6998 30.0004 65.7998 30.2004C65.8998 30.5004 65.8998 30.9004 65.9998 31.2004C65.9998 31.4004 65.9998 31.4004 65.7998 31.4004C65.6998 31.4004 65.6999 31.4004 65.5999 31.4004C64.1999 31.4004 62.7998 31.4004 61.2998 31.4004C61.1998 31.4004 61.1999 31.4004 61.0999 31.4004C60.8999 31.4004 60.8998 31.4004 60.8998 31.2004C60.8998 31.1004 60.8998 31.0004 60.8998 31.0004C60.7998 29.7004 60.7998 28.4004 60.7998 27.2004Z" fill="#414041"/>
<path d="M67.2998 27.2004C67.2998 25.9004 67.2998 24.6004 67.2998 23.3004C67.2998 22.9004 67.2998 22.9004 67.6998 22.9004C67.9998 22.9004 68.3998 22.9004 68.6998 22.9004C68.9998 22.9004 68.9998 22.9004 68.9998 23.2004C68.9998 24.2004 68.9998 25.1004 68.9998 26.1004C68.9998 27.3004 68.9998 28.4004 68.9998 29.6004C68.9998 30.0004 68.9998 30.0004 69.3998 30.0004C70.1998 30.0004 70.9998 30.0004 71.7998 30.0004H71.8998C72.1998 30.0004 72.1998 30.0004 72.2998 30.3004C72.2998 30.6004 72.3998 30.9004 72.3998 31.2004C72.3998 31.4004 72.3998 31.5004 72.1998 31.5004C71.5998 31.5004 70.9998 31.5004 70.3998 31.5004C69.4998 31.5004 68.6998 31.5004 67.7998 31.5004H67.6998C67.3998 31.5004 67.3998 31.5004 67.3998 31.2004C67.2998 29.8004 67.2998 28.5004 67.2998 27.2004Z" fill="#424142"/>
<path d="M50.3 27.1998C50.3 28.4998 50.3 29.6998 50.3 30.9998C50.3 31.0998 50.3 31.0998 50.3 31.1998C50.3 31.4998 50.3001 31.4998 50.0001 31.4998C49.6001 31.4998 49.2001 31.4998 48.9001 31.4998C48.7001 31.4998 48.6001 31.4998 48.6001 31.1998C48.6001 31.1998 48.6001 31.1998 48.6001 31.0998C48.6001 28.4998 48.6001 25.7998 48.6001 23.1998C48.6001 23.0998 48.6001 23.0998 48.6001 22.9998C48.6001 22.8998 48.7 22.7998 48.8 22.7998C49.2 22.7998 49.7001 22.7998 50.1001 22.7998C50.2001 22.7998 50.3 22.8998 50.3 22.9998C50.3 23.0998 50.3 23.1998 50.3 23.1998C50.3 24.5998 50.3 25.8998 50.3 27.1998Z" fill="#414041"/>
</svg>
