<svg width="43" height="30" viewBox="0 0 43 30" fill="none" xmlns="http://www.w3.org/2000/svg">
<path d="M20.0467 9.26872C19.0867 9.46872 18.1367 9.65869 17.1767 9.85869C15.8867 10.1287 14.6067 10.4087 13.3167 10.6887C13.1167 10.7287 13.0067 10.6887 12.8967 10.4987C12.3967 9.63871 11.8767 8.77871 11.3567 7.93871C11.2367 7.73871 11.2667 7.69868 11.4867 7.65868C15.3867 6.94868 19.2867 6.21871 23.1867 5.49871C23.2467 5.48871 23.3067 5.45871 23.3567 5.43871C23.4367 5.43871 23.5167 5.43869 23.5967 5.41869C25.0167 5.15869 26.4367 4.88871 27.8567 4.62871C28.3967 4.52871 28.9267 4.43872 29.4667 4.32872C29.9267 4.23872 30.3267 4.3787 30.6667 4.6787C31.2767 5.1987 31.6567 5.84868 31.7467 6.65868C31.7867 6.97868 31.7267 7.27867 31.5167 7.52867C29.9867 9.44867 28.4467 11.3787 26.9167 13.2987C26.8467 13.3887 26.7667 13.4487 26.6367 13.4487C25.3867 13.4487 24.1467 13.4487 22.8967 13.4487C22.8667 13.4487 22.8467 13.4287 22.7867 13.4087C24.4067 11.4987 26.0167 9.60868 27.6267 7.71868C27.6267 7.69868 27.6067 7.66867 27.5967 7.64867C26.6967 7.84867 25.7967 8.0387 24.8967 8.2387C24.3067 8.3587 23.7167 8.47869 23.1267 8.60869C22.0867 8.82869 21.0567 9.05868 20.0167 9.28868L20.0467 9.26872Z" fill="#014B71"/>
<path d="M5.90672 20.0189C5.63672 20.7889 5.40672 21.4789 5.15672 22.1689C4.39672 24.3089 3.74672 26.4889 3.03672 28.6389C2.97672 28.8289 2.88673 28.9189 2.66673 28.9089C1.85673 28.8889 1.03672 28.8989 0.226723 28.9089C0.0267235 28.9089 -0.053279 28.8889 0.036721 28.6589C1.45672 24.8589 2.87673 21.0489 4.29673 17.2489C4.51673 16.6689 5.02668 16.5289 5.55668 16.4589C5.88668 16.4089 6.21672 16.4289 6.53672 16.5089C7.04672 16.6389 7.39671 16.9089 7.58671 17.4389C8.95671 21.1589 10.3467 24.8788 11.7367 28.5888C11.8267 28.8388 11.8067 28.9189 11.5167 28.9089C10.7567 28.8889 9.99672 28.8889 9.22672 28.9089C8.94672 28.9089 8.81672 28.8389 8.72672 28.5589C7.84672 25.8689 6.95669 23.1889 6.06669 20.5089C6.01669 20.3689 5.96671 20.2389 5.89671 20.0189H5.90672Z" fill="#029EDF"/>
<path d="M36.7068 20.0781C35.9468 22.2581 35.1868 24.4081 34.5168 26.5981C34.3068 27.2981 34.0568 27.9781 33.8468 28.6781C33.7868 28.8681 33.6968 28.9081 33.5168 28.9081C32.7068 28.9081 31.8868 28.8981 31.0768 28.9081C30.7968 28.9081 30.8068 28.8281 30.8868 28.6181C32.0868 25.4181 33.2768 22.2081 34.4768 18.9981C34.6568 18.5081 34.8768 18.0281 35.0168 17.5181C35.2168 16.7981 35.7368 16.5281 36.4068 16.4481C36.7368 16.4081 37.0668 16.4181 37.3868 16.5081C37.8868 16.6381 38.2268 16.9081 38.4168 17.4181C39.7968 21.1581 41.1868 24.8981 42.5868 28.6281C42.6668 28.8481 42.6468 28.9081 42.4068 28.8981C41.6068 28.8881 40.7968 28.8781 39.9968 28.8981C39.7468 28.8981 39.6668 28.8081 39.5968 28.5881C38.6968 25.8681 37.7968 23.1481 36.8868 20.4281C36.8468 20.3181 36.8368 20.1881 36.7168 20.0681L36.7068 20.0781Z" fill="#029EDF"/>
<path d="M13.1867 23.0982C13.1867 21.3682 13.1867 19.6382 13.1867 17.9082C13.1867 17.4182 13.4067 17.1982 13.8967 17.1982C15.9867 17.1982 18.0767 17.1982 20.1667 17.1982C20.3967 17.1982 20.4867 17.2382 20.4767 17.4982C20.4567 18.0682 20.4567 18.6282 20.4767 19.1982C20.4767 19.4482 20.4267 19.5282 20.1567 19.5282C18.8867 19.5082 17.6268 19.5082 16.3568 19.4982C16.1368 19.4982 16.0567 19.5382 16.0567 19.7782C16.0767 20.3782 16.0767 20.9782 16.0567 21.5682C16.0567 21.8082 16.1267 21.8482 16.3467 21.8482C17.4167 21.8382 18.4867 21.8482 19.5567 21.8382C19.7867 21.8382 19.8567 21.8882 19.8467 22.1282C19.8267 22.7082 19.8267 23.2782 19.8467 23.8582C19.8467 24.0982 19.7767 24.1382 19.5567 24.1382C18.4867 24.1282 17.4167 24.1382 16.3467 24.1282C16.1167 24.1282 16.0467 24.1782 16.0567 24.4182C16.0767 25.0682 16.0767 25.7182 16.0567 26.3682C16.0567 26.5882 16.1267 26.6382 16.3367 26.6382C17.6267 26.6382 18.9167 26.6382 20.1967 26.6282C20.4567 26.6282 20.5267 26.6983 20.5167 26.9583C20.4967 27.5383 20.5067 28.1082 20.5167 28.6882C20.5167 28.8782 20.4567 28.9282 20.2767 28.9282C18.0567 28.9282 15.8467 28.9282 13.6267 28.9282C13.2867 28.9282 13.1567 28.7582 13.1567 28.3782C13.1567 27.2182 13.1567 26.0482 13.1567 24.8882C13.1567 24.2982 13.1567 23.7182 13.1567 23.1282L13.1867 23.0982Z" fill="#014B71"/>
<path d="M26.6168 16.9883C27.6868 16.9883 28.7168 17.1983 29.6968 17.6483C29.8868 17.7383 29.9268 17.8383 29.8768 18.0283C29.7468 18.5883 29.6168 19.1483 29.5068 19.7183C29.4668 19.9383 29.3868 19.9383 29.2068 19.8583C28.3668 19.4783 27.4968 19.2783 26.5768 19.2983C26.3668 19.2983 26.1668 19.3383 25.9668 19.3983C25.6268 19.5083 25.3868 19.7183 25.3268 20.0783C25.2668 20.4583 25.3568 20.7983 25.6768 21.0383C26.0368 21.3183 26.4568 21.4883 26.8768 21.6583C27.5968 21.9583 28.2968 22.2983 28.9468 22.7483C31.0268 24.2083 30.6168 27.1283 28.8468 28.3283C27.9068 28.9583 26.8668 29.1683 25.7668 29.1283C24.6968 29.0883 23.6668 28.8583 22.6868 28.4383C22.4868 28.3483 22.4168 28.2583 22.4768 28.0283C22.6368 27.4583 22.7868 26.8783 22.9268 26.2983C22.9668 26.1283 23.0268 26.1083 23.1868 26.1783C24.2368 26.6683 25.3368 26.9483 26.5068 26.7783C27.2168 26.6783 27.5868 26.2383 27.5568 25.5983C27.5368 25.2483 27.3368 25.0083 27.0768 24.8083C26.7068 24.5283 26.2768 24.3483 25.8468 24.1783C25.0468 23.8683 24.2768 23.5183 23.6168 22.9483C22.5868 22.0483 22.3768 20.8983 22.6268 19.6283C22.8668 18.4083 23.6368 17.6383 24.8068 17.2583C25.3968 17.0583 26.0068 16.9983 26.6368 16.9983L26.6168 16.9883Z" fill="#014B71"/>
<path d="M27.8866 4.62859C26.4666 4.88859 25.0466 5.15856 23.6266 5.41856C23.5466 5.42856 23.4666 5.43858 23.3866 5.43858C23.8766 4.85858 24.3666 4.27859 24.8566 3.69859C24.9366 3.60859 25.0366 3.52855 25.0766 3.40855C25.0866 3.39855 25.1066 3.38859 25.1166 3.37859C25.0866 3.34859 25.0666 3.35859 25.0466 3.37859C23.9366 3.61859 22.8166 3.85856 21.7066 4.09856C19.3166 4.62856 16.9366 5.15859 14.5466 5.69859C14.4366 5.72859 14.3466 5.76859 14.2566 5.62859C13.6866 4.67859 13.1166 3.72856 12.5166 2.72856C13.0866 2.61856 13.6266 2.51856 14.1666 2.41856C17.8766 1.72856 21.5766 1.03855 25.2866 0.338547C25.8666 0.228547 26.4366 0.118601 27.0166 0.0186007C27.3066 -0.0313993 27.5766 0.0185739 27.8166 0.178574C28.6666 0.718574 29.1266 1.49858 29.1966 2.49858C29.2166 2.80858 29.1166 3.0786 28.9166 3.3286C28.5766 3.7686 28.1866 4.1686 27.8866 4.6386V4.62859Z" fill="#029EDF"/>
<path d="M20.0469 9.2688C21.0869 9.0388 22.1169 8.80875 23.1569 8.58875C23.7469 8.45875 24.3369 8.34875 24.9269 8.21875C23.5669 9.90875 22.2069 11.5988 20.8469 13.2988C20.7669 13.3988 20.6868 13.4488 20.5668 13.4488C19.2468 13.4488 17.9268 13.4488 16.6168 13.4488C16.5968 13.4488 16.5869 13.4288 16.5469 13.4088C17.7169 12.0288 18.8868 10.6587 20.0568 9.27875L20.0469 9.2688Z" fill="#029EDF"/>
<path d="M25.0366 3.37911C25.0366 3.37911 25.0766 3.33911 25.1066 3.37911C25.0966 3.38911 25.0766 3.39907 25.0666 3.40907L25.0466 3.38912L25.0366 3.37911Z" fill="#FEFEFE"/>
</svg>
