<svg width="73" height="24" viewBox="0 0 73 24" fill="none" xmlns="http://www.w3.org/2000/svg">
<path d="M38.2338 11.0567C38.6038 9.41672 39.1338 7.8567 39.5738 6.2867C39.6238 6.1067 39.7038 6.04672 39.8838 6.05672C40.5838 6.06672 41.2838 6.06672 41.9838 6.05672C42.1738 6.05672 42.2438 6.09672 42.2438 6.30672C42.2438 8.46672 42.2438 10.6267 42.2438 12.7867C42.2438 12.9867 42.1838 13.0467 41.9838 13.0467C41.5138 13.0367 41.0538 13.0367 40.5838 13.0467C40.3638 13.0467 40.2938 12.9867 40.2938 12.7567C40.3138 11.4467 40.2738 10.1367 40.3338 8.82668C40.3338 8.72668 40.3338 8.62669 40.3038 8.52669C40.2338 8.77669 40.1638 9.0367 40.0938 9.2867C39.7738 10.4767 39.3538 11.6467 38.9938 12.8267C38.9438 12.9967 38.8538 13.0467 38.6838 13.0367C38.3038 13.0267 37.9338 13.0267 37.5538 13.0367C37.3738 13.0367 37.3038 12.9667 37.2538 12.8067C36.8238 11.4167 36.3338 10.0467 35.9238 8.63667C35.9238 8.70667 35.9238 8.77671 35.9238 8.85671C35.9238 10.1667 35.9238 11.4767 35.9338 12.7867C35.9338 12.9867 35.8838 13.0467 35.6738 13.0467C35.2438 13.0367 34.8138 13.0367 34.3838 13.0467C34.2038 13.0467 34.1338 13.0167 34.1338 12.8167C34.1338 10.6367 34.1338 8.45669 34.1338 6.27669C34.1338 6.11669 34.1738 6.05672 34.3438 6.05672C35.0838 6.05672 35.8338 6.05672 36.5738 6.05672C36.7538 6.05672 36.7938 6.12669 36.8438 6.27669C37.2838 7.83669 37.8138 9.36667 38.1738 10.9467C38.1738 10.9767 38.1938 10.9967 38.2138 11.0567H38.2338Z" fill="#8F9191"/>
<path d="M54.424 10.3766C54.814 10.5966 54.974 10.9466 55.144 11.2866C55.394 11.7966 55.634 12.2966 55.894 12.8066C55.984 12.9766 55.964 13.0366 55.754 13.0366C55.204 13.0366 54.664 13.0366 54.114 13.0366C53.954 13.0366 53.874 12.9866 53.804 12.8466C53.544 12.2866 53.254 11.7366 53.014 11.1766C52.824 10.7466 52.524 10.5766 52.064 10.5766C51.394 10.5866 51.394 10.5766 51.394 11.2266C51.394 11.7466 51.394 12.2666 51.394 12.7866C51.394 12.9666 51.344 13.0366 51.154 13.0366C50.644 13.0266 50.134 13.0266 49.624 13.0366C49.404 13.0366 49.334 12.9766 49.334 12.7466C49.334 10.7466 49.334 8.74659 49.334 6.75659C49.334 6.58659 49.334 6.41664 49.334 6.24664C49.334 6.11664 49.364 6.05664 49.514 6.05664C50.854 6.05664 52.184 6.0566 53.524 6.0766C53.964 6.0766 54.394 6.1766 54.794 6.3866C55.334 6.6666 55.664 7.10659 55.754 7.69659C55.874 8.48659 55.864 9.25659 55.244 9.87659C55.024 10.1066 54.734 10.2366 54.424 10.3866V10.3766ZM51.374 8.31659C51.374 8.59659 51.374 8.86661 51.374 9.14661C51.374 9.26661 51.404 9.3266 51.534 9.3266C51.984 9.3266 52.434 9.34664 52.874 9.30664C53.564 9.25664 53.804 9.02665 53.834 8.43665C53.864 7.86665 53.684 7.45659 53.034 7.37659C52.524 7.31659 52.014 7.36662 51.504 7.34662C51.374 7.34662 51.354 7.4066 51.354 7.5166C51.354 7.7866 51.354 8.05659 51.354 8.31659H51.374Z" fill="#8F9191"/>
<path d="M71.1343 13.0264C70.8843 13.0264 70.6343 13.0064 70.3843 13.0264C70.1243 13.0564 70.0143 12.9464 69.9643 12.7064C69.8943 12.4164 69.7843 12.1464 69.7043 11.8564C69.6643 11.7164 69.6043 11.6664 69.4643 11.6664C68.7743 11.6664 68.0843 11.6664 67.3943 11.6664C67.2543 11.6664 67.1843 11.7164 67.1443 11.8464C67.0443 12.1564 66.9243 12.4564 66.8343 12.7664C66.7843 12.9464 66.6943 13.0264 66.4943 13.0164C66.0143 12.9964 65.5243 12.9964 65.0443 13.0164C64.7943 13.0164 64.7843 12.9464 64.8543 12.7464C65.4943 10.9964 66.1243 9.2464 66.7643 7.4964C66.9143 7.0864 67.0643 6.67635 67.2043 6.25635C67.2543 6.09635 67.3243 6.02637 67.5043 6.02637C68.1943 6.03637 68.8843 6.02637 69.5743 6.02637C69.7243 6.02637 69.7943 6.07637 69.8443 6.21637C70.6143 8.39637 71.3843 10.5864 72.1643 12.7664C72.2343 12.9664 72.1943 13.0264 71.9943 13.0164C71.7043 13.0064 71.4243 13.0164 71.1343 13.0164V13.0264ZM68.4243 7.65637C68.3543 7.91637 68.3043 8.12635 68.2543 8.32635C68.1043 8.94635 67.8843 9.53635 67.6843 10.1364C67.6543 10.2264 67.5843 10.3364 67.7743 10.3364C68.1843 10.3364 68.5943 10.3364 69.0043 10.3364C69.1243 10.3364 69.1643 10.2764 69.1343 10.1664C68.8843 9.34638 68.6243 8.53637 68.4243 7.65637Z" fill="#8F9191"/>
<path d="M43.1438 9.49591C43.1438 8.43591 43.1438 7.38587 43.1438 6.32587C43.1438 6.13587 43.1738 6.0459 43.4038 6.0459C45.0838 6.0559 46.7738 6.0459 48.4538 6.0459C48.6438 6.0459 48.7038 6.09589 48.6938 6.28589C48.6838 6.63589 48.6838 6.98588 48.6938 7.33588C48.6938 7.51588 48.6438 7.56586 48.4638 7.56586C47.4738 7.56586 46.4738 7.56586 45.4838 7.56586C45.2738 7.56586 45.1738 7.60588 45.1938 7.83588C45.2138 8.05588 45.2138 8.28586 45.1938 8.50586C45.1738 8.74586 45.2438 8.82587 45.4938 8.82587C46.3238 8.80587 47.1638 8.82586 47.9938 8.81586C48.2038 8.81586 48.2838 8.86588 48.2638 9.08588C48.2438 9.35588 48.2438 9.62587 48.2638 9.89587C48.2738 10.0959 48.2138 10.1559 48.0138 10.1559C47.1738 10.1459 46.3338 10.1559 45.4838 10.1459C45.2438 10.1459 45.1738 10.2059 45.1938 10.4459C45.2138 10.7159 45.2138 10.9859 45.1938 11.2559C45.1838 11.4659 45.2638 11.5059 45.4538 11.5059C46.4738 11.5059 47.4938 11.5059 48.5138 11.4959C48.7538 11.4959 48.8238 11.5659 48.8038 11.7959C48.7838 12.1259 48.7838 12.4559 48.8038 12.7859C48.8038 12.9659 48.7438 13.0059 48.5738 13.0059C46.8438 13.0059 45.1138 13.0059 43.3838 13.0059C43.1738 13.0059 43.1338 12.9259 43.1338 12.7359C43.1338 11.6559 43.1338 10.5859 43.1338 9.50586L43.1438 9.49591Z" fill="#8F9191"/>
<path d="M33.8242 13.0059C33.1442 13.0059 32.4642 13.0059 31.7942 13.0059C31.6542 13.0059 31.6342 12.9159 31.6042 12.8259C31.5042 12.5059 31.3942 12.1759 31.3042 11.8559C31.2642 11.7059 31.1942 11.6659 31.0442 11.6659C30.3742 11.6659 29.7042 11.6659 29.0242 11.6659C28.8542 11.6659 28.7842 11.7259 28.7442 11.8859C28.6542 12.1959 28.5542 12.4959 28.4642 12.8059C28.4242 12.9559 28.3542 13.0259 28.1842 13.0159C27.6842 13.0059 27.1842 13.0059 26.6742 13.0159C26.4542 13.0159 26.4442 12.9459 26.5042 12.7659C27.1742 10.9259 27.8342 9.0859 28.5042 7.2359C28.6242 6.9059 28.7442 6.58591 28.8542 6.24591C28.9042 6.10591 28.9542 6.0459 29.1142 6.0459C29.8142 6.0459 30.5142 6.0459 31.2142 6.0459C31.3342 6.0459 31.4142 6.06586 31.4642 6.19586C32.2342 8.42586 33.0142 10.6559 33.7942 12.8859C33.8042 12.9159 33.8042 12.9559 33.8242 13.0159V13.0059ZM30.0742 7.75586C29.8642 8.57586 29.6042 9.37589 29.3242 10.1659C29.2842 10.2759 29.2842 10.3459 29.4442 10.3459C29.8442 10.3459 30.2542 10.3459 30.6542 10.3459C30.7742 10.3459 30.8342 10.3259 30.7942 10.1759C30.5442 9.3759 30.2942 8.57586 30.0842 7.75586H30.0742Z" fill="#8E9090"/>
<path d="M22.9741 14.8166C22.9141 15.3766 22.6841 15.8866 22.4741 16.3966C21.8941 17.8066 21.0541 19.0466 19.9841 20.1266C18.3641 21.7566 16.4341 22.8367 14.1741 23.3067C11.8341 23.7867 9.54409 23.6166 7.32409 22.7066C4.48409 21.5366 2.4041 19.5567 1.0841 16.7867C0.4841 15.5367 0.154091 14.2066 0.044091 12.8166C-0.205909 9.67663 0.604101 6.84662 2.5541 4.37662C4.3341 2.11662 6.6541 0.706683 9.5041 0.186683C10.0541 0.0866826 10.5941 0.00665817 11.1541 0.0366582C10.8941 0.0766582 10.6441 0.106653 10.3941 0.156653C8.0641 0.546653 6.0341 1.53665 4.3041 3.15665C4.0741 3.36665 3.7941 3.54667 3.6741 3.85667C3.5641 3.99667 3.4541 4.13664 3.3341 4.26664C2.8941 4.75664 2.48409 5.27666 2.12409 5.84666C0.854093 7.84666 0.224089 10.0066 0.354089 12.3866C0.424089 13.5666 0.674089 14.7067 1.10409 15.7967C1.99409 18.0267 3.4541 19.7866 5.4741 21.0866C5.5541 21.1366 5.62409 21.2167 5.74409 21.1767C5.74409 21.2967 5.82409 21.2967 5.90409 21.2867C5.90409 21.2867 5.92409 21.3366 5.96409 21.3366C6.00409 21.4266 6.08409 21.4566 6.18409 21.4466C6.19409 21.5166 6.24409 21.5067 6.29409 21.4967C6.30409 21.5567 6.35409 21.5567 6.40409 21.5567C6.41409 21.6167 6.46409 21.6167 6.51409 21.6067C6.52409 21.6667 6.58409 21.6567 6.62409 21.6667C6.62409 21.6667 6.66409 21.6967 6.68409 21.7167C6.68409 21.7167 6.69409 21.7466 6.70409 21.7566C6.80409 21.7566 6.89409 21.7766 6.98409 21.8266C8.82409 22.7166 10.7641 23.0666 12.7941 22.8966C14.0941 22.7866 15.3141 22.4167 16.4841 21.8567C16.5141 21.8667 16.5441 21.8766 16.5441 21.8266C16.5641 21.8166 16.5841 21.8067 16.5941 21.7967H16.6041C16.6141 21.7967 16.6341 21.7766 16.6441 21.7766C16.6741 21.7966 16.7041 21.7767 16.7041 21.7467C16.7341 21.7367 16.7541 21.7166 16.7841 21.7066H16.8041V21.6966C16.8341 21.6866 16.8641 21.6667 16.8841 21.6567C16.9041 21.6767 16.9141 21.6666 16.9141 21.6466C16.9141 21.6366 16.9341 21.6266 16.9541 21.6266C17.1241 21.6366 17.2541 21.5566 17.3741 21.4466H17.3841C17.4541 21.4466 17.4941 21.4067 17.5341 21.3567C17.5441 21.3567 17.5541 21.3366 17.5641 21.3366C17.5941 21.3266 17.6141 21.3067 17.6441 21.2967C17.6441 21.2967 17.6541 21.2766 17.6641 21.2766C17.6941 21.2666 17.7141 21.2567 17.7441 21.2367C17.7841 21.2067 17.8141 21.1766 17.8541 21.1466C17.9141 21.1266 17.9741 21.1166 18.0241 21.0766C19.8041 19.9466 21.2141 18.4767 22.2041 16.6067C22.5041 16.0367 22.7041 15.4267 22.9741 14.8467V14.8166Z" fill="#72C3E7"/>
<path d="M49.3943 15.3164C41.8343 15.3164 34.2743 15.3164 26.7143 15.3164C26.5243 15.3164 26.4043 15.3165 26.4043 15.0565C26.4043 14.7765 26.5643 14.8164 26.7243 14.8164C40.4743 14.8164 54.2143 14.8164 67.9643 14.8164C69.3543 14.8164 70.7443 14.8164 72.1343 14.8164C72.3243 14.8164 72.4443 14.8164 72.4443 15.0764C72.4443 15.3564 72.2843 15.3164 72.1143 15.3164C64.5343 15.3164 56.9643 15.3164 49.3843 15.3164H49.3943Z" fill="#8E9090"/>
<path d="M63.1742 13.0257C62.7442 13.0257 62.1742 13.0557 61.6142 12.9657C60.3742 12.7757 59.5642 12.0757 59.2342 10.8657C58.9742 9.94573 58.9842 9.0057 59.2642 8.0857C59.6442 6.8557 60.6442 6.10573 61.9442 6.05573C62.7642 6.02573 63.5942 6.05572 64.4142 6.04572C64.5742 6.04572 64.6142 6.10574 64.6142 6.24574C64.6142 6.61574 64.6042 6.97571 64.6142 7.34571C64.6142 7.51571 64.5542 7.55573 64.3942 7.55573C63.8842 7.55573 63.3742 7.55573 62.8642 7.55573C62.6942 7.55573 62.5242 7.56571 62.3542 7.59571C61.7542 7.67571 61.3642 7.9957 61.2242 8.5857C61.0742 9.2357 61.0542 9.8857 61.2442 10.5257C61.4242 11.1557 61.8442 11.4757 62.5042 11.4857C63.1242 11.5057 63.7442 11.5057 64.3542 11.4857C64.5542 11.4857 64.6242 11.5457 64.6142 11.7457C64.6042 12.1057 64.6142 12.4657 64.6142 12.8157C64.6142 12.9657 64.5542 13.0257 64.4142 13.0157C64.0442 13.0157 63.6842 13.0157 63.1742 13.0157V13.0257Z" fill="#8F9191"/>
<path d="M22.974 14.8162C22.714 15.3962 22.504 16.0062 22.204 16.5762C21.224 18.4462 19.804 19.9162 18.024 21.0462C17.974 21.0762 17.914 21.0962 17.854 21.1162C17.854 20.9962 17.974 20.9762 18.054 20.9162C18.484 20.6062 18.894 20.2662 19.274 19.8862C19.284 19.8662 19.304 19.8462 19.314 19.8262C19.434 19.7962 19.504 19.7362 19.524 19.6162C19.524 19.6162 19.574 19.5962 19.574 19.5662C19.574 19.5662 19.624 19.5462 19.624 19.5162C19.624 19.5162 19.674 19.4962 19.674 19.4662C19.674 19.4662 19.714 19.4362 19.734 19.4262C20.314 18.7962 20.804 18.1062 21.234 17.3662C21.284 17.3462 21.294 17.2962 21.284 17.2562C21.354 17.2562 21.344 17.1962 21.344 17.1462C21.344 17.1462 21.394 17.1262 21.404 17.0962C21.404 17.0962 21.444 17.0262 21.464 16.9862C21.464 16.9862 21.504 16.9162 21.524 16.8762C21.524 16.8762 21.564 16.8062 21.584 16.7662C21.584 16.7662 21.624 16.6962 21.644 16.6562C21.694 16.6162 21.714 16.5662 21.704 16.4962C21.824 16.4262 21.834 16.2962 21.874 16.1762C21.944 16.0862 22.004 15.9762 21.984 15.8562C22.304 15.2262 22.464 14.5462 22.564 13.8462C22.574 13.8162 22.584 13.7962 22.604 13.7662C22.964 11.4562 22.704 9.21618 21.744 7.07618C20.794 4.96618 19.274 3.36618 17.284 2.20618C14.364 0.506184 11.294 0.156206 8.07397 1.16621C6.75397 1.57621 5.57398 2.27619 4.50398 3.14619C4.44398 3.14619 4.39398 3.14619 4.33398 3.14619C6.06398 1.53619 8.09398 0.536186 10.424 0.146186C10.674 0.106186 10.934 0.0661914 11.184 0.0261914C12.594 -0.0638086 13.974 0.0762036 15.324 0.476204C17.634 1.1562 19.564 2.42617 21.044 4.31617C23.024 6.84617 23.784 9.7162 23.384 12.9062C23.324 13.4162 23.204 13.9062 23.094 14.4062C23.044 14.4562 23.034 14.5262 23.044 14.5962C22.984 14.6562 22.974 14.7262 22.984 14.8062L22.974 14.8162Z" fill="#A13527"/>
<path d="M40.7242 20.7465C41.2242 21.3965 41.6042 22.0865 42.0242 22.7465C42.0642 22.8065 42.1442 22.8665 42.1042 22.9365C42.0642 23.0265 41.9642 22.9865 41.8842 22.9865C41.0742 22.9965 41.0742 22.9865 40.6542 22.3165C40.4142 21.9265 40.1542 21.5565 39.9042 21.1665C39.7842 20.9765 39.6042 20.8965 39.3842 20.8865C39.0642 20.8865 38.7342 20.8865 38.4142 20.8865C38.2442 20.8865 38.2042 20.9565 38.2042 21.1065C38.2042 21.6565 38.2042 22.1965 38.2042 22.7465C38.2042 22.9365 38.1542 22.9865 37.9642 22.9965C37.2842 22.9965 37.2842 23.0065 37.2842 22.3165C37.2842 20.7165 37.2842 19.1065 37.2842 17.5065C37.2842 17.2765 37.3242 17.1865 37.5842 17.1865C38.4442 17.2065 39.3042 17.1865 40.1642 17.2065C40.6542 17.2165 41.1242 17.3465 41.4842 17.7065C42.3442 18.5765 42.0142 20.2165 40.8942 20.6865C40.8442 20.7065 40.7942 20.7265 40.7242 20.7565V20.7465ZM39.2642 19.9865C39.5642 19.9865 39.8542 20.0065 40.1442 19.9865C40.7342 19.9465 40.9742 19.6865 40.9942 19.0965C41.0142 18.3765 40.7942 18.1265 40.0542 18.0465C39.5042 17.9865 38.9442 18.0365 38.3942 18.0165C38.2242 18.0165 38.2142 18.1065 38.2142 18.2365C38.2142 18.7565 38.2142 19.2765 38.2142 19.7965C38.2142 19.9765 38.2842 20.0065 38.4342 19.9965C38.7142 19.9965 38.9842 19.9965 39.2642 19.9965V19.9865Z" fill="#8F9191"/>
<path d="M59.6544 22.9758C59.2844 22.9758 58.9844 22.9758 58.6844 22.9758C58.5444 22.9758 58.5044 22.8758 58.4444 22.7858C58.1244 22.2858 57.8044 21.7958 57.4944 21.2958C57.3244 21.0258 57.1044 20.8658 56.7744 20.8758C56.4844 20.8758 56.2044 20.8758 55.9144 20.8558C55.7544 20.8558 55.6944 20.9058 55.6944 21.0758C55.6944 21.6358 55.6944 22.1859 55.6944 22.7459C55.6944 22.9359 55.6344 22.9858 55.4544 22.9858C54.7744 22.9858 54.7744 22.9858 54.7744 22.3258C54.7744 20.7058 54.7744 19.0858 54.7744 17.4558C54.7744 17.2258 54.8344 17.1658 55.0544 17.1758C55.9144 17.1958 56.7744 17.1758 57.6344 17.1958C58.1544 17.2058 58.6444 17.3458 59.0144 17.7458C59.7944 18.5958 59.4644 20.2158 58.3944 20.6558C58.1844 20.7458 58.2144 20.7858 58.3244 20.9458C58.7944 21.5758 59.1744 22.2658 59.6344 22.9858L59.6544 22.9758ZM56.7344 19.9858C57.0144 19.9858 57.2844 19.9858 57.5644 19.9858C58.1844 19.9558 58.4344 19.7458 58.4644 19.1258C58.4844 18.5558 58.3944 18.1158 57.5844 18.0458C57.0244 17.9958 56.4544 18.0258 55.8944 18.0158C55.7544 18.0158 55.6844 18.0458 55.6844 18.2058C55.6844 18.7458 55.6844 19.2758 55.6844 19.8158C55.6844 19.9558 55.7244 20.0058 55.8644 19.9958C56.1544 19.9958 56.4344 19.9958 56.7244 19.9958L56.7344 19.9858Z" fill="#8F9191"/>
<path d="M48.324 20.1158C48.304 19.6458 48.364 19.1858 48.514 18.7458C48.774 17.9858 49.294 17.4858 50.064 17.2758C50.814 17.0658 51.5741 17.0658 52.3041 17.3258C53.2541 17.6658 53.6841 18.4158 53.8341 19.3558C53.9441 20.0458 53.9041 20.7258 53.6841 21.3958C53.4241 22.1858 52.894 22.7058 52.094 22.9258C51.414 23.1158 50.7241 23.1058 50.0541 22.9258C49.0141 22.6458 48.374 21.7558 48.324 20.5458C48.324 20.4058 48.324 20.2558 48.324 20.1158ZM49.284 20.0658C49.274 20.4358 49.3041 20.7758 49.3941 21.1158C49.5541 21.6958 49.924 22.0558 50.524 22.1658C50.814 22.2158 51.1141 22.2058 51.4041 22.1958C52.1441 22.1558 52.634 21.7358 52.794 21.0058C52.914 20.4558 52.9141 19.9058 52.8341 19.3558C52.7341 18.7358 52.4741 18.2158 51.8041 18.0658C51.3741 17.9658 50.9341 17.9658 50.5041 18.0458C49.9041 18.1458 49.564 18.5158 49.404 19.0858C49.314 19.4158 49.284 19.7558 49.294 20.0758L49.284 20.0658Z" fill="#8F9191"/>
<path d="M58.5942 9.51611C58.5942 10.5861 58.5942 11.6661 58.5942 12.7361C58.5942 12.9461 58.5342 13.0161 58.3242 13.0061C57.8042 12.9961 57.2842 12.9961 56.7642 13.0061C56.5942 13.0061 56.5342 12.9561 56.5342 12.7761C56.5342 10.5961 56.5342 8.42615 56.5342 6.24615C56.5342 6.07615 56.5942 6.03613 56.7542 6.03613C57.2942 6.03613 57.8242 6.04613 58.3642 6.03613C58.5642 6.03613 58.5942 6.10613 58.5942 6.28613C58.5942 7.35613 58.5942 8.4361 58.5942 9.5061V9.51611Z" fill="#8E9090"/>
<path d="M42.9939 20.0564C42.9939 19.1764 42.9939 18.2963 42.9939 17.4263C42.9939 17.2463 43.0439 17.1763 43.2339 17.1763C44.0939 17.1863 44.9539 17.1563 45.8139 17.1963C46.5339 17.2263 47.1639 17.4663 47.5339 18.1563C47.9139 18.8663 47.8039 19.9863 47.3039 20.5663C46.9439 20.9763 46.4539 21.1063 45.9439 21.1763C45.3639 21.2463 44.7839 21.2163 44.1939 21.2163C43.9939 21.2163 43.9339 21.2763 43.9339 21.4763C43.9439 21.8963 43.9339 22.3163 43.9339 22.7363C43.9339 22.9163 43.8939 22.9864 43.6939 22.9964C42.9839 22.9964 42.9839 23.0163 42.9839 22.2963C42.9839 21.5563 42.9839 20.8063 42.9839 20.0663L42.9939 20.0564ZM43.9439 19.1763C43.9439 19.5063 43.9439 19.8363 43.9439 20.1763C43.9439 20.2663 43.9439 20.3663 44.0739 20.3563C44.7339 20.3363 45.4039 20.4163 46.0639 20.2963C46.3739 20.2363 46.6139 20.0563 46.6939 19.7363C46.7539 19.4763 46.7839 19.2064 46.7439 18.9364C46.6439 18.3364 46.3739 18.0863 45.7639 18.0363C45.2339 17.9963 44.7039 18.0064 44.1739 17.9964C43.9839 17.9964 43.9439 18.0663 43.9539 18.2363C43.9539 18.5463 43.9539 18.8663 43.9539 19.1763H43.9439Z" fill="#8F9191"/>
<path d="M67.8444 17.1758C68.3544 17.1758 68.7744 17.1758 69.2044 17.1758C69.3544 17.1758 69.4044 17.2257 69.4044 17.3757C69.4244 18.0057 69.4344 17.9957 68.7944 18.0057C68.0844 18.0057 67.3744 17.9758 66.6744 18.0358C66.3944 18.0558 66.1544 18.1458 66.0444 18.4158C65.9144 18.7258 65.8944 19.0558 66.0744 19.3458C66.2144 19.5758 66.4744 19.6058 66.7144 19.6058C67.1744 19.6058 67.6244 19.6058 68.0844 19.6158C69.2944 19.6658 69.9544 20.5458 69.6644 21.7258C69.4944 22.4158 68.9644 22.8658 68.1944 22.9358C67.2244 23.0258 66.2444 22.9957 65.2644 22.9557C64.8844 22.9457 65.1744 22.5458 65.1044 22.3458C65.0544 22.2058 65.1244 22.1257 65.2944 22.1257C66.0844 22.1257 66.8744 22.1257 67.6644 22.1257C67.7744 22.1257 67.8844 22.1257 67.9844 22.1257C68.6444 22.0357 68.9744 21.3457 68.6344 20.7657C68.5044 20.5457 68.2844 20.4758 68.0444 20.4658C67.5244 20.4458 67.0044 20.4858 66.4844 20.4358C65.5744 20.3458 65.0344 19.8258 65.0144 18.9058C64.9944 18.0758 65.4044 17.4657 66.3244 17.2557C66.8544 17.1357 67.3944 17.2158 67.8344 17.1858L67.8444 17.1758Z" fill="#8F9191"/>
<path d="M33.6839 22.976C33.1639 22.966 33.2739 23.066 33.0639 22.546C32.9439 22.246 32.8239 21.946 32.7139 21.646C32.6639 21.496 32.5839 21.436 32.4239 21.436C31.8139 21.436 31.2039 21.436 30.5939 21.436C30.4139 21.436 30.3439 21.506 30.2839 21.656C30.1339 22.036 29.9639 22.396 29.8239 22.776C29.7639 22.926 29.6839 22.986 29.5239 22.976C29.2839 22.956 28.9639 23.086 28.8439 22.916C28.7439 22.776 28.9639 22.496 29.0539 22.286C29.7039 20.656 30.3539 19.026 30.9939 17.396C31.0639 17.226 31.1439 17.166 31.3239 17.166C32.0039 17.166 32.0039 17.166 32.2339 17.786C32.8439 19.396 33.4539 21.016 34.0739 22.626C34.2039 22.976 34.2039 22.966 33.8539 22.966C33.8039 22.966 33.7439 22.966 33.6939 22.966L33.6839 22.976ZM31.4939 18.376C31.2739 19.116 30.9839 19.796 30.7139 20.486C30.6639 20.616 30.7339 20.616 30.8239 20.616C31.2639 20.616 31.7039 20.616 32.1439 20.616C32.2839 20.616 32.2839 20.566 32.2439 20.456C31.9939 19.776 31.7539 19.096 31.4939 18.376Z" fill="#8F9191"/>
<path d="M61.8241 20.4658C61.8241 19.7258 61.8241 18.9758 61.8241 18.2358C61.8241 18.0558 61.7741 18.0057 61.5941 18.0057C61.1341 18.0157 60.6841 18.0057 60.2241 18.0057C60.0441 18.0057 59.9741 17.9657 59.9741 17.7657C59.9741 17.1757 59.9741 17.1758 60.5641 17.1758C61.8241 17.1758 63.0941 17.1758 64.3541 17.1758C64.5841 17.1758 64.6341 17.2458 64.6341 17.4658C64.6241 18.0058 64.6341 18.0057 64.1041 18.0057C63.7541 18.0057 63.4041 18.0157 63.0541 18.0057C62.8441 17.9957 62.7841 18.0558 62.7841 18.2758C62.7841 19.7358 62.7841 21.1958 62.7941 22.6558C62.7941 22.8958 62.7441 22.9758 62.4841 22.9758C61.8141 22.9558 61.8141 22.9758 61.8141 22.2958C61.8141 21.6858 61.8141 21.0758 61.8141 20.4658H61.8241Z" fill="#8E9090"/>
<path d="M35.9541 20.0657C35.9541 20.9457 35.9541 21.8157 35.9541 22.6957C35.9541 22.9057 35.9141 22.9957 35.6741 22.9857C34.9741 22.9757 34.9741 22.9857 34.9741 22.2757C34.9741 20.6657 34.9741 19.0557 34.9741 17.4457C34.9741 17.2357 35.0241 17.1657 35.2441 17.1757C35.9541 17.1757 35.9541 17.1757 35.9541 17.8857V20.0557V20.0657Z" fill="#8F9191"/>
<path d="M39.0738 2.77582C39.3638 3.25582 39.6438 3.70584 39.9238 4.17584C39.5705 4.23584 39.3105 4.12917 39.1438 3.85584C39.0038 3.61584 38.8538 3.38581 38.7138 3.14581C38.5738 2.90581 38.3638 2.8158 38.0838 2.8158C37.4338 2.8158 37.4338 2.81581 37.4338 3.45581C37.4338 3.60581 37.4138 3.76583 37.4338 3.91583C37.4638 4.17583 37.3638 4.23583 37.1238 4.22583C36.9338 4.22583 36.9038 4.14584 36.9138 3.98584C36.9138 2.91584 36.9138 1.83581 36.9138 0.76581C36.9138 0.58581 36.9538 0.51582 37.1538 0.52582C37.7638 0.54582 38.3738 0.475798 38.9738 0.565798C39.5938 0.655798 39.8338 0.945798 39.9038 1.5658C39.9638 2.1058 39.7238 2.51585 39.2138 2.74585C39.1738 2.76585 39.1338 2.78585 39.0738 2.80585V2.77582ZM38.1838 2.34583C38.3738 2.34583 38.5638 2.35583 38.7438 2.34583C39.1538 2.31583 39.3338 2.09581 39.3338 1.64581C39.3338 1.17581 39.1738 0.975812 38.7438 0.955812C38.3738 0.935812 37.9938 0.955803 37.6138 0.945803C37.4738 0.945803 37.4238 0.985795 37.4238 1.1258C37.4238 1.4758 37.4238 1.82584 37.4238 2.17584C37.4238 2.31584 37.4738 2.36584 37.6138 2.35584C37.8038 2.35584 37.9938 2.35584 38.1738 2.35584L38.1838 2.34583Z" fill="#919393"/>
<path d="M69.2141 3.3765V2.33652C69.2141 1.82652 69.2141 1.31655 69.2141 0.806552C69.2141 0.526552 69.3841 0.406503 69.6541 0.506503C69.7341 0.536503 69.7341 0.596527 69.7341 0.656527C69.7341 1.78653 69.7341 2.91654 69.7341 4.04654C69.7341 4.11654 69.7341 4.21652 69.6441 4.20652C69.4541 4.19652 69.2341 4.30655 69.0941 4.05655C68.8041 3.57655 68.4941 3.0965 68.1941 2.6265C67.9141 2.1865 67.6341 1.73655 67.3041 1.30655V2.30655C67.3041 2.85655 67.3041 3.39651 67.3041 3.94651C67.3041 4.12651 67.2441 4.17655 67.0741 4.17655C66.8941 4.17655 66.8241 4.13651 66.8241 3.94651C66.8241 2.91651 66.8241 1.88654 66.8341 0.85654C66.8341 0.74654 66.7341 0.546523 66.9341 0.526523C67.1241 0.506523 67.3441 0.436506 67.4941 0.696506C67.8941 1.36651 68.3141 2.01655 68.7241 2.67655C68.8741 2.90655 69.0041 3.14651 69.1441 3.38651C69.1641 3.38651 69.1741 3.38651 69.1941 3.38651L69.2141 3.3765Z" fill="#919393"/>
<path d="M51.404 2.77588C51.674 3.20588 51.9239 3.61589 52.1939 4.03589C52.2639 4.15589 52.2639 4.20589 52.1039 4.21589C51.8339 4.24589 51.6439 4.1859 51.5239 3.9159C51.4039 3.6659 51.2339 3.44588 51.0939 3.20588C50.9439 2.94588 50.7339 2.81586 50.4139 2.81586C49.7239 2.82586 49.7239 2.81587 49.7239 3.51587C49.7239 3.68587 49.7239 3.85588 49.7239 4.02588C49.7439 4.25588 49.5839 4.20588 49.4539 4.20588C49.3139 4.21588 49.2239 4.20586 49.2239 4.00586C49.2239 2.90586 49.2239 1.80587 49.2239 0.695867C49.2239 0.595867 49.2039 0.495916 49.3639 0.495916C50.0039 0.515916 50.6439 0.435894 51.2739 0.535894C51.8439 0.615894 52.1539 0.945909 52.1939 1.42591C52.2539 2.14591 52.054 2.4959 51.464 2.7259C51.444 2.7259 51.434 2.74587 51.404 2.76587V2.77588ZM50.5039 2.3559V2.33588C50.7139 2.33588 50.9139 2.35588 51.1239 2.33588C51.5339 2.29588 51.7139 2.06591 51.7039 1.61591C51.7039 1.19591 51.5139 0.975867 51.0939 0.945867C50.8839 0.925867 50.6639 0.935919 50.4439 0.935919C49.7639 0.935919 49.7539 0.935911 49.7639 1.61591C49.7639 1.85591 49.6539 2.16591 49.8139 2.30591C49.9539 2.42591 50.2539 2.3459 50.4939 2.3559H50.5039Z" fill="#8F9191"/>
<path d="M34.184 0.456269C35.464 0.476269 35.944 1.3063 35.914 2.4263C35.914 2.8363 35.844 3.24628 35.574 3.59628C35.124 4.17628 34.484 4.24631 33.824 4.18631C32.944 4.09631 32.434 3.52626 32.384 2.63626C32.364 2.24626 32.364 1.84628 32.504 1.46628C32.754 0.786279 33.334 0.446269 34.174 0.456269H34.184ZM32.874 2.39627C32.874 2.51627 32.874 2.62631 32.874 2.74631C32.924 3.32631 33.204 3.68628 33.714 3.77628C34.004 3.82628 34.304 3.82626 34.594 3.75626C34.924 3.67626 35.144 3.47628 35.254 3.15628C35.394 2.72628 35.404 2.29629 35.314 1.85629C35.184 1.20629 34.874 0.94631 34.204 0.93631C34.124 0.93631 34.044 0.93631 33.964 0.93631C33.364 0.95631 33.044 1.22631 32.914 1.80631C32.874 1.99631 32.874 2.19627 32.874 2.39627Z" fill="#919393"/>
<path d="M48.2642 2.47576C48.2442 2.96576 48.1442 3.55579 47.5642 3.93579C46.8342 4.41579 45.5842 4.28576 45.0942 3.65576C44.6942 3.14576 44.6742 2.53577 44.7642 1.91577C44.8442 1.37577 45.0542 0.915767 45.5742 0.665767C46.9642 -0.00423278 48.2642 0.805775 48.2642 2.48577V2.47576ZM46.4742 3.80578C47.1842 3.80578 47.5342 3.56576 47.6542 2.96575C47.7342 2.55575 47.7442 2.13575 47.6342 1.71575C47.5242 1.28575 47.2642 1.02575 46.8342 0.955745C46.5542 0.915745 46.2642 0.915765 45.9842 0.975765C45.6442 1.05576 45.4342 1.26574 45.3242 1.57574C45.2042 1.90574 45.1942 2.25577 45.2142 2.60577C45.2642 3.43577 45.6542 3.79577 46.4742 3.79577V3.80578Z" fill="#919393"/>
<path d="M62.3043 2.34643C62.2743 1.88643 62.3543 1.44641 62.6343 1.07641C63.0943 0.476412 63.7443 0.386456 64.4243 0.496456C65.2843 0.626456 65.7643 1.21642 65.8043 2.08642C65.8243 2.61642 65.8142 3.15643 65.4742 3.59643C65.0142 4.20643 64.3443 4.25645 63.6743 4.17645C62.8143 4.07645 62.3443 3.52644 62.3043 2.66644C62.3043 2.55644 62.3043 2.45643 62.3043 2.34643ZM65.2643 2.38641C65.2643 2.29641 65.2743 2.20645 65.2643 2.11645C65.2043 1.65645 65.1143 1.19641 64.6043 1.01641C64.2643 0.896415 63.9143 0.906436 63.5743 0.976436C63.1743 1.05644 62.9543 1.30646 62.8543 1.68646C62.7243 2.15646 62.7343 2.62642 62.8543 3.08642C62.9143 3.30642 63.0242 3.4964 63.2242 3.6264C64.0842 4.1864 65.1342 3.70642 65.2542 2.70642C65.2642 2.59642 65.2542 2.49641 65.2542 2.38641H65.2643Z" fill="#919393"/>
<path d="M40.9039 2.31637C40.9039 1.78637 40.9039 1.25642 40.9039 0.736417C40.9039 0.646417 40.8639 0.516385 41.0239 0.516385C41.6739 0.536385 42.3339 0.456424 42.9739 0.556424C43.7439 0.676424 43.9739 1.25637 43.9239 1.87637C43.8639 2.63637 43.4539 2.98639 42.6439 3.02639C42.3039 3.04639 41.9639 3.03639 41.6239 3.02639C41.4739 3.02639 41.4139 3.06641 41.4239 3.22641C41.4239 3.47641 41.4239 3.72641 41.4239 3.97641C41.4339 4.19641 41.2939 4.16641 41.1639 4.16641C41.0339 4.16641 40.8739 4.19641 40.9039 3.97641C40.9039 3.97641 40.9039 3.95638 40.9039 3.94638C40.9039 3.39638 40.9039 2.85642 40.9039 2.30642V2.31637ZM41.4739 1.74643C41.4739 2.00643 41.4739 2.22643 41.4739 2.43643C41.4739 2.53643 41.4939 2.60641 41.6239 2.60641C42.0439 2.58641 42.4639 2.64642 42.8839 2.55642C43.2939 2.47642 43.4339 2.25642 43.4339 1.73642C43.4339 1.27642 43.2639 1.05643 42.8639 0.996426C42.6739 0.966426 42.4839 0.966407 42.3039 0.976407C42.0439 0.986407 41.7039 0.856404 41.5339 1.0364C41.3739 1.2064 41.5039 1.53643 41.4839 1.74643H41.4739Z" fill="#919393"/>
<path d="M56.0642 4.20612C55.8542 4.25612 55.7842 4.13612 55.7242 3.95612C55.4542 3.18612 55.4442 3.18616 54.6442 3.18616C53.8442 3.18616 53.8742 3.18614 53.5842 3.91614C53.5142 4.09614 53.4542 4.22612 53.2142 4.20612C53.0142 4.18612 52.9642 4.15612 53.0442 3.95612C53.3542 3.20612 53.6542 2.44611 53.9642 1.69611C54.0942 1.38611 54.2342 1.06615 54.3342 0.746155C54.3942 0.556155 54.5042 0.536133 54.6742 0.536133C54.8342 0.536133 54.9542 0.546145 55.0242 0.736145C55.4342 1.82615 55.8542 2.90614 56.2842 3.97614C56.4042 4.28614 56.1642 4.16616 56.0542 4.18616L56.0642 4.20612ZM54.6542 1.08612C54.4342 1.66612 54.2342 2.2061 54.0342 2.7561H55.2642C55.0642 2.1961 54.8642 1.65612 54.6542 1.08612Z" fill="#919393"/>
<path d="M30.874 4.11591C30.764 4.11591 30.654 4.11591 30.554 4.11591C29.584 4.18591 29.044 3.6159 28.934 2.7359C28.844 2.0259 28.924 1.35589 29.504 0.845886C29.734 0.645886 30.014 0.535879 30.314 0.525879C30.724 0.505879 31.134 0.525859 31.554 0.505859C31.734 0.505859 31.734 0.595891 31.734 0.725891C31.734 0.865891 31.704 0.945913 31.534 0.935913C31.194 0.935913 30.854 0.935913 30.514 0.935913C29.974 0.945913 29.664 1.18588 29.524 1.71588C29.414 2.11588 29.414 2.53591 29.524 2.93591C29.674 3.44591 29.974 3.67591 30.504 3.68591C30.834 3.68591 31.164 3.69591 31.494 3.68591C31.664 3.68591 31.714 3.74588 31.714 3.90588C31.714 4.06588 31.674 4.13585 31.504 4.12585C31.294 4.11585 31.074 4.12585 30.854 4.12585L30.874 4.11591Z" fill="#919393"/>
<path d="M58.8441 4.11609C58.6841 4.11609 58.5242 4.11609 58.3642 4.11609C57.6842 4.11609 57.2142 3.79606 57.0042 3.14606C56.8042 2.53606 56.8141 1.92606 57.0941 1.33606C57.3341 0.82606 57.7542 0.566052 58.3042 0.516052C58.7042 0.476052 59.1142 0.516094 59.5142 0.496094C59.6842 0.496094 59.6942 0.576064 59.6942 0.716064C59.6942 0.846064 59.6842 0.936096 59.5042 0.936096C59.2142 0.926096 58.9342 0.936096 58.6442 0.936096C57.8942 0.936096 57.5942 1.1961 57.4542 1.9361C57.3942 2.2761 57.4142 2.61604 57.5042 2.94604C57.6342 3.41604 57.9442 3.6661 58.4442 3.6861C58.7942 3.6961 59.1442 3.7061 59.4942 3.6861C59.6842 3.6861 59.6842 3.77608 59.6942 3.91608C59.6942 4.06608 59.6542 4.12609 59.4942 4.11609C59.2842 4.10609 59.0641 4.11609 58.8441 4.11609Z" fill="#919393"/>
<path d="M61.1843 2.34611C61.1843 2.88611 61.1743 3.4161 61.1843 3.9561C61.1843 4.1761 61.0743 4.16613 60.9143 4.17613C60.7543 4.17613 60.6743 4.1561 60.6743 3.9561C60.6743 2.8761 60.6843 1.79611 60.6743 0.71611C60.6743 0.50611 60.7843 0.516098 60.9243 0.516098C61.0643 0.516098 61.1843 0.49611 61.1743 0.71611C61.1643 1.25611 61.1743 1.80612 61.1743 2.35612L61.1843 2.34611Z" fill="#8E9090"/>
<path d="M22.9743 14.8167C22.9543 14.7367 22.9743 14.6567 23.0343 14.5967C23.0343 14.6767 23.0643 14.7567 22.9743 14.8167Z" fill="#72C3E7"/>
<path d="M23.0342 14.606C23.0342 14.536 23.0342 14.466 23.0842 14.416C23.0842 14.486 23.1042 14.556 23.0342 14.606Z" fill="#72C3E7"/>
<path d="M19.2844 19.8857C18.9044 20.2557 18.4944 20.5957 18.0644 20.9157C17.9944 20.9657 17.8744 20.9957 17.8644 21.1157C17.8344 21.1157 17.7944 21.1257 17.7644 21.1357C17.6844 21.1357 17.6644 21.1658 17.6844 21.2458C17.6844 21.2458 17.6644 21.2557 17.6644 21.2657C17.6344 21.2657 17.5744 21.2157 17.5844 21.3057C17.5744 21.3057 17.5644 21.3257 17.5544 21.3257C17.4644 21.2657 17.3944 21.2657 17.4044 21.4057H17.3944C17.2144 21.3757 17.1044 21.5057 16.9744 21.5957C16.9644 21.5957 16.9444 21.6057 16.9344 21.6157H16.9144V21.6357C16.9144 21.6357 16.8444 21.6657 16.8244 21.6757H16.8044V21.6957C16.8044 21.6957 16.7444 21.7257 16.7244 21.7357C16.6944 21.7257 16.6644 21.7257 16.6644 21.7657C16.6444 21.7657 16.6344 21.7757 16.6244 21.7857H16.6044C16.6044 21.7857 16.5644 21.8257 16.5544 21.8357C16.5344 21.8357 16.5144 21.8557 16.4944 21.8657C15.3244 22.4257 14.1044 22.7957 12.8044 22.9057C10.7744 23.0757 8.83436 22.7257 6.99436 21.8357C6.90436 21.7957 6.81436 21.7757 6.71436 21.7657C6.71436 21.7457 6.70437 21.7357 6.69437 21.7157C6.69437 21.7157 6.66436 21.6657 6.63436 21.6657C6.63436 21.6657 6.57436 21.6057 6.52436 21.6057C6.52436 21.6057 6.46436 21.5557 6.41436 21.5457C6.41436 21.5457 6.35437 21.4858 6.30437 21.4958C6.28437 21.4458 6.24437 21.4357 6.19437 21.4457C6.14437 21.3757 6.08437 21.3157 5.97437 21.3357C5.99437 21.2757 5.95436 21.2857 5.91436 21.2857C5.88436 21.2057 5.82437 21.1757 5.75437 21.1757C5.72437 21.0957 5.63436 21.0657 5.57436 21.0257C3.69436 19.7357 2.32437 18.0357 1.51437 15.9157C0.414365 13.0257 0.424371 10.1057 1.75437 7.30575C3.65437 3.29575 6.87436 1.1157 11.3244 0.875695C13.7244 0.745695 15.9244 1.44571 17.8944 2.82571C19.9444 4.26571 21.3144 6.20575 22.1144 8.55575C22.6644 10.1557 22.7544 11.8157 22.5244 13.4857C22.5144 13.5857 22.5044 13.6657 22.5644 13.7557C22.5544 13.7857 22.5444 13.8057 22.5244 13.8357C22.5044 13.8557 22.4644 13.8857 22.4544 13.9057C22.3444 14.5757 22.1244 15.2057 21.9444 15.8557C21.8644 15.9457 21.8144 16.0457 21.8344 16.1757C21.7144 16.2457 21.7044 16.3758 21.6644 16.4958C21.5944 16.5258 21.6044 16.5957 21.6044 16.6557C21.5344 16.6557 21.5544 16.7157 21.5444 16.7657C21.4744 16.7657 21.4944 16.8257 21.4844 16.8757C21.4144 16.8757 21.4344 16.9357 21.4244 16.9857C21.3544 16.9857 21.3744 17.0457 21.3644 17.0957C21.3644 17.0957 21.3144 17.1157 21.3044 17.1457C21.3044 17.1457 21.2444 17.2057 21.2444 17.2557C21.1844 17.2657 21.1944 17.3157 21.1944 17.3657C20.7744 18.1057 20.2744 18.7957 19.6944 19.4257C19.6744 19.4357 19.6544 19.4557 19.6344 19.4657C19.6344 19.4657 19.6044 19.5057 19.5844 19.5157C19.5844 19.5157 19.5544 19.5557 19.5344 19.5657C19.5344 19.5657 19.5044 19.6057 19.4844 19.6157C19.4144 19.6857 19.3444 19.7557 19.2744 19.8357C19.2744 19.8357 19.2444 19.8757 19.2344 19.8957L19.2844 19.8857ZM7.59437 21.8157C7.84437 21.9557 8.12437 22.0457 8.40437 22.1257C9.77437 22.5957 11.1744 22.7557 12.6144 22.6357C15.0944 22.4257 17.2644 21.4857 19.0644 19.7757C22.9144 16.1457 23.5444 10.0957 20.4544 5.79574C17.8244 2.12574 14.2044 0.615717 9.72437 1.33572C7.75437 1.65572 6.03436 2.54571 4.54436 3.89571C3.96436 4.42571 3.45437 5.01573 3.00437 5.66573C2.96437 5.69573 2.92437 5.73574 2.95437 5.79574C2.84437 5.79574 2.82437 5.89572 2.78437 5.96572C1.77437 7.53572 1.16437 9.2457 1.06437 11.1257C1.05437 11.1457 1.03437 11.1757 1.03437 11.1957C0.95437 12.5257 1.09437 13.8357 1.50437 15.1057C2.17437 17.1857 3.32436 18.9357 5.02436 20.3157C5.76436 20.9157 6.55436 21.4457 7.46436 21.7757C7.48436 21.8257 7.53436 21.8257 7.57436 21.8257L7.59437 21.8157Z" fill="#FD570B"/>
<path d="M4.47409 3.13574C4.25409 3.42574 3.99408 3.65576 3.68408 3.84576C3.80408 3.53576 4.07409 3.35575 4.31409 3.14575C4.37409 3.14575 4.42409 3.14575 4.48409 3.14575L4.47409 3.13574Z" fill="#8E9090"/>
<path d="M16.9639 21.5859C17.0939 21.4959 17.2039 21.3659 17.3839 21.4059C17.2639 21.5159 17.1339 21.5959 16.9639 21.5859Z" fill="#919393"/>
<path d="M5.97412 21.3262C6.07412 21.3062 6.13412 21.3662 6.19412 21.4362C6.09412 21.4462 6.02412 21.4162 5.97412 21.3262Z" fill="#FAF6F5"/>
<path d="M5.76416 21.166C5.84416 21.166 5.90416 21.196 5.92416 21.276C5.83416 21.286 5.76416 21.276 5.76416 21.166Z" fill="#FAF6F5"/>
<path d="M17.394 21.396C17.394 21.256 17.454 21.266 17.544 21.316C17.504 21.356 17.464 21.396 17.394 21.396Z" fill="#919393"/>
<path d="M17.6742 21.236C17.6542 21.166 17.6742 21.126 17.7542 21.126C17.7542 21.146 17.7542 21.176 17.7542 21.196C17.7242 21.206 17.7042 21.216 17.6742 21.236Z" fill="#919393"/>
<path d="M16.4741 21.8366C16.4741 21.8366 16.5141 21.8166 16.5341 21.8066C16.5341 21.8566 16.5041 21.8466 16.4741 21.8366Z" fill="#919393"/>
<path d="M6.19434 21.4365C6.19434 21.4365 6.28434 21.4365 6.30434 21.4965C6.25434 21.4965 6.20434 21.5065 6.19434 21.4365Z" fill="#FAF6F5"/>
<path d="M6.29395 21.4863C6.34395 21.4863 6.38395 21.4863 6.40395 21.5463C6.35395 21.5463 6.30395 21.5463 6.29395 21.4863Z" fill="#FAF6F5"/>
<path d="M6.4043 21.5459C6.4043 21.5459 6.4943 21.5559 6.5143 21.6059C6.4643 21.6059 6.4143 21.6059 6.4043 21.5459Z" fill="#FAF6F5"/>
<path d="M6.51416 21.5967C6.51416 21.5967 6.59416 21.6167 6.62416 21.6567C6.57416 21.6567 6.52416 21.6567 6.51416 21.5967Z" fill="#FAF6F5"/>
<path d="M16.6543 21.7465C16.6543 21.7465 16.6843 21.7064 16.7143 21.7164C16.7143 21.7564 16.6843 21.7665 16.6543 21.7465Z" fill="#919393"/>
<path d="M17.7542 21.1964C17.7542 21.1964 17.7542 21.1464 17.7542 21.1264C17.7842 21.1264 17.8241 21.1164 17.8541 21.1064C17.8141 21.1364 17.7841 21.1664 17.7441 21.1964H17.7542Z" fill="#A13527"/>
<path d="M17.574 21.2961C17.564 21.2061 17.614 21.256 17.654 21.256C17.624 21.266 17.604 21.2861 17.574 21.2961Z" fill="#919393"/>
<path d="M5.92432 21.2764C5.92432 21.2764 6.00431 21.2764 5.98431 21.3264C5.95431 21.3264 5.92432 21.3164 5.92432 21.2764Z" fill="#FAF6F5"/>
<path d="M16.9043 21.6167V21.5967H16.9343C16.9343 21.6167 16.9243 21.6267 16.9043 21.6067V21.6167Z" fill="#919393"/>
<path d="M16.7939 21.6763L16.804 21.6562H16.8139V21.6763H16.7939Z" fill="#919393"/>
<path d="M6.67432 21.7061C6.67432 21.7061 6.68432 21.736 6.69432 21.756C6.68432 21.746 6.67432 21.7261 6.67432 21.7061Z" fill="#FAF6F5"/>
<path d="M16.584 21.7766L16.594 21.7666H16.604V21.7866L16.584 21.7766Z" fill="#919393"/>
<path d="M6.61426 21.6563C6.61426 21.6563 6.68426 21.6562 6.67426 21.7062C6.65426 21.6862 6.63426 21.6662 6.61426 21.6563Z" fill="#FAF6F5"/>
<path d="M21.9541 15.8462C22.1341 15.1962 22.3641 14.5662 22.4641 13.8962C22.4641 13.8662 22.5041 13.8462 22.5341 13.8262C22.4341 14.5262 22.2741 15.2062 21.9541 15.8462Z" fill="#FAF6F5"/>
<path d="M21.6841 16.4863C21.7141 16.3663 21.7241 16.2362 21.8541 16.1562C21.8141 16.2762 21.8041 16.4063 21.6841 16.4863Z" fill="#FAF6F5"/>
<path d="M21.8443 16.166C21.8243 16.036 21.8743 15.9359 21.9543 15.8359C21.9743 15.9659 21.9143 16.066 21.8443 16.166Z" fill="#FAF6F5"/>
<path d="M19.3242 19.8262C19.3942 19.7562 19.4642 19.6862 19.5342 19.6162C19.5142 19.7362 19.4342 19.8062 19.3242 19.8262Z" fill="#919393"/>
<path d="M21.6343 16.6563C21.6343 16.5963 21.6243 16.5263 21.6943 16.4863C21.7043 16.5563 21.6943 16.6063 21.6343 16.6563Z" fill="#FAF6F5"/>
<path d="M21.2539 17.3463C21.2539 17.3463 21.2539 17.2563 21.3039 17.2363C21.3039 17.2863 21.3039 17.3263 21.2539 17.3463Z" fill="#FAF6F5"/>
<path d="M21.4143 17.0865C21.4143 17.0865 21.3943 16.9866 21.4743 16.9766L21.4143 17.0865Z" fill="#FAF6F5"/>
<path d="M21.574 16.7565C21.574 16.7565 21.554 16.6565 21.634 16.6465C21.614 16.6865 21.594 16.7265 21.574 16.7565Z" fill="#FAF6F5"/>
<path d="M21.4641 16.9762C21.4641 16.9762 21.4441 16.8762 21.5241 16.8662C21.5041 16.9062 21.4841 16.9462 21.4641 16.9762Z" fill="#FAF6F5"/>
<path d="M21.5242 16.8659C21.5242 16.8659 21.5042 16.7659 21.5842 16.7559C21.5642 16.7959 21.5442 16.8359 21.5242 16.8659Z" fill="#FAF6F5"/>
<path d="M21.3042 17.2458C21.3042 17.2458 21.3242 17.1557 21.3642 17.1357C21.3642 17.1857 21.3642 17.2358 21.3042 17.2458Z" fill="#FAF6F5"/>
<path d="M19.6943 19.4462C19.6943 19.4462 19.7343 19.4162 19.7543 19.4062C19.7343 19.4162 19.7143 19.4362 19.6943 19.4462Z" fill="#919393"/>
<path d="M19.644 19.4963C19.644 19.4963 19.674 19.4663 19.694 19.4463C19.694 19.4863 19.674 19.4963 19.644 19.4963Z" fill="#919393"/>
<path d="M19.5942 19.5559C19.5942 19.5559 19.6242 19.5259 19.6442 19.5059C19.6442 19.5459 19.6242 19.5559 19.5942 19.5559Z" fill="#919393"/>
<path d="M19.2842 19.8862C19.2842 19.8862 19.3142 19.8462 19.3242 19.8262C19.3142 19.8462 19.2942 19.8662 19.2842 19.8862Z" fill="#919393"/>
<path d="M19.5342 19.6066C19.5342 19.6066 19.5642 19.5766 19.5842 19.5566C19.5842 19.5866 19.5642 19.6066 19.5342 19.6066Z" fill="#919393"/>
<path d="M21.3643 17.1362C21.3643 17.1362 21.3743 17.0662 21.4243 17.0762C21.4243 17.1062 21.4143 17.1462 21.3643 17.1362Z" fill="#FAF6F5"/>
<path d="M2.96407 5.77637C2.48407 6.64637 2.05407 7.53636 1.82407 8.51636C1.07407 11.7164 1.56408 14.6963 3.47408 17.3763C5.15408 19.7363 7.47407 21.1164 10.3241 21.5264C12.8441 21.8864 15.1841 21.3164 17.3341 19.9264C18.9741 18.8764 20.2341 17.4964 21.1241 15.7664C21.1341 15.7464 21.1541 15.7264 21.1741 15.6964C21.2241 16.1364 20.1341 17.9264 19.2441 18.8564C19.2141 18.8864 19.1841 18.9164 19.1541 18.9464L19.1441 18.9664C19.1141 18.9964 19.0741 19.0363 19.0441 19.0663C18.9741 19.1363 18.9141 19.1964 18.8441 19.2664C18.7841 19.3264 18.7341 19.3864 18.6741 19.4464C18.6441 19.4564 18.6041 19.4563 18.6141 19.5063C18.6141 19.5063 18.5441 19.5064 18.5541 19.5564C18.5541 19.5564 18.4841 19.5564 18.4941 19.6064C18.2641 19.6564 18.1341 19.8464 17.9641 19.9764C17.9341 19.9864 17.9341 20.0064 17.9541 20.0364C17.8841 19.9864 17.8641 20.0364 17.8441 20.0964C17.7841 20.1064 17.7141 20.0964 17.7341 20.1964C17.6441 20.1464 17.5941 20.2364 17.5341 20.2664C17.3041 20.4064 17.0841 20.5564 16.8441 20.6864C15.1841 21.6064 13.4141 22.0864 11.5041 22.0464C10.2641 22.0164 9.06406 21.7764 7.88406 21.4164C7.88406 21.4064 7.88406 21.3964 7.88406 21.3864C7.86406 21.3164 7.80406 21.3364 7.74406 21.3264C7.74406 21.3264 7.69407 21.2764 7.65407 21.2764C7.56407 21.2164 7.46406 21.1664 7.35406 21.1664C7.35406 21.1664 7.30407 21.1164 7.26407 21.1164C7.26407 21.1164 7.16407 21.0464 7.09407 21.0564H7.08408C6.51408 20.8064 5.97408 20.4764 5.47408 20.0964C3.83408 18.8764 2.58407 17.3664 1.81407 15.4564C1.24407 14.0664 0.954074 12.6264 1.00407 11.1164C1.10407 9.23639 1.71408 7.53636 2.72408 5.95636C2.76408 5.88636 2.78407 5.78637 2.89407 5.77637H2.96407Z" fill="#083B94"/>
<path d="M1.06419 11.1162C1.00419 12.6262 1.30419 14.0662 1.87419 15.4562C2.64419 17.3562 3.89419 18.8762 5.53419 20.0962C6.04419 20.4762 6.5742 20.8062 7.1442 21.0662H7.16418C7.20418 21.1162 7.2642 21.1362 7.3342 21.1262C7.3342 21.1762 7.38419 21.1762 7.42419 21.1762C7.50419 21.2562 7.6042 21.3062 7.7242 21.2862C7.7242 21.3362 7.77419 21.3362 7.81419 21.3362C7.84419 21.3862 7.89419 21.3862 7.95419 21.3962C7.95419 21.3962 7.95419 21.4062 7.95419 21.4162C9.13419 21.7762 10.3242 22.0262 11.5742 22.0462C13.4842 22.0862 15.2542 21.6062 16.9142 20.6862C17.1442 20.5562 17.3742 20.4062 17.6042 20.2662C17.6642 20.2262 17.7142 20.1462 17.8042 20.1962C17.5042 20.5362 17.1042 20.7362 16.7242 20.9562C14.9342 21.9862 13.0042 22.4962 10.9342 22.4462C10.0942 22.4262 9.2642 22.2662 8.4442 22.0662C8.1742 21.9662 7.91419 21.8562 7.63419 21.8162C7.61419 21.7562 7.56419 21.7662 7.52419 21.7662C6.61419 21.4362 5.8242 20.9062 5.0842 20.3062C3.3742 18.9362 2.22419 17.1762 1.56419 15.0962C1.15419 13.8262 1.01419 12.5162 1.09419 11.1862C1.09419 11.1662 1.11419 11.1362 1.12419 11.1162H1.06419Z" fill="#EDDA08"/>
<path d="M7.58398 21.8164C7.86398 21.8564 8.13398 21.9664 8.39398 22.0664C8.39398 22.0864 8.39398 22.1064 8.39398 22.1264C8.11398 22.0464 7.83398 21.9564 7.58398 21.8164Z" fill="#FAF6F5"/>
<path d="M7.47412 21.7663C7.47412 21.7663 7.57412 21.7463 7.58412 21.8163C7.54412 21.8163 7.49412 21.8163 7.47412 21.7663Z" fill="#FAF6F5"/>
<path d="M3.00435 5.65625C3.02435 5.71625 3.00435 5.75625 2.95435 5.78625C2.92435 5.72625 2.95435 5.68625 3.00435 5.65625Z" fill="#083B94"/>
<path d="M11.894 19.3464C8.09397 19.3464 4.92396 16.7964 4.16396 13.2564C3.44396 9.89638 5.13397 6.38639 8.20397 4.82639C9.32397 4.25639 10.484 3.91639 11.744 4.01639C13.874 4.17639 15.674 5.05639 17.104 6.63639C18.534 8.21639 19.224 10.0864 19.154 12.2064C19.044 15.7464 16.764 18.2864 13.614 19.1164C12.994 19.2764 12.364 19.3564 11.894 19.3464ZM16.524 17.1264C16.524 17.1264 16.564 17.0864 16.584 17.0564C16.804 16.8464 17.054 16.6664 17.244 16.4364C18.394 15.0364 19.004 13.4264 18.984 11.6064C18.964 9.70642 18.304 8.02641 16.964 6.66641C15.174 4.84641 12.994 4.1564 10.474 4.5264C9.36397 4.6864 8.40396 5.2164 7.49396 5.8364C7.41396 5.8364 7.36397 5.87639 7.33397 5.95639C7.33397 5.95639 7.29396 5.98638 7.27396 6.00638C7.11396 6.03638 7.02397 6.1464 6.94397 6.2764C6.50397 6.5064 6.21396 6.90641 5.93396 7.28641C4.81396 8.76641 4.31397 10.4264 4.45397 12.2964C4.53397 13.3264 4.79396 14.2864 5.29396 15.1764C6.58396 17.4464 8.55397 18.7064 11.144 18.9564C12.584 19.0964 13.954 18.7764 15.224 18.0764C15.504 17.9164 15.814 17.7864 16.034 17.5164C16.174 17.4664 16.314 17.4164 16.364 17.2464C16.364 17.2464 16.454 17.2464 16.474 17.1964C16.474 17.1964 16.514 17.1664 16.534 17.1464L16.524 17.1264Z" fill="#FEC62E"/>
<path d="M20.3342 7.39649C20.3442 7.65649 20.5042 7.8665 20.6042 8.0965C21.1742 9.3865 21.4642 10.7365 21.4042 12.1365C21.3342 13.6865 20.7742 15.0765 19.9242 16.3565C19.7142 16.6765 19.4742 16.9765 19.2242 17.2765C19.1842 17.3265 19.1242 17.3865 19.0642 17.3265C19.0042 17.2765 19.0842 17.2365 19.1042 17.1865C19.1442 17.1565 19.2042 17.1365 19.1542 17.0665C19.2542 17.0965 19.2642 16.9965 19.2942 16.9465C20.6342 14.9765 21.1642 12.8165 20.8042 10.4665C20.4242 7.9365 19.1642 5.8965 17.0842 4.4065C15.1442 3.0065 12.9642 2.45648 10.5842 2.75648C8.46419 3.01648 6.66418 3.95651 5.17418 5.47651C4.86418 5.79651 4.58418 6.1365 4.28418 6.4665C4.23418 6.3565 4.32418 6.30653 4.37418 6.24653C5.40418 4.76653 6.73417 3.65652 8.38417 2.92652C8.44417 2.89652 8.52419 2.88653 8.55419 2.80653C8.76419 2.73653 8.96418 2.6365 9.17418 2.5965C9.78418 2.4865 10.3842 2.34653 10.9942 2.24653C11.8242 2.10653 12.6242 2.1965 13.4342 2.3465C14.4142 2.5365 15.3442 2.87651 16.2142 3.35651C16.9942 3.78651 17.7142 4.30651 18.3642 4.91651C18.8642 5.38651 19.2942 5.92649 19.7242 6.45649C19.7242 6.49649 19.7242 6.5365 19.7742 6.5265C19.7542 6.5765 19.7842 6.60648 19.8342 6.63648C19.8342 6.63648 19.8342 6.69653 19.8942 6.68653C19.8942 6.68653 19.8942 6.77652 19.9542 6.79652C19.9542 6.79652 19.9542 6.8765 20.0142 6.8465C19.9742 6.9165 20.0342 6.95648 20.0742 7.00648C20.0942 7.05648 20.0942 7.12652 20.1842 7.11652C20.1842 7.23652 20.2142 7.34648 20.3442 7.38648L20.3342 7.39649Z" fill="#FB550A"/>
<path d="M4.3042 6.48572C4.5942 6.15572 4.8842 5.80573 5.1942 5.49573C6.6842 3.97573 8.47419 3.0357 10.6042 2.7757C12.9842 2.4757 15.1642 3.02572 17.1042 4.42572C19.1742 5.92572 20.4342 7.95572 20.8242 10.4857C21.1842 12.8357 20.6442 15.0057 19.3142 16.9657C19.2842 17.0157 19.2742 17.1157 19.1742 17.0857C19.3942 16.6657 19.6442 16.2657 19.8342 15.8257C20.7042 13.8157 20.8442 11.7457 20.2442 9.6557C19.3242 6.4157 17.2342 4.26571 13.9742 3.41571C10.9142 2.61571 8.10419 3.31573 5.63419 5.30573C5.14419 5.69573 4.73419 6.17568 4.31419 6.63568C4.31419 6.58568 4.31419 6.52571 4.31419 6.47571L4.3042 6.48572Z" fill="#083B94"/>
<path d="M19.754 6.46635C19.324 5.93635 18.894 5.39637 18.394 4.92637C17.744 4.31637 17.024 3.80638 16.244 3.36638C15.364 2.88638 14.444 2.54637 13.464 2.35637C12.654 2.19637 11.864 2.11633 11.024 2.25633C10.414 2.35633 9.81404 2.49637 9.20404 2.60637C8.99404 2.64637 8.79405 2.74633 8.58405 2.81633C8.34405 2.77633 8.15404 2.97636 7.89404 2.97636C10.714 1.43636 14.714 1.49633 17.754 3.63633C21.024 5.93633 22.214 9.60633 21.774 12.7563C21.754 12.7363 21.714 12.7264 21.714 12.7164C21.774 11.5764 21.604 10.4663 21.274 9.38633C21.074 8.72633 20.794 8.10633 20.464 7.50633C20.434 7.45633 20.424 7.40634 20.354 7.39634C20.354 7.27634 20.304 7.18632 20.194 7.12632C20.194 7.05632 20.174 6.98635 20.084 6.96635C20.084 6.92635 20.084 6.86637 20.024 6.85637C20.024 6.85637 20.024 6.78638 19.964 6.80638C19.984 6.75638 19.964 6.71633 19.904 6.69633C19.904 6.69633 19.904 6.62634 19.844 6.64634C19.874 6.58634 19.844 6.55636 19.784 6.53636C19.784 6.53636 19.774 6.47635 19.734 6.46635H19.754Z" fill="#F1DF05"/>
<path d="M14.1343 19.6158C11.9843 20.6658 8.94428 20.6758 5.98428 18.4058C3.52428 16.5258 2.78429 13.1558 3.47429 10.7158C3.20429 13.6558 4.11428 16.1458 6.38428 18.0358C8.65428 19.9358 11.2843 20.3458 14.1243 19.6158H14.1343Z" fill="#FB550A"/>
<path d="M17.9844 19.9767C18.1544 19.8467 18.2844 19.6567 18.5144 19.5967C18.3944 19.7567 18.2344 19.8867 18.0644 19.9767C18.0444 19.9767 18.0144 19.9767 17.9944 19.9767H17.9844Z" fill="#FEC62E"/>
<path d="M18.6143 17.8866C18.6643 17.7566 18.7443 17.6566 18.8443 17.5566C18.8443 17.7166 18.7743 17.8366 18.6243 17.8966L18.6143 17.8866Z" fill="#FEC62E"/>
<path d="M18.8442 19.2566C18.9142 19.1866 18.9742 19.1266 19.0442 19.0566C19.0142 19.1566 18.9542 19.2366 18.8442 19.2566Z" fill="#FEC62E"/>
<path d="M4.20434 6.74622C4.17434 6.82622 4.11434 6.87619 4.03434 6.90619C4.01434 6.77619 4.11434 6.70621 4.17434 6.61621C4.18434 6.62621 4.20433 6.63618 4.21433 6.64618C4.21433 6.67618 4.21434 6.70621 4.20434 6.73621V6.74622Z" fill="#FB550A"/>
<path d="M4.30383 6.47656C4.30383 6.52656 4.30383 6.58654 4.30383 6.63654C4.30383 6.63654 4.24382 6.64656 4.21382 6.65656C4.20382 6.64656 4.18383 6.63653 4.17383 6.62653C4.20383 6.56653 4.19383 6.46657 4.30383 6.48657V6.47656Z" fill="#FB550A"/>
<path d="M4.2141 6.65584C4.2141 6.65584 4.26411 6.59582 4.30411 6.63582C4.30411 6.69582 4.2541 6.72586 4.2041 6.74586C4.2041 6.71586 4.2041 6.68584 4.2141 6.65584Z" fill="#083B94"/>
<path d="M17.7541 20.1959C17.7341 20.1059 17.8141 20.1059 17.8641 20.0859C17.8741 20.1759 17.8241 20.1959 17.7541 20.1959Z" fill="#EDDA08"/>
<path d="M19.1639 17.0762C19.2139 17.1462 19.144 17.1662 19.114 17.1962C19.014 17.1062 19.1539 17.1162 19.1639 17.0762Z" fill="#083B94"/>
<path d="M19.1543 18.9464C19.1543 18.9464 19.2143 18.8864 19.2443 18.8564C19.2443 18.9064 19.2143 18.9364 19.1543 18.9464Z" fill="#FEC62E"/>
<path d="M19.0439 19.0658C19.0439 19.0658 19.114 18.9958 19.144 18.9658C19.144 19.0358 19.1039 19.0558 19.0439 19.0658Z" fill="#FEC62E"/>
<path d="M4.03412 6.91602C4.03412 6.91602 4.01412 6.97598 4.00412 7.00598C4.00412 6.99598 3.98412 6.98601 3.97412 6.97601C3.97412 6.93601 3.97411 6.91602 4.02411 6.91602H4.03412Z" fill="#FB550A"/>
<path d="M17.8643 20.0964C17.8843 20.0464 17.9043 19.9864 17.9743 20.0364C17.9543 20.0964 17.9343 20.1464 17.8643 20.0964Z" fill="#EDDA08"/>
<path d="M18.6243 17.8958C18.6243 17.8958 18.6043 17.9258 18.5943 17.9358C18.5543 17.9058 18.5943 17.8957 18.6143 17.8857L18.6243 17.8958Z" fill="#FEC62E"/>
<path d="M18.6143 19.4965C18.6143 19.4965 18.6443 19.4465 18.6743 19.4365C18.6743 19.4765 18.6543 19.4965 18.6143 19.4965Z" fill="#FEC62E"/>
<path d="M18.564 19.5566C18.554 19.5066 18.574 19.4866 18.624 19.4966C18.624 19.5366 18.604 19.5466 18.564 19.5566Z" fill="#FEC62E"/>
<path d="M18.5041 19.6064C18.4841 19.5564 18.5041 19.5364 18.5641 19.5464C18.5641 19.5864 18.5441 19.5964 18.5041 19.6064Z" fill="#FEC62E"/>
<path d="M17.984 19.9758C17.984 19.9758 18.034 19.9758 18.054 19.9758C18.034 20.0058 18.004 20.0358 17.964 20.0258C17.944 20.0058 17.954 19.9858 17.974 19.9658L17.984 19.9758Z" fill="#EDDA08"/>
<path d="M7.69405 21.276C7.57405 21.296 7.47404 21.246 7.39404 21.166C7.50404 21.166 7.60405 21.216 7.69405 21.276Z" fill="#FAF6F5"/>
<path d="M7.3243 21.1162C7.2543 21.1362 7.2043 21.1162 7.1543 21.0562C7.2243 21.0462 7.2743 21.0662 7.3243 21.1162Z" fill="#FAF6F5"/>
<path d="M7.91393 21.3857C7.86393 21.3857 7.80393 21.3857 7.77393 21.3257C7.82393 21.3257 7.89393 21.3157 7.91393 21.3857Z" fill="#FAF6F5"/>
<path d="M7.40396 21.1662C7.40396 21.1662 7.32396 21.1662 7.31396 21.1162C7.35396 21.1162 7.38396 21.1162 7.40396 21.1662Z" fill="#FAF6F5"/>
<path d="M7.16403 21.0659L7.14404 21.0559V21.0459L7.16403 21.0659Z" fill="#FAF6F5"/>
<path d="M7.91406 21.4158C7.91406 21.4158 7.91406 21.3957 7.91406 21.3857C7.92406 21.3857 7.93406 21.4058 7.91406 21.4158Z" fill="#FAF6F5"/>
<path d="M7.78433 21.3264C7.78433 21.3264 7.70434 21.3264 7.69434 21.2764C7.73434 21.2764 7.76433 21.2764 7.78433 21.3264Z" fill="#FAF6F5"/>
<path d="M6.95435 6.2666C6.98435 6.3666 6.88436 6.39659 6.83436 6.44659C5.25436 8.05659 4.52435 10.0066 4.76435 12.2366C5.04435 14.8766 6.42435 16.8466 8.82435 17.9966C11.1743 19.1166 13.5044 18.9566 15.7544 17.6366C15.8444 17.5866 15.9144 17.4966 16.0344 17.5066C15.8244 17.7766 15.5144 17.9066 15.2244 18.0666C13.9544 18.7766 12.5844 19.0866 11.1444 18.9466C8.55436 18.6966 6.58435 17.4366 5.29435 15.1666C4.79435 14.2866 4.53435 13.3166 4.45435 12.2866C4.30435 10.4266 4.81435 8.75661 5.93435 7.27661C6.22435 6.89661 6.50436 6.4966 6.94436 6.2666H6.95435Z" fill="#FD570B"/>
<path d="M16.0342 17.5063C16.0942 17.3563 16.2442 17.3163 16.3642 17.2363C16.3242 17.4063 16.1842 17.4563 16.0342 17.5063Z" fill="#FD570B"/>
<path d="M7.27432 5.99609C7.20432 6.12609 7.11434 6.24605 6.94434 6.26605C7.01434 6.13605 7.10432 6.01609 7.27432 5.99609Z" fill="#FD570B"/>
<path d="M7.48422 5.83594C7.45422 5.91594 7.41422 5.96593 7.32422 5.95593C7.35422 5.88593 7.41422 5.84594 7.48422 5.83594Z" fill="#FD570B"/>
<path d="M16.354 17.2361C16.354 17.2361 16.404 17.1561 16.464 17.1761C16.444 17.2261 16.404 17.2361 16.354 17.2361Z" fill="#FD570B"/>
<path d="M7.32416 5.94629C7.34416 6.00629 7.31416 6.00629 7.26416 6.00629C7.28416 5.98629 7.30416 5.96629 7.32416 5.94629Z" fill="#FD570B"/>
<path d="M16.5142 17.1364C16.5142 17.1364 16.5542 17.0864 16.5742 17.0664C16.5542 17.0864 16.5342 17.1164 16.5142 17.1364Z" fill="#FD570B"/>
<path d="M16.4639 17.186C16.4639 17.186 16.4939 17.136 16.5239 17.126C16.5039 17.146 16.4839 17.166 16.4639 17.186Z" fill="#FD570B"/>
<path d="M20.1743 7.12598C20.2843 7.18598 20.3343 7.276 20.3343 7.396C20.2043 7.356 20.1643 7.25598 20.1743 7.12598Z" fill="#FDFCFB"/>
<path d="M20.0742 6.96582C20.1642 6.98582 20.1842 7.05579 20.1842 7.12579C20.0942 7.13579 20.0942 7.06581 20.0742 7.01581C20.0742 6.99581 20.0742 6.98582 20.0742 6.96582Z" fill="#FDFCFB"/>
<path d="M20.0742 6.96643C20.0742 6.96643 20.0742 6.99642 20.0742 7.01642C20.0342 6.96642 19.9742 6.92645 20.0142 6.85645C20.0742 6.86645 20.0642 6.92643 20.0742 6.96643Z" fill="#FAF6F5"/>
<path d="M19.9043 6.69629C19.9643 6.71629 19.9843 6.75634 19.9643 6.80634C19.9043 6.78634 19.8943 6.74629 19.9043 6.69629Z" fill="#FAF6F5"/>
<path d="M19.7939 6.53613C19.8539 6.55613 19.8739 6.58612 19.8539 6.64612C19.8039 6.62612 19.7739 6.58613 19.7939 6.53613Z" fill="#FAF6F5"/>
<path d="M19.9639 6.8061C20.0239 6.7861 20.0139 6.8261 20.0239 6.8661C19.9639 6.8861 19.9739 6.8461 19.9639 6.8061Z" fill="#FAF6F5"/>
<path d="M19.854 6.64594C19.914 6.62594 19.914 6.66594 19.914 6.70594C19.864 6.70594 19.864 6.68594 19.854 6.64594Z" fill="#FAF6F5"/>
<path d="M19.754 6.46582C19.754 6.46582 19.804 6.49583 19.804 6.53583C19.744 6.53583 19.744 6.50582 19.754 6.46582Z" fill="#FAF6F5"/>
</svg>
