<svg width="112" height="18" viewBox="0 0 112 18" fill="none" xmlns="http://www.w3.org/2000/svg">
<path d="M29.7018 13.9998H27.5019V8.89981H23.0019V13.9998H20.9019V3.2998H23.0019V7.39981H27.5019V3.2998H29.7018V13.9998Z" fill="#76BC21"/>
<path d="M39.4016 4.69983H35.8016V7.69983H39.3016V9.09982H35.8016V12.5998H40.0016V13.9998H33.6016V3.2998H39.4016V4.69983Z" fill="#76BC21"/>
<path d="M76.3018 3.2998H78.4017V12.5998H82.7017V13.9998H76.3018V3.2998Z" fill="#76BC21"/>
<path d="M87.8016 3.2998H85.6016V13.9998H87.8016V3.2998Z" fill="#76BC21"/>
<path d="M97.4022 4.69983H93.8022V8.2998H97.4022V9.69983H93.8022V13.9998H91.7021V3.2998H97.4022V4.69983Z" fill="#76BC21"/>
<path d="M106.302 4.69983H102.702V7.69983H106.202V9.09982H102.702V12.5998H106.902V13.9998H100.502V3.2998H106.302V4.69983Z" fill="#76BC21"/>
<path d="M111.102 12.6998C111.102 11.8998 110.502 11.2998 109.702 11.2998C109.002 11.2998 108.302 11.8998 108.302 12.6998C108.302 13.4998 108.902 14.0998 109.702 14.0998C110.502 13.9998 111.102 13.4998 111.102 12.6998ZM109.802 13.7998C109.202 13.7998 108.702 13.2998 108.702 12.5998C108.702 11.8998 109.202 11.3998 109.802 11.3998C110.402 11.3998 110.902 11.8998 110.902 12.5998C110.902 13.2998 110.402 13.7998 109.802 13.7998Z" fill="#76BC21"/>
<path d="M110.402 12.2998C110.402 11.9998 110.202 11.7998 109.802 11.7998H109.202V13.3998H109.402V12.6998H109.702L110.102 13.3998H110.402L109.902 12.6998C110.202 12.6998 110.402 12.5998 110.402 12.2998ZM109.702 12.5998H109.402V12.0998H109.702C109.902 12.0998 110.002 12.0998 110.002 12.2998C110.202 12.5998 110.002 12.5998 109.702 12.5998Z" fill="#76BC21"/>
<path d="M48.6017 9.19983C49.6017 8.59983 50.4017 7.69982 50.4017 6.09982C50.4017 4.29982 49.0018 3.2998 47.0018 3.2998H43.3018V13.9998H45.5018V9.69983H46.8018L48.9017 13.9998H51.4017L48.6017 9.19983ZM46.3018 8.2998H45.4017V4.69983H46.5018C47.4018 4.69983 48.2017 5.0998 48.2017 6.2998C48.3017 7.0998 47.8018 8.2998 46.3018 8.2998Z" fill="#76BC21"/>
<path d="M61.7019 10.9004C61.7019 9.30039 60.2019 8.30038 58.9019 8.30038C59.7019 8.10038 61.002 7.40041 61.002 5.70041C61.002 4.20041 59.7019 3.40039 57.9019 3.40039H54.002V14.1004H57.6019C60.1019 14.0004 61.7019 12.7004 61.7019 10.9004ZM56.2019 4.6004H57.3019C58.2019 4.6004 58.9019 5.0004 58.9019 6.0004C58.9019 7.0004 58.1019 7.80038 56.8019 7.80038H56.1019V4.6004H56.2019ZM57.3019 12.7004H56.2019V9.1004H57.3019C58.5019 9.1004 59.4019 9.60039 59.4019 10.9004C59.4019 12.1004 58.5019 12.7004 57.3019 12.7004Z" fill="#76BC21"/>
<path d="M71.2018 13.9998H73.6019L69.6019 3.2998H67.8019L63.4019 13.9998H65.3019L66.4019 11.0998H70.2018L71.2018 13.9998ZM67.0019 9.7998C67.5019 8.3998 68.0019 7.09981 68.5019 5.39981C69.0019 7.09981 69.5019 8.3998 69.9019 9.7998H67.0019Z" fill="#76BC21"/>
<path d="M8.70183 17.4C13.5018 17.4 17.4018 13.5 17.4018 8.70001C17.4018 3.90001 13.5018 0 8.70183 0C3.90183 0 0.00188092 3.90001 0.00188092 8.70001C-0.0981191 13.5 3.80183 17.4 8.70183 17.4ZM8.70183 0.5C13.2018 0.5 16.9018 4.20001 16.9018 8.70001C16.9018 13.2 13.2018 16.9 8.70183 16.9C4.20183 16.9 0.501881 13.2 0.501881 8.70001C0.501881 4.20001 4.10183 0.5 8.70183 0.5Z" fill="#76BC21"/>
<path d="M7.80215 16.1996C7.00215 12.4996 4.10211 9.59961 1.20211 8.59961C1.10211 12.1996 3.60215 15.6996 7.80215 16.1996Z" fill="#76BC21"/>
<path d="M16.1019 8.59961C13.1019 9.49961 10.302 12.3996 9.50195 16.1996C13.702 15.6996 16.1019 12.1996 16.1019 8.59961Z" fill="#76BC21"/>
<path d="M8.60155 1C6.10155 4.6 5.40155 11.3 8.60155 16.2C11.8016 11.3 11.0016 4.6 8.60155 1Z" fill="#76BC21"/>
</svg>
