<svg width="77" height="15" viewBox="0 0 77 15" fill="none" xmlns="http://www.w3.org/2000/svg">
<path d="M22.4795 6.12069C24.3157 5.39734 24.9834 4.39582 24.9834 3.17169C24.9834 1.00164 23.0915 0.0556641 20.0312 0.0556641H14.5226C14.8565 0.556445 15.1904 1.16851 15.1904 2.00314V6.23201C13.5767 6.56586 12.13 6.84405 10.7946 7.1779C9.57049 3.83937 8.23508 0.0556641 8.23508 0.0556641H4.84085C4.89649 0.500802 4.84091 1.00158 4.61834 1.72493L0.779005 12.3527C0.779005 12.3527 0.556423 13.076 0 13.7993H2.78211C2.72647 13.4099 2.78209 12.9647 2.89337 12.6309C3.17158 11.7962 3.9506 11.2398 4.72959 10.9059C5.7868 10.4051 7.62296 9.84875 8.4576 9.62618L9.34793 12.2413C9.34793 12.2413 9.73738 13.2429 9.51482 13.855H13.4654C12.8533 13.076 12.6865 12.4639 12.6865 12.4083C12.5752 12.1857 12.0744 10.739 11.4067 8.9028C12.6308 8.62459 13.8549 8.34636 15.246 8.12379V11.9075C15.246 12.6308 14.9677 13.2986 14.5782 13.855H19.8086C20.6433 13.855 21.4223 13.7993 21.9787 13.688C24.2044 13.2985 25.818 12.1301 25.818 9.73743C25.7624 7.78995 24.5383 6.67711 22.4795 6.12069ZM4.84085 8.95843C4.507 9.12536 4.11754 9.34797 3.83933 9.62618C4.56268 7.45613 5.61987 4.39579 6.12065 3.00473L7.84555 7.90128C7.01091 8.12385 5.67549 8.56893 4.84085 8.95843ZM18.2507 1.78063C18.8071 1.72499 18.974 1.72493 19.3635 1.72493C21.0328 1.72493 21.8117 2.44834 21.8117 3.4499C21.8117 4.39582 21.1997 5.00784 20.1425 5.28605C19.6973 5.39734 18.974 5.5643 18.2507 5.67559V1.78063ZM19.5304 12.0745H18.2507V7.51174C18.6958 7.40046 19.4748 7.28917 19.9756 7.23353C21.4779 7.56739 22.5908 8.23509 22.5908 9.73743C22.5908 11.518 21.311 12.0745 19.5304 12.0745Z" fill="#B31F24"/>
<path d="M27.209 13.7437C27.8767 12.7421 27.8767 11.7962 27.8767 11.7962V1.94748C27.8767 1.94748 27.8767 1.00156 27.209 0H31.6047C30.937 1.00156 30.937 1.94748 30.937 1.94748V11.7962C30.937 11.7962 30.937 12.7421 31.6047 13.7437H27.209Z" fill="#431512"/>
<path d="M76.508 4.11719H73.5589C73.7815 4.50668 73.7258 5.17438 73.4476 5.84208L71.5558 10.9612L69.5527 5.84208C69.2745 5.17438 69.2188 4.56233 69.4414 4.11719H65.6577C66.1585 4.67361 66.4924 5.39695 66.7149 5.84208L69.9978 13.799H72.5574C72.5574 13.799 72.613 13.1312 72.8912 12.4079L75.5064 5.84208C75.6733 5.39695 76.0628 4.61797 76.508 4.11719Z" fill="#431512"/>
<path d="M66.0469 9.23705C66.2139 7.23392 65.6575 3.72852 61.2061 3.72852C57.5893 3.72852 56.2539 6.28806 56.2539 8.73632C56.2539 11.9079 57.9788 14.0223 62.0407 14.0223C63.71 14.0223 65.0454 13.5215 65.8244 13.0207L64.9898 11.1845C64.2108 11.574 63.2649 11.9079 62.2077 11.9079C60.3715 11.9079 59.2586 11.2402 58.9804 9.45963H62.931C64.4333 9.51527 65.6574 9.40397 66.0469 9.23705ZM59.036 7.84599C59.2029 6.28801 59.9263 5.50904 61.2061 5.50904C62.5415 5.50904 63.1535 6.51058 63.2092 7.84599C63.2092 7.84599 62.6528 7.84599 61.8738 7.84599H59.036Z" fill="#431512"/>
<path d="M39.1166 13.7442H43.0116C42.3995 12.8539 42.3995 12.0192 42.3995 12.0192V6.84454C42.3995 5.00835 41.3979 3.83984 39.2835 3.83984C37.9481 3.83984 36.8353 4.45192 36.0563 5.17527V4.0068H32.7178C33.3298 4.89707 33.3298 5.73169 33.3298 5.73169V11.9636C33.3298 11.9636 33.3298 12.7982 32.7178 13.6885H36.6127C36.0007 12.7982 36.0006 11.9636 36.0006 11.9636V6.78891C36.5014 6.28813 37.2248 5.89858 38.0038 5.89858C39.2279 5.89858 39.6174 6.56634 39.6174 7.62355V11.9636C39.7286 12.0749 39.7287 12.8539 39.1166 13.7442Z" fill="#431512"/>
<path d="M49.2432 7.28916C51.1907 7.28916 52.2479 8.23509 52.2479 9.73743C52.2479 11.0728 51.4133 12.0745 49.2432 12.0745H47.9078V7.28916H49.2432ZM48.965 1.72493C50.6343 1.72493 51.4133 2.39265 51.4133 3.61678C51.4133 4.84091 50.6899 5.56426 49.0763 5.56426C48.7424 5.56426 48.186 5.56426 47.8522 5.56426V1.72493H48.965ZM49.2989 13.7437C50.1335 13.7437 50.9681 13.688 51.5245 13.5768C53.7502 13.1873 55.3639 12.0744 55.3639 9.62618C55.3639 7.6787 54.1397 6.67711 52.1366 6.12069C53.8615 5.45298 54.4736 4.50707 54.4736 3.28294C54.4736 1.11289 52.7487 0.0556641 49.5771 0.0556641H44.3467C44.7362 0.612087 44.8475 1.39108 44.8475 2.00314V11.8519C44.8475 12.5196 44.7362 13.1873 44.3467 13.7993H49.2989V13.7437Z" fill="#431512"/>
</svg>
