<svg width="75" height="30" viewBox="0 0 75 30" fill="none" xmlns="http://www.w3.org/2000/svg">
<path d="M10.0601 20.8304C9.8401 23.0404 8.9101 25.0405 7.5001 26.5905C7.3001 26.7905 7.3001 27.1205 7.5001 27.3205C7.6101 27.4205 9.0601 28.8705 9.7501 29.5705C9.9501 29.7705 10.2701 29.7705 10.4701 29.5705C12.8401 27.0205 14.3001 23.5905 14.3001 19.8205C14.3001 18.4905 14.1201 17.2005 13.7801 15.9805C13.0901 17.4405 12.1401 18.8205 10.9301 20.0305C10.6501 20.3105 10.3501 20.5805 10.0501 20.8405L10.0601 20.8304Z" fill="#003160"/>
<path d="M8.68994 14.6503C8.86994 14.9503 9.03994 15.2703 9.18994 15.5903C9.51994 15.1003 9.80995 14.5903 10.0399 14.0703C9.60995 14.2903 9.14992 14.4903 8.69992 14.6603L8.68994 14.6503Z" fill="#003160"/>
<path d="M0.51001 5.52051C0.22001 5.52051 0 5.74052 0 6.03052V9.21051C0 9.49051 0.22001 9.72052 0.51001 9.72052C2.26001 9.81052 3.9 10.3505 5.31 11.2205C6.95 10.9605 8.45999 10.2905 9.73999 9.34052C7.29999 7.07052 4.07001 5.65051 0.51001 5.52051Z" fill="#003160"/>
<path d="M13.5702 3.38999C12.9802 2.23999 12.2202 1.14 11.3002 0.15C11.1002 -0.05 10.7802 -0.05 10.5802 0.15C10.5802 0.15 8.38018 2.34 8.33018 2.4C8.13018 2.6 8.13018 2.92004 8.33018 3.13004C9.71018 4.66004 10.5402 6.50001 10.8202 8.41001C10.8202 8.41001 10.8302 8.39999 10.8402 8.38999C12.1802 7.04999 13.1502 5.33 13.5702 3.4V3.38999Z" fill="#88BC24"/>
<path d="M9.18001 15.5898C8.83001 16.1098 8.43002 16.5999 7.97002 17.0599C6.48002 18.5199 4.9 19.2899 3.3 19.7299C3.02 19.7799 2.83 20.0398 2.89 20.3298C2.94 20.5498 3.32002 22.4899 3.50002 23.4399C3.55002 23.7199 3.82002 23.8999 4.10002 23.8499C4.10002 23.8499 4.35001 23.7898 4.43001 23.7698C6.41001 23.2798 8.37 22.2598 10.05 20.8398C10.08 20.5098 10.1 20.1698 10.1 19.8298C10.1 18.3198 9.77 16.8899 9.17 15.5999L9.18001 15.5898Z" fill="#88BC24"/>
<path d="M15.1299 9.83008C14.7299 10.3701 14.2899 10.8801 13.8099 11.3501C13.3599 11.8001 12.8699 12.2201 12.3599 12.6101C12.9699 13.6601 13.4499 14.7801 13.7799 15.9701C14.6799 14.0501 15.1299 11.9701 15.1299 9.90009V9.83008Z" fill="#88BC24"/>
<path d="M10.0302 14.0704C9.80018 14.6004 9.51018 15.1103 9.18018 15.5903C9.78018 16.8803 10.1102 18.3104 10.1102 19.8204C10.1102 20.1604 10.0902 20.5103 10.0602 20.8303C10.3602 20.5803 10.6602 20.3103 10.9402 20.0203C12.1502 18.8103 13.1002 17.4303 13.7902 15.9703C13.4602 14.7803 12.9802 13.6604 12.3702 12.6104C11.6402 13.1704 10.8602 13.6604 10.0302 14.0604V14.0704Z" fill="#347121"/>
<path d="M17.9898 1.75024C17.9898 1.47024 17.7698 1.24023 17.4798 1.24023H14.2998C14.0098 1.24023 13.7898 1.47024 13.7898 1.75024C13.7598 2.31024 13.6898 2.8602 13.5698 3.3902C14.5998 5.4102 15.1198 7.62021 15.1298 9.84021C16.8398 7.57021 17.8898 4.78024 17.9898 1.75024Z" fill="#00B4E5"/>
<path d="M10.9102 10.5504C10.9202 10.3304 10.9302 10.1104 10.9302 9.90039C10.9302 9.40039 10.8903 8.90039 10.8203 8.40039C10.4903 8.73039 10.1202 9.05038 9.74023 9.33038C9.87023 9.45038 10.0002 9.57043 10.1202 9.69043C10.3902 9.97043 10.6502 10.2504 10.9102 10.5504Z" fill="#00B4E5"/>
<path d="M10.9101 10.5501C10.6501 10.2501 10.3901 9.97012 10.1201 9.69012C10.0001 9.57012 9.87005 9.45008 9.74005 9.33008C8.46005 10.2901 6.95006 10.9501 5.31006 11.2101C5.98006 11.6301 6.59005 12.1101 7.14005 12.6601C7.73005 13.2501 8.25005 13.9201 8.68005 14.6401C9.14005 14.4701 9.59005 14.2801 10.0201 14.0501C10.5301 12.9301 10.8201 11.7401 10.9001 10.5401L10.9101 10.5501Z" fill="#005189"/>
<path d="M10.9101 10.5499C11.4501 11.1899 11.9501 11.8799 12.3701 12.6099C12.8801 12.2199 13.3601 11.7999 13.8201 11.3499C14.2901 10.8799 14.7401 10.3698 15.1401 9.82983C15.1301 7.61983 14.6101 5.40988 13.5801 3.37988C13.1601 5.30988 12.1901 7.02987 10.8501 8.36987C10.8501 8.37987 10.8301 8.38983 10.8301 8.38983C10.9001 8.88983 10.9401 9.38983 10.9401 9.88983C10.9401 10.1098 10.9301 10.3199 10.9201 10.5399L10.9101 10.5499Z" fill="#27A436"/>
<path d="M10.0303 14.0696C10.8603 13.6596 11.6403 13.1796 12.3703 12.6196C11.9503 11.8896 11.4503 11.1996 10.9103 10.5596C10.8303 11.7696 10.5403 12.9496 10.0303 14.0696Z" fill="#004B22"/>
<path d="M5.31014 11.21C4.78014 11.29 4.24015 11.34 3.69015 11.34C3.21015 11.34 2.72015 11.3 2.22015 11.23C1.94015 11.17 1.67014 11.35 1.62014 11.63C1.61014 11.69 1.21016 13.76 1.01016 14.76C0.960157 15.04 1.13015 15.31 1.41015 15.36C2.14015 15.48 2.93013 15.54 3.70013 15.54C5.46013 15.54 7.14015 15.22 8.69015 14.65C8.26015 13.93 7.74014 13.26 7.15014 12.67C6.60014 12.12 5.98015 11.63 5.32015 11.22L5.31014 11.21Z" fill="#00B4E5"/>
<path d="M41.2198 10.0098V14.8698H43.0898V10.0898C43.0898 8.17978 42.4498 7.0498 40.3598 7.0498C39.1398 7.0498 38.6398 7.84979 38.3298 8.27979L38.0298 7.28979H36.2998C36.3698 7.81979 36.4998 8.25978 36.4998 8.89978V14.8698H38.3698V9.92981C38.7198 9.21981 39.2498 8.49982 40.0198 8.49982C41.1298 8.49982 41.1998 9.26983 41.1998 10.0098H41.2198Z" fill="#003160"/>
<path d="M46.1901 14.7893C46.6601 14.9793 47.2001 15.0793 47.8201 15.0793C48.4801 15.0793 49.7201 14.8093 49.9501 14.7493L49.3301 13.2493C49.1501 13.3193 48.0401 13.8993 47.0801 13.4993C46.0301 13.0393 46.0001 11.5793 46.0001 11.1393C46.0001 10.6493 46.0401 9.6893 46.4601 9.0993C46.8801 8.5093 47.5401 8.51929 47.8601 8.51929C48.4501 8.51929 49.1601 8.85932 49.3301 8.92932L49.9001 7.42932C49.6901 7.36932 48.5601 7.06934 47.8901 7.06934C47.2201 7.06934 46.6901 7.17931 46.2101 7.35931C45.7301 7.54931 44.7301 8.12929 44.3201 9.45929C44.1601 9.95929 43.8801 11.3893 44.3201 12.7293C44.7601 14.0693 45.7101 14.5993 46.2001 14.7893H46.1901Z" fill="#003160"/>
<path d="M53.96 15.09C56.68 15.09 57.69 13.2 57.69 11.03C57.69 8.86003 56.71 7.04004 53.96 7.04004C51.21 7.04004 50.21 8.91003 50.21 11.03C50.21 13.15 51.22 15.09 53.96 15.09ZM53.96 8.49005C55.22 8.49005 55.76 9.17003 55.76 11.03C55.76 12.89 55.11 13.65 53.96 13.65C52.7 13.65 52.14 12.74 52.14 11.03C52.14 9.17003 52.77 8.49005 53.96 8.49005Z" fill="#003160"/>
<path d="M35.3101 14.8495C35.2901 14.6295 35.2601 14.4295 35.2201 14.2095C35.1801 13.9995 35.1501 13.7895 35.1201 13.5995C35.0901 13.3995 35.0601 13.2095 35.0401 13.0295C35.0201 12.8495 35.0001 12.6795 35.0001 12.5295V9.47955C35.0001 9.06955 34.9301 8.70954 34.7901 8.39954C34.6501 8.06954 34.1001 7.05957 32.1401 7.05957C31.8401 7.05957 30.6501 7.07958 29.4301 7.37958L29.8601 8.90955C31.6601 8.30955 32.4301 8.51956 32.6001 8.60956C33.0801 8.84956 33.1001 9.27955 33.1001 9.84955H32.4801C31.6701 9.84955 30.1701 9.93953 29.3001 10.7695C28.4201 11.5795 28.3401 13.9295 30.0701 14.6595C31.8801 15.4295 33.1301 14.1695 33.2401 14.0795L33.5201 14.8395H35.2901L35.3101 14.8495ZM33.1401 12.8395C33.1401 12.8395 32.5501 13.5696 31.6301 13.5696C30.8901 13.5696 30.3301 13.2396 30.2601 12.6096C30.1601 11.5796 31.2601 11.2795 31.5701 11.2195C31.8901 11.1595 32.2701 11.1196 32.7201 11.1196H33.1301V12.8495L33.1401 12.8395Z" fill="#003160"/>
<path d="M21.9599 14.8597L22.2399 14.0997C22.3199 14.1797 23.0599 14.9297 24.4099 14.9297C26.1899 14.9297 27.7299 13.7997 27.7299 11.8497C27.7299 10.6197 26.8699 9.53969 25.6199 9.23969C26.0399 9.09969 27.0899 8.40968 27.0899 6.91968C27.0899 4.95968 25.3899 4.13965 23.6799 4.13965H20.4899V12.5497C20.4899 12.6997 20.4799 12.8597 20.4499 13.0397C20.4299 13.2197 20.2099 14.6497 20.1899 14.8597H21.9599ZM23.3799 13.1897C23.2399 13.1397 23.0999 13.0897 22.9699 13.0197C22.8399 12.9497 22.4399 12.6397 22.3599 12.5397V10.2497H23.8299C25.0199 10.2497 25.8499 10.8297 25.8499 11.7397C25.8499 12.8597 25.0199 13.4397 23.8799 13.2997C23.5599 13.2597 23.5299 13.2297 23.3799 13.1897ZM22.3499 5.73969H23.1899C24.3499 5.73969 25.3899 5.90967 25.3899 7.09967C25.3899 8.42967 24.1499 8.53967 23.4199 8.53967H22.3499V5.72968V5.73969Z" fill="#003160"/>
<path d="M26.15 18.9501L26.66 17.3301H20.48V28.0601H22.38V23.3601H25.45V21.7801H22.38V18.9501H26.15Z" fill="#003160"/>
<path d="M29.9399 20.25C27.2199 20.25 26.1899 22.13 26.1899 24.23C26.1899 26.33 27.1999 28.29 29.9399 28.29C32.6799 28.29 33.6699 26.4 33.6699 24.23C33.6699 22.06 32.6899 20.25 29.9399 20.25ZM29.9399 26.85C28.6799 26.85 28.1099 25.93 28.1099 24.23C28.1099 22.37 28.7399 21.69 29.9399 21.69C31.1999 21.69 31.7499 22.37 31.7499 24.23C31.7499 26.09 31.0999 26.85 29.9399 26.85Z" fill="#003160"/>
<path d="M36.4001 21.7797L36.1001 20.4797H34.3701C34.4201 20.8597 34.5701 21.4297 34.5701 22.1697V28.0598H36.4501V24.1597C36.4501 22.5897 37.1101 21.6898 37.9901 21.6898C38.4001 21.6898 38.8001 21.9397 39.0801 22.1597L39.7201 20.6198C39.2801 20.3898 38.9101 20.2598 38.2801 20.2598C37.1401 20.2598 36.4701 21.2497 36.3901 21.7897L36.4001 21.7797Z" fill="#003160"/>
<path d="M49.2397 20.25C48.1497 20.25 47.3497 20.78 46.9197 21.48C46.2797 20.58 45.7597 20.25 44.4997 20.25C43.4697 20.25 42.7597 21.11 42.4897 21.5L42.1897 20.49H40.4697C40.5197 21.05 40.6597 21.6 40.6597 22.23V28.07H42.5397V23.11C42.7497 22.65 43.3697 21.7 44.1397 21.7C44.9597 21.7 45.2997 22 45.2997 23.26V28.07H47.1697V23.21C47.4497 22.45 48.0497 21.7 48.9397 21.7C49.6997 21.7 50.0197 22.13 50.0197 23.26V28.07H51.8897V23.23C51.8897 21.21 51.0097 20.26 49.2197 20.26L49.2397 20.25Z" fill="#003160"/>
<path d="M56.5698 20.25C53.8498 20.25 52.8198 22.13 52.8198 24.23C52.8198 26.33 53.8298 28.29 56.5698 28.29C59.3098 28.29 60.2998 26.4 60.2998 24.23C60.2998 22.06 59.3198 20.25 56.5698 20.25ZM56.5698 26.85C55.3098 26.85 54.7398 25.93 54.7398 24.23C54.7398 22.37 55.3698 21.69 56.5698 21.69C57.8298 21.69 58.3798 22.37 58.3798 24.23C58.3798 26.09 57.7298 26.85 56.5698 26.85Z" fill="#003160"/>
<path d="M64.52 23.3802C63.74 23.1502 63.11 22.9502 63.11 22.4502C63.11 21.9002 63.58 21.6902 64.43 21.6902C64.95 21.6902 65.43 21.8402 65.97 22.0902L66.61 20.6002C65.75 20.3602 65.12 20.2402 64.41 20.2402C62.88 20.2402 61.2 20.6702 61.2 22.5002C61.2 24.3302 62.64 24.7402 63.81 25.0902C64.61 25.3202 65.29 25.5202 65.29 26.0002C65.29 26.4502 65.14 26.8502 63.98 26.8502C63.1 26.8502 62.54 26.5402 61.69 26.2202L61.04 27.7603C61.87 28.0603 63.06 28.2902 63.94 28.2902C65.55 28.2902 67.21 27.7602 67.21 25.9802C67.21 24.2002 65.7 23.7402 64.52 23.3802Z" fill="#003160"/>
<path d="M74.4998 28.0603C74.4798 27.8503 74.4499 27.6403 74.4099 27.4303C74.3799 27.2203 74.3398 27.0103 74.3098 26.8203C74.2798 26.6203 74.2499 26.4303 74.2299 26.2503C74.2099 26.0703 74.1898 25.9003 74.1898 25.7503V22.7003C74.1898 22.2903 74.1199 21.9303 73.9799 21.6203C73.8399 21.2903 73.2898 20.2803 71.3298 20.2803C71.0298 20.2803 69.8499 20.2903 68.6199 20.6003L69.0499 22.1303C70.8499 21.5303 71.6099 21.7303 71.7999 21.8303C72.2899 22.0703 72.2999 22.5003 72.2999 23.0703H71.6699C70.8699 23.0703 69.3598 23.1603 68.4998 23.9903C67.6198 24.8103 67.5398 27.1503 69.2698 27.8803C71.0798 28.6603 72.3398 27.4003 72.4398 27.3003L72.7199 28.0603H74.4899H74.4998ZM72.3398 26.0503C72.3398 26.0503 71.7498 26.7703 70.8298 26.7703C70.0898 26.7703 69.5298 26.4403 69.4598 25.8103C69.3598 24.7803 70.4498 24.4703 70.7798 24.4103C71.0898 24.3503 71.4699 24.3203 71.9199 24.3203H72.3298V26.0503H72.3398Z" fill="#003160"/>
</svg>
