<svg width="77" height="21" viewBox="0 0 77 21" fill="none" xmlns="http://www.w3.org/2000/svg">
<path d="M30.7137 0.029541C30.6637 0.319541 30.4137 0.459526 30.2337 0.639526C27.1937 3.67953 24.1437 6.69951 21.1237 9.74951C20.6737 10.2095 20.4237 10.2995 19.9137 9.77954C16.8837 6.69954 13.7937 3.6695 10.7337 0.609497C10.5537 0.429497 10.4037 0.219531 10.2437 0.0195312C17.0637 0.0195312 23.8937 0.0195312 30.7137 0.0195312V0.029541Z" fill="#DA0112"/>
<path d="M10.2437 20.6396C13.5437 17.3396 16.8436 14.0396 20.1436 10.7396C20.3936 10.4896 20.5637 10.4096 20.8537 10.6996C24.1237 13.9896 27.4137 17.2696 30.6937 20.5596C30.7137 20.5796 30.7037 20.6196 30.7137 20.6496H10.2437V20.6396Z" fill="#DA0112"/>
<path d="M76.8137 12.4699C76.0237 14.3399 74.7437 15.0199 72.5037 14.7799C70.7237 14.5899 69.6237 13.4499 69.2737 11.4699C68.6137 7.6199 71.2137 5.05987 74.7337 6.06987C75.8637 6.38987 76.4637 7.1699 76.8137 8.2199V8.57988C76.3437 8.57988 75.8637 8.55988 75.3937 8.57988C75.0737 8.59988 74.8937 8.51988 74.7237 8.19988C74.1537 7.06988 72.7637 6.93989 71.8737 7.89989C70.8737 8.98989 70.7937 11.6399 71.7337 12.7799C72.4737 13.6899 74.0637 13.7799 74.5437 12.8199C74.8937 12.1399 75.3137 12.0799 75.9137 12.1299C76.2037 12.1499 76.5037 12.1299 76.7937 12.1299V12.4899L76.8137 12.4699Z" fill="#050505"/>
<path d="M30.9336 0C32.2236 1.33 33.3436 2.50002 34.4836 3.65002C36.5736 5.75002 38.6736 7.82998 40.7736 9.91998C41.0336 10.18 41.2736 10.34 40.8636 10.74C37.6236 13.91 34.4236 17.11 31.2036 20.3C31.1536 20.35 31.0636 20.38 30.9336 20.45V0Z" fill="#DA0112"/>
<path d="M10.0738 0.0195312V20.4095C9.74377 20.3795 9.62377 20.1195 9.44377 19.9495C6.43377 16.9695 3.44377 13.9795 0.413768 11.0195C-0.0862325 10.5295 -0.176231 10.2695 0.383769 9.72949C3.58377 6.57949 6.73377 3.37953 10.0738 0.0195312Z" fill="#DA0112"/>
<path d="M66.4936 10.1698C67.9936 10.7598 68.3836 11.2899 68.3036 12.5099C68.2336 13.5399 67.6036 14.1798 66.2536 14.4798C64.7936 14.7998 63.3036 14.5599 61.8336 14.6199C61.4536 14.6399 61.5036 14.3699 61.5036 14.1399C61.5036 11.5999 61.5036 9.05988 61.4736 6.51988C61.4736 6.08988 61.6636 6.04986 62.0036 6.05986C63.1836 6.06986 64.3736 6.05987 65.5536 6.06987C65.6736 6.06987 65.7936 6.07984 65.9036 6.09984C67.0836 6.28984 67.8236 6.92985 67.9636 7.85985C68.1236 8.93985 67.8136 9.45985 66.4936 10.1698ZM63.2336 11.9798C63.2336 12.8998 63.6803 13.3565 64.5736 13.3498C64.8336 13.3498 65.1136 13.3699 65.3636 13.3199C66.0136 13.1699 66.3736 12.7699 66.3536 12.0699C66.3236 11.0799 65.8736 10.9099 63.9936 10.8299C62.8336 10.7799 63.3536 11.5598 63.2336 11.9798ZM63.2736 8.21989C63.2736 9.15323 63.5703 9.61986 64.1636 9.61986C65.6636 9.61986 66.1436 9.33989 66.1436 8.46989C66.1436 7.61989 65.6136 7.39984 64.1636 7.28984C63.1536 7.20984 63.2336 7.74989 63.2836 8.21989H63.2736Z" fill="#050505"/>
<path d="M52.214 10.4203C52.214 11.6003 52.194 12.7903 52.214 13.9703C52.224 14.4403 52.134 14.6403 51.594 14.6403C50.324 14.6403 50.324 14.6703 50.324 13.3903C50.324 12.7703 50.294 12.1503 50.324 11.5303C50.354 11.0503 50.164 10.9203 49.714 10.9403C48.854 10.9703 47.994 10.9703 47.134 10.9403C46.684 10.9303 46.504 11.0403 46.524 11.5303C46.564 12.3903 46.514 13.2503 46.544 14.1003C46.564 14.5303 46.414 14.6403 45.994 14.6403C44.704 14.6703 44.704 14.6903 44.704 13.4203C44.704 11.2003 44.754 8.98033 44.684 6.77033C44.654 5.93033 45.114 6.05031 45.604 6.06031C46.074 6.07031 46.694 5.8703 46.534 6.7403C46.534 6.7703 46.534 6.80033 46.534 6.83033C46.594 7.73033 46.404 8.65029 46.644 9.54029C47.734 9.56029 48.824 9.57029 49.914 9.60029C50.324 9.61029 50.314 9.35033 50.314 9.08033C50.314 8.25033 50.334 7.42029 50.304 6.60029C50.284 6.16029 50.444 6.0603 50.864 6.0503C52.194 6.0103 52.194 5.99032 52.194 7.32032C52.194 8.36032 52.194 9.39031 52.194 10.4303L52.214 10.4203Z" fill="#050505"/>
<path d="M56.6639 14.7798C54.7839 14.7798 53.6739 14.0198 53.3639 12.5998C53.2739 12.1798 53.3239 11.9898 53.8039 12.0298C54.4639 12.0798 55.0939 11.8598 55.4639 12.8398C55.8439 13.8598 57.7839 13.7298 58.2839 12.7398C58.6439 12.0398 58.3039 11.5998 57.6539 11.3698C56.7939 11.0598 55.8939 10.8498 55.0539 10.5098C53.6639 9.94979 53.1539 8.7798 53.6639 7.5298C53.8039 7.1998 54.0139 6.90977 54.2839 6.67977C55.3939 5.74977 57.8739 5.60976 59.0739 6.41976C59.2639 6.54976 59.4739 6.6998 59.5939 6.8998C59.8639 7.3498 60.3439 7.85976 59.8939 8.35976C59.5739 8.71976 58.3239 8.26978 58.0639 7.81978C57.6039 6.99978 56.1939 6.88978 55.6239 7.62978C55.1939 8.17978 55.3639 8.80975 56.1039 9.09975C57.0839 9.48975 58.1339 9.73977 59.0939 10.1798C60.6739 10.9098 60.8239 12.9798 59.4339 14.0298C58.8039 14.5098 58.0739 14.7098 57.2939 14.7898C57.0839 14.8098 56.8839 14.7898 56.6739 14.7898L56.6639 14.7798Z" fill="#050505"/>
</svg>
