<svg width="104" height="25" viewBox="0 0 104 25" fill="none" xmlns="http://www.w3.org/2000/svg">
<path d="M26.8216 15.6691C26.4402 16.2411 25.8657 16.9121 24.7192 16.9121C22.9983 16.9121 22.4262 15.6691 23.0948 12.6134C23.6669 10.0331 24.432 8.12392 26.4378 8.12392C27.1064 8.12392 27.8715 8.3146 28.0622 9.27042L28.8273 5.73438H31.311L29.018 16.7215H26.6285L26.8192 15.6715L26.8216 15.6691ZM27.1088 9.9366C26.153 9.9366 25.9623 10.8924 25.5809 12.4203C25.2937 13.7575 25.103 15.0005 25.9623 15.0005C26.7274 15.0005 27.0122 14.1412 27.396 12.5168C27.7774 11.0831 27.9681 9.9366 27.1088 9.9366Z" fill="#006937"/>
<path d="M36.8556 16.7191H34.4661L34.6567 15.7633C34.1788 16.5284 33.3196 17.0063 32.3637 17.0063C30.93 17.0063 30.3579 16.3377 30.6428 14.7133L31.9799 8.50293H34.4636L33.2206 14.1389C33.1241 14.7109 33.3172 15.0947 33.6985 15.0947C34.1764 15.0947 34.6543 14.7133 34.845 13.9482L35.9915 8.50293H38.4751L36.8507 16.7191H36.8556Z" fill="#006937"/>
<path d="M40.4857 5.7319H42.9694L42.2043 9.26795C42.7763 8.40868 43.638 8.12145 44.3066 8.12145C46.3124 8.12145 46.3123 10.0331 45.7403 12.6109C45.0717 15.7632 43.9252 16.9097 42.2043 16.9097C41.0578 16.9097 40.7705 16.2411 40.6764 15.6666L40.4857 16.7166H38.0962L40.4857 5.72949V5.7319ZM41.8229 15.0946C42.7787 15.0946 43.066 13.8515 43.3508 12.5144C43.638 10.9865 43.8287 10.0307 42.9694 10.0307C42.1101 10.0307 41.8229 11.1772 41.5357 12.6109C41.0578 14.2353 41.0578 15.0946 41.8229 15.0946Z" fill="#006937"/>
<path d="M10.9639 8.31262H13.3535L13.0663 9.45912C13.5442 8.69398 14.3093 8.02539 15.3593 8.02539H15.7406L15.2627 10.4149C15.072 10.4149 14.7848 10.3184 14.5941 10.3184C13.6383 10.3184 12.8731 10.6998 12.5883 11.8463L11.5384 16.5288H9.05469L10.9663 8.31262H10.9639Z" fill="#006937"/>
<path d="M15.4531 12.5145C16.0251 10.0308 16.9809 8.11914 19.8484 8.11914C22.9065 8.11914 22.9065 9.93424 22.3321 12.5145C21.76 14.9981 20.8042 16.9098 17.9368 16.9098C14.8786 16.9098 14.8786 14.9981 15.4531 12.5145ZM19.4646 9.74354C18.6994 9.74354 18.3181 10.5087 17.9368 12.5145C17.4589 14.5202 17.5554 15.2854 18.3181 15.2854C19.0808 15.2854 19.3681 14.6168 19.846 12.5145C20.2273 10.5087 20.2273 9.74354 19.4646 9.74354Z" fill="#006937"/>
<path d="M3.60694 5.7319H7.61851C10.3894 5.7319 10.4835 7.73767 10.1987 9.07485C9.81736 11.0806 8.57433 12.4178 5.9941 12.4178H4.8476L3.89179 16.7166H1.31152L3.60452 5.72949L3.60694 5.7319ZM5.13482 10.5086H5.80341C6.85336 10.5086 7.23716 9.83999 7.33129 9.1714C7.52197 8.31213 7.33127 7.64354 6.28132 7.64354H5.61272L5.13482 10.5086Z" fill="#006937"/>
<path d="M69.3388 12.5145C69.9109 10.0308 70.8667 8.11914 73.7341 8.11914C76.7923 8.11914 76.7923 9.93424 76.2178 12.5145C75.6458 14.9981 74.69 16.9098 71.8225 16.9098C68.7644 16.9098 68.7644 14.9981 69.3388 12.5145ZM73.3503 9.74354C72.5852 9.74354 72.2039 10.5087 71.8225 12.5145C71.3446 14.5202 71.4411 15.2854 72.2038 15.2854C72.9665 15.2854 73.2538 14.6168 73.7317 12.5145C74.1131 10.5087 74.113 9.74354 73.3503 9.74354Z" fill="#006937"/>
<path d="M59.783 8.11914C58.8272 8.11914 58.062 8.59705 57.49 9.36219L57.6807 8.40637H55.2912L53.4761 16.7191H55.9598L57.1063 11.2738C57.2969 10.4146 57.7749 10.1273 58.2528 10.1273C58.7307 10.1273 58.9213 10.5087 58.7307 11.0831L57.4876 16.8156H59.9713L61.3085 10.6052C61.7864 8.88669 61.2143 8.12156 59.7806 8.12156" fill="#006937"/>
<path d="M51.0887 8.11914C50.0388 8.11914 49.2737 8.21569 48.6051 8.69118C47.9365 9.07254 47.4585 9.74114 47.1713 10.8876H49.3678C49.5585 10.1225 49.8457 9.74114 50.5143 9.74114C51.0863 9.74114 51.2794 10.0284 51.0863 10.6004C50.9897 11.269 50.7991 11.3655 50.0364 11.5562C49.2712 11.7469 48.3154 11.9376 47.6468 12.2248C46.9782 12.6062 46.4038 13.3713 46.2131 14.3271C45.8317 16.1422 46.5003 16.9074 47.9341 16.9074C48.7933 16.9074 49.655 16.4294 50.1305 15.7609C50.0339 16.0481 50.034 16.4294 50.034 16.7167H52.4235C52.2328 16.3353 52.4235 15.5702 52.5201 14.9016L53.4759 10.6028C53.8572 8.88428 53.0945 8.11914 51.0863 8.11914M50.4201 14.0447C50.2294 14.904 49.655 15.1912 49.1771 15.1912C48.6992 15.1912 48.5085 14.8099 48.6992 14.1413C48.7957 13.6634 48.9864 13.3761 49.2713 13.1855C49.5585 12.9948 49.8433 12.9948 50.7991 12.6134C50.7025 12.9006 50.6084 13.3786 50.4178 14.0471" fill="#006937"/>
<path d="M66.5679 11.465C66.8552 10.222 66.6645 9.74647 65.9959 9.74647C65.1366 9.74647 64.8494 10.7964 64.468 12.5174C64.0867 14.429 63.9901 15.2883 64.8494 15.2883C65.6145 15.2883 65.8993 14.8104 66.1866 13.2825H68.4796C67.9075 15.8628 66.6645 16.9127 64.468 16.9127C61.3158 16.9127 61.5064 14.7162 62.0785 12.2301C62.5564 9.8406 63.6063 8.12207 66.3772 8.12207C68.9575 8.12207 69.3388 9.45924 68.9575 11.465H66.5679Z" fill="#006937"/>
<path d="M1.40806 21.783H1.88596L1.78938 22.1643C1.69283 22.5457 1.40805 22.7364 1.21737 22.7364C0.739459 22.7364 0.835996 22.1643 1.02668 21.2085C1.21736 20.2527 1.50457 19.8713 1.7918 19.8713C2.07902 19.8713 2.1732 20.2527 2.07907 20.5399H2.84419C3.03487 19.7748 2.74765 19.2969 1.88838 19.2969C0.93256 19.2969 0.454621 19.9655 0.167392 21.2085C-0.119836 22.5457 -0.119831 23.2143 0.835987 23.2143C1.21735 23.2143 1.50459 23.1177 1.69527 22.7364L1.59875 23.1177H2.17076L2.64867 21.0154H1.40564V21.7805L1.40806 21.783ZM4.84756 20.3492H4.75097C4.46374 20.3492 4.17895 20.5399 3.98585 20.8272L4.08238 20.4458H3.41378L2.84177 23.3108H3.60689L3.98827 21.5923C4.08482 21.2109 4.36964 21.1144 4.65687 21.1144H4.84756V20.3492ZM6.66265 20.4458L6.28127 22.3574C6.18472 22.6447 5.99405 22.8353 5.80336 22.8353C5.61268 22.8353 5.51613 22.7388 5.61267 22.454L5.99406 20.4482H5.22888L4.75097 22.5505C4.65443 23.1226 4.84755 23.4098 5.32304 23.4098C5.61027 23.4098 5.8951 23.3132 6.18233 23.0284L6.08575 23.4098H6.75434L7.32641 20.5447H6.65782V20.4482L6.66265 20.4458ZM9.24286 20.3492C8.95563 20.3492 8.76497 20.4458 8.47774 20.7306L8.57427 20.4434H7.90567L7.04639 24.2642H7.81157L8.09878 23.0212C8.19533 23.2119 8.38598 23.4026 8.67079 23.4026C9.24283 23.4026 9.62665 22.9246 9.91387 21.8747C10.0104 20.8247 9.81732 20.3468 9.24528 20.3468M9.05217 21.8771C8.95563 22.5457 8.76498 22.8329 8.48016 22.8329C8.19535 22.8329 8.19292 22.5457 8.28947 21.8771C8.38602 21.2085 8.57667 20.9213 8.86148 20.9213C9.24284 20.9213 9.24285 21.2085 9.05217 21.8771ZM11.6324 20.3492C10.7731 20.3492 10.3894 20.9213 10.1987 21.8771C10.008 22.9271 10.1021 23.405 11.058 23.405C11.9172 23.405 12.301 22.8329 12.4917 21.8771C12.6824 20.8272 12.4917 20.3492 11.6324 20.3492ZM11.7266 21.8771C11.5359 22.6422 11.4393 22.927 11.1545 22.927C10.7731 22.927 10.8672 22.5457 10.9638 21.8771C11.0603 21.3051 11.251 20.8272 11.5359 20.8272C11.8207 20.8272 11.8231 21.1144 11.7266 21.8771ZM16.0253 19.49H14.6881L13.8289 23.3108H14.594L14.8812 21.783H15.2626C16.0277 21.783 16.5997 21.4016 16.6963 20.6365C16.9835 20.0644 16.887 19.49 16.0277 19.49M16.0253 20.7306C15.9287 21.112 15.7381 21.3026 15.3567 21.3026H14.9754L15.2626 20.1561H15.5498C16.0277 20.0596 16.1218 20.3468 16.0277 20.7282M18.7021 20.3492H18.6055C18.3183 20.3492 18.0335 20.5399 17.8404 20.8272L17.937 20.4458H17.2684L16.6963 23.3108H17.4615L17.8428 21.5923C17.9393 21.2109 18.2242 21.1144 18.5114 21.1144H18.7021V20.3492ZM20.0393 20.3492C19.18 20.3492 18.7962 20.9213 18.6055 21.8771C18.4149 22.9271 18.509 23.405 19.4648 23.405C20.324 23.405 20.7079 22.8329 20.8985 21.8771C21.0892 20.8272 20.8985 20.3492 20.0393 20.3492ZM20.1358 21.8771C19.9451 22.6422 19.8486 22.927 19.5638 22.927C19.1824 22.927 19.2765 22.5457 19.3731 21.8771C19.4696 21.3051 19.6603 20.8272 19.9452 20.8272C20.23 20.8272 20.2323 21.1144 20.1358 21.8771ZM24.4346 20.3492C24.0532 20.3492 23.766 20.5399 23.5753 20.8272C23.5753 20.5399 23.3846 20.3492 23.0033 20.3492C22.716 20.3492 22.4312 20.4458 22.2382 20.7306L22.3347 20.4434H21.6661L21.094 23.3084H21.8592L22.2405 21.3968C22.3371 21.1096 22.5278 20.9189 22.7185 20.9189C22.9092 20.9189 23.0056 21.0154 22.9091 21.3002L22.5278 23.306H23.2929L23.6743 21.3944C23.7708 21.1071 23.9615 20.9165 24.1522 20.9165C24.3429 20.9165 24.4394 21.013 24.3429 21.2978L23.865 23.3036H24.6301L25.108 21.2013C25.108 20.6292 24.9173 20.342 24.4394 20.342M26.7276 20.3492C25.7717 20.3492 25.3904 21.1144 25.2939 21.8771C25.1032 22.6422 25.0066 23.405 26.059 23.405C26.7276 23.405 27.109 23.0236 27.3021 22.355H26.6335C26.5369 22.7364 26.3462 22.927 26.1556 22.927C25.8683 22.927 25.8683 22.6398 25.9649 22.2585L26.0614 22.0678H27.4951V21.8771C27.5892 20.9213 27.5893 20.3492 26.73 20.3492M26.8217 21.4957H26.0566V21.3992C26.1531 21.112 26.2472 20.8272 26.5345 20.8272C26.8217 20.8272 26.8217 21.1144 26.8217 21.4957ZM29.6892 20.3492H29.5926C29.3054 20.3492 29.0206 20.5399 28.8275 20.8272L28.924 20.4458H28.2554L27.6834 23.3108H28.4486L28.8299 21.5923C28.9264 21.2109 29.2112 21.1144 29.4985 21.1144H29.6892V20.3492ZM30.9298 19.3934H30.1646L30.0681 20.062H30.8332L30.9298 19.3934ZM29.3054 23.3108H30.0705L30.6426 20.4458H29.8774L29.3054 23.3108ZM33.0321 21.4957C33.2228 20.8271 32.9355 20.3492 32.267 20.3492C31.5984 20.3492 31.0239 20.6365 30.7391 21.8771C30.4519 23.0236 30.7391 23.405 31.5043 23.405C32.2694 23.405 32.6508 23.0236 32.8414 22.2585H32.1728C32.0763 22.7364 31.8856 22.927 31.6949 22.927C31.4077 22.927 31.4077 22.6398 31.5043 21.8771C31.6008 21.2085 31.7915 20.9213 32.1728 20.9213C32.4601 20.9213 32.4601 21.2085 32.3635 21.4933H33.0321V21.4957ZM34.7531 20.3492C34.181 20.3492 33.7031 20.5399 33.51 21.2085V21.3051H34.1786V21.2085C34.2752 21.0178 34.3693 20.8272 34.56 20.8272C34.8472 20.8272 34.8472 20.9237 34.8472 21.2085C34.8472 21.3992 34.7507 21.4957 34.4658 21.5899L33.9879 21.6864C33.4159 21.783 33.2228 22.0678 33.0321 22.5457C32.9356 22.9271 33.0321 23.405 33.51 23.405C33.8914 23.405 34.082 23.3084 34.3693 23.0236V23.3108H35.0379V22.7388L35.3251 21.2109C35.7065 20.733 35.6123 20.3517 34.7531 20.3517M34.5624 22.4516C34.4658 22.7388 34.181 22.9295 33.9904 22.9295C33.7997 22.9295 33.7031 22.7388 33.7997 22.5481C33.8962 22.2609 33.9903 22.1667 34.2776 22.0702C34.3741 22.0702 34.4683 21.9737 34.659 21.8795L34.5624 22.4516Z" fill="#006937"/>
<path d="M95.3243 4.96723C91.2162 8.97877 87.4895 13.4706 84.2407 18.2473C90.1639 13.0893 96.565 8.59741 103.444 4.96723C100.673 4.77655 97.9987 4.77655 95.3219 4.96723" fill="#76BC21"/>
<path d="M81.7572 20.8277C85.2932 14.9045 89.4955 9.45922 94.2722 4.48945C93.7001 2.96159 92.4571 0 92.4571 0C90.8326 1.81509 89.3989 3.82086 88.0618 5.92318C85.4815 6.49522 82.9978 7.26036 80.5142 8.21618C80.5142 8.21618 83.6664 10.3185 85.1967 11.465C83.9536 14.4266 81.9479 20.4463 81.7572 20.8277ZM98.8606 19.9684C98.0013 16.7196 97.1396 13.4708 96.2803 10.1278C94.178 11.465 92.0757 12.8987 90.0699 14.4266C93.0315 16.2417 95.8966 18.1533 98.8606 19.9684Z" fill="#006937"/>
</svg>
