<svg width="50" height="32" viewBox="0 0 50 32" fill="none" xmlns="http://www.w3.org/2000/svg">
<path d="M1.20007 28.9397C1.31007 28.9397 1.41007 28.9397 1.51007 28.9697C1.60007 28.9897 1.68006 29.0197 1.75006 29.0697C1.82006 29.1197 1.87009 29.1797 1.90009 29.2597C1.94009 29.3397 1.95007 29.4297 1.95007 29.5497C1.95007 29.6697 1.92006 29.7797 1.87006 29.8597C1.81006 29.9397 1.74007 30.0097 1.63007 30.0597C1.78007 30.0997 1.88008 30.1797 1.96008 30.2897C2.03008 30.3997 2.07007 30.5297 2.07007 30.6897C2.07007 30.8097 2.05006 30.9197 2.00006 31.0097C1.95006 31.0997 1.89006 31.1797 1.81006 31.2297C1.73006 31.2897 1.64007 31.3297 1.54007 31.3597C1.44007 31.3897 1.34007 31.3997 1.23007 31.3997H0.0800781V28.9297H1.19006L1.20007 28.9397ZM1.14008 29.9397C1.23008 29.9397 1.31006 29.9197 1.37006 29.8697C1.43006 29.8197 1.46008 29.7497 1.46008 29.6497C1.46008 29.5897 1.45008 29.5497 1.43008 29.5097C1.41008 29.4697 1.38007 29.4397 1.35007 29.4197C1.32007 29.3997 1.28008 29.3797 1.24008 29.3797C1.20008 29.3797 1.15008 29.3697 1.11008 29.3697H0.620056V29.9497H1.15009L1.14008 29.9397ZM1.17007 30.9897C1.22007 30.9897 1.27007 30.9897 1.32007 30.9697C1.37007 30.9597 1.41006 30.9397 1.44006 30.9197C1.48006 30.8997 1.50008 30.8597 1.52008 30.8197C1.54008 30.7797 1.55008 30.7297 1.55008 30.6597C1.55008 30.5297 1.52007 30.4397 1.45007 30.3897C1.38007 30.3397 1.29008 30.3097 1.18008 30.3097H0.610077V30.9897H1.17007Z" fill="#333333"/>
<path d="M3.62994 28.9395L4.50995 31.4094H3.96994L3.78995 30.8594H2.89996L2.70996 31.4094H2.18994L3.07996 28.9395H3.60995H3.62994ZM3.65994 30.4495L3.35995 29.5394L3.04996 30.4495H3.65994Z" fill="#333333"/>
<path d="M5.26978 28.9395L6.25977 30.5895V28.9395H6.74976V31.4094H6.22977L5.24976 29.7595V31.4094H4.75977V28.9395H5.27975H5.26978Z" fill="#333333"/>
<path d="M8.76013 29.5996C8.73013 29.5496 8.69014 29.4997 8.64014 29.4597C8.59014 29.4197 8.54013 29.3896 8.48013 29.3696C8.42013 29.3496 8.36014 29.3397 8.30014 29.3397C8.18014 29.3397 8.08012 29.3596 8.00012 29.4096C7.92012 29.4596 7.85014 29.5196 7.80014 29.5996C7.75014 29.6796 7.71012 29.7696 7.69012 29.8696C7.67012 29.9696 7.66013 30.0796 7.66013 30.1896C7.66013 30.2996 7.67012 30.3896 7.69012 30.4896C7.71012 30.5896 7.75014 30.6796 7.80014 30.7496C7.85014 30.8296 7.92012 30.8896 8.00012 30.9396C8.08012 30.9896 8.18014 31.0096 8.30014 31.0096C8.46014 31.0096 8.58014 30.9596 8.67014 30.8596C8.76014 30.7596 8.81014 30.6197 8.83014 30.4597H9.33014C9.32014 30.6197 9.28013 30.7496 9.23013 30.8796C9.17013 30.9996 9.10013 31.1096 9.01013 31.1996C8.92013 31.2896 8.81012 31.3497 8.69012 31.3997C8.57012 31.4497 8.43013 31.4697 8.29013 31.4697C8.11013 31.4697 7.95014 31.4396 7.80014 31.3696C7.65014 31.2996 7.53015 31.2096 7.43015 31.0996C7.33015 30.9796 7.25013 30.8496 7.20013 30.6896C7.15013 30.5296 7.12012 30.3696 7.12012 30.1896C7.12012 30.0096 7.15013 29.8296 7.20013 29.6796C7.25013 29.5196 7.33015 29.3797 7.43015 29.2697C7.53015 29.1497 7.65014 29.0596 7.80014 28.9896C7.95014 28.9196 8.11013 28.8896 8.29013 28.8896C8.42013 28.8896 8.54013 28.9096 8.66013 28.9496C8.78013 28.9896 8.88012 29.0396 8.97012 29.1196C9.06012 29.1996 9.14013 29.2897 9.20013 29.3997C9.26013 29.5097 9.30012 29.6397 9.31012 29.7797H8.81012C8.81012 29.7197 8.78012 29.6596 8.75012 29.6096L8.76013 29.5996Z" fill="#333333"/>
<path d="M9.70013 29.6699C9.75013 29.5099 9.83015 29.3699 9.93015 29.2599C10.0301 29.1399 10.1501 29.0499 10.3001 28.9799C10.4401 28.9099 10.6101 28.8799 10.7901 28.8799C10.9701 28.8799 11.1401 28.9099 11.2801 28.9799C11.4201 29.0499 11.5501 29.1399 11.6401 29.2599C11.7401 29.3799 11.8201 29.5099 11.8701 29.6699C11.9201 29.8299 11.9501 29.9999 11.9501 30.1799C11.9501 30.3599 11.9201 30.5299 11.8701 30.6799C11.8201 30.8399 11.7401 30.9699 11.6401 31.0899C11.5401 31.2099 11.4201 31.2999 11.2801 31.3599C11.1401 31.4299 10.9701 31.4599 10.7901 31.4599C10.6101 31.4599 10.4501 31.4299 10.3001 31.3599C10.1601 31.2899 10.0301 31.1999 9.93015 31.0899C9.83015 30.9699 9.75013 30.8399 9.70013 30.6799C9.65013 30.5199 9.62012 30.3599 9.62012 30.1799C9.62012 29.9999 9.65013 29.8199 9.70013 29.6699ZM10.1801 30.4899C10.2001 30.5899 10.2401 30.6799 10.2901 30.7499C10.3401 30.8299 10.4101 30.8899 10.4901 30.9399C10.5701 30.9899 10.6701 31.0099 10.7901 31.0099C10.9101 31.0099 11.0101 30.9899 11.0901 30.9399C11.1701 30.8899 11.2401 30.8299 11.2901 30.7499C11.3401 30.6699 11.3801 30.5799 11.4001 30.4899C11.4201 30.3899 11.4301 30.2899 11.4301 30.1899C11.4301 30.0799 11.4201 29.9799 11.4001 29.8699C11.3801 29.7699 11.3401 29.6799 11.2901 29.5999C11.2401 29.5199 11.1701 29.4599 11.0901 29.4099C11.0101 29.3599 10.9101 29.3399 10.7901 29.3399C10.6701 29.3399 10.5701 29.3599 10.4901 29.4099C10.4101 29.4599 10.3401 29.5199 10.2901 29.5999C10.2401 29.6799 10.2001 29.7699 10.1801 29.8699C10.1601 29.9699 10.1401 30.0799 10.1401 30.1899C10.1401 30.2999 10.1501 30.3899 10.1801 30.4899Z" fill="#333333"/>
<path d="M14.6902 31.3899C14.5802 31.4399 14.4602 31.4599 14.3502 31.4599C14.1702 31.4599 14.0102 31.4299 13.8602 31.3599C13.7202 31.2899 13.5902 31.1999 13.4902 31.0899C13.3902 30.9699 13.3102 30.8399 13.2602 30.6799C13.2102 30.5199 13.1802 30.3599 13.1802 30.1799C13.1802 29.9999 13.2102 29.8199 13.2602 29.6699C13.3102 29.5099 13.3902 29.3699 13.4902 29.2599C13.5902 29.1399 13.7102 29.0499 13.8602 28.9799C14.0102 28.9099 14.1702 28.8799 14.3502 28.8799C14.4702 28.8799 14.5902 28.8999 14.7002 28.9399C14.8102 28.9799 14.9202 29.0299 15.0102 29.1099C15.1002 29.1799 15.1802 29.2699 15.2402 29.3799C15.3002 29.4899 15.3402 29.6099 15.3502 29.7499H14.8502C14.8202 29.6099 14.7602 29.5099 14.6702 29.4399C14.5802 29.3699 14.4702 29.3399 14.3502 29.3399C14.2302 29.3399 14.1302 29.3599 14.0502 29.4099C13.9702 29.4599 13.9002 29.5199 13.8502 29.5999C13.8002 29.6799 13.7602 29.7699 13.7402 29.8699C13.7202 29.9699 13.7102 30.0799 13.7102 30.1899C13.7102 30.2999 13.7202 30.3899 13.7402 30.4899C13.7602 30.5899 13.8002 30.6799 13.8502 30.7499C13.9002 30.8299 13.9702 30.8899 14.0502 30.9399C14.1302 30.9899 14.2302 31.0099 14.3502 31.0099C14.5202 31.0099 14.6602 30.9599 14.7502 30.8699C14.8402 30.7799 14.9002 30.6499 14.9102 30.4699H14.3902V30.0599H15.3802V31.3899H15.0502L15.0002 31.1099C14.9102 31.2299 14.8002 31.3199 14.6902 31.3699V31.3899Z" fill="#333333"/>
<path d="M17.6001 28.9395V29.3995H16.3501V29.9294H17.5001V30.3494H16.3501V30.9495H17.6301V31.4094H15.8301V28.9395H17.6001Z" fill="#333333"/>
<path d="M18.53 28.9395L19.52 30.5895V28.9395H20.01V31.4094H19.49L18.51 29.7595V31.4094H18.02V28.9395H18.54H18.53Z" fill="#333333"/>
<path d="M22.2602 28.9395V29.3995H21.0102V29.9294H22.1602V30.3494H21.0102V30.9495H22.2902V31.4094H20.4902V28.9395H22.2602Z" fill="#333333"/>
<path d="M23.9502 28.9395C24.0602 28.9395 24.1502 28.9594 24.2402 28.9894C24.3302 29.0294 24.4002 29.0795 24.4602 29.1395C24.5202 29.1995 24.5702 29.2694 24.6002 29.3594C24.6302 29.4394 24.6502 29.5294 24.6502 29.6194C24.6502 29.7594 24.6202 29.8895 24.5602 29.9995C24.5002 30.1095 24.4102 30.1894 24.2702 30.2394C24.3302 30.2694 24.3902 30.2895 24.4302 30.3295C24.4702 30.3695 24.5102 30.4095 24.5302 30.4595C24.5602 30.5095 24.5801 30.5695 24.5901 30.6295C24.6001 30.6895 24.6102 30.7495 24.6102 30.8195C24.6102 30.8595 24.6102 30.9095 24.6102 30.9595C24.6102 31.0095 24.6101 31.0694 24.6201 31.1194C24.6201 31.1794 24.6302 31.2295 24.6502 31.2795C24.6602 31.3295 24.6802 31.3694 24.7102 31.4094H24.1902C24.1602 31.3294 24.1402 31.2395 24.1402 31.1295C24.1402 31.0195 24.1202 30.9195 24.1102 30.8195C24.0902 30.6895 24.0502 30.5994 24.0002 30.5394C23.9402 30.4794 23.8502 30.4495 23.7202 30.4495H23.2002V31.4094H22.6802V28.9395H23.9602H23.9502ZM23.7602 30.0594C23.8802 30.0594 23.9702 30.0294 24.0302 29.9794C24.0902 29.9194 24.1201 29.8295 24.1201 29.7095C24.1201 29.5895 24.0902 29.4995 24.0302 29.4495C23.9702 29.3995 23.8802 29.3694 23.7602 29.3694H23.1902V30.0594H23.7602Z" fill="#333333"/>
<path d="M26.2801 28.9395L27.1701 31.4094H26.6301L26.4501 30.8594H25.5601L25.3701 31.4094H24.8501L25.7501 28.9395H26.2801ZM26.3001 30.4495L26.0001 29.5394L25.6901 30.4495H26.3001Z" fill="#333333"/>
<path d="M27.9204 28.9395V30.9495H29.0704V31.4094H27.4004V28.9395H27.9204Z" fill="#333333"/>
<path d="M31.6198 28.9395C31.7298 28.9395 31.8199 28.9594 31.9099 28.9894C31.9899 29.0294 32.0699 29.0795 32.1299 29.1395C32.1899 29.1995 32.2399 29.2694 32.2699 29.3594C32.2999 29.4394 32.3199 29.5294 32.3199 29.6194C32.3199 29.7594 32.2899 29.8895 32.2299 29.9995C32.1699 30.1095 32.0798 30.1894 31.9398 30.2394C31.9998 30.2694 32.0599 30.2895 32.0999 30.3295C32.1399 30.3695 32.1799 30.4095 32.1999 30.4595C32.2299 30.5095 32.2499 30.5695 32.2599 30.6295C32.2699 30.6895 32.2798 30.7495 32.2798 30.8195C32.2798 30.8595 32.2798 30.9095 32.2798 30.9595C32.2798 31.0095 32.2799 31.0694 32.2899 31.1194C32.2899 31.1794 32.2999 31.2295 32.3199 31.2795C32.3299 31.3295 32.3498 31.3694 32.3698 31.4094H31.8499C31.8199 31.3294 31.7999 31.2395 31.7999 31.1295C31.7999 31.0195 31.7799 30.9195 31.7699 30.8195C31.7499 30.6895 31.7199 30.5994 31.6599 30.5394C31.5999 30.4794 31.5099 30.4495 31.3799 30.4495H30.8599V31.4094H30.3398V28.9395H31.6198ZM31.4299 30.0594C31.5499 30.0594 31.6399 30.0294 31.6999 29.9794C31.7599 29.9194 31.7899 29.8295 31.7899 29.7095C31.7899 29.5895 31.7599 29.4995 31.6999 29.4495C31.6399 29.3995 31.5499 29.3694 31.4299 29.3694H30.8599V30.0594H31.4299Z" fill="#333333"/>
<path d="M34.51 31.2195C34.33 31.3795 34.08 31.4595 33.77 31.4595C33.46 31.4595 33.2 31.3795 33.03 31.2195C32.85 31.0595 32.77 30.8095 32.77 30.4695V28.9395H33.29V30.4695C33.29 30.5395 33.29 30.5994 33.31 30.6694C33.32 30.7294 33.34 30.7895 33.38 30.8395C33.42 30.8895 33.47 30.9295 33.53 30.9595C33.59 30.9895 33.68 31.0095 33.78 31.0095C33.97 31.0095 34.09 30.9695 34.16 30.8795C34.23 30.7895 34.27 30.6595 34.27 30.4695V28.9395H34.79V30.4695C34.79 30.7995 34.7 31.0495 34.52 31.2095L34.51 31.2195Z" fill="#333333"/>
<path d="M35.9802 28.9395L36.5302 30.6395L37.0502 28.9395H37.7802V31.4094H37.2902V29.6594L36.7102 31.4094H36.3102L35.7302 29.6794V31.4094H35.2402V28.9395H35.9702H35.9802Z" fill="#333333"/>
<path d="M38.81 28.9395V31.4094H38.29V28.9395H38.81Z" fill="#333333"/>
<path d="M39.8103 28.9398L40.8003 30.5898V28.9398H41.2903V31.4097H40.7703L39.7903 29.7598V31.4097H39.3003V28.9398H39.8203H39.8103ZM40.8603 28.3898C40.8603 28.3898 40.8203 28.4798 40.8003 28.5198C40.7703 28.5598 40.7403 28.5898 40.6903 28.6198C40.6503 28.6498 40.5903 28.6597 40.5303 28.6597C40.4803 28.6597 40.4303 28.6598 40.3903 28.6398C40.3503 28.6298 40.3003 28.6097 40.2603 28.5997C40.2203 28.5797 40.1803 28.5698 40.1403 28.5598C40.1003 28.5498 40.0603 28.5397 40.0303 28.5397C39.9903 28.5397 39.9503 28.5498 39.9403 28.5798C39.9203 28.6098 39.9103 28.6397 39.8903 28.6797H39.6903C39.7003 28.6297 39.7103 28.5798 39.7303 28.5298C39.7503 28.4798 39.7703 28.4398 39.8003 28.3998C39.8303 28.3598 39.8703 28.3297 39.9203 28.2997C39.9703 28.2697 40.0303 28.2598 40.1003 28.2598C40.1403 28.2598 40.1703 28.2598 40.2103 28.2798C40.2403 28.2898 40.2803 28.3098 40.3103 28.3198C40.3503 28.3398 40.3803 28.3497 40.4203 28.3597C40.4603 28.3697 40.4903 28.3798 40.5303 28.3798C40.5803 28.3798 40.6203 28.3698 40.6403 28.3398C40.6603 28.3198 40.6703 28.2898 40.6703 28.2598H40.9003C40.9003 28.2598 40.8803 28.3398 40.8603 28.3898Z" fill="#333333"/>
<path d="M42.9603 28.9395L43.8503 31.4094H43.3103L43.1303 30.8594H42.2403L42.0503 31.4094H41.5303L42.4203 28.9395H42.9503H42.9603ZM42.9903 30.4495L42.6903 29.5394L42.3803 30.4495H42.9903Z" fill="#333333"/>
<path d="M44.6001 28.9395V29.8895H45.5601V28.9395H46.0801V31.4094H45.5601V30.3494H44.6001V31.4094H44.0801V28.9395H44.6001Z" fill="#333333"/>
<path d="M48.3103 31.2195C48.1303 31.3795 47.8803 31.4595 47.5703 31.4595C47.2603 31.4595 47.0003 31.3795 46.8303 31.2195C46.6503 31.0595 46.5703 30.8095 46.5703 30.4695V28.9395H47.0903V30.4695C47.0903 30.5395 47.0903 30.5994 47.1103 30.6694C47.1203 30.7294 47.1403 30.7895 47.1803 30.8395C47.2203 30.8895 47.2603 30.9295 47.3303 30.9595C47.3903 30.9895 47.4803 31.0095 47.5803 31.0095C47.7703 31.0095 47.8903 30.9695 47.9603 30.8795C48.0303 30.7895 48.0703 30.6595 48.0703 30.4695V28.9395H48.5903V30.4695C48.5903 30.7995 48.5003 31.0495 48.3203 31.2095L48.3103 31.2195Z" fill="#333333"/>
<path d="M49.5698 28.9395V31.4094H49.0498V28.9395H49.5698Z" fill="#333333"/>
<path d="M7.64001 8.86938C8.40001 8.86938 9.12001 8.93942 9.82001 9.08942C10.52 9.22942 11.13 9.4794 11.66 9.8194C12.19 10.1694 12.61 10.6194 12.93 11.1894C13.25 11.7594 13.41 12.4594 13.41 13.2994C13.41 13.7694 13.33 14.2294 13.18 14.6794C13.03 15.1294 12.81 15.5294 12.54 15.8894C12.26 16.2494 11.93 16.5594 11.56 16.8094C11.18 17.0594 10.76 17.2394 10.29 17.3394V17.3894C11.45 17.5394 12.37 18.0194 13.06 18.8194C13.75 19.6194 14.09 20.6094 14.09 21.7894C14.09 22.0794 14.06 22.3994 14.01 22.7594C13.96 23.1194 13.86 23.4894 13.71 23.8694C13.56 24.2494 13.34 24.6194 13.05 24.9994C12.76 25.3694 12.38 25.6994 11.9 25.9694C11.42 26.2494 10.83 26.4794 10.13 26.6494C9.43 26.8294 8.6 26.9194 7.62 26.9194H0V8.85938H7.62L7.64001 8.86938ZM7.64001 16.7894C8.33001 16.7894 8.93002 16.7094 9.43002 16.5494C9.93002 16.3894 10.35 16.1694 10.69 15.8894C11.03 15.6094 11.28 15.2894 11.45 14.9194C11.62 14.5494 11.7 14.1494 11.7 13.7294C11.7 11.4694 10.35 10.3394 7.64001 10.3394H1.74002V16.7894H7.64001ZM7.64001 25.4694C8.28001 25.4694 8.88002 25.4194 9.46002 25.3094C10.03 25.1994 10.54 24.9994 10.97 24.7194C11.41 24.4294 11.75 24.0494 12 23.5694C12.25 23.0894 12.38 22.4894 12.38 21.7594C12.38 20.5994 11.97 19.7194 11.16 19.1394C10.34 18.5594 9.17001 18.2694 7.64001 18.2694H1.74002V25.4794H7.64001V25.4694Z" fill="#333333"/>
<path d="M31.0002 26.9295L30.7702 23.6395H30.7202C30.4202 24.2795 30.0402 24.8295 29.6002 25.2995C29.1502 25.7595 28.6602 26.1395 28.1202 26.4395C27.5802 26.7395 27.0102 26.9495 26.3902 27.0795C25.7802 27.2095 25.1402 27.2795 24.4902 27.2795C23.0802 27.2795 21.8402 27.0195 20.7702 26.5095C19.7002 25.9995 18.8202 25.3095 18.1102 24.4495C17.4002 23.5895 16.8702 22.5895 16.5202 21.4595C16.1702 20.3295 15.9902 19.1395 15.9902 17.8895C15.9902 16.6395 16.1702 15.4495 16.5202 14.3195C16.8702 13.1895 17.4002 12.1895 18.1102 11.3195C18.8202 10.4495 19.7002 9.75951 20.7702 9.24951C21.8402 8.73951 23.0802 8.47949 24.4902 8.47949C25.4302 8.47949 26.3202 8.6095 27.1602 8.8595C28.0002 9.1095 28.7502 9.48951 29.4002 9.99951C30.0602 10.5095 30.6102 11.1295 31.0602 11.8695C31.5102 12.6095 31.8302 13.4795 31.9902 14.4795H30.2802C30.2302 13.9595 30.0602 13.4295 29.7602 12.8995C29.4702 12.3695 29.0702 11.8795 28.5702 11.4495C28.0702 11.0095 27.4802 10.6495 26.7902 10.3795C26.1002 10.0995 25.3302 9.95953 24.4702 9.95953C23.2802 9.95953 22.2502 10.1895 21.3902 10.6395C20.5302 11.0995 19.8302 11.6995 19.2802 12.4495C18.7302 13.1995 18.3302 14.0495 18.0702 14.9895C17.8102 15.9395 17.6802 16.8995 17.6802 17.8995C17.6802 18.8995 17.8102 19.8395 18.0702 20.7995C18.3302 21.7495 18.7302 22.6095 19.2802 23.3495C19.8302 24.0995 20.5302 24.6995 21.3902 25.1595C22.2502 25.6195 23.2702 25.8395 24.4702 25.8395C25.4602 25.8395 26.3502 25.6795 27.1302 25.3495C27.9102 25.0195 28.5702 24.5595 29.1102 23.9695C29.6502 23.3795 30.0502 22.6795 30.3202 21.8695C30.5902 21.0595 30.7102 20.1695 30.7002 19.2095H24.5702V17.7395H32.2102V26.9195H30.9702L31.0002 26.9295Z" fill="#333333"/>
<path d="M43.78 8.86914C44.52 8.86914 45.22 8.95917 45.89 9.14917C46.55 9.33917 47.13 9.61915 47.63 9.99915C48.13 10.3791 48.52 10.8692 48.82 11.4692C49.11 12.0692 49.26 12.7692 49.26 13.5792C49.26 14.7292 48.97 15.7192 48.38 16.5692C47.79 17.4092 46.92 17.9491 45.76 18.1891V18.2391C46.35 18.3191 46.84 18.4792 47.22 18.7092C47.61 18.9392 47.92 19.2292 48.17 19.5792C48.41 19.9292 48.59 20.3391 48.7 20.8091C48.81 21.2691 48.88 21.7791 48.91 22.3091C48.93 22.6091 48.9401 22.9791 48.9601 23.4191C48.9801 23.8591 49.01 24.2991 49.06 24.7491C49.11 25.1991 49.19 25.6192 49.3 26.0092C49.41 26.4092 49.5601 26.7091 49.7401 26.9291H47.85C47.75 26.7591 47.67 26.5491 47.61 26.3091C47.55 26.0691 47.51 25.8091 47.48 25.5491C47.45 25.2891 47.43 25.0292 47.42 24.7792C47.4 24.5292 47.39 24.3091 47.37 24.1191C47.34 23.4791 47.2801 22.8392 47.2101 22.2092C47.1301 21.5792 46.97 21.0092 46.73 20.5192C46.49 20.0192 46.13 19.6192 45.67 19.3192C45.21 19.0192 44.5701 18.8791 43.7701 18.9091H37.26V26.9291H35.54V8.86914H43.79H43.78ZM43.66 17.4492C44.18 17.4492 44.6801 17.3692 45.1501 17.2092C45.6201 17.0492 46.03 16.8192 46.39 16.5092C46.74 16.2092 47.02 15.8391 47.23 15.4091C47.44 14.9791 47.55 14.4891 47.55 13.9291C47.55 12.8191 47.23 11.9391 46.59 11.2991C45.95 10.6591 44.98 10.3392 43.66 10.3392H37.25V17.4492H43.66Z" fill="#333333"/>
<path d="M16.8199 0L17.7199 2.58002L20.45 2.63L18.27 4.28998L19.0699 6.90002L16.8199 5.34003L14.58 6.90002L15.3799 4.28998L13.1899 2.63L15.93 2.58002L16.8199 0Z" fill="#FFD204"/>
<path d="M24.92 0L25.82 2.58002L28.55 2.63L26.37 4.28998L27.16 6.90002L24.92 5.34003L22.67 6.90002L23.4601 4.28998L21.29 2.63L24.0201 2.58002L24.92 0Z" fill="#03569E"/>
<path d="M32.9301 0L33.8301 2.58002L36.5701 2.63L34.3901 4.28998L35.1801 6.90002L32.9301 5.34003L30.6901 6.90002L31.4801 4.28998L29.3101 2.63L32.0401 2.58002L32.9301 0Z" fill="#E94640"/>
</svg>
