<svg width="46" height="39" viewBox="0 0 46 39" fill="none" xmlns="http://www.w3.org/2000/svg">
<path d="M40.2162 17.1205C38.8864 17.7834 36.6519 17.9648 35.5538 16.2159C35.1952 15.6436 34.758 15.1198 34.3429 14.5838C33.9017 14.0116 33.4504 13.8807 32.6908 14.1083C33.0937 14.6 33.4826 15.0755 33.8715 15.549C34.349 16.1252 34.8345 16.6954 35.3 17.2817C35.4531 17.4731 35.6203 17.5658 35.8601 17.5981C36.4122 17.6726 36.5411 17.8519 36.5391 18.408C36.5331 19.6512 36.527 20.8943 36.5431 22.1375C36.5472 22.4216 36.4625 22.4901 36.1885 22.4881C34.7882 22.476 33.3879 22.47 31.9896 22.4901C31.6088 22.4962 31.5846 22.3511 31.7055 22.071C31.8667 21.6942 32.175 21.4807 32.5417 21.3376C33.1844 21.0858 33.8574 21.0354 34.5384 21.0354C34.7781 21.0354 35.0199 21.0374 35.2577 21.0112C35.6083 20.9729 35.8984 20.8258 35.9226 20.4269C35.9447 20.032 35.7634 19.7378 35.3685 19.629C34.8325 19.4819 34.2744 19.5323 33.7284 19.4759C32.4873 19.3449 31.2642 19.1394 30.1259 18.5994C29.0822 18.1038 28.2742 17.3885 27.9982 16.1957C27.8813 16.9694 27.9055 17.7129 28.3125 18.4342C27.5106 18.4302 26.7308 18.4725 25.9551 18.6156C25.1371 18.7667 24.5931 19.2462 24.1619 19.9091C24.0229 20.1247 24.0531 20.308 24.2485 20.4672C24.3251 20.5297 24.4158 20.576 24.4823 20.6465C24.5971 20.7654 24.7583 20.8843 24.6918 21.0717C24.6233 21.2671 24.4299 21.251 24.2566 21.251C23.5353 21.251 22.814 21.251 22.0926 21.251C21.4539 21.251 21.2887 21.384 21.3109 22.0065C21.325 22.4035 21.2021 22.4982 20.8192 22.4901C19.6607 22.4639 18.5002 22.482 17.3416 22.48C16.9467 22.48 16.8984 22.4035 17.0535 22.0327C17.2066 21.668 17.5068 21.4666 17.8594 21.3316C18.3954 21.1261 18.9555 21.0535 19.5237 21.0858C20.0576 21.114 20.4586 20.9346 20.8112 20.5115C21.5023 19.6794 22.2438 18.8896 23.0457 17.9889C20.0456 18.2347 17.257 18.9319 14.4906 19.764C14.0272 16.2038 16.6344 12.025 19.7574 11.2734C20.102 12.6254 21.0429 13.3749 22.6185 13.5341C23.0678 13.5784 23.5212 13.6026 23.9705 13.6026C26.1203 13.6086 28.2702 13.6026 30.418 13.6066C31.367 13.6066 32.2515 13.4172 33.0857 12.9216C34.2724 12.2164 35.8803 12.1841 36.8695 13.794C37.3048 14.5032 37.8085 15.1681 38.284 15.8512C38.7534 16.5262 39.37 16.9876 40.2102 17.1225L40.2162 17.1205Z" fill="#2C2725"/>
<path d="M44.2561 0.0460212C44.3186 0.187061 44.2158 0.291833 44.1675 0.400635C43.8935 1.01919 43.6336 1.64783 43.3233 2.24624C42.3461 4.13214 40.8248 5.20202 38.6569 5.20605C35.6588 5.21411 32.6607 5.21411 29.6626 5.17785C28.4476 5.16374 27.2307 5.19598 26.0157 5.14158C24.6154 5.07912 23.4931 5.63119 22.524 6.58018C22.0686 7.02748 21.6798 7.52716 21.3171 8.07319C21.2345 7.92409 21.3473 7.83342 21.3896 7.74074C22.0545 6.26184 22.7113 4.77891 23.3984 3.31008C24.1439 1.71835 25.4213 0.932555 27.1763 0.93054C31.9152 0.93054 36.6521 0.916437 41.391 0.940615C42.4609 0.94666 43.4361 0.769353 44.2622 0.0500518L44.2561 0.0419922V0.0460212Z" fill="#FBC204"/>
<path d="M19.5761 11.0936C19.4573 11.1621 19.417 11.1983 19.3706 11.2124C17.0354 11.8733 15.6169 13.5053 14.676 15.6391C14.3617 16.3503 14.1098 17.0877 13.9869 17.8534C13.9084 18.3309 13.7391 18.7278 13.4288 19.0885C13.2072 19.3444 13.0137 19.6244 12.8062 19.8924C12.6128 20.1422 12.6491 20.3598 12.8949 20.5492C12.9291 20.5754 12.9694 20.5916 12.9997 20.6198C13.1467 20.7648 13.3724 20.8938 13.2717 21.1396C13.187 21.3471 12.9573 21.2907 12.782 21.2887C12.0607 21.2847 11.3414 21.2786 10.6201 21.2605C10.0902 21.2484 9.87462 21.4338 9.8988 22.002C9.91693 22.3807 9.81619 22.4996 9.42128 22.4895C8.24864 22.4613 7.07399 22.4674 5.90134 22.4855C5.51852 22.4916 5.50642 22.3465 5.63134 22.0604C5.77036 21.742 6.0182 21.5466 6.32042 21.4096C6.85839 21.1638 7.43263 21.057 8.01089 21.0912C8.64959 21.1275 9.0989 20.8998 9.51396 20.4203C10.475 19.3101 11.4764 18.2362 12.4778 17.1623C12.6652 16.9608 12.6591 16.848 12.4778 16.6566C11.7162 15.8587 10.9163 15.1031 10.0842 14.3818C9.54621 13.9143 9.10294 13.9063 8.51863 14.3213C8.33528 14.4503 8.14588 14.6195 7.90813 14.4805C7.68246 14.3475 7.70463 14.1017 7.70664 13.874C7.7147 13.056 7.72879 12.236 7.71872 11.4179C7.71267 10.9827 7.5515 10.608 7.10622 10.4468C6.93697 10.3843 6.91278 10.2937 6.9148 10.1365C6.92487 9.02027 6.92084 7.90606 6.93696 6.78984C6.943 6.34052 6.9833 6.32843 7.39433 6.53596C8.39571 7.04371 8.75033 7.74286 8.57906 8.84498C8.46825 9.5663 8.51057 10.2836 8.71407 10.9827C9.15532 12.506 10.9465 13.6383 12.4859 13.3804C12.637 13.3542 12.7357 13.2555 12.8526 13.1809C14.8735 11.8793 17.0636 11.1278 19.5761 11.0996V11.0936Z" fill="#2C2725"/>
<path d="M22.915 3.31011C22.226 4.89781 21.5369 6.48551 20.8498 8.07322C20.4871 8.91341 20.1205 9.75159 19.7779 10.5998C19.6832 10.8336 19.5684 10.9021 19.3185 10.9121C17.5253 10.9746 15.7865 11.2809 14.1605 12.0888C13.6145 12.3608 13.1128 12.6993 12.6454 13.0902C12.5748 13.0177 12.6212 12.9612 12.6534 12.9028C13.3868 11.5529 14.3519 10.4145 15.6596 9.58234C16.4574 9.0746 17.2513 8.56484 18.0451 8.04904C18.2567 7.91001 18.4703 7.76696 18.6556 7.5957C19.1191 7.16855 19.0546 6.83005 18.4804 6.57417C18.023 6.37067 17.5334 6.30619 17.0438 6.24575C16.3406 6.15911 15.6354 6.11478 14.9282 6.15306C14.5333 6.17321 14.5131 6.0362 14.636 5.7239C14.7912 5.331 14.9443 4.93609 15.1841 4.58551C15.4581 4.18657 15.8087 3.9871 16.3204 3.9871C17.9726 3.9871 19.6248 3.95889 21.2649 3.70703C21.7666 3.63047 22.2683 3.54988 22.7257 3.30406C22.7901 3.26981 22.8546 3.24765 22.913 3.31615V3.31212L22.915 3.31011Z" fill="#2C2725"/>
<path d="M20.8315 9.28864C21.7906 7.18916 23.9425 5.60347 26.0883 5.63974C30.2993 5.71026 34.5124 5.65385 38.7234 5.6478C39.5011 5.6478 40.2628 5.52892 41.0828 5.19043C40.3172 6.45979 39.2835 7.18916 37.9517 7.50952C37.5105 7.61631 37.0611 7.64855 36.6078 7.64855C33.0456 7.64653 29.4853 7.64855 25.9231 7.64855C25.1594 7.64855 24.3998 7.71302 23.6523 7.88026C22.5966 8.11398 21.6717 8.60359 20.8678 9.3249C20.8557 9.31483 20.8436 9.30274 20.8315 9.29267V9.28864Z" fill="#3F4C9A"/>
<path d="M37.6493 7.8584C36.9865 9.02298 35.9226 9.59923 34.6633 9.87929C34.1798 9.98608 33.6841 10.0163 33.1885 10.0163C30.813 10.0183 28.4374 10.0203 26.0619 10.0163C25.0021 10.0143 23.9423 9.99212 22.8825 9.98809C22.3264 9.98809 21.8267 10.1513 21.4177 10.5462C20.8959 11.0519 20.783 11.6624 21.0873 12.3213C21.1215 12.3938 21.2021 12.4543 21.1638 12.551C20.7166 12.4422 20.2531 11.7591 20.2491 11.1587C20.2431 10.4092 20.6017 9.83698 21.1719 9.38364C22.3607 8.44069 23.7449 8.03772 25.2338 8.02765C28.4858 8.00951 31.7378 8.01354 34.9898 8.04376C35.8884 8.05182 36.7789 8.05988 37.6614 7.86243L37.6514 7.8584H37.6493Z" fill="#DB2418"/>
<path d="M21.9278 31.0065C20.8761 31.6996 19.8183 31.9132 18.6698 31.5989C17.0459 31.1516 15.9175 29.6827 15.9155 28.0044C15.9155 26.9466 15.9155 25.8868 15.9155 24.8249C16.8101 24.9196 17.4025 25.5624 17.4267 26.4731C17.4408 26.9808 17.4247 27.4906 17.4307 27.9983C17.4448 29.2415 18.4401 30.2328 19.6712 30.2348C20.8942 30.2348 21.9037 29.2415 21.9258 28.0023C21.9359 27.41 21.9137 26.8156 21.946 26.2232C21.9863 25.4939 22.4255 24.9519 23.028 24.8189C23.2879 24.7605 23.439 24.7766 23.437 25.1272C23.4229 28.0527 23.4269 30.9763 23.4329 33.9018C23.4329 34.1658 23.3926 34.2484 23.1045 34.1597C22.3933 33.9462 21.954 33.4283 21.9299 32.6808C21.9137 32.1469 21.9258 31.613 21.9258 31.0045L21.9278 31.0065Z" fill="#2C2725"/>
<path d="M34.0389 31.7197C33.374 31.7197 32.7111 31.7116 32.0462 31.7237C31.8045 31.7278 31.7883 31.6431 31.8729 31.4558C32.2356 30.67 32.8925 30.3577 33.7125 30.3375C34.4177 30.3194 35.1249 30.3375 35.8321 30.3315C36.3318 30.3274 36.6179 30.0655 36.6078 29.6404C36.5978 29.2414 36.3056 28.9835 35.8362 28.9795C34.9174 28.9715 33.9986 28.9936 33.0798 28.9674C32.0422 28.9392 31.2222 28.1393 31.1194 27.0997C31.0227 26.1204 31.6715 25.1795 32.6346 24.9276C32.8502 24.8712 33.0819 24.8531 33.3055 24.8531C34.5346 24.8471 35.7656 24.8612 36.9947 24.841C37.3251 24.835 37.3433 24.974 37.2828 25.2198C37.1337 25.8162 36.493 26.2212 35.6407 26.2333C34.8771 26.2433 34.1135 26.2333 33.3519 26.2373C32.8018 26.2393 32.5096 26.4771 32.5096 26.9062C32.5096 27.3455 32.826 27.6034 33.3781 27.6054C34.2122 27.6074 35.0463 27.6054 35.8805 27.6054C37.0451 27.6074 37.9598 28.4516 37.982 29.5376C38.0062 30.7768 37.17 31.6814 35.947 31.7157C35.3123 31.7338 34.6756 31.7197 34.0389 31.7197Z" fill="#2C2725"/>
<path d="M45.2394 29.7153C45.2394 30.2795 45.2354 30.8457 45.2415 31.4098C45.2435 31.6032 45.2273 31.7302 44.9755 31.7241C43.7746 31.6959 42.5718 31.7886 41.3749 31.6798C39.6422 31.5206 38.3668 29.9954 38.391 28.1639C38.4131 26.4815 39.7772 25.0167 41.4495 24.8817C43.5933 24.7084 45.2394 26.2175 45.2394 28.3593C45.2394 28.8107 45.2394 29.262 45.2394 29.7153ZM43.8512 29.131C43.8512 28.8046 43.8512 28.5507 43.8512 28.2969C43.8452 27.1383 42.9707 26.2437 41.8343 26.2377C40.702 26.2316 39.7731 27.1383 39.7651 28.2586C39.755 29.4212 40.6416 30.3178 41.8162 30.3339C42.0701 30.3379 42.3239 30.3379 42.5778 30.3339C42.9848 30.3278 43.5268 30.4749 43.7646 30.2694C44.0406 30.0317 43.8069 29.4756 43.8512 29.131Z" fill="#2C2725"/>
<path d="M30.7666 29.725C30.7666 30.3033 30.7626 30.8815 30.7666 31.4598C30.7666 31.619 30.7565 31.7258 30.547 31.7238C29.3341 31.7076 28.1151 31.7661 26.9082 31.6734C25.1795 31.5424 23.8678 29.987 23.8899 28.228C23.9141 26.4771 25.2842 25.0103 27.021 24.8793C29.0983 24.7221 30.7525 26.2454 30.7646 28.3267C30.7666 28.7921 30.7646 29.2576 30.7646 29.723L30.7666 29.725ZM28.0667 30.3335C28.4596 30.3335 28.786 30.3234 29.1084 30.3375C29.326 30.3476 29.4046 30.2791 29.3985 30.0534C29.3844 29.4611 29.4106 28.8687 29.3905 28.2784C29.3522 27.1682 28.5201 26.3018 27.4623 26.2474C26.3501 26.189 25.4676 26.9244 25.2882 28.0587C25.1351 29.0299 25.8141 30.0131 26.8296 30.2791C27.2588 30.3919 27.7 30.3093 28.0667 30.3355V30.3335Z" fill="#2C2725"/>
<path d="M10.4188 24.7979C11.5935 24.7899 12.4921 25.3399 13.2638 26.1721C13.4593 26.3816 13.2457 26.4421 13.159 26.5267C12.075 27.6207 10.983 28.7047 9.897 29.7968C9.79223 29.9016 9.58068 29.9942 9.63106 30.1393C9.68747 30.2944 9.91313 30.2945 10.0783 30.3227C10.5539 30.4033 10.9991 30.3307 11.4263 30.097C12.0005 29.7827 12.5848 29.7807 13.1631 30.097C13.2799 30.1615 13.4149 30.1998 13.2538 30.3972C11.7487 32.2307 8.95003 32.2106 7.61015 30.3227C6.80018 29.1802 6.7216 27.9351 7.33009 26.6798C7.89626 25.5132 9.11121 24.8 10.4188 24.7979ZM8.56116 29.2306C9.4618 28.3038 10.2899 27.4414 11.1321 26.5932C11.3618 26.3615 11.1704 26.3333 11.0132 26.2789C10.2476 26.021 9.3953 26.2647 8.83719 26.9196C8.28109 27.5704 8.2146 28.3018 8.56116 29.2306Z" fill="#2C2725"/>
<path d="M0 28.2443C0 26.8097 0.793854 25.5968 2.09343 25.0488C3.40711 24.4947 4.87594 24.7667 5.89747 25.7519C5.95792 25.8104 6.01836 25.8708 6.0768 25.9313C6.4576 26.3121 6.42537 26.4551 5.9015 26.6506C5.37966 26.846 4.90413 26.6929 4.44475 26.443C3.57433 25.9675 2.62132 26.1166 1.93627 26.8319C1.29555 27.5008 1.19481 28.5365 1.69046 29.3323C2.18612 30.1322 3.15121 30.501 4.04178 30.2451C4.25132 30.1846 4.41655 30.0516 4.60191 29.9529C5.24666 29.6084 5.8733 29.6325 6.25612 30.0134C6.35888 30.1161 6.42938 30.1866 6.29237 30.3519C4.93638 31.9617 2.73013 32.1874 1.16661 30.8616C0.419097 30.2269 0.00201682 29.288 0.00201682 28.2443H0Z" fill="#2C2725"/>
<path d="M13.8944 31.6837C13.8883 31.601 13.8783 31.5164 13.8783 31.4338C13.8783 28.8347 13.8742 26.2335 13.8783 23.6343C13.8783 22.8042 14.3437 22.228 15.067 22.1151C15.2866 22.0809 15.3975 22.101 15.3954 22.375C15.3854 24.9883 15.3995 27.6036 15.3833 30.2168C15.3773 31.0913 14.793 31.6373 13.8923 31.6837H13.8944Z" fill="#2C2725"/>
<path d="M19.4294 36.4796C19.4294 36.1935 19.4334 35.9698 19.4294 35.7442C19.4273 35.6253 19.4656 35.5608 19.5946 35.5568C19.7336 35.5528 19.7538 35.6293 19.7538 35.7442C19.7538 36.5058 19.7538 37.2674 19.7538 38.031C19.7538 38.1157 19.7336 38.2587 19.649 38.1962C19.3649 37.9867 19.1292 38.2486 18.8692 38.2365C18.567 38.2224 18.3514 38.0733 18.2487 37.8033C18.0915 37.3883 18.0855 36.9692 18.3796 36.6025C18.5731 36.3607 18.833 36.2761 19.1372 36.3748C19.2158 36.401 19.2944 36.4312 19.4274 36.4776L19.4294 36.4796ZM19.4294 37.2734C19.4233 36.9571 19.3669 36.665 18.978 36.6307C18.708 36.6085 18.4582 36.941 18.4864 37.3037C18.5086 37.6019 18.5751 37.9122 18.9619 37.9424C19.2581 37.9666 19.4314 37.7026 19.4294 37.2714V37.2734Z" fill="#3A3533"/>
<path d="M3.34453 37.5527C3.27401 37.7421 3.50974 38.0644 3.09469 38.1753C2.49829 38.3344 1.86764 38.1833 1.60773 37.7481C1.30147 37.2343 1.29341 36.6903 1.60773 36.1846C1.91398 35.693 2.41569 35.6063 2.94962 35.6748C3.06648 35.6909 3.28006 35.6668 3.25185 35.8763C3.22163 36.1 3.04028 35.9952 2.91334 35.9791C2.05502 35.8683 1.53518 36.4949 1.79913 37.3189C1.91599 37.6836 2.16583 37.8892 2.53455 37.9194C2.7179 37.9335 3.01207 38.0342 3.01409 37.6977C3.01409 37.4882 3.21154 37.1074 2.70984 37.1497C2.61111 37.1578 2.54665 37.1054 2.54867 37.0006C2.54867 36.8958 2.61918 36.8737 2.71388 36.8555C3.26192 36.7528 3.34453 36.8374 3.34453 37.5507V37.5527Z" fill="#3A3533"/>
<path d="M30.0858 36.5211C30.0858 36.2129 30.0898 35.9731 30.0858 35.7333C30.0837 35.6104 30.12 35.552 30.253 35.558C30.3779 35.5641 30.4223 35.6145 30.4223 35.7414C30.4223 36.503 30.4283 37.2646 30.4344 38.0282C30.4344 38.1411 30.3658 38.2781 30.2872 38.1995C30.0535 37.9698 29.8762 38.2035 29.6788 38.2277C29.439 38.2559 29.2335 38.2116 29.0622 38.0303C28.7217 37.6676 28.7257 36.8899 29.0844 36.5534C29.3806 36.2753 29.713 36.2773 30.0878 36.5252L30.0858 36.5211ZM30.0858 37.2707C30.0858 36.8677 29.9145 36.6179 29.6405 36.6219C29.3665 36.6239 29.1509 36.9261 29.1589 37.3069C29.165 37.6273 29.2536 37.9074 29.6264 37.9436C29.9145 37.9718 30.0878 37.7018 30.0858 37.2707Z" fill="#3A3533"/>
<path d="M43.4987 36.5216C43.4987 36.2174 43.5027 35.9776 43.4987 35.7399C43.4946 35.617 43.5329 35.5605 43.6639 35.5626C43.7827 35.5626 43.8432 35.5928 43.8412 35.7278C43.8371 36.5015 43.8371 37.2772 43.8412 38.0509C43.8412 38.1879 43.7283 38.2645 43.6699 38.196C43.4704 37.9663 43.3214 38.1758 43.1501 38.2121C42.9365 38.2564 42.733 38.2403 42.5517 38.0932C42.1205 37.7406 42.1185 36.8521 42.5557 36.5055C42.8458 36.2758 43.1521 36.302 43.5007 36.5236L43.4987 36.5216ZM43.4966 37.2631C43.5269 36.9488 43.4382 36.6788 43.0715 36.6244C42.7935 36.5821 42.5517 36.9246 42.5678 37.3195C42.5799 37.6338 42.6665 37.9441 43.0433 37.9401C43.4483 37.936 43.5168 37.6177 43.4987 37.2631H43.4966Z" fill="#3A3533"/>
<path d="M39.8478 36.5166C39.8478 36.2204 39.8498 35.9807 39.8478 35.7409C39.8478 35.624 39.878 35.5596 40.013 35.5596C40.1379 35.5596 40.1903 35.5999 40.1903 35.7288C40.1862 36.5065 40.1883 37.2823 40.1903 38.06C40.1903 38.1688 40.0976 38.2534 40.0472 38.197C39.8216 37.9371 39.6382 38.2031 39.4408 38.2232C39.1829 38.2494 38.9673 38.191 38.798 37.9875C38.5018 37.6308 38.5059 36.9579 38.8121 36.6073C39.1003 36.2769 39.4388 36.2708 39.8498 36.5166H39.8478ZM39.8478 37.2823C39.8478 36.8491 39.6765 36.5992 39.3884 36.6133C39.1244 36.6254 38.9028 36.9418 38.9189 37.3125C38.933 37.6248 39.0136 37.9129 39.3924 37.9452C39.6946 37.9713 39.8478 37.7336 39.8478 37.2823Z" fill="#3A3533"/>
<path d="M34.4659 38.23C33.9602 38.2521 33.5673 38.0527 33.3799 37.5812C33.1643 37.0392 33.1865 36.4952 33.5774 36.0278C33.9159 35.6248 34.3793 35.5946 34.8608 35.6711C34.9676 35.6893 35.0865 35.7255 35.0301 35.8948C34.9595 36.1083 34.8245 35.9713 34.7218 35.9552C34.1637 35.8686 33.7486 36.1305 33.6438 36.6463C33.5149 37.287 33.7547 37.7746 34.2604 37.9116C34.4276 37.956 34.5949 37.9519 34.7621 37.9076C34.8608 37.8814 34.9817 37.7887 35.026 37.9781C35.0724 38.1736 34.9213 38.1816 34.8004 38.2018C34.6895 38.2219 34.5747 38.2219 34.4639 38.23H34.4659Z" fill="#3A3533"/>
<path d="M13.4633 36.938C13.4633 36.6137 13.4754 36.2913 13.4592 35.9669C13.4492 35.7432 13.5398 35.6566 13.7514 35.6667C13.7937 35.6667 13.836 35.6606 13.8783 35.6586C14.5573 35.6304 14.9059 35.8541 14.9422 36.3416C14.9825 36.8675 14.6964 37.1496 14.0012 37.2141C13.8239 37.2302 13.7877 37.2806 13.7937 37.4337C13.7997 37.6171 13.7977 37.8004 13.7937 37.9817C13.7937 38.0885 13.8219 38.2114 13.6385 38.2094C13.4753 38.2094 13.4532 38.1187 13.4612 37.9918C13.4612 37.9777 13.4612 37.9636 13.4612 37.9495C13.4612 37.611 13.4612 37.2745 13.4612 36.936L13.4633 36.938ZM13.7816 36.4343C13.8924 36.5834 13.5842 36.9461 14.0516 36.932C14.3841 36.9199 14.5996 36.7628 14.6077 36.4303C14.6158 36.0817 14.3679 35.9467 14.0516 35.9367C13.6406 35.9226 13.8542 36.2449 13.7816 36.4343Z" fill="#3A3533"/>
<path d="M16.2398 37.2849C16.2459 36.7127 16.5904 36.3319 17.0961 36.338C17.5857 36.344 17.9122 36.7168 17.9162 37.2728C17.9202 37.839 17.5757 38.2359 17.076 38.242C16.5703 38.248 16.2338 37.8632 16.2398 37.2849ZM17.5616 37.289C17.5636 36.8961 17.3601 36.612 17.076 36.614C16.7939 36.616 16.5844 36.9041 16.5844 37.289C16.5844 37.6859 16.7838 37.9599 17.072 37.9599C17.3581 37.9599 17.5596 37.6839 17.5616 37.289Z" fill="#3A3533"/>
<path d="M7.00575 37.5204C7.00575 37.6614 7.0118 37.8024 7.00575 37.9435C6.99971 38.0563 7.06216 38.2034 6.84657 38.2115C6.60076 38.2195 6.66724 38.0503 6.66321 37.9233C6.65717 37.6554 6.66321 37.3874 6.6612 37.1214C6.65717 36.8736 6.58263 36.656 6.29249 36.654C6.01847 36.654 5.89757 36.8494 5.88347 37.0993C5.86735 37.3934 5.87139 37.6896 5.86736 37.9858C5.86736 38.1047 5.86736 38.2094 5.69812 38.2094C5.51678 38.2094 5.54499 38.0865 5.54499 37.9797C5.54499 37.5143 5.54498 37.0509 5.54297 36.5855C5.54297 36.4827 5.58931 36.3155 5.66587 36.39C5.92377 36.6419 6.09905 36.3538 6.3086 36.3397C6.68134 36.3175 6.90299 36.5049 6.97552 36.8474C7.02187 37.065 7.00776 37.2947 7.02186 37.5204C7.01783 37.5204 7.01382 37.5204 7.00979 37.5204H7.00575Z" fill="#3A3533"/>
<path d="M26.4549 37.309C26.4428 37.8732 26.0902 38.2499 25.5825 38.2399C25.1009 38.2298 24.7685 37.8409 24.7765 37.2929C24.7826 36.7247 25.1311 36.3378 25.6308 36.3399C26.1325 36.3399 26.467 36.7368 26.4549 37.311V37.309ZM26.1083 37.2768C26.1043 36.8939 25.8847 36.6058 25.6066 36.6139C25.3225 36.6239 25.1271 36.904 25.1311 37.2989C25.1352 37.6938 25.3427 37.9699 25.6288 37.9578C25.9109 37.9477 26.1144 37.6616 26.1103 37.2747L26.1083 37.2768Z" fill="#3A3533"/>
<path d="M11.6882 37.7224C11.8292 37.2771 11.934 36.9426 12.0388 36.6082C12.0831 36.4631 12.1476 36.3301 12.3289 36.3845C12.5425 36.449 12.3974 36.586 12.3611 36.6847C12.1677 37.2267 11.9703 37.7667 11.7607 38.3027C11.662 38.5545 11.5129 38.7782 11.2731 38.9232C11.1945 38.9716 11.0938 39.0562 11.0152 38.9474C10.9508 38.8567 10.9286 38.7379 11.0656 38.6613C11.5451 38.3953 11.5149 38.0246 11.3074 37.5934C11.1623 37.2912 11.0555 36.9688 10.9427 36.6525C10.9104 36.5638 10.7996 36.4329 10.985 36.3845C11.116 36.3503 11.2227 36.3865 11.2751 36.5477C11.39 36.9043 11.523 37.2549 11.6882 37.7224Z" fill="#3A3533"/>
<path d="M36.6139 37.5686C36.6139 37.6673 36.6139 37.766 36.6139 37.8647C36.6139 38.1992 36.6078 38.2113 36.2915 38.1045C36.1786 38.0662 36.1504 38.1509 36.0819 38.175C35.7112 38.31 35.405 38.2173 35.2921 37.9272C35.1612 37.5907 35.3264 37.2502 35.689 37.1152C35.7817 37.081 35.8845 37.079 35.9752 37.0427C36.0719 37.0044 36.2693 37.0951 36.2431 36.8835C36.225 36.7324 36.1121 36.6337 35.955 36.6196C35.8724 36.6115 35.7878 36.6337 35.7052 36.6397C35.6024 36.6458 35.4553 36.819 35.409 36.5914C35.3727 36.412 35.5561 36.408 35.6649 36.3758C36.1706 36.2206 36.5272 36.4503 36.5917 36.9782C36.6159 37.1716 36.5957 37.3711 36.5957 37.5686C36.5998 37.5686 36.6058 37.5686 36.6098 37.5686H36.6139ZM36.0981 37.2905C35.8704 37.3368 35.6125 37.355 35.5984 37.6774C35.5903 37.8627 35.691 37.9695 35.8784 37.9574C36.1746 37.9373 36.2673 37.7378 36.2794 37.4739C36.2854 37.3409 36.2613 37.2522 36.096 37.2925L36.0981 37.2905Z" fill="#3A3533"/>
<path d="M41.8887 37.5326C41.8887 37.6454 41.8907 37.7583 41.8887 37.8691C41.8826 38.0686 41.9572 38.3647 41.5804 38.131C41.4716 38.0625 41.4031 38.1773 41.3124 38.1975C41.0021 38.266 40.716 38.27 40.577 37.9114C40.4541 37.5951 40.6092 37.2606 40.9477 37.1256C41.0384 37.0893 41.1512 37.0974 41.2298 37.049C41.3285 36.9886 41.5703 37.1377 41.528 36.8778C41.4917 36.6602 41.3124 36.6239 41.1129 36.6078C40.9719 36.5957 40.7462 36.8717 40.712 36.5816C40.6838 36.3418 40.988 36.36 41.1693 36.3438C41.5864 36.3076 41.8342 36.5191 41.8786 36.9443C41.8987 37.1397 41.8826 37.3372 41.8826 37.5346C41.8846 37.5346 41.8887 37.5346 41.8907 37.5346L41.8887 37.5326ZM41.5582 37.5225C41.5401 37.4157 41.6046 37.2626 41.4071 37.2908C41.1653 37.3231 40.9094 37.3533 40.8772 37.6656C40.8591 37.8449 40.9638 37.9638 41.1552 37.9577C41.4393 37.9517 41.5381 37.7663 41.5582 37.5225Z" fill="#3A3533"/>
<path d="M4.53764 38.2169C4.07221 38.223 3.79213 38.0195 3.69744 37.6165C3.57655 37.1047 3.76997 36.5889 4.1528 36.4076C4.40264 36.2887 4.65247 36.3008 4.8741 36.46C5.12596 36.6413 5.17634 36.9214 5.18238 37.2095C5.18641 37.3888 5.04941 37.3566 4.94263 37.3586C4.70286 37.3606 4.46308 37.3707 4.22533 37.3586C3.96541 37.3445 3.97952 37.4876 4.05205 37.6467C4.18503 37.9409 4.44696 37.955 4.72904 37.955C4.82978 37.955 5.01917 37.7354 5.04939 38.0155C5.07156 38.221 4.8741 38.1928 4.74717 38.2169C4.67866 38.229 4.60614 38.219 4.53764 38.219V38.2169ZM4.83987 37.0987C4.75121 36.6232 4.48323 36.466 4.20115 36.7058C4.10444 36.7884 3.99968 36.8952 4.03998 37.0282C4.08229 37.1712 4.23138 37.0886 4.33212 37.0967C4.49935 37.1108 4.66659 37.1007 4.83987 37.1007V37.0987Z" fill="#3A3533"/>
<path d="M31.6473 38.2181C31.1698 38.2241 30.8978 38.0126 30.7971 37.5673C30.6943 37.1079 30.8877 36.6042 31.2363 36.4249C31.4821 36.2979 31.734 36.2939 31.9616 36.4491C32.2155 36.6244 32.284 36.8964 32.2981 37.1905C32.3062 37.3638 32.2034 37.3638 32.0825 37.3618C31.8428 37.3618 31.601 37.3739 31.3612 37.3578C31.0388 37.3356 31.0832 37.4948 31.1839 37.6842C31.329 37.9582 31.5828 37.9562 31.8468 37.9461C31.9596 37.9421 32.151 37.7668 32.1712 38.0247C32.1853 38.2141 31.9898 38.1939 31.8569 38.2141C31.7884 38.2241 31.7158 38.2141 31.6453 38.2141L31.6473 38.2181ZM31.1194 37.0999C31.3531 37.0999 31.5486 37.0918 31.742 37.1019C31.9899 37.116 31.9959 36.9991 31.9032 36.8279C31.8246 36.6848 31.7058 36.58 31.5345 36.6062C31.2826 36.6445 31.1617 36.8158 31.1194 37.0999Z" fill="#3A3533"/>
<path d="M9.35503 38.2191C8.87751 38.2271 8.63171 38.0539 8.51082 37.6287C8.37784 37.1573 8.54508 36.6294 8.89969 36.4339C9.15155 36.2949 9.42152 36.2848 9.65927 36.4521C9.90911 36.6273 9.97764 36.8973 9.97965 37.1935C9.97965 37.3688 9.87486 37.3587 9.76002 37.3587C9.52025 37.3587 9.28049 37.3708 9.04274 37.3547C8.78686 37.3366 8.75461 37.4293 8.85535 37.6428C8.99639 37.9451 9.25227 37.9511 9.53234 37.9471C9.64315 37.9471 9.83658 37.7577 9.86479 38.0136C9.88897 38.2412 9.65929 38.1828 9.52429 38.2151C9.47191 38.2271 9.41145 38.2171 9.35705 38.2171L9.35503 38.2191ZM8.81305 37.0988C9.03468 37.0988 9.24423 37.0928 9.45176 37.0988C9.69556 37.1089 9.6613 36.9719 9.59683 36.8309C9.52832 36.6757 9.39938 36.581 9.22812 36.6032C8.96619 36.6374 8.85133 36.8167 8.81506 37.0968L8.81305 37.0988Z" fill="#3A3533"/>
<path d="M21.6898 37.3108C21.6898 37.4801 21.6898 37.6493 21.6898 37.8186C21.6898 38.1409 21.6898 38.1369 21.3433 38.0724C21.2909 38.0623 21.2264 38.1208 21.166 38.147C20.6441 38.3767 20.2673 38.147 20.2432 37.5768C20.2291 37.2524 20.2411 36.928 20.2411 36.6036C20.2411 36.4887 20.2331 36.3719 20.4064 36.3799C20.5696 36.386 20.5736 36.4928 20.5736 36.6137C20.5736 36.9099 20.5696 37.206 20.5797 37.5022C20.5857 37.7319 20.6582 37.9475 20.9302 37.9394C21.1881 37.9314 21.3352 37.7541 21.3413 37.4921C21.3493 37.196 21.3453 36.8998 21.3433 36.6036C21.3433 36.4847 21.3433 36.3799 21.5125 36.3779C21.6777 36.3779 21.6919 36.4706 21.6898 36.5955C21.6878 36.8353 21.6898 37.0751 21.6898 37.3148V37.3108Z" fill="#3A3533"/>
<path d="M24.3635 38.2198C24.029 38.254 23.8779 38.0888 23.8537 37.8127C23.8315 37.5468 23.8497 37.2768 23.8396 37.0088C23.8335 36.8698 23.9101 36.6905 23.6603 36.6562C23.5273 36.6381 23.5595 36.4306 23.5958 36.4326C23.9847 36.4487 23.6965 35.8422 24.0995 35.9027C24.1277 35.9067 24.164 35.9954 24.162 36.0417C24.1499 36.2472 24.172 36.4104 24.4461 36.3802C24.5549 36.3681 24.5911 36.4427 24.5891 36.5414C24.5871 36.6562 24.5125 36.6824 24.4178 36.6703C24.1579 36.6381 24.1579 36.8013 24.166 36.9846C24.174 37.1962 24.166 37.4078 24.17 37.6193C24.1741 37.7664 24.2043 37.9216 24.3796 37.9377C24.5146 37.9498 24.6052 37.9699 24.575 38.1251C24.5468 38.2661 24.4219 38.2097 24.3655 38.2218L24.3635 38.2198Z" fill="#3A3533"/>
<path d="M27.1078 38.2241C27.0735 38.2201 26.9728 38.2201 26.8801 38.1939C26.7895 38.1677 26.6766 38.1374 26.725 37.9964C26.7633 37.8816 26.8257 37.8393 26.9466 37.9078C27.005 37.94 27.0816 37.9501 27.1501 37.9561C27.3032 37.9702 27.4362 37.934 27.4805 37.7647C27.5188 37.6156 27.4362 37.5249 27.3153 37.4584C27.2045 37.398 27.0816 37.3537 26.9788 37.2811C26.727 37.1038 26.6786 36.7653 26.864 36.5417C27.0393 36.3301 27.4846 36.2677 27.682 36.4127C27.7586 36.4692 27.7505 36.5215 27.7284 36.59C27.7022 36.6747 27.6478 36.6928 27.5692 36.6646C27.5168 36.6465 27.4624 36.6223 27.408 36.6162C27.271 36.5981 27.1501 36.6303 27.0997 36.7734C27.0453 36.9245 27.142 37.0132 27.2629 37.0736C27.4523 37.1663 27.6679 37.2247 27.7747 37.4282C27.9883 37.8393 27.6941 38.2241 27.1098 38.2221L27.1078 38.2241Z" fill="#3A3533"/>
<path d="M23.0622 36.6454C22.627 36.6293 22.3631 36.8832 22.3732 37.3083C22.3832 37.7435 22.6693 37.9793 23.1347 37.9249C23.2254 37.9148 23.3282 37.8302 23.3705 37.9873C23.4148 38.1485 23.3 38.1868 23.1851 38.2029C22.8245 38.2533 22.4759 38.2553 22.2241 37.9249C21.9924 37.6206 21.9682 37.1088 22.1797 36.7643C22.3852 36.4258 22.7016 36.3029 23.0824 36.3492C23.2053 36.3633 23.4068 36.3412 23.3725 36.5568C23.3403 36.7542 23.1791 36.6515 23.0642 36.6454H23.0622Z" fill="#3A3533"/>
<path d="M8.05533 38.22C7.69065 38.2502 7.55162 38.0568 7.52946 37.7707C7.50931 37.5047 7.52744 37.2368 7.52139 36.9688C7.51938 36.8418 7.57983 36.6706 7.35417 36.6565C7.33201 36.6565 7.30379 36.6283 7.2917 36.6081C7.24133 36.5255 7.62012 35.9211 7.71885 35.9029C7.89817 35.8687 7.85788 36.0037 7.85183 36.0843C7.83773 36.2817 7.872 36.4167 8.11781 36.3784C8.24071 36.3583 8.30116 36.4227 8.2931 36.5477C8.28504 36.6645 8.20444 36.6827 8.11579 36.6686C7.86796 36.6283 7.84378 36.7673 7.85385 36.9607C7.86594 37.1844 7.85587 37.41 7.85788 37.6357C7.85788 37.7888 7.9022 37.9218 8.0775 37.9419C8.18227 37.954 8.27898 37.95 8.27495 38.0931C8.26689 38.2845 8.10571 38.1857 8.05735 38.222L8.05533 38.22Z" fill="#3A3533"/>
<path d="M37.3896 36.9347C37.3896 37.2853 37.3896 37.6359 37.3896 37.9885C37.3896 38.0973 37.4117 38.2142 37.2304 38.2122C37.0652 38.2101 37.0571 38.1154 37.0571 37.9925C37.0571 37.2491 37.0612 36.5036 37.0571 35.7601C37.0571 35.617 37.1035 35.5586 37.2485 35.5586C37.4017 35.5586 37.3916 35.6553 37.3916 35.756C37.3916 36.1489 37.3916 36.5418 37.3916 36.9347H37.3896Z" fill="#3A3533"/>
<path d="M15.2464 37.2669C15.2464 37.0977 15.2302 36.9284 15.2504 36.7612C15.2725 36.5919 15.1053 36.1547 15.5728 36.5013C15.6816 36.5819 15.74 36.3945 15.8468 36.3723C15.9395 36.3542 16.0503 36.2817 16.0906 36.4187C16.1147 36.4972 16.1611 36.6423 16.0301 36.6705C15.5163 36.7753 15.5969 37.1783 15.5808 37.5329C15.5748 37.686 15.5788 37.8411 15.5808 37.9963C15.5808 38.1131 15.5869 38.2199 15.4116 38.2119C15.2423 38.2038 15.2464 38.099 15.2464 37.9842C15.2464 37.7464 15.2464 37.5067 15.2464 37.2689V37.2669Z" fill="#3A3533"/>
<path d="M37.8932 37.3134C37.8932 37.0757 37.8932 36.8379 37.8932 36.6002C37.8932 36.4853 37.8872 36.3685 38.0584 36.3785C38.1834 36.3846 38.2257 36.4491 38.2257 36.5679C38.2236 37.0575 38.2236 37.5472 38.2257 38.0388C38.2257 38.1637 38.1733 38.208 38.0504 38.2121C37.9093 38.2161 37.8912 38.1395 37.8932 38.0287C37.8952 37.7909 37.8932 37.5532 37.8932 37.3154V37.3134Z" fill="#3A3533"/>
<path d="M38.1028 36.096C37.9214 36.1041 37.855 36.0174 37.857 35.8925C37.861 35.7696 37.9295 35.6749 38.0665 35.6809C38.1793 35.685 38.2378 35.7635 38.2458 35.8744C38.2559 36.0053 38.2035 36.09 38.1008 36.098L38.1028 36.096Z" fill="#3A3533"/>
<path d="M37.6593 7.86416C37.6532 7.84804 37.6472 7.8299 37.6411 7.81379C37.6512 7.80976 37.6613 7.80774 37.6713 7.80371C37.6633 7.82184 37.6552 7.83998 37.6492 7.85811L37.6593 7.86416Z" fill="#DB2418"/>
<path d="M22.9151 3.31215C22.9091 3.29402 22.903 3.2779 22.897 3.25977C22.903 3.27588 22.9091 3.292 22.9171 3.30812V3.31215H22.9151Z" fill="#2C2725"/>
<path d="M20.8681 9.32038C20.8419 9.33247 20.8137 9.34456 20.7875 9.35665C20.7673 9.31031 20.7955 9.29621 20.8318 9.28613C20.8439 9.29822 20.856 9.3083 20.8681 9.31837V9.32038Z" fill="#3F4C9A"/>
<path d="M44.2624 0.0544003C44.2765 0.0362666 44.2906 0.0181337 44.3047 0C44.3208 0.0503713 44.3107 0.0705189 44.2563 0.0463407L44.2624 0.0544003Z" fill="#FBC204"/>
</svg>
