<svg width="38" height="43" viewBox="0 0 38 43" fill="none" xmlns="http://www.w3.org/2000/svg">
<path d="M16.5125 0.0200043C21.9025 0.0200043 27.2926 0.0200043 32.6826 0.0200043C35.2826 0.0200043 37.4525 2.04 37.6525 4.62C37.6725 4.84 37.6826 5.06 37.6826 5.29C37.6826 11.88 37.6826 18.48 37.6826 25.07C37.6826 27.52 36.0425 29.53 33.6525 30.04C33.3125 30.11 32.9626 30.14 32.6126 30.14C23.4326 30.14 14.2426 30.14 5.06258 30.14C2.54258 30.14 0.462583 28.37 0.0625831 25.89C0.0325831 25.68 0.0125343 25.46 0.0125343 25.25C0.0125343 21.81 0.0125343 18.38 0.0125343 14.94C0.0125343 12.65 1.81254 10.53 4.08254 10.15C4.42254 10.09 4.77258 10.06 5.12258 10.06C12.5326 10.06 19.9426 10.06 27.3526 10.06C27.6926 10.06 27.6425 10.01 27.6425 10.34C27.6425 11.84 27.6425 13.33 27.6425 14.83C27.6425 15.03 27.6025 15.08 27.3925 15.08C20.5225 15.08 13.6626 15.08 6.79256 15.08C5.70256 15.08 5.03255 15.75 5.03255 16.85C5.03255 19.04 5.03255 21.23 5.03255 23.42C5.03255 24.41 5.72255 25.1 6.71255 25.1C14.8025 25.1 22.8926 25.1 30.9826 25.1C31.9526 25.1 32.6425 24.42 32.6425 23.45C32.6425 17.85 32.6425 12.25 32.6425 6.65C32.6425 5.79 32.0025 5.11 31.1425 5.05C30.9425 5.04 30.7426 5.03001 30.5426 5.03001C20.4626 5.03001 10.3726 5.03001 0.292564 5.03001C-0.0474364 5.03001 0.00258553 5.07001 0.00258553 4.74001C0.00258553 3.24001 0.00258553 1.73 0.00258553 0.230003C0.00258553 0.0500033 0.042566 0 0.232566 0C5.66257 0 11.0925 0 16.5225 0L16.5125 0.0200043Z" fill="#159BD6"/>
<path d="M31.0324 39.5302C31.0324 40.0202 31.0324 40.5002 31.0324 40.9902C31.0324 41.2502 31.1224 41.3902 31.3224 41.4302C31.5724 41.4802 31.7824 41.3802 31.8824 41.1402C31.9424 41.0002 31.9624 40.8602 31.9624 40.7102C31.9624 40.4202 31.9624 40.1402 31.9624 39.8502C31.9624 39.7402 31.9724 39.6902 32.1024 39.6902C32.3224 39.7002 32.5524 39.6902 32.7724 39.6902C32.8424 39.6902 32.8924 39.6902 32.8924 39.7802C32.8824 40.2202 32.9324 40.6702 32.8724 41.1102C32.7724 41.8502 32.3524 42.2702 31.6124 42.4102C31.2224 42.4802 30.8224 42.5002 30.4324 42.4202C29.5724 42.2502 29.1224 41.7102 29.1224 40.8302C29.1224 39.9002 29.1224 38.9802 29.1224 38.0502C29.1224 37.8502 29.0724 37.8002 28.8824 37.8102C28.7124 37.8202 28.4824 37.8702 28.3824 37.7802C28.2624 37.6802 28.3524 37.4402 28.3424 37.2602C28.3424 37.2602 28.3424 37.2502 28.3424 37.2402C28.3424 37.0202 28.4457 36.8902 28.6524 36.8502C29.0824 36.7602 29.3524 36.4802 29.5424 36.1002C29.7424 35.7202 29.8124 35.3002 29.8624 34.8802C29.8724 34.7702 29.9024 34.7402 30.0124 34.7402C30.3024 34.7402 30.5924 34.7402 30.8924 34.7402C31.0124 34.7402 31.0424 34.7802 31.0424 34.8902C31.0424 35.5002 31.0424 36.1002 31.0424 36.7102C31.0424 36.8402 31.0724 36.8902 31.2124 36.8802C31.7524 36.8802 32.2824 36.8802 32.8224 36.8802C33.3424 36.8802 33.7224 36.6502 33.9824 36.2002C34.2124 35.8002 34.3024 35.3602 34.3524 34.9102C34.3624 34.7902 34.3924 34.7402 34.5224 34.7502C34.8124 34.7502 35.0924 34.7502 35.3824 34.7502C35.5024 34.7502 35.5324 34.7802 35.5324 34.9002C35.5324 35.4902 35.5324 36.0802 35.5324 36.6702C35.5324 36.8702 35.5924 36.9002 35.7624 36.8902C36.1024 36.8802 36.4424 36.8902 36.7824 36.8902C36.9124 36.8902 36.9724 36.9102 36.9624 37.0502C36.9524 37.2502 36.9524 37.4502 36.9624 37.6502C36.9624 37.7802 36.9324 37.8202 36.8024 37.8102C36.4324 37.8102 36.0624 37.8102 35.6924 37.8102C35.5624 37.8102 35.5324 37.8502 35.5324 37.9702C35.5324 38.9602 35.5324 39.9602 35.5324 40.9502C35.5324 41.2202 35.6524 41.3702 35.8724 41.4002C36.1324 41.4302 36.3324 41.3202 36.4024 41.0702C36.5024 40.7202 36.4624 40.3702 36.4724 40.0102C36.4724 39.6702 36.4724 39.6602 36.8224 39.6702C37.0124 39.6702 37.2624 39.6102 37.3624 39.7002C37.4824 39.8102 37.4024 40.0702 37.4024 40.2602C37.4024 40.5302 37.4024 40.8002 37.3824 41.0702C37.2924 41.7702 36.9124 42.2102 36.2224 42.3702C35.8224 42.4702 35.4024 42.4802 35.0024 42.4202C34.1024 42.2802 33.6224 41.7102 33.6224 40.7502C33.6224 39.8502 33.6224 38.9402 33.6224 38.0402C33.6224 37.8602 33.5824 37.8002 33.3924 37.8002C32.6924 37.8102 31.9824 37.8102 31.2824 37.8002C31.1124 37.8002 31.0524 37.8302 31.0624 38.0102C31.0724 38.5002 31.0624 39.0002 31.0624 39.4902L31.0324 39.5302Z" fill="#020202"/>
<path d="M6.72251 42.2999C6.07251 42.2999 5.42251 42.2999 4.78251 42.2999C4.64251 42.2999 4.59251 42.2699 4.59251 42.1199C4.60251 41.8899 4.59251 41.6599 4.59251 41.4299C4.59251 41.3099 4.63253 41.2799 4.74253 41.2799C4.94253 41.2799 5.14251 41.2799 5.34251 41.2499C5.51251 41.2199 5.58254 41.1499 5.56254 40.9699C5.51254 40.6199 5.38252 40.2899 5.29252 39.9499C5.27252 39.8699 5.22252 39.8799 5.16252 39.8799C4.45252 39.8799 3.74251 39.8799 3.03251 39.8799C2.96251 39.8799 2.92251 39.8999 2.90251 39.9799C2.81251 40.2899 2.7125 40.5899 2.6425 40.8999C2.5825 41.1199 2.64254 41.1999 2.87254 41.2499C3.08254 41.2899 3.30249 41.2999 3.51249 41.2899C3.62249 41.2899 3.67253 41.3099 3.67253 41.4299C3.66253 41.6799 3.67253 41.9299 3.67253 42.1799C3.67253 42.2799 3.64252 42.3099 3.54252 42.3099C2.50252 42.3099 1.45252 42.3099 0.412517 42.3099C0.322517 42.3099 0.272512 42.2899 0.282512 42.1899C0.282512 41.9299 0.282512 41.6799 0.282512 41.4199C0.282512 41.3099 0.322517 41.2899 0.412517 41.2999C1.00252 41.3599 1.19253 41.2199 1.42253 40.5499C2.06253 38.6499 2.7025 36.7499 3.3325 34.8499C3.3825 34.7099 3.43255 34.6699 3.57255 34.6699C4.22255 34.6699 4.87249 34.6699 5.51249 34.6699C5.66249 34.6699 5.72249 34.7199 5.76249 34.8599C6.39249 36.7599 7.03253 38.6599 7.67253 40.5499C7.69253 40.6199 7.72253 40.6799 7.74253 40.7499C7.93253 41.2099 8.06253 41.3099 8.55253 41.2899C8.75253 41.2899 8.84254 41.3299 8.81254 41.5399C8.79254 41.7299 8.80254 41.9199 8.81254 42.0999C8.82254 42.2599 8.78253 42.3099 8.61253 42.3099C7.98253 42.2999 7.3425 42.3099 6.7125 42.3099L6.72251 42.2999ZM4.09251 36.3699C3.81251 37.2099 3.55252 37.9899 3.29252 38.7699C3.27252 38.8399 3.29254 38.8699 3.37254 38.8699C3.88254 38.8699 4.39253 38.8699 4.92253 38.8699C4.64253 38.0399 4.38251 37.2399 4.09251 36.3799V36.3699Z" fill="#020202"/>
<path d="M17.5625 41.6402C17.4725 41.8202 17.3825 42.0002 17.3125 42.1802C17.2725 42.2902 17.2124 42.3202 17.0924 42.3202C16.7824 42.3202 16.4624 42.3102 16.1524 42.3202C15.9924 42.3202 15.9425 42.2902 15.9425 42.1202C15.9425 40.6102 15.9425 39.1002 15.9425 37.5902C15.9425 37.1002 15.9425 36.6202 15.9425 36.1302C15.9425 35.6902 15.8424 35.5902 15.4024 35.5902C14.9924 35.5902 14.9824 35.5902 14.9924 35.1802C14.9924 35.0102 14.9124 34.7802 15.0324 34.6802C15.1324 34.6002 15.3524 34.6502 15.5124 34.6502C16.2324 34.6502 16.9424 34.6502 17.6624 34.6502C17.8224 34.6502 17.8724 34.6802 17.8724 34.8502C17.8724 35.6702 17.8724 36.4902 17.8724 37.3102V37.4902C18.1024 37.2702 18.3124 37.0902 18.5524 36.9402C19.3124 36.4802 20.8724 36.6802 21.4224 37.9802C21.8624 39.0202 21.8624 40.0802 21.4524 41.1202C21.0524 42.1302 20.2224 42.5002 19.2424 42.4502C18.4824 42.4202 18.2725 42.2902 17.5625 41.6102V41.6402ZM17.8724 39.7502C17.8724 40.1002 17.8925 40.6102 18.1325 41.0702C18.2625 41.3202 18.4724 41.4702 18.7624 41.4802C19.0524 41.4802 19.2724 41.3502 19.4124 41.1002C19.4724 40.9902 19.5224 40.8702 19.5524 40.7602C19.6624 40.4002 19.6824 40.0202 19.6824 39.6502C19.6824 39.2002 19.6624 38.7602 19.5124 38.3402C19.4224 38.1102 19.2924 37.9002 19.0524 37.8002C18.6424 37.6302 18.2324 37.8402 18.0524 38.3202C17.9024 38.7402 17.8724 39.1702 17.8724 39.7602V39.7502Z" fill="#020202"/>
<path d="M11.1027 41.6102C11.0027 41.8202 10.9127 41.9902 10.8427 42.1802C10.8027 42.2802 10.7427 42.3302 10.6227 42.3202C10.3027 42.3202 9.98272 42.3102 9.66272 42.3202C9.49272 42.3202 9.47272 42.2702 9.47272 42.1202C9.47272 40.1702 9.47272 38.2102 9.47272 36.2602C9.47272 35.6502 9.42273 35.6002 8.80273 35.6002C8.6094 35.6002 8.5127 35.5035 8.5127 35.3102C8.5127 35.1402 8.5127 34.9802 8.5127 34.8102C8.5127 34.6902 8.55273 34.6602 8.67273 34.6602C9.53273 34.6602 10.3827 34.6602 11.2427 34.6602C11.3827 34.6602 11.4027 34.7102 11.4027 34.8302C11.4027 35.6402 11.4027 36.4602 11.4027 37.2702V37.5102C11.6527 37.2502 11.8927 37.0502 12.1827 36.9102C13.1727 36.4402 14.4427 36.9102 14.9127 37.9402C15.4027 39.0302 15.4027 40.1602 14.9327 41.2502C14.5127 42.2002 13.6927 42.5102 12.7627 42.4802C12.0927 42.4602 11.5227 42.2102 11.1127 41.6102H11.1027ZM13.2027 39.6402C13.2027 39.1402 13.1827 38.6802 13.0027 38.2502C12.8627 37.9402 12.6527 37.7302 12.2927 37.7402C11.9427 37.7402 11.7427 37.9602 11.6127 38.2602C11.4727 38.5902 11.4327 38.9402 11.4127 39.3002C11.3927 39.8402 11.3927 40.3702 11.5827 40.8902C11.6827 41.1702 11.8427 41.4002 12.1527 41.4702C12.5527 41.5502 12.8627 41.3602 13.0327 40.9202C13.1927 40.5002 13.2127 40.0502 13.2127 39.6502L13.2027 39.6402Z" fill="#020202"/>
<path d="M25.2427 42.4801C24.5327 42.4701 23.8627 42.3201 23.2927 41.8801C22.4727 41.2501 22.2327 40.3701 22.2827 39.3801C22.3327 38.4901 22.6627 37.7401 23.4327 37.2301C24.4527 36.5501 26.1327 36.5601 27.1227 37.2601C28.0427 37.9201 28.3027 38.8701 28.2127 39.9401C28.0827 41.5501 26.9127 42.4701 25.2427 42.4801ZM26.1827 39.6002C26.1627 39.1702 26.1627 38.7301 26.0327 38.3001C25.8927 37.8701 25.6526 37.6702 25.2626 37.6702C24.8626 37.6702 24.6227 37.8602 24.4727 38.2802C24.3427 38.6602 24.3327 39.0601 24.3227 39.4501C24.3227 39.9601 24.3227 40.4701 24.4827 40.9501C24.6227 41.3801 24.9127 41.5702 25.3527 41.5302C25.7027 41.5002 25.9427 41.2701 26.0627 40.8401C26.1727 40.4301 26.1827 40.0201 26.1927 39.5801L26.1827 39.6002Z" fill="#020202"/>
</svg>
