<svg width="81" height="19" viewBox="0 0 81 19" fill="none" xmlns="http://www.w3.org/2000/svg">
<path d="M81 2.00889C81 0.679901 80.4996 0.17899 79.1879 0.172175C77.5112 0.161952 75.8344 0.172175 74.1576 0.172175C73.4578 0.172175 72.8493 0.400485 72.2644 0.785551C64.1138 6.12536 55.9564 11.455 47.7955 16.7811C47.5826 16.9209 47.3729 17.2378 47.1059 17.0912C46.8388 16.9447 46.974 16.5903 46.9706 16.3313C46.9638 11.5367 46.9707 6.74214 46.9639 1.94414C46.9639 0.598117 46.5481 0.182387 45.2228 0.182387C41.6259 0.175572 38.0289 0.20966 34.4353 0.15173C33.0493 0.127876 31.8626 0.506108 30.6896 1.21831C23.6004 5.54605 16.4876 9.83631 9.37811 14.1334C9.13808 14.2765 8.92853 14.5593 8.58033 14.406C8.57018 9.77496 8.56001 5.14735 8.54987 0.516332C8.62762 -0.257208 8.2321 0.011999 7.88728 0.219867C5.71692 1.53523 3.54657 2.8506 1.38297 4.17618C0.510767 4.70778 0.0273283 5.50516 0.0205671 6.53087C0.000283364 10.0919 -0.00649109 13.6529 0.0070314 17.2139C0.010412 18.1646 0.524286 18.6588 1.4641 18.7099C1.78526 18.7269 2.10645 18.6894 2.42761 18.6758C4.81433 18.7474 7.20102 18.7474 9.58436 18.6758C10.1861 18.7644 10.6797 18.4918 11.1699 18.1953C13.8473 16.5733 16.5349 14.9717 19.1954 13.3258C19.7634 12.9748 20.115 12.9441 20.6119 13.4723C22.0351 14.9921 23.526 16.4506 24.9966 17.9261C25.3583 18.2873 25.72 18.669 26.2948 18.6519C29.006 18.7917 31.7173 18.6826 34.4252 18.7065C34.9863 18.7099 34.9559 18.4645 34.5705 18.1681C34.3913 17.967 34.2224 17.7591 34.033 17.5683C31.5111 15.0228 29.0026 12.467 26.4536 9.94877C25.9398 9.44103 25.9601 9.22293 26.5788 8.8549C30.3177 6.62629 34.0364 4.35679 37.7652 2.10773C37.9815 1.97483 38.2013 1.67154 38.4751 1.84874C38.7253 2.01231 38.5935 2.35307 38.5935 2.61205C38.6003 7.35212 38.6003 12.0922 38.6003 16.8322C38.6003 18.3452 38.9586 18.7235 40.4562 18.7235C44.2662 18.7269 48.0795 18.7133 51.8894 18.7235C52.6501 18.7235 53.3093 18.5259 53.9449 18.1033C56.6325 16.3279 59.3302 14.5695 62.0245 12.8078C65.2395 10.7053 68.4545 8.59933 71.683 6.51043C71.896 6.37412 72.2273 5.84252 72.4402 6.54791C72.4402 10.5417 72.4402 14.5355 72.4402 18.5259C72.4064 18.6247 72.3896 18.7235 72.4876 18.7985C72.633 19.0881 72.8054 19.0336 72.9879 18.8359C75.1718 17.7012 77.1934 16.2904 79.3334 15.0875C80.4963 14.4332 80.9932 13.4518 80.9865 12.1331C80.9729 8.75608 80.9898 5.37568 80.9865 1.99868L81 2.00889Z" fill="#141213"/>
</svg>
