<svg width="96" height="24" viewBox="0 0 96 24" fill="none" xmlns="http://www.w3.org/2000/svg">
<path d="M22.8568 17.0478C23.4368 15.5478 25.1768 9.55786 20.4768 0.967859C20.4168 0.867859 20.4568 0.747839 20.5468 0.697839C20.6268 0.657839 20.7168 0.667808 20.7868 0.727808C22.0668 1.90781 24.4668 4.74784 25.2268 9.94784C25.2368 10.0578 25.3468 10.1378 25.4568 10.1178C25.5268 10.1178 25.5868 10.0678 25.6168 10.0078C26.2868 8.46784 26.6368 6.81785 26.6668 5.14785C26.6668 5.03785 26.7568 4.94784 26.8668 4.94784C26.9568 4.94784 27.0268 5.00785 27.0568 5.08785C27.5468 6.61785 28.0868 9.67782 26.4068 13.2978C26.3568 13.3978 26.4068 13.5178 26.5068 13.5678C26.5568 13.5878 26.6068 13.5978 26.6568 13.5678C27.4868 13.2778 28.2468 12.8379 28.9168 12.2779C28.9968 12.1979 29.1168 12.1979 29.1968 12.2779C29.2568 12.3379 29.2768 12.4278 29.2368 12.5078C28.5468 13.8978 26.8568 16.2878 23.1168 17.3178C23.0068 17.3478 22.8968 17.2878 22.8668 17.1778C22.8568 17.1378 22.8668 17.0878 22.8668 17.0478" fill="#006241"/>
<path d="M20.6969 19.2878C20.6969 19.2878 24.6168 10.5679 19.4068 3.84789C19.3168 3.76789 19.1768 3.77784 19.0968 3.86784C19.0568 3.91784 19.0369 3.97783 19.0469 4.03783C19.4869 5.43783 20.1368 8.04787 19.9068 10.7079C19.8168 11.7379 19.6569 11.7478 19.4969 10.7278C19.1369 8.41783 17.8369 4.09785 13.2669 0.307846C13.1569 0.247846 13.0268 0.287873 12.9668 0.397873C12.9368 0.457873 12.9269 0.517866 12.9569 0.577866C14.1469 2.49787 16.5069 6.73784 16.7969 10.8678C16.8069 10.9778 16.7268 11.0779 16.6068 11.0879C16.5268 11.0879 16.4468 11.0478 16.4068 10.9778C15.2868 8.90783 12.0269 3.33788 7.81687 0.0278782C7.70687 -0.0321218 7.57688 0.00784404 7.51688 0.117844C7.48688 0.167844 7.48687 0.227827 7.49687 0.287827C8.64687 2.43783 11.8469 8.28786 14.0669 11.3879C14.1369 11.4779 14.1268 11.6078 14.0368 11.6778C13.9568 11.7378 13.8468 11.7378 13.7768 11.6778C11.6768 9.97784 7.58684 6.47783 4.46684 2.66783C4.40684 2.56783 4.27687 2.54783 4.18687 2.60783C4.08687 2.66783 4.06687 2.79786 4.12687 2.88786C5.35687 5.54786 8.39688 11.2379 13.3869 15.0079C13.3869 15.0079 8.44685 13.2879 1.79685 6.77788C1.28685 6.27788 1.13684 6.37787 1.46684 7.01787C3.56684 10.9679 6.66685 14.2979 10.4768 16.6879C10.5768 16.7379 10.6269 16.8579 10.5769 16.9579C10.5269 17.0579 10.4069 17.0978 10.3069 17.0578C7.78686 16.1178 3.58685 14.3778 0.476846 12.1678C-0.0131545 11.8178 -0.153132 11.9479 0.186868 12.4479C1.35687 14.1879 4.43685 18.0078 10.2969 20.6178C11.2269 21.0278 11.1668 21.2179 10.1668 21.0079C7.49685 20.4079 4.91687 19.4578 2.49687 18.1778C1.83687 17.8378 1.73687 17.9778 2.24687 18.4978C4.34686 20.6478 10.4468 25.7079 19.1668 23.1279C25.6268 21.2179 28.7769 17.0079 29.8769 15.1879C29.9169 15.1179 29.8969 15.0178 29.8169 14.9778C29.7569 14.9478 29.6869 14.9578 29.6369 14.9978C25.0069 19.2278 20.7368 19.3179 20.7268 19.3179" fill="#3DAE2B"/>
<path d="M38.5671 6.11749C38.5671 7.44749 37.657 8.32751 36.287 8.32751H34.5871V10.7175H33.7471V3.9375H36.2971C37.6571 3.9375 38.5671 4.8075 38.5671 6.1275M37.7071 6.15753C37.7071 5.23753 37.1071 4.63751 36.2071 4.63751H34.597V7.64752H36.2071C36.9871 7.69752 37.6671 7.10751 37.7071 6.32751C37.7071 6.26751 37.7071 6.20753 37.7071 6.15753Z" fill="#006241"/>
<path d="M45.7369 3.94824V8.51825C45.7369 9.89825 44.6069 10.8182 42.8869 10.8182C41.1669 10.8182 40.0469 9.89825 40.0469 8.51825V3.94824H40.8769V8.38824C40.8769 9.41824 41.6769 10.1382 42.8969 10.1382C44.1169 10.1382 44.8969 9.42824 44.8969 8.38824V3.94824H45.7369Z" fill="#006241"/>
<path d="M53.8169 3.94745V10.8074C53.2069 10.8074 50.1069 6.98747 48.6369 5.46747L48.6569 10.7175H47.8169V3.85742C48.4269 3.85742 51.5369 7.68746 52.9969 9.20746L52.9769 3.95746H53.8169V3.94745Z" fill="#006241"/>
<path d="M60.337 4.62823H58.1569V10.7183H57.327V4.62823H55.147V3.94824H60.337V4.62823Z" fill="#006241"/>
<path d="M65.1869 9.07764H61.6369C61.4169 9.62764 61.1769 10.1676 60.9769 10.7076H60.0869C61.0369 8.41764 62.2769 5.85766 63.3669 3.84766H63.4469C64.5369 5.85766 65.7869 8.42764 66.7369 10.7076H65.8469C65.6469 10.1776 65.4169 9.62764 65.1869 9.07764ZM61.9269 8.39764H64.8669C64.4069 7.31764 63.8869 6.22762 63.3969 5.24762C62.9169 6.21762 62.3969 7.30764 61.9269 8.39764Z" fill="#006241"/>
<path d="M70.9367 4.53784C69.3067 4.53784 68.2267 5.65788 68.2267 7.32788C68.2267 8.99788 69.3267 10.1179 70.9867 10.1179C71.5367 10.1179 72.0867 10.0178 72.6067 9.85785V10.4979C72.0067 10.6879 71.3767 10.7979 70.7467 10.7979C68.7167 10.7979 67.3667 9.40787 67.3667 7.31787C67.3667 5.22787 68.7067 3.83789 70.6967 3.83789C71.3167 3.83789 71.9367 3.94787 72.5267 4.12787V4.78784C72.0167 4.62784 71.4867 4.53789 70.9467 4.52789" fill="#006241"/>
<path d="M78.3769 9.07764H74.8269C74.6069 9.62764 74.3669 10.1676 74.1669 10.7076H73.2769C74.2269 8.41764 75.4669 5.85766 76.5669 3.84766H76.6469C77.7369 5.85766 78.9769 8.42764 79.9269 10.7076H79.0369C78.8369 10.1776 78.6169 9.62764 78.3769 9.07764ZM75.1169 8.39764H78.0769C77.6169 7.31764 77.0969 6.22762 76.6069 5.24762C76.1269 6.21762 75.6069 7.30764 75.1369 8.39764" fill="#006241"/>
<path d="M87.147 3.94745V10.8074C86.537 10.8074 83.4369 6.98747 81.9669 5.46747L81.9869 10.7175H81.147V3.85742C81.757 3.85742 84.867 7.68746 86.327 9.20746L86.3069 3.95746H87.147V3.94745Z" fill="#006241"/>
<path d="M93.4969 9.07764H89.947C89.727 9.62764 89.4869 10.1676 89.2869 10.7076H88.397C89.347 8.41764 90.5869 5.85766 91.6769 3.84766H91.757C92.857 5.85766 94.0969 8.42764 95.0469 10.7076H94.1569C93.9569 10.1776 93.7269 9.62764 93.4969 9.07764ZM90.2369 8.39764H93.1669C92.7069 7.31764 92.187 6.22762 91.697 5.24762C91.217 6.21762 90.6969 7.30764 90.2269 8.39764" fill="#006241"/>
<path d="M36.0367 17.5183H37.4267V19.1583C37.0867 19.2583 36.7367 19.3083 36.3867 19.3183C35.1367 19.3183 34.4067 18.5483 34.4067 17.2583C34.4067 15.9683 35.2067 15.1583 36.4367 15.1583C36.9167 15.1683 37.3967 15.2583 37.8467 15.4183L37.9167 15.4483V14.8383H37.8767C37.3567 14.6383 36.7967 14.5383 36.2467 14.5283C34.6867 14.5283 33.6367 15.6183 33.6367 17.2583C33.6367 18.8983 34.6567 19.9483 36.2467 19.9483C36.6667 19.9483 37.0767 19.8783 37.4767 19.7483C37.6667 19.8583 37.8867 19.9183 38.1167 19.9083H38.1667V16.8983H36.0267V17.5283L36.0367 17.5183Z" fill="#006241"/>
<path d="M41.9571 17.9879C42.7771 17.8479 43.3671 17.1279 43.3271 16.2979C43.3271 15.2779 42.5971 14.5879 41.5071 14.5879H39.4771V19.8679H40.217V15.2079H41.4271C42.0671 15.2379 42.557 15.7679 42.527 16.3979C42.497 16.9879 42.0271 17.4679 41.4271 17.4879C41.1271 17.4879 40.8371 17.4678 40.5471 17.4178L40.3571 17.3779L40.4971 17.4979C41.3371 18.2279 42.1171 19.0079 42.8571 19.8279L42.8771 19.8479H43.777L43.7071 19.7579C43.1571 19.1179 42.5771 18.5179 41.9571 17.9579" fill="#006241"/>
<path d="M48.3267 18.0378C48.3267 18.7978 47.7367 19.3179 46.8467 19.3179C45.9567 19.3179 45.3567 18.7978 45.3567 18.0378V14.5879H44.6167V18.1279C44.6167 19.2079 45.4967 19.9379 46.8367 19.9379C48.1767 19.9379 49.0667 19.2079 49.0667 18.1279V14.5879H48.3267V18.0378Z" fill="#006241"/>
<path d="M52.5469 14.5881H50.5469V19.8681H51.2869V18.0381H52.5369C53.6069 18.0381 54.3269 17.3381 54.3269 16.2981C54.3269 15.2581 53.6069 14.5781 52.5369 14.5781M51.2869 15.2081H52.4669C53.0769 15.2081 53.5769 15.6981 53.5769 16.3081C53.5769 16.9181 53.0769 17.4081 52.4669 17.4081H51.2869V15.2081Z" fill="#006241"/>
<path d="M57.7672 14.5176C56.1572 14.5176 55.0771 15.6075 55.0771 17.2275C55.0771 18.8475 56.1572 19.9376 57.7672 19.9376C59.3772 19.9376 60.4572 18.8475 60.4572 17.2275C60.4572 15.6075 59.3772 14.5176 57.7672 14.5176ZM57.7672 19.3176C56.6172 19.3176 55.8372 18.4775 55.8372 17.2375C55.8372 15.9975 56.6172 15.1576 57.7672 15.1576C58.9172 15.1576 59.6771 15.9975 59.6771 17.2375C59.6771 18.4775 58.9072 19.3176 57.7672 19.3176Z" fill="#006241"/>
</svg>
