<svg width="98" height="27" viewBox="0 0 98 27" fill="none" xmlns="http://www.w3.org/2000/svg">
<path d="M0.860107 19.1611L1.99008 18.5911C1.34008 18.4011 0.750078 18.1611 0.330078 17.8711C0.410078 18.0811 0.800098 19.1011 0.850098 19.1611H0.860107Z" fill="#D11418"/>
<path d="M19.61 13.0402C19.61 13.0402 20.7499 11.2602 20.8299 10.7802C20.8299 10.7802 20.43 9.73016 20.36 9.66016L18.6899 10.5002C18.6899 10.5002 19.45 12.1502 19.61 13.0302V13.0402Z" fill="#D11418"/>
<path d="M17.1601 5.85039C14.0701 3.32039 10.3301 3.59038 10.3301 3.59038C11.5301 3.97038 13.6501 5.12041 13.6501 5.12041C15.7901 5.32041 17.1501 5.85039 17.1501 5.85039H17.1601Z" fill="#D11418"/>
<path d="M16.6701 7.59094C16.9401 7.57094 19.0201 7.68097 19.0201 7.68097C18.4801 6.92097 17.5901 6.21094 17.5901 6.21094C16.2701 5.74094 14.3301 5.50098 14.3301 5.50098C15.2301 6.10098 16.6701 7.60095 16.6701 7.60095V7.59094Z" fill="#D11418"/>
<path d="M18.48 10.2102L20.13 9.38019C19.95 8.95019 19.32 8.07019 19.32 8.07019C17.78 7.95019 17.8 7.9502 16.98 7.9502C16.98 7.9502 17.94 9.12021 18.48 10.2102Z" fill="#D11418"/>
<path d="M19.99 16.2509C19.99 16.2509 20.89 14.8109 21.32 12.8509C21.32 12.8509 21.15 11.7809 21 11.3809C21 11.3809 20.13 13.0209 19.71 13.5409C19.71 13.5409 19.98 14.6009 19.98 16.2409L19.99 16.2509Z" fill="#D11418"/>
<path d="M21.4402 13.6006C21.1802 14.8606 19.9502 17.1606 19.9502 17.1606C19.9302 18.6706 19.1802 21.0806 19.1802 21.0806C21.9102 17.7406 21.4402 13.6106 21.4402 13.6106V13.6006Z" fill="#D11418"/>
<path d="M12.8898 5.06067C12.8898 5.06067 11.5698 4.18066 9.73981 3.68066C9.73981 3.68066 8.30982 3.74063 7.56982 4.02063C7.56982 4.02063 8.90983 4.76063 9.53983 5.27063C9.53983 5.27063 11.0498 4.98067 12.8898 5.06067Z" fill="#D11418"/>
<path d="M16.2102 7.60086C16.2102 7.60086 15.0202 6.31087 13.5802 5.42087C13.5802 5.42087 11.7802 5.21088 9.9502 5.56088C9.9502 5.56088 11.7702 6.99089 12.6202 8.00089C12.6202 8.00089 14.5002 7.61086 16.2202 7.60086H16.2102Z" fill="#D11418"/>
<path d="M18.1499 10.3706C18.1499 10.3706 17.2799 8.75062 16.4999 7.94062C16.4999 7.94062 14.9399 7.9206 12.8799 8.2906C12.8799 8.2906 14.3899 9.9806 15.3299 11.7906C15.3299 11.7906 17.8199 10.5306 18.1399 10.3606L18.1499 10.3706Z" fill="#D11418"/>
<path d="M19.28 13.4509C19.03 12.0409 18.32 10.6709 18.32 10.6709L15.52 12.1109C16.32 13.5009 17.03 16.1009 17.03 16.1009C18.35 14.9109 19.29 13.4409 19.29 13.4409L19.28 13.4509Z" fill="#D11418"/>
<path d="M19.6099 16.981C19.7399 15.661 19.4299 13.9609 19.4299 13.9609C18.3899 15.4609 17.1499 16.5309 17.1499 16.5309C17.4899 17.7609 17.5999 19.801 17.5999 19.801C18.6699 18.791 19.6099 16.981 19.6099 16.981Z" fill="#D11418"/>
<path d="M17.6201 20.3106C17.6801 21.0706 17.5601 22.7406 17.5601 22.7406C17.7401 22.6606 18.4401 21.9106 18.4401 21.9106C18.6301 21.6906 18.9801 20.5106 18.9801 20.5106C19.3801 19.3906 19.5401 17.8506 19.5401 17.8506C19.0101 18.8606 17.6301 20.3106 17.6301 20.3106H17.6201Z" fill="#D11418"/>
<path d="M16.4098 21.3804C16.4898 22.2304 16.3698 23.0504 16.0498 23.8204C16.5798 23.5204 17.1798 23.0604 17.1798 23.0604C17.3398 21.4604 17.2598 20.6504 17.2598 20.6504C17.0098 20.9204 16.7098 21.1604 16.4098 21.3804Z" fill="#D11418"/>
<path d="M16.3602 20.9705C16.6902 20.7205 17.0102 20.4405 17.2502 20.1605C17.2502 20.1605 17.1902 18.1405 16.8402 16.8105C16.8402 16.8105 16.3002 17.3805 14.9702 18.2305C15.7302 18.9405 16.1902 19.8605 16.3702 20.9705H16.3602Z" fill="#D11418"/>
<path d="M14.6599 17.981C15.3099 17.571 16.0598 17.041 16.7098 16.391C16.7098 16.391 15.9899 13.591 15.1699 12.291L10.8398 14.481L11.9898 16.741C12.0698 16.751 12.1399 16.771 12.1999 16.791C13.1899 17.071 14.0099 17.461 14.6599 17.981Z" fill="#D11418"/>
<path d="M11.2699 9.25092L13.42 10.8409L13.3499 11.2409L10.2499 12.0609L9.30994 11.4209L10.6899 14.1309L14.9999 11.9309C14.9999 11.9309 13.7299 9.64086 12.4799 8.38086C12.4799 8.38086 10.2599 8.8809 8.68994 9.6709C8.88994 9.6709 9.07994 9.68091 9.24994 9.68091L11.2699 9.24091V9.25092Z" fill="#D11418"/>
<path d="M9.47009 5.65039C9.47009 5.65039 7.7701 6.05042 6.8501 6.56042L8.31009 9.46039C8.31009 9.46039 9.97009 8.59038 12.1901 8.08038C12.1901 8.08038 10.2901 6.12039 9.46008 5.65039H9.47009Z" fill="#D11418"/>
<path d="M9.05988 5.37042C9.05988 5.37042 7.74987 4.43043 7.04987 4.19043C7.04987 4.19043 6.02988 4.5604 5.87988 4.6604L6.68988 6.23041C6.68988 6.23041 8.44988 5.50042 9.05988 5.37042Z" fill="#D11418"/>
<path d="M4.0498 22.9805C7.1498 25.5105 10.8798 25.2405 10.8798 25.2405C9.67982 24.8505 7.55981 23.7104 7.55981 23.7104C5.41981 23.5104 4.05981 22.9805 4.05981 22.9805H4.0498Z" fill="#D11418"/>
<path d="M4.55017 21.2502C4.28017 21.2602 2.2002 21.1602 2.2002 21.1602C2.7402 21.9202 3.6402 22.6301 3.6402 22.6301C4.9602 23.1001 6.90018 23.3401 6.90018 23.3401C6.00018 22.7401 4.56018 21.2402 4.56018 21.2402L4.55017 21.2502Z" fill="#D11418"/>
<path d="M1.08984 19.4609C1.26984 19.8909 1.89984 20.7709 1.89984 20.7709C3.43984 20.8909 3.41984 20.9009 4.23984 20.9009C4.23984 20.9009 3.37983 19.8509 2.82983 18.8209C2.72983 18.8009 2.61984 18.771 2.51984 18.751L1.08984 19.4709V19.4609Z" fill="#D11418"/>
<path d="M1.29999 11.2108C1.42999 9.72075 2.04999 7.76074 2.04999 7.76074C0.859988 9.22074 0.28 10.8208 0 12.1708C0.16 12.0208 0.600009 11.6908 0.790009 11.5508C0.950009 11.4308 1.11999 11.3107 1.29999 11.2007V11.2108Z" fill="#D11418"/>
<path d="M11.67 23.5705C11.67 23.5705 10.13 23.8905 8.29004 23.8105C8.29004 23.8105 9.88003 24.7705 11.78 25.1805C11.78 25.1805 12.71 25.0705 13.36 24.9005C13.4 24.8405 13.43 24.7705 13.46 24.7005C13.07 24.4805 12.16 23.9505 11.67 23.5605V23.5705Z" fill="#D11418"/>
<path d="M11.27 23.2808C11.27 23.2808 9.45001 21.8508 8.60001 20.8408C8.60001 20.8408 6.72 21.2308 5 21.2408C5 21.2408 6.19 22.5308 7.63 23.4208C7.63 23.4208 9.43001 23.6208 11.26 23.2708L11.27 23.2808Z" fill="#D11418"/>
<path d="M4.71005 20.8906C4.71005 20.8906 6.27005 20.9106 8.33005 20.5306C8.33005 20.5306 7.90008 20.0506 7.36008 19.3406C6.01008 19.1906 4.65006 19.0406 3.31006 18.8906C3.62006 19.4306 4.19006 20.3406 4.72006 20.8906H4.71005Z" fill="#D11418"/>
<path d="M2.1499 15.0704C2.7299 15.5504 3.7999 15.8605 5.3399 16.0005C4.6999 14.5905 4.19992 12.7305 4.19992 12.7305C3.24992 13.5805 2.4999 14.5804 2.1499 15.0704Z" fill="#D11418"/>
<path d="M4.07007 12.3001C3.99007 12.0101 3.92006 11.6701 3.87006 11.3301C3.45006 11.5001 3.07006 11.6901 2.74006 11.9201C1.87006 12.5401 1.51008 13.3101 1.64008 14.2301C1.67008 14.4201 1.74008 14.6001 1.86008 14.7701C2.88008 13.3201 4.06006 12.3001 4.06006 12.3001H4.07007Z" fill="#D11418"/>
<path d="M3.61981 9.03027C3.12981 9.50027 2.6598 10.1303 2.2998 10.6803C2.7298 10.4903 3.19981 10.3203 3.70981 10.1803C3.63981 9.5303 3.61981 9.03027 3.61981 9.03027Z" fill="#D11418"/>
<path d="M3.5899 8.53058C3.5299 7.77058 3.6499 6.10059 3.6499 6.10059C3.4599 6.18059 2.7699 6.9306 2.7699 6.9306C2.5799 7.1406 2.22992 8.33057 2.22992 8.33057C1.82992 9.45057 1.66992 10.9806 1.66992 10.9806C2.19992 9.98059 3.5899 8.52057 3.5899 8.52057V8.53058Z" fill="#D11418"/>
<path d="M6.37995 6.49084L5.53995 4.84082C4.97995 5.07082 4.03995 5.78082 4.03995 5.78082C3.87995 7.38082 3.95993 8.19086 3.95993 8.19086C4.88993 7.22086 6.37995 6.49084 6.37995 6.49084Z" fill="#D11418"/>
<path d="M7.47021 9.66052C7.62021 9.66052 7.76021 9.66052 7.90021 9.66052C7.92021 9.65052 7.94021 9.64049 7.96021 9.63049L6.53021 6.81055C6.53021 6.81055 4.79021 7.71054 3.97021 8.68054C3.97021 8.68054 3.99021 9.31052 4.06021 10.0905C4.48021 9.98052 4.93023 9.89055 5.39023 9.81055C5.84023 9.73055 6.53021 9.68053 7.46021 9.67053L7.47021 9.66052Z" fill="#D11418"/>
<path d="M5.86996 10.8506C5.71996 10.8706 5.56996 10.8906 5.42996 10.9206C4.98996 10.9906 4.58996 11.0906 4.20996 11.2106C4.25996 11.4906 4.30997 11.7706 4.37997 12.0306C4.37997 12.0306 4.80996 11.5606 5.86996 10.8506Z" fill="#D11418"/>
<path d="M6.67001 10.7908C5.99001 11.2008 5.19 11.7708 4.5 12.4508C4.5 12.4508 5.06001 14.6308 5.76001 16.0408C6.14001 16.0808 6.51002 16.1108 6.86002 16.1408L10.37 14.3608L8.66 10.9908H8.64001C8.02001 10.8308 7.36001 10.7708 6.67001 10.7908Z" fill="#D11418"/>
<path d="M7.83984 19.3909C8.12984 19.7709 8.42984 20.1409 8.73984 20.4409C8.73984 20.4409 9.74986 20.2109 10.8899 19.8209C10.5699 19.7409 10.2298 19.6609 9.86984 19.6009C9.18984 19.5309 8.51984 19.4609 7.83984 19.3809V19.3909Z" fill="#D11418"/>
<path d="M10.5201 14.6904L7.56006 16.2004C9.41006 16.3804 10.7301 16.5304 11.5301 16.6504L10.5301 14.6904H10.5201Z" fill="#D11418"/>
<path d="M11.46 20.001C10.8 20.251 9.96002 20.541 9.02002 20.751C9.02002 20.751 10.92 22.711 11.75 23.181C11.75 23.181 12.92 22.9109 13.84 22.5209C13.84 22.5009 13.84 22.4709 13.84 22.4509C13.67 21.3209 12.88 20.501 11.47 20.001H11.46Z" fill="#D11418"/>
<path d="M13.8701 22.8711C13.3001 23.0911 12.5302 23.3811 12.1602 23.4611C12.1602 23.4611 12.9302 24.0211 13.6102 24.3911C13.8002 23.9011 13.8901 23.3911 13.8701 22.8711Z" fill="#D11418"/>
<path d="M5.4099 1.55059C5.4099 1.55059 9.0899 -0.389451 13.3799 0.0705485C13.3299 0.0705485 17.8599 0.390568 21.2499 3.59057C21.2499 3.59057 24.6699 6.40057 25.3099 11.4706C25.3099 11.4706 25.5999 13.6406 25.1599 15.9106C25.1599 15.9106 24.7099 19.0806 22.5699 22.0206C22.5699 22.0206 20.7799 24.9105 16.9699 26.8205C16.9699 26.8205 16.6999 27.0106 16.6599 26.4906C16.6599 26.4906 16.5499 25.7106 16.8999 25.3006C16.8999 25.3006 16.9499 25.2506 17.0099 25.2206C17.0099 25.2206 17.8399 24.8706 18.6299 24.2906C18.6299 24.2906 19.5299 23.6806 19.5899 23.6006C19.5899 23.6006 20.8899 22.6006 21.5499 21.7406C21.5499 21.7406 22.6199 20.5706 23.2899 19.2406C23.2899 19.2406 24.3899 17.2906 24.6299 15.2406C24.6299 15.2406 24.7799 14.6805 24.7099 13.1305C24.7099 13.1305 24.6199 11.6706 24.2599 10.5006C24.2599 10.5006 23.7099 8.71056 22.8199 7.39056C22.8199 7.39056 22.1699 6.32057 20.9799 5.22057C20.9799 5.22057 20.0499 4.28059 18.5099 3.42059L17.9899 3.14056C17.1399 2.73056 16.5699 2.54058 16.5699 2.54058C16.4399 2.48058 15.2999 2.15057 15.2999 2.15057C15.3599 2.17057 10.8199 0.590595 5.28991 3.18059C5.28991 3.18059 5.1999 3.2606 5.0999 3.1206C5.0999 3.1206 4.93991 2.81055 5.00991 2.32055C5.00991 2.32055 5.00989 2.18055 5.08989 1.95055C5.12989 1.78055 5.25988 1.63058 5.29988 1.60058L5.38991 1.5606L5.4099 1.55059Z" fill="#1D1D1B"/>
<path d="M30.1099 11.6106H30.5399C30.8799 13.7306 31.9499 14.8106 33.6699 14.8106C35.1099 14.8106 36.1299 13.8306 36.1299 12.4606C36.1299 11.7706 35.8499 11.1806 35.3499 10.7906C34.9599 10.5106 34.8499 10.4506 33.6399 9.81061C31.6499 8.82061 31.2398 8.53061 30.8098 8.00061C30.4898 7.57061 30.3098 6.97061 30.3098 6.31061C30.3098 4.44061 31.6798 3.17059 33.6898 3.17059C34.6698 3.17059 35.3298 3.44059 36.0198 4.10059L36.5598 3.10059H36.8799V6.37061H36.4499C36.0399 4.56061 35.2198 3.72058 33.8298 3.72058C32.5698 3.72058 31.5898 4.66056 31.5898 5.89056C31.5898 6.81056 31.9998 7.26059 33.5498 8.04059L34.3499 8.45056C35.5199 9.04056 35.8999 9.2506 36.3799 9.6106C37.0899 10.1606 37.4398 10.9606 37.4398 11.9606C37.4398 13.9706 35.9999 15.3606 33.8799 15.3606C32.7799 15.3606 31.9399 15.0606 31.0699 14.3306L30.4298 15.4706H30.1099V11.6106Z" fill="#1D1D1B"/>
<path d="M46.8796 11.2009H47.5196C47.4096 13.8309 45.9396 15.4209 43.6096 15.4209C40.7596 15.4209 38.8896 12.9809 38.8896 9.3009C38.8896 5.6209 40.7596 3.13086 43.6596 3.13086C44.7996 3.13086 45.6396 3.45087 46.4396 4.20087L47.0596 3.1709H47.3796V6.66089H46.9696C46.4696 4.67089 45.4696 3.71088 43.8696 3.71088C41.6796 3.71088 40.4896 5.68086 40.4896 9.26086C40.4896 12.8409 41.6796 14.6509 43.8396 14.6509C45.6396 14.6509 46.7596 13.3809 46.8896 11.2109L46.8796 11.2009Z" fill="#1D1D1B"/>
<path d="M53.5696 14.8305V15.2505C52.4296 15.1405 51.9996 15.1105 51.3396 15.1105C50.6796 15.1105 50.2396 15.1505 49.1196 15.2505V14.8305L49.3196 14.8105C50.3996 14.7205 50.5796 14.5405 50.5796 13.6305V4.8905C50.5796 3.9305 50.4396 3.81051 49.1196 3.71051V3.27051C50.2196 3.38051 50.6496 3.41052 51.3396 3.41052C52.0296 3.41052 52.4596 3.38051 53.5696 3.27051V3.71051C52.2496 3.80051 52.0896 3.9205 52.0896 4.8905V13.6305C52.0896 14.5405 52.2696 14.7205 53.3496 14.8105L53.5596 14.8305H53.5696Z" fill="#1D1D1B"/>
<path d="M63.9299 12.3408L63.5399 15.2108H55.6899V14.7808C57.0099 14.6808 57.1499 14.5508 57.1499 13.5908V4.96082C57.1499 4.00082 56.9699 3.86082 55.6899 3.78082V3.34082H63.4299L63.7499 6.0108H63.3399C62.8999 4.3208 62.4899 3.89081 61.2399 3.89081H58.6599V8.7608H61.2C62 8.7608 62.1999 8.49084 62.2499 7.30084H62.7V10.7908H62.2499C62.2099 9.63083 61.96 9.31085 61.11 9.31085H58.6599V13.6008C58.6599 14.4508 58.8899 14.6508 59.8499 14.6508H61.11C62.52 14.6508 63.0699 14.1308 63.5299 12.3408H63.92H63.9299Z" fill="#1D1D1B"/>
<path d="M74.6998 15.561H74.4297L74.0398 14.941L73.5398 14.161L73.0298 13.391L72.5998 12.731L67.3498 4.83099V13.641C67.3498 14.601 67.4898 14.731 68.8098 14.841V15.261C67.7798 15.191 67.4598 15.171 67.0098 15.171C66.5598 15.171 66.2298 15.191 65.2798 15.261V14.841C66.5998 14.731 66.7598 14.611 66.7598 13.641V4.24103C66.3898 3.87103 66.1198 3.78102 65.2598 3.73102V3.29102C65.9198 3.34102 66.1898 3.36102 66.7598 3.36102C67.3298 3.36102 67.5098 3.34102 68.0598 3.29102L74.0998 12.311V4.91101C74.0998 3.97101 73.9398 3.83102 72.6398 3.73102V3.29102C73.6198 3.36102 73.9798 3.38098 74.4398 3.38098C74.8998 3.38098 75.2598 3.36102 76.1598 3.29102V3.73102C74.8598 3.82102 74.6998 3.96101 74.6998 4.91101V15.571V15.561Z" fill="#1D1D1B"/>
<path d="M76.7498 15.2108L83.1898 3.89081H80.1998C78.8698 3.89081 78.3298 4.37083 77.9198 5.97083H77.4597L77.9398 3.34082H85.1698L78.7397 14.6608H82.0998C83.3298 14.6608 83.7197 14.4608 84.2397 13.5808C84.4697 13.1508 84.5598 12.9408 84.7898 12.3308H85.2198L84.6797 15.2208H76.7397L76.7498 15.2108Z" fill="#1D1D1B"/>
<path d="M91.3796 5.77094L93.1096 11.2209H89.3296L91.3796 5.77094ZM93.8896 13.691L93.9496 13.991C93.9796 14.111 93.9996 14.2009 93.9996 14.2609C93.9996 14.6209 93.7196 14.7609 92.8596 14.8309V15.251C93.8596 15.141 94.2496 15.131 95.0296 15.111C95.8096 15.111 96.1996 15.151 97.1996 15.251V14.8309C96.0596 14.7409 95.8096 14.5809 95.5496 13.7609L91.8896 2.96094L87.8296 13.5709C87.4396 14.6009 87.2396 14.7409 86.1196 14.8309V15.251C86.9396 15.181 87.2396 15.1609 87.8096 15.1609C88.3796 15.1609 88.6796 15.181 89.4996 15.251V14.8309C88.5896 14.7709 88.3296 14.6509 88.3296 14.2609C88.3296 14.1009 88.3996 13.871 88.5596 13.441L89.1396 11.7709H93.2896L93.8896 13.691Z" fill="#1D1D1B"/>
<path d="M33.9198 19.0306C33.9198 19.0306 33.8098 19.0406 33.7198 19.0606C33.6298 19.0806 33.5598 19.1106 33.4998 19.1406C33.4398 19.1806 33.3998 19.2606 33.3798 19.3806C33.3598 19.5006 33.3498 19.6506 33.3498 19.8206V21.3606C33.3498 21.5606 33.3098 21.7306 33.2298 21.8706C33.1498 22.0106 33.0398 22.1306 32.9098 22.2306C32.7798 22.3206 32.6398 22.3806 32.4998 22.4206C32.3598 22.4606 32.2198 22.4806 32.0798 22.4806C31.8698 22.4806 31.6798 22.4506 31.5098 22.4006C31.3398 22.3406 31.1998 22.2706 31.0898 22.1706C30.9798 22.0806 30.8898 21.9706 30.8398 21.8506C30.7898 21.7306 30.7598 21.6006 30.7598 21.4706V19.3806C30.7598 19.3206 30.7598 19.2706 30.7298 19.2406C30.7098 19.2006 30.6698 19.1606 30.6198 19.1306C30.5798 19.1106 30.5198 19.0906 30.4598 19.0706C30.3998 19.0606 30.3398 19.0506 30.2998 19.0406V18.8606H31.7698V19.0406C31.7698 19.0406 31.6698 19.0406 31.5898 19.0606C31.5198 19.0706 31.4698 19.0906 31.4298 19.1006C31.3698 19.1206 31.3398 19.1506 31.3198 19.2006C31.2998 19.2506 31.2898 19.3006 31.2898 19.3506V21.3006C31.2898 21.3906 31.2998 21.4906 31.3198 21.6006C31.3398 21.7006 31.3798 21.8006 31.4398 21.8906C31.4998 21.9806 31.5898 22.0606 31.6998 22.1106C31.8098 22.1706 31.9598 22.2006 32.1598 22.2006C32.3398 22.2006 32.4898 22.1706 32.6198 22.1106C32.7398 22.0506 32.8398 21.9806 32.9098 21.8806C32.9798 21.7906 33.0298 21.7006 33.0498 21.6006C33.0798 21.5006 33.0898 21.4006 33.0898 21.3006V19.8506C33.0898 19.6706 33.0798 19.5206 33.0498 19.4006C33.0198 19.2806 32.9798 19.2106 32.9298 19.1706C32.8698 19.1306 32.7898 19.1006 32.6898 19.0706C32.5898 19.0506 32.5098 19.0306 32.4598 19.0306V18.8506H33.8998V19.0306H33.9198Z" fill="#1D1D1B"/>
<path d="M39.0699 22.3806H38.1199C37.9099 22.0506 37.7199 21.7606 37.5499 21.5206C37.3799 21.2806 37.1999 21.0306 36.9999 20.7806H36.6399V21.9006C36.6399 21.9606 36.6399 22.0106 36.6699 22.0506C36.6899 22.0906 36.7299 22.1306 36.7899 22.1506C36.8199 22.1606 36.8699 22.1706 36.9499 22.1806C37.0199 22.1906 37.0899 22.2006 37.1399 22.2006V22.3806H35.6499V22.2006C35.6499 22.2006 35.7499 22.2006 35.8199 22.1806C35.8999 22.1806 35.9499 22.1606 35.9799 22.1506C36.0299 22.1306 36.0699 22.1006 36.0899 22.0606C36.1099 22.0206 36.1199 21.9706 36.1199 21.9006V19.3506C36.1199 19.2906 36.1199 19.2406 36.0999 19.1906C36.0799 19.1506 36.0399 19.1106 35.9799 19.0906C35.9399 19.0806 35.8799 19.0606 35.8199 19.0506C35.7499 19.0406 35.6999 19.0306 35.6499 19.0306V18.8506H37.2799C37.4299 18.8506 37.5699 18.8706 37.6999 18.9006C37.8299 18.9306 37.9499 18.9806 38.0599 19.0506C38.1599 19.1206 38.2399 19.2006 38.3099 19.3106C38.3699 19.4206 38.3999 19.5506 38.3999 19.7006C38.3999 19.8406 38.3799 19.9506 38.3399 20.0606C38.2999 20.1606 38.2399 20.2606 38.1599 20.3306C38.0899 20.4006 37.9999 20.4606 37.8899 20.5206C37.7899 20.5706 37.6699 20.6206 37.5499 20.6506C37.7199 20.8806 37.8699 21.0706 37.9799 21.2306C38.0899 21.3906 38.2399 21.5806 38.3999 21.8006C38.4699 21.9006 38.5399 21.9706 38.5999 22.0206C38.6599 22.0706 38.7199 22.1106 38.7699 22.1406C38.8099 22.1606 38.8699 22.1806 38.9299 22.1906C38.9899 22.2006 39.0499 22.2106 39.0899 22.2106V22.3906L39.0699 22.3806ZM37.7599 19.7506C37.7599 19.5406 37.6999 19.3706 37.5799 19.2406C37.4599 19.1106 37.2799 19.0506 37.0599 19.0506H36.6399V20.5606H36.9699C37.1999 20.5606 37.3899 20.4906 37.5399 20.3406C37.6899 20.1906 37.7699 19.9906 37.7699 19.7406L37.7599 19.7506Z" fill="#1D1D1B"/>
<path d="M44.1998 19.0306C44.1998 19.0306 44.0898 19.0406 43.9998 19.0606C43.9098 19.0806 43.8398 19.1106 43.7798 19.1406C43.7198 19.1806 43.6798 19.2606 43.6598 19.3806C43.6398 19.5006 43.6298 19.6506 43.6298 19.8206V21.3606C43.6298 21.5606 43.5898 21.7306 43.5098 21.8706C43.4298 22.0106 43.3198 22.1306 43.1898 22.2306C43.0598 22.3206 42.9198 22.3806 42.7798 22.4206C42.6398 22.4606 42.4998 22.4806 42.3598 22.4806C42.1498 22.4806 41.9598 22.4506 41.7898 22.4006C41.6198 22.3406 41.4898 22.2706 41.3698 22.1706C41.2598 22.0806 41.1698 21.9706 41.1198 21.8506C41.0598 21.7306 41.0398 21.6006 41.0398 21.4706V19.3806C41.0398 19.3206 41.0398 19.2706 41.0098 19.2406C40.9898 19.2006 40.9498 19.1606 40.8898 19.1306C40.8498 19.1106 40.7898 19.0906 40.7298 19.0706C40.6598 19.0606 40.6098 19.0506 40.5698 19.0406V18.8606H42.0398V19.0406C42.0398 19.0406 41.9398 19.0406 41.8698 19.0606C41.7998 19.0706 41.7498 19.0906 41.7098 19.1006C41.6498 19.1206 41.6198 19.1506 41.5998 19.2006C41.5798 19.2506 41.5698 19.3006 41.5698 19.3506V21.3006C41.5698 21.3906 41.5798 21.4906 41.5998 21.6006C41.6198 21.7006 41.6598 21.8006 41.7198 21.8906C41.7798 21.9806 41.8698 22.0606 41.9798 22.1106C42.0898 22.1706 42.2398 22.2006 42.4398 22.2006C42.6198 22.2006 42.7798 22.1706 42.8998 22.1106C43.0198 22.0506 43.1198 21.9806 43.1898 21.8806C43.2598 21.7906 43.3098 21.7006 43.3298 21.6006C43.3598 21.5006 43.3698 21.4006 43.3698 21.3006V19.8506C43.3698 19.6706 43.3598 19.5206 43.3298 19.4006C43.2998 19.2806 43.2698 19.2106 43.2098 19.1706C43.1498 19.1306 43.0698 19.1006 42.9698 19.0706C42.8698 19.0506 42.7898 19.0306 42.7398 19.0306V18.8506H44.1798V19.0306H44.1998Z" fill="#1D1D1B"/>
<path d="M49.3298 20.9708C49.3298 20.9708 49.2399 20.9808 49.1699 20.9908C49.0999 21.0008 49.0499 21.0208 49.0099 21.0408C48.9599 21.0708 48.9198 21.1008 48.8998 21.1508C48.8798 21.2008 48.8698 21.2508 48.8698 21.3108V21.5807C48.8698 21.7807 48.8698 21.9108 48.8698 21.9808C48.8698 22.0508 48.8698 22.1108 48.8698 22.1508C48.6498 22.2508 48.4298 22.3307 48.2098 22.3807C47.9898 22.4307 47.7798 22.4608 47.5598 22.4608C47.3298 22.4608 47.1199 22.4207 46.9099 22.3307C46.6999 22.2507 46.5199 22.1208 46.3599 21.9708C46.1999 21.8108 46.0799 21.6208 45.9799 21.4008C45.8899 21.1708 45.8398 20.9207 45.8398 20.6407C45.8398 20.3607 45.8798 20.1207 45.9698 19.8907C46.0598 19.6607 46.1799 19.4608 46.3499 19.2908C46.5099 19.1208 46.6899 18.9908 46.9099 18.9008C47.1299 18.8108 47.3599 18.7607 47.6099 18.7607C47.8099 18.7607 47.9799 18.7807 48.1299 18.8307C48.2799 18.8807 48.4098 18.9408 48.5198 19.0008L48.6198 18.8307H48.8199L48.8398 20.0608H48.6399C48.6099 19.9208 48.5599 19.7908 48.5099 19.6608C48.4599 19.5308 48.3898 19.4108 48.3098 19.3108C48.2298 19.2108 48.1299 19.1208 48.0099 19.0608C47.8899 19.0008 47.7498 18.9708 47.5898 18.9708C47.4098 18.9708 47.2499 19.0007 47.1099 19.0807C46.9699 19.1507 46.8498 19.2608 46.7498 19.4008C46.6498 19.5408 46.5698 19.7108 46.5198 19.9108C46.4598 20.1208 46.4398 20.3508 46.4398 20.6008C46.4398 20.8308 46.4698 21.0408 46.5198 21.2308C46.5698 21.4308 46.6499 21.6008 46.7599 21.7408C46.8599 21.8908 46.9898 22.0008 47.1498 22.0908C47.3098 22.1708 47.4798 22.2208 47.6798 22.2208C47.8198 22.2208 47.9598 22.2008 48.0798 22.1508C48.1998 22.1108 48.2898 22.0607 48.3398 22.0107C48.3498 21.9207 48.3599 21.8408 48.3599 21.7508V21.3307C48.3599 21.2607 48.3598 21.2007 48.3298 21.1407C48.3098 21.0907 48.2698 21.0508 48.2098 21.0208C48.1498 20.9908 48.0798 20.9808 47.9898 20.9608C47.8998 20.9508 47.8198 20.9408 47.7698 20.9408V20.7607H49.3199V20.9408L49.3298 20.9708Z" fill="#1D1D1B"/>
<path d="M54.6 19.0306C54.6 19.0306 54.49 19.0406 54.4 19.0606C54.31 19.0806 54.24 19.1106 54.18 19.1406C54.12 19.1806 54.08 19.2606 54.06 19.3806C54.04 19.5006 54.03 19.6506 54.03 19.8206V21.3606C54.03 21.5606 53.99 21.7306 53.91 21.8706C53.83 22.0106 53.72 22.1306 53.59 22.2306C53.46 22.3206 53.32 22.3806 53.18 22.4206C53.04 22.4606 52.9 22.4806 52.76 22.4806C52.55 22.4806 52.36 22.4506 52.19 22.4006C52.02 22.3406 51.88 22.2706 51.77 22.1706C51.66 22.0806 51.57 21.9706 51.52 21.8506C51.46 21.7306 51.44 21.6006 51.44 21.4706V19.3806C51.44 19.3206 51.43 19.2706 51.41 19.2406C51.39 19.2006 51.35 19.1606 51.3 19.1306C51.26 19.1106 51.2 19.0906 51.14 19.0706C51.07 19.0606 51.02 19.0506 50.98 19.0406V18.8606H52.45V19.0406C52.45 19.0406 52.35 19.0406 52.27 19.0606C52.2 19.0706 52.15 19.0906 52.12 19.1006C52.06 19.1206 52.03 19.1506 52.01 19.2006C51.99 19.2506 51.98 19.3006 51.98 19.3506V21.3006C51.98 21.3906 51.99 21.4906 52.01 21.6006C52.03 21.7006 52.07 21.8006 52.13 21.8906C52.2 21.9806 52.28 22.0606 52.39 22.1106C52.5 22.1706 52.65 22.2006 52.85 22.2006C53.03 22.2006 53.19 22.1706 53.31 22.1106C53.43 22.0506 53.53 21.9806 53.6 21.8806C53.67 21.7906 53.72 21.7006 53.74 21.6006C53.77 21.5006 53.78 21.4006 53.78 21.3006V19.8506C53.78 19.6706 53.77 19.5206 53.74 19.4006C53.71 19.2806 53.68 19.2106 53.62 19.1706C53.56 19.1306 53.48 19.1006 53.38 19.0706C53.28 19.0506 53.2 19.0306 53.15 19.0306V18.8506H54.59V19.0306H54.6Z" fill="#1D1D1B"/>
<path d="M59.6 22.381H58.13V22.201C58.26 22.201 58.37 22.181 58.45 22.151C58.54 22.121 58.58 22.091 58.58 22.061C58.58 22.041 58.58 22.031 58.58 22.001C58.58 21.981 58.58 21.961 58.57 21.941L58.28 21.151H57.04C56.99 21.271 56.96 21.371 56.93 21.451C56.9 21.541 56.87 21.611 56.85 21.691C56.83 21.761 56.81 21.821 56.81 21.861C56.81 21.901 56.8 21.941 56.8 21.971C56.8 22.041 56.85 22.091 56.96 22.121C57.06 22.161 57.18 22.181 57.31 22.181V22.361H55.98V22.181C55.98 22.181 56.08 22.171 56.14 22.151C56.21 22.141 56.26 22.111 56.3 22.091C56.37 22.041 56.42 22.001 56.45 21.951C56.49 21.901 56.52 21.831 56.56 21.751C56.74 21.311 56.93 20.811 57.15 20.261C57.36 19.711 57.55 19.221 57.72 18.791H57.92L59.1 21.831C59.12 21.891 59.15 21.951 59.19 21.991C59.22 22.031 59.26 22.071 59.32 22.111C59.36 22.131 59.41 22.151 59.47 22.171C59.53 22.191 59.58 22.201 59.62 22.201V22.381H59.6ZM58.18 20.941L57.64 19.571L57.11 20.941H58.17H58.18Z" fill="#1D1D1B"/>
<path d="M64.1796 19.0303C64.1796 19.0303 64.1096 19.0404 64.0496 19.0604C63.9896 19.0804 63.9396 19.1004 63.9196 19.1204C63.8596 19.1604 63.8096 19.1903 63.7896 19.2103C63.7696 19.2303 63.7196 19.2903 63.6596 19.3803C63.5296 19.5603 63.4096 19.7504 63.2996 19.9304C63.1896 20.1204 63.0496 20.3503 62.8896 20.6403C62.8296 20.7503 62.7896 20.8303 62.7696 20.9003C62.7496 20.9603 62.7396 21.0604 62.7396 21.1804V21.8503C62.7396 21.9103 62.7496 21.9603 62.7796 22.0103C62.7996 22.0503 62.8396 22.0904 62.8996 22.1204C62.9296 22.1304 62.9996 22.1503 63.0896 22.1703C63.1796 22.1903 63.2496 22.2003 63.3096 22.2003V22.3803H61.6596V22.2003C61.6596 22.2003 61.7796 22.2004 61.8696 22.1804C61.9596 22.1804 62.0296 22.1603 62.0596 22.1403C62.1196 22.1103 62.1596 22.0803 62.1796 22.0403C62.1996 22.0003 62.2096 21.9403 62.2096 21.8803V21.0203C62.2096 21.0203 62.1896 20.9504 62.1596 20.8704C62.1296 20.8004 62.0896 20.7203 62.0496 20.6303C61.9496 20.4403 61.8396 20.2303 61.7196 20.0103C61.5996 19.7903 61.4896 19.5904 61.3996 19.4404C61.3496 19.3504 61.2996 19.2703 61.2496 19.2303C61.2096 19.1803 61.1596 19.1403 61.0996 19.1003C61.0596 19.0703 61.0096 19.0603 60.9596 19.0403C60.8996 19.0303 60.8496 19.0203 60.8096 19.0203V18.8403H62.3196V19.0203C62.1496 19.0203 62.0296 19.0304 61.9596 19.0504C61.8896 19.0704 61.8596 19.1003 61.8596 19.1303C61.8596 19.1403 61.8596 19.1604 61.8796 19.1804C61.8796 19.2004 61.8996 19.2403 61.9196 19.2703C61.9396 19.3103 61.9696 19.3603 61.9996 19.4203C62.0296 19.4803 62.0596 19.5303 62.0896 19.5803C62.1696 19.7303 62.2496 19.8803 62.3296 20.0203C62.4096 20.1703 62.5196 20.3603 62.6496 20.5903C62.9096 20.1703 63.1096 19.8404 63.2496 19.6104C63.3896 19.3704 63.4596 19.2304 63.4596 19.1904C63.4596 19.1504 63.4496 19.1203 63.4196 19.1003C63.3896 19.0803 63.3496 19.0603 63.3096 19.0403C63.2596 19.0303 63.2096 19.0203 63.1496 19.0103C63.0896 19.0103 63.0396 19.0104 62.9896 19.0004V18.8203H64.2196V19.0004L64.1796 19.0303Z" fill="#1D1D1B"/>
</svg>
