<svg width="130" height="28" viewBox="0 0 130 28" fill="none" xmlns="http://www.w3.org/2000/svg">
<path d="M98.8969 27.107C98.7305 26.997 98.5313 27.0119 98.3499 26.9703C95.8856 26.4174 94.2566 24.6338 93.9653 22.1249C93.7869 20.5821 94.0396 19.1225 94.9938 17.8561C96.1294 16.349 97.6484 15.5583 99.5509 15.4988C101.4 15.4423 102.966 16.0279 104.194 17.44C104.328 17.5916 104.346 17.6837 104.191 17.8234C104.019 17.9839 103.87 18.1712 103.71 18.3436C103.213 18.8817 102.601 18.9382 101.986 18.5042C101.025 17.8294 99.973 17.5797 98.8404 17.9215C97.5443 18.3109 96.495 19.4108 96.4237 21.1052C96.3701 22.3924 96.7328 23.5042 97.797 24.3157C98.3886 24.7675 99.0544 24.937 99.7976 24.8567C100.235 24.8121 100.675 24.8032 101.097 24.6605C101.792 24.4286 102.351 24.0095 102.797 23.4358C102.904 23.299 102.955 23.2961 103.07 23.4239C103.499 23.9025 103.936 24.3752 104.375 24.8419C104.474 24.9459 104.494 25.0053 104.39 25.1272C103.457 26.2182 102.295 26.887 100.856 27.0565C100.82 27.0594 100.79 27.0654 100.782 27.104H98.9029L98.8969 27.107Z" fill="#010101"/>
<path d="M55.8918 27.107C55.6748 26.997 55.4281 26.9791 55.1992 26.9078C52.9875 26.2271 51.4715 24.3097 51.3139 22.0089C51.2218 20.6712 51.3972 19.387 52.1493 18.2514C53.4394 16.2954 55.2973 15.4453 57.6219 15.579C59.1558 15.6652 60.4608 16.2568 61.5398 17.3567C61.6885 17.5083 61.739 17.6064 61.5577 17.7669C61.3883 17.9155 61.2456 18.0998 61.0939 18.2693C60.6064 18.7984 59.9762 18.8757 59.3906 18.4536C58.6504 17.9185 57.83 17.6658 56.9174 17.7223C55.4221 17.8174 54.1201 18.9738 53.8734 20.4542C53.695 21.5362 53.7842 22.5826 54.4471 23.5041C55.7075 25.2639 58.3591 25.4215 59.89 23.8371C60.0297 23.6914 60.1576 23.5338 60.3121 23.3614C60.5291 23.5992 60.7521 23.84 60.9721 24.0808C61.1891 24.3186 61.4061 24.5535 61.6231 24.7913C61.7995 24.9815 61.7965 25.1757 61.6142 25.3739C60.7967 26.2627 59.8127 26.8632 58.6088 27.0743C58.5999 27.0743 58.594 27.101 58.5851 27.1129H55.8948L55.8918 27.107Z" fill="#010101"/>
<path d="M26.8341 13.6029C26.8341 17.9608 26.8341 22.3216 26.8401 26.6795C26.8401 26.9322 26.7836 27.0035 26.522 27.0006C20.7431 26.9917 14.9643 27.0006 9.18252 26.9917C5.26754 26.9887 1.96194 24.7354 0.585603 21.1474C0.190241 20.1189 0.0059511 19.0487 0.0059511 17.9518C0.00297846 12.1225 0.0059453 6.29608 0 0.466719C0 0.249715 0.068384 0.202148 0.273497 0.202148C9.03984 0.208094 17.8062 0.208094 26.5725 0.202148C26.8192 0.202148 26.8371 0.300246 26.8371 0.499413C26.8341 4.86623 26.8341 9.23306 26.8341 13.5999V13.6029ZM17.9399 4.71165C16.5368 4.71165 15.1308 4.71759 13.7277 4.7057C13.5137 4.7057 13.4423 4.74138 13.4453 4.97622C13.4601 6.12366 13.4572 7.27407 13.4453 8.42151C13.4453 8.64149 13.484 8.71879 13.7277 8.71582C15.1576 8.70393 16.5874 8.71581 18.0172 8.70392C18.2491 8.70392 18.3294 8.73959 18.3264 8.99821C18.3115 10.4578 18.3264 11.9203 18.3145 13.3799C18.3145 13.5969 18.3739 13.6385 18.582 13.6385C19.7741 13.6296 20.9691 13.6296 22.1611 13.6385C22.3514 13.6385 22.3989 13.5909 22.3989 13.4007C22.393 10.5797 22.393 7.75862 22.3989 4.93758C22.3989 4.74138 22.3424 4.70274 22.1581 4.70274C20.755 4.71166 19.349 4.7057 17.9459 4.7057L17.9399 4.71165Z" fill="#FEDC01"/>
<path d="M43.5819 5.64086C43.7245 5.77165 43.8643 5.89354 44.001 6.01839C45.4249 7.29365 45.0266 9.34775 44.0872 10.3436C43.3262 11.1521 42.375 11.4702 41.3108 11.4851C39.5004 11.5089 37.6901 11.494 35.8798 11.5C35.7163 11.5 35.6865 11.4494 35.6865 11.3008C35.6895 7.67117 35.6895 4.03861 35.6865 0.409001C35.6865 0.28415 35.6925 0.206848 35.8559 0.209821C37.7079 0.233602 39.5599 0.162262 41.4118 0.251442C42.0837 0.284141 42.7287 0.462499 43.3144 0.807326C45.0058 1.80911 45.2079 4.25559 43.7097 5.52194C43.6651 5.56059 43.6205 5.59924 43.5759 5.64086H43.5819ZM39.658 9.2764C39.9612 9.2764 40.2674 9.2764 40.5706 9.2764C41.0046 9.2764 41.4326 9.25263 41.8399 9.08616C42.3244 8.887 42.5563 8.53622 42.5563 8.00412C42.5563 7.51363 42.3244 7.18069 41.8369 6.98152C41.6496 6.90423 41.4535 6.8537 41.2513 6.82992C40.2555 6.72587 39.2567 6.80911 38.2608 6.77939C38.1152 6.77641 38.1211 6.85073 38.1211 6.9518C38.1211 7.66821 38.1271 8.38759 38.1211 9.104C38.1211 9.26155 38.1835 9.27937 38.3143 9.2764C38.7632 9.27045 39.2091 9.2764 39.658 9.2764ZM39.6074 4.79068C39.7174 4.79068 39.8274 4.79068 39.9374 4.79068C40.4517 4.78771 40.9689 4.80554 41.4713 4.65393C42.0123 4.48747 42.2828 4.13966 42.2798 3.62837C42.2798 3.0814 42.0212 2.73657 41.4772 2.5701C41.3346 2.52551 41.1829 2.48984 41.0343 2.47498C40.1158 2.37985 39.1942 2.4512 38.2727 2.42445C38.1122 2.4185 38.1241 2.50769 38.1241 2.6147C38.1241 3.27166 38.133 3.93159 38.1211 4.58854C38.1181 4.76393 38.1806 4.79663 38.3381 4.79366C38.7602 4.78474 39.1823 4.79068 39.6045 4.79068H39.6074Z" fill="#010101"/>
<path d="M89.4054 23.3404V23.0164C89.4054 20.668 89.4084 18.3196 89.3995 15.9712C89.3995 15.7393 89.4619 15.6947 89.6789 15.7007C90.3062 15.7156 90.9304 15.7096 91.5576 15.7007C91.7122 15.7007 91.7746 15.7274 91.7746 15.9028C91.7687 19.5265 91.7687 23.1502 91.7746 26.7738C91.7746 26.9551 91.7182 26.9997 91.5458 26.9968C90.9364 26.9878 90.327 26.9968 89.7176 26.9938C89.1676 26.9938 88.7544 26.7708 88.4661 26.2833C87.1611 24.0984 85.8413 21.9195 84.5244 19.7405C84.4738 19.6573 84.4203 19.577 84.3282 19.4373V19.7435C84.3282 22.074 84.3282 24.4046 84.3341 26.7381C84.3341 26.9462 84.2866 27.0057 84.0725 27.0027C83.4126 26.9878 82.7527 26.9938 82.0927 27.0027C81.9382 27.0027 81.8936 26.9641 81.8936 26.8065C81.8995 23.1739 81.8965 19.5413 81.8936 15.9117C81.8936 15.7631 81.9173 15.7066 82.0838 15.7096C82.7527 15.7185 83.4215 15.7007 84.0903 15.7185C84.6225 15.7334 85.0238 16.0158 85.2883 16.4557C86.6141 18.6585 87.928 20.8701 89.2449 23.0788C89.2865 23.1472 89.3252 23.2126 89.4084 23.3463L89.4054 23.3404Z" fill="#010101"/>
<path d="M61.1622 4.02226V4.28683C61.1622 6.60846 61.1622 8.9301 61.1681 11.2547C61.1681 11.4539 61.1206 11.5074 60.9184 11.5044C60.2585 11.4925 59.5986 11.4955 58.9386 11.5044C58.7841 11.5044 58.7246 11.4806 58.7246 11.3023C58.7306 7.69645 58.7306 4.09064 58.7246 0.484814C58.7246 0.330236 58.7603 0.285636 58.9178 0.288609C59.5778 0.297527 60.2377 0.291584 60.8976 0.291584C61.4238 0.291584 61.8132 0.517502 62.0837 0.97529C63.4006 3.19289 64.7264 5.40752 66.0492 7.62215C66.0968 7.69944 66.1473 7.77672 66.2365 7.91941V7.61024C66.2365 5.23807 66.2365 2.86292 66.2305 0.490747C66.2305 0.279688 66.2603 0.199439 66.5011 0.205384C67.1253 0.226192 67.7525 0.217277 68.3798 0.208359C68.5433 0.208359 68.5938 0.246989 68.5938 0.41643C68.5878 4.04901 68.5878 7.67862 68.5938 11.3112C68.5938 11.4777 68.5433 11.5015 68.3946 11.5015C67.7763 11.4925 67.161 11.4925 66.5427 11.5015C65.9808 11.5074 65.5736 11.2517 65.2882 10.785C63.9683 8.59716 62.6485 6.40929 61.3316 4.22439C61.29 4.15602 61.2484 4.08765 61.2068 4.01928C61.1919 4.02225 61.177 4.02523 61.1622 4.02821V4.02226Z" fill="#010101"/>
<path d="M82.6132 5.65046C82.6607 1.91979 85.8296 -0.0302797 88.6892 0.0648451C91.6262 0.162942 94.4176 2.60052 94.2778 6.12608C94.1441 9.46139 91.3617 11.896 88.0472 11.7028C84.9883 11.5274 82.5151 9.17602 82.6132 5.65046ZM88.3593 2.36567C87.4021 2.33892 86.5281 2.68673 85.8444 3.49232C85.3599 4.06307 85.1191 4.72001 85.0626 5.45426C84.9675 6.66413 85.2261 7.75509 86.1684 8.59933C86.9889 9.33357 87.9728 9.50895 89.0311 9.39004C89.7802 9.30681 90.4193 9.00657 90.9187 8.42096C91.7065 7.49944 91.9651 6.43227 91.7838 5.25807C91.5757 3.89363 90.4223 2.30326 88.3593 2.36271V2.36567Z" fill="#010101"/>
<path d="M73.6058 21.3462C73.6058 23.1447 73.6058 24.9461 73.6088 26.7446C73.6088 26.9378 73.5702 27.0061 73.3621 27.0002C72.7289 26.9853 72.0928 26.9883 71.4596 27.0002C71.2812 27.0032 71.2337 26.9526 71.2337 26.7743C71.2396 25.3801 71.2337 23.9859 71.2426 22.5918C71.2426 22.3985 71.201 22.3391 70.9989 22.3421C69.5868 22.351 68.1719 22.351 66.7599 22.3421C66.5488 22.3421 66.5161 22.4104 66.5161 22.5977C66.522 23.983 66.5161 25.3682 66.525 26.7535C66.525 26.9586 66.4626 27.0032 66.2694 27.0002C65.6362 26.9883 65 26.9853 64.3669 27.0002C64.1469 27.0061 64.0845 26.9556 64.0845 26.7267C64.0934 23.8046 64.0904 20.8825 64.0904 17.9574C64.0904 17.2826 64.0964 16.6048 64.0874 15.9301C64.0874 15.7606 64.1201 15.6982 64.3074 15.7012C64.9763 15.7131 65.6451 15.7131 66.314 15.7012C66.5042 15.6982 66.528 15.7666 66.528 15.933C66.522 17.2499 66.528 18.5698 66.5191 19.8866C66.5191 20.0888 66.5726 20.1393 66.7717 20.1364C68.1837 20.1274 69.5987 20.1274 71.0107 20.1364C71.198 20.1364 71.2515 20.0947 71.2485 19.9015C71.2367 18.9562 71.2426 18.0079 71.2426 17.0626C71.2426 16.2273 71.7658 15.7071 72.6041 15.7041C72.8657 15.7041 73.1302 15.716 73.3918 15.7012C73.5702 15.6923 73.6177 15.7428 73.6177 15.9241C73.6088 16.7594 73.6148 17.5977 73.6148 18.433V21.3462H73.6058Z" fill="#010101"/>
<path d="M116.222 21.4092C116.222 23.2166 116.219 25.024 116.228 26.8313C116.228 27.0186 116.189 27.0721 115.996 27.0662C115.378 27.0513 114.759 27.0513 114.144 27.0662C113.933 27.0721 113.862 27.0335 113.865 26.7986C113.879 25.3955 113.868 23.9954 113.876 22.5923C113.876 22.3991 113.838 22.3397 113.633 22.3397C112.212 22.3486 110.791 22.3486 109.37 22.3397C109.192 22.3397 109.15 22.3842 109.15 22.5626C109.159 23.9568 109.15 25.348 109.159 26.7421C109.159 26.9324 109.126 27.0038 108.915 26.9978C108.255 26.9829 107.595 26.9889 106.935 26.9978C106.784 26.9978 106.715 26.977 106.715 26.7986C106.721 23.166 106.721 19.5365 106.715 15.9039C106.715 15.7255 106.778 15.7017 106.932 15.7047C107.601 15.7106 108.27 15.7136 108.936 15.7047C109.114 15.7047 109.159 15.7493 109.159 15.9276C109.15 17.2534 109.159 18.5792 109.15 19.9051C109.15 20.0953 109.195 20.1399 109.385 20.1399C110.797 20.131 112.212 20.131 113.624 20.1399C113.844 20.1399 113.882 20.0745 113.879 19.8724C113.868 18.9181 113.873 17.9639 113.876 17.0097C113.876 16.2368 114.409 15.7136 115.184 15.7106C115.455 15.7106 115.725 15.7225 115.996 15.7047C116.186 15.6928 116.234 15.7463 116.234 15.9366C116.225 17.7618 116.228 19.584 116.228 21.4092H116.222Z" fill="#010101"/>
<path d="M35.6925 21.3433C35.6925 19.5448 35.6954 17.7463 35.6865 15.9479C35.6865 15.7428 35.746 15.7012 35.9392 15.7012C37.3839 15.7101 38.8316 15.7012 40.2763 15.7071C41.2008 15.7071 42.0985 15.8498 42.91 16.3195C44.2388 17.0894 44.7798 18.2903 44.6966 19.7826C44.5747 21.9645 42.9427 23.1149 41.1294 23.3587C40.2109 23.4806 39.2894 23.4003 38.3679 23.4092C38.1657 23.4092 38.1181 23.4657 38.1211 23.6619C38.13 24.6994 38.1211 25.7398 38.13 26.7772C38.13 26.9556 38.0825 27.0032 37.9071 27.0002C37.2472 26.9883 36.5872 26.9883 35.9273 27.0002C35.737 27.0032 35.6865 26.9556 35.6895 26.7624C35.6984 24.955 35.6955 23.1477 35.6955 21.3433H35.6925ZM38.1271 19.5507C38.1271 20.0412 38.1271 20.5287 38.1271 21.0192C38.1271 21.1054 38.0973 21.2125 38.2519 21.2095C39.1467 21.1857 40.0444 21.2779 40.9333 21.1203C41.5308 21.0133 42.0718 20.7785 42.259 20.1364C42.5028 19.301 42.3274 18.3617 41.1562 18.0585C41.0254 18.0258 40.8916 17.999 40.7578 17.9812C39.9344 17.8742 39.1051 17.9485 38.2787 17.9217C38.1211 17.9158 38.1271 17.999 38.1271 18.109C38.13 18.5906 38.1271 19.0692 38.1271 19.5507Z" fill="#010101"/>
<path d="M57.0662 11.4974C56.2666 11.4974 55.4818 11.4944 54.697 11.5003C54.5692 11.5003 54.5484 11.426 54.5127 11.3369C54.2541 10.7156 53.9836 10.0973 53.7309 9.473C53.6714 9.32734 53.606 9.27086 53.4426 9.27086C52.1227 9.27978 50.8029 9.27681 49.483 9.27086C49.3284 9.27086 49.263 9.31843 49.2095 9.45814C48.9776 10.0794 48.7309 10.6977 48.4931 11.319C48.4515 11.429 48.4128 11.5003 48.2701 11.4974C47.5002 11.4885 46.7303 11.4944 45.9307 11.4944C46.0109 11.2833 46.0793 11.0901 46.1566 10.8999C47.524 7.42187 48.8914 3.94685 50.2529 0.465877C50.3272 0.272654 50.4134 0.189416 50.6304 0.201306C50.9931 0.222115 51.3587 0.204285 51.7214 0.207258C52.3189 0.21023 52.7351 0.495591 52.9521 1.0485C54.3165 4.49083 55.675 7.93613 57.0365 11.3785C57.0484 11.4082 57.0513 11.4409 57.0662 11.4914V11.4974ZM50.0864 7.18406C50.134 7.19892 50.1578 7.21082 50.1816 7.21082C51.0199 7.21082 51.8552 7.21081 52.6934 7.21675C52.9164 7.21675 52.8183 7.10082 52.7856 7.01164C52.4883 6.19713 52.1881 5.38561 51.8908 4.5711C51.766 4.23222 51.6441 3.89036 51.5014 3.50392C51.0169 4.76432 50.5502 5.97122 50.0834 7.18406H50.0864Z" fill="#010101"/>
<path d="M129.278 26.9944C128.484 26.9944 127.723 26.9885 126.962 26.9974C126.813 26.9974 126.778 26.9171 126.733 26.8131C126.474 26.1918 126.21 25.5705 125.957 24.9492C125.907 24.8244 125.847 24.7738 125.701 24.7738C124.364 24.7798 123.029 24.7798 121.691 24.7738C121.546 24.7738 121.489 24.8274 121.442 24.9522C121.21 25.5675 120.963 26.174 120.737 26.7893C120.684 26.935 120.621 27.0004 120.455 26.9974C119.762 26.9885 119.066 26.9885 118.374 26.9974C118.19 26.9974 118.163 26.9617 118.231 26.7893C119.667 23.1478 121.097 19.5063 122.524 15.8618C122.571 15.737 122.634 15.6984 122.764 15.7013C123.145 15.7102 123.525 15.7013 123.906 15.7043C124.563 15.7043 124.958 15.9748 125.202 16.5961C125.698 17.8565 126.192 19.1169 126.688 20.3803C127.524 22.5027 128.356 24.6252 129.191 26.7477C129.218 26.8161 129.239 26.8874 129.275 26.9944H129.278ZM122.31 22.696H125.089C124.64 21.4712 124.2 20.2614 123.737 18.995C123.252 20.2524 122.788 21.4593 122.31 22.696Z" fill="#010101"/>
<path d="M79.8336 7.86547C80.33 8.4065 80.8115 8.9386 81.305 9.46179C81.412 9.57772 81.3496 9.62826 81.2812 9.70852C80.1397 11.0611 78.6712 11.6883 76.9174 11.7091C75.1784 11.727 73.6326 11.2513 72.3811 9.9939C71.412 9.02185 70.9305 7.82981 70.8353 6.4832C70.7313 5.0058 70.9661 3.59974 71.8817 2.38095C73.2016 0.621143 74.9911 -0.11608 77.1641 0.0147162C78.7545 0.109841 80.0714 0.763829 81.1148 1.97072C81.2366 2.11044 81.2396 2.19367 81.1059 2.31852C80.9394 2.4731 80.7967 2.65443 80.6421 2.8209C80.1249 3.38867 79.5095 3.45705 78.8793 3.01413C77.8864 2.31853 76.8015 2.08367 75.6362 2.4612C74.0934 2.96061 73.157 4.53314 73.3264 6.23647C73.4216 7.20852 73.7694 8.04681 74.5244 8.69188C75.0714 9.15859 75.6927 9.4172 76.418 9.43207C77.7735 9.45882 78.7961 9.17047 79.8336 7.86845V7.86547Z" fill="#010101"/>
<path d="M49.1407 21.3403C49.1407 23.1477 49.1407 24.9551 49.1436 26.7625C49.1436 26.9468 49.108 27.0062 48.9118 27.0032C48.3024 26.9884 47.693 26.9854 47.0836 27.0032C46.8428 27.0092 46.7744 26.9557 46.7744 26.703C46.7833 23.9503 46.7804 21.1977 46.7804 18.445C46.7804 17.6008 46.7863 16.7565 46.7774 15.9123C46.7774 15.7428 46.825 15.7042 46.9885 15.7042C47.6395 15.7131 48.2905 15.7161 48.9415 15.7042C49.1228 15.7012 49.1407 15.7696 49.1407 15.9212C49.1347 17.7286 49.1407 19.5359 49.1407 21.3433V21.3403Z" fill="#010101"/>
<path d="M76.6051 21.3285C76.6051 19.5301 76.608 17.7316 76.5991 15.9332C76.5991 15.74 76.6496 15.6983 76.8369 15.7013C77.479 15.7132 78.1211 15.7102 78.7662 15.7013C78.9178 15.7013 78.9653 15.734 78.9653 15.8945C78.9594 19.5241 78.9594 23.1567 78.9653 26.7863C78.9653 26.9558 78.9178 27.0004 78.7513 26.9974C78.1092 26.9885 77.4671 26.9855 76.8221 26.9974C76.6407 27.0004 76.5991 26.9468 76.6021 26.7715C76.608 24.9552 76.6051 23.1419 76.6051 21.3256V21.3285Z" fill="#010101"/>
<path d="M17.9402 4.71098C19.3432 4.71098 20.7493 4.71395 22.1524 4.70801C22.3367 4.70801 22.3932 4.74666 22.3932 4.94286C22.3873 7.7639 22.3873 10.5849 22.3932 13.406C22.3932 13.5962 22.3456 13.6438 22.1554 13.6438C20.9634 13.6349 19.7683 13.6349 18.5763 13.6438C18.3712 13.6438 18.3088 13.6022 18.3088 13.3852C18.3207 11.9256 18.3088 10.4631 18.3207 9.00349C18.3207 8.74784 18.2434 8.7092 18.0115 8.7092C16.5817 8.72109 15.1518 8.70919 13.722 8.72108C13.4782 8.72108 13.4366 8.64677 13.4396 8.42679C13.4515 7.27935 13.4515 6.12895 13.4396 4.9815C13.4366 4.74667 13.508 4.70801 13.722 4.71098C15.1251 4.7199 16.5311 4.71693 17.9342 4.71693L17.9402 4.71098Z" fill="#010101"/>
</svg>
