<svg width="98" height="26" viewBox="0 0 98 26" fill="none" xmlns="http://www.w3.org/2000/svg">
<path d="M51.3392 6.63644H50.9906C50.7591 6.63644 50.4079 6.86795 50.4079 7.10212V14.553C50.4079 16.5328 49.3594 17.5785 47.2652 17.5785C45.171 17.5785 44.1225 16.5301 44.1225 14.553V9.7791V7.33363C44.1225 7.10212 44.0054 6.75087 43.6568 6.75087H43.1911C42.9596 6.75087 42.6084 6.86795 42.6084 7.21654V14.5503C42.6084 17.3444 44.237 18.9729 47.1481 18.9729C50.0593 18.9729 51.6878 17.3444 51.6878 14.5503V7.21654C51.9193 6.98504 51.8049 6.63379 51.3392 6.63379C51.4173 6.63379 51.4173 6.63379 51.3392 6.63379" fill="#323E48"/>
<path d="M41.56 17.4645H40.0459C40.7431 16.7673 41.0943 15.7188 41.0943 14.5533V10.4793C40.9772 7.91939 39.2316 6.40527 36.4375 6.40527C33.6435 6.40527 31.8978 7.91939 31.7808 10.4793V14.5533V15.8333C32.1294 17.2303 33.0607 18.2787 34.5748 18.7444H35.0405C35.1576 18.7444 35.272 18.7444 35.3891 18.8615H41.56C41.7915 18.8615 42.1427 18.7444 42.1427 18.3958V18.0472C42.1427 17.813 41.9112 17.4645 41.56 17.4645ZM35.2746 17.3474C33.8776 16.9988 33.0634 16.0674 33.0634 14.5533V10.7108C33.0634 8.84808 34.2263 7.79964 36.3231 7.79964C38.42 7.79964 39.5829 8.84808 39.5829 10.7108V14.5533C39.5829 16.416 38.42 17.4645 36.3231 17.4645C35.9745 17.4645 35.6259 17.4645 35.2746 17.3474Z" fill="#323E48"/>
<path d="M54.8327 6.63672H54.4842C54.2527 6.63672 53.9014 6.7538 53.9014 7.1024V18.1616C53.9014 18.3931 54.0185 18.7443 54.367 18.7443H54.8327C55.0642 18.7443 55.4155 18.5128 55.4155 18.2787V7.21948C55.4155 6.98797 55.1813 6.63672 54.8327 6.63672Z" fill="#323E48"/>
<path d="M85.9134 14.4363C85.6819 14.0877 85.4477 13.7391 85.2162 13.5049C86.6132 13.0392 87.4275 11.8764 87.4275 10.2452C87.4275 8.03385 86.0305 6.75391 83.8192 6.75391H79.1624C78.5796 6.75391 78.5796 7.21958 78.5796 7.56818V16.299V18.2788C78.5796 18.5103 78.8111 18.8615 79.0453 18.8615H79.5109C79.7425 18.8615 80.0938 18.63 80.0938 18.3958V11.0621V8.15094H83.702C85.0991 8.15094 85.9134 8.84812 85.9134 10.2452C85.9134 11.6422 85.0991 12.3394 83.702 12.3394H81.6079C81.3764 12.3394 81.0251 12.4565 81.0251 12.8051V13.1536C81.0251 13.3852 81.2566 13.6193 81.4908 13.7364H81.9565C83.2364 13.7364 84.0507 14.2021 84.5163 15.0164L86.0304 18.2761C86.1475 18.6247 86.4961 18.6247 86.7277 18.6247H87.0763C87.3078 18.6247 87.4249 18.5076 87.5419 18.3932C87.659 18.2761 87.659 18.0446 87.5419 17.9275L85.9107 14.4363H85.9134Z" fill="#323E48"/>
<path d="M72.2945 6.40527C69.3833 6.40527 67.6377 8.03382 67.6377 10.7135V14.556C67.6377 17.2329 69.3833 18.8642 72.2945 18.8642C75.2056 18.8642 76.9513 17.2356 76.9513 14.556V10.7135C76.9513 8.03648 75.2056 6.40527 72.2945 6.40527ZM75.4371 14.5533C75.4371 16.416 74.2743 17.4645 72.1774 17.4645C70.0805 17.4645 68.9177 16.416 68.9177 14.5533V10.7108C68.9177 8.84808 70.0805 7.79964 72.1774 7.79964C74.2743 7.79964 75.4371 8.84808 75.4371 10.7108V14.5533Z" fill="#323E48"/>
<path d="M96.3926 6.63672H88.7102C88.4787 6.63672 88.1274 6.7538 88.1274 7.1024V7.45099C88.1274 7.6825 88.3589 7.91667 88.5931 8.03375H91.8529V18.1616C91.8529 18.3931 92.0844 18.7443 92.3185 18.7443H92.7842C93.0157 18.7443 93.367 18.5128 93.367 18.2787V8.03375H96.5096C96.7411 8.03375 97.0924 7.91667 97.0924 7.56807V7.21948C96.9753 6.98797 96.8609 6.63672 96.3952 6.63672C96.4733 6.63672 96.4733 6.63672 96.3952 6.63672" fill="#323E48"/>
<path d="M62.284 6.63672H57.9758C57.7443 6.63672 57.3931 6.7538 57.3931 7.1024V18.1616C57.3931 18.3931 57.5102 18.7443 57.8587 18.7443H58.3244C58.5559 18.7443 58.9072 18.5128 58.9072 18.2787V8.03375H62.284C63.9125 8.03375 64.7295 8.96511 64.7295 10.4792C64.7295 11.9933 63.7981 12.8076 61.9354 12.9247H60.4213C60.1898 12.9247 59.8385 13.0418 59.8385 13.3904V13.739C59.8385 13.9705 60.07 14.2046 60.3042 14.3217H62.284C64.8439 14.2046 66.2409 12.8076 66.2409 10.4792C66.2409 8.15084 64.7268 6.63672 62.284 6.63672Z" fill="#323E48"/>
<path d="M22.5868 4.77409C22.4697 4.77409 22.4697 4.657 22.5868 4.77409C22.3553 4.54258 22.1211 4.54258 22.0041 4.657C22.0041 4.77409 21.887 4.77409 21.887 4.88851V5.00559C21.1898 12.805 15.9502 19.5587 8.49941 22.1186C7.80222 22.3501 7.21944 22.5843 6.51959 22.7013C6.40251 22.7013 6.28809 22.9329 6.28809 23.0499C6.28809 23.167 6.40519 23.2814 6.40519 23.3985C12.3419 26.8898 20.1413 25.0271 23.6352 19.0903C26.3122 14.5507 25.9636 8.84545 22.5868 4.77143" fill="#0075BF"/>
<path d="M20.2582 2.56283C14.553 -1.51118 6.75353 -0.348319 2.56243 5.23982C0.699714 7.79971 -0.114556 11.0595 0.234037 14.2048V14.3219C0.234037 14.5534 0.465561 14.6705 0.582645 14.6705H0.699714C9.08191 15.7189 17.2299 10.8279 20.2582 3.02851V2.79434C20.3753 2.79434 20.3753 2.67726 20.2582 2.56283Z" fill="#0075BF"/>
<path d="M18.2785 10.0137C18.2005 10.0137 18.1614 10.0527 18.1614 10.1308C17.9299 10.4794 17.6957 10.7135 17.4642 11.0621C16.9986 11.5278 16.65 12.1106 16.0672 12.5762C13.973 14.3219 11.2933 15.1361 8.61635 14.7875H8.49928C8.26778 14.7875 8.15068 14.9046 8.15068 15.1361V15.3703L8.73345 16.4187V16.7673C8.73345 16.9988 8.61637 17.1159 8.50195 17.233H8.38485C6.63922 17.6987 4.8936 18.0473 3.03088 18.0473H1.75095C1.51944 18.0473 1.40234 18.2788 1.40234 18.3959V18.513C1.40234 18.513 1.40236 18.63 1.51945 18.63C1.86804 19.4443 2.4508 20.1442 2.91648 20.8413L3.03355 20.9584C3.15063 21.0755 3.26507 21.0755 3.38216 21.0755H3.49923C4.77917 20.844 6.05914 20.6098 7.34175 20.1442C8.2731 19.7956 9.20444 19.447 10.0187 18.9813C13.6271 17.1186 16.5382 14.2074 18.4009 10.7162C18.6324 10.2505 18.518 10.1334 18.2838 10.019C18.3619 10.019 18.3619 10.019 18.2838 10.019" fill="#323E48"/>
</svg>
