<svg width="32" height="40" viewBox="0 0 32 40" fill="none" xmlns="http://www.w3.org/2000/svg">
<path d="M21.4132 19.5566C21.5565 19.9697 21.6923 20.362 21.8281 20.7543C21.93 21.0504 22.0375 21.3428 22.1356 21.6408C22.1639 21.7294 22.1978 21.7445 22.2865 21.7219C23.8104 21.3258 25.3155 20.875 26.7678 20.2564C27.079 20.1244 27.4015 20.0131 27.7391 19.9584C27.8599 19.9376 27.9824 19.9339 28.1013 19.9527C28.305 19.9829 28.3974 20.1583 28.3257 20.362C28.271 20.5148 28.1522 20.6129 28.0296 20.7034C27.7674 20.8995 27.4638 21.0127 27.1639 21.1391C26.2359 21.5276 25.291 21.869 24.3253 22.1538C24.1989 22.1915 24.0726 22.233 23.9764 22.3311C23.9142 22.3933 23.8651 22.4631 23.9028 22.5593C23.9387 22.6498 24.0179 22.6687 24.1028 22.6744C24.2065 22.6819 24.3065 22.6574 24.4064 22.6272C25.3966 22.3254 26.3717 21.9746 27.3355 21.5974C27.6128 21.488 27.8957 21.3918 28.1975 21.3616C28.2804 21.3522 28.3597 21.3541 28.4408 21.3692C28.6388 21.4069 28.7256 21.554 28.6652 21.7483C28.6143 21.9143 28.4898 22.0218 28.3559 22.118C27.9843 22.382 27.5618 22.5423 27.1431 22.7083C26.3114 23.0365 25.4626 23.3137 24.612 23.5834C24.497 23.6193 24.38 23.657 24.2819 23.7306C24.2046 23.789 24.1424 23.8626 24.1744 23.9663C24.2065 24.0682 24.2951 24.0965 24.3951 24.0983C24.5403 24.0983 24.6761 24.0606 24.8138 24.021C25.8625 23.7155 26.8904 23.3477 27.9013 22.9327C28.1126 22.846 28.3314 22.7743 28.5653 22.7649C28.6973 22.7592 28.8274 22.7687 28.9066 22.8875C28.9896 23.012 28.9802 23.1515 28.9123 23.2817C28.8199 23.4571 28.6652 23.5721 28.4973 23.6702C28.1032 23.9022 27.6731 24.055 27.2506 24.2228C26.4472 24.5416 25.6267 24.8056 24.7949 25.0357C24.6818 25.0678 24.5705 25.1036 24.4743 25.1753C24.3951 25.2338 24.3555 25.3111 24.3762 25.4073C24.397 25.5035 24.4819 25.5261 24.5649 25.5393C24.6912 25.5601 24.8119 25.528 24.9326 25.4922C25.9983 25.181 27.0469 24.8169 28.0805 24.4152C28.2993 24.3303 28.52 24.2511 28.7557 24.2266C28.9047 24.2096 29.0462 24.2247 29.1348 24.3605C29.2235 24.4982 29.2084 24.6453 29.1273 24.7849C29.0443 24.9282 28.9161 25.0225 28.7784 25.1055C28.3785 25.3469 27.9409 25.5035 27.5071 25.6657C25.6324 26.3654 23.7105 26.9049 21.7451 27.2858C20.9304 27.4443 20.1099 27.5744 19.2838 27.6744C18.5218 27.7668 17.758 27.8385 16.9903 27.8856C16.0944 27.9422 15.1985 27.9629 14.3008 27.9535C13.6255 27.9479 12.9484 27.9233 12.2751 27.8762C11.5697 27.8271 10.8662 27.7592 10.1646 27.6725C8.96879 27.5254 7.78432 27.3179 6.60929 27.0576C6.44708 27.0218 6.44709 27.0218 6.46029 26.8879C6.49424 26.5276 6.52442 26.1655 6.5678 25.8071C6.62061 25.3715 6.68096 24.9358 6.75074 24.5001C6.89031 23.6231 7.07326 22.7554 7.28073 21.8935C7.30714 21.7879 7.33732 21.7615 7.45237 21.7879C8.154 21.9501 8.85939 22.0953 9.56856 22.2104C10.1664 22.3084 10.7681 22.3896 11.3717 22.4537C12.2977 22.5518 13.2276 22.6102 14.1593 22.6272C14.8572 22.6385 15.5531 22.6215 16.251 22.5857C16.8583 22.5536 17.4637 22.5046 18.0692 22.448C18.6765 22.3914 19.2838 22.3198 19.8892 22.2349C19.9515 22.2255 20.0062 22.2198 20.0231 22.1349C20.1703 21.3918 20.5267 20.7468 20.9719 20.1451C21.1133 19.9546 21.2491 19.7585 21.417 19.5604L21.4132 19.5566Z" fill="#074C92"/>
<path d="M4.49915 25.8043C4.48029 25.3611 4.57082 24.9273 4.63306 24.4916C4.70285 24.0087 4.77452 23.524 4.88203 23.0468C4.95936 22.7092 5.0348 22.3697 5.10459 22.0302C5.1291 21.9114 5.13853 21.7888 5.09138 21.6719C5.02914 21.5172 4.88014 21.4965 4.77263 21.6247C4.66513 21.753 4.64249 21.9152 4.60666 22.0698C4.41805 22.9016 4.25585 23.739 4.12948 24.5821C4.07101 24.9706 4.02008 25.3629 3.88994 25.7364C3.84656 25.8609 3.79564 25.9835 3.70322 26.0816C3.57874 26.2155 3.4354 26.2211 3.2996 26.0985C3.15437 25.9665 3.11476 25.7892 3.10345 25.6081C3.07327 25.1196 3.14494 24.6387 3.22038 24.1577C3.35807 23.2751 3.55044 22.4056 3.7334 21.5323C3.75226 21.4418 3.75415 21.3475 3.73906 21.255C3.72397 21.1721 3.68625 21.0947 3.59383 21.0759C3.49952 21.0551 3.42785 21.1042 3.37881 21.1834C3.28451 21.3343 3.24679 21.5059 3.20907 21.6757C3.0827 22.2566 2.93558 22.8318 2.83373 23.4165C2.77149 23.7711 2.72622 24.1313 2.67341 24.4878C2.63192 24.7669 2.59231 25.048 2.50366 25.3196C2.47348 25.412 2.43765 25.4988 2.37919 25.578C2.26413 25.7326 2.11136 25.7628 1.95104 25.6572C1.76243 25.5327 1.71151 25.3384 1.69453 25.131C1.66436 24.7745 1.70962 24.4199 1.76054 24.0691C1.82467 23.641 1.88691 23.2147 1.96424 22.7884C2.06609 22.2245 2.20378 21.6681 2.34335 21.1117C2.37164 20.9985 2.40371 20.8854 2.39616 20.7666C2.38862 20.6477 2.33203 20.561 2.23773 20.5383C2.12268 20.51 2.05855 20.5836 2.00386 20.6666C1.91521 20.8043 1.88314 20.9627 1.84731 21.1174C1.60777 22.134 1.40786 23.16 1.2532 24.1936C1.2249 24.3897 1.18718 24.5859 1.12871 24.7764C1.10607 24.8518 1.07401 24.9235 1.03252 24.9895C0.894831 25.2177 0.62135 25.2404 0.45726 25.031C0.376158 24.9273 0.330892 24.8066 0.315804 24.6689C0.264879 24.186 0.353523 23.7126 0.430852 23.2411C0.54779 22.5263 0.689254 21.8133 0.851458 21.106C1.39277 18.7277 2.1604 16.4248 3.16568 14.203C4.04083 12.2678 5.07252 10.4176 6.26265 8.65786C7.0416 7.50735 7.87713 6.4021 8.78057 5.34589C9.088 4.98565 9.40298 4.63295 9.7255 4.28591C9.78586 4.2199 9.82735 4.21424 9.9028 4.26705C10.6308 4.76686 11.3325 5.30062 12.0133 5.86079C12.6452 6.38135 13.2506 6.93209 13.8428 7.49792C13.9089 7.56016 13.9183 7.59411 13.8504 7.66578C12.6206 8.97284 11.506 10.3685 10.512 11.8623C9.88582 12.8054 9.31244 13.7786 8.79943 14.7895C8.22794 15.9155 7.70361 17.0623 7.22266 18.2317C7.19248 18.3071 7.20192 18.3505 7.26227 18.4052C7.80924 18.9012 8.19211 19.5123 8.48068 20.1856C8.56744 20.3874 8.65609 20.5893 8.74285 20.7911C8.75416 20.8175 8.77302 20.8477 8.75227 20.8703C8.73341 20.8929 8.69947 20.8778 8.67117 20.8722C7.96955 20.7364 7.26793 20.6025 6.56819 20.4629C6.47577 20.444 6.48332 20.5119 6.472 20.5534C6.36261 20.9646 6.25509 21.3739 6.14759 21.7869C5.96652 22.4848 5.80999 23.1902 5.6855 23.9012C5.61572 24.2992 5.56856 24.7009 5.50632 25.0989C5.44785 25.4686 5.39693 25.842 5.25358 26.1928C5.21775 26.2815 5.17626 26.3682 5.11968 26.4475C4.96879 26.6587 4.72736 26.6455 4.58968 26.4229C4.51989 26.3079 4.47463 26.1872 4.48218 26.0495C4.48784 25.9684 4.48218 25.8854 4.48218 25.8043H4.49915Z" fill="#687FB3"/>
<path d="M13.9482 9.29203C14.1519 9.05627 14.3405 8.8356 14.531 8.61493C14.8215 8.2792 15.1138 7.94159 15.4043 7.60587C15.442 7.56249 15.4684 7.53231 15.4099 7.47573C14.4782 6.54023 13.5295 5.61982 12.4978 4.79183C12.1432 4.50703 11.7698 4.24486 11.4359 3.93177C11.2775 3.78277 11.1247 3.63 11.0116 3.44139C10.9738 3.38103 10.9399 3.31691 10.9286 3.24712C10.8946 3.05285 11.0285 2.90573 11.2436 2.8963C11.4322 2.88876 11.5981 2.96044 11.7566 3.04908C12.1262 3.25844 12.4507 3.5338 12.7864 3.78843C13.5597 4.375 14.2651 5.0389 14.9742 5.69715C15.1082 5.81974 15.244 5.94046 15.3741 6.06682C15.4137 6.10455 15.4401 6.10643 15.4797 6.06682C15.5589 5.9895 15.64 5.91593 15.7249 5.84426C15.7739 5.80277 15.7664 5.77448 15.7249 5.73298C15.376 5.39349 15.0195 5.05965 14.6574 4.73147C13.9972 4.13358 13.2918 3.59039 12.6072 3.02267C12.4129 2.86047 12.23 2.68695 12.0866 2.47382C12.0621 2.43799 12.0395 2.40215 12.0225 2.36254C11.9716 2.25315 11.9376 2.13999 12.0225 2.03248C12.1149 1.91743 12.2394 1.87971 12.3828 1.90423C12.7543 1.96647 13.0504 2.17959 13.3409 2.39649C14.15 3.00381 14.9177 3.66206 15.6589 4.3486C15.9248 4.59567 16.1889 4.84464 16.451 5.09737C16.4982 5.14264 16.5265 5.14452 16.5736 5.10114C16.6472 5.03324 16.7245 4.97289 16.8037 4.91065C16.8584 4.86916 16.8735 4.83709 16.8132 4.78051C16.4265 4.41838 16.0455 4.04871 15.6589 3.68658C15.0233 3.08869 14.3311 2.55681 13.6502 2.0155C13.4823 1.88348 13.322 1.74202 13.1919 1.57038C13.1579 1.52512 13.1259 1.47797 13.0995 1.42705C12.9825 1.19317 13.0995 0.978155 13.3597 0.942319C13.4937 0.923458 13.6219 0.949863 13.7445 1.00079C14.067 1.13281 14.3462 1.3384 14.6159 1.55153C15.6495 2.3682 16.6453 3.23014 17.5752 4.16564C17.6374 4.22789 17.677 4.22977 17.7411 4.17319C17.8147 4.10718 17.8977 4.04871 17.9788 3.99401C18.0316 3.95817 18.0335 3.93366 17.9863 3.89028C17.5789 3.50174 17.1772 3.10943 16.7604 2.73222C16.104 2.13998 15.4231 1.57982 14.7366 1.02531C14.5763 0.895167 14.4235 0.755593 14.3028 0.585845C14.2198 0.467022 14.15 0.334996 14.2406 0.191653C14.3367 0.0388802 14.4839 -0.0139303 14.663 0.0030445C14.8535 0.0200193 15.0157 0.104893 15.1742 0.202969C15.591 0.461364 15.9607 0.778229 16.336 1.08943C17.3658 1.9476 18.339 2.86424 19.267 3.82992C21.0776 5.71978 22.6657 7.78128 24.035 10.0125C25.6457 12.6361 26.9151 15.4162 27.8317 18.3547C27.8845 18.5207 27.8845 18.5226 27.7317 18.5942C26.2021 19.3166 24.6235 19.9051 22.9996 20.3747C22.9109 20.4011 22.8845 20.3785 22.8581 20.2936C22.0942 17.7813 21.0682 15.3841 19.7027 13.1378C18.8841 11.793 17.9807 10.5048 17.0112 9.26374C16.966 9.20527 16.9282 9.19396 16.8603 9.21659C16.3266 9.38445 15.7815 9.46555 15.2213 9.42972C14.8007 9.40143 14.3801 9.36748 13.9425 9.29203H13.9482Z" fill="#079CDA"/>
<path d="M12.8638 15.0933C12.843 15.2743 12.8751 15.4252 12.8864 15.5742C12.9355 16.1551 12.9769 16.7379 12.9864 17.3207C12.9939 17.8187 13.0562 18.3147 13.0467 18.8126C13.0373 19.3992 13.0033 19.9839 12.9128 20.5648C12.8657 20.8666 12.8525 21.174 12.7959 21.4739C12.7864 21.5229 12.7751 21.572 12.7544 21.6172C12.7261 21.6757 12.6846 21.7285 12.611 21.7285C12.5356 21.7285 12.5017 21.67 12.4752 21.6097C12.4319 21.5097 12.4281 21.4022 12.413 21.2985C12.33 20.7213 12.3187 20.1367 12.2621 19.5576C12.2301 19.2294 12.1886 18.9013 12.1357 18.5769C12.0735 18.1959 12.0452 17.8092 11.966 17.4301C11.9509 17.3566 11.9339 17.2849 11.9113 17.2151C11.8868 17.1415 11.8377 17.0944 11.7548 17.0944C11.6699 17.0944 11.6265 17.1529 11.6076 17.2245C11.5265 17.5206 11.4492 17.8168 11.3719 18.1148C11.2323 18.6542 11.1342 19.203 11.0777 19.7575C11.0456 20.0725 11.0362 20.3875 11.0079 20.7025C10.9928 20.8647 10.9852 21.0288 10.9475 21.1872C10.9419 21.2117 10.9343 21.2344 10.9249 21.257C10.9022 21.3136 10.8796 21.3777 10.8061 21.3758C10.7325 21.3758 10.7099 21.3098 10.691 21.2513C10.6005 20.9873 10.5854 20.71 10.5741 20.4328C10.5628 20.1631 10.5307 19.8952 10.5099 19.6255C10.4666 19.0786 10.4552 18.5316 10.493 17.9846C10.5231 17.5376 10.5778 17.0944 10.608 16.6474C10.6401 16.1872 10.7627 15.7421 10.8702 15.2932C10.9041 15.1517 10.9362 15.0103 10.9456 14.865C10.9456 14.8349 10.9645 14.7952 10.9287 14.7783C10.889 14.7594 10.8626 14.7971 10.84 14.8217C10.6646 15.0329 10.5118 15.2592 10.3873 15.5063C10.2176 15.8458 10.0309 16.1796 9.92148 16.5474C9.9045 16.604 9.87432 16.6587 9.84792 16.7115C9.82906 16.7492 9.81209 16.7964 9.75739 16.7851C9.69703 16.7719 9.68383 16.7191 9.6876 16.6681C9.69515 16.555 9.70458 16.4418 9.72533 16.3286C9.84227 15.6855 10.0403 15.0687 10.31 14.4746C10.4062 14.2634 10.525 14.0653 10.691 13.9012C10.9419 13.6542 11.1776 13.392 11.5001 13.2317C11.8547 13.0544 12.2546 13.1147 12.5431 13.3826C12.7789 13.6014 12.9072 13.8862 13.0694 14.154C13.4579 14.7915 13.6465 15.5101 13.9124 16.1966C14.0482 16.5455 14.1916 16.8926 14.3613 17.2264C14.4311 17.3622 14.5292 17.4697 14.6348 17.5772C14.8536 17.8055 15.129 17.7922 15.4006 17.7432C15.6061 17.7055 15.7231 17.5282 15.8287 17.3641C16.0249 17.0604 16.1701 16.7304 16.2569 16.3814C16.3738 15.908 16.5605 15.4686 16.7925 15.0423C16.9321 14.7877 17.032 14.5067 17.2225 14.286C17.5111 13.9522 17.9826 13.7975 18.3579 14.0748C18.4485 14.1408 18.5145 14.2275 18.5786 14.32C18.9615 14.8707 19.1765 15.4837 19.2802 16.1419C19.3274 16.4361 19.3953 16.7266 19.4161 17.0227C19.4198 17.0812 19.4575 17.168 19.3764 17.1925C19.3067 17.2132 19.2614 17.1378 19.2388 17.0812C19.1539 16.8756 19.0784 16.6663 19.0011 16.4569C18.8747 16.1099 18.7503 15.7609 18.6239 15.4139C18.6013 15.3535 18.5805 15.2932 18.5541 15.2347C18.5315 15.1857 18.5239 15.0989 18.4655 15.1027C18.39 15.1065 18.3881 15.197 18.3768 15.2555C18.2863 15.7402 18.2693 16.2306 18.4353 16.6983C18.6145 17.2057 18.6843 17.7319 18.7691 18.2562C18.854 18.7749 18.9219 19.2973 18.9747 19.8198C19.0256 20.3271 19.0011 20.8364 19.0011 21.3456C19.0011 21.3947 18.9841 21.4399 18.9276 21.4475C18.8634 21.455 18.8106 21.423 18.7899 21.3683C18.7559 21.2796 18.7276 21.1872 18.7069 21.0929C18.605 20.6459 18.5579 20.1895 18.4768 19.7387C18.4391 19.5293 18.39 19.3219 18.3165 19.1201C18.2938 19.0616 18.2636 19.0276 18.1976 19.0182C18.0166 18.9918 17.8374 18.9899 17.6582 19.0333C17.6092 19.0446 17.5771 19.0729 17.5564 19.1276C17.4507 19.4124 17.413 19.7104 17.3734 20.0084C17.3036 20.5214 17.3187 21.042 17.2056 21.5512C17.1886 21.6229 17.1584 21.67 17.0867 21.6795C17.0113 21.6908 16.9773 21.6323 16.9528 21.5795C16.8887 21.4362 16.8887 21.2815 16.8868 21.1287C16.8774 20.5139 16.883 19.8971 16.9094 19.2823C16.9321 18.7787 16.9566 18.2751 17.0339 17.7753C17.0754 17.4999 17.1377 17.2264 17.2301 16.9661C17.3847 16.5267 17.4262 16.0759 17.4168 15.6157C17.413 15.4837 17.3942 15.3554 17.3395 15.2328C17.3187 15.1857 17.3149 15.1121 17.2546 15.1102C17.1961 15.1102 17.1848 15.1819 17.1603 15.2272C16.7133 16.0797 16.3323 16.9605 16.0324 17.8771C15.9475 18.1393 15.8042 18.3901 15.8268 18.6768C15.8608 19.1012 15.8759 19.5293 15.9174 19.9537C15.9664 20.4441 16.0381 20.9364 15.9098 21.4267C15.8985 21.4682 15.8872 21.5078 15.8721 21.5493C15.8532 21.6021 15.8212 21.6455 15.757 21.6436C15.6986 21.6417 15.6703 21.5965 15.6571 21.5474C15.6118 21.3758 15.5665 21.2042 15.5269 21.0307C15.4609 20.7402 15.4006 20.4479 15.3383 20.1574C15.31 20.0291 15.2553 19.9066 15.1176 19.8839C14.9762 19.8613 14.897 19.9744 14.8347 20.0876C14.731 20.2762 14.7121 20.4912 14.6612 20.6968C14.6028 20.925 14.5613 21.1589 14.5084 21.389C14.4971 21.4399 14.4802 21.4927 14.4575 21.538C14.4273 21.6003 14.3802 21.6531 14.2991 21.6399C14.2161 21.6267 14.1935 21.5606 14.1878 21.4909C14.1803 21.3984 14.1784 21.306 14.1784 21.2136C14.1822 20.6629 14.2614 20.1178 14.3066 19.5689C14.3349 19.2144 14.4104 18.8692 14.4462 18.5165C14.4707 18.2845 14.4123 18.0714 14.318 17.8583C14.1822 17.5527 14.0482 17.2453 13.9106 16.9397C13.6295 16.323 13.2844 15.744 12.926 15.1706C12.9109 15.148 12.8921 15.1272 12.8562 15.0838L12.8638 15.0933Z" fill="#080808"/>
<path d="M1.11532 36.1445H0.183594C0.336367 35.8616 0.319394 35.5542 0.326938 35.2524C0.345799 34.5659 0.342023 33.8793 0.323162 33.1947C0.315618 32.9589 0.319395 32.7175 0.210002 32.4968C0.174166 32.4252 0.242068 32.444 0.272246 32.444C0.502349 32.4365 0.734334 32.4308 0.964437 32.4233C1.31902 32.4101 1.6755 32.3799 2.03008 32.4006C2.24698 32.4138 2.46199 32.4534 2.65249 32.5609C3.06366 32.791 3.12401 33.089 3.11458 33.4908C3.10138 34.0321 2.56007 34.4923 2.0131 34.5225C1.74905 34.5376 1.48877 34.5319 1.23415 34.4565C1.20774 34.4489 1.17946 34.4433 1.15682 34.4131C1.33034 34.3961 1.50197 34.3961 1.66606 34.349C2.28092 34.1717 2.49217 33.6832 2.36958 33.14C2.30356 32.8495 2.07724 32.6779 1.72454 32.6402C1.51895 32.6175 1.31148 32.627 1.10589 32.642C1.04177 32.6458 1.00782 32.6647 0.998385 32.7401C0.960664 33.0513 0.956897 33.3644 0.956897 33.6775C0.956897 34.3433 0.936151 35.0091 0.981417 35.673C0.992734 35.8352 1.01348 35.9955 1.11156 36.1483L1.11532 36.1445Z" fill="#080808"/>
<path d="M24.6028 32.4572C23.5561 33.5888 22.4961 34.696 21.5115 35.8861C21.6153 35.9219 21.7058 35.9087 21.7926 35.9106C22.4357 35.92 23.0808 35.9521 23.7239 35.9031C24.0823 35.8748 24.4199 35.8031 24.716 35.5202C24.6707 35.7333 24.6349 35.9144 24.5953 36.0936C24.5821 36.1539 24.5274 36.1332 24.4878 36.1332C23.7899 36.1369 23.0921 36.1388 22.3942 36.1407C21.8095 36.1426 21.2267 36.1464 20.642 36.1482C20.6081 36.1482 20.5723 36.1614 20.5308 36.1332C21.5832 35.0034 22.662 33.9019 23.6315 32.7042C23.6089 32.6684 23.5862 32.6778 23.5655 32.6778C23.0204 32.6892 22.4772 32.6684 21.9321 32.6948C21.5681 32.7118 21.2079 32.742 20.874 32.9777C20.9061 32.7948 20.9325 32.6382 20.957 32.4836C20.9646 32.4308 21.0004 32.4364 21.0362 32.4383C21.1683 32.4383 21.3003 32.4383 21.4304 32.4383C22.4489 32.4383 23.4674 32.4383 24.484 32.4383C24.518 32.4383 24.5538 32.4289 24.5972 32.4534L24.6028 32.4572Z" fill="#080808"/>
<path d="M2.91302 36.1499C3.21102 35.8368 3.45433 35.5181 3.66746 35.1767C4.14841 34.4053 4.56711 33.6037 4.88775 32.7512C4.91793 32.672 4.93679 32.5927 4.90095 32.5135C4.87455 32.4532 4.91228 32.4456 4.95377 32.4475C5.20651 32.4494 5.45923 32.4551 5.71197 32.4569C5.76855 32.4569 5.76668 32.5022 5.77988 32.538C6.01564 33.1529 6.24951 33.7678 6.51922 34.3694C6.76819 34.924 7.01903 35.4766 7.36419 35.9802C7.39625 36.0273 7.47547 36.0764 7.44717 36.1254C7.42454 36.1669 7.3359 36.1461 7.27554 36.148C7.119 36.1499 6.96244 36.148 6.8059 36.1518C6.74177 36.1537 6.71349 36.131 6.68709 36.0745C6.47773 35.5935 6.26271 35.1163 6.05335 34.6354C6.02317 34.5675 5.99111 34.5411 5.91378 34.5411C5.42906 34.5448 4.94622 34.543 4.46149 34.5411C4.4068 34.5411 4.35965 34.5411 4.32948 34.6033C4.1767 34.9277 4.00318 35.2427 3.86927 35.5765C3.80514 35.735 3.75799 35.8991 3.7825 36.0745C3.78816 36.116 3.78817 36.1499 3.72781 36.1499C3.46565 36.148 3.20348 36.1499 2.91113 36.1499H2.91302ZM5.90435 34.3223C5.68557 33.83 5.46867 33.3453 5.24234 32.8379C4.98394 33.3434 4.73686 33.8281 4.48601 34.3223H5.90435Z" fill="#080808"/>
<path d="M20.0556 36.1347C19.8029 36.1611 19.569 36.1479 19.3351 36.1517C19.2804 36.1517 19.2785 36.1045 19.2634 36.0725C19.0541 35.6009 18.8447 35.1294 18.641 34.6579C18.6052 34.5749 18.5656 34.541 18.4694 34.5428C17.9884 34.5485 17.5075 34.5466 17.0284 34.5447C16.9756 34.5447 16.9341 34.5504 16.9077 34.607C16.7606 34.9257 16.589 35.2313 16.4551 35.5557C16.3853 35.7254 16.3325 35.897 16.357 36.0838C16.3607 36.1196 16.3664 36.1536 16.3079 36.1536C16.0458 36.1536 15.7836 36.1536 15.5063 36.1536C15.5554 36.063 15.6252 36.0083 15.6799 35.9442C16.1552 35.3897 16.5135 34.7616 16.8474 34.1166C17.0775 33.6696 17.3038 33.2188 17.4698 32.7435C17.4962 32.6662 17.5113 32.5907 17.4792 32.5153C17.4585 32.4644 17.4754 32.4512 17.5207 32.4512C17.7772 32.4531 18.0337 32.4568 18.2902 32.4606C18.3506 32.4606 18.3487 32.5153 18.3638 32.5511C18.5995 33.1773 18.8391 33.8016 19.1125 34.4108C19.3559 34.9559 19.6048 35.4972 19.9481 35.9895C19.9783 36.0328 20.0103 36.0762 20.0556 36.1366V36.1347ZM17.8187 32.8378C17.5603 33.3452 17.3132 33.8299 17.0624 34.3222H18.4788C18.2582 33.828 18.0431 33.3433 17.8187 32.8378Z" fill="#080808"/>
<path d="M29.7686 36.1346C29.5139 36.161 29.2801 36.1459 29.0462 36.1497C28.9915 36.1497 28.9915 36.1006 28.9764 36.0686C28.7633 35.5914 28.5483 35.1123 28.3408 34.6332C28.3106 34.5635 28.2767 34.5408 28.2012 34.5408C27.7165 34.5446 27.2337 34.5427 26.749 34.5408C26.7018 34.5408 26.6546 34.5352 26.6301 34.588C26.4604 34.9614 26.2472 35.316 26.1152 35.7064C26.0756 35.8252 26.0586 35.9478 26.0737 36.0742C26.0775 36.1138 26.0832 36.1516 26.0209 36.1516C25.7587 36.1497 25.4947 36.1516 25.208 36.1516C25.2835 36.0667 25.3438 36.0007 25.4023 35.9328C25.8738 35.3858 26.2303 34.7634 26.5603 34.1259C26.7754 33.7128 26.979 33.2941 27.145 32.8565C27.1884 32.7415 27.2412 32.6265 27.1941 32.4963C27.1695 32.4303 27.2393 32.4473 27.2676 32.4473C27.4487 32.4473 27.6297 32.451 27.8127 32.4529C27.8598 32.4529 27.907 32.4605 27.9504 32.4529C28.0258 32.4416 28.0541 32.4774 28.0786 32.5435C28.305 33.1583 28.5445 33.7675 28.8123 34.3654C29.0613 34.9218 29.314 35.4782 29.6648 35.9818C29.695 36.0252 29.7271 36.0686 29.7742 36.1327L29.7686 36.1346ZM27.5298 32.8396C27.2714 33.3469 27.0243 33.8298 26.7753 34.322H28.1899C27.9711 33.8298 27.7561 33.3469 27.5298 32.8396Z" fill="#080808"/>
<path d="M8.14111 35.3783C8.25994 35.5103 8.36745 35.6197 8.49759 35.7008C8.89932 35.9498 9.33312 36.0064 9.78955 35.9008C9.91592 35.8706 10.0272 35.8083 10.1253 35.7197C10.4195 35.4537 10.412 35.0313 10.1102 34.7747C9.95742 34.6446 9.77825 34.5579 9.59907 34.4711C9.29918 34.3277 8.99362 34.1919 8.72957 33.9864C8.55417 33.8506 8.38254 33.7035 8.32596 33.479C8.25051 33.1829 8.37499 32.8755 8.66922 32.668C8.94081 32.4756 9.25202 32.3964 9.57831 32.3775C9.96873 32.3549 10.361 32.3907 10.7515 32.3964C10.8118 32.3964 10.842 32.4115 10.8401 32.4813C10.8363 32.6416 10.8401 32.8 10.8401 32.9603C10.8288 32.9622 10.8194 32.9679 10.8175 32.9641C10.3667 32.5473 9.84803 32.5586 9.31238 32.7359C9.06341 32.8189 8.95402 33.0018 8.96157 33.2263C8.96534 33.3489 9.02757 33.4413 9.10679 33.5243C9.32369 33.7506 9.60095 33.8808 9.88009 34.0052C10.1309 34.1165 10.3799 34.2278 10.6006 34.3938C10.759 34.5126 10.9118 34.6427 10.9702 34.837C11.0608 35.1331 11.0193 35.4123 10.8062 35.6518C10.4799 36.0196 10.0555 36.1799 9.57831 36.2101C9.11433 36.2402 8.66733 36.1478 8.22599 36.0196C8.16563 36.0026 8.14112 35.9762 8.143 35.9083C8.14866 35.7385 8.14489 35.5688 8.14489 35.3745L8.14111 35.3783Z" fill="#080808"/>
<path d="M15.7323 32.4438C15.5852 32.6192 15.4154 32.7004 15.208 32.7192C14.8817 32.7494 14.5535 32.7381 14.2272 32.74C14.1442 32.74 14.1197 32.7626 14.114 32.8456C14.0876 33.3643 14.0839 33.8848 14.0876 34.4035C14.0895 34.8618 14.0763 35.322 14.1272 35.7784C14.1423 35.9048 14.1706 36.0274 14.2423 36.1462H13.3219C13.4898 35.7898 13.4558 35.4088 13.4652 35.0372C13.4803 34.3827 13.4728 33.7283 13.4483 33.0738C13.4464 33.0172 13.4426 32.9606 13.4369 32.904C13.4218 32.755 13.42 32.7532 13.2653 32.755C12.956 32.7588 12.6467 32.74 12.3373 32.7796C12.2242 32.7947 12.1223 32.8437 11.9922 32.8776C12.0469 32.7286 12.0903 32.5966 12.1431 32.4665C12.1619 32.4193 12.2129 32.442 12.2487 32.442C13.2389 32.442 14.2272 32.442 15.2174 32.442C15.3834 32.442 15.5494 32.442 15.7323 32.442V32.4438Z" fill="#080808"/>
<path d="M24.2164 30.3995C23.1583 30.3995 22.1021 30.3995 21.0459 30.3995C20.4008 30.3995 19.7577 30.3939 19.1126 30.3976C19.0164 30.3976 18.9919 30.3656 19.0089 30.2807C19.0127 30.2637 19.0145 30.2449 19.0127 30.2279C18.9995 30.1468 19.0334 30.1279 19.1126 30.1279C19.7595 30.1336 20.4084 30.1336 21.0553 30.1336C21.8022 30.1336 22.551 30.1336 23.2978 30.1336C25.2594 30.1374 27.2209 30.1449 29.1824 30.1506C29.2258 30.1506 29.2692 30.1581 29.3107 30.1543C29.4144 30.1449 29.4371 30.1883 29.4389 30.2882C29.4427 30.4014 29.4031 30.4203 29.2994 30.4184C27.6057 30.4146 25.9101 30.4165 24.2164 30.4165C24.2164 30.4108 24.2164 30.4052 24.2164 30.3995Z" fill="#0D0D0D"/>
<path d="M4.8477 30.3932C3.33128 30.3932 1.81486 30.3932 0.298442 30.3932C0.221113 30.3932 0.185283 30.3781 0.198486 30.2952C0.204144 30.2612 0.202258 30.2235 0.198486 30.1877C0.192827 30.133 0.217344 30.1179 0.266382 30.1235C0.283357 30.1254 0.302223 30.1235 0.319198 30.1235C3.33505 30.1235 6.34902 30.1235 9.36487 30.1235C9.40637 30.1235 9.47427 30.0952 9.48747 30.1499C9.50445 30.2159 9.4969 30.2933 9.4837 30.3612C9.47615 30.3989 9.42145 30.38 9.38751 30.38C8.50859 30.38 7.62967 30.3819 6.75076 30.3819C6.11703 30.3819 5.4833 30.3819 4.84958 30.3819C4.84958 30.3838 4.84958 30.3857 4.84958 30.3895L4.8477 30.3932Z" fill="#0D0D0D"/>
<path d="M13.7387 30.9765C13.6029 30.9709 13.4897 30.9633 13.3766 30.9595C13.3275 30.9595 13.3105 30.9331 13.2955 30.8916C13.2276 30.7125 13.154 30.5352 13.0899 30.3541C13.0672 30.2937 13.0389 30.2711 12.9748 30.2749C12.8352 30.2805 12.6976 30.2768 12.558 30.2749C12.5146 30.2749 12.4844 30.2843 12.4675 30.3277C12.4146 30.4673 12.3392 30.5974 12.3034 30.7445C12.2958 30.7747 12.2864 30.8068 12.2845 30.8388C12.277 30.9746 12.2788 30.9746 12.1355 30.9746C12.0337 30.9746 11.9318 30.9746 11.813 30.9746C12.1751 30.554 12.375 30.0655 12.5712 29.5733C12.6033 29.494 12.6523 29.4129 12.607 29.3186C12.5863 29.2771 12.6221 29.2715 12.6523 29.2715C12.7598 29.2715 12.8654 29.2771 12.9729 29.2753C13.0314 29.2753 13.0314 29.3186 13.0427 29.3526C13.1332 29.6072 13.2162 29.8637 13.3124 30.1165C13.4237 30.4088 13.535 30.7011 13.7368 30.9765H13.7387ZM12.7919 29.6091C12.7202 29.7694 12.6617 29.9014 12.6014 30.0335C12.5844 30.0712 12.5825 30.0938 12.6353 30.0919C12.7315 30.0919 12.8277 30.0919 12.922 30.0919C12.971 30.0919 12.9729 30.0693 12.9578 30.0316C12.905 29.8996 12.8541 29.7675 12.7919 29.611V29.6091Z" fill="#0D0D0D"/>
<path d="M18.4467 30.5612C18.4278 30.6725 18.4071 30.7837 18.3901 30.895C18.3826 30.9365 18.3618 30.9572 18.3203 30.961C18.2845 30.9648 18.2506 30.9723 18.2147 30.9723C17.9167 30.9723 17.6168 30.9723 17.3188 30.9723C17.2886 30.9723 17.2585 30.9686 17.2075 30.9667C17.332 30.8403 17.315 30.6951 17.315 30.5555C17.3169 30.2254 17.315 29.8935 17.3132 29.5634C17.3132 29.4597 17.2924 29.3597 17.1943 29.2654C17.2792 29.2654 17.3415 29.2654 17.4018 29.2654C17.6621 29.2654 17.9205 29.2635 18.1808 29.2598C18.2581 29.2598 18.2939 29.2824 18.2939 29.3692C18.2939 29.4955 18.3203 29.62 18.3147 29.752C18.2675 29.7087 18.2562 29.6464 18.2336 29.5917C18.2072 29.5295 18.1638 29.4918 18.1015 29.4786C17.9714 29.454 17.8394 29.4559 17.7092 29.4522C17.6659 29.4522 17.6564 29.4767 17.6545 29.5125C17.6508 29.6502 17.647 29.7898 17.6413 29.9274C17.6395 29.9953 17.6809 29.9878 17.7262 29.9859C17.9318 29.9765 18.1374 29.9878 18.3656 29.9425C18.2656 30.084 18.1487 30.1481 18.0091 30.167C17.9148 30.1802 17.8186 30.1858 17.7224 30.1877C17.6659 30.1877 17.6376 30.1972 17.6413 30.2632C17.6489 30.4159 17.6508 30.5687 17.6545 30.7215C17.6545 30.7649 17.6677 30.7875 17.7168 30.7856C17.8337 30.78 17.9507 30.7818 18.0676 30.7724C18.2223 30.7592 18.3392 30.68 18.4222 30.5442C18.4316 30.5498 18.4392 30.5555 18.4486 30.5612H18.4467Z" fill="#0D0D0D"/>
<path d="M18.3544 13.1053C18.3544 13.4259 18.1167 13.6655 17.8168 13.6466C17.7961 13.6466 17.7754 13.6428 17.7546 13.6372C17.4547 13.5542 17.1944 13.1789 17.2529 12.8752C17.317 12.5489 17.7018 12.2415 18.0752 12.5169C18.277 12.664 18.3563 12.8639 18.3544 13.1072V13.1053Z" fill="#080808"/>
<path d="M11.4888 12.2972C11.5095 11.8955 11.6378 11.6786 11.9226 11.5692C12.0112 11.5352 12.1036 11.5371 12.1942 11.5654C12.5714 11.6805 12.7223 12.1105 12.4978 12.433C12.4695 12.4745 12.4394 12.5141 12.4092 12.5537C12.2489 12.7574 12.0225 12.8366 11.8283 12.7593C11.6095 12.6707 11.4793 12.4481 11.4907 12.2991L11.4888 12.2972Z" fill="#080808"/>
<path d="M16.2496 30.9704H15.6743C15.8082 30.8441 15.7856 30.6894 15.7875 30.5442C15.7931 30.2179 15.7875 29.8897 15.7837 29.5634C15.7837 29.4635 15.7762 29.3616 15.6913 29.2975C15.6951 29.2711 15.7083 29.2692 15.7234 29.2692C15.961 29.2654 16.1986 29.2598 16.4382 29.2598C16.7588 29.2598 16.9474 29.4446 16.9399 29.7464C16.9305 30.0651 16.6985 30.2839 16.3892 30.2651C16.3194 30.2613 16.2458 30.2651 16.1779 30.2386C16.1383 30.2236 16.1175 30.2311 16.1194 30.2783C16.1232 30.4348 16.1213 30.5913 16.1289 30.7479C16.1326 30.8252 16.1534 30.9026 16.2496 30.9704ZM16.1251 29.7898C16.1251 29.7898 16.1213 29.7898 16.1194 29.7898C16.1194 29.8822 16.1232 29.9746 16.1194 30.067C16.1157 30.1217 16.1326 30.1311 16.1855 30.1292C16.4665 30.1255 16.623 29.9331 16.574 29.6445C16.5551 29.5333 16.4891 29.4635 16.3797 29.4503C16.3194 29.4427 16.259 29.4484 16.1987 29.4446C16.1421 29.4408 16.1232 29.4672 16.1251 29.5219C16.1289 29.6106 16.1251 29.6992 16.1251 29.7879V29.7898Z" fill="#0D0D0D"/>
<path d="M11.5812 29.8127C11.5416 29.7919 11.5359 29.7617 11.5265 29.7372C11.4473 29.5411 11.3134 29.4392 11.0927 29.4505C10.8645 29.4637 10.6947 29.5599 10.6098 29.7731C10.5325 29.9673 10.5306 30.1729 10.6061 30.3672C10.757 30.7538 11.2813 30.8632 11.5944 30.5765C11.6396 30.535 11.6811 30.4935 11.7264 30.4502C11.6811 30.7878 11.4473 30.9953 11.1115 30.999C10.6117 31.0066 10.3062 30.784 10.2194 30.3144C10.1044 29.6863 10.5231 29.2959 11.0078 29.2582C11.1908 29.245 11.3699 29.2657 11.551 29.277C11.5963 29.2808 11.6114 29.2902 11.6076 29.3393C11.5963 29.4939 11.5906 29.6505 11.5812 29.8127Z" fill="#0D0D0D"/>
<path d="M15.3895 30.4612C15.3631 30.7309 15.1782 30.9459 14.8972 30.9874C14.4653 31.0496 14.0654 30.9327 13.9127 30.4083C13.7297 29.7897 14.1201 29.288 14.701 29.2541C14.8802 29.2427 15.0556 29.2654 15.2329 29.2767C15.2688 29.2786 15.282 29.2899 15.2782 29.3276C15.2688 29.4823 15.2612 29.6388 15.2537 29.7973C15.2084 29.7973 15.2084 29.7558 15.1971 29.7312C15.0839 29.4955 14.9802 29.4351 14.718 29.4502C14.5105 29.4634 14.3238 29.6105 14.2635 29.8123C14.2182 29.9651 14.2144 30.1235 14.2484 30.2763C14.354 30.7309 14.9293 30.8912 15.2744 30.5668C15.3121 30.5309 15.3404 30.4838 15.3914 30.4593L15.3895 30.4612Z" fill="#0D0D0D"/>
<path d="M14.7006 16.9005C14.6874 16.7855 14.7044 16.6799 14.7534 16.5761C14.8251 16.4271 14.9326 16.3253 15.1042 16.3272C15.2777 16.3272 15.4098 16.4083 15.4946 16.561C15.6116 16.7723 15.5663 17.1552 15.4022 17.3325C15.2061 17.5437 14.8553 17.4777 14.7478 17.208C14.7063 17.108 14.7006 17.0024 14.7006 16.9005Z" fill="#080808"/>
<path d="M12.577 39.4844C12.6279 39.3052 12.6788 39.1261 12.7298 38.9469C12.7335 38.9337 12.7354 38.9186 12.7392 38.9054C12.7845 38.7394 12.8448 38.7055 13.0165 38.7394C13.0542 38.747 13.0598 38.7658 13.0598 38.7979C13.0598 39.111 13.0579 39.4241 13.0598 39.7371C13.0598 39.8183 13.0089 39.7956 12.9674 39.7994C12.9184 39.8032 12.8807 39.8032 12.8825 39.7315C12.8882 39.5278 12.8844 39.326 12.8825 39.1223C12.8825 39.0902 12.8976 39.0525 12.8656 39.0223C12.826 39.0412 12.8297 39.0827 12.8203 39.1129C12.7599 39.309 12.7034 39.507 12.6449 39.7051C12.6298 39.7522 12.6166 39.7994 12.5487 39.8013C12.4789 39.8013 12.4714 39.7504 12.4563 39.7032C12.3978 39.4976 12.3412 39.2939 12.2847 39.0883C12.279 39.0657 12.2677 39.045 12.2564 39.0148C12.2186 39.0468 12.23 39.0808 12.23 39.1091C12.23 39.3128 12.2243 39.5146 12.23 39.7183C12.2318 39.7956 12.1998 39.8032 12.1375 39.8032C12.0772 39.8032 12.0508 39.7956 12.0508 39.724C12.0546 39.4222 12.0546 39.1185 12.0508 38.8167C12.0508 38.7621 12.064 38.7451 12.1206 38.7432C12.3337 38.7356 12.3337 38.7338 12.3903 38.945C12.4393 39.1261 12.4902 39.3071 12.5412 39.4863C12.5506 39.4863 12.56 39.4863 12.5695 39.4882L12.577 39.4844Z" fill="#0D0D0D"/>
<path d="M9.39129 39.5147C9.39129 39.2845 9.39507 39.0545 9.38941 38.8243C9.38752 38.747 9.41958 38.7376 9.48371 38.7395C9.54407 38.7395 9.57236 38.7489 9.57048 38.8206C9.5667 39.1223 9.5667 39.426 9.57048 39.7278C9.57048 39.7844 9.5535 39.7957 9.4988 39.8013C9.38375 39.8145 9.31963 39.7806 9.28002 39.6637C9.2159 39.4769 9.13291 39.2959 9.05558 39.111C9.04237 39.0809 9.02728 39.0507 8.98956 39.0262C8.98956 39.2525 8.98578 39.4769 8.98956 39.7033C8.98956 39.7749 8.97447 39.8013 8.89714 39.7995C8.82358 39.7995 8.81038 39.7749 8.81038 39.7089C8.81415 39.4204 8.81038 39.1318 8.81415 38.8451C8.81415 38.8111 8.7802 38.7395 8.8481 38.7451C8.92166 38.7489 9.02162 38.6848 9.06877 38.8055C9.15364 39.0186 9.24418 39.2317 9.33283 39.4449C9.34414 39.4694 9.35546 39.4939 9.36677 39.5184C9.37432 39.5184 9.38186 39.5165 9.38941 39.5147H9.39129Z" fill="#0D0D0D"/>
<path d="M16.2928 37.519C16.2928 37.668 16.2872 37.817 16.2947 37.966C16.2985 38.0452 16.257 38.0433 16.2042 38.0395C16.1551 38.0357 16.0948 38.0603 16.1005 37.9678C16.1061 37.8584 16.1005 37.7472 16.1023 37.6378C16.1023 37.5869 16.091 37.5736 16.0382 37.5699C15.7911 37.5604 15.7911 37.5586 15.7911 37.8075C15.7911 37.8471 15.7855 37.8867 15.7911 37.9245C15.8043 38.0169 15.7742 38.0489 15.6761 38.0433C15.6063 38.0395 15.595 38.0169 15.5969 37.9565C15.5988 37.6585 15.6006 37.3586 15.5969 37.0606C15.5969 36.9871 15.6214 36.9701 15.6874 36.9739C15.7459 36.9776 15.8006 36.9663 15.793 37.0587C15.7855 37.1549 15.793 37.2511 15.7911 37.3473C15.7911 37.3982 15.8062 37.4133 15.8571 37.4152C16.1005 37.4303 16.1005 37.4322 16.1005 37.1851C16.1005 37.153 16.1042 37.121 16.1005 37.0889C16.0835 36.9927 16.125 36.9663 16.2174 36.9739C16.2759 36.9776 16.2966 36.989 16.2947 37.0512C16.291 37.2077 16.2947 37.3643 16.2947 37.5208L16.2928 37.519Z" fill="#0D0D0D"/>
<path d="M11.583 37.5121C11.583 37.3556 11.583 37.1991 11.583 37.0425C11.583 36.9935 11.5924 36.9746 11.6471 36.9746C11.7754 36.9746 11.9036 36.9803 12.03 37.001C12.1564 37.0218 12.2469 37.1029 12.3035 37.2179C12.3714 37.3613 12.3789 37.5121 12.3412 37.663C12.2771 37.9158 12.1356 38.0195 11.8565 38.0384C11.6754 38.0509 11.5849 37.9673 11.5849 37.7875C11.5849 37.6951 11.5849 37.6027 11.5849 37.5103L11.583 37.5121ZM11.7735 37.5103C11.7735 37.6196 11.7735 37.7309 11.7735 37.8403C11.7735 37.8856 11.7848 37.8988 11.8339 37.8969C12.0074 37.8913 12.1111 37.8064 12.1432 37.6347C12.1602 37.5499 12.1583 37.465 12.1432 37.3801C12.1111 37.2141 12.0206 37.1387 11.8546 37.1217C11.7829 37.1142 11.7716 37.1387 11.7754 37.2009C11.7792 37.3047 11.7754 37.4065 11.7754 37.5103H11.7735Z" fill="#0D0D0D"/>
<path d="M6.76426 39.9859C6.64733 40.0123 6.5568 40.0085 6.49455 39.9029C6.46438 39.8501 6.421 39.8199 6.3531 39.8086C6.17203 39.7822 6.05509 39.6728 6.00794 39.4936C5.96267 39.3182 5.96268 39.1428 6.03246 38.9749C6.09659 38.8184 6.24182 38.7241 6.39836 38.7297C6.56811 38.7354 6.71899 38.8391 6.76049 39.007C6.82462 39.2673 6.84725 39.5294 6.6247 39.7388C6.58886 39.7708 6.60395 39.7916 6.6247 39.818C6.66996 39.8708 6.71334 39.9255 6.76426 39.9878V39.9859ZM6.60772 39.2692C6.60772 39.1805 6.60394 39.0919 6.56999 39.007C6.53604 38.9259 6.48135 38.8674 6.38705 38.8674C6.29651 38.8674 6.23993 38.924 6.21164 39.0013C6.14751 39.1767 6.1494 39.3578 6.21164 39.5332C6.23993 39.6105 6.29463 39.6671 6.38516 39.6671C6.47946 39.6671 6.53605 39.6105 6.56811 39.5294C6.60206 39.4464 6.60771 39.3578 6.60583 39.2673L6.60772 39.2692Z" fill="#0D0D0D"/>
<path d="M17.775 37.5098C17.775 37.3608 17.7788 37.2099 17.775 37.0609C17.7731 36.9873 17.7976 36.9704 17.8655 36.9741C17.9712 36.9798 18.0787 36.976 18.1843 36.993C18.2861 37.0081 18.3616 37.0496 18.3936 37.1476C18.4314 37.2589 18.4276 37.3702 18.3257 37.4456C18.2616 37.4928 18.2673 37.5211 18.3031 37.589C18.3597 37.6984 18.3899 37.821 18.4295 37.9379C18.4408 37.97 18.4766 38.0228 18.4125 38.0322C18.3578 38.0398 18.2805 38.085 18.2503 37.9926C18.2201 37.9021 18.1956 37.8097 18.1654 37.7191C18.156 37.689 18.1447 37.6569 18.1277 37.6324C18.0956 37.5852 18.0447 37.5758 17.9957 37.589C17.9485 37.6022 17.9712 37.6493 17.9712 37.6814C17.9674 37.7814 17.9674 37.8813 17.9712 37.9794C17.9749 38.0681 17.9108 38.0398 17.8674 38.0416C17.824 38.0435 17.7731 38.0586 17.7769 37.9794C17.7807 37.8229 17.7769 37.6663 17.7769 37.5098H17.775ZM17.9598 37.2816C18.0032 37.3287 17.8995 37.4362 18.0353 37.44C18.1541 37.4438 18.222 37.3815 18.2201 37.2721C18.2201 37.1684 18.1692 37.1269 18.0447 37.1212C17.8957 37.1156 18.0013 37.2325 17.9598 37.2816Z" fill="#0D0D0D"/>
<path d="M18.0922 39.2619C18.0922 39.1204 18.0978 38.977 18.0903 38.8356C18.0865 38.7507 18.1167 38.73 18.1921 38.7394C18.2845 38.7488 18.377 38.7469 18.4675 38.7564C18.6787 38.779 18.7919 38.879 18.8447 39.0864C18.873 39.194 18.873 39.3052 18.8485 39.4146C18.7976 39.6466 18.6618 39.7598 18.409 39.7937C18.1953 39.8226 18.0884 39.7309 18.0884 39.5184C18.0884 39.4335 18.0884 39.3486 18.0884 39.2619H18.0922ZM18.2845 39.2562C18.2845 39.3373 18.2845 39.4184 18.2845 39.5014C18.2845 39.6636 18.3411 39.6956 18.4939 39.6259C18.5825 39.5844 18.6259 39.5108 18.6486 39.4222C18.6712 39.3316 18.6712 39.2392 18.6542 39.1468C18.6221 38.9752 18.5316 38.8978 18.3581 38.8827C18.3015 38.8771 18.2827 38.8922 18.2827 38.9488C18.2864 39.0506 18.2827 39.1543 18.2827 39.2581L18.2845 39.2562Z" fill="#0D0D0D"/>
<path d="M26.6812 37.4989C26.6812 37.3537 26.683 37.2066 26.6812 37.0614C26.6812 37.001 26.6906 36.9746 26.7623 36.9746C26.883 36.9746 27.0037 36.9822 27.1225 37.001C27.2545 37.0218 27.3469 37.1048 27.4016 37.2255C27.4677 37.365 27.4733 37.5159 27.4375 37.663C27.379 37.9101 27.23 38.0214 26.9527 38.0402C26.7717 38.0528 26.6812 37.9686 26.6812 37.7875C26.6812 37.6913 26.6812 37.5951 26.6812 37.4989ZM26.8716 37.5046C26.8716 37.5819 26.8716 37.6611 26.8716 37.7385C26.8716 37.9044 26.9282 37.9403 27.0829 37.8648C27.1697 37.8233 27.213 37.7479 27.2357 37.6593C27.2583 37.565 27.2583 37.4688 27.2394 37.3745C27.2074 37.2085 27.115 37.1349 26.9471 37.1217C26.8792 37.1161 26.8698 37.1406 26.8716 37.1972C26.8754 37.299 26.8716 37.4028 26.8716 37.5046Z" fill="#0D0D0D"/>
<path d="M0.00255075 39.2716C0.00255075 39.1264 0.00820718 38.9793 0.00066282 38.834C-0.00310936 38.7492 0.0270639 38.7303 0.102507 38.7378C0.191154 38.7473 0.279806 38.7435 0.368452 38.7548C0.596669 38.7812 0.715486 38.8812 0.762639 39.1037C0.792816 39.2433 0.789045 39.3867 0.72869 39.5206C0.643816 39.7111 0.48538 39.7865 0.287341 39.7959C0.226986 39.7978 0.166638 39.7922 0.106283 39.7997C0.0251815 39.8091 -0.00499545 39.7865 0.00066282 39.6979C0.00820718 39.5564 0.00255075 39.4131 0.00255075 39.2716ZM0.194924 39.2659C0.194924 39.3753 0.194924 39.4866 0.194924 39.596C0.194924 39.6243 0.185492 39.6564 0.240188 39.6583C0.40805 39.662 0.526876 39.5734 0.560826 39.4093C0.5778 39.3244 0.57969 39.2414 0.564602 39.1547C0.532538 38.9717 0.440117 38.8925 0.25528 38.8812C0.208128 38.8774 0.193036 38.8887 0.193036 38.9359C0.194922 39.0453 0.193036 39.1566 0.193036 39.2659H0.194924Z" fill="#0D0D0D"/>
<path d="M27.9941 39.2598C27.9941 39.1108 27.996 38.9618 27.9941 38.8128C27.9941 38.7581 28.0073 38.7373 28.0639 38.7373C28.1884 38.7373 28.3129 38.7411 28.4355 38.7599C28.5505 38.7769 28.643 38.8429 28.6958 38.9448C28.8071 39.1617 28.8052 39.3805 28.6807 39.5917C28.592 39.7407 28.443 39.7841 28.2808 39.7935C28.2356 39.7954 28.1884 39.7954 28.1431 39.7954C28.0451 39.7954 27.996 39.7476 27.996 39.6521C27.996 39.52 27.996 39.3899 27.996 39.2579L27.9941 39.2598ZM28.1865 39.2635C28.1865 39.3163 28.1865 39.371 28.1865 39.4238C28.1865 39.4767 28.1865 39.5313 28.1865 39.5842C28.1865 39.62 28.1827 39.6521 28.2374 39.6558C28.3657 39.6634 28.477 39.603 28.5279 39.4823C28.5732 39.3748 28.5788 39.2616 28.5562 39.1485C28.5204 38.9674 28.4336 38.8939 28.2506 38.8806C28.1941 38.8769 28.1846 38.8939 28.1846 38.9448C28.1865 39.0523 28.1846 39.1579 28.1846 39.2654L28.1865 39.2635Z" fill="#0D0D0D"/>
<path d="M18.7485 37.5021C18.7485 37.3531 18.7504 37.2041 18.7485 37.0532C18.7485 36.9948 18.7617 36.9702 18.8259 36.974C18.9353 36.9797 19.0447 36.974 19.1559 36.991C19.2616 37.0061 19.337 37.0476 19.371 37.1513C19.4106 37.2701 19.3936 37.3776 19.2898 37.4568C19.2427 37.4927 19.2333 37.5059 19.2672 37.57C19.3332 37.6964 19.3672 37.8397 19.4162 37.9755C19.4332 38.0227 19.4049 38.0378 19.371 38.0359C19.3181 38.034 19.2465 38.0755 19.2219 37.9831C19.1955 37.885 19.1654 37.7869 19.1333 37.6888C19.1182 37.6455 19.1012 37.6021 19.0484 37.5889C18.9824 37.5719 18.939 37.5757 18.9428 37.6643C18.9485 37.768 18.939 37.8699 18.9447 37.9736C18.9504 38.0604 18.8919 38.0378 18.8466 38.0396C18.7976 38.0396 18.7467 38.0547 18.7504 37.9717C18.7561 37.8152 18.7504 37.6587 18.7504 37.5021H18.7485ZM18.939 37.272C18.939 37.3852 18.9648 37.4418 19.0164 37.4418C19.1314 37.4418 19.1937 37.3814 19.1918 37.2758C19.1918 37.1702 19.1408 37.1287 19.0182 37.123C18.8711 37.1173 18.9673 37.2305 18.9371 37.272H18.939Z" fill="#0D0D0D"/>
<path d="M7.02088 39.1436C7.02088 39.0342 7.02654 38.923 7.02088 38.8136C7.01522 38.7211 7.07557 38.7438 7.12461 38.74C7.17742 38.7381 7.21892 38.7362 7.21515 38.8136C7.20949 39.0116 7.21138 39.2115 7.21515 39.4114C7.21515 39.4567 7.21892 39.5039 7.22835 39.5491C7.24533 39.6321 7.3038 39.6661 7.38302 39.6661C7.46223 39.6661 7.51693 39.6302 7.53579 39.5454C7.55842 39.436 7.54522 39.3266 7.5471 39.2153C7.54899 39.0946 7.5471 38.9739 7.5471 38.8532C7.5471 38.7438 7.59802 38.7098 7.70364 38.74C7.74514 38.7513 7.73759 38.7796 7.73759 38.806C7.73382 39.0399 7.73571 39.2757 7.7244 39.5095C7.71685 39.6925 7.57539 39.8075 7.37735 39.8094C7.17554 39.8094 7.03786 39.683 7.02843 39.485C7.02277 39.3718 7.02843 39.2568 7.02843 39.1436H7.02277H7.02088Z" fill="#0D0D0D"/>
<path d="M14.1899 39.2715C14.1899 39.1188 14.1918 38.966 14.1899 38.8132C14.1899 38.7585 14.2013 38.7359 14.2597 38.7397C14.3767 38.7453 14.4936 38.7397 14.6105 38.7585C14.7067 38.7736 14.7784 38.8189 14.8105 38.9113C14.8444 39.015 14.8482 39.1207 14.7539 39.1942C14.6841 39.2489 14.6822 39.2885 14.7237 39.3677C14.7784 39.4696 14.8048 39.5846 14.8425 39.6959C14.8539 39.7317 14.8953 39.7864 14.8218 39.794C14.769 39.7996 14.6898 39.8468 14.6615 39.7468C14.6351 39.6544 14.6068 39.5639 14.5766 39.4734C14.5672 39.4432 14.554 39.413 14.537 39.3866C14.5068 39.3432 14.4578 39.3376 14.4125 39.347C14.3616 39.3583 14.3861 39.4054 14.3842 39.4356C14.3804 39.5356 14.3786 39.6356 14.3842 39.7355C14.388 39.8355 14.3163 39.7921 14.2729 39.7996C14.2239 39.8072 14.1862 39.8072 14.1881 39.7336C14.1937 39.5809 14.1881 39.4281 14.1881 39.2753L14.1899 39.2715ZM14.4578 38.8811C14.4031 38.8698 14.3767 38.8924 14.3823 38.9603C14.388 39.0169 14.3861 39.0735 14.3823 39.1301C14.3786 39.1886 14.4012 39.2018 14.4559 39.1999C14.5709 39.1961 14.6369 39.1433 14.6388 39.0396C14.6388 38.9358 14.5898 38.8887 14.4597 38.883L14.4578 38.8811Z" fill="#0D0D0D"/>
<path d="M25.0044 37.8161C25.0044 37.852 24.9987 37.8878 25.0044 37.9236C25.0251 38.0368 24.9686 38.0557 24.8743 38.0443C24.8309 38.0406 24.812 38.0311 24.812 37.984C24.812 37.6671 24.812 37.3503 24.812 37.0334C24.812 36.9919 24.829 36.9787 24.8686 36.9787C25.0006 36.9787 25.1326 36.9749 25.2628 37.0013C25.4439 37.0372 25.5249 37.2918 25.3854 37.4219C25.308 37.4936 25.3043 37.537 25.3514 37.6256C25.4042 37.7237 25.4325 37.835 25.4665 37.9425C25.4759 37.9727 25.5155 38.0255 25.4495 38.0349C25.3948 38.0425 25.3175 38.0858 25.2854 37.9953C25.2534 37.9029 25.2288 37.8067 25.1987 37.7124C25.1892 37.6822 25.1779 37.652 25.1591 37.6256C25.1289 37.5822 25.0779 37.5766 25.0346 37.5879C24.9836 37.5992 25.01 37.6464 25.0063 37.6784C25.0025 37.7237 25.0063 37.7709 25.0063 37.818L25.0044 37.8161ZM25.0949 37.1239C25.078 37.1239 25.0591 37.1202 25.0421 37.1239C24.9742 37.139 25.0044 37.1956 25.0082 37.2277C25.0157 37.2993 24.9591 37.3936 25.044 37.4351C25.1006 37.4634 25.1798 37.4408 25.227 37.3804C25.2684 37.3257 25.2703 37.2635 25.2458 37.1994C25.2175 37.1296 25.1572 37.1277 25.0949 37.122V37.1239Z" fill="#0D0D0D"/>
<path d="M5.17632 37.5082C5.17632 37.3592 5.17821 37.2102 5.17632 37.0612C5.17632 36.9989 5.18764 36.9706 5.25742 36.9763C5.36304 36.9838 5.46867 36.9763 5.57617 36.9933C5.68368 37.0084 5.76289 37.048 5.79873 37.1574C5.83834 37.2781 5.81759 37.3837 5.71574 37.461C5.66293 37.5006 5.66482 37.5176 5.695 37.5761C5.75347 37.6911 5.7893 37.8175 5.83079 37.9401C5.84211 37.974 5.87983 38.0306 5.80627 38.0363C5.75157 38.0419 5.67614 38.0853 5.64784 37.9872C5.62144 37.8929 5.59126 37.7986 5.56297 37.7043C5.55165 37.6704 5.54033 37.6364 5.51204 37.6119C5.4762 37.5836 5.43282 37.5742 5.39133 37.5874C5.34983 37.6006 5.37058 37.6421 5.37058 37.6704C5.3687 37.7741 5.36681 37.876 5.37058 37.9797C5.37436 38.0702 5.30834 38.0363 5.26685 38.04C5.22347 38.0438 5.17444 38.0551 5.17632 37.9778C5.18009 37.8213 5.17632 37.6647 5.17632 37.5082ZM5.3687 37.2667C5.3687 37.3824 5.39259 37.4403 5.44037 37.4403C5.55542 37.4403 5.62144 37.3818 5.62332 37.2781C5.62332 37.1687 5.57051 37.1234 5.44226 37.1215C5.30269 37.1196 5.39887 37.2271 5.3687 37.2667Z" fill="#0D0D0D"/>
<path d="M1.91512 37.5059C1.92078 37.604 1.91136 37.6983 1.87741 37.7888C1.81894 37.9416 1.70954 38.0284 1.54545 38.0472C1.38702 38.0642 1.26442 37.9963 1.19087 37.8624C1.06073 37.6304 1.06073 37.3871 1.19087 37.1532C1.26442 37.0193 1.38702 36.9514 1.54545 36.9684C1.70766 36.9854 1.81894 37.0721 1.87741 37.2249C1.91324 37.3154 1.92266 37.4097 1.91701 37.504L1.91512 37.5059ZM1.73029 37.5191C1.73029 37.4267 1.72651 37.3343 1.69256 37.2475C1.6605 37.1664 1.6058 37.1061 1.51338 37.1061C1.42473 37.1061 1.36627 37.1608 1.33798 37.2381C1.27196 37.4173 1.27196 37.6002 1.33798 37.7794C1.36627 37.8586 1.42473 37.9114 1.51338 37.9114C1.6058 37.9114 1.66239 37.8511 1.69445 37.77C1.72651 37.6908 1.73029 37.604 1.73406 37.5191H1.73029Z" fill="#0D0D0D"/>
<path d="M17.4393 37.5073C17.445 37.6035 17.4355 37.6978 17.3997 37.7883C17.3393 37.9449 17.2262 38.0335 17.0583 38.0486C16.8999 38.0637 16.7792 37.992 16.7056 37.8581C16.5792 37.628 16.5792 37.3904 16.7056 37.1603C16.7811 37.0226 16.9037 36.9509 17.0677 36.9698C17.2337 36.9886 17.345 37.0773 17.4035 37.2376C17.4355 37.3262 17.445 37.4149 17.4393 37.5073ZM17.2507 37.5035C17.2526 37.4187 17.2507 37.3319 17.2186 37.2508C17.1866 37.1697 17.1356 37.1075 17.0413 37.1037C16.947 37.0999 16.8848 37.1565 16.8565 37.2395C16.7943 37.4187 16.7924 37.6016 16.8603 37.7808C16.8905 37.86 16.9508 37.9109 17.0376 37.909C17.1243 37.9072 17.179 37.8525 17.2111 37.7732C17.2488 37.6865 17.2526 37.5941 17.2507 37.5017V37.5035Z" fill="#0D0D0D"/>
<path d="M3.04127 37.5158C3.04882 37.6101 3.03561 37.7025 3.00166 37.793C2.94131 37.9439 2.83191 38.0326 2.66971 38.0496C2.51128 38.0665 2.38868 37.9986 2.31512 37.8647C2.18498 37.6327 2.18499 37.3913 2.31325 37.1574C2.3868 37.0235 2.5094 36.9537 2.66594 36.9688C2.83192 36.9858 2.94508 37.0726 3.00544 37.231C3.03939 37.3215 3.04882 37.4158 3.04316 37.5139L3.04127 37.5158ZM2.85266 37.512C2.85266 37.4196 2.85266 37.3272 2.81305 37.2404C2.7791 37.1631 2.7263 37.1084 2.63954 37.1065C2.55089 37.1046 2.49053 37.1574 2.46035 37.2348C2.39246 37.4177 2.39246 37.6026 2.46224 37.7855C2.49053 37.8609 2.54901 37.91 2.632 37.9119C2.72064 37.9119 2.77533 37.8609 2.81116 37.7836C2.85077 37.6969 2.85455 37.6044 2.85455 37.512H2.85266Z" fill="#0D0D0D"/>
<path d="M20.5363 37.5083C20.5438 37.6082 20.5325 37.7006 20.4967 37.7912C20.4363 37.9421 20.3269 38.0307 20.1628 38.0477C20.0044 38.0646 19.8837 37.9967 19.8083 37.8647C19.6762 37.6327 19.6781 37.3913 19.8045 37.1574C19.878 37.0235 19.9988 36.9537 20.1572 36.9688C20.3232 36.9839 20.4382 37.0726 20.4986 37.2291C20.5344 37.3196 20.5438 37.4139 20.5363 37.5083ZM20.3477 37.5083C20.3515 37.4215 20.3477 37.3366 20.3156 37.2555C20.2835 37.1706 20.2289 37.1065 20.1289 37.1065C20.0346 37.1065 19.9761 37.1687 19.9478 37.2498C19.8894 37.4196 19.8912 37.5931 19.9459 37.7629C19.9724 37.8477 20.0327 37.9138 20.1308 37.9138C20.2345 37.9138 20.2892 37.8402 20.3194 37.7516C20.3458 37.6742 20.3515 37.5912 20.3477 37.5101V37.5083Z" fill="#0D0D0D"/>
<path d="M29.9104 37.512C29.918 37.6063 29.9048 37.6968 29.8727 37.7836C29.8142 37.942 29.7011 38.0307 29.5332 38.0476C29.3748 38.0627 29.2541 37.991 29.1805 37.8571C29.0541 37.627 29.056 37.3894 29.1805 37.1593C29.2522 37.0254 29.3748 36.9537 29.5332 36.9688C29.7011 36.9839 29.8161 37.0725 29.8746 37.231C29.9085 37.3215 29.9198 37.4158 29.9123 37.512H29.9104ZM29.7237 37.5195C29.7275 37.4347 29.7218 37.346 29.6954 37.2592C29.6671 37.1725 29.6124 37.1102 29.5143 37.1046C29.4125 37.0989 29.354 37.1631 29.3257 37.2479C29.2673 37.4196 29.2673 37.5968 29.3257 37.7704C29.354 37.8552 29.4144 37.9175 29.5162 37.9118C29.6143 37.9062 29.6671 37.8383 29.6973 37.7553C29.7237 37.6817 29.7275 37.6025 29.7256 37.5195H29.7237Z" fill="#0D0D0D"/>
<path d="M20.957 39.7864C21.0645 39.4601 21.1739 39.1339 21.2814 38.8076C21.3003 38.751 21.3418 38.7397 21.3908 38.7472C21.4418 38.7566 21.5078 38.7283 21.5323 38.8076C21.6285 39.1131 21.7266 39.4168 21.8228 39.7223C21.8322 39.7525 21.8454 39.794 21.7945 39.794C21.7435 39.794 21.6794 39.8317 21.6417 39.7638C21.6379 39.7582 21.6379 39.7506 21.636 39.7431C21.6096 39.6789 21.6228 39.5714 21.5625 39.5545C21.4625 39.5262 21.3512 39.5394 21.2456 39.5469C21.1853 39.5507 21.1966 39.6186 21.1834 39.6582C21.1324 39.8147 21.1343 39.8166 20.9589 39.7864H20.957ZM21.4153 38.9339C21.4153 38.9339 21.4003 38.9339 21.3946 38.9339C21.3531 39.0754 21.3116 39.215 21.2701 39.3564C21.2607 39.3866 21.2796 39.3941 21.3022 39.3941C21.3625 39.3941 21.4229 39.3941 21.4832 39.3941C21.5229 39.3941 21.5323 39.3791 21.5229 39.3432C21.487 39.2074 21.4512 39.0716 21.4153 38.9358V38.9339Z" fill="#0D0D0D"/>
<path d="M9.75732 39.7898C9.86672 39.4598 9.97423 39.1373 10.0798 38.8129C10.1006 38.7525 10.1402 38.7374 10.1949 38.745C10.2496 38.7525 10.3118 38.7317 10.3382 38.8185C10.4269 39.1146 10.5231 39.407 10.6174 39.7012C10.6268 39.7333 10.657 39.7785 10.6061 39.788C10.5533 39.7974 10.4872 39.8276 10.4439 39.7597C10.4401 39.754 10.442 39.7465 10.4382 39.7389C10.4118 39.6748 10.4269 39.5692 10.3628 39.5522C10.2628 39.5258 10.1515 39.5371 10.0459 39.5447C9.9912 39.5484 9.99875 39.6107 9.98743 39.6465C9.93839 39.803 9.94027 39.803 9.75732 39.788V39.7898ZM10.2175 38.9354C10.2175 38.9354 10.2043 38.9355 10.1968 38.9336C10.1553 39.075 10.1138 39.2146 10.0742 39.356C10.0666 39.3843 10.0817 39.3938 10.1062 39.3938C10.1704 39.3938 10.2326 39.3938 10.2967 39.3938C10.3345 39.3938 10.3326 39.3692 10.3269 39.3428C10.2911 39.207 10.2553 39.0712 10.2194 38.9354H10.2175Z" fill="#0D0D0D"/>
<path d="M10.1649 38.0415C10.1121 38.0528 10.0819 38.0264 10.0743 37.9642C10.0687 37.9265 10.0479 37.8906 10.0423 37.851C10.0347 37.7963 10.0064 37.7793 9.95551 37.785C9.92722 37.7888 9.89892 37.785 9.87063 37.785C9.73232 37.785 9.6418 37.8491 9.59905 37.9774C9.58207 38.0283 9.45947 38.0698 9.41609 38.0377C9.39346 38.0208 9.40666 38 9.41231 37.9812C9.51605 37.6718 9.61979 37.3625 9.71975 37.0532C9.73672 36.9985 9.77068 36.974 9.8216 36.9834C9.87819 36.9947 9.94986 36.9646 9.97626 37.057C10.0668 37.3569 10.163 37.653 10.2611 37.951C10.2931 38.0491 10.229 38.0396 10.163 38.0415H10.1649ZM9.97814 37.6322C9.93665 37.4738 9.89705 37.3248 9.85744 37.1777C9.8499 37.1777 9.84235 37.1777 9.83481 37.1777C9.79143 37.3286 9.74805 37.4776 9.70278 37.6341H9.97814V37.6322Z" fill="#0D0D0D"/>
<path d="M23.8427 38.749C23.9314 38.7301 23.9672 38.781 23.9917 38.864C24.0747 39.1432 24.1652 39.4185 24.252 39.6958C24.2614 39.7297 24.301 39.7807 24.2388 39.7882C24.186 39.7958 24.1124 39.841 24.0766 39.7467C24.0502 39.6788 24.0672 39.5807 23.9955 39.5506C23.9351 39.5242 23.854 39.5506 23.7842 39.5411C23.6692 39.5223 23.6315 39.5807 23.6088 39.6788C23.5994 39.7222 23.6164 39.7901 23.5334 39.7976C23.3938 39.8108 23.3863 39.8052 23.4297 39.6732C23.5221 39.394 23.6183 39.1168 23.7069 38.8376C23.7295 38.7697 23.7578 38.7301 23.8389 38.7471L23.8427 38.749ZM23.8559 38.9357C23.8559 38.9357 23.8408 38.9319 23.8333 38.93C23.7937 39.0658 23.7541 39.2016 23.7163 39.3374C23.7107 39.3544 23.6899 39.3865 23.722 39.3884C23.7993 39.394 23.8767 39.3921 23.9559 39.3884C23.9804 39.3884 23.9672 39.3601 23.9634 39.345C23.9276 39.2092 23.8917 39.0715 23.8559 38.9357Z" fill="#0D0D0D"/>
<path d="M6.85453 38.0414C6.80172 38.0527 6.77532 38.0245 6.76778 37.9679C6.76589 37.9471 6.75269 37.9264 6.7508 37.9056C6.74137 37.8038 6.68667 37.7661 6.58671 37.7849C6.57351 37.7868 6.55842 37.7849 6.54334 37.7849C6.41382 37.7849 6.32957 37.8472 6.29059 37.9716C6.27362 38.0263 6.14348 38.0716 6.10387 38.0358C6.08313 38.0169 6.09821 37.998 6.10387 37.9792C6.20572 37.6699 6.30946 37.3624 6.41131 37.0531C6.42828 37.0003 6.46223 36.9739 6.51315 36.9833C6.56973 36.9946 6.64141 36.9645 6.6697 37.0569C6.75646 37.3492 6.85265 37.6378 6.94507 37.9283C6.97714 38.032 6.9677 38.0433 6.85264 38.0414H6.85453ZM6.54899 37.1682C6.54899 37.1682 6.53579 37.1682 6.53013 37.1682C6.48675 37.3209 6.44148 37.4718 6.39621 37.6303H6.67159C6.63009 37.4718 6.59048 37.3191 6.54899 37.1663V37.1682Z" fill="#0D0D0D"/>
<path d="M29.6483 39.7956C29.5879 39.8088 29.5502 39.7899 29.5445 39.7239C29.5426 39.6994 29.5275 39.6768 29.5257 39.6522C29.5162 39.5579 29.4634 39.5278 29.3748 39.5428C29.3616 39.5447 29.3465 39.5428 29.3314 39.5428C29.1969 39.5428 29.1095 39.6057 29.0692 39.7315C29.0523 39.7843 28.9202 39.8276 28.8825 39.7918C28.8618 39.773 28.8787 39.7541 28.8863 39.7352C28.9881 39.4316 29.09 39.126 29.1899 38.8205C29.2088 38.762 29.239 38.7356 29.2974 38.745C29.3597 38.7545 29.4276 38.7318 29.4559 38.8299C29.5389 39.1185 29.6332 39.4052 29.7294 39.6881C29.7595 39.7767 29.7444 39.8107 29.652 39.7956H29.6483ZM29.173 39.3882H29.4464C29.4049 39.2316 29.3653 39.0808 29.3238 38.9318C29.3163 38.9318 29.3088 38.9336 29.3031 38.9355C29.2597 39.0845 29.2163 39.2335 29.173 39.3882Z" fill="#0D0D0D"/>
<path d="M25.1724 39.7895C25.2818 39.4614 25.3893 39.1388 25.4949 38.8163C25.5137 38.7579 25.5496 38.7371 25.6062 38.7447C25.6628 38.7541 25.7288 38.7277 25.7571 38.822C25.8438 39.1162 25.9419 39.4085 26.0362 39.7009C26.0475 39.7348 26.0796 39.7858 26.0155 39.7914C25.9645 39.7952 25.8947 39.8348 25.8589 39.7537C25.8287 39.6839 25.8514 39.5802 25.7759 39.55C25.708 39.5236 25.6213 39.5519 25.5439 39.5425C25.4515 39.5311 25.4213 39.5708 25.4006 39.6519C25.361 39.8084 25.3553 39.8084 25.1743 39.7895H25.1724ZM25.7533 39.3803C25.7137 39.2313 25.6722 39.0804 25.6326 38.9295C25.5892 39.0087 25.5666 39.086 25.5458 39.1634C25.498 39.3318 25.5622 39.4073 25.7382 39.3897C25.7382 39.3897 25.7439 39.3859 25.7533 39.3822V39.3803Z" fill="#0D0D0D"/>
<path d="M3.64655 39.7981C3.5711 39.815 3.55603 39.7698 3.53905 39.7113C3.4919 39.5416 3.49 39.5416 3.31837 39.5416C3.31083 39.5416 3.30328 39.5416 3.29763 39.5416C3.18572 39.5416 3.11404 39.595 3.08261 39.7019C3.05809 39.7867 2.9902 39.8207 2.89966 39.7962C2.85817 39.7849 2.87325 39.7641 2.88268 39.7415C2.98642 39.4303 3.09016 39.1191 3.19201 38.8079C3.21087 38.7532 3.2467 38.7362 3.29763 38.7456C3.35232 38.7551 3.42022 38.7249 3.44662 38.8116C3.54093 39.1153 3.63901 39.419 3.73709 39.7207C3.76915 39.8207 3.68616 39.783 3.64655 39.7981ZM3.32592 38.9361C3.32592 38.9361 3.31083 38.9361 3.30329 38.9361C3.25991 39.0851 3.21653 39.2341 3.17315 39.3888H3.44662C3.40513 39.2322 3.36553 39.0832 3.32781 38.9361H3.32592Z" fill="#0D0D0D"/>
<path d="M14.5368 38.0399C14.4632 38.0531 14.4387 38.0399 14.467 37.9588C14.5707 37.6664 14.6669 37.3722 14.7631 37.0761C14.782 37.0195 14.8008 36.9742 14.8687 36.9837C14.9329 36.9931 15.0045 36.9705 15.0328 37.0742C15.1158 37.3665 15.2139 37.6532 15.3063 37.9418C15.3176 37.9776 15.3478 38.0248 15.2856 38.0342C15.2328 38.0418 15.1611 38.0795 15.1309 37.9965C15.1064 37.9305 15.1083 37.8305 15.063 37.8041C15.0045 37.7683 14.9121 37.7985 14.8348 37.7853C14.7216 37.7683 14.6782 37.8211 14.6613 37.9229C14.65 37.9927 14.6386 38.0719 14.5349 38.0399H14.5368ZM14.9027 37.1666C14.9027 37.1666 14.8895 37.1666 14.8838 37.1685C14.8404 37.3213 14.7952 37.4741 14.7518 37.6287H15.0253C14.9819 37.4684 14.9423 37.3175 14.9008 37.1666H14.9027Z" fill="#0D0D0D"/>
<path d="M16.5849 39.7903C16.6943 39.4602 16.8018 39.1396 16.9074 38.8171C16.9263 38.7586 16.964 38.7379 17.0187 38.7473C17.0753 38.7567 17.1413 38.7322 17.1696 38.8265C17.2563 39.1208 17.3544 39.4131 17.4487 39.7054C17.46 39.7394 17.4921 39.7903 17.4261 39.7941C17.3752 39.7979 17.3054 39.8375 17.2695 39.7545C17.2394 39.6866 17.2639 39.5828 17.1847 39.5508C17.1205 39.5263 17.0376 39.5508 16.9621 39.5432C16.8754 39.5357 16.8301 39.5583 16.8075 39.6526C16.7716 39.8111 16.7641 39.8092 16.583 39.7903H16.5849ZM17.1639 39.381C17.1243 39.232 17.0828 39.0793 17.0413 38.9284C16.9998 39.0114 16.9772 39.0887 16.9546 39.1679C16.9068 39.3364 16.9722 39.4106 17.1507 39.3905C17.1507 39.3905 17.1564 39.3867 17.1658 39.381H17.1639Z" fill="#0D0D0D"/>
<path d="M19.0972 39.2692C19.0972 39.1164 19.0991 38.9636 19.0972 38.8109C19.0972 38.7543 19.1141 38.7373 19.1707 38.7373C19.3103 38.7411 19.448 38.7411 19.5875 38.7373C19.6422 38.7373 19.6555 38.7562 19.6517 38.8052C19.6479 38.8467 19.6611 38.8938 19.5913 38.8882C19.5178 38.8825 19.4423 38.8882 19.3669 38.8882C19.316 38.8882 19.2914 38.8976 19.2895 38.958C19.2801 39.1787 19.2782 39.1768 19.5027 39.1843C19.5442 39.1843 19.6083 39.1466 19.6253 39.222C19.6385 39.288 19.6385 39.3541 19.5366 39.3333C19.5196 39.3295 19.5008 39.3333 19.4838 39.3333C19.2933 39.3333 19.3009 39.3333 19.2895 39.5219C19.2839 39.6332 19.3178 39.6672 19.4235 39.6521C19.4763 39.6445 19.531 39.6539 19.5838 39.6502C19.6441 39.6464 19.6705 39.6558 19.6724 39.7275C19.6724 39.8067 19.6328 39.8011 19.5819 39.8011C19.4536 39.8011 19.3254 39.7954 19.1971 39.8011C19.1123 39.8067 19.0972 39.7747 19.0991 39.6992C19.1047 39.5578 19.0991 39.4144 19.0991 39.273L19.0972 39.2692Z" fill="#0D0D0D"/>
<path d="M5.20605 39.2655C5.20605 39.1165 5.20794 38.9675 5.20605 38.8166C5.20605 38.7563 5.22115 38.7355 5.28339 38.7374C5.42108 38.7412 5.56064 38.7412 5.70021 38.7374C5.75679 38.7374 5.76434 38.7601 5.76245 38.8072C5.76057 38.8487 5.77377 38.8977 5.7021 38.8883C5.66438 38.8845 5.62477 38.8883 5.58516 38.8883C5.40032 38.8883 5.4041 38.8883 5.40033 39.0732C5.39844 39.1543 5.4173 39.192 5.50406 39.1807C5.5531 39.175 5.60402 39.1863 5.65306 39.1807C5.72473 39.1731 5.73982 39.2014 5.7436 39.2693C5.74737 39.3485 5.69832 39.3315 5.65494 39.3334C5.6474 39.3334 5.63986 39.3334 5.6342 39.3334C5.37581 39.3334 5.37392 39.3334 5.40222 39.5994C5.40599 39.6427 5.42296 39.6522 5.46068 39.6522C5.54556 39.6522 5.63231 39.656 5.71719 39.6522C5.78132 39.6484 5.7832 39.6805 5.7832 39.7295C5.7832 39.7785 5.77943 39.8068 5.71719 39.805C5.57196 39.7993 5.42484 39.8012 5.27961 39.805C5.22115 39.805 5.20794 39.7823 5.20983 39.7295C5.2136 39.6522 5.20983 39.573 5.20983 39.4956C5.20983 39.4202 5.20983 39.3466 5.20983 39.2712L5.20605 39.2655Z" fill="#0D0D0D"/>
<path d="M8.27853 39.7974C8.2012 39.786 8.07482 39.8407 8.02201 39.7747C7.97674 39.72 8.00693 39.5993 8.00693 39.5069C8.00693 39.2787 8.0107 39.0524 8.00504 38.8241C8.00504 38.7506 8.02578 38.7336 8.09557 38.7355C8.2276 38.7393 8.35774 38.7393 8.48977 38.7355C8.54635 38.7355 8.56333 38.7506 8.56144 38.8072C8.56144 38.8619 8.55389 38.8958 8.48788 38.8883C8.45016 38.8826 8.41055 38.8883 8.37094 38.8883C8.19931 38.8883 8.20496 38.8883 8.19741 39.0637C8.19364 39.158 8.22005 39.1938 8.31435 39.1806C8.35962 39.175 8.40678 39.1863 8.45204 39.1806C8.52749 39.1712 8.53691 39.207 8.54068 39.2711C8.54634 39.3541 8.49165 39.3296 8.45016 39.3334C8.44638 39.3334 8.44261 39.3334 8.43884 39.3334C8.18045 39.3334 8.18233 39.3334 8.19741 39.5899C8.1993 39.6352 8.2125 39.6521 8.25777 39.6502C8.33887 39.6484 8.42186 39.654 8.50296 39.6484C8.56709 39.6446 8.57652 39.6691 8.57841 39.7276C8.58029 39.7917 8.55578 39.8049 8.4992 39.8011C8.4313 39.7974 8.36339 39.8011 8.2804 39.8011L8.27853 39.7974Z" fill="#0D0D0D"/>
<path d="M11.2495 39.2599C11.2495 39.1109 11.2514 38.9619 11.2495 38.8129C11.2495 38.7582 11.2627 38.7375 11.3193 38.7394C11.4608 38.7431 11.6041 38.7431 11.7455 38.7394C11.8059 38.7394 11.8059 38.7714 11.804 38.8129C11.804 38.8525 11.8097 38.8921 11.7474 38.8903C11.6663 38.8865 11.5833 38.8903 11.5022 38.8903C11.457 38.8903 11.4438 38.9072 11.44 38.9525C11.4249 39.1807 11.423 39.1769 11.655 39.1845C11.6984 39.1845 11.7757 39.1392 11.7814 39.243C11.7852 39.309 11.7738 39.3467 11.6984 39.3335C11.6908 39.3335 11.6833 39.3335 11.6776 39.3335C11.4306 39.3335 11.4325 39.3335 11.44 39.5825C11.44 39.6428 11.4645 39.6522 11.5154 39.6504C11.5965 39.6466 11.6795 39.6541 11.7606 39.6485C11.8304 39.6447 11.821 39.6881 11.8229 39.7296C11.8248 39.7748 11.8191 39.8012 11.7625 39.7994C11.6135 39.7956 11.4645 39.7956 11.3155 39.7994C11.2627 39.7994 11.2495 39.7786 11.2514 39.7296C11.2533 39.573 11.2514 39.4165 11.2514 39.2599H11.2495Z" fill="#0D0D0D"/>
<path d="M20.3197 39.2717C20.3197 39.1227 20.3235 38.9737 20.3197 38.8247C20.3159 38.7511 20.3423 38.7323 20.4102 38.7398C20.5027 38.7493 20.5951 38.7493 20.6875 38.7568C20.8516 38.7719 20.9421 38.8681 20.9478 39.0341C20.9553 39.2264 20.8667 39.349 20.7007 39.3754C20.6403 39.3849 20.5536 39.3585 20.5234 39.4094C20.4951 39.4565 20.5159 39.5339 20.514 39.598C20.514 39.6301 20.5102 39.6621 20.514 39.6942C20.5291 39.7847 20.4895 39.8074 20.4027 39.8036C20.3405 39.7998 20.3159 39.7904 20.3197 39.7225C20.3254 39.5735 20.3197 39.4245 20.3197 39.2755V39.2717ZM20.5121 39.0491C20.5121 39.0944 20.5121 39.1416 20.5121 39.1868C20.5121 39.2113 20.5121 39.2378 20.5498 39.2378C20.6271 39.2396 20.7064 39.2378 20.7403 39.1548C20.7724 39.0774 20.7761 38.9926 20.7101 38.9265C20.6649 38.8813 20.5988 38.87 20.5404 38.8869C20.4819 38.9039 20.5196 38.9662 20.5121 39.0058C20.5083 39.019 20.5121 39.0341 20.5121 39.0473V39.0491Z" fill="#0D0D0D"/>
<path d="M3.37512 37.5046C3.37512 37.3556 3.37889 37.2066 3.37512 37.0576C3.37323 36.9897 3.39397 36.9709 3.45998 36.9765C3.56937 36.9878 3.68065 36.9878 3.79005 36.9992C3.91641 37.0124 4.00506 37.1406 4.00506 37.2972C4.00506 37.4801 3.90887 37.597 3.74667 37.6159C3.62973 37.6297 3.57127 37.6964 3.57127 37.8158C3.57127 37.8517 3.56561 37.8875 3.57127 37.9215C3.58824 38.0214 3.54674 38.0478 3.45055 38.0441C3.38454 38.0403 3.37699 38.0158 3.37699 37.9611C3.37888 37.8083 3.37699 37.6555 3.37699 37.5027L3.37512 37.5046ZM3.56749 37.299C3.56749 37.3424 3.56749 37.3839 3.56749 37.4273C3.56749 37.4537 3.57127 37.4763 3.6071 37.4782C3.68443 37.4782 3.76365 37.4782 3.7976 37.3933C3.82966 37.316 3.83343 37.2312 3.76741 37.1651C3.72026 37.118 3.65426 37.1104 3.59767 37.1274C3.5392 37.1444 3.57881 37.2066 3.56938 37.2481C3.56561 37.2651 3.56938 37.284 3.56938 37.3009L3.56749 37.299Z" fill="#0D0D0D"/>
<path d="M4.29709 37.4983C4.29709 37.353 4.29898 37.2059 4.29709 37.0607C4.29709 37.0003 4.30464 36.9702 4.37632 36.9739C4.51023 36.9796 4.64602 36.9796 4.78182 36.9739C4.84406 36.9721 4.8516 37.0003 4.8516 37.0494C4.8516 37.1003 4.84595 37.1305 4.78371 37.1248C4.71392 37.1192 4.64225 37.1248 4.57058 37.1229C4.51399 37.1192 4.48948 37.1305 4.48948 37.1965C4.4857 37.4172 4.48382 37.4153 4.70261 37.4209C4.7441 37.4209 4.80823 37.3832 4.82332 37.4587C4.83652 37.5228 4.84029 37.5926 4.73655 37.5699C4.73278 37.5699 4.72901 37.5699 4.72524 37.5699C4.47062 37.5699 4.47062 37.57 4.48948 37.8265C4.49325 37.8717 4.50457 37.8887 4.54983 37.8887C4.63471 37.8868 4.72146 37.8906 4.80634 37.8868C4.86669 37.883 4.86669 37.9151 4.86481 37.9585C4.86481 38.0019 4.87235 38.0415 4.80256 38.0396C4.65733 38.0339 4.51023 38.0358 4.365 38.0396C4.30464 38.0396 4.29521 38.0151 4.29709 37.9641C4.29898 37.8076 4.29709 37.6511 4.29709 37.4945V37.4983Z" fill="#0D0D0D"/>
<path d="M12.694 37.5094C12.694 37.3566 12.6959 37.2039 12.694 37.0511C12.694 36.9907 12.711 36.9719 12.7713 36.9738C12.9034 36.9775 13.0335 36.9775 13.1655 36.9738C13.2202 36.9738 13.2466 36.9813 13.2485 37.0473C13.2504 37.1209 13.2202 37.1284 13.1599 37.1265C13.0882 37.1228 13.0184 37.1265 12.9468 37.1265C12.9015 37.1265 12.8883 37.1397 12.8845 37.1869C12.8694 37.4208 12.8675 37.4189 13.1052 37.4245C13.1448 37.4245 13.2089 37.3849 13.2221 37.4698C13.2316 37.5396 13.2278 37.5924 13.1354 37.5735C13.1316 37.5735 13.1278 37.5735 13.124 37.5735C12.8694 37.5735 12.8713 37.5735 12.8845 37.8282C12.8883 37.881 12.9053 37.8942 12.9543 37.8923C13.0354 37.8885 13.1184 37.8942 13.1995 37.8904C13.2561 37.8866 13.2655 37.913 13.2617 37.9602C13.258 38.0017 13.273 38.0451 13.2014 38.0432C13.0561 38.0394 12.909 38.0394 12.7638 38.0432C12.7053 38.0432 12.6921 38.0243 12.694 37.9696C12.6978 37.8168 12.694 37.6641 12.694 37.5113V37.5094Z" fill="#0D0D0D"/>
<path d="M4.34822 39.2619C4.34822 39.1204 4.35388 38.977 4.34634 38.8356C4.34068 38.7507 4.37274 38.73 4.45007 38.7394C4.53872 38.7488 4.62737 38.7488 4.71601 38.7564C4.88199 38.7715 4.97252 38.8733 4.9763 39.0468C4.98007 39.2317 4.88765 39.3524 4.72544 39.375C4.60222 39.3926 4.54061 39.4649 4.54061 39.5919C4.54061 39.624 4.53495 39.656 4.54061 39.6881C4.55947 39.7881 4.5142 39.8069 4.42367 39.8013C4.36332 39.7975 4.34445 39.7824 4.34634 39.7221C4.35011 39.5693 4.34634 39.4165 4.34634 39.2637L4.34822 39.2619ZM4.54061 39.0544C4.54061 39.0978 4.54061 39.1392 4.54061 39.1826C4.54061 39.209 4.54438 39.2298 4.57645 39.2373C4.65378 39.2581 4.74996 39.2128 4.77825 39.1374C4.81408 39.0412 4.77825 38.9318 4.70092 38.8978C4.58587 38.8469 4.54061 38.8752 4.54061 38.9997C4.54061 39.0167 4.54061 39.0355 4.54061 39.0525V39.0544Z" fill="#0D0D0D"/>
<path d="M15.0913 39.2617C15.0913 39.1165 15.095 38.9694 15.0913 38.8242C15.0894 38.76 15.1026 38.7355 15.1724 38.7374C15.3044 38.7431 15.4364 38.7412 15.5665 38.7374C15.625 38.7374 15.6476 38.7506 15.6476 38.8147C15.6476 38.8808 15.6194 38.8939 15.5628 38.8883C15.5307 38.8864 15.4986 38.8883 15.4666 38.8883C15.2836 38.8883 15.2874 38.8883 15.2817 39.0731C15.2799 39.1542 15.2987 39.192 15.3855 39.1806C15.4345 39.175 15.4854 39.1844 15.5345 39.1806C15.5986 39.175 15.6193 39.1957 15.6231 39.2636C15.6269 39.3372 15.5892 39.3372 15.5383 39.3334C15.5307 39.3334 15.5232 39.3334 15.5175 39.3334C15.2704 39.3334 15.2723 39.3334 15.2817 39.5824C15.2836 39.6427 15.3063 39.6522 15.3572 39.6503C15.4326 39.6465 15.5062 39.6522 15.5816 39.6484C15.6401 39.6446 15.6627 39.6616 15.6627 39.7257C15.6627 39.7898 15.6401 39.803 15.5816 39.8012C15.4421 39.7974 15.3044 39.7974 15.1648 39.8012C15.1026 39.803 15.0856 39.7804 15.0894 39.7219C15.095 39.6446 15.0894 39.5654 15.0894 39.4881C15.0894 39.4126 15.0894 39.3391 15.0894 39.2636L15.0913 39.2617Z" fill="#0D0D0D"/>
<path d="M1.00971 39.262C1.00971 39.1167 1.0116 38.9715 1.00971 38.8244C1.00971 38.764 1.01725 38.7338 1.08892 38.7376C1.22283 38.7433 1.35864 38.7414 1.49444 38.7376C1.5529 38.7376 1.56611 38.7603 1.56422 38.8131C1.56422 38.8659 1.55102 38.8942 1.49255 38.8885C1.46048 38.8847 1.42842 38.8885 1.39636 38.8885C1.19832 38.8885 1.1606 38.9375 1.20021 39.1356C1.20775 39.1733 1.2285 39.179 1.25867 39.179C1.31526 39.179 1.37184 39.1827 1.42843 39.179C1.49633 39.1752 1.54159 39.179 1.5397 39.2714C1.53781 39.3638 1.47557 39.3299 1.43408 39.3299C1.187 39.3336 1.19077 39.3317 1.19643 39.5807C1.19643 39.6411 1.21907 39.6524 1.27188 39.6505C1.34544 39.6467 1.42088 39.6524 1.49632 39.6486C1.55479 39.6448 1.57742 39.6618 1.57742 39.7241C1.57742 39.7863 1.55668 39.8014 1.49821 39.7995C1.36053 39.7957 1.22095 39.7957 1.08327 39.7995C1.02103 39.8014 1.00405 39.7806 1.00782 39.7203C1.01348 39.6429 1.00782 39.5637 1.00782 39.4864C1.00782 39.411 1.00782 39.3374 1.00782 39.262H1.00971Z" fill="#0D0D0D"/>
<path d="M24.6103 39.6493C24.7405 39.6493 24.8517 39.6512 24.9611 39.6493C25.0215 39.6474 25.0498 39.6568 25.0498 39.7285C25.0498 39.7964 25.0196 39.8021 24.9668 39.8002C24.8065 39.7983 24.6462 39.7945 24.4877 39.8002C24.4104 39.8039 24.401 39.77 24.4066 39.7059C24.4142 39.6361 24.4443 39.5757 24.4764 39.5173C24.5764 39.3324 24.6745 39.1476 24.7782 38.9646C24.814 38.9024 24.8008 38.8854 24.7329 38.8873C24.6518 38.8911 24.5688 38.8854 24.4877 38.8873C24.4293 38.8911 24.4142 38.8666 24.4161 38.8137C24.4161 38.7647 24.4217 38.7345 24.484 38.7364C24.648 38.7402 24.8102 38.7402 24.9743 38.7364C25.0328 38.7364 25.0479 38.7572 25.0441 38.8119C25.0385 38.8816 25.0121 38.942 24.9781 39.0005C24.8593 39.2098 24.7405 39.4192 24.6122 39.6455L24.6103 39.6493Z" fill="#0D0D0D"/>
<path d="M8.46729 36.9855C8.47672 36.9818 8.48426 36.978 8.48992 36.978C8.66155 36.9686 8.65967 36.9686 8.70305 37.1383C8.75208 37.3288 8.80112 37.5193 8.85016 37.7098C8.85581 37.7305 8.85959 37.7513 8.88788 37.7664C8.95201 37.5287 9.02557 37.293 9.07838 37.0534C9.1029 36.9422 9.17457 36.9742 9.23115 36.9818C9.31791 36.9931 9.26699 37.0553 9.25567 37.0968C9.17268 37.3797 9.08026 37.6608 9.00482 37.9474C8.97275 38.0644 8.886 38.0248 8.81998 38.0399C8.74454 38.0568 8.75963 37.9814 8.74831 37.9474C8.65401 37.6457 8.56725 37.342 8.47671 37.0383C8.47106 37.0214 8.47106 37.0044 8.46729 36.9874V36.9855Z" fill="#0D0D0D"/>
<path d="M13.3408 39.2697C13.3408 39.1169 13.3427 38.9642 13.3408 38.8114C13.3408 38.7548 13.3578 38.7359 13.4144 38.7397C13.5143 38.7473 13.6143 38.7492 13.7124 38.7567C13.8746 38.7699 13.9632 38.8699 13.9689 39.0377C13.9745 39.2244 13.8878 39.347 13.7275 39.3734C13.5992 39.3948 13.5351 39.4715 13.5351 39.6036C13.5351 39.6281 13.5313 39.6545 13.5351 39.679C13.5521 39.7771 13.5143 39.8072 13.4163 39.8016C13.3521 39.7978 13.3408 39.7771 13.3427 39.7186C13.3465 39.5696 13.3427 39.4187 13.3427 39.2697H13.3408ZM13.5313 39.0585C13.5313 39.1019 13.5313 39.1433 13.5313 39.1867C13.5313 39.215 13.537 39.2358 13.5709 39.2377C13.6483 39.2414 13.7275 39.2377 13.7614 39.1566C13.7954 39.0736 13.7991 38.9868 13.7256 38.9208C13.6784 38.8793 13.6105 38.868 13.5558 38.8906C13.5087 38.9095 13.5407 38.9661 13.5332 39.0057C13.5294 39.0226 13.5332 39.0415 13.5332 39.0585H13.5313Z" fill="#0D0D0D"/>
<path d="M25.7984 37.5113C25.7984 37.3585 25.8003 37.2057 25.7984 37.053C25.7984 36.9926 25.8135 36.9719 25.8758 36.9737C26.0116 36.9775 26.1455 36.9794 26.2813 36.9737C26.3473 36.9719 26.3548 36.9983 26.3567 37.0548C26.3567 37.1114 26.3398 37.1322 26.2851 37.1246C26.253 37.1209 26.2209 37.1227 26.1889 37.1246C26.1266 37.1284 26.0304 37.0963 26.0078 37.1397C25.9757 37.2076 25.9946 37.2981 25.9927 37.3793C25.9927 37.4226 26.0267 37.417 26.055 37.417C26.1153 37.417 26.1757 37.4226 26.236 37.417C26.3077 37.4113 26.3341 37.4302 26.3341 37.5075C26.3341 37.5999 26.2737 37.5679 26.2322 37.5679C25.9776 37.5716 25.9795 37.5698 25.9908 37.8206C25.9927 37.8696 26.004 37.8904 26.0568 37.8885C26.1417 37.8847 26.2285 37.8904 26.3134 37.8866C26.3718 37.8828 26.3737 37.9149 26.3737 37.9583C26.3737 38.0035 26.3775 38.0413 26.3096 38.0394C26.1681 38.0337 26.0248 38.0337 25.8833 38.0394C25.8192 38.0413 25.7966 38.0243 25.7984 37.9564C25.8041 37.8074 25.7984 37.6584 25.7984 37.5075V37.5113Z" fill="#0D0D0D"/>
<path d="M16.2003 38.7266C16.2267 38.7303 16.2682 38.736 16.3097 38.7398C16.3945 38.7492 16.387 38.8095 16.3794 38.8661C16.37 38.9453 16.321 38.8793 16.2927 38.885C16.2795 38.8869 16.2644 38.8793 16.2512 38.8774C16.1682 38.8699 16.0777 38.8567 16.0418 38.9567C16.006 39.0585 16.0814 39.1038 16.155 39.1472C16.189 39.166 16.2229 39.1849 16.2569 39.2056C16.4228 39.3056 16.4662 39.4093 16.4191 39.6017C16.3889 39.7262 16.2908 39.7979 16.1192 39.8092C16.055 39.8129 15.9909 39.8054 15.9287 39.796C15.8476 39.7847 15.8513 39.7243 15.8608 39.6658C15.874 39.5885 15.9211 39.6357 15.957 39.6432C16.0117 39.6564 16.0664 39.6734 16.1248 39.6602C16.1852 39.6451 16.2286 39.6149 16.2418 39.5508C16.255 39.4885 16.2399 39.4357 16.1871 39.3999C16.1324 39.3603 16.072 39.3282 16.0154 39.2905C15.8664 39.1924 15.8117 39.0736 15.8513 38.9303C15.8853 38.8096 16.0136 38.7284 16.1984 38.7266H16.2003Z" fill="#0D0D0D"/>
<path d="M22.3567 38.7266C22.385 38.7303 22.4359 38.7341 22.4831 38.7454C22.5547 38.7643 22.5302 38.8246 22.5264 38.8699C22.5208 38.9454 22.4755 38.8888 22.4491 38.8869C22.3963 38.8812 22.3435 38.868 22.2907 38.8774C22.2379 38.8869 22.1964 38.9114 22.185 38.968C22.1756 39.0208 22.185 39.068 22.2322 39.1C22.2888 39.1359 22.3472 39.1698 22.4038 39.2056C22.566 39.3037 22.6207 39.4452 22.5623 39.6206C22.5227 39.745 22.3869 39.8186 22.2152 39.8092C22.1718 39.8073 22.1304 39.7997 22.0889 39.7979C22.0021 39.7903 21.9964 39.7337 22.0078 39.6677C22.0228 39.581 22.0738 39.6375 22.1115 39.6451C22.1473 39.6507 22.1813 39.664 22.2152 39.664C22.2888 39.664 22.3567 39.647 22.3831 39.5621C22.4076 39.481 22.3774 39.4225 22.3114 39.381C22.2643 39.3509 22.2133 39.3226 22.1662 39.2924C22.0096 39.1905 21.955 39.0698 22.0002 38.9265C22.0379 38.8058 22.1662 38.7285 22.3548 38.7285L22.3567 38.7266Z" fill="#0D0D0D"/>
<path d="M24.0162 37.542C24.0162 37.542 24.0162 37.5891 24.0237 37.6268C24.0596 37.8419 24.2029 37.9362 24.4161 37.889C24.45 37.8815 24.5009 37.8287 24.5122 37.9116C24.5198 37.9701 24.5198 38.0248 24.4406 38.0418C24.1501 38.104 23.9144 37.9758 23.8389 37.6948C23.7842 37.4873 23.8031 37.2874 23.9445 37.1138C24.052 36.9818 24.3085 36.9252 24.4613 36.9894C24.5349 37.0195 24.5179 37.0761 24.5085 37.1233C24.4972 37.178 24.4538 37.1421 24.4236 37.1346C24.169 37.0686 24.0162 37.2081 24.0181 37.542H24.0162Z" fill="#0D0D0D"/>
<path d="M22.1265 37.4003C22.1755 37.2928 22.2151 37.2079 22.2528 37.1249C22.3006 37.0193 22.3887 36.9715 22.5169 36.9816C22.4641 37.0929 22.4207 37.206 22.3604 37.3079C22.2415 37.5059 22.1868 37.7172 22.2151 37.9473C22.2246 38.0189 22.2019 38.0453 22.1246 38.0434C22.051 38.0434 22.0077 38.0321 22.0228 37.9454C22.085 37.621 21.8964 37.3682 21.7775 37.0948C21.7625 37.0608 21.6964 37.0099 21.7681 36.9854C21.8209 36.9665 21.9001 36.9382 21.9416 37.0287C21.9963 37.1476 22.0548 37.2626 22.1227 37.4003H22.1265Z" fill="#0D0D0D"/>
<path d="M0.327151 37.5388C0.327151 37.5388 0.327156 37.5859 0.332815 37.6237C0.370536 37.8425 0.515762 37.9386 0.730777 37.8877C0.76284 37.8802 0.808101 37.8387 0.819417 37.9047C0.828848 37.9556 0.838284 38.0122 0.766613 38.0367C0.49313 38.1329 0.17627 37.9443 0.13289 37.6519C0.104598 37.4577 0.11779 37.271 0.251703 37.1106C0.362982 36.9786 0.610069 36.922 0.768501 36.9843C0.842058 37.0126 0.82696 37.0673 0.817529 37.1163C0.806213 37.1748 0.762842 37.1389 0.732664 37.1314C0.476156 37.0654 0.323375 37.2049 0.323375 37.535L0.327151 37.5388Z" fill="#0D0D0D"/>
<path d="M22.9865 39.3428C22.9865 39.2372 22.9789 39.1297 22.9883 39.0241C22.9997 38.9128 22.9638 38.8675 22.8506 38.8883C22.7714 38.9033 22.7413 38.8713 22.7507 38.7902C22.7545 38.7468 22.7733 38.7393 22.811 38.7393C22.9883 38.7393 23.1656 38.7411 23.3429 38.7393C23.3957 38.7393 23.4127 38.7562 23.4089 38.8072C23.4052 38.8505 23.4165 38.8883 23.3467 38.8901C23.1732 38.8977 23.1732 38.9015 23.1732 39.0712C23.1732 39.2768 23.1713 39.4824 23.1732 39.6898C23.1732 39.7634 23.1694 39.8011 23.0751 39.803C22.9695 39.8049 22.9808 39.7521 22.9827 39.6861C22.9827 39.5729 22.9827 39.4579 22.9827 39.3447L22.9865 39.3428Z" fill="#080808"/>
<path d="M27.3959 39.3453C27.3959 39.2321 27.3884 39.1171 27.3978 39.0039C27.4054 38.9096 27.3752 38.8738 27.2809 38.887C27.2451 38.8908 27.1941 38.9077 27.1715 38.87C27.1545 38.8436 27.1583 38.8002 27.164 38.7663C27.1715 38.7286 27.2092 38.7399 27.2356 38.7399C27.4073 38.7399 27.577 38.7399 27.7486 38.7399C27.8052 38.7399 27.8241 38.7568 27.8222 38.8134C27.8222 38.8644 27.8147 38.8889 27.7524 38.8926C27.5864 38.8983 27.5864 38.9021 27.5864 39.0718C27.5864 39.2887 27.5808 39.5056 27.5883 39.7225C27.5921 39.8093 27.5449 39.7999 27.4903 39.8017C27.4337 39.8017 27.3884 39.8074 27.3941 39.7225C27.4035 39.598 27.3959 39.4736 27.3959 39.3491V39.3453Z" fill="#0D0D0D"/>
<path d="M28.4787 37.5838C28.4787 37.4556 28.4749 37.3273 28.4787 37.2009C28.4806 37.1387 28.4598 37.1179 28.4014 37.1255C28.3693 37.1293 28.3372 37.1236 28.3052 37.1255C28.2486 37.133 28.241 37.1047 28.2429 37.0576C28.2467 37.0142 28.2354 36.9746 28.3052 36.9746C28.4825 36.9784 28.6598 36.9784 28.8371 36.9746C28.9049 36.9746 28.8993 37.0104 28.8993 37.0557C28.8993 37.101 28.8974 37.1255 28.8389 37.1274C28.6654 37.1349 28.6654 37.1387 28.6654 37.316C28.6654 37.5329 28.6616 37.7498 28.6673 37.9667C28.6692 38.044 28.6315 38.0459 28.5768 38.0421C28.5258 38.0384 28.4693 38.061 28.4749 37.9686C28.4825 37.8403 28.4768 37.714 28.4768 37.5857L28.4787 37.5838Z" fill="#080808"/>
<path d="M26.6604 39.262C26.6604 39.113 26.6642 38.964 26.6604 38.815C26.6566 38.7377 26.6981 38.7377 26.7509 38.7415C26.8018 38.7452 26.8566 38.7245 26.8547 38.815C26.849 39.0527 26.8584 39.2922 26.849 39.5299C26.8452 39.6374 26.8792 39.6675 26.9791 39.6525C27.0206 39.6468 27.064 39.6525 27.1074 39.6525C27.1621 39.6487 27.1998 39.6506 27.1998 39.7279C27.1998 39.8033 27.164 39.8052 27.1093 39.8033C26.9886 39.8015 26.8679 39.7977 26.7472 39.8033C26.6717 39.8071 26.6585 39.7788 26.6604 39.7128C26.6642 39.5638 26.6604 39.4148 26.6604 39.2658V39.262Z" fill="#080808"/>
<path d="M7.31313 37.5782C7.31313 37.4707 7.30559 37.365 7.31502 37.2594C7.32256 37.1576 7.29993 37.1029 7.18676 37.1255C7.16979 37.1293 7.15093 37.1255 7.13396 37.1255C7.08115 37.1312 7.07737 37.0972 7.08114 37.0576C7.08492 37.0218 7.06606 36.9746 7.13207 36.9746C7.31691 36.9746 7.50175 36.9746 7.68658 36.9746C7.75071 36.9746 7.7375 37.018 7.73939 37.0557C7.73939 37.0915 7.74505 37.1255 7.68847 37.1274C7.63 37.1274 7.54512 37.0972 7.51872 37.1444C7.48854 37.1953 7.5074 37.2745 7.5074 37.3424C7.5074 37.548 7.50363 37.7554 7.5074 37.961C7.50929 38.0402 7.47156 38.0459 7.41121 38.044C7.35463 38.044 7.30747 38.0478 7.31313 37.9648C7.32067 37.8366 7.31502 37.7083 7.31502 37.5819L7.31313 37.5782Z" fill="#0D0D0D"/>
<path d="M2.22796 39.2653C2.22796 39.1125 2.23173 38.9598 2.22796 38.807C2.22419 38.7221 2.27888 38.7391 2.32603 38.7391C2.3713 38.7391 2.426 38.7202 2.42411 38.8051C2.42034 39.0578 2.42411 39.3087 2.42034 39.5614C2.42034 39.6331 2.44109 39.6538 2.50899 39.6482C2.56557 39.6425 2.62216 39.6482 2.67874 39.6463C2.73721 39.6425 2.76738 39.6482 2.76738 39.7236C2.76738 39.801 2.73344 39.7991 2.67874 39.7991C2.55426 39.7972 2.42977 39.7953 2.30529 39.7991C2.24682 39.7991 2.22607 39.7859 2.22607 39.7236C2.22985 39.5709 2.22607 39.4181 2.22607 39.2653H2.22796Z" fill="#0D0D0D"/>
<path d="M27.9828 37.519C27.9828 37.668 27.979 37.8189 27.9828 37.9679C27.9866 38.0472 27.9451 38.0434 27.8904 38.0415C27.8395 38.0396 27.7848 38.0566 27.7867 37.9679C27.7923 37.6624 27.7923 37.3549 27.7867 37.0494C27.7867 36.9589 27.8395 36.9796 27.8904 36.9759C27.9451 36.9721 27.9847 36.9721 27.9828 37.0494C27.9772 37.2059 27.9828 37.3625 27.9809 37.519H27.9828Z" fill="#0D0D0D"/>
<path d="M8.00549 37.4988C8.00549 37.3498 8.01115 37.2008 8.0036 37.0518C7.99983 36.9613 8.05452 36.9782 8.10545 36.9764C8.15449 36.9764 8.20164 36.9632 8.19975 37.0461C8.19409 37.3555 8.19409 37.6629 8.19975 37.9722C8.19975 38.0552 8.1526 38.042 8.10545 38.042C8.05452 38.042 7.99983 38.0571 8.0036 37.9666C8.01115 37.81 8.00549 37.6553 8.00549 37.4988Z" fill="#0D0D0D"/>
<path d="M9.13116 38.498C9.15945 38.5056 9.19718 38.515 9.23302 38.5282C9.27074 38.5414 9.30657 38.5546 9.33675 38.5112C9.3575 38.4811 9.39522 38.4735 9.41974 38.498C9.44237 38.5226 9.41596 38.5527 9.40276 38.5754C9.36315 38.6452 9.30845 38.6772 9.22735 38.6395C9.17077 38.6131 9.11041 38.581 9.0576 38.6527C9.0444 38.6697 9.01799 38.6697 8.99913 38.6546C8.9765 38.6376 8.99348 38.615 9.00102 38.598C9.02365 38.5433 9.05572 38.498 9.13305 38.498H9.13116Z" fill="#0D0D0D"/>
<path d="M29.9327 39.699C29.9157 39.6273 29.9421 39.6047 30.0194 39.6028C30.1099 39.599 30.1099 39.6424 30.1137 39.7103C30.1175 39.7914 30.0835 39.797 30.0157 39.8008C29.9308 39.8046 29.9213 39.7669 29.9327 39.699Z" fill="#0D0D0D"/>
<path d="M26.2624 36.7136C26.2285 36.7833 26.1813 36.8362 26.1361 36.889C26.1097 36.9191 26.0719 36.9286 26.0399 36.9097C26.0059 36.889 26.0437 36.8607 26.0493 36.8362C26.0757 36.7305 26.138 36.6796 26.2624 36.7136Z" fill="#0D0D0D"/>
<path d="M31.9908 32.7512C31.9493 32.6965 31.9116 32.6739 31.9229 32.6286C31.9229 32.6229 31.9418 32.6154 31.9493 32.6192C32.0022 32.6399 31.9871 32.6852 31.9908 32.7512Z" fill="#0D0D0D"/>
</svg>
