<svg width="47" height="38" viewBox="0 0 47 38" fill="none" xmlns="http://www.w3.org/2000/svg">
<path d="M26.1843 16.4628C21.3557 16.4628 16.527 16.4582 11.6984 16.4675C11.4223 16.4675 11.355 16.4048 11.355 16.1264C11.3643 10.8755 11.3643 5.62223 11.355 0.371316C11.355 0.0580713 11.4455 -0.00225704 11.7379 6.3294e-05C17.4668 0.0163056 23.198 0.0232675 28.9269 0.0209472C29.2099 0.0209472 29.3028 0.0743151 29.2935 0.378279C29.2703 1.29017 29.2865 2.20206 29.2842 3.11627C29.2842 3.24853 29.2633 3.38079 29.2517 3.51305L29.2564 3.50609C29.1566 3.50145 29.0568 3.49217 28.9571 3.49217C25.5531 3.49217 22.1492 3.49681 18.7453 3.4852C18.4343 3.4852 18.3856 3.5873 18.3879 3.8611C18.3995 5.55262 18.4042 7.24183 18.3833 8.93335C18.3786 9.2698 18.4622 9.35101 18.7986 9.34869C21.2559 9.33476 23.7154 9.34637 26.1727 9.34869C26.233 9.84524 26.1959 10.3441 26.1959 10.843C26.1959 12.7178 26.1889 14.5903 26.1843 16.4651V16.4628Z" fill="#1D120F"/>
<path d="M26.1845 16.4628C26.1891 14.588 26.1984 12.7154 26.1961 10.8406C26.1961 10.3417 26.2332 9.84288 26.1729 9.34633C27.0476 9.34168 27.9224 9.33472 28.7972 9.33008C29.2496 9.33008 29.2519 9.33008 29.2519 8.89154C29.2519 7.0956 29.2543 5.29966 29.2566 3.50372L29.2519 3.51069C29.4677 3.45036 29.6882 3.46428 29.9086 3.46428C32.7441 3.46428 35.5795 3.46428 38.4173 3.46428C38.9417 3.46428 39.2046 3.72957 39.2061 4.26015C39.2061 5.84958 39.1992 7.44133 39.2131 9.03076C39.2154 9.31848 39.1505 9.40433 38.8511 9.40201C36.793 9.38809 34.7372 9.39969 32.6791 9.38809C32.4053 9.38809 32.3241 9.45538 32.3241 9.73614C32.3333 12.7711 32.3241 15.8085 32.3357 18.8434C32.3357 19.1265 32.2869 19.2217 31.9783 19.2193C30.1778 19.2031 28.3748 19.2054 26.5743 19.217C26.2819 19.217 26.1775 19.1521 26.1891 18.8342C26.2146 18.0453 26.1914 17.2563 26.1891 16.4651L26.1845 16.4628Z" fill="#868485"/>
<path d="M17.6383 25.3002C17.6383 25.5183 17.6383 25.7365 17.6383 25.9522C17.6383 27.9872 17.6337 30.0244 17.6453 32.0594C17.6453 32.3262 17.5989 32.4306 17.3065 32.4144C16.8239 32.3889 16.8239 32.4074 16.8239 31.9387C16.8239 29.4142 16.8285 26.8873 16.8169 24.3628C16.8169 24.096 16.8865 24.0264 17.1487 24.031C18.0606 24.0473 18.056 24.038 18.3947 24.8849C19.2347 26.9871 20.0816 29.087 20.9494 31.2496C21.1884 30.6672 21.4111 30.1335 21.6246 29.5952C22.3277 27.8224 23.0284 26.0497 23.7269 24.2746C23.7849 24.1285 23.8522 24.0496 24.0332 24.0519C24.3534 24.0565 24.7617 23.9127 24.9729 24.089C25.191 24.27 25.0401 24.6923 25.0425 25.0055C25.0494 27.363 25.0425 29.7228 25.0541 32.0802C25.0541 32.3424 24.9914 32.4237 24.7246 32.4121C24.2327 32.3912 24.2327 32.4074 24.235 31.9178C24.235 29.681 24.235 27.4465 24.235 25.1889C24.1027 25.2585 24.0981 25.3884 24.0563 25.4905C23.1676 27.7018 22.2743 29.9131 21.4088 32.1336C21.2951 32.426 21.1188 32.3958 20.8961 32.4097C20.6571 32.4237 20.5318 32.3633 20.4343 32.1151C19.5595 29.8829 18.6662 27.6577 17.7775 25.4325C17.7567 25.3838 17.7334 25.335 17.7102 25.2863C17.6847 25.291 17.6615 25.2933 17.636 25.2979L17.6383 25.3002Z" fill="#1D120F"/>
<path d="M42.1971 23.8714C44.8098 23.8714 46.4967 25.6859 46.4387 28.5306C46.3923 30.7628 44.4246 32.5773 42.1901 32.5564C39.6795 32.5332 37.8673 30.6793 37.8859 28.0782C37.8998 25.9945 39.4196 23.8412 42.1971 23.8714ZM38.7908 28.2174C38.7815 28.4657 38.821 28.7395 38.8674 29.0133C39.176 30.8463 40.9696 32.0831 42.7748 31.7072C44.7332 31.2988 45.9421 29.3752 45.4432 27.4262C45.1416 26.2521 44.5452 25.2822 43.3247 24.8877C40.9835 24.1266 38.7374 25.8112 38.7931 28.2174H38.7908Z" fill="#1D120F"/>
<path d="M7.94404 28.1807C7.94404 26.9022 7.951 25.6214 7.93707 24.3429C7.93475 24.083 8.01599 24.0319 8.25731 24.0343C9.51493 24.0459 10.7726 24.0459 12.0279 24.0343C12.2436 24.0343 12.3179 24.0737 12.3132 24.3057C12.2993 24.8858 12.3133 24.8858 11.7471 24.8858C10.8468 24.8858 9.94417 24.8881 9.04388 24.8835C8.87217 24.8835 8.78403 24.9067 8.78635 25.1155C8.79795 25.916 8.79795 26.7166 8.78403 27.5171C8.77939 27.7537 8.88381 27.7839 9.08104 27.7816C10.0602 27.7723 11.0394 27.7816 12.0186 27.77C12.2529 27.7677 12.3225 27.8257 12.3132 28.067C12.2924 28.6239 12.3063 28.6239 11.7587 28.6239C10.8676 28.6239 9.97896 28.6308 9.08795 28.6192C8.86752 28.6169 8.77939 28.661 8.78635 28.9093C8.80491 29.7214 8.79795 30.5335 8.78635 31.3456C8.78403 31.5498 8.84433 31.6101 9.05084 31.6078C9.98594 31.5985 10.9187 31.6055 11.8538 31.6055C12.3109 31.6055 12.2877 31.6055 12.3156 32.0556C12.3341 32.3689 12.2158 32.4199 11.9373 32.413C11.2923 32.3944 10.6473 32.406 10.0022 32.406C9.41284 32.406 8.82345 32.3944 8.23408 32.4107C7.99741 32.4176 7.93475 32.348 7.93707 32.116C7.94867 30.8027 7.94172 29.4917 7.94172 28.1784L7.94404 28.1807Z" fill="#1D120F"/>
<path d="M29.3538 28.215C29.3538 26.9249 29.3608 25.6347 29.3492 24.3446C29.3469 24.0964 29.4095 24.0198 29.6648 24.0314C30.5859 24.0708 31.5117 23.9641 32.4259 24.1405C34.1291 24.4723 34.9134 26.6696 33.795 27.9876C33.3356 28.5282 32.6835 28.6906 32.0199 28.809C31.5141 28.8995 31.0036 28.9134 30.4931 28.9041C30.2541 28.8995 30.1961 28.983 30.1985 29.2104C30.2101 30.1664 30.1938 31.1223 30.21 32.0783C30.2147 32.3382 30.1497 32.4496 29.8829 32.4078C29.8063 32.3962 29.7251 32.3939 29.6508 32.4078C29.4188 32.4426 29.3492 32.3568 29.3515 32.1178C29.3631 30.8161 29.3562 29.5167 29.3562 28.215H29.3538ZM30.203 26.4701C30.203 26.9249 30.2077 27.382 30.2007 27.8367C30.1984 28.0015 30.2356 28.0804 30.4212 28.0711C30.9317 28.0479 31.4398 28.092 31.9503 28.02C32.7786 27.904 33.2844 27.3866 33.3332 26.5745C33.3889 25.6556 33.0432 25.2008 32.1406 24.9851C31.5837 24.8528 31.0152 24.8899 30.4513 24.8714C30.2332 24.8644 30.1938 24.9456 30.1985 25.1382C30.2124 25.5814 30.203 26.0269 30.203 26.4701Z" fill="#1D120F"/>
<path d="M1.66991 28.6463C1.66991 27.4908 1.66295 26.3329 1.67455 25.1774C1.67687 24.9407 1.60493 24.8734 1.3729 24.8827C0.994684 24.899 0.616495 24.8827 0.23828 24.8874C0.0874587 24.8874 0.00624245 24.8781 0.00160178 24.6785C-0.00535922 24.0451 -0.0169836 24.0451 0.616467 24.0428C1.69542 24.0428 2.77442 24.0497 3.85338 24.0335C4.09933 24.0288 4.17587 24.0822 4.16659 24.3398C4.14803 24.885 4.16428 24.885 3.60276 24.885C3.34753 24.885 3.08996 24.9059 2.83704 24.8804C2.5586 24.8525 2.51222 24.9686 2.51222 25.2192C2.5215 27.4884 2.50759 29.7554 2.52615 32.0247C2.52847 32.3635 2.42406 32.4586 2.11777 32.4122C2.0528 32.4029 1.98317 32.3983 1.9182 32.4122C1.70241 32.4493 1.66294 32.3495 1.66526 32.1523C1.67454 30.9852 1.66991 29.8181 1.66991 28.6486V28.6463Z" fill="#1D120F"/>
<path d="M43.5591 35.4033C43.3201 35.4729 43.146 35.4172 42.9651 35.2756C42.4082 34.8417 41.798 34.8765 41.2132 35.1851C40.6007 35.5077 40.4962 36.2525 40.951 36.7746C41.4917 37.3941 42.7331 37.3314 43.1902 36.6585C43.2389 36.5866 43.3271 36.5124 43.2876 36.4219C43.2458 36.3267 43.1321 36.3708 43.0509 36.3708C42.6518 36.3662 42.2504 36.3708 41.8513 36.3708C41.7701 36.3708 41.6657 36.3987 41.6634 36.2525C41.6634 36.1086 41.7585 36.1295 41.8467 36.1295C42.4129 36.1295 42.9813 36.1342 43.5475 36.1226C43.7447 36.1179 43.7795 36.1945 43.7285 36.3615C43.566 36.8813 43.2017 37.2038 42.6959 37.3593C42.1808 37.5194 41.6611 37.4869 41.1622 37.2827C40.6633 37.0762 40.3408 36.7142 40.3083 36.155C40.2758 35.6074 40.5473 35.2083 41.0114 34.9624C41.7539 34.5656 42.5033 34.5865 43.2226 35.0436C43.3595 35.1295 43.4848 35.2362 43.5614 35.4033H43.5591Z" fill="#1D120F"/>
<path d="M46.4057 36.9977C46.4057 36.2807 46.4057 35.6356 46.4057 34.9929C46.4057 34.8769 46.3616 34.7562 46.5682 34.7493C46.7955 34.7423 46.7491 34.8815 46.7491 35.0068C46.7491 35.7076 46.7515 36.4083 46.7445 37.1067C46.7445 37.2019 46.8257 37.3504 46.6587 37.3829C46.5102 37.4107 46.3547 37.4316 46.2364 37.2761C45.9579 36.9165 45.6725 36.5615 45.3871 36.2064C45.1203 35.8723 44.8511 35.5405 44.5448 35.1623C44.5448 35.8514 44.5518 36.4756 44.5379 37.0998C44.5379 37.1972 44.6516 37.3852 44.401 37.3921C44.2664 37.3945 44.1968 37.3805 44.1968 37.2204C44.2037 36.4547 44.1991 35.6867 44.2014 34.921C44.2014 34.8467 44.1852 34.7539 44.3081 34.7586C44.4567 34.7655 44.6005 34.7191 44.7258 34.8815C45.2108 35.515 45.7143 36.1368 46.2108 36.7633C46.2619 36.8283 46.3176 36.8909 46.4057 37V36.9977Z" fill="#1D120F"/>
<path d="M31.7576 36.0553C31.7576 35.6887 31.7576 35.322 31.7576 34.9554C31.7576 34.8533 31.746 34.7466 31.9014 34.7536C32.4212 34.7768 32.9456 34.6979 33.4607 34.8232C34.115 34.9856 34.5025 35.4682 34.4955 36.1109C34.4909 36.7166 34.1196 37.1342 33.4537 37.3059C32.9502 37.4359 32.4374 37.3663 31.9316 37.3918C31.7646 37.4011 31.7553 37.3059 31.7576 37.1829C31.7576 36.8047 31.7576 36.4288 31.7576 36.0506H31.7599L31.7576 36.0553ZM32.6973 35.0227C32.5441 35.0227 32.4212 35.032 32.2982 35.0227C32.145 35.0088 32.1149 35.0761 32.1149 35.2153C32.1218 35.7931 32.1172 36.3708 32.1149 36.9486C32.1149 37.053 32.1056 37.1528 32.2588 37.1505C32.6254 37.1458 32.9943 37.1829 33.3516 37.0762C33.8366 36.9323 34.1336 36.517 34.1127 36.0321C34.0918 35.5471 33.7855 35.1991 33.289 35.0807C33.0801 35.032 32.8714 35.0181 32.6927 35.025L32.6973 35.0227Z" fill="#1D120F"/>
<path d="M35.8324 34.7565C36.0667 34.7565 36.2988 34.7565 36.5331 34.7565C36.6283 34.7565 36.7025 34.7565 36.7025 34.8934C36.7025 35.0327 36.619 35.0257 36.5308 35.0257C36.1758 35.0257 35.8208 35.0327 35.4635 35.0234C35.3196 35.0211 35.2732 35.0651 35.2755 35.209C35.2918 36.0954 35.1456 35.9028 35.9484 35.926C36.1364 35.9306 36.3267 35.926 36.5146 35.9213C36.6306 35.919 36.7072 35.9469 36.7025 36.0861C36.6956 36.216 36.6121 36.216 36.5193 36.216C36.1758 36.216 35.8301 36.223 35.4867 36.2137C35.3266 36.2091 35.2825 36.2624 35.2755 36.4202C35.2338 37.1511 35.2268 37.1511 35.967 37.1511C36.1665 37.1511 36.3661 37.1488 36.5657 37.1511C36.6329 37.1511 36.7002 37.1558 36.7072 37.2509C36.7118 37.346 36.6747 37.3924 36.5726 37.3924C36.0737 37.3924 35.5725 37.3878 35.0736 37.3924C34.9391 37.3924 34.9321 37.3205 34.9321 37.2254C34.9321 36.4597 34.9344 35.6916 34.9321 34.9259C34.9321 34.796 34.9716 34.7496 35.1015 34.7542C35.3451 34.7612 35.5911 34.7542 35.8347 34.7542L35.8324 34.7565Z" fill="#1D120F"/>
<path d="M38.1709 34.6963C38.4911 34.7079 38.7858 34.7891 38.9181 35.1279C38.9506 35.2091 39.0666 35.3437 38.9181 35.411C38.7951 35.4666 38.6838 35.4295 38.6049 35.2694C38.4378 34.9306 38.0271 34.8657 37.7394 35.1047C37.4934 35.3089 37.505 35.5757 37.7881 35.7196C37.9645 35.8077 38.164 35.8495 38.3543 35.9052C38.9158 36.0676 39.1316 36.3043 39.0689 36.7034C38.9947 37.1814 38.5863 37.4876 38.0549 37.4598C37.6071 37.4366 37.259 37.2185 37.1639 36.8867C37.1407 36.8055 37.0618 36.6779 37.2127 36.643C37.3217 36.6175 37.4331 36.6106 37.5027 36.7707C37.6605 37.1396 37.8438 37.2231 38.2336 37.1605C38.4912 37.1187 38.6512 36.9795 38.6884 36.708C38.7255 36.4389 38.5979 36.288 38.3543 36.2138C38.1965 36.1651 38.034 36.1256 37.8739 36.0862C37.4191 35.9701 37.208 35.7335 37.2335 35.3645C37.2567 35.0211 37.5352 34.7659 37.9598 34.7102C38.0248 34.7009 38.092 34.7032 38.1686 34.6986L38.1709 34.6963Z" fill="#1D120F"/>
<path d="M39.8721 36.0904C39.8721 36.4663 39.8721 36.8445 39.8721 37.2204C39.8721 37.3317 39.8675 37.406 39.7143 37.3898C39.5913 37.3782 39.4985 37.3828 39.4985 37.2204C39.5032 36.4547 39.5055 35.6913 39.4985 34.9256C39.4985 34.7608 39.5821 34.7562 39.7051 34.7515C39.842 34.7446 39.8721 34.8026 39.8698 34.9256C39.8652 35.3131 39.8698 35.7006 39.8698 36.0881L39.8721 36.0904Z" fill="#1D120F"/>
</svg>
