<svg width="106" height="20" viewBox="0 0 106 20" fill="none" xmlns="http://www.w3.org/2000/svg">
<path d="M50.3252 12.6323C50.3252 10.0845 50.3252 7.65143 50.3252 5.21839C50.3252 3.60487 50.3316 1.99134 50.3188 0.37782C50.3188 0.0876405 50.389 0.00473108 50.6824 0.00791986C51.7443 0.0270525 52.8029 0.0238638 53.8648 0.00791986C54.1167 0.00473108 54.1869 0.0716955 54.1869 0.326798C54.1805 6.75219 54.1805 13.1776 54.1869 19.5998C54.1869 19.8453 54.1358 19.9346 53.8743 19.9282C53.1728 19.9091 52.4681 19.9091 51.7666 19.9282C51.5274 19.9346 51.3934 19.8421 51.2499 19.6636C47.94 15.5437 44.6237 11.4301 41.3041 7.31661C41.234 7.22732 41.1926 7.10615 41.014 7.06788C41.014 7.47605 41.014 7.87146 41.014 8.26687C41.014 12.0009 41.0076 15.7382 41.0236 19.4722C41.0236 19.8453 40.9342 19.941 40.5643 19.9314C39.5503 19.9027 38.5331 19.9091 37.5159 19.9314C37.213 19.9378 37.1523 19.839 37.1523 19.5552C37.1587 13.1616 37.1619 6.76495 37.1523 0.371441C37.1523 0.0621289 37.2544 0.00473419 37.5318 0.0111118C38.2939 0.0302444 39.0561 0.0270557 39.8182 0.0111118C40.0669 0.00473419 40.22 0.0876396 40.373 0.282155C43.5714 4.26175 46.7729 8.23816 49.9776 12.2146C50.0701 12.3294 50.1626 12.4378 50.3252 12.6355V12.6323Z" fill="#010101"/>
<path d="M99.7194 11.3383C101.779 14.1922 103.82 17.0175 105.861 19.8427C105.753 19.9799 105.625 19.9193 105.517 19.9193C104.365 19.9257 103.214 19.9097 102.066 19.932C101.77 19.9384 101.614 19.8268 101.454 19.6036C99.6971 17.1387 97.9273 14.6801 96.1703 12.212C95.979 11.9441 95.794 11.8134 95.4464 11.8293C94.7162 11.8612 93.9828 11.858 93.2494 11.8293C92.8763 11.8134 92.7455 11.8867 92.7487 12.3045C92.7742 14.696 92.7487 17.0844 92.7711 19.476C92.7711 19.8555 92.6721 19.9416 92.3054 19.932C91.336 19.9033 90.3635 19.9033 89.3909 19.932C89.0019 19.9416 88.8743 19.8651 88.8775 19.4378C88.8934 13.2675 88.8903 7.09719 88.8903 0.923705C88.8903 0.31571 89.1996 0.011713 89.8183 0.011713C92.3278 0.011713 94.8405 -0.0201753 97.3501 0.0212789C99.0497 0.0499779 100.561 0.595259 101.741 1.89947C104.005 4.40266 103.76 9.63546 99.7225 11.3319L99.7194 11.3383ZM92.7583 5.88863C92.7583 6.61887 92.7647 7.35229 92.7551 8.08252C92.7551 8.28979 92.8029 8.3727 93.0261 8.36951C94.2952 8.35675 95.5676 8.39183 96.8336 8.344C98.2462 8.28979 99.2156 7.36823 99.2889 6.10228C99.3718 4.7056 98.5714 3.69156 97.1046 3.49067C95.727 3.30253 94.3303 3.4524 92.9432 3.42052C92.6881 3.41414 92.7583 3.60228 92.7583 3.73621C92.7551 4.45368 92.7583 5.17116 92.7583 5.88545V5.88863Z" fill="#010101"/>
<path d="M87.0856 19.9223C85.8483 19.9223 84.6525 19.9128 83.4567 19.9287C83.1729 19.9319 83.1506 19.747 83.0868 19.5748C82.5989 18.2482 82.1047 16.9249 81.6359 15.592C81.5403 15.3177 81.4159 15.2348 81.1321 15.238C78.9957 15.2508 76.8591 15.2508 74.7227 15.238C74.4261 15.238 74.3177 15.3433 74.2252 15.6079C73.7533 16.9408 73.2494 18.261 72.7807 19.5939C72.6914 19.849 72.5798 19.9351 72.3087 19.9319C71.148 19.916 69.9842 19.9255 68.7788 19.9255C69.3337 18.4077 69.8725 16.9313 70.4146 15.4517C72.2386 10.4644 74.0689 5.47717 75.8833 0.483536C76.0173 0.116826 76.18 -0.010725 76.5786 0.00521895C77.5192 0.0434843 78.4599 0.0307274 79.4006 0.00840597C79.7067 0.00202841 79.8279 0.0976913 79.93 0.381493C82.1589 6.48801 84.4006 12.5882 86.6391 18.6915C86.7858 19.0933 86.9293 19.4951 87.0856 19.9255V19.9223ZM77.8955 5.59197C77.1716 7.56901 76.4478 9.54605 75.7175 11.5199C75.6187 11.791 75.7335 11.8133 75.9567 11.8101C77.2386 11.8037 78.5237 11.791 79.8056 11.8165C80.1786 11.8228 80.2265 11.7431 80.1021 11.4051C79.4197 9.56837 78.7597 7.72526 78.0868 5.88533C78.0486 5.78329 78.0645 5.63661 77.8955 5.59197Z" fill="#010101"/>
<path d="M17.0406 19.9219C17.774 17.9194 18.4882 15.9678 19.2025 14.0131C20.8575 9.48505 22.5156 4.96017 24.1579 0.428912C24.2822 0.0877121 24.448 -0.00795014 24.7956 0.00161621C25.765 0.0271265 26.7376 0.0175584 27.7102 0.00480324C27.943 0.00480324 28.0769 0.0430698 28.1662 0.294983C30.5291 6.76502 32.8983 13.2351 35.2676 19.7019C35.2867 19.7561 35.3027 19.8135 35.3378 19.9187C34.0973 19.9187 32.8792 19.9124 31.6643 19.9219C31.4219 19.9219 31.4219 19.7465 31.3677 19.603C30.8767 18.2765 30.3792 16.9532 29.9041 15.6235C29.8052 15.346 29.7 15.2312 29.3811 15.2312C27.2446 15.2504 25.1081 15.244 22.9685 15.2312C22.7006 15.2312 22.5858 15.3046 22.4965 15.5629C22.0373 16.8703 21.5367 18.1585 21.0903 19.4691C20.9627 19.839 20.7841 19.9283 20.4206 19.9219C19.3141 19.8996 18.2108 19.9124 17.0342 19.9124L17.0406 19.9219ZM26.1987 5.47356C25.427 7.57497 24.7064 9.5552 23.9762 11.5322C23.8677 11.8224 24.0367 11.8129 24.2312 11.8129C25.3186 11.8097 26.4091 11.8129 27.4965 11.8129C28.4946 11.8129 28.4978 11.8129 28.1694 10.8977C27.5316 9.1311 26.8843 7.3677 26.1987 5.47994V5.47356Z" fill="#010101"/>
<path d="M65.5834 11.6984C65.5834 14.3132 65.5769 16.928 65.5929 19.5428C65.5929 19.8617 65.51 19.935 65.2007 19.9286C64.1707 19.9063 63.1375 19.8999 62.1076 19.9286C61.7472 19.9382 61.7058 19.8138 61.709 19.5013C61.7185 14.2877 61.709 9.07085 61.7249 3.85719C61.7249 3.49048 61.6516 3.38525 61.2689 3.39482C59.8053 3.42033 58.3384 3.39482 56.8748 3.41395C56.5272 3.42033 56.4507 3.31191 56.4602 2.98665C56.4826 2.1193 56.4762 1.25195 56.4602 0.387793C56.4571 0.116747 56.4985 0.00195312 56.8174 0.00195312C61.3901 0.0147082 65.9628 0.0115177 70.5355 0.00514015C70.7746 0.00514015 70.8703 0.0465947 70.8671 0.314452C70.8512 1.2392 70.8512 2.16713 70.8671 3.09507C70.8735 3.36293 70.7747 3.41076 70.5324 3.40757C69.0528 3.398 67.5731 3.41714 66.0935 3.39482C65.7045 3.38844 65.5674 3.46497 65.5738 3.89545C65.5961 6.49431 65.5866 9.09636 65.5866 11.6952L65.5834 11.6984Z" fill="#010101"/>
<path d="M16.119 19.9216C14.7255 19.9216 13.4149 19.9152 12.1075 19.928C11.897 19.928 11.8269 19.8036 11.7312 19.6697C9.47037 16.5192 7.2127 13.3654 4.94867 10.2213C4.81474 10.0364 4.79879 9.91519 4.93909 9.72067C7.21269 6.56059 9.47994 3.39732 11.7408 0.230856C11.8428 0.087361 11.9417 0.00764553 12.133 0.0108343C13.4308 0.0204007 14.7287 0.0172084 16.0297 0.0172084C16.0648 0.189403 15.934 0.269124 15.8607 0.367976C13.6572 3.44834 11.457 6.53189 9.23756 9.60269C9.03667 9.88011 9.03667 10.0459 9.23756 10.3265C11.4633 13.4101 13.6732 16.5064 15.8862 19.5995C15.9468 19.6824 16.0042 19.7685 16.1158 19.928L16.119 19.9216Z" fill="#010101"/>
<path d="M3.52332 19.9125C2.4487 19.9157 1.37413 19.9061 0.299508 19.9316C-0.108656 19.9412 0.0188552 19.6797 0.0188552 19.4884C0.0156664 14.128 0.0156633 8.76452 0.0156633 3.40417C0.0156633 2.39014 0.0252234 1.37292 0.00927948 0.358887C0.0060907 0.0942177 0.0539411 0.0017411 0.347309 0.00811867C1.40598 0.0368177 2.46465 0.0336309 3.52332 0.0400084C3.52013 0.307866 3.51056 0.575725 3.51056 0.843583C3.51374 7.19882 3.52013 13.5541 3.52332 19.9093V19.9125Z" fill="#010101"/>
<path d="M3.52351 19.9122C3.52032 13.557 3.51393 7.20172 3.51074 0.846479C3.51074 0.578622 3.51713 0.310763 3.52351 0.0429052C4.29519 -0.0336255 4.68108 0.301199 4.68108 1.04737C4.68427 7.14432 4.69058 13.2413 4.69696 19.3382C4.69696 20.0589 4.73527 19.9313 4.10708 19.9409C3.91257 19.9409 3.72122 19.9218 3.5267 19.9122H3.52351Z" fill="#DEC345"/>
</svg>
