<svg width="144" height="36" viewBox="0 0 144 36" fill="none" xmlns="http://www.w3.org/2000/svg">
<path d="M82.5515 30.2998C81.9515 30.9998 81.2515 31.4999 80.3515 31.5999C76.7515 32.0999 74.7515 28.7999 75.7515 25.5999C76.7515 22.3999 80.6515 21.5999 82.6515 24.1999L82.8515 22.8998H84.4515V31.2998C84.3515 33.1998 83.6515 34.5999 81.6515 35.0999C79.6515 35.5999 75.8515 35.0999 75.7515 32.1999H77.6515C77.9515 33.8999 80.6515 34.0999 81.8515 33.1999C83.0515 32.2999 82.6515 32.1998 82.6515 31.7998V30.2998H82.5515ZM79.4515 24.2998C76.5515 24.6998 76.5515 30.1999 79.9515 30.0999C83.3515 29.9999 83.3515 23.6998 79.4515 24.2998Z" fill="black"/>
<path d="M8.05161 22C8.05161 22 7.35161 22 7.25161 22C5.55161 22 3.6516 22.4 1.9516 22.4C0.251603 22.4 1.1516 21.9 0.951603 21.4C0.451603 20.2 -0.0483943 19.2 1.75161 19C3.55161 18.8 5.7516 19 7.6516 19C9.5516 19 8.8516 18.8 9.4516 19C10.0516 19.2 10.3516 20.6 10.6516 21.2C10.9516 21.8 11.4516 22.5 11.4516 22.9C11.4516 23.3 11.4516 23.4 11.2516 23.6L5.4516 29.2C5.0516 29.4 4.65161 29.5 4.25161 29.2C3.85161 28.9 3.4516 27.7 3.4516 27.3C3.3516 26.8 3.45161 26.6 3.75161 26.3L8.25161 22.3V22.1L8.05161 22Z" fill="black"/>
<path d="M22.4517 28.0995C22.4517 28.0995 22.4517 28.8995 22.4517 28.9995C22.4517 30.6995 22.8517 32.5995 22.8517 34.1995C22.8517 35.7995 22.8517 34.6995 22.6517 34.7995C22.4517 34.8995 21.0517 35.5995 20.8517 35.5995C19.9517 35.7995 19.5517 35.2995 19.4517 34.4995C19.2517 32.6995 19.4517 30.4995 19.4517 28.6995C19.4517 26.8995 19.2517 27.3995 19.4517 26.6995C19.6517 25.9995 20.2517 25.9995 20.7517 25.7995C21.2517 25.5995 21.4517 25.5995 21.7517 25.3995C22.4517 25.0995 23.3517 24.1995 24.0517 24.7995C25.6517 26.5995 27.6517 28.2995 29.2517 30.1995C30.8517 32.0995 30.0517 31.2995 29.5517 31.7995C29.0517 32.2995 27.9517 32.5995 27.7517 32.5995C27.2517 32.6995 27.0517 32.5995 26.7517 32.2995L22.7517 27.7995H22.5517L22.4517 28.0995Z" fill="black"/>
<path d="M28.5515 13.8C28.5515 13.8 29.2515 13.8 29.3515 13.8C31.0515 13.8 32.9515 13.4001 34.6515 13.4001C36.3515 13.4001 35.2515 13.6001 35.4515 14.0001C35.6515 14.4001 36.0515 15.3001 36.0515 15.6001C36.2515 16.5001 35.5515 16.8001 34.7515 16.9001C32.9515 17.1001 30.7515 16.9001 28.8515 16.9001C26.9515 16.9001 27.6515 17.1001 27.0515 16.9001C26.4515 16.7001 26.2515 15.5001 25.9515 14.9001C25.6515 14.3001 25.6515 14.3001 25.5515 14.0001C25.2515 13.4001 24.7515 13 25.2515 12.3L30.7515 7.00006C31.3515 6.60006 31.9515 6.40007 32.4515 7.10007C32.9515 7.80007 33.1515 8.80006 33.1515 9.00006C33.1515 9.20006 33.0515 9.50007 32.8515 9.70007C31.6515 11.0001 29.8515 12.2001 28.5515 13.5001C27.2515 14.8001 28.2515 13.8001 28.4515 13.9001L28.5515 13.8Z" fill="black"/>
<path d="M14.1516 7.70001C14.1516 7.70001 14.1516 7.09999 14.1516 6.89999C14.1516 5.19999 13.7516 3.30001 13.7516 1.60001C13.7516 -0.0999939 14.2516 0.8 14.7516 0.5C15.2516 0.2 15.8516 0 16.2516 0C16.9516 0 17.0516 0.9 17.0516 1.5C17.1516 3.4 17.0516 5.49999 17.0516 7.29999C17.0516 9.09999 17.2516 8.70001 17.0516 9.20001C16.8516 9.70001 15.3516 9.90001 14.7516 10.1C14.1516 10.3 13.2516 11.3 12.4516 10.6L7.15158 5.10001C6.85158 4.70001 6.55158 4.10001 6.95158 3.60001C7.35158 3.10001 8.55158 2.8 8.85158 2.8C9.15158 2.8 9.45159 2.7 9.75159 3C11.0516 4.3 12.2516 5.99999 13.5516 7.29999C14.8516 8.59999 13.8516 7.7 14.0516 7.5L14.1516 7.70001Z" fill="black"/>
<path d="M8.05154 13.7996C8.25154 13.5996 7.95153 13.3996 7.75153 13.1996C6.55153 11.9996 5.05152 10.9996 3.85152 9.79958C2.65152 8.59958 3.25153 9.29959 3.25153 8.89959C3.25153 8.49959 3.95153 6.89961 4.15153 6.69961C4.45153 6.39961 4.95152 6.39961 5.35152 6.69961C5.75152 6.99961 6.25153 7.49961 6.45153 7.69961C8.05153 9.19961 9.65153 10.7996 11.2515 12.2996C11.4515 12.4996 11.4515 12.8996 11.3515 13.1996C11.2515 13.4996 10.7515 14.2996 10.5515 14.6996C10.3515 15.0996 10.1515 16.4996 9.75153 16.6996C9.35153 16.8996 8.75153 16.8996 8.25153 16.8996C6.05153 16.8996 3.55152 16.9996 1.35152 16.7996C-0.848476 16.5996 0.25153 16.2996 0.45153 15.4996C0.65153 14.6996 1.05153 13.9996 1.15153 13.7996C1.45153 13.2996 1.75153 13.3996 2.25153 13.3996C3.35153 13.3996 4.35153 13.5996 5.45153 13.6996C6.55153 13.7996 7.15153 13.6996 7.95153 13.7996H8.05154Z" fill="black"/>
<path d="M22.4514 7.70021C22.5514 7.90021 22.9514 7.50019 23.0514 7.40019C24.2514 6.20019 25.2514 4.7002 26.4514 3.5002C27.6514 2.3002 26.9514 2.90019 27.3514 2.90019C27.7514 2.90019 28.9514 3.50021 29.2514 3.60021C29.5514 3.70021 29.7514 4.00019 29.7514 4.40019C29.7514 5.00019 28.9514 5.70021 28.5514 6.10021C27.0514 7.70021 25.4514 9.20019 23.9514 10.8002C23.2514 11.3002 22.4514 10.5002 21.7514 10.2002C21.0514 9.90021 19.7514 9.70019 19.4514 9.30019C19.1514 8.90019 19.3514 8.20021 19.4514 7.70021C19.4514 5.70021 19.4514 3.80019 19.5514 1.90019C19.6514 0.000193834 19.4514 0.900194 19.7514 0.400194C20.0514 -0.0998062 20.6514 0.100197 21.0514 0.200197C21.4514 0.300197 22.4514 0.8002 22.6514 1.0002C22.8514 1.2002 22.8514 1.60019 22.8514 1.90019C22.8514 3.30019 22.6514 4.70021 22.5514 6.10021C22.4514 7.50021 22.5514 7.70019 22.5514 7.80019L22.4514 7.70021Z" fill="black"/>
<path d="M16.8514 35.4996C16.6514 35.6996 16.2514 35.7997 15.9514 35.6997C15.6514 35.5997 14.4514 35.0996 14.2514 34.9996C13.7514 34.6996 13.8514 34.3996 13.8514 33.8996C13.8514 32.1996 14.1514 30.3997 14.2514 28.6997C14.3514 26.9997 14.0514 27.9996 13.6514 28.4996C12.4514 29.6996 11.4514 31.1996 10.2514 32.3996C9.05143 33.5996 9.75143 32.9996 9.25143 32.8996C8.75143 32.7996 7.55143 32.1996 7.35143 32.0996C6.85143 31.6996 7.05143 31.0997 7.35143 30.6997C8.75143 28.7997 11.1514 27.0997 12.5514 25.1997C13.3514 24.3997 14.1514 25.2997 14.9514 25.6997C15.7514 26.0997 16.8514 26.1996 17.1514 26.4996C17.5514 26.9996 17.3514 27.2996 17.3514 27.7996C17.3514 29.7996 17.3514 31.6996 17.2514 33.5996C17.1514 35.4996 17.3514 35.0996 16.9514 35.5996L16.8514 35.4996Z" fill="black"/>
<path d="M28.5513 22.0003V22.3003C28.5513 22.3003 28.5513 22.3003 28.6513 22.4003C29.9513 23.7003 31.5513 24.8003 32.8513 26.0003C34.1513 27.2003 33.4513 26.5003 33.3513 27.0003C33.2513 27.5003 32.7513 28.5003 32.5513 28.8003C31.8513 29.8003 30.8513 28.8003 30.3513 28.2003C28.8513 26.8003 27.2513 25.3003 25.8513 23.8003C24.4513 22.3003 25.6513 23.7003 25.5513 23.6003C24.8513 22.8003 25.7513 21.9003 26.0513 21.1003C26.3513 20.3003 26.4513 19.7003 26.6513 19.2003C26.9513 18.5003 27.8513 18.7003 28.3513 18.7003C30.3513 18.7003 32.2513 18.7002 34.2513 18.8002C36.2513 18.9002 36.1513 18.7003 36.2513 19.6003C36.3513 20.5003 35.7513 21.2003 35.5513 21.6003C35.2513 22.2003 34.9513 22.1003 34.3513 22.1003C33.3513 22.1003 32.2513 21.9003 31.2513 21.8003C30.2513 21.7003 29.5513 21.8003 28.7513 21.7003L28.5513 22.0003Z" fill="black"/>
<path d="M58.9518 16.1H56.9518L55.7518 13.1H50.8517L49.5518 16.1H47.5518L52.1517 4C52.8517 4 53.6518 4 54.2518 4C54.8518 4 54.3518 4 54.4518 4L58.8517 16L58.9518 16.1ZM55.1517 11.5L53.2518 6.20001L51.3517 11.5H55.1517Z" fill="black"/>
<path d="M50.4517 19.5996V26.7996C50.5517 28.5996 51.1517 29.9996 53.2517 29.9996C55.3517 29.9996 55.7517 29.0996 55.9517 27.5996C56.1517 24.8996 55.9517 22.2996 55.9517 19.5996H57.9517V27.1996C57.9517 33.2996 48.4517 33.2996 48.4517 27.1996V19.5996H50.4517Z" fill="black"/>
<path d="M87.1516 14.8998V19.5999H85.3516V7.29984H86.8516L87.1516 8.59985L87.7516 7.99985C91.8516 5.39985 95.5516 9.59984 93.8516 13.7998C92.1516 17.9998 89.0516 17.0998 87.1516 14.9998V14.8998ZM89.3516 8.79984C86.3516 9.19984 86.5516 14.6999 89.8516 14.6999C93.1516 14.6999 93.3516 8.29984 89.3516 8.79984Z" fill="black"/>
<path d="M104.451 29.9998V31.5998H103.051C103.051 31.5998 102.651 31.4998 102.551 31.3998C102.051 31.1998 101.851 30.6998 101.951 30.1998L101.451 30.7998C99.4515 32.5998 95.0515 31.6998 95.8515 28.3998C96.6515 25.0998 97.4515 26.2998 98.6515 26.2998H101.751C101.951 25.8998 101.751 25.1998 101.551 24.7998C100.851 23.6998 98.0515 23.8998 97.9515 25.3998H96.1515C96.2515 22.8998 99.4515 22.2998 101.451 22.7998C104.651 23.5998 103.451 26.8998 103.751 29.2998C104.051 31.6998 104.051 29.9998 104.651 29.9998H104.451ZM101.651 27.6998H99.1515C99.0515 27.6998 98.5515 27.6998 98.4515 27.7998C97.2515 28.1998 97.2515 29.7998 98.4515 30.1998C100.151 30.6998 101.851 29.4998 101.651 27.6998Z" fill="black"/>
<path d="M67.9515 12.1H61.2515C61.2515 13.9 62.4515 14.9 64.2515 14.7C66.0515 14.5 65.8515 14 65.9515 13.2H67.8515C67.6515 14.8 66.1515 16 64.6515 16.2C61.4515 16.6 59.1515 14.5 59.3515 11.3C59.7515 5.30002 68.8515 6.20004 67.9515 12.1ZM66.0515 10.7C65.8515 8.00004 61.6515 8.00004 61.3515 10.7H66.0515Z" fill="black"/>
<path d="M113.752 12.1001H107.052C107.052 13.2001 107.752 14.5001 108.952 14.7001C110.152 14.9001 111.352 14.5001 111.752 13.2001H113.552C113.152 15.8001 110.552 16.7001 108.152 16.1001C103.852 15.0001 104.052 8.20005 108.252 7.30005C112.452 6.40005 114.052 8.80007 113.552 12.1001H113.752ZM111.952 10.7001C111.652 8.00008 107.552 8.00008 107.152 10.7001H111.952Z" fill="black"/>
<path d="M129.951 7.20027C133.351 6.90027 135.351 9.00026 135.151 12.4003C134.951 15.8003 131.951 16.8003 129.151 16.0003C124.751 14.8003 125.251 7.70027 129.951 7.20027ZM130.151 8.80025C127.251 9.20025 127.351 14.2003 130.051 14.6003C134.351 15.3003 134.251 8.20025 130.151 8.80025Z" fill="black"/>
<path d="M78.6515 7.20048C82.2515 6.80048 84.5515 9.50047 83.7515 13.0005C82.9515 16.5005 80.5515 16.6005 78.1515 16.1005C73.5515 15.1005 73.8515 7.70048 78.6515 7.20048ZM78.9515 8.80046C75.8515 9.20046 75.9515 15.1005 79.8515 14.6005C83.7515 14.1005 82.8515 8.30046 78.9515 8.80046Z" fill="black"/>
<path d="M106.352 22.7998L108.752 29.4998L111.252 22.7998H113.152L108.852 33.7998C108.652 34.3998 107.952 35.0998 107.352 35.0998H104.952V33.4998H106.652C107.252 33.4998 107.652 32.1998 107.852 31.6998L104.452 22.8998H106.452L106.352 22.7998Z" fill="black"/>
<path d="M101.852 7.19962H103.652V16.0996H102.052L101.852 14.9996C100.352 16.6996 96.9516 16.5996 96.0516 14.2996C95.1516 11.9996 95.7516 13.0996 95.6516 12.4996C95.5516 10.7996 95.6516 8.89961 95.6516 7.09961H97.5516V12.4996C97.5516 13.1996 98.2516 14.0996 98.8516 14.2996C100.552 14.7996 101.852 13.3996 101.852 11.7996V7.09961V7.19962Z" fill="black"/>
<path d="M87.9515 22.7998V27.8998C87.9515 28.0998 88.1515 28.7998 88.2515 28.9998C88.9515 30.5998 91.3515 30.3998 92.0515 28.7998C92.7515 27.1998 92.3515 27.8998 92.3515 27.7998V22.7998H94.2515V31.5998H92.6515L92.4515 30.4998C92.4515 30.4998 91.9515 30.8998 91.8515 30.9998C90.4515 32.0998 87.8515 31.8998 86.7515 30.2998C85.6515 28.6998 86.1515 28.9998 86.1515 28.5998V22.7998H87.9515Z" fill="black"/>
<path d="M67.7514 22.7998C67.7514 24.2998 67.7514 25.9998 67.7514 27.4998C67.7514 28.9998 68.7514 30.6998 70.6514 29.9998C72.5514 29.2998 72.0514 28.6998 72.0514 27.9998V22.8998H73.9514V31.6998H72.3513L72.1514 30.5998C70.4514 32.3998 66.9514 32.0998 66.1514 29.5998C65.3514 27.0998 65.9514 28.6998 65.9514 28.4998V22.8998H67.7514V22.7998Z" fill="black"/>
<path d="M143.852 9.90044H142.052C141.852 8.60044 140.252 8.30046 139.252 8.70046C138.252 9.10046 137.852 10.1004 138.952 10.5004C140.052 10.9004 141.852 10.6004 143.052 11.5004C144.252 12.4004 144.252 14.7005 142.752 15.6005C141.252 16.5005 136.352 16.2005 136.352 13.2005H138.152C138.152 13.4005 138.252 13.7004 138.452 13.9004C139.152 15.0004 141.952 15.1004 142.252 13.9004C142.552 12.7004 141.952 12.7004 141.252 12.5004C139.752 12.2004 137.052 12.3004 136.652 10.4004C136.252 8.50044 137.452 7.60043 138.952 7.30043C140.452 7.00043 143.852 7.50045 143.952 10.0004L143.852 9.90044Z" fill="black"/>
<path d="M123.252 4.7998V7.29979H125.352V8.8998H123.252V13.7998C123.252 13.9998 123.652 14.4998 123.952 14.4998H125.652V16.0998H123.452C122.852 16.0998 122.152 15.6998 121.852 15.1998C121.552 14.6998 121.552 14.4998 121.552 14.3998V4.7998H123.352H123.252Z" fill="black"/>
<path d="M61.6516 22.7998L61.8516 24.0998C62.1516 23.5998 62.5516 23.1998 63.0516 22.9998C63.5516 22.7998 63.5516 22.7998 63.6516 22.7998H64.8516V24.4998H63.6516C63.3516 24.4998 62.6516 24.7998 62.4516 25.0998C62.2516 25.3998 61.7516 26.2998 61.7516 26.6998V31.5998H59.8516V22.7998H61.5516H61.6516Z" fill="black"/>
<path d="M116.952 7.19962L117.152 8.4996C117.752 7.8996 118.152 7.39959 119.052 7.29959C119.952 7.19959 119.952 7.09959 120.252 7.29959V8.9996H118.952C118.852 8.9996 118.252 9.19959 118.152 9.29959C117.352 9.79959 117.252 10.9996 117.152 11.7996C117.152 13.1996 117.152 14.5996 117.152 15.9996H115.352V7.09961H116.952V7.19962Z" fill="black"/>
<path d="M71.1517 7.20045L71.3517 8.50044C72.0517 7.50044 73.1517 7.10045 74.3517 7.20045V9.00044H73.1517C72.8517 9.00044 72.2518 9.40044 72.0518 9.60044C71.7518 10.0004 71.3517 10.9004 71.3517 11.4004V16.1004H69.5518V7.20045H71.1517Z" fill="black"/>
</svg>
