<svg width="90" height="23" viewBox="0 0 90 23" fill="none" xmlns="http://www.w3.org/2000/svg">
<path d="M25.2719 0.480467V18.4805H21.3839V1.84847L22.4159 1.92047L14.7359 18.4805H10.5359L2.85586 1.96847L3.86386 1.87247V18.4805H-0.000144362V0.480467H6.26386L13.5119 16.5125H11.7599L19.0079 0.480467H25.2719ZM35.0222 18.8405C33.3262 18.8405 31.8382 18.5445 30.5582 17.9525C29.2782 17.3445 28.2782 16.5045 27.5582 15.4325C26.8382 14.3445 26.4782 13.0885 26.4782 11.6645C26.4782 10.2245 26.8382 8.96847 27.5582 7.89647C28.2782 6.80847 29.2782 5.96847 30.5582 5.37647C31.8382 4.76847 33.3262 4.46447 35.0222 4.46447C36.7182 4.46447 38.2062 4.76847 39.4862 5.37647C40.7662 5.96847 41.7582 6.80847 42.4622 7.89647C43.1822 8.96847 43.5422 10.2245 43.5422 11.6645C43.5422 13.0885 43.1822 14.3445 42.4622 15.4325C41.7582 16.5045 40.7662 17.3445 39.4862 17.9525C38.2062 18.5445 36.7182 18.8405 35.0222 18.8405ZM35.0222 15.7925C35.9502 15.7925 36.7422 15.6245 37.3982 15.2885C38.0702 14.9525 38.5822 14.4805 38.9342 13.8725C39.3022 13.2485 39.4862 12.5125 39.4862 11.6645C39.4862 10.8005 39.3022 10.0645 38.9342 9.45647C38.5822 8.83247 38.0702 8.35247 37.3982 8.01647C36.7422 7.68047 35.9502 7.51247 35.0222 7.51247C34.1102 7.51247 33.3182 7.68047 32.6462 8.01647C31.9742 8.35247 31.4542 8.83247 31.0862 9.45647C30.7342 10.0645 30.5582 10.8005 30.5582 11.6645C30.5582 12.5125 30.7342 13.2485 31.0862 13.8725C31.4542 14.4805 31.9742 14.9525 32.6462 15.2885C33.3182 15.6245 34.1102 15.7925 35.0222 15.7925ZM43.983 4.82447H48.039L48.855 9.74447V18.4805H44.847V9.31247L43.983 4.82447ZM55.503 4.68047V8.13647C55.087 8.04047 54.671 7.96847 54.255 7.92047C53.839 7.87247 53.447 7.84847 53.079 7.84847C52.279 7.84847 51.559 8.01647 50.919 8.35247C50.279 8.68847 49.775 9.20847 49.407 9.91247C49.039 10.6165 48.855 11.5045 48.855 12.5765L48.015 11.5685C48.111 10.5925 48.287 9.68047 48.543 8.83247C48.799 7.96847 49.151 7.21647 49.599 6.57647C50.063 5.92047 50.631 5.40847 51.303 5.04047C51.975 4.65647 52.775 4.46447 53.703 4.46447C54.007 4.46447 54.311 4.48847 54.615 4.53647C54.935 4.56847 55.231 4.61647 55.503 4.68047ZM56.1576 4.82447H60.1656V9.16847L59.9976 9.69647V12.9845L60.1656 13.9685V22.4405H56.1576V4.82447ZM58.7736 11.6645C59.0456 10.2085 59.5176 8.94447 60.1896 7.87247C60.8776 6.78447 61.7336 5.94447 62.7576 5.35247C63.7976 4.76047 64.9496 4.46447 66.2136 4.46447C67.5576 4.46447 68.7336 4.76847 69.7416 5.37647C70.7656 5.96847 71.5656 6.80847 72.1416 7.89647C72.7176 8.96847 73.0056 10.2245 73.0056 11.6645C73.0056 13.0885 72.7176 14.3445 72.1416 15.4325C71.5656 16.5045 70.7656 17.3445 69.7416 17.9525C68.7336 18.5445 67.5576 18.8405 66.2136 18.8405C64.9336 18.8405 63.7816 18.5445 62.7576 17.9525C61.7496 17.3605 60.9016 16.5285 60.2136 15.4565C59.5256 14.3685 59.0456 13.1045 58.7736 11.6645ZM68.9496 11.6645C68.9496 10.8645 68.7816 10.1605 68.4456 9.55247C68.1256 8.92847 67.6776 8.44847 67.1016 8.11247C66.5256 7.76047 65.8616 7.58447 65.1096 7.58447C64.3576 7.58447 63.6456 7.76047 62.9736 8.11247C62.3016 8.44847 61.7096 8.92847 61.1976 9.55247C60.7016 10.1605 60.3096 10.8645 60.0216 11.6645C60.3096 12.4645 60.7016 13.1685 61.1976 13.7765C61.7096 14.3845 62.3016 14.8645 62.9736 15.2165C63.6456 15.5525 64.3576 15.7205 65.1096 15.7205C65.8616 15.7205 66.5256 15.5525 67.1016 15.2165C67.6776 14.8645 68.1256 14.3845 68.4456 13.7765C68.7816 13.1685 68.9496 12.4645 68.9496 11.6645ZM74.1529 0.000467777H78.1609V18.4805H74.1529V0.000467777ZM83.3689 4.46447C84.6649 4.46447 85.7689 4.72847 86.6809 5.25647C87.5929 5.76847 88.2889 6.50447 88.7689 7.46447C89.2489 8.42447 89.4889 9.56847 89.4889 10.8965V18.4805H85.4809V11.4965C85.4809 10.2645 85.1849 9.33647 84.5929 8.71247C84.0009 8.07247 83.1449 7.75247 82.0249 7.75247C81.2409 7.75247 80.5529 7.92847 79.9609 8.28047C79.3849 8.61647 78.9369 9.08847 78.6169 9.69647C78.3129 10.3045 78.1609 11.0325 78.1609 11.8805L76.8409 11.1845C77.0169 9.74447 77.4009 8.52847 77.9929 7.53647C78.6009 6.54447 79.3689 5.78447 80.2969 5.25647C81.2249 4.72847 82.2489 4.46447 83.3689 4.46447Z" fill="#30343F"/>
</svg>
